<svg xmlns="http://www.w3.org/2000/svg" viewBox="0 0 55.2 61.6"><defs><style>.cls-1{fill:#6c3;}</style></defs><title>Asset 8</title><g id="Layer_2" data-name="Layer 2"><g id="Layer_30" data-name="Layer 30"><path class="cls-1" d="M51,32.9l1.7-12.1H37.3l.5-5.8v-.2A7.7,7.7,0,0,0,40.5,11a19.9,19.9,0,0,0,.4-3c0-.5.1-.9.1-1.5h0a5.3,5.3,0,0,0-.9-3.9A7.1,7.1,0,0,0,34.6,0c-4.3-.1-8.3,2.5-9.2,5.9a2.2,2.2,0,0,0-.1.8,20.9,20.9,0,0,0-.4,3.5,6.5,6.5,0,0,0,.9,4.1l.4.5-.5,6H9.2L7.9,32.9H3.1L0,61.6H51.4l3.8-28.7ZM35.3,13.5a7.7,7.7,0,0,1-3.9.9,4.5,4.5,0,0,1-3.6-1.5,4.7,4.7,0,0,1-.4-1.4,7.1,7.1,0,0,0,4.3,1.4h.4a9.2,9.2,0,0,0,4.6-1.1l1-.6A5.9,5.9,0,0,1,35.3,13.5Zm-6.7,2.9a7.6,7.6,0,0,0,2.7.5h.4a10.7,10.7,0,0,0,3.5-.6L34,29.7a4.3,4.3,0,0,1-3.4,3.9,2.9,2.9,0,0,1-2.2-.7,3.3,3.3,0,0,1-.9-2.9ZM34.2,2.5h.3a4.5,4.5,0,0,1,3.6,1.6,2.6,2.6,0,0,1,.4,2.3h0a4.6,4.6,0,0,1-.7,1.4,7.9,7.9,0,0,1-2.2,1.8,7.3,7.3,0,0,1-3.8.8,4.4,4.4,0,0,1-3.6-1.6c0-.1-.2-.2-.2-.3a3.2,3.2,0,0,1-.3-1.4V6.9h0V6.6C28.4,4.3,31.3,2.5,34.2,2.5ZM25.5,23.3,25,29.7a5.8,5.8,0,0,0,1.7,4.9,4.7,4.7,0,0,0,3.5,1.5h.7a6.8,6.8,0,0,0,5.6-6.2l.6-6.6H49.8L47.9,37.7H11.8a2.3,2.3,0,0,1-1.9-.9l1.5-13.5ZM9.7,39.7a4.6,4.6,0,0,0,2.1.5H47.5l-.2,2h-35a2.5,2.5,0,0,1-2-.9A2.5,2.5,0,0,1,9.7,39.7Zm40,19.9H2.2L4.9,34.9H7.6L7.2,39a5,5,0,0,0,1.3,4,5.2,5.2,0,0,0,3.8,1.7H49.5l1.3-9.8H53Z"/><path class="cls-1" d="M23.7,47.3a4.9,4.9,0,0,0-3.3,1.3,5.8,5.8,0,0,0-1.6,4.1,3.5,3.5,0,0,0,3.6,3.8,4.7,4.7,0,0,0,3.3-1.3,5.8,5.8,0,0,0,1.6-4.1A3.5,3.5,0,0,0,23.7,47.3Zm-1.5,2.6a1.6,1.6,0,0,1,1.2-.6q1.5,0,1.5,1.8a4.5,4.5,0,0,1-1,2.8,1.6,1.6,0,0,1-1.2.6c-1.3,0-1.5-1.2-1.5-1.8a3.9,3.9,0,0,1,1-2.8Z"/><polygon class="cls-1" points="36 47.5 33.1 47.5 30.7 50.3 30.5 50.5 31.1 47.5 28.8 47.5 27.2 56.3 29.4 56.3 30 53.4 30.5 52.9 31.9 56.3 34.4 56.3 32.3 51.4 36 47.5"/></g></g></svg>