<svg xmlns="http://www.w3.org/2000/svg" viewBox="0 0 58.8 58"><defs><style>.cls-1{fill:#6c3;}</style></defs><title>Asset 10</title><g id="Layer_2" data-name="Layer 2"><g id="Layer_81" data-name="Layer 81"><path class="cls-1" d="M29.4,58h0a29.7,29.7,0,0,1-18.2-6.2L14.9,47a23.2,23.2,0,0,0,14.5,5Zm3.3-.2L32,51.9a23.6,23.6,0,0,0,13.9-6.6l4.2,4.3A29.5,29.5,0,0,1,32.7,57.8Zm-24-8.2A29.1,29.1,0,0,1,.2,32.3l6-.7a22.9,22.9,0,0,0,6.7,13.7Zm43.6-2.4-4.6-3.8A22.8,22.8,0,0,0,52.8,29h6A29,29,0,0,1,52.3,47.2ZM0,29.1H0A28.5,28.5,0,0,1,6.5,10.9l4.6,3.8A22.5,22.5,0,0,0,6,29Zm52.6-2.8a23,23,0,0,0-6.8-13.7L50,8.3a29.2,29.2,0,0,1,8.6,17.3ZM12.9,12.7,8.7,8.5A29.1,29.1,0,0,1,26.1.2l.6,5.9A23.9,23.9,0,0,0,12.9,12.7Zm31-1.8A23.7,23.7,0,0,0,29.4,6V0h.1A28.8,28.8,0,0,1,47.5,6.2Z"/><path class="cls-1" d="M17.8,32.5H15.9l.9-6.2a3.6,3.6,0,0,1,.2-1l-2.1.6V24.6l2.4-.9h1.9Z"/><path class="cls-1" d="M20.2,29.8c0-3.2.6-6.3,4-6.3s3,.9,3,2.9-.6,6.3-4.1,6.3C21.2,32.7,20.1,31.9,20.2,29.8Zm5.1-3.2c0-1.1-.4-1.5-1.3-1.5s-1.9,2.4-2,4.5.4,1.5,1.3,1.5S25.2,28.7,25.3,26.6Z"/><path class="cls-1" d="M28.2,29.8c0-3.2.7-6.3,4-6.3s3,.9,3,2.9-.6,6.3-4,6.3S28.2,31.9,28.2,29.8Zm5.1-3.2c0-1.1-.4-1.5-1.3-1.5s-1.9,2.4-1.9,4.5.3,1.5,1.2,1.5S33.3,28.7,33.3,26.6Z"/><path class="cls-1" d="M40.7,26.2c-.2,1.9-.8,2.6-2.4,2.6s-2.2-.7-1.9-2.7.8-2.6,2.4-2.6S41,24.2,40.7,26.2Zm-1.9,6.3H37.6l6.5-8.8h1.3Zm-1-6.3c-.2,1.2-.1,1.5.5,1.5s.9-.3,1.1-1.6,0-1.5-.6-1.5S37.9,24.9,37.8,26.2Zm8.8,3.9c-.3,1.9-.9,2.6-2.5,2.6S41.9,32,42.2,30s.9-2.6,2.5-2.6S46.9,28.1,46.6,30.1Zm-3,0c-.2,1.2-.1,1.5.5,1.5s.9-.3,1.1-1.6.1-1.5-.5-1.5S43.8,28.8,43.6,30.1Z"/></g></g></svg>