<?xml version="1.0" encoding="utf-8"?>
<!-- Generator: Adobe Illustrator 23.0.3, SVG Export Plug-In . SVG Version: 6.00 Build 0)  -->
<svg version="1.1" id="Layer_1" xmlns="http://www.w3.org/2000/svg" xmlns:xlink="http://www.w3.org/1999/xlink" x="0px" y="0px"
	 viewBox="0 0 463.8 136.2" style="enable-background:new 0 0 463.8 136.2;" xml:space="preserve">
<style type="text/css">
	.st0{fill:#006633;}
</style>
<g>
	<path class="st0" d="M6.8,2.2c-2.5,1.2-3.5,4.1-3.5,8.5c0,4.3,1,7.2,3.5,8.5l-0.3,1.1c-3.8-1.3-5.6-4.3-5.6-9.5
		c0-5.2,1.7-8.2,5.6-9.6L6.8,2.2z"/>
	<path class="st0" d="M16.9,6c0,1.8-0.4,3.2-2,3.5v0.1c1.8,0.3,2.3,1.5,2.4,3.5c0,2.8-1.2,4.1-4.5,4.1c-1.6,0-3.1-0.2-4.6-0.4l0.1-2
		c1.5,0.1,2.6,0.2,3.8,0.2c2,0,2.7-0.5,2.7-2.2c0-1.4-0.4-2.2-2.3-2.1H9.9V8.8h2.6c1.9,0,2.1-0.9,2.1-2.1C14.5,5.2,14,5,12.1,5
		c-1.3,0-2.6,0-3.6,0.1L8.4,3.2c1.4-0.2,2.8-0.4,4.1-0.4C15.6,2.8,16.9,3.6,16.9,6z"/>
	<rect x="19.8" y="10.1" class="st0" width="9" height="1.8"/>
	<path class="st0" d="M41.9,11.8v1.7l-1.7,0.3h0v3.1h-2.4v-3.1h-5.4c-1.2,0-1.9-1.2-1.5-2.3l3.7-8.4H37l-3.5,8
		c-0.2,0.5,0,0.7,0.4,0.7h3.8V8l0.4-2.2h1.9v6.1H41.9z"/>
	<path class="st0" d="M49,10.7c0,5.2-1.7,8.2-5.6,9.5l-0.3-1.1c2.5-1.3,3.5-4.2,3.5-8.5c0-4.4-1-7.3-3.5-8.5l0.3-1.1
		C47.3,2.4,49,5.4,49,10.7z"/>
	<path class="st0" d="M57.1,3.3c0,0.8-0.5,1.6-1.5,2.6l-2.3,2.2C53.8,8,54.1,8,54.6,8l2.8,0l0,1.6H51v-1c0-0.3,0.1-0.6,0.3-0.8
		l2.2-2.1c1-0.9,1.6-1.7,1.6-2.3c0.1-0.6-0.5-0.7-1.3-0.7c-0.9,0-1.5,0-2.7,0.1L51,1.6c1.3-0.2,2.3-0.3,2.9-0.3
		C56.1,1.3,57.1,1.6,57.1,3.3z"/>
	<polygon class="st0" points="77.3,11.8 73.7,11.8 73.7,15.2 71.9,15.2 71.9,11.8 68.3,11.8 68.3,10 71.9,10 71.9,6.6 73.7,6.6 
		73.7,10 77.3,10 	"/>
	<path class="st0" d="M89.4,2.2c-2.5,1.2-3.5,4.1-3.5,8.5c0,4.3,1,7.2,3.5,8.5l-0.3,1.1c-3.8-1.3-5.6-4.3-5.6-9.5
		c0-5.2,1.7-8.2,5.6-9.6L89.4,2.2z"/>
	<path class="st0" d="M99.3,5.2h-5.7l-0.2,2.9l1.7,0.2c3.4,0.3,4.6,1.7,4.6,4.4c0,2.3-0.8,4.4-4.6,4.4c-1.2,0-2.8-0.2-4.4-0.5l0.3-2
		c1.3,0.2,2.6,0.3,3.5,0.3c2.3,0,2.7-0.7,2.8-2.3c0.1-2.1-0.9-2.2-3.8-2.5l-1.3-0.1c-0.5,0-0.9-0.5-0.9-1l0.3-6h7.7L99.3,5.2z"/>
	<rect x="102.1" y="10.1" class="st0" width="9" height="1.8"/>
	<path class="st0" d="M124.2,11.8v1.7l-1.7,0.3h0v3.1h-2.4v-3.1h-5.4c-1.2,0-1.9-1.2-1.5-2.3l3.7-8.4h2.4l-3.5,8
		c-0.2,0.5,0,0.7,0.4,0.7h3.8V8l0.4-2.2h1.9v6.1H124.2z"/>
	<path class="st0" d="M131.3,10.7c0,5.2-1.7,8.2-5.6,9.5l-0.3-1.1c2.5-1.3,3.5-4.2,3.5-8.5c0-4.4-1-7.3-3.5-8.5l0.3-1.1
		C129.6,2.4,131.3,5.4,131.3,10.7z"/>
	<path class="st0" d="M139.5,3.3c0,0.8-0.5,1.6-1.5,2.6l-2.3,2.2c0.5-0.1,0.8-0.1,1.3-0.1l2.8,0l0,1.6h-6.5v-1
		c0-0.3,0.1-0.6,0.3-0.8l2.2-2.1c1-0.9,1.6-1.7,1.6-2.3c0.1-0.6-0.5-0.7-1.3-0.7c-0.9,0-1.5,0-2.7,0.1l-0.1-1.4
		c1.3-0.2,2.3-0.3,2.9-0.3C138.4,1.3,139.5,1.6,139.5,3.3z"/>
	<polygon class="st0" points="159.6,11.8 156,11.8 156,15.2 154.2,15.2 154.2,11.8 150.6,11.8 150.6,10 154.2,10 154.2,6.6 156,6.6 
		156,10 159.6,10 	"/>
	<path class="st0" d="M171.7,2.2c-2.5,1.2-3.5,4.1-3.5,8.5c0,4.3,1,7.2,3.5,8.5l-0.3,1.1c-3.8-1.3-5.6-4.3-5.6-9.5
		c0-5.2,1.7-8.2,5.6-9.6L171.7,2.2z"/>
	<path class="st0" d="M182.2,6c0,1.6-0.5,2.8-2.3,4.7l-3.7,3.9c0.7-0.1,1.5-0.1,2.1-0.1h4.3v2.4h-9.4v-1.5c0-0.4,0.1-0.7,0.4-1
		l3.6-4c1.7-1.8,2.5-3.1,2.5-4.2c0-1-0.8-1.1-2.2-1.1c-1.3,0-2.3,0-4,0.2l-0.1-1.9c1.9-0.4,3.1-0.5,4.4-0.5
		C180.5,2.9,182.2,3.4,182.2,6z"/>
	<rect x="184.9" y="10.1" class="st0" width="9" height="1.8"/>
	<path class="st0" d="M207,11.8v1.7l-1.7,0.3h0v3.1h-2.4v-3.1h-5.4c-1.2,0-1.9-1.2-1.5-2.3l3.7-8.4h2.4l-3.5,8
		c-0.2,0.5,0,0.7,0.4,0.7h3.8V8l0.4-2.2h1.9v6.1H207z"/>
	<path class="st0" d="M214.1,10.7c0,5.2-1.7,8.2-5.6,9.5l-0.3-1.1c2.5-1.3,3.5-4.2,3.5-8.5c0-4.4-1-7.3-3.5-8.5l0.3-1.1
		C212.4,2.4,214.1,5.4,214.1,10.7z"/>
	<path class="st0" d="M222.3,3.3c0,0.8-0.5,1.6-1.5,2.6l-2.3,2.2c0.5-0.1,0.8-0.1,1.3-0.1l2.8,0l0,1.6h-6.5v-1
		c0-0.3,0.1-0.6,0.3-0.8l2.2-2.1c1-0.9,1.6-1.7,1.6-2.3c0.1-0.6-0.5-0.7-1.3-0.7c-0.9,0-1.5,0-2.7,0.1l-0.1-1.4
		c1.3-0.2,2.3-0.3,2.9-0.3C221.2,1.3,222.3,1.6,222.3,3.3z"/>
	<polygon class="st0" points="242.4,11.8 238.8,11.8 238.8,15.2 237,15.2 237,11.8 233.5,11.8 233.5,10 237,10 237,6.6 238.8,6.6 
		238.8,10 242.4,10 	"/>
	<path class="st0" d="M250.2,2.2c-2.5,1.2-3.5,4.1-3.5,8.5c0,4.3,1,7.2,3.5,8.5l-0.3,1.1c-3.8-1.3-5.6-4.3-5.6-9.5
		c0-5.2,1.7-8.2,5.6-9.6L250.2,2.2z"/>
	<path class="st0" d="M260.3,6c0,1.8-0.4,3.2-2,3.5v0.1c1.8,0.3,2.3,1.5,2.4,3.5c0,2.8-1.2,4.1-4.5,4.1c-1.6,0-3.1-0.2-4.6-0.4
		l0.1-2c1.5,0.1,2.6,0.2,3.8,0.2c2,0,2.7-0.5,2.7-2.2c0-1.4-0.4-2.2-2.3-2.1h-2.6V8.8h2.6c1.9,0,2.1-0.9,2.1-2.1
		c0-1.5-0.6-1.7-2.4-1.7c-1.3,0-2.6,0-3.6,0.1l-0.1-1.9c1.4-0.2,2.8-0.4,4.1-0.4C259,2.8,260.3,3.6,260.3,6z"/>
	<rect x="263.2" y="10.1" class="st0" width="9" height="1.8"/>
	<path class="st0" d="M285.3,11.8v1.7l-1.7,0.3h0v3.1h-2.4v-3.1h-5.4c-1.2,0-1.9-1.2-1.5-2.3l3.7-8.4h2.4l-3.5,8
		c-0.2,0.5,0,0.7,0.4,0.7h3.8V8l0.4-2.2h1.9v6.1H285.3z"/>
	<path class="st0" d="M292.4,10.7c0,5.2-1.7,8.2-5.6,9.5l-0.3-1.1c2.5-1.3,3.5-4.2,3.5-8.5c0-4.4-1-7.3-3.5-8.5l0.3-1.1
		C290.7,2.4,292.4,5.4,292.4,10.7z"/>
	<path class="st0" d="M300.5,3.3c0,0.8-0.5,1.6-1.5,2.6l-2.3,2.2C297.2,8,297.5,8,298,8l2.8,0l0,1.6h-6.5v-1c0-0.3,0.1-0.6,0.3-0.8
		l2.2-2.1c1-0.9,1.6-1.7,1.6-2.3c0.1-0.6-0.5-0.7-1.3-0.7c-0.9,0-1.5,0-2.7,0.1l-0.1-1.4c1.3-0.2,2.3-0.3,2.9-0.3
		C299.5,1.3,300.5,1.6,300.5,3.3z"/>
	<polygon class="st0" points="320.7,11.8 317.1,11.8 317.1,15.2 315.3,15.2 315.3,11.8 311.7,11.8 311.7,10 315.3,10 315.3,6.6 
		317.1,6.6 317.1,10 320.7,10 	"/>
	<path class="st0" d="M328.4,2.2c-2.5,1.2-3.5,4.1-3.5,8.5c0,4.3,1,7.2,3.5,8.5l-0.3,1.1c-3.8-1.3-5.6-4.3-5.6-9.5
		c0-5.2,1.7-8.2,5.6-9.6L328.4,2.2z"/>
	<path class="st0" d="M339.6,6.5c0,1.7-0.6,3-2,3.2v0.1c1.8,0.2,2.3,1.6,2.3,3.7c0,2.5-0.9,3.7-4.9,3.7c-3.9,0-4.9-1.1-4.9-3.7
		c0-2,0.5-3.5,2.3-3.7V9.7c-1.4-0.2-2-1.5-2-3.2c0-2.5,0.9-3.7,4.6-3.7C338.7,2.9,339.6,4,339.6,6.5z M332.5,12.9
		c0,1.7,0.5,2.2,2.6,2.2c2.1,0,2.5-0.5,2.5-2.2c0-1.8-0.5-2.2-2.5-2.2C332.9,10.7,332.5,11.2,332.5,12.9z M332.7,6.8
		c0,1.6,0.5,2,2.4,2c1.9,0,2.3-0.4,2.3-2c0-1.5-0.4-2-2.3-2S332.7,5.3,332.7,6.8z"/>
	<rect x="342.4" y="10.1" class="st0" width="9" height="1.8"/>
	<path class="st0" d="M364.5,11.8v1.7l-1.7,0.3h0v3.1h-2.4v-3.1H355c-1.2,0-1.9-1.2-1.5-2.3l3.7-8.4h2.4l-3.5,8
		c-0.2,0.5,0,0.7,0.4,0.7h3.8V8l0.4-2.2h1.9v6.1H364.5z"/>
	<path class="st0" d="M371.6,10.7c0,5.2-1.7,8.2-5.6,9.5l-0.3-1.1c2.5-1.3,3.5-4.2,3.5-8.5c0-4.4-1-7.3-3.5-8.5l0.3-1.1
		C369.9,2.4,371.6,5.4,371.6,10.7z"/>
	<path class="st0" d="M379.8,3.3c0,0.8-0.5,1.6-1.5,2.6L376,8.1c0.5-0.1,0.8-0.1,1.3-0.1l2.8,0l0,1.6h-6.5v-1c0-0.3,0.1-0.6,0.3-0.8
		l2.2-2.1c1-0.9,1.6-1.7,1.6-2.3c0.1-0.6-0.5-0.7-1.3-0.7c-0.9,0-1.5,0-2.7,0.1l-0.1-1.4c1.3-0.2,2.3-0.3,2.9-0.3
		C378.7,1.3,379.8,1.6,379.8,3.3z"/>
	<polygon class="st0" points="399.9,11.8 396.3,11.8 396.3,15.2 394.5,15.2 394.5,11.8 391,11.8 391,10 394.5,10 394.5,6.6 
		396.3,6.6 396.3,10 399.9,10 	"/>
	<path class="st0" d="M412.1,2.2c-2.5,1.2-3.5,4.1-3.5,8.5c0,4.3,1,7.2,3.5,8.5l-0.3,1.1c-3.8-1.3-5.6-4.3-5.6-9.5
		c0-5.2,1.7-8.2,5.6-9.6L412.1,2.2z"/>
	<path class="st0" d="M422.2,6c0,1.8-0.4,3.2-2,3.5v0.1c1.8,0.3,2.3,1.5,2.4,3.5c0,2.8-1.2,4.1-4.5,4.1c-1.6,0-3.1-0.2-4.6-0.4
		l0.1-2c1.5,0.1,2.6,0.2,3.8,0.2c2,0,2.7-0.5,2.7-2.2c0-1.4-0.4-2.2-2.3-2.1h-2.6V8.8h2.6c1.9,0,2.1-0.9,2.1-2.1
		c0-1.5-0.6-1.7-2.4-1.7c-1.3,0-2.6,0-3.6,0.1l-0.1-1.9c1.4-0.2,2.8-0.4,4.1-0.4C420.9,2.8,422.2,3.6,422.2,6z"/>
	<rect x="425.1" y="10.1" class="st0" width="9" height="1.8"/>
	<path class="st0" d="M447.2,11.8v1.7l-1.7,0.3h0v3.1h-2.4v-3.1h-5.4c-1.2,0-1.9-1.2-1.5-2.3l3.7-8.4h2.4l-3.5,8
		c-0.2,0.5,0,0.7,0.4,0.7h3.8V8l0.4-2.2h1.9v6.1H447.2z"/>
	<path class="st0" d="M454.3,10.7c0,5.2-1.7,8.2-5.6,9.5l-0.3-1.1c2.5-1.3,3.5-4.2,3.5-8.5c0-4.4-1-7.3-3.5-8.5l0.3-1.1
		C452.6,2.4,454.3,5.4,454.3,10.7z"/>
	<path class="st0" d="M462.4,3.3c0,0.8-0.5,1.6-1.5,2.6l-2.3,2.2c0.5-0.1,0.8-0.1,1.3-0.1l2.8,0l0,1.6h-6.5v-1
		c0-0.3,0.1-0.6,0.3-0.8l2.2-2.1c1-0.9,1.6-1.7,1.6-2.3c0.1-0.6-0.5-0.7-1.3-0.7c-0.9,0-1.5,0-2.7,0.1l-0.1-1.4
		c1.3-0.2,2.3-0.3,2.9-0.3C461.4,1.3,462.4,1.6,462.4,3.3z"/>
	<path class="st0" d="M213.5,34.2c-2.5,1.2-3.5,4.1-3.5,8.5c0,4.3,1,7.2,3.5,8.5l-0.3,1.1c-3.8-1.3-5.6-4.3-5.6-9.5
		c0-5.2,1.7-8.2,5.6-9.6L213.5,34.2z"/>
	<path class="st0" d="M224.6,44.3c0,3-0.7,4.9-4.6,4.9c-4,0-4.9-1.5-4.9-7c0-6.3,1.8-7.3,5.6-7.3c0.6,0,1.8,0,3,0.3l-0.2,1.7
		c-1,0-1.5,0-2.9,0c-2.2,0-3,0.6-3.1,4.1c0.9-0.9,1.8-1.2,3.2-1.2C223.7,39.8,224.6,41,224.6,44.3z M222.2,44.3
		c0-1.9-0.4-2.5-2.2-2.5c-0.9,0-1.6,0.2-2.5,0.9c0,3.5,0.2,4.4,2.5,4.4C222,47.1,222.2,46.1,222.2,44.3z"/>
	<rect x="226.8" y="42.1" class="st0" width="9" height="1.8"/>
	<path class="st0" d="M243.4,48.9h-2.5V38.7c0-0.5,0-0.9,0.1-1.4l-3.2,0.9l-0.3-1.8l3.4-1.4h2.5V48.9z"/>
	<path class="st0" d="M256.2,42.7c0,5.2-1.7,8.2-5.6,9.5l-0.3-1.1c2.5-1.3,3.5-4.2,3.5-8.5c0-4.4-1-7.3-3.5-8.5l0.3-1.1
		C254.5,34.4,256.2,37.4,256.2,42.7z"/>
	<path class="st0" d="M60.3,99.2h-1.8v-9.6c0-0.4,0-0.7,0.1-1.1l-3,0.9L55.4,88l3.1-1.3h1.8V99.2z"/>
	<polygon class="st0" points="71.1,94.5 67.8,94.5 67.8,97.6 66.5,97.6 66.5,94.5 63.2,94.5 63.2,93.2 66.5,93.2 66.5,90 67.9,90 
		67.9,93.2 71.1,93.2 	"/>
	<path class="st0" d="M77.4,99.2h-1.8v-9.6c0-0.4,0-0.7,0.1-1.1l-3,0.9L72.5,88l3.1-1.3h1.8V99.2z"/>
	<polygon class="st0" points="88.3,94.5 85,94.5 85,97.6 83.7,97.6 83.7,94.5 80.3,94.5 80.3,93.2 83.6,93.2 83.6,90 85,90 85,93.2 
		88.3,93.2 	"/>
	<path class="st0" d="M99.7,94.8v1.3L98,96.2v3h-1.7v-3h-5c-1.1,0-1.7-1-1.3-2l3.4-7.4h1.8l-3.3,7.3c-0.2,0.5,0,0.7,0.4,0.7h4v-3.6
		l0.3-2H98v5.6H99.7z"/>
	<polygon class="st0" points="109.3,94.5 106,94.5 106,97.6 104.7,97.6 104.7,94.5 101.4,94.5 101.4,93.2 104.7,93.2 104.7,90 
		106,90 106,93.2 109.3,93.2 	"/>
	<path class="st0" d="M115.6,99.2h-1.8v-9.6c0-0.4,0-0.7,0.1-1.1l-3,0.9l-0.2-1.4l3.1-1.3h1.8V99.2z"/>
	<polygon class="st0" points="126.5,94.5 123.1,94.5 123.1,97.6 121.8,97.6 121.8,94.5 118.5,94.5 118.5,93.2 121.8,93.2 121.8,90 
		123.2,90 123.2,93.2 126.5,93.2 	"/>
	<path class="st0" d="M132.7,99.2h-1.8v-9.6c0-0.4,0-0.7,0.1-1.1l-3,0.9l-0.2-1.4l3.1-1.3h1.8V99.2z"/>
	<path class="st0" d="M144.1,95.1c0,2.6-0.6,4.3-4,4.3c-3.5,0-4.2-1.4-4.2-6.2c0-5.8,1.6-6.7,4.9-6.7c0.5,0,1.5,0,2.6,0.3l-0.1,1.3
		c-0.8-0.1-1.3-0.1-2.4-0.1c-2.1,0-3,0.6-3.1,4.2c0.8-0.9,1.7-1.2,3-1.2C143.3,91.1,144.1,92.1,144.1,95.1z M142.4,95.1
		c0-1.9-0.5-2.6-2.2-2.6c-1,0-1.6,0.2-2.6,1c0,3.4,0.2,4.3,2.5,4.3C142.1,97.9,142.4,96.9,142.4,95.1z"/>
	<polygon class="st0" points="153.9,94.5 150.6,94.5 150.6,97.6 149.3,97.6 149.3,94.5 146,94.5 146,93.2 149.3,93.2 149.3,90 
		150.6,90 150.6,93.2 153.9,93.2 	"/>
	<path class="st0" d="M160.2,99.2h-1.8v-9.6c0-0.4,0-0.7,0.1-1.1l-3,0.9l-0.2-1.4l3.1-1.3h1.8V99.2z"/>
	<path class="st0" d="M112,120.3h-5.1l-0.2,3.1l1.4,0.1c3.2,0.3,4.4,1.3,4.4,3.9c0,2-0.6,3.9-4.1,3.9c-1,0-2.4-0.1-3.8-0.5l0.2-1.5
		c1.1,0.2,2.3,0.3,3.1,0.3c2.3,0,2.7-0.8,2.7-2.3c0.1-2.2-1-2.3-4-2.5l-0.9-0.1c-0.4,0-0.7-0.3-0.7-0.8l0.3-5.3h6.7L112,120.3z"/>
	<rect x="4.1" y="25.6" class="st0" width="455" height="2"/>
	<path class="st0" d="M193.1,106.7h-10.6V105h10.6V106.7z M193.1,111.8h-10.6V110h10.6V111.8z"/>
	<path class="st0" d="M268.9,98c-2.4,1.1-3.3,3.7-3.3,7.8c0,4,1,6.6,3.3,7.8l-0.2,0.8c-3.3-1.2-4.8-3.9-4.8-8.6
		c0-4.7,1.5-7.4,4.8-8.6L268.9,98z"/>
	<path class="st0" d="M276.9,109.9l0.2,1.2c-0.9,0.4-2.4,0.5-3.5,0.5c-3.1,0-4.2-1.2-4.2-4.6c0-3.5,1.2-4.6,4.1-4.6
		c2.7,0,3.9,1,3.9,3c0,1.6-0.7,2.5-2.1,2.5h-3.9c0.2,1.9,0.9,2.3,2.6,2.3C274.7,110.2,275.9,110,276.9,109.9z M271.1,106.5h3.5
		c0.7,0,0.9-0.6,0.9-1.2c0-1.1-0.5-1.5-2-1.5C271.8,103.9,271.2,104.4,271.1,106.5z"/>
	<path class="st0" d="M286.2,102.7l-0.1,1.3c-1.1,0-2.2-0.1-3.3-0.1c-1.6,0-2.1,0-2.1,1c0,0.8,0.4,0.9,1.2,1.2l2.5,0.6
		c1.4,0.4,2.1,0.9,2.1,2.5c0,2.2-1.2,2.5-3.8,2.5c-0.6,0-2,0-3.5-0.3l0.1-1.3c0.8,0.1,1.9,0.1,3,0.1c1.9,0,2.5-0.2,2.5-1.1
		c0-0.8-0.5-0.9-1.3-1.1l-2.4-0.6c-1.5-0.4-2-1.1-2-2.5c0-2,1-2.5,3.5-2.4C283.6,102.4,285.1,102.5,286.2,102.7z"/>
	<path class="st0" d="M291,104v4.9c0,0.8,0.3,1.1,1.2,1.1h1.3l0.2,1.4c-0.6,0.2-1.6,0.2-2.1,0.2c-1.5,0-2.3-0.9-2.3-2.5V104h-1.6
		v-1.3l1.6-0.1V100h1.7v2.6h2.7v1.4H291z"/>
	<path class="st0" d="M302.9,105.3v6.1h-1.4l-0.2-1.4c-0.6,0.7-1.9,1.5-3.5,1.5s-2.7-0.9-2.7-2.5v-0.9c0-1.4,0.9-2.2,2.5-2.2h3.5
		v-0.7c0-1.1-0.4-1.4-1.7-1.4c-0.9,0-2.4,0.1-3.7,0.2l-0.2-1.3c1.2-0.2,3-0.4,4.3-0.4C301.8,102.4,302.9,103.1,302.9,105.3z
		 M298.2,110.1c0.8,0,2-0.3,3-1.2v-1.6h-3.2c-0.8,0-1,0.5-1,1.1v0.5C296.9,109.7,297.3,110.1,298.2,110.1z"/>
	<path class="st0" d="M316.6,109.9l0.2,1.2c-0.9,0.4-2.4,0.5-3.5,0.5c-3.1,0-4.2-1.2-4.2-4.6c0-3.5,1.2-4.6,4.1-4.6
		c2.7,0,3.9,1,3.9,3c0,1.6-0.7,2.5-2.1,2.5h-3.9c0.2,1.9,0.9,2.3,2.6,2.3C314.5,110.2,315.7,110,316.6,109.9z M310.9,106.5h3.5
		c0.7,0,0.9-0.6,0.9-1.2c0-1.1-0.5-1.5-2-1.5C311.5,103.9,311,104.4,310.9,106.5z M312.4,101.4l-0.6-0.8l3.2-2.6l1,1.3L312.4,101.4z
		"/>
	<path class="st0" d="M330.5,105.3v6.1h-1.4l-0.2-1.4c-0.6,0.7-1.9,1.5-3.5,1.5s-2.7-0.9-2.7-2.5v-0.9c0-1.4,0.9-2.2,2.5-2.2h3.5
		v-0.7c0-1.1-0.4-1.4-1.7-1.4c-0.9,0-2.4,0.1-3.7,0.2l-0.2-1.3c1.2-0.2,3-0.4,4.3-0.4C329.4,102.4,330.5,103.1,330.5,105.3z
		 M325.8,110.1c0.8,0,2-0.3,3-1.2v-1.6h-3.2c-0.8,0-1,0.5-1,1.1v0.5C324.5,109.7,324.9,110.1,325.8,110.1z"/>
	<path class="st0" d="M341.5,111c-0.1,0.3-0.3,0.4-0.6,0.4h-1.6c-0.3,0-0.5-0.2-0.6-0.4l-3.1-8.4h1.9l2.1,6.1c0.2,0.5,0.3,1,0.5,1.5
		h0.2c0.2-0.5,0.3-1,0.5-1.5l2-6.1h1.9L341.5,111z"/>
	<path class="st0" d="M353.5,105.3v6.1h-1.4L352,110c-0.6,0.7-1.9,1.5-3.5,1.5s-2.7-0.9-2.7-2.5v-0.9c0-1.4,0.9-2.2,2.5-2.2h3.5
		v-0.7c0-1.1-0.4-1.4-1.7-1.4c-0.9,0-2.4,0.1-3.7,0.2l-0.2-1.3c1.2-0.2,3-0.4,4.3-0.4C352.5,102.4,353.5,103.1,353.5,105.3z
		 M348.8,110.1c0.8,0,2-0.3,3-1.2v-1.6h-3.2c-0.8,0-1,0.5-1,1.1v0.5C347.5,109.7,347.9,110.1,348.8,110.1z"/>
	<path class="st0" d="M361.8,102.4l-0.2,1.6h-0.5c-0.9,0-1.8,0.4-3.2,1v6.4h-1.7v-8.8h1.3l0.2,1.4c1.2-1,2.5-1.6,3.7-1.6H361.8z"/>
	<path class="st0" d="M365.3,99.4v1c0,0.3-0.2,0.5-0.5,0.5H364c-0.3,0-0.5-0.2-0.5-0.5v-1c0-0.3,0.2-0.5,0.5-0.5h0.8
		C365.1,98.9,365.3,99.1,365.3,99.4z M365.2,111.4h-1.7v-8.8h1.7V111.4z"/>
	<path class="st0" d="M375.3,105.3v6.1h-1.4l-0.2-1.4c-0.6,0.7-1.9,1.5-3.5,1.5s-2.7-0.9-2.7-2.5v-0.9c0-1.4,0.9-2.2,2.5-2.2h3.5
		v-0.7c0-1.1-0.4-1.4-1.7-1.4c-0.9,0-2.4,0.1-3.7,0.2l-0.2-1.3c1.2-0.2,3-0.4,4.3-0.4C374.2,102.4,375.3,103.1,375.3,105.3z
		 M369.2,101.5l-0.6-0.7l2.3-2.3h1.3l2.4,2.3l-0.6,0.7l-2.3-1.7h-0.1L369.2,101.5z M370.6,110.1c0.8,0,2-0.3,3-1.2v-1.6h-3.2
		c-0.8,0-1,0.5-1,1.1v0.5C369.3,109.7,369.7,110.1,370.6,110.1z"/>
	<path class="st0" d="M385.8,104.8v6.6H384v-6.1c0-1.1-0.3-1.5-1.1-1.5c-1,0-1.9,0.5-3.3,1.3l0,6.2h-1.7v-8.8h1.5l0.1,1.3
		c1.3-1,2.6-1.6,3.9-1.6C385,102.4,385.8,103.2,385.8,104.8z"/>
	<path class="st0" d="M395.1,102.8l-0.2,1.1c-0.8-0.1-1.8-0.1-2.4-0.1c-2,0-2.7,0.7-2.7,3.2c0,2.4,0.7,3.2,2.7,3.2
		c0.5,0,1.7,0,2.6-0.2l0.2,1.2c-0.9,0.3-2,0.5-3.1,0.5c-3.1,0-4.2-1.2-4.2-4.6c0-3.4,1.1-4.6,4.2-4.6
		C393,102.4,394.2,102.5,395.1,102.8z"/>
	<path class="st0" d="M399.1,99.4v1c0,0.3-0.2,0.5-0.5,0.5h-0.8c-0.3,0-0.5-0.2-0.5-0.5v-1c0-0.3,0.2-0.5,0.5-0.5h0.8
		C399,98.9,399.1,99.1,399.1,99.4z M399.1,111.4h-1.7v-8.8h1.7V111.4z"/>
	<path class="st0" d="M409,105.3v6.1h-1.4l-0.2-1.4c-0.6,0.7-1.9,1.5-3.5,1.5s-2.7-0.9-2.7-2.5v-0.9c0-1.4,0.9-2.2,2.5-2.2h3.5v-0.7
		c0-1.1-0.4-1.4-1.7-1.4c-0.9,0-2.4,0.1-3.7,0.2l-0.2-1.3c1.2-0.2,3-0.4,4.3-0.4C408,102.4,409,103.1,409,105.3z M404.3,110.1
		c0.8,0,2-0.3,3-1.2v-1.6h-3.2c-0.8,0-1,0.5-1,1.1v0.5C403,109.7,403.4,110.1,404.3,110.1z"/>
	<path class="st0" d="M415.1,105.8c0,4.6-1.5,7.3-4.8,8.6l-0.2-0.8c2.4-1.2,3.3-3.8,3.3-7.8c0-4.1-1-6.6-3.3-7.8l0.2-0.8
		C413.6,98.4,415.1,101.1,415.1,105.8z"/>
	<path class="st0" d="M218.7,106.2v2.6l-1.9,0.4h0v3.5h-4.1v-3.5H206c-1.4,0-2.3-1.3-1.8-2.6l4.1-10.5h4.2l-3.6,9.4
		c-0.2,0.5,0,0.7,0.4,0.7h3.2V102l0.7-2.6h3.4v6.8H218.7z"/>
	<path class="st0" d="M224.2,110.1v1.5c0,2.2-0.5,3.4-1.4,4.8l-1.7-0.5c0.3-1.1,0.4-2.1,0.4-3.2c-0.8,0-1.2-0.5-1.3-1.3l0-1.2
		c0-1.2,0.4-1.5,1.5-1.5h0.9C223.8,108.6,224.2,109,224.2,110.1z"/>
	<path class="st0" d="M238.9,100.3c0,1.8-0.7,3.6-2.5,3.8v0.1c2.4,0.2,2.9,2.2,2.9,4.4c0,3.2-1.2,4.4-6.5,4.4
		c-5.2,0-6.5-1.2-6.5-4.4c0-2.2,0.6-4.2,3-4.4v-0.1c-1.8-0.2-2.5-2-2.5-3.8c0-3.1,1.1-4.4,6.1-4.4
		C237.9,95.8,238.9,97.2,238.9,100.3z M230.5,107.7c0,1.7,0.4,2.1,2.3,2.1c1.8,0,2.2-0.4,2.2-2.1c0-1.8-0.4-2.2-2.2-2.2
		C230.9,105.5,230.5,106,230.5,107.7z M230.8,100.8c0,1.5,0.4,1.8,2.1,1.8c1.7,0,2-0.4,2-1.8c0-1.6-0.4-2-2-2
		C231.2,98.9,230.8,99.2,230.8,100.8z"/>
	<path class="st0" d="M254.9,104.4c0,6.5-1.8,8.6-6.8,8.6c-5,0-6.7-2.2-6.7-8.6c0-6.5,1.7-8.6,6.7-8.6
		C253.1,95.8,254.9,98,254.9,104.4z M245.8,104.4c0,4.4,0.5,5.2,2.3,5.2c1.8,0,2.3-0.8,2.3-5.2c0-4.4-0.5-5.2-2.3-5.2
		C246.3,99.2,245.8,100,245.8,104.4z"/>
</g>
</svg>
