<svg xmlns="http://www.w3.org/2000/svg" viewBox="0 0 146.9 59.2"><defs><style>.a{fill:#fff;}</style></defs><title>Asset 1</title><path class="a" d="M94.9,0l.4,3.7a25.5,25.5,0,0,0,20.6,22.8h-37a6.6,6.6,0,0,0-10.6,0H31A25.5,25.5,0,0,0,51.6,3.7L52,0H0L.3,3.7A25.7,25.7,0,0,0,25.7,27v2.9H67.1c0,.2-.1.3-.1.5A6.6,6.6,0,0,0,70.2,36v3.9H38.6v9.2a10.1,10.1,0,0,0,10,10.1h60V39.9H77V36a6.6,6.6,0,0,0,3.2-5.6c0-.2-.1-.3-.1-.5h41.4V27a25.6,25.6,0,0,0,25-23.3l.4-3.7ZM7.8,6.8H44.1A18.7,18.7,0,0,1,26,20.2,18.8,18.8,0,0,1,7.8,6.8Zm94,39.9v5.7H48.6a3.3,3.3,0,0,1-3.2-3.3V46.7Zm19.1-26.5A18.7,18.7,0,0,1,102.8,6.8h36.3A18.8,18.8,0,0,1,120.9,20.2Z"/></svg>