<?xml version="1.0" encoding="utf-8"?>
<!-- Generator: Adobe Illustrator 23.0.3, SVG Export Plug-In . SVG Version: 6.00 Build 0)  -->
<svg version="1.1" id="Layer_1" xmlns="http://www.w3.org/2000/svg" xmlns:xlink="http://www.w3.org/1999/xlink" x="0px" y="0px"
	 viewBox="0 0 117.4 63.9" style="enable-background:new 0 0 117.4 63.9;" xml:space="preserve">
<style type="text/css">
	.st0{fill:#66CC33;}
</style>
<title>Asset 7</title>
<path class="st0" d="M36.1,47.1v8h45.1v-8H36.1z M88.6,19.8L91.4,0H29.7l-2.8,19.8h-24L0.2,38.6c-1.3,7.7,3.8,15,11.5,16.3
	c0.5,0.1,1,0.1,1.5,0.2h2.1v-8h-1c-3.4,0.1-6.2-2.5-6.3-5.9c0,0,0,0,0,0c0-0.4,0-0.8,0.1-1.2l1.7-12.2h24l0.5-3.8l2.3-16h45.5
	l-2.2,16l-0.6,3.8h28.8l-2.7,19.3h-3.3v8h10.3l5-35.3H88.6z"/>
<path class="st0" d="M37.8,47.1c-0.4-1.6-1.2-3-2.3-4.2c-2.1-2.4-5.3-3.8-8.5-3.7c-3.4,0-6.6,1.3-9.1,3.5c-1.5,1.2-2.7,2.7-3.5,4.4
	c-0.6,1.1-1,2.3-1.2,3.6v0.5c-0.2,1.3-0.2,2.6,0.1,3.9c0.9,5.1,5.3,8.8,10.5,8.8h0.4c3.3,0,6.6-1.2,9.1-3.4c1.7-1.4,3-3.2,3.9-5.3
	c0.3-0.6,0.5-1.3,0.6-2H38l0.2-1.7C38.4,50,38.2,48.5,37.8,47.1z M34,51.3c-0.7,4.9-5,8.6-10,8.5l0,0c-3.7,0.2-6.8-2.7-7-6.4
	c0,0,0-0.1,0-0.1c0-0.5,0-0.9,0.1-1.4v-0.4c0.4-2.3,1.5-4.3,3.3-5.8c1.8-1.6,4.2-2.5,6.6-2.5h0.3c2,0,3.9,0.9,5.2,2.4
	c1.1,1.3,1.7,3,1.7,4.7L34,51.3z M103.8,47.1c-0.4-1.5-1.2-3-2.2-4.2c-2.2-2.4-5.3-3.8-8.6-3.7c-3.3,0.1-6.5,1.3-9,3.5
	c-1.5,1.2-2.7,2.7-3.5,4.4c-0.6,1.2-1,2.4-1.3,3.7l2,0.3h-2v0.3c-0.1,0.7-0.2,1.4-0.2,2.1c0.1,0.6,0.1,1.1,0.2,1.6
	c0.5,2.3,1.6,4.3,3.3,5.9c2,1.9,4.6,2.9,7.3,2.9h0.4c5.6-0.2,10.7-3.6,12.9-8.8c0.5-1,0.8-2.2,0.9-3.3v-0.4l-2-0.3l2,0.3
	C104.2,50,104.2,48.5,103.8,47.1z M100.1,50.9v0.3c-0.9,4.9-5,8.5-10,8.7c-3.8,0.2-6.9-2.7-7.1-6.5c0,0,0-0.1,0-0.1
	c0-0.4,0.1-0.9,0.1-1.4v-0.6c1.1-4.6,5.1-8,9.9-8.1c2.1-0.1,4.1,0.8,5.4,2.4C99.8,47,100.4,49,100.1,50.9z"/>
<rect x="30.3" y="24" class="st0" width="68" height="4"/>
<rect x="47.9" y="13" transform="matrix(0.14 -0.9901 0.9901 0.14 35.8448 71.2504)" class="st0" width="22" height="4"/>
</svg>
