<svg xmlns="http://www.w3.org/2000/svg" viewBox="0 0 104.4 48.4"><defs><style>.a{fill:#63c932;}</style></defs><title>Asset 5</title><path class="a" d="M4.7,0,.2,32A13.8,13.8,0,0,0,3.4,43.5a14.2,14.2,0,0,0,11,4.9H97.6L104.4,0ZM90.6,40.4H14.4a6.1,6.1,0,0,1-4.9-2.1,6,6,0,0,1-1.4-5.2L11.6,8H95.2Z"/><path class="a" d="M52.8,11.1l-.7,2.5a14.8,14.8,0,0,0-4.1.6,4.5,4.5,0,0,0-2.5,1.7,8,8,0,0,0-1.2,3.5,5.3,5.3,0,0,0,.5,3.6,5.8,5.8,0,0,0,2.9,2.3l3.7,1.6,1.2.6a1.3,1.3,0,0,1,.2,1.1,1.4,1.4,0,0,1-.6,1l-2,.2H43.4l-.9,3.8,2.3.5,2,.3-.8,3h4l.7-2.9a11.6,11.6,0,0,0,4.1-.7,4.3,4.3,0,0,0,2.3-1.9,7.1,7.1,0,0,0,1.1-3.3,5.2,5.2,0,0,0-.4-3.6,5.4,5.4,0,0,0-3-2.4l-3.4-1.4a3.4,3.4,0,0,1-1.4-.8.9.9,0,0,1-.3-1,1.5,1.5,0,0,1,.6-1.1l1.9-.2h6.5l.9-3.6-1.7-.4-1.8-.3.7-2.7Z"/><path class="a" d="M38.2,17.2l.7-4.7H16.7L16,17.2Z"/><path class="a" d="M87.2,37l.7-4.7H65.7L65.1,37Z"/></svg>