<svg xmlns="http://www.w3.org/2000/svg" viewBox="0 0 112.3 97.5"><defs><style>.a{fill:#fff;}</style></defs><title>Asset 2</title><path class="a" d="M53.8,80.8v8a8.7,8.7,0,0,0,8.7,8.7h49.8V80.8ZM105.9,91H62.5a2.2,2.2,0,0,1-2.3-2.2V87.2h45.7Z"/><path class="a" d="M58.2,63.3l1,.9a8.3,8.3,0,0,0,11.9,0L90.5,44.8a8.5,8.5,0,0,0,0-12l-.9-.9a8.6,8.6,0,0,0-8.2-2.2L63.3,11.5a8.5,8.5,0,0,0-2.2-8.1l-.9-.9a8.6,8.6,0,0,0-6-2.5,8.4,8.4,0,0,0-6,2.5L28.8,21.9a8.4,8.4,0,0,0,0,11.9l.9.9a8.6,8.6,0,0,0,6,2.5,5.5,5.5,0,0,0,1.8-.2l3.6,3.7L2.2,79.5a7.7,7.7,0,0,0,0,10.8A7.8,7.8,0,0,0,4.8,92a8.7,8.7,0,0,0,2.8.5,9.3,9.3,0,0,0,2.9-.5A7.4,7.4,0,0,0,13,90.3L51.9,51.4,56,55.5A8.4,8.4,0,0,0,58.2,63.3ZM45.8,36.2l-2.5-2.5L59.8,17.2,75,32.4,58.5,49l-2.2-2.3ZM8.1,86H7.2l-.4-.3a1,1,0,0,1-.3-.8,1.1,1.1,0,0,1,.3-.8L45.7,45.2l1.6,1.7L8.4,85.7ZM33.4,26.4,52.8,7.1a1.7,1.7,0,0,1,1.4-.6,2,2,0,0,1,1.4.6l.9.9a1.9,1.9,0,0,1,0,2.8L37.1,30.2a2.1,2.1,0,0,1-2.8,0l-.9-.9A2.1,2.1,0,0,1,33.4,26.4ZM85.9,40.2,66.6,59.6a2.1,2.1,0,0,1-2.9,0l-.9-.9a1.9,1.9,0,0,1,0-2.8L82.2,36.5a1.9,1.9,0,0,1,2.8,0l.9.9A1.9,1.9,0,0,1,85.9,40.2Z"/></svg>