<?xml version="1.0" encoding="utf-8"?>
<!-- Generator: Adobe Illustrator 23.0.3, SVG Export Plug-In . SVG Version: 6.00 Build 0)  -->
<svg version="1.1" id="Layer_1" xmlns="http://www.w3.org/2000/svg" xmlns:xlink="http://www.w3.org/1999/xlink" x="0px" y="0px"
	 viewBox="0 0 101.8 77" style="enable-background:new 0 0 101.8 77;" xml:space="preserve">
<style type="text/css">
	.st0{fill:#66CC33;}
</style>
<title>Asset 10</title>
<polygon class="st0" points="49,70.7 53,70.7 54.3,62.2 50.3,62.2 "/>
<polygon class="st0" points="27.5,70.7 31.5,70.7 32.8,62.2 28.8,62.2 "/>
<polygon class="st0" points="16.8,70.7 20.8,70.7 22,62.2 18,62.2 "/>
<polygon class="st0" points="38.3,70.7 42.3,70.7 43.5,62.2 39.5,62.2 "/>
<polygon class="st0" points="31.3,37 35.3,37 36.5,28.6 32.5,28.6 "/>
<polygon class="st0" points="20.5,37 24.5,37 25.7,28.6 21.7,28.6 "/>
<polygon class="st0" points="35.1,11.3 31.1,11.3 29.9,19.8 33.9,19.8 "/>
<polygon class="st0" points="24.3,11.3 20.3,11.3 19.1,19.8 23.1,19.8 "/>
<path class="st0" d="M45.2,54.1c-0.9-1-1.7-2.1-2.5-3.2l-0.4,3.2H45.2z"/>
<polygon class="st0" points="26,45.6 22,45.6 20.8,54.1 24.8,54.1 "/>
<polygon class="st0" points="15.2,45.6 11.2,45.6 10,54.1 14,54.1 "/>
<polygon class="st0" points="36.7,45.6 32.7,45.6 31.5,54.1 35.5,54.1 "/>
<path class="st0" d="M92.3,9.5c-6-6.2-14.4-9.6-23-9.5C62.8-0.1,56.4,1.9,51,5.6H12.1l-3,20.5H13l-2,13.8H3L0,60.4h9.2L6.8,77h66
	l1.8-12.6c6.7-1,13-4.2,17.7-9.1c6.2-6,9.6-14.3,9.5-22.9C101.9,23.8,98.5,15.5,92.3,9.5z M69.3,60.8L69.3,60.8
	c-1.4,0-2.9-0.1-4.3-0.3l0,0C66.4,60.7,67.9,60.8,69.3,60.8z M61,62.2l-0.2,1.4L61,62.2L61,62.2z M73.4,56.5h-8.8L62.7,56
	c-2-0.6-3.8-1.4-5.6-2.4c-1.3-0.8-2.5-1.7-3.6-2.7l-1.4-1.2c-1.7-1.7-3.2-3.7-4.4-5.8l-0.3-0.5l-0.6-1.5l-0.3-0.5
	c-0.1-0.5-0.3-1-0.4-1.5c-0.1-0.1-0.2-0.3-0.2-0.5c-0.2-0.8-0.4-1.6-0.6-2.4c-0.2-1.5-0.4-3.1-0.4-4.6c0-1.3,0.1-2.6,0.3-3.9
	l0.3-1.6c0.1-0.3,0.1-0.5,0.2-0.8l0.3-1.2l0.3-0.8c0.1-0.4,0.3-0.8,0.5-1.2l0.3-0.8c1.2-2.6,2.9-4.9,4.9-6.9h0.1
	c1.4-1.4,2.9-2.6,4.5-3.7c1.2-0.7,2.4-1.3,3.7-1.9c2.9-1.1,5.9-1.6,9-1.6c2.1,0,4.2,0.3,6.3,0.8l2,0.5c3.4,1.2,6.5,3.3,9,5.9
	c4.7,4.5,7.3,10.7,7.2,17.2c0.1,6.5-2.5,12.8-7.2,17.3C83.1,53.4,78.4,55.8,73.4,56.5z M45.8,11.3l-0.4,3.2L45.8,11.3z M46.3,9.6
	c-0.5,0.6-1.1,1.1-1.5,1.7h-3l-0.7,5.1l0,0l-0.5,3.4l0,0l0.5-3.4c-1.1,1.8-1.9,3.7-2.6,5.7H13.7l1.8-12.5H46.3z M43.7,12.5L43.4,13
	L43.7,12.5z M42.8,13.8l-0.5,0.7L42.8,13.8z M41.9,15.1l-0.7,1.1L41.9,15.1z M42.1,24.1c0.1-0.4,0.2-0.8,0.4-1.2l0.3-0.8l0,0
	l-0.3,0.8C42.3,23.3,42.2,23.7,42.1,24.1c-0.1,0.3-0.1,0.5-0.2,0.8l-0.3,1.2l0,0l0.3-1.2C41.9,24.6,42,24.4,42.1,24.1z M41.8,39.5
	L41.8,39.5z M16.9,26.9h20.5c-0.3,1.8-0.5,3.7-0.5,5.5c0,2.3,0.3,4.7,0.7,7H15.1L16.9,26.9z M52.9,9.2l2.4-1.5l0,0L52.9,9.2z
	 M47.4,8.5l0.9-0.7L47.4,8.5z M39,43.9l0.3,0.9c0.9,2.2,2,4.2,3.4,6.1l0,0c0.8,1.1,1.6,2.2,2.5,3.2h1l0.7-4.3l0.6-4.2l0,0l-0.6,4.2
	l-0.6,4.3h-1.1l1.2,1.2l1.2,1.1h-43l1.8-12.5H39z M13.2,60.5h39.9c2.4,1.5,5,2.5,7.7,3.2l-1,7h4l0.9-6.2l0,0l0,0
	c1.5,0.2,3.1,0.3,4.6,0.3h1.2L69.4,73h-58L13.2,60.5z M95.8,21.9c1.3,3.3,2,6.9,2,10.5c0,3.8-0.7,7.6-2.2,11.1
	c1.5-3.5,2.2-7.3,2.2-11.1C97.8,28.8,97.1,25.2,95.8,21.9z M11.4,24.1l0.8-5.2C12.2,18.9,11.4,24.1,11.4,24.1z M2.4,57.7v0.7l0,0
	V57.7z M9.1,75l2.1-14.6l0,0L9.1,75L9.1,75z M71.7,70.8l0.9-6.1l0,0L71.7,70.8z"/>
<path class="st0" d="M74.7,23.4l-1.1-0.2h-0.7V23l0.6-2.5h-4l-0.4,1.7L68.9,23l0,0c-1.4,0-2.8,0.2-4.2,0.6c-0.5,0.1-0.9,0.3-1.3,0.6
	L62.5,25l-0.3,0.3l-0.5,0.9L61.4,27c-0.2,0.6-0.3,1.1-0.3,1.7c-0.3,1.2-0.2,2.5,0.4,3.6c0.5,0.9,1.3,1.6,2.3,2.1l0.7,0.3l3.1,1.3
	l0.6,0.3l1.1,0.6c0.3,0.2,0.3,0.6,0.2,1.1c0,0.4-0.2,0.8-0.6,0.9c-0.6,0.2-1.3,0.4-1.9,0.3h-6.8v1l-0.3,1.5l-0.2,0.5l-0.2,0.9
	l2.3,0.5h0.6l1.4,0.2v0.3l-0.6,2.7h3.9l0.7-2.9h1l1.8-0.2l1.3-0.4c0.8-0.4,1.6-0.9,2.2-1.6l0.2-0.3c0.6-1,1-2.1,1.1-3.3
	c0.3-1.3,0.1-2.6-0.5-3.7c-0.1-0.3-0.3-0.6-0.6-0.8c-0.7-0.7-1.5-1.2-2.4-1.6l-3.1-1.3h-0.3c-0.5-0.1-1-0.4-1.4-0.7
	c-0.2-0.3-0.4-0.6-0.3-1l0,0c0.1-0.4,0.3-0.8,0.7-1c0.6-0.2,1.2-0.3,1.8-0.2h6.6l0.6-2.5l0.2-1.1L75.8,24L74.7,23.4z"/>
</svg>
