<?xml version="1.0" encoding="utf-8"?>
<!-- Generator: Adobe Illustrator 23.0.3, SVG Export Plug-In . SVG Version: 6.00 Build 0)  -->
<svg version="1.1" id="Layer_1" xmlns="http://www.w3.org/2000/svg" xmlns:xlink="http://www.w3.org/1999/xlink" x="0px" y="0px"
	 viewBox="0 0 101.8 77" style="enable-background:new 0 0 101.8 77;" xml:space="preserve">
<style type="text/css">
	.st0{fill:#66CC33;}
</style>
<title>Asset 8</title>
<polygon class="st0" points="49,70.7 53,70.7 54.3,62.2 50.3,62.2 "/>
<polygon class="st0" points="27.5,70.7 31.5,70.7 32.8,62.2 28.8,62.2 "/>
<polygon class="st0" points="16.8,70.7 20.8,70.7 22,62.2 18,62.2 "/>
<polygon class="st0" points="38.3,70.7 42.3,70.7 43.5,62.2 39.5,62.2 "/>
<polygon class="st0" points="26,45.6 22,45.6 20.7,54.1 24.7,54.1 "/>
<polygon class="st0" points="15.2,45.6 11.2,45.6 10,54.1 14,54.1 "/>
<polygon class="st0" points="36.7,45.6 32.7,45.6 31.5,54.1 35.5,54.1 "/>
<path class="st0" d="M92.3,9.5c-6-6.2-14.4-9.6-23-9.5c-8.6-0.1-16.9,3.3-22.9,9.5c-6.2,6-9.6,14.3-9.5,22.9c0,2.5,0.3,5,0.9,7.5
	H2.9L0,60.4h9.2L6.8,77h66l1.8-12.6c6.7-1,12.9-4.2,17.7-9.1c6.1-6,9.6-14.3,9.5-22.9C101.9,23.8,98.4,15.5,92.3,9.5z M69.4,73h-58
	l1.8-12.5h39.9c2.4,1.5,5,2.5,7.7,3.2l-1,7h4l0.9-6.2c1.5,0.2,3.1,0.3,4.6,0.3h1.2L69.4,73z M42.7,50.9l-0.5,3.2h3l1.2,1.2l0,0
	l1.2,1.1h-43l1.8-12.5H39C39.9,46.4,41.1,48.8,42.7,50.9z M73.4,56.5c-1.4,0.2-2.7,0.3-4.1,0.3h-2.7l-1.3-0.2h-0.7l-2-0.4
	c-1.9-0.6-3.8-1.4-5.5-2.4c-1.3-0.8-2.6-1.7-3.7-2.7l-1.3-1.2c-1.8-1.7-3.2-3.7-4.4-5.8l-0.9-2c-0.3-0.6-0.5-1.3-0.8-2
	c-0.7-2.4-1.1-5-1.1-7.5c-0.1-6.5,2.5-12.7,7.2-17.2c4.4-4.8,10.7-7.5,17.2-7.4c6.5-0.2,12.8,2.5,17.3,7.2
	c4.7,4.5,7.3,10.7,7.2,17.2c0.1,6.5-2.5,12.8-7.2,17.3C83.1,53.4,78.4,55.8,73.4,56.5z"/>
<path class="st0" d="M72.9,23.1l0.7-2.7h-4L69,22.9c-1.4,0-2.8,0.2-4.2,0.6c-1,0.3-1.9,0.9-2.5,1.7c-0.7,1-1.1,2.2-1.2,3.4
	c-0.2,1.2,0,2.5,0.5,3.6c0.7,1.1,1.7,2,2.9,2.4l3.8,1.6l1.1,0.6c0.2,0.3,0.3,0.7,0.2,1.1c0,0.4-0.2,0.8-0.6,0.9
	c-0.6,0.2-1.3,0.4-1.9,0.3h-6.9l-0.2,1l-0.5,2L59.3,43l2.3,0.5l2,0.3v0.3l-0.7,2.7h4l0.7-2.9h1c1.1-0.1,2.1-0.3,3.1-0.6
	c1-0.5,1.8-1.2,2.3-2.2c0.6-1,1-2.1,1.1-3.3c0.2-1.3,0-2.5-0.5-3.7c-0.7-1.1-1.8-1.9-3-2.4l-3.4-1.4c-0.5-0.1-1-0.4-1.4-0.7
	c-0.2-0.3-0.4-0.6-0.3-1c0-0.5,0.3-0.9,0.7-1.1c0.6-0.2,1.2-0.3,1.8-0.2h6.6l0.8-3.6l-1.7-0.4L72.9,23.1z"/>
</svg>
