<?xml version="1.0" encoding="utf-8"?>
<!-- Generator: Adobe Illustrator 23.0.3, SVG Export Plug-In . SVG Version: 6.00 Build 0)  -->
<svg version="1.1" id="Layer_1" xmlns="http://www.w3.org/2000/svg" xmlns:xlink="http://www.w3.org/1999/xlink" x="0px" y="0px"
	 viewBox="0 0 101.8 77" style="enable-background:new 0 0 101.8 77;" xml:space="preserve">
<style type="text/css">
	.st0{fill:#66CC33;}
</style>
<title>Asset 9</title>
<polygon class="st0" points="49,70.7 53,70.7 54.3,62.2 50.3,62.2 "/>
<polygon class="st0" points="27.5,70.7 31.5,70.7 32.8,62.2 28.8,62.2 "/>
<polygon class="st0" points="16.8,70.7 20.8,70.7 22,62.2 18,62.2 "/>
<polygon class="st0" points="38.3,70.7 42.3,70.7 43.5,62.2 39.5,62.2 "/>
<polygon class="st0" points="26,45.6 22,45.6 20.8,54.1 24.8,54.1 "/>
<polygon class="st0" points="15.2,45.6 11.2,45.6 10,54.1 14,54.1 "/>
<polygon class="st0" points="36.7,45.6 32.7,45.6 31.5,54.1 35.5,54.1 "/>
<polygon class="st0" points="36.5,27.6 32.5,27.6 31.3,36.1 35.3,36.1 "/>
<polygon class="st0" points="25.7,27.6 21.7,27.6 20.5,36.1 24.5,36.1 "/>
<path class="st0" d="M92.3,9.5c-6-6.2-14.4-9.6-23-9.5c-8.6-0.1-16.9,3.3-22.9,9.5c-3.5,3.5-6.2,7.7-7.8,12.4H13.5l-2.6,18H3L0,60.4
	h9.2L6.8,77h66l1.8-12.6c6.7-1,13-4.2,17.7-9.1c6.2-6,9.6-14.3,9.5-22.9C101.9,23.8,98.5,15.5,92.3,9.5z M69.4,73h-58l1.8-12.5h39.9
	c2.4,1.5,5,2.5,7.7,3.2l-1,7h4l0.9-6.2c1.5,0.2,3.1,0.3,4.6,0.3h1.3L69.4,73z M37.5,25.9c-0.4,2.1-0.6,4.3-0.6,6.5c0,2,0.2,4,0.6,6
	H15.1l1.8-12.5L37.5,25.9z M39,43.9c0.9,2.5,2.1,4.9,3.7,7l0,0l-0.4,3.2h3l1.1,1.2l1.2,1.1h-43l1.8-12.5H39z M73.3,56.5
	c-1.3,0.2-2.7,0.3-4,0.3h-2.7l-1.2-0.2h-0.8L62.7,56c-2-0.6-3.8-1.4-5.6-2.4c-1.3-0.8-2.5-1.7-3.6-2.7l-1.4-1.2
	c-1.7-1.7-3.2-3.7-4.4-5.8L47,42.4c-0.1-0.1-0.2-0.3-0.2-0.5l-0.6-1.5c-0.1-0.1-0.1-0.3-0.2-0.5s-0.3-1-0.4-1.5
	c-0.2-0.8-0.3-1.5-0.4-2.3c-0.2-1.2-0.3-2.5-0.3-3.7c0-1.6,0.2-3.2,0.5-4.8l0.3-1.7c0.2-0.6,0.4-1.3,0.7-2l0.8-2
	c1.3-2.5,2.9-4.8,4.9-6.8c4.5-4.7,10.7-7.2,17.2-7.1c6.5-0.2,12.8,2.4,17.3,7.1c4.7,4.5,7.3,10.8,7.2,17.3
	c0.1,6.5-2.5,12.8-7.2,17.3C83.1,53.4,78.4,55.8,73.3,56.5z"/>
<path class="st0" d="M72.9,23.1l0.3-1.2l0.4-1.5h-4l-0.4,1.5l-0.2,1c-1.4,0-2.8,0.2-4.2,0.6l-1,0.4c-0.6,0.4-1.1,0.8-1.5,1.3
	c-0.1,0.2-0.2,0.5-0.4,0.7c-0.4,0.9-0.6,1.8-0.7,2.7c-0.3,1.2-0.2,2.5,0.4,3.6c0.5,0.9,1.3,1.6,2.2,2l0.8,0.4l2.9,1.2l0.8,0.4
	l1.1,0.6c0.3,0.2,0.3,0.6,0.2,1.1c0,0.2,0,0.4-0.1,0.5c-0.1,0.2-0.3,0.3-0.5,0.4c-0.6,0.2-1.3,0.4-1.9,0.3h-6.9l-0.2,1v0.5l-0.4,1.5
	V43l2.3,0.5l2,0.3v0.3l-0.6,2.7h3.9l0.7-2.9h1c1.1-0.1,2.1-0.3,3.1-0.6l1.1-0.6c0.4-0.5,0.7-1,0.9-1.6l0.4-0.7
	c0.3-0.9,0.6-1.8,0.7-2.7c0.3-1.2,0.1-2.5-0.5-3.6c-0.2-0.4-0.5-0.7-0.8-1c-0.6-0.6-1.4-1.1-2.2-1.4l-3.3-1.3h-0.1
	c-0.5-0.1-1-0.4-1.4-0.7c-0.2-0.3-0.3-0.7-0.3-1.1c0.1-0.3,0.3-0.7,0.5-0.9h0.2c0.6-0.2,1.2-0.3,1.8-0.2h6.6l0.8-3.5h0.1l-1.8-0.4
	L72.9,23.1z"/>
</svg>
