<svg xmlns="http://www.w3.org/2000/svg" viewBox="0 0 73.6 73.6"><defs><style>.a{fill:#fff;}</style></defs><title>setas-saindo</title><path class="a" d="M72.7,68.6h0l-1.5-8.1-3.4,3.3-7.9-7.8a27.9,27.9,0,0,0,7.2-19.1,27.9,27.9,0,0,0-7.2-19.1h0l8-7.8,3.3,3.3,1.5-8.1h0l.9-5-5,.9h-.1L60.4,2.3l3.3,3.4-8.1,8A29.9,29.9,0,0,0,36.8,7.3a30.3,30.3,0,0,0-19,6.4l-7.9-8,3.3-3.4L5.1.9H5L0,0,.9,5h0l1.4,8.1L5.7,9.9l7.8,7.9h0a28,28,0,0,0-7.1,19,27.5,27.5,0,0,0,7.2,19h0L5.7,63.7,2.3,60.4.9,68.5h0l-.9,5,5-.9h.1l8.1-1.5L9.9,67.9l8-8a29.9,29.9,0,0,0,18.9,6.3,29.8,29.8,0,0,0,18.8-6.3h0l8.1,8-3.3,3.3,8.1,1.5h.1l5,.9ZM20.9,51.9a20,20,0,0,1-6.5-15.1,19.8,19.8,0,0,1,6.5-15.1,21.7,21.7,0,0,1,15.9-6.4,21.7,21.7,0,0,1,15.8,6.4,19.8,19.8,0,0,1,6.5,15.1,20,20,0,0,1-6.5,15.1,21.6,21.6,0,0,1-15.8,6.3A21.6,21.6,0,0,1,20.9,51.9Z"/><path class="a" d="M40.2,35.1,36,33.6c-1.8-.6-2.4-1-2.4-2.6s.8-2.1,3.2-2.1h7.1l.3-3.4a29.7,29.7,0,0,0-4.3-.8l.4-3.1H36.6l-.3,3c-5.5.1-7.7,1.2-7.7,6.3,0,3.4,1.3,5.4,4.7,6.7l4.5,1.6c1.5.5,2.1.9,2.1,2.5s-.7,2.1-3.3,2.1H29.2l-.4,3.7a37.1,37.1,0,0,0,5,.7l-.3,3.7h3.6l.4-3.6c5.4-.1,7.5-1.6,7.5-6.5C45,38.4,43.8,36.3,40.2,35.1Z"/></svg>