<svg xmlns="http://www.w3.org/2000/svg" viewBox="0 0 112.1 99.59"><defs><style>.cls-1,.cls-4{fill:none;}.cls-1,.cls-3,.cls-4{stroke:#63c932;stroke-miterlimit:3;}.cls-1,.cls-3{stroke-width:8px;}.cls-2{fill:#63c932;}.cls-3{fill:#fff;}.cls-4{stroke-width:4px;}</style></defs><title>102_2</title><g id="Layer_2" data-name="Layer 2"><g id="Layer_1-2" data-name="Layer 1"><path id="icone_cifra_baixo_0_Layer0_0_1_STROKES" data-name="icone cifra baixo 0 Layer0 0 1 STROKES" class="cls-1" d="M45.19,25.94h62.3L97.63,95.59H47.33A10.14,10.14,0,0,1,37,83.71Z"/><g id="seta_0_Layer0_0_FILL" data-name="seta 0 Layer0 0 FILL"><path class="cls-2" d="M85.15,37.49,71.08,49.7H95.76Z"/></g><g id="seta_0_Layer0_1_FILL" data-name="seta 0 Layer0 1 FILL"><path class="cls-2" d="M87.42,49.68h-8L73.08,94.47h8Z"/></g><g id="seta_0_Layer0_0_FILL-2" data-name="seta 0 Layer0 0 FILL"><path class="cls-2" d="M57.92,69.66,43.85,81.87H68.53Z"/></g><polygon class="cls-2" points="58.48 93.97 60.2 81.85 52.2 81.85 50.44 94.29 58.48 93.97"/><path id="icone_relogio_0_Layer0_0_1_STROKES" data-name="icone relogio 0 Layer0 0 1 STROKES" class="cls-3" d="M68.4,36.2A31,31,0,0,1,59,58.94,31,31,0,0,1,36.2,68.38a31.06,31.06,0,0,1-22.78-9.44A31,31,0,0,1,4,36.2a31.08,31.08,0,0,1,9.42-22.78A31.08,31.08,0,0,1,36.2,4,31,31,0,0,1,59,13.42,31.06,31.06,0,0,1,68.4,36.2Z"/><path id="icone_porc_0_Layer0_0_1_STROKES" data-name="icone porc 0 Layer0 0 1 STROKES" class="cls-4" d="M46.48,46.09a5.48,5.48,0,0,1-5.24,4.55,3.87,3.87,0,0,1-4-4.56,5.07,5.07,0,0,1,1.79-3.22,5.17,5.17,0,0,1,3.45-1.33,3.88,3.88,0,0,1,3.95,4.56Z"/><path id="icone_porc_0_Layer0_1_1_STROKES" data-name="icone porc 0 Layer0 1 1 STROKES" class="cls-4" d="M35.25,27.19A5.46,5.46,0,0,1,30,31.73a3.87,3.87,0,0,1-3.95-4.55,5.41,5.41,0,0,1,5.24-4.55,3.88,3.88,0,0,1,4,4.56Z"/><g id="icone_porc_0_Layer0_2_FILL" data-name="icone porc 0 Layer0 2 FILL"><path class="cls-2" d="M21,52.29h4.63l25-32H46Z"/></g></g></g></svg>