<svg xmlns="http://www.w3.org/2000/svg" viewBox="0 0 120.36 140.01"><defs><style>.cls-1,.cls-3,.cls-5{fill:none;}.cls-1,.cls-3,.cls-4,.cls-5,.cls-6{stroke:#63c932;}.cls-1,.cls-3,.cls-6{stroke-miterlimit:3;}.cls-1,.cls-6{stroke-width:8px;}.cls-2{fill:#63c932;}.cls-3,.cls-4,.cls-5{stroke-width:4px;}.cls-4,.cls-6{fill:#fff;}.cls-4,.cls-5{stroke-miterlimit:10;}</style></defs><title>102_3</title><g id="Layer_2" data-name="Layer 2"><g id="Layer_1-2" data-name="Layer 1"><path id="icone_cifra_baixo_0_Layer0_0_1_STROKES" data-name="icone cifra baixo 0 Layer0 0 1 STROKES" class="cls-1" d="M8.15,82.91h62.3l-5.7,37.94H14.45A10.13,10.13,0,0,1,4.13,109Z"/><g id="seta_0_Layer0_1_FILL" data-name="seta 0 Layer0 1 FILL"><path class="cls-2" d="M49,39.91H41L35.23,81.37h8Z"/></g><line class="cls-3" x1="66.85" y1="94.18" x2="8.16" y2="94.18"/><circle class="cls-4" cx="45.26" cy="34.97" r="5.32"/><line class="cls-5" x1="12.57" y1="53.47" x2="41.44" y2="38.13"/><line class="cls-5" x1="72.59" y1="53.47" x2="48.14" y2="38.13"/><line class="cls-5" x1="50.25" y1="0.29" x2="45.82" y2="31.04"/><path id="icone_relogio_0_Layer0_0_1_STROKES" data-name="icone relogio 0 Layer0 0 1 STROKES" class="cls-6" d="M116.36,103.83A32.23,32.23,0,0,1,84.16,136,32.2,32.2,0,0,1,52,103.83a32.16,32.16,0,0,1,32.2-32.2,32.2,32.2,0,0,1,32.2,32.2Z"/><polygon class="cls-5" points="81.66 84.1 71.64 105 81.02 106.88 76.64 121.67 96.68 100.17 87.06 97.89 96.68 84.1 81.66 84.1"/></g></g></svg>