<svg xmlns="http://www.w3.org/2000/svg" viewBox="0 0 75.1 82.24"><defs><style>.cls-1,.cls-5{fill:none;stroke-miterlimit:3;}.cls-1,.cls-3,.cls-4,.cls-5{stroke:#63c932;}.cls-1{stroke-width:8px;}.cls-2{fill:#63c932;}.cls-3{fill:#fff;}.cls-3,.cls-4{stroke-miterlimit:10;}.cls-3,.cls-4,.cls-5{stroke-width:4px;}.cls-4{fill:#fcfcfc;}</style></defs><title>102_1</title><g id="Layer_2" data-name="Layer 2"><g id="Layer_1-2" data-name="Layer 1"><path id="icone_cifra_baixo_0_Layer0_0_1_STROKES" data-name="icone cifra baixo 0 Layer0 0 1 STROKES" class="cls-1" d="M8.15,40.3h62.3l-5.7,37.94H14.45A10.13,10.13,0,0,1,4.13,66.36Z"/><g id="seta_0_Layer0_1_FILL" data-name="seta 0 Layer0 1 FILL"><path class="cls-2" d="M46.82,11.68h-8L35.23,38.76h8Z"/></g><path class="cls-3" d="M41.71,16.29S41,10.07,36,9.84s-9.2,0-9.2,0,1.11,6.32,4.31,6.45C35.49,16.45,41.71,16.29,41.71,16.29Z"/><path class="cls-4" d="M42.59,12.65S43.7,2.53,51.84,2.16s15,0,15,0-1.82,10.29-7,10.49C52.7,12.92,42.59,12.65,42.59,12.65Z"/><line class="cls-5" x1="66.85" y1="51.57" x2="8.16" y2="51.57"/></g></g></svg>