<svg xmlns="http://www.w3.org/2000/svg" viewBox="0 0 78.91 78.91"><defs><style>.cls-1{fill:#fff;}.cls-2{fill:none;stroke:#63c932;stroke-miterlimit:3;stroke-width:8px;}.cls-3{fill:#63c932;}</style></defs><title>104_1</title><g id="Layer_2" data-name="Layer 2"><g id="Layer_1-2" data-name="Layer 1"><g id="Question_0_Layer0_0_FILL" data-name="Question 0 Layer0 0 FILL"><path class="cls-1" d="M74.93,39.45a34.18,34.18,0,0,0-10.4-25.08A34.14,34.14,0,0,0,39.47,4,34.22,34.22,0,0,0,14.39,14.37,34.19,34.19,0,0,0,4,39.45,34.14,34.14,0,0,0,14.39,64.52,34.2,34.2,0,0,0,39.47,74.91,34.12,34.12,0,0,0,64.53,64.52,34.13,34.13,0,0,0,74.93,39.45Z"/></g><path id="Question_0_Layer0_0_1_STROKES" data-name="Question 0 Layer0 0 1 STROKES" class="cls-2" d="M74.91,39.45A34.16,34.16,0,0,1,64.52,64.52,34.16,34.16,0,0,1,39.45,74.91,34.21,34.21,0,0,1,14.37,64.52,34.18,34.18,0,0,1,4,39.45,34.23,34.23,0,0,1,14.37,14.37,34.23,34.23,0,0,1,39.45,4,34.18,34.18,0,0,1,64.52,14.37,34.21,34.21,0,0,1,74.91,39.45Z"/><g id="icone_check_0_Layer0_3_FILL" data-name="icone check 0 Layer0 3 FILL"><path class="cls-3" d="M78.66,10.73H73.48L37.72,54.29,26.28,32.35h-4.5L37,61.51Z"/></g></g></g></svg>