<svg xmlns="http://www.w3.org/2000/svg" viewBox="0 0 90.88 71.34"><defs><style>.cls-1{fill:none;stroke:#63c932;stroke-linecap:round;stroke-linejoin:round;stroke-width:4px;}.cls-2{fill:#63c932;}</style></defs><title>106_1</title><g id="Layer_2" data-name="Layer 2"><g id="Layer_1-2" data-name="Layer 1"><path id="mao1_0_Layer0_0_1_STROKES" data-name="mao1 0 Layer0 0 1 STROKES" class="cls-1" d="M57.25,20.49,65.38,16,77,37,55.1,49.14M39.81,46l-8,4.45a3.46,3.46,0,0,1-4.69-1.34l-1.67-3,10.94-6L36.3,40,24.87,46.29A3.46,3.46,0,0,1,20.19,45l-1.67-3L47.91,25.66M36.35,40.07l.18-.1"/><path id="mao1_0_Layer0_1_1_STROKES" data-name="mao1 0 Layer0 1 1 STROKES" class="cls-1" d="M45.18,50.23l-6.13,3.39a3.2,3.2,0,0,1-4.35-1.25l-1-1.81"/><path id="mao1_0_Layer0_2_1_STROKES" data-name="mao1 0 Layer0 2 1 STROKES" class="cls-1" d="M54.36,49.55l-6.13,3.39a3.22,3.22,0,0,1-4-.81"/><path id="mao1_0_Layer0_3_1_STROKES" data-name="mao1 0 Layer0 3 1 STROKES" class="cls-1" d="M38.59,22.07q7.17-6.67,18.48-1.58"/><path id="mao1_copy_0_Layer0_0_1_STROKES" data-name="mao1 copy 0 Layer0 0 1 STROKES" class="cls-1" d="M44.55,25.74,25.11,15,13.48,36l6.36,3.53m45,5.31,2.64,1.46A3.46,3.46,0,0,0,72.13,45l1.67-3-2.41-1.34M56.8,48.41l3.75,2.07a3.46,3.46,0,0,0,4.69-1.34l1.67-3-2.33-1.29M51,52.36l2.28,1.26a3.2,3.2,0,0,0,4.35-1.25l1-1.81"/><path id="manga_0_Layer0_0_1_STROKES" data-name="manga 0 Layer0 0 1 STROKES" class="cls-1" d="M58.92,19.6,77.24,9.46l11.64,21L69.88,41"/><g id="manga_0_Layer0_1_FILL" data-name="manga 0 Layer0 1 FILL"><path class="cls-2" d="M83.07,28.2a2.33,2.33,0,0,0-.71-1.64,2.23,2.23,0,0,0-1.64-.67,2.33,2.33,0,0,0-1.64.68,2.25,2.25,0,0,0-.66,1.64,2.31,2.31,0,0,0,.67,1.63,2.17,2.17,0,0,0,1.62.68,2.26,2.26,0,0,0,1.66-.69A2.17,2.17,0,0,0,83.07,28.2Z"/></g><path class="cls-1" d="M32,18.73,13.64,8.59,2,29.61,21,40.12"/><path class="cls-2" d="M7.81,27.33a2.31,2.31,0,0,1,.71-1.64A2.26,2.26,0,0,1,10.16,25a2.31,2.31,0,0,1,1.63.68,2.23,2.23,0,0,1,.67,1.64A2.3,2.3,0,0,1,11.78,29a2.14,2.14,0,0,1-1.62.68A2.28,2.28,0,0,1,8.51,29,2.17,2.17,0,0,1,7.81,27.33Z"/><g id="icone_aperto_0_Layer0_1_FILL" data-name="icone aperto 0 Layer0 1 FILL"><path class="cls-2" d="M74.83,39.7H71.21L67.87,63.34H20.15a6.13,6.13,0,0,1-5-2.1h0A6.44,6.44,0,0,1,13.79,56v0l2.64-18.7h-4V33.9H8.83l-3,21h0A13.83,13.83,0,0,0,9.13,66.46l0,0a14,14,0,0,0,11,4.86H74.81l4.9-34.64H74.83v3M75.69,8l-.6,4.3h2.74l3.6,8.2.8-1.6L84.91,0H13.63L12.07,11.1h8.06L20.57,8Z"/></g></g></g></svg>