<?xml version="1.0" encoding="utf-8"?>
<!-- Generator: Adobe Illustrator 23.0.3, SVG Export Plug-In . SVG Version: 6.00 Build 0)  -->
<svg version="1.1" id="Layer_1" xmlns="http://www.w3.org/2000/svg" xmlns:xlink="http://www.w3.org/1999/xlink" x="0px" y="0px"
	 viewBox="0 0 138.8 122.4" style="enable-background:new 0 0 138.8 122.4;" xml:space="preserve">
<style type="text/css">
	.st0{fill:#63C932;}
</style>
<title>10_1</title>
<g>
	<g id="Layer_1-2">
		<g id="icone_organograma_0_Layer0_0_MEMBER_2_1_STROKES">
			<polygon class="st0" points="124.8,78.8 120.8,78.2 122.9,63.4 79.1,63.4 79.1,59.4 127.5,59.4 			"/>
		</g>
		<g id="icone_organograma_0_Layer0_0_MEMBER_3_1_STROKES">
			<polygon class="st0" points="32.7,78.8 28.7,78.2 31.3,59.4 79.2,59.4 79.2,63.4 34.8,63.4 			"/>
		</g>
		<g id="icone_organograma_0_Layer0_0_MEMBER_5_1_STROKES">
			
				<rect x="75.3" y="48.4" transform="matrix(0.1426 -0.9898 0.9898 0.1426 22.7038 127.0091)" class="st0" width="18.8" height="4"/>
		</g>
		<g id="icone_organograma_0_Layer0_0_MEMBER_0_1_STROKES">
			<path class="st0" d="M68.3,52.3L68.3,52.3c-3-0.1-5.8-1.4-7.7-3.6c-2.1-2.3-3.1-5.4-2.6-8.5L63.8,0h52.7l-7.4,52.2L68.3,52.3z
				 M70.7,8L66,41.3c-0.1,0.7,0.1,1.4,0.6,2l0.1,0.1c0.5,0.5,1.1,0.9,1.8,0.9l33.7-0.1L107.3,8H70.7z"/>
		</g>
		<g id="icone_organograma_0_Layer0_0_MEMBER_1_1_STROKES">
			<path class="st0" d="M89.2,122.4L89.2,122.4c-3.1-0.1-5.9-1.5-7.8-3.8c-2.1-2.4-3.1-5.5-2.6-8.6l5.9-41.4h54.2l-7.6,53.6
				L89.2,122.4z M91.6,76.6l-4.9,34.5c-0.1,0.8,0.1,1.5,0.6,2.1l0.1,0.1c0.5,0.6,1.2,0.9,2,1l35-0.1l5.3-37.6H91.6z"/>
		</g>
		<g id="icone_organograma_0_Layer0_0_MEMBER_4_1_STROKES">
			<path class="st0" d="M10.6,122.4L10.6,122.4c-3.1-0.1-5.9-1.5-7.8-3.7c-2.1-2.4-3.1-5.5-2.6-8.6L6,68.6h54.2l-7.6,53.6
				L10.6,122.4z M13,76.6L8,111.2c-0.1,0.8,0.1,1.5,0.6,2.1l0.1,0.1c0.5,0.6,1.2,0.9,2,1l35-0.1L51,76.6H13z"/>
		</g>
	</g>
</g>
</svg>
