<?xml version="1.0" encoding="utf-8"?>
<!-- Generator: Adobe Illustrator 23.0.3, SVG Export Plug-In . SVG Version: 6.00 Build 0)  -->
<svg version="1.1" id="Layer_1" xmlns="http://www.w3.org/2000/svg" xmlns:xlink="http://www.w3.org/1999/xlink" x="0px" y="0px"
	 viewBox="0 0 140.9 106.5" style="enable-background:new 0 0 140.9 106.5;" xml:space="preserve">
<style type="text/css">
	.st0{fill:#63C932;}
	.st1{fill:#FFFFFF;}
</style>
<g>
	<g id="Layer_1-2">
		<g id="Duplicate_Items_Folder_pessoa_0_Layer0_0_1_STROKES">
			<path class="st0" d="M125.8,7.4L125.8,7.4c-4.9-4.8-11.2-7.5-18-7.5c0,0,0,0,0,0c-6.8,0-13.2,2.7-18,7.4c-2.7,2.6-4.7,5.7-6,9.1
				c-0.5,1.2-0.8,2.5-1.1,3.8c-0.3,1.4-0.4,2.8-0.5,4.3c1.7,0.8,3.3,1.9,4.7,3.3L87,28c3.3,3.2,5.2,7.7,5.1,12.3v0.1
				c0,1.6-0.2,3.2-0.6,4.8c1.1,0.9,2.3,1.7,3.5,2.4c1.2,0.7,2.3,1.3,3.6,1.7c0.3,0.1,0.5,0.2,0.8,0.3c2.7,0.9,5.5,1.4,8.4,1.4
				c0,0,0,0,0,0c2.9,0,5.7-0.5,8.4-1.4c3.6-1.2,6.9-3.3,9.6-6c4.9-4.7,7.6-11.3,7.5-18.1C133.4,18.7,130.7,12.2,125.8,7.4z
				 M125.3,25.6c0.1,4.6-1.8,9.1-5.2,12.3c-3.3,3.3-7.7,5.1-12.4,5.1c0,0,0,0,0,0c-2.7,0-5.3-0.6-7.7-1.8c-1.5-0.7-2.8-1.6-4-2.7
				c-0.2-0.2-0.4-0.4-0.6-0.6l-0.1-0.1c-3.3-3.2-5.1-7.7-5-12.3v-0.1c0-1.6,0.2-3.2,0.6-4.8c0.8-2.8,2.3-5.5,4.5-7.6
				c3.3-3.3,7.7-5.1,12.4-5.1c0,0,0,0,0,0c4.7,0,9.1,1.8,12.4,5.1l0.1,0.1c3.3,3.2,5.1,7.7,5.1,12.3V25.6z"/>
		</g>
		<g id="Duplicate_Items_Folder_pessoa_0_Layer0_1_FILL">
			<g>
				<path class="st1" d="M82.2,83.8l-0.4,3.8H86l0.4-3.8H82.2z M132.3,57.3c-2.9-2.3-7.2-3.6-13-3.7H86.2c-0.1,0-0.1,0-0.2,0
					c-2.6,2.3-5.8,3.7-9.3,4.1c-0.7,0.1-1.4,0.1-2.1,0.1c0,0,0,0,0,0c-0.4,0-0.7,0-1.1,0h0c-0.1,0.1-0.3,0.2-0.4,0.3
					c-0.2,0.2-0.4,0.4-0.6,0.5c-0.9,0.8-1.6,1.7-2.2,2.7c-0.1,0.2-0.2,0.4-0.4,0.6c-0.4,0.8-0.8,1.6-1.1,2.4
					c-0.1,0.2-0.2,0.5-0.2,0.7c-0.3,1-0.5,2-0.6,3.1l0,0.2l-0.5,4H86c0.5,0,0.9,0,1.3,0c4.2,0.2,7.3,1.1,9.2,2.7
					c2.1,1.7,3.1,4.5,3.1,8.4c0,0.5,0,1,0,1.6l-0.3,2.4h35.1l2.4-16.8C137.2,64.6,135.7,60.1,132.3,57.3z M132.7,70.4l-1.8,13.3h-13
					l1.7-14.7h-4.2l-1.7,14.7h-6.1c0-6.4-2-11.3-6-14.6c-3.6-3-8.7-4.5-15.5-4.6H83c3.6-1.2,6.8-3.3,9.6-6c0.3-0.3,0.5-0.5,0.8-0.8
					h25.8c4.8,0.1,8.4,1,10.5,2.8C132,62.4,133,65.6,132.7,70.4z"/>
			</g>
		</g>
		<g id="Duplicate_Items_Folder_pessoa_0_Layer0_1_1_STROKES">
			<path class="st0" d="M74.4,61.9c-1.4,0-2.8-0.1-4.1-0.4c-0.1,0.2-0.2,0.4-0.4,0.6c0.5,0.7,0.9,1.5,1.1,2.4
				c0.1,0.4,0.2,0.8,0.3,1.2c0.2,0.9,0.2,1.8,0.3,2.8c0,0.6,0,1.3,0,1.9l-0.3,2.1h0.2l0.4-3.7l0-0.2c0,0,0-0.1,0-0.1
				c0.1-0.9,0.3-1.8,0.5-2.7c0.2-0.5,0.4-0.9,0.6-1.3c0.4-0.8,0.9-1.5,1.5-2.2c0.1-0.1,0.2-0.3,0.3-0.4
				C74.8,61.9,74.6,61.9,74.4,61.9z M74.4,61.9c-1.4,0-2.8-0.1-4.1-0.4c-0.1,0.2-0.2,0.4-0.4,0.6c0.5,0.7,0.9,1.5,1.1,2.4
				c0.1,0.4,0.2,0.8,0.3,1.2c0.2,0.9,0.2,1.8,0.3,2.8c0,0.6,0,1.3,0,1.9l-0.3,2.1h0.2l0.4-3.7l0-0.2c0,0,0-0.1,0-0.1
				c0.1-0.9,0.3-1.8,0.5-2.7c0.2-0.5,0.4-0.9,0.6-1.3c0.4-0.8,0.9-1.5,1.5-2.2c0.1-0.1,0.2-0.3,0.3-0.4
				C74.8,61.9,74.6,61.9,74.4,61.9z M74.4,61.9c-1.4,0-2.8-0.1-4.1-0.4c-0.1,0.2-0.2,0.4-0.4,0.6c0.5,0.7,0.9,1.5,1.1,2.4
				c0.1,0.4,0.2,0.8,0.3,1.2c0.2,0.9,0.2,1.8,0.3,2.8c0,0.6,0,1.3,0,1.9l-0.3,2.1h0.2l0.4-3.7l0-0.2c0,0,0-0.1,0-0.1
				c0.1-0.9,0.3-1.8,0.5-2.7c0.2-0.5,0.4-0.9,0.6-1.3c0.4-0.8,0.9-1.5,1.5-2.2c0.1-0.1,0.2-0.3,0.3-0.4
				C74.8,61.9,74.6,61.9,74.4,61.9z M74.4,61.9c-1.4,0-2.8-0.1-4.1-0.4c-0.1,0.2-0.2,0.4-0.4,0.6c0.5,0.7,0.9,1.5,1.1,2.4
				c0.1,0.4,0.2,0.8,0.3,1.2c0.2,0.9,0.2,1.8,0.3,2.8c0,0.6,0,1.3,0,1.9l-0.3,2.1h0.2l0.4-3.7l0-0.2c0,0,0-0.1,0-0.1
				c0.1-0.9,0.3-1.8,0.5-2.7c0.2-0.5,0.4-0.9,0.6-1.3c0.4-0.8,0.9-1.5,1.5-2.2c0.1-0.1,0.2-0.3,0.3-0.4
				C74.8,61.9,74.6,61.9,74.4,61.9z M74.4,61.9c-1.4,0-2.8-0.1-4.1-0.4c-0.1,0.2-0.2,0.4-0.4,0.6c0.5,0.7,0.9,1.5,1.1,2.4
				c0.1,0.4,0.2,0.8,0.3,1.2c0.2,0.9,0.2,1.8,0.3,2.8c0,0.6,0,1.3,0,1.9l-0.3,2.1h0.2l0.4-3.7l0-0.2c0,0,0-0.1,0-0.1
				c0.1-0.9,0.3-1.8,0.5-2.7c0.2-0.5,0.4-0.9,0.6-1.3c0.4-0.8,0.9-1.5,1.5-2.2c0.1-0.1,0.2-0.3,0.3-0.4
				C74.8,61.9,74.6,61.9,74.4,61.9z M74.4,61.9c-1.4,0-2.8-0.1-4.1-0.4c-0.1,0.2-0.2,0.4-0.4,0.6c0.5,0.7,0.9,1.5,1.1,2.4
				c0.1,0.4,0.2,0.8,0.3,1.2c0.2,0.9,0.2,1.8,0.3,2.8c0,0.6,0,1.3,0,1.9l-0.3,2.1h0.2l0.4-3.7l0-0.2c0,0,0-0.1,0-0.1
				c0.1-0.9,0.3-1.8,0.5-2.7c0.2-0.5,0.4-0.9,0.6-1.3c0.4-0.8,0.9-1.5,1.5-2.2c0.1-0.1,0.2-0.3,0.3-0.4
				C74.8,61.9,74.6,61.9,74.4,61.9z M82.2,83.8l-0.4,3.8l-0.3,2.6l-0.2,1.4h4.2l0.5-4l0.4-3.8H82.2z M134.7,54.2
				c-3.6-3-8.7-4.5-15.5-4.6H89.5c-0.7,1.1-1.5,2.2-2.5,3.1c-0.3,0.3-0.6,0.6-1,0.9c-2.6,2.3-5.8,3.7-9.3,4.1
				c-0.7,0.1-1.4,0.1-2.1,0.1c0,0,0,0,0,0c-0.4,0-0.7,0-1.1,0h0c-0.7,0-1.4-0.1-2.1-0.2c-0.9-0.2-1.8-0.4-2.7-0.7
				c-0.7,0.8-1.3,1.6-1.8,2.5c-0.2,0.3-0.4,0.6-0.5,0.9c-0.7,1.2-1.2,2.4-1.5,3.7c-0.1,0.2-0.1,0.4-0.2,0.5
				c-0.3,1.1-0.5,2.3-0.6,3.5L64,68.5l-0.5,4h8l0.4-3.7l0-0.2c0,0,0-0.1,0-0.1c0.1-0.9,0.3-1.8,0.5-2.7c0.2-0.5,0.4-0.9,0.6-1.3
				c0.4-0.8,0.9-1.5,1.5-2.2c0.1-0.1,0.2-0.3,0.3-0.4c0.2-0.2,0.5-0.5,0.7-0.7c0.7-0.6,1.4-1.1,2.1-1.5c2.3-1.3,5-2,8.3-2h33
				c4.8,0.1,8.4,1,10.5,2.8c2.4,2,3.4,5.2,3.1,10l-1.8,13.3H99.7c0,0.5,0,1,0,1.6l-0.3,2.4l-0.6,4h39.2l2.8-20.3l0-0.3
				C141.2,63.6,139.2,57.9,134.7,54.2z M74.4,61.9c-1.4,0-2.8-0.1-4.1-0.4c-0.1,0.2-0.2,0.4-0.4,0.6c0.5,0.7,0.9,1.5,1.1,2.4
				c0.1,0.4,0.2,0.8,0.3,1.2c0.2,0.9,0.2,1.8,0.3,2.8c0,0.6,0,1.3,0,1.9l-0.3,2.1h0.2l0.4-3.7l0-0.2c0,0,0-0.1,0-0.1
				c0.1-0.9,0.3-1.8,0.5-2.7c0.2-0.5,0.4-0.9,0.6-1.3c0.4-0.8,0.9-1.5,1.5-2.2c0.1-0.1,0.2-0.3,0.3-0.4
				C74.8,61.9,74.6,61.9,74.4,61.9z M74.4,61.9c-1.4,0-2.8-0.1-4.1-0.4c-0.1,0.2-0.2,0.4-0.4,0.6c0.5,0.7,0.9,1.5,1.1,2.4
				c0.1,0.4,0.2,0.8,0.3,1.2c0.2,0.9,0.2,1.8,0.3,2.8c0,0.6,0,1.3,0,1.9l-0.3,2.1h0.2l0.4-3.7l0-0.2c0,0,0-0.1,0-0.1
				c0.1-0.9,0.3-1.8,0.5-2.7c0.2-0.5,0.4-0.9,0.6-1.3c0.4-0.8,0.9-1.5,1.5-2.2c0.1-0.1,0.2-0.3,0.3-0.4
				C74.8,61.9,74.6,61.9,74.4,61.9z M74.4,61.9c-1.4,0-2.8-0.1-4.1-0.4c-0.1,0.2-0.2,0.4-0.4,0.6c0.5,0.7,0.9,1.5,1.1,2.4
				c0.1,0.4,0.2,0.8,0.3,1.2c0.2,0.9,0.2,1.8,0.3,2.8c0,0.6,0,1.3,0,1.9l-0.3,2.1h0.2l0.4-3.7l0-0.2c0,0,0-0.1,0-0.1
				c0.1-0.9,0.3-1.8,0.5-2.7c0.2-0.5,0.4-0.9,0.6-1.3c0.4-0.8,0.9-1.5,1.5-2.2c0.1-0.1,0.2-0.3,0.3-0.4
				C74.8,61.9,74.6,61.9,74.4,61.9z M74.4,61.9c-1.4,0-2.8-0.1-4.1-0.4c-0.1,0.2-0.2,0.4-0.4,0.6c0.5,0.7,0.9,1.5,1.1,2.4
				c0.1,0.4,0.2,0.8,0.3,1.2c0.2,0.9,0.2,1.8,0.3,2.8c0,0.6,0,1.3,0,1.9l-0.3,2.1h0.2l0.4-3.7l0-0.2c0,0,0-0.1,0-0.1
				c0.1-0.9,0.3-1.8,0.5-2.7c0.2-0.5,0.4-0.9,0.6-1.3c0.4-0.8,0.9-1.5,1.5-2.2c0.1-0.1,0.2-0.3,0.3-0.4
				C74.8,61.9,74.6,61.9,74.4,61.9z M74.4,61.9c-1.4,0-2.8-0.1-4.1-0.4c-0.1,0.2-0.2,0.4-0.4,0.6c0.5,0.7,0.9,1.5,1.1,2.4
				c0.1,0.4,0.2,0.8,0.3,1.2c0.2,0.9,0.2,1.8,0.3,2.8c0,0.6,0,1.3,0,1.9l-0.3,2.1h0.2l0.4-3.7l0-0.2c0,0,0-0.1,0-0.1
				c0.1-0.9,0.3-1.8,0.5-2.7c0.2-0.5,0.4-0.9,0.6-1.3c0.4-0.8,0.9-1.5,1.5-2.2c0.1-0.1,0.2-0.3,0.3-0.4
				C74.8,61.9,74.6,61.9,74.4,61.9z"/>
		</g>
		<g id="Duplicate_Items_Folder_pessoa_0_Layer0_2_FILL">
			<g>
				<polygon class="st0" points="86,83.8 85.6,87.6 85.3,90.7 81.5,90.2 81.8,87.6 82.2,83.8 				"/>
				<path class="st0" d="M87.7,69l-0.4,3.5c-0.4,0-0.9,0-1.3,0h-2.8l0.4-3.5H87.7z"/>
			</g>
		</g>
		<g id="Duplicate_Items_Folder_pessoa_0_Layer0_3_FILL">
			<g>
				<polygon class="st0" points="119.6,69 117.9,83.6 117.5,87.6 117,91.5 112.9,91 113.3,87.6 113.8,83.6 115.4,69 				"/>
			</g>
		</g>
		<g>
			<path class="st1" d="M67.4,20c-0.3-1.3-0.8-2.5-1.4-3.7c-1-2.2-2.5-4.2-4.3-6c-4-4.1-9.5-6.4-15.2-6.3
				c-5.7-0.1-11.2,2.2-15.2,6.3c-4.1,4-6.4,9.5-6.3,15.2c-0.1,5.7,2.2,11.2,6.3,15.2c4,4.1,9.5,6.4,15.2,6.3c1.1,0,2.2,0,3.3-0.2
				c1.3-0.2,2.6-0.5,3.9-0.9c1.3-0.4,2.5-1,3.7-1.7C57.2,43,57,41.7,57,40.4v-0.1c0-0.2,0-0.5,0-0.7c0.1-4.4,1.9-8.6,5.1-11.7
				c0.6-0.6,1.2-1.1,1.9-1.6c1.2-0.9,2.6-1.7,4-2.3C68,22.7,67.8,21.3,67.4,20z M46.6,43.1h-0.1c-4.6,0.1-9.1-1.8-12.3-5.1l-0.1-0.1
				c-3.3-3.2-5.2-7.7-5.1-12.3v-0.1c-0.1-4.6,1.8-9.1,5.1-12.3l0.1-0.1c3.2-3.3,7.7-5.2,12.3-5.1h0.1c4.6-0.1,9.1,1.8,12.3,5.1
				l0.1,0.1c1.4,1.4,2.6,3,3.4,4.7c-2.1,1.1-4.1,2.6-5.8,4.4C51.7,27,49,33.6,49,40.4c0,0.9,0,1.7,0.1,2.6
				C48.3,43,47.5,43.1,46.6,43.1z"/>
		</g>
		<g>
			<path class="st0" d="M71.3,19c-0.3-1.3-0.8-2.6-1.3-3.8c-1.3-2.9-3.1-5.5-5.4-7.8C59.9,2.6,53.3-0.1,46.6,0
				c-6.8-0.1-13.3,2.6-18.1,7.5c-4.8,4.7-7.6,11.3-7.5,18c-0.1,6.8,2.7,13.3,7.5,18.1c2.7,2.7,5.9,4.8,9.5,6.1
				c2.6,0.9,5.4,1.4,8.2,1.4h0.6c1.5,0,2.9-0.1,4.3-0.4c1.3-0.2,2.7-0.6,3.9-1h0c1.3-0.4,2.5-1,3.7-1.6c-0.6-1.2-1-2.5-1.3-3.8
				C57.2,43,57,41.7,57,40.4v-0.1c0-0.2,0-0.5,0-0.7c-1.2,0.9-2.5,1.7-4,2.2c-1.3,0.5-2.6,0.9-3.9,1c-0.8,0.1-1.7,0.2-2.5,0.2h-0.1
				c-4.6,0.1-9.1-1.8-12.3-5.1l-0.1-0.1c-3.3-3.2-5.2-7.7-5.1-12.3v-0.1c-0.1-4.6,1.8-9.1,5.1-12.3l0.1-0.1
				c3.2-3.3,7.7-5.2,12.3-5.1h0.1c4.6-0.1,9.1,1.8,12.3,5.1l0.1,0.1c1.4,1.4,2.6,3,3.4,4.7c0.6,1.2,1,2.5,1.3,3.8
				c0.3,1.2,0.4,2.5,0.4,3.8v0.1c0,0.2,0,0.5,0,0.7c1.2-0.9,2.6-1.7,4-2.3c1.3-0.5,2.6-0.8,3.9-1C71.9,21.7,71.6,20.3,71.3,19z"/>
		</g>
		<g>
			<polygon class="st1" points="54.6,83.9 54.1,87.6 50,87.6 50.4,83.9 			"/>
			<path class="st1" d="M75.5,65.9c-0.1-0.5-0.1-1-0.2-1.4c-0.2-0.8-0.4-1.5-0.6-2.2c0-0.1-0.1-0.3-0.2-0.4
				c-0.5-1.2-1.1-2.2-1.9-3.2c-0.3-0.4-0.7-0.8-1.1-1.1c-0.9-0.2-1.8-0.4-2.7-0.7c-1.7-0.6-3.4-1.5-4.8-2.7l0,0
				c-1.7-0.3-3.6-0.5-5.7-0.6H25c-5.5,0.1-9.8,1.6-13.1,4.5c-2.9,2.6-4.7,6.2-5,10.1L4.5,87.6h33.8l0.5-4l0,0l0-0.2
				c0.2-2.9,1.5-5.5,3.7-7.4c2.6-2.3,6-3.4,10.5-3.5h22.4l0.2-1.7c0.1-0.8,0.1-1.6,0.1-2.3C75.7,67.6,75.6,66.7,75.5,65.9z
				 M24.9,83.6L26.5,69h-4.2l-1.6,14.7H9l1.8-14.9l0-0.2c0.2-2.9,1.5-5.5,3.7-7.4c2.6-2.3,6.1-3.5,10.5-3.5h30.8
				c0.3,0.3,0.5,0.5,0.8,0.8l0.1,0.1c2.4,2.4,5.1,4.2,8.1,5.4c-0.1,0.2-0.1,0.4-0.2,0.5H52.9c-6.4,0.1-11.7,2-15.7,5.5
				c-3.8,3.3-6,7.8-6.4,12.8l-0.1,0.9H24.9z"/>
		</g>
		<g>
			<path class="st0" d="M69.4,61.2c0.2,0.2,0.4,0.5,0.6,0.8c0.1-0.2,0.2-0.4,0.4-0.6C70,61.4,69.7,61.3,69.4,61.2z M69.4,61.2
				c0.2,0.2,0.4,0.5,0.6,0.8c0.1-0.2,0.2-0.4,0.4-0.6C70,61.4,69.7,61.3,69.4,61.2z M69.4,61.2c0.2,0.2,0.4,0.5,0.6,0.8
				c0.1-0.2,0.2-0.4,0.4-0.6C70,61.4,69.7,61.3,69.4,61.2z M69.4,61.2c0.2,0.2,0.4,0.5,0.6,0.8c0.1-0.2,0.2-0.4,0.4-0.6
				C70,61.4,69.7,61.3,69.4,61.2z M69.4,61.2c0.2,0.2,0.4,0.5,0.6,0.8c0.1-0.2,0.2-0.4,0.4-0.6C70,61.4,69.7,61.3,69.4,61.2z
				 M69.4,61.2c0.2,0.2,0.4,0.5,0.6,0.8c0.1-0.2,0.2-0.4,0.4-0.6C70,61.4,69.7,61.3,69.4,61.2z M50.4,83.9L50,87.6l-0.5,4h4.2l0-0.4
				l0.4-3.6l0.4-3.8H50.4z M79.4,65.4c0-0.3-0.1-0.6-0.1-1c-0.2-1-0.4-2-0.7-2.9c-0.2-0.7-0.5-1.3-0.8-1.9c-0.3-0.7-0.7-1.3-1.1-1.9
				c-0.7,0.1-1.4,0.1-2.1,0.1c0,0,0,0,0,0c-0.4,0-0.7,0-1.1,0h0c-0.7,0-1.4-0.1-2.1-0.2c-0.9-0.2-1.8-0.4-2.7-0.7
				c-1.7-0.6-3.4-1.5-4.8-2.7l0,0c-0.6-0.5-1.1-0.9-1.6-1.4l-0.1-0.1l0,0c-0.9-0.9-1.7-1.9-2.4-3c-0.5,0-1.1,0-1.6-0.1H24.9
				c-6.4,0.1-11.6,2-15.7,5.5c-3.7,3.3-6,7.8-6.4,12.7L0,91.6h37.8l0.5-4l0.5-4H9l1.8-14.9l0-0.2c0.2-2.9,1.5-5.5,3.7-7.4
				c2.6-2.3,6.1-3.5,10.5-3.5h33c1.5,0,3,0.1,4.2,0.3c1.8,0.3,3.4,0.7,4.6,1.4c0.6,0.3,1.2,0.7,1.7,1.1c0.3,0.3,0.6,0.5,0.9,0.8
				c0.2,0.2,0.4,0.5,0.6,0.8c0.5,0.7,0.9,1.5,1.1,2.4c0.1,0.4,0.2,0.8,0.3,1.2c0.2,0.9,0.2,1.8,0.3,2.8c0,0.6,0,1.3,0,1.9l-0.3,2.1
				h8.1l0.2-1.1l0-0.3c0.1-0.9,0.1-1.8,0.1-2.6C79.6,67.4,79.5,66.4,79.4,65.4z M69.4,61.2c0.2,0.2,0.4,0.5,0.6,0.8
				c0.1-0.2,0.2-0.4,0.4-0.6C70,61.4,69.7,61.3,69.4,61.2z M69.4,61.2c0.2,0.2,0.4,0.5,0.6,0.8c0.1-0.2,0.2-0.4,0.4-0.6
				C70,61.4,69.7,61.3,69.4,61.2z M69.4,61.2c0.2,0.2,0.4,0.5,0.6,0.8c0.1-0.2,0.2-0.4,0.4-0.6C70,61.4,69.7,61.3,69.4,61.2z
				 M69.4,61.2c0.2,0.2,0.4,0.5,0.6,0.8c0.1-0.2,0.2-0.4,0.4-0.6C70,61.4,69.7,61.3,69.4,61.2z M69.4,61.2c0.2,0.2,0.4,0.5,0.6,0.8
				c0.1-0.2,0.2-0.4,0.4-0.6C70,61.4,69.7,61.3,69.4,61.2z"/>
		</g>
		<g>
			<polygon class="st0" points="26.5,69 24.9,83.6 24.4,87.6 24.1,90.7 20,90.2 20.3,87.6 20.7,83.6 22.4,69 			"/>
		</g>
		<g>
			<polygon class="st0" points="54.6,83.9 54.1,87.6 53.7,91.2 51.7,91 52.1,87.6 52.5,83.9 			"/>
			<polygon class="st0" points="58.4,69 58,72.5 53.8,72.5 54.2,69 			"/>
		</g>
		<g>
			<path class="st1" d="M96.1,38.6c-0.3-4.9-2.4-9.5-5.8-13c-0.1-0.2-0.3-0.3-0.4-0.4c-2-2.1-4.4-3.7-7.1-4.8
				c-2.5-1-5.3-1.6-8.1-1.5c-1.1,0-2.2,0.1-3.3,0.2c-1.3,0.2-2.6,0.5-3.9,1c-1.3,0.4-2.5,1-3.7,1.7c-1.6,0.9-3,2.1-4.3,3.4
				c-4.1,4-6.4,9.5-6.3,15.2c0,0.5,0,1,0,1.5c0.1,1.4,0.3,2.7,0.6,4c0.3,1.3,0.8,2.5,1.4,3.7c0.7,1.4,1.5,2.8,2.5,4
				c0.5,0.7,1.1,1.3,1.8,1.9c0.9,0.9,1.8,1.7,2.9,2.4c1.3,0.9,2.7,1.7,4.1,2.3c1,0.4,2,0.8,3.1,1c0.3,0.1,0.6,0.2,0.9,0.2
				c1.4,0.3,2.7,0.4,4.1,0.4c0.2,0,0.3,0,0.5,0c1.2,0,2.4-0.1,3.6-0.3c3.2-0.6,6.2-1.9,8.9-3.9c0.8-0.6,1.6-1.3,2.4-2c0,0,0,0,0,0
				c0.6-0.6,1.2-1.3,1.8-1.9c1-1.2,1.8-2.6,2.5-4c0.3-0.7,0.6-1.3,0.8-2c0.8-2.3,1.2-4.8,1.2-7.3C96.1,39.8,96.1,39.2,96.1,38.6z
				 M89.5,49.6c-0.7,1.1-1.5,2.2-2.5,3.1c-0.3,0.3-0.6,0.6-1,0.9c-2.6,2.3-5.8,3.7-9.3,4.1c-0.7,0.1-1.4,0.1-2.1,0.1c0,0,0,0,0,0
				c-0.4,0-0.7,0-1.1,0h0c-0.7,0-1.4-0.1-2.1-0.2c-0.9-0.2-1.8-0.4-2.7-0.7c-1.7-0.6-3.4-1.5-4.8-2.7l0,0c-0.6-0.5-1.1-0.9-1.6-1.4
				l-0.1-0.1l0,0c-0.9-0.9-1.7-1.9-2.4-3c-0.4-0.5-0.7-1.1-0.9-1.7c-0.6-1.2-1-2.5-1.3-3.8C57.2,43,57,41.7,57,40.4v-0.1
				c0-0.2,0-0.5,0-0.7c0.1-4.4,1.9-8.6,5.1-11.7c0.6-0.6,1.2-1.1,1.9-1.6c1.2-0.9,2.6-1.7,4-2.3c1.3-0.5,2.6-0.8,3.9-1
				c3.5-0.5,7,0,10.3,1.6c1.7,0.8,3.3,1.9,4.7,3.3L87,28c3.3,3.2,5.2,7.7,5.1,12.3v0.1c0,1.6-0.2,3.2-0.6,4.8
				C91,46.8,90.4,48.3,89.5,49.6z"/>
		</g>
		<g>
			<path class="st0" d="M58.8,48c-1.2,0.6-2.4,1.2-3.7,1.6h3c0.6,0,1.1,0,1.6,0.1C59.3,49.2,59,48.6,58.8,48z M92.6,22.3L92.6,22.3
				c-0.6-0.6-1.2-1.1-1.8-1.6c-2.2-1.8-4.5-3.2-7.1-4.1c-4.4-1.7-9.2-2.2-13.8-1.3c-1.3,0.2-2.6,0.6-3.9,1c-1.3,0.5-2.5,1-3.7,1.6
				c-2.1,1.1-4.1,2.6-5.8,4.4C51.7,27,49,33.6,49,40.4c0,0.9,0,1.7,0.1,2.6c0.1,1.3,0.4,2.7,0.7,3.9c0.3,1,0.5,1.9,0.9,2.8
				c0.1,0.3,0.3,0.7,0.4,1c0.4,1,1,2,1.5,3c0.9,1.4,1.9,2.8,3.1,4c0.3,0.3,0.5,0.5,0.8,0.8l0.1,0.1c2.4,2.4,5.1,4.2,8.1,5.4
				c0.5,0.2,0.9,0.4,1.4,0.5c0.8,0.3,1.7,0.5,2.5,0.7c0.9,0.2,1.8,0.4,2.7,0.5c0.4,0.1,0.8,0.1,1.2,0.1c0.7,0,1.4,0.1,2,0.1
				c0,0,0,0,0,0c0.3,0,0.6,0,0.9,0c1.3,0,2.7-0.2,4-0.4c1.2-0.2,2.4-0.6,3.6-1c3.6-1.2,6.8-3.3,9.6-6c0.3-0.3,0.5-0.5,0.8-0.8
				c1.2-1.2,2.2-2.6,3.1-4c0.8-1.3,1.5-2.6,2-4c0.1-0.1,0.1-0.2,0.1-0.3c1-2.6,1.5-5.3,1.6-8c0-0.3,0-0.6,0-1
				C100.2,33.6,97.5,27,92.6,22.3z M92.1,40.4c0,1.6-0.2,3.2-0.6,4.8c-0.4,1.6-1.1,3.1-2,4.5c-0.7,1.1-1.5,2.2-2.5,3.1
				c-0.3,0.3-0.6,0.6-1,0.9c-2.6,2.3-5.8,3.7-9.3,4.1c-0.7,0.1-1.4,0.1-2.1,0.1c0,0,0,0,0,0c-0.4,0-0.7,0-1.1,0h0
				c-0.7,0-1.4-0.1-2.1-0.2c-0.9-0.2-1.8-0.4-2.7-0.7c-1.7-0.6-3.4-1.5-4.8-2.7l0,0c-0.6-0.5-1.1-0.9-1.6-1.4l-0.1-0.1l0,0
				c-0.9-0.9-1.7-1.9-2.4-3c-0.4-0.5-0.7-1.1-0.9-1.7c-0.6-1.2-1-2.5-1.3-3.8C57.2,43,57,41.7,57,40.4v-0.1c0-0.2,0-0.5,0-0.7
				c0.1-4.4,1.9-8.6,5.1-11.7c0.6-0.6,1.2-1.1,1.9-1.6c1.2-0.9,2.6-1.7,4-2.3c1.3-0.5,2.6-0.8,3.9-1c3.5-0.5,7,0,10.3,1.6
				c1.7,0.8,3.3,1.9,4.7,3.3L87,28c3.3,3.2,5.2,7.7,5.1,12.3V40.4z"/>
		</g>
		<g>
			<path class="st1" d="M99.1,72.1c-2.9-2.3-7.2-3.6-13-3.7H53c-5.5,0.1-9.8,1.6-13.1,4.5c-3,2.6-4.8,6.2-5,10.1l-0.1,0.5l-0.5,4
				l-0.5,4l-1.3,10.8h68.7l1.5-10.8l0.6-4l0.3-2c0-0.7,0.1-1.3,0.1-2C103.7,78.5,102.2,74.6,99.1,72.1z M98.7,91.6l-1,6.8h-13
				l0.8-6.8l0.5-4l0.4-3.8h-4.2l-0.4,3.8l-0.3,2.6l-0.2,1.4l-0.8,6.8H52.9l0.8-6.8l0-0.4l0.4-3.6l0.4-3.8h-4.2L50,87.6l-0.5,4
				l-0.8,6.8H37l0.8-6.8l0.5-4l0.5-4l0,0l0-0.2c0.2-2.9,1.5-5.5,3.7-7.4c2.6-2.3,6-3.4,10.5-3.5h33c0.5,0,0.9,0,1.3,0
				c4.2,0.2,7.3,1.1,9.2,2.7c2.1,1.7,3.1,4.5,3.1,8.4c0,0.5,0,1,0,1.6l-0.3,2.4L98.7,91.6z"/>
		</g>
		<g>
			<path class="st0" d="M101.6,69c-3.6-3-8.7-4.5-15.5-4.6H52.9c-6.4,0.1-11.7,2-15.7,5.5c-3.8,3.3-6,7.8-6.4,12.8l-0.1,0.9l-0.5,4
				l-0.5,4L28,106.5h76.7l2.1-14.8l0.6-4l0.2-1.5l0-0.3c0-0.8,0.1-1.5,0.1-2.2C107.7,77.3,105.6,72.4,101.6,69z M99.6,85.2l-0.3,2.4
				l-0.6,4l-1,6.8H37l0.8-6.8l0.5-4l0.5-4l0,0l0-0.2c0.2-2.9,1.5-5.5,3.7-7.4c2.6-2.3,6-3.4,10.5-3.5h33c0.5,0,0.9,0,1.3,0
				c4.2,0.2,7.3,1.1,9.2,2.7c2.1,1.7,3.1,4.5,3.1,8.4C99.7,84.1,99.6,84.7,99.6,85.2z"/>
		</g>
		<g>
			<polygon class="st0" points="54.6,83.9 54.1,87.6 53.7,91.2 53.7,91.6 52.9,98.5 52.5,102.5 52.1,105.5 48,105 48.3,102.5 
				48.7,98.5 49.5,91.6 50,87.6 50.4,83.9 			"/>
		</g>
		<g>
			<polygon class="st0" points="86.4,83.8 86,87.6 85.5,91.6 84.7,98.5 84.3,102.5 83.8,106.3 79.7,105.8 80.1,102.5 80.6,98.5 
				81.3,91.6 81.5,90.2 81.8,87.6 82.2,83.8 			"/>
		</g>
	</g>
</g>
</svg>
