<svg xmlns="http://www.w3.org/2000/svg" viewBox="0 0 79.21 77.65"><defs><style>.cls-1,.cls-3{fill:none;stroke:#63c932;stroke-width:8px;}.cls-1{stroke-miterlimit:3;}.cls-2{fill:#63c932;}.cls-3{stroke-miterlimit:10;}</style></defs><title>113_4</title><g id="Layer_2" data-name="Layer 2"><g id="Layer_1-2" data-name="Layer 1"><path id="icone_cifra_baixo_0_Layer0_0_1_STROKES" data-name="icone cifra baixo 0 Layer0 0 1 STROKES" class="cls-1" d="M12.3,4H74.6L64.75,73.65H14.45A10.13,10.13,0,0,1,4.13,61.78Z"/><g id="icone_cifra_baixo_0_Layer0_1_FILL" data-name="icone cifra baixo 0 Layer0 1 FILL"><path class="cls-2" d="M30.46,13.3l-.68,2.54a13.83,13.83,0,0,0-4.13.54,4.72,4.72,0,0,0-2.5,1.76A7.71,7.71,0,0,0,22,21.56a5.48,5.48,0,0,0,.45,3.58,5.8,5.8,0,0,0,2.95,2.35l3.71,1.59a2.7,2.7,0,0,1,1.16.64,1.1,1.1,0,0,1,.21,1.05,1.11,1.11,0,0,1-.61,1,5.31,5.31,0,0,1-1.93.24c-.56,0-1.42,0-2.56-.05L21,31.84l-.87,3.89c.79.19,1.55.34,2.27.45s1.38.22,2,.29l-.75,3h4l.71-2.92a12.09,12.09,0,0,0,4.08-.68A4.81,4.81,0,0,0,34.79,34a8.25,8.25,0,0,0,1.1-3.37A5.58,5.58,0,0,0,35.45,27a5.78,5.78,0,0,0-3-2.4L29,23.24a3.91,3.91,0,0,1-1.4-.73,1.11,1.11,0,0,1-.26-1.05,1.17,1.17,0,0,1,.62-1,5,5,0,0,1,1.83-.22l2.35,0c.82,0,1.58,0,2.3,0s1.38,0,1.94,0l.86-3.56a12.55,12.55,0,0,0-1.73-.45c-.61-.13-1.21-.23-1.81-.31l.69-2.68Z"/></g><g id="seta_0_Layer0_0_FILL" data-name="seta 0 Layer0 0 FILL"><path class="cls-2" d="M46.91,24.4l-7,6.1H64.56L54,18.3l-7,6.1"/></g><polyline class="cls-3" points="18.15 71.44 22.06 50.03 47.37 57.31 52.22 29.19"/></g></g></svg>