<svg xmlns="http://www.w3.org/2000/svg" viewBox="0 0 82.64 82.1"><defs><style>.cls-1{fill:#fff;}.cls-2,.cls-4{fill:none;stroke:#63c932;}.cls-2{stroke-miterlimit:3;stroke-width:8px;}.cls-3{fill:#63c932;}.cls-4{stroke-miterlimit:10;stroke-width:4px;}</style></defs><title>113_3</title><g id="Layer_2" data-name="Layer 2"><g id="Layer_1-2" data-name="Layer 1"><g id="Question_0_Layer0_0_FILL" data-name="Question 0 Layer0 0 FILL"><path class="cls-1" d="M65.17,47.52a29.44,29.44,0,0,0-9-21.63,29.43,29.43,0,0,0-21.62-8.95,29.48,29.48,0,0,0-21.63,9A29.5,29.5,0,0,0,4,47.52,29.46,29.46,0,0,0,13,69.14a29.49,29.49,0,0,0,21.63,9,29.44,29.44,0,0,0,21.62-9A29.4,29.4,0,0,0,65.17,47.52Z"/></g><path id="Question_0_Layer0_0_1_STROKES" data-name="Question 0 Layer0 0 1 STROKES" class="cls-2" d="M65.16,47.52a29.41,29.41,0,0,1-9,21.62,29.42,29.42,0,0,1-21.61,9,29.51,29.51,0,0,1-21.64-9A29.46,29.46,0,0,1,4,47.52a29.5,29.5,0,0,1,8.94-21.63,29.5,29.5,0,0,1,21.64-8.95,29.41,29.41,0,0,1,21.61,9A29.45,29.45,0,0,1,65.16,47.52Z"/><g id="Question_0_Layer0_0_FILL-2" data-name="Question 0 Layer0 0 FILL"><path class="cls-1" d="M52.2,47.52A17.6,17.6,0,0,0,34.59,29.91,17.58,17.58,0,0,0,17,47.52,17,17,0,0,0,22.13,60a17,17,0,0,0,12.46,5.16A16.93,16.93,0,0,0,47,60,16.93,16.93,0,0,0,52.2,47.52Z"/></g><path id="Question_0_Layer0_0_1_STROKES-2" data-name="Question 0 Layer0 0 1 STROKES" class="cls-2" d="M52.19,47.52A16.93,16.93,0,0,1,47,60a16.93,16.93,0,0,1-12.45,5.16A17,17,0,0,1,22.12,60,17,17,0,0,1,17,47.52a17,17,0,0,1,5.15-12.46,17,17,0,0,1,12.46-5.15A17,17,0,0,1,47,35.06,17,17,0,0,1,52.19,47.52Z"/><g id="Question_0_Layer0_0_FILL-3" data-name="Question 0 Layer0 0 FILL"><path class="cls-3" d="M40.8,47.52a6.22,6.22,0,0,0-10.61-4.39A6.21,6.21,0,0,0,39,51.91,6,6,0,0,0,40.8,47.52Z"/></g><path id="Question_0_Layer0_0_1_STROKES-3" data-name="Question 0 Layer0 0 1 STROKES" class="cls-3" d="M40.79,47.52a6.21,6.21,0,0,1-6.21,6.21,6.21,6.21,0,1,1,6.21-6.21Z"/><line class="cls-4" x1="36.4" y1="45.81" x2="63.47" y2="18.74"/><polygon class="cls-4" points="68.77 20.29 61.92 20.72 62.35 13.87 71.07 5.15 70.64 12 77.49 11.58 68.77 20.29"/></g></g></svg>