<svg xmlns="http://www.w3.org/2000/svg" viewBox="0 0 104.04 103.8"><defs><style>.cls-1{fill:#63c932;}.cls-2{fill:#fff;}.cls-3{fill:none;stroke:#63c932;stroke-miterlimit:3;stroke-width:8px;}</style></defs><title>127_2</title><g id="Layer_2" data-name="Layer 2"><g id="Layer_1-2" data-name="Layer 1"><rect class="cls-1" x="4.17" y="48.99" width="13.67" height="5.93"/><polygon class="cls-1" points="0 51.95 11.01 59.63 11.01 44.27 0 51.95 0 51.95"/><rect class="cls-1" x="45.19" y="8.04" width="13.67" height="5.93" transform="translate(63.02 -41.02) rotate(90)"/><polygon class="cls-1" points="52.02 0 44.34 11.01 59.7 11.01 52.02 0 52.02 0"/><rect class="cls-1" x="45.19" y="89.83" width="13.67" height="5.93" transform="translate(-40.78 144.82) rotate(-90)"/><polygon class="cls-1" points="52.02 103.8 59.7 92.8 44.34 92.8 52.02 103.8 52.02 103.8"/><rect class="cls-1" x="86.2" y="48.99" width="13.67" height="5.93" transform="translate(186.07 103.9) rotate(180)"/><polygon class="cls-1" points="104.04 51.95 93.03 59.63 93.03 44.27 104.04 51.95 104.04 51.95"/><rect class="cls-1" x="16.18" y="19.98" width="13.67" height="5.93" transform="translate(22.97 -9.55) rotate(45)"/><polygon class="cls-1" points="15.24 15.17 17.59 28.38 28.45 17.51 15.24 15.17 15.24 15.17"/><rect class="cls-1" x="74.19" y="77.99" width="13.67" height="5.93" transform="translate(81.07 195.48) rotate(-135)"/><polygon class="cls-1" points="88.8 88.73 75.59 86.39 86.46 75.52 88.8 88.73 88.8 88.73"/><rect class="cls-1" x="16.18" y="77.99" width="13.67" height="5.93" transform="translate(-50.5 39.99) rotate(-45)"/><polygon class="cls-1" points="15.24 88.73 28.45 86.39 17.59 75.52 15.24 88.73 15.24 88.73"/><rect class="cls-1" x="74.19" y="19.98" width="13.67" height="5.93" transform="translate(154.54 -18.12) rotate(135)"/><polygon class="cls-1" points="88.8 15.17 86.46 28.38 75.59 17.51 88.8 15.17 88.8 15.17"/><path class="cls-2" d="M85.25,52.56a30.4,30.4,0,0,0-9.74-22.69A32.59,32.59,0,0,0,52,20.49a32.65,32.65,0,0,0-23.5,9.38,30.42,30.42,0,0,0-9.72,22.69,30.35,30.35,0,0,0,9.72,22.67A32.63,32.63,0,0,0,52,84.63a32.56,32.56,0,0,0,23.48-9.4A30.33,30.33,0,0,0,85.25,52.56Z"/><path class="cls-3" d="M85.23,52.56a30.31,30.31,0,0,1-9.74,22.66A32.51,32.51,0,0,1,52,84.62a32.59,32.59,0,0,1-23.5-9.4,30.32,30.32,0,0,1-9.72-22.66,30.41,30.41,0,0,1,9.72-22.69A32.61,32.61,0,0,1,52,20.49a32.53,32.53,0,0,1,23.48,9.38A30.39,30.39,0,0,1,85.23,52.56Z"/></g></g></svg>