<svg xmlns="http://www.w3.org/2000/svg" viewBox="0 0 87.85 104.36"><defs><style>.cls-1,.cls-3,.cls-5{fill:none;stroke:#63c932;}.cls-1,.cls-5{stroke-miterlimit:10;}.cls-1,.cls-3{stroke-width:8px;}.cls-2{fill:#fff;}.cls-3{stroke-miterlimit:3;}.cls-4{fill:#63c932;}.cls-5{stroke-width:4px;}</style></defs><title>127_3</title><g id="Layer_2" data-name="Layer 2"><g id="Layer_1-2" data-name="Layer 1"><line class="cls-1" x1="49.79" y1="54.93" x2="49.79" y2="104.36"/><path class="cls-1" d="M4,69H50a0,0,0,0,1,0,0V90.69a0,0,0,0,1,0,0H17.49A13.49,13.49,0,0,1,4,77.2V69A0,0,0,0,1,4,69Z"/><path class="cls-2" d="M76.16,29.45a24.1,24.1,0,0,0-7.72-18A25.84,25.84,0,0,0,49.8,4a25.88,25.88,0,0,0-18.65,7.45,24.13,24.13,0,0,0-7.71,18,24.09,24.09,0,0,0,7.71,18A25.89,25.89,0,0,0,49.8,54.9a25.85,25.85,0,0,0,18.64-7.46A24.06,24.06,0,0,0,76.16,29.45Z"/><path class="cls-3" d="M76.15,29.45a24.07,24.07,0,0,1-7.73,18A25.83,25.83,0,0,1,49.79,54.9a25.88,25.88,0,0,1-18.65-7.46,24.09,24.09,0,0,1-7.71-18,24.15,24.15,0,0,1,7.71-18A25.9,25.9,0,0,1,49.79,4a25.85,25.85,0,0,1,18.63,7.44A24.13,24.13,0,0,1,76.15,29.45Z"/><path class="cls-4" d="M53,27.72c3.59,1.28,4.75,3.36,4.75,6.7,0,4.91-2,6.43-7.49,6.53l-.33,3.57H46.22l.33-3.67a38.58,38.58,0,0,1-4.95-.72l.33-3.7c4.13.1,6,.13,7.43.13,2.61,0,3.33-.36,3.33-2.11s-.63-2-2.18-2.51L46,30.32c-3.39-1.25-4.65-3.3-4.65-6.66,0-5.05,2.21-6.24,7.69-6.31l.3-3H53l-.33,3.1a24.88,24.88,0,0,1,4.26.76l-.3,3.44c-1.91-.07-4.65-.1-7.06-.1s-3.27.13-3.27,2.08c0,1.58.66,2,2.41,2.57Z"/><path class="cls-1" d="M63.52,69H83.85a0,0,0,0,1,0,0V90.69a0,0,0,0,1,0,0H50a0,0,0,0,1,0,0V82.44A13.49,13.49,0,0,1,63.52,69Z" transform="translate(133.88 159.64) rotate(180)"/><line class="cls-5" x1="13.92" y1="79.77" x2="41.98" y2="79.77"/><line class="cls-5" x1="57.45" y1="79.64" x2="71.74" y2="79.64"/></g></g></svg>