<svg xmlns="http://www.w3.org/2000/svg" viewBox="0 0 75.64 69.8"><defs><style>.cls-1,.cls-2,.cls-4,.cls-6{fill:none;stroke:#63c932;}.cls-1,.cls-2{stroke-miterlimit:10;}.cls-1,.cls-6{stroke-width:8px;}.cls-2,.cls-4{stroke-width:4px;}.cls-3{fill:#fff;}.cls-4,.cls-6{stroke-miterlimit:3;}.cls-5{fill:#63c932;}</style></defs><title>127_4</title><g id="Layer_2" data-name="Layer 2"><g id="Layer_1-2" data-name="Layer 1"><path class="cls-1" d="M4,18.16H71.64a0,0,0,0,1,0,0V65.8a0,0,0,0,1,0,0H14.31A10.31,10.31,0,0,1,4,55.49V18.16A0,0,0,0,1,4,18.16Z"/><rect class="cls-2" x="26.7" y="4.89" width="22.24" height="11.48"/><path class="cls-3" d="M48.94,39.17a10.15,10.15,0,0,0-3.26-7.6,10.92,10.92,0,0,0-7.86-3.13A10.92,10.92,0,0,0,30,31.57a10.48,10.48,0,0,0,0,15.19,10.92,10.92,0,0,0,7.86,3.14,10.92,10.92,0,0,0,7.86-3.14A10.13,10.13,0,0,0,48.94,39.17Z"/><path class="cls-4" d="M48.93,39.17a10.18,10.18,0,0,1-3.25,7.59,10.92,10.92,0,0,1-7.86,3.14A10.93,10.93,0,0,1,30,46.76a10.5,10.5,0,0,1,0-15.19,10.93,10.93,0,0,1,7.87-3.14,10.92,10.92,0,0,1,7.86,3.14A10.18,10.18,0,0,1,48.93,39.17Z"/><path class="cls-5" d="M39.22,38.33a3,3,0,0,1,2.3,3.24c0,2.38-1,3.12-3.63,3.17l-.16,1.72H36l.16-1.77a18.77,18.77,0,0,1-2.4-.35l.16-1.79c2,.05,2.91.06,3.6.06,1.26,0,1.61-.17,1.61-1s-.3-1-1.05-1.22l-2.18-.78a3,3,0,0,1-2.25-3.23c0-2.44,1.07-3,3.72-3l.15-1.44h1.77l-.16,1.5a12,12,0,0,1,2.06.37L41,35.4c-.93,0-2.25,0-3.42,0s-1.58.06-1.58,1c0,.77.32,1,1.16,1.25Z"/><line class="cls-4" x1="4" y1="18.16" x2="29.93" y2="34.17"/><line class="cls-4" x1="71.93" y1="18.16" x2="46" y2="34.17"/><line class="cls-6" x1="24.69" y1="4" x2="50.95" y2="4"/></g></g></svg>