<svg xmlns="http://www.w3.org/2000/svg" viewBox="0 0 84.06 90.98"><defs><style>.cls-1,.cls-2{fill:none;stroke:#63c932;stroke-linecap:square;stroke-miterlimit:3;}.cls-1{stroke-width:8px;}.cls-2{stroke-width:4px;}.cls-3{fill:#63c932;}</style></defs><title>127_1</title><g id="Layer_2" data-name="Layer 2"><g id="Layer_1-2" data-name="Layer 1"><path id="graficosB_0_Layer1_1_1_STROKES" data-name="graficosB 0 Layer1 1 1 STROKES" class="cls-1" d="M80.06,87H4V4"/><path id="graficosB_0_Layer1_0_1_STROKES" data-name="graficosB 0 Layer1 0 1 STROKES" class="cls-2" d="M4,19.63,32.44,51.11l19-10L75.08,66.64"/><path class="cls-3" d="M80.09,66.64a5,5,0,0,1-5,5,5,5,0,1,1,3.54-8.54A4.78,4.78,0,0,1,80.09,66.64Z"/><path class="cls-3" d="M56.43,42.88A5,5,0,1,1,55,39.34,4.82,4.82,0,0,1,56.43,42.88Z"/><path class="cls-3" d="M37.68,50.49A5,5,0,0,1,29.14,54a5,5,0,0,1,3.54-8.54,5,5,0,0,1,5,5Z"/><rect class="cls-3" x="64.97" y="35.06" width="17.22" height="7.47" transform="translate(34.79 112.37) rotate(-90)"/><polygon class="cls-3" points="73.58 52.66 83.26 38.79 63.9 38.79 73.58 52.66 73.58 52.66"/><rect class="cls-3" x="24.07" y="19.37" width="17.22" height="7.47" transform="translate(9.58 55.78) rotate(-90)"/><polygon class="cls-3" points="32.68 36.96 42.36 23.1 23 23.1 32.68 36.96 32.68 36.96"/></g></g></svg>