<svg xmlns="http://www.w3.org/2000/svg" viewBox="0 0 82.48 86.72"><defs><style>.cls-1,.cls-2{fill:none;stroke:#63c932;stroke-miterlimit:3;}.cls-1{stroke-width:8px;}.cls-2{stroke-width:4px;}.cls-3{fill:#63c932;}</style></defs><title>127_9</title><g id="Layer_2" data-name="Layer 2"><g id="Layer_1-2" data-name="Layer 1"><path id="icone_boleto_0_Layer0_0_1_STROKES" data-name="icone boleto 0 Layer0 0 1 STROKES" class="cls-1" d="M13.59,4H77.87L66.73,82.72H14.45A10.11,10.11,0,0,1,4.13,70.86Z"/><line class="cls-2" x1="14.67" y1="4.19" x2="28.32" y2="20.59"/><line class="cls-2" x1="74.12" y1="4.19" x2="60.47" y2="20.59"/><line class="cls-2" x1="26.72" y1="19.84" x2="62.08" y2="19.84"/><path class="cls-3" d="M34.55,68.94a10.6,10.6,0,0,1-3.3.4c-3.19,0-4.26-1.56-3.72-5.44s1.79-5.27,5-5.27A10.67,10.67,0,0,1,35.6,59l-.3,1.7c-1-.06-1.62-.08-2.88-.08-1.5,0-2.11.53-2.5,3.47-.36,2.56-.09,3.28,1.41,3.28a23,23,0,0,0,3.13-.13Z"/><path class="cls-3" d="M41.48,68.58a.84.84,0,0,1-.82.58H38.59a.75.75,0,0,1-.74-.66l-1.47-9.69h2.31l.81,7.44c0,.41.08.83.09,1.22H40a10.39,10.39,0,0,1,.4-1.23l2.91-7.43H45.7Z"/><path class="cls-3" d="M57.26,58.81a.73.73,0,0,1,.8.89l-.93,9.46H55l.9-8.56h-.26l-2.44,6.45a.91.91,0,0,1-1,.69h-1.5a.78.78,0,0,1-.85-.77L49.1,60.6h-.25l-1.49,8.56H45.2l1.73-9.54c.09-.55.34-.81.9-.81H50a.75.75,0,0,1,.81.78l.59,5.16a12,12,0,0,1,.07,1.47h.21c.17-.54.32-1,.48-1.42l1.95-5.28a.94.94,0,0,1,1-.71Z"/></g></g></svg>