<svg xmlns="http://www.w3.org/2000/svg" viewBox="0 0 82.48 86.72"><defs><style>.cls-1{fill:none;stroke:#63c932;stroke-miterlimit:3;stroke-width:8px;}.cls-2{fill:#63c932;}</style></defs><title>127_8</title><g id="Layer_2" data-name="Layer 2"><g id="Layer_1-2" data-name="Layer 1"><path id="icone_boleto_0_Layer0_0_1_STROKES" data-name="icone boleto 0 Layer0 0 1 STROKES" class="cls-1" d="M13.59,4H77.87L66.73,82.72H14.45A10.11,10.11,0,0,1,4.13,70.86Z"/><g id="linhas2_0_Layer0_0_FILL" data-name="linhas2 0 Layer0 0 FILL"><path class="cls-2" d="M65,21.55l.56-4H22.85l-.56,4Z"/></g><g id="linhas2_0_Layer0_1_FILL" data-name="linhas2 0 Layer0 1 FILL"><path class="cls-2" d="M63.55,31l.56-4H21.42l-.56,4Z"/></g><g id="linhas2_0_Layer0_2_FILL" data-name="linhas2 0 Layer0 2 FILL"><path class="cls-2" d="M62,40.54l.56-4H19.87l-.56,4Z"/></g><polygon class="cls-2" points="18.98 65.05 15.12 65.05 16.76 53.71 20.61 53.71 18.98 65.05"/><polygon class="cls-2" points="29.3 65.05 21.59 65.05 23.22 53.71 30.93 53.71 29.3 65.05"/><polygon class="cls-2" points="35.76 65.05 31.91 65.05 33.54 53.71 37.4 53.71 35.76 65.05"/><polygon class="cls-2" points="42.23 65.05 38.37 65.05 40.01 53.71 43.86 53.71 42.23 65.05"/><polygon class="cls-2" points="48.69 65.05 44.84 65.05 46.47 53.71 50.33 53.71 48.69 65.05"/><polygon class="cls-2" points="59.01 65.05 51.3 65.05 52.93 53.71 60.65 53.71 59.01 65.05"/></g></g></svg>