<svg xmlns="http://www.w3.org/2000/svg" viewBox="0 0 131.92 137.58"><defs><style>.cls-1,.cls-3{fill:#fff;stroke:#63c932;stroke-miterlimit:3;}.cls-1{stroke-width:7.27px;}.cls-2{fill:#63c932;}.cls-3{stroke-width:4px;}</style></defs><title>132_1</title><g id="Layer_2" data-name="Layer 2"><g id="Layer_1-2" data-name="Layer 1"><g id="Duplicate_Items_Folder_pessoa2_0_Layer0_0_FILL" data-name="Duplicate Items Folder pessoa2 0 Layer0 0 FILL"><path class="cls-1" d="M46.81,49.05a21.06,21.06,0,0,0-15.45,6.41,21.84,21.84,0,0,0,0,30.91,21.05,21.05,0,0,0,15.45,6.4A21.85,21.85,0,0,0,68.67,70.91a21.05,21.05,0,0,0-6.4-15.45A21.07,21.07,0,0,0,46.81,49.05Z"/></g><path id="Duplicate_Items_Folder_pessoa2_0_Layer0_0_1_STROKES" data-name="Duplicate Items Folder pessoa2 0 Layer0 0 1 STROKES" class="cls-1" d="M68.67,70.91a21.06,21.06,0,0,1-6.41,15.45,21.06,21.06,0,0,1-15.45,6.41,21.07,21.07,0,0,1-15.46-6.41,21.86,21.86,0,0,1,0-30.91A21.07,21.07,0,0,1,46.81,49a21.06,21.06,0,0,1,15.45,6.41A21.07,21.07,0,0,1,68.67,70.91Z"/><g id="Duplicate_Items_Folder_pessoa2_0_Layer0_1_FILL" data-name="Duplicate Items Folder pessoa2 0 Layer0 1 FILL"><path class="cls-1" d="M73.84,133.93l2.44-17.11q.63-9.39-4.59-13.67-4.38-3.59-13.22-3.74H24.89q-8.3.15-13.32,4.63A15.11,15.11,0,0,0,6.45,114.3L4.1,133.93Z"/></g><path id="Duplicate_Items_Folder_pessoa2_0_Layer0_1_1_STROKES" data-name="Duplicate Items Folder pessoa2 0 Layer0 1 1 STROKES" class="cls-1" d="M73.83,133.94H4.1l2.34-19.63a15.11,15.11,0,0,1,5.12-10.26q5-4.48,13.32-4.63H58.47q8.84.17,13.22,3.73,5.22,4.29,4.58,13.68Z"/><g id="Duplicate_Items_Folder_pessoa2_0_Layer0_2_FILL" data-name="Duplicate Items Folder pessoa2 0 Layer0 2 FILL"><path class="cls-2" d="M26.45,115H22.23l-2.11,18.37h4.23Z"/></g><g id="Duplicate_Items_Folder_pessoa2_0_Layer0_3_FILL" data-name="Duplicate Items Folder pessoa2 0 Layer0 3 FILL"><path class="cls-2" d="M58.82,115H54.57l-2.27,19.7h4.24Z"/></g><path id="maleta_Trabalho_0_Layer0_0_1_STROKES" data-name="maleta Trabalho 0 Layer0 0 1 STROKES" class="cls-3" d="M123,56H70a5.42,5.42,0,0,1-4.18-1.73,4.75,4.75,0,0,1-1.15-4.2L70.68,10.8h58.59Z"/><path id="maleta_Trabalho_0_Layer0_1_1_STROKES" data-name="maleta Trabalho 0 Layer0 1 1 STROKES" class="cls-3" d="M71.7,10.91h56.24L116.33,26.47H78.84Z"/><path id="maleta_Trabalho_0_Layer0_2_1_STROKES" data-name="maleta Trabalho 0 Layer0 2 1 STROKES" class="cls-3" d="M88.84,9.52,90,2h22.79l-1.13,7.52"/><g id="maleta_Trabalho_0_Layer0_3_FILL" data-name="maleta Trabalho 0 Layer0 3 FILL"><path class="cls-3" d="M95.15,22.87,93.8,33h5l1.36-10.11Z"/></g><path id="maleta_Trabalho_0_Layer0_3_1_STROKES" data-name="maleta Trabalho 0 Layer0 3 1 STROKES" class="cls-3" d="M95.15,22.87h5L98.82,33h-5Z"/></g></g></svg>