<svg xmlns="http://www.w3.org/2000/svg" viewBox="0 0 115.99 131.9"><defs><style>.cls-1,.cls-2{fill:#fff;stroke:#63c932;stroke-miterlimit:3;}.cls-1{stroke-width:4px;}.cls-2{stroke-width:7.27px;}.cls-3{fill:#63c932;}</style></defs><title>132_2</title><g id="Layer_2" data-name="Layer 2"><g id="Layer_1-2" data-name="Layer 1"><g id="gear_0_Layer0_0_FILL" data-name="gear 0 Layer0 0 FILL"><path class="cls-1" d="M100.23,9.9l-2.39,2.4a19.2,19.2,0,0,0-6.33-2.59V2h-4a4.14,4.14,0,0,0-3,1.26,4.13,4.13,0,0,0-1.26,3V9.74a19.32,19.32,0,0,0-6.3,2.6L71.46,6.87,68.65,9.68a4.17,4.17,0,0,0-1.25,3,4.17,4.17,0,0,0,1.25,3l2.4,2.39a19.42,19.42,0,0,0-2.69,6.34H60.74v4A4.28,4.28,0,0,0,65,32.76h3.23a19.19,19.19,0,0,0,2.62,6.49l-5.27,5.27,2.81,2.82a4.29,4.29,0,0,0,6.07,0l2.18-2.18a19.47,19.47,0,0,0,6.55,2.77v7.32h4A4.3,4.3,0,0,0,91.51,51V48A19.12,19.12,0,0,0,98.1,45.2l5.17,5.18,2.82-2.82a4.32,4.32,0,0,0,0-6.08l-2.18-2.16a19.06,19.06,0,0,0,2.66-6.56H114v-4a4.13,4.13,0,0,0-1.25-3,4.2,4.2,0,0,0-3-1.25h-3.22a19.39,19.39,0,0,0-2.73-6.4l5.37-5.37L106.3,9.9a4.31,4.31,0,0,0-6.07,0Z"/></g><path id="gear_0_Layer0_0_1_STROKES" data-name="gear 0 Layer0 0 1 STROKES" class="cls-1" d="M114,32.76v-4a4.13,4.13,0,0,0-1.25-3,4.2,4.2,0,0,0-3-1.25h-3.22a19.39,19.39,0,0,0-2.73-6.4l5.37-5.37L106.3,9.9a4.31,4.31,0,0,0-6.07,0l-2.39,2.4a19.2,19.2,0,0,0-6.33-2.59V2h-4a4.14,4.14,0,0,0-3,1.26,4.13,4.13,0,0,0-1.26,3V9.74a19.32,19.32,0,0,0-6.3,2.6L71.46,6.87,68.65,9.68a4.17,4.17,0,0,0-1.25,3,4.17,4.17,0,0,0,1.25,3l2.4,2.39a19.42,19.42,0,0,0-2.69,6.34H60.74v4A4.28,4.28,0,0,0,65,32.76h3.23a19.19,19.19,0,0,0,2.62,6.49l-5.27,5.27,2.81,2.82a4.29,4.29,0,0,0,6.07,0l2.18-2.18a19.47,19.47,0,0,0,6.55,2.77v7.32h4A4.3,4.3,0,0,0,91.51,51V48A19.12,19.12,0,0,0,98.1,45.2l5.17,5.18,2.82-2.82a4.32,4.32,0,0,0,0-6.08l-2.18-2.16a19.06,19.06,0,0,0,2.66-6.56Z"/><path id="gear_0_Layer0_1_1_STROKES" data-name="gear 0 Layer0 1 1 STROKES" class="cls-1" d="M99.26,28.8a11.63,11.63,0,0,1-7.14,10.76,11.57,11.57,0,0,1-9.09,0A11.68,11.68,0,0,1,83,18a11.69,11.69,0,0,1,9.09,0A11.66,11.66,0,0,1,99.26,28.8Z"/><g id="Duplicate_Items_Folder_pessoa2_0_Layer0_0_FILL" data-name="Duplicate Items Folder pessoa2 0 Layer0 0 FILL"><path class="cls-2" d="M46.81,43.37a21.06,21.06,0,0,0-15.45,6.41,21.84,21.84,0,0,0,0,30.91,21.05,21.05,0,0,0,15.45,6.4A21.85,21.85,0,0,0,68.67,65.23a21.05,21.05,0,0,0-6.4-15.45A21.07,21.07,0,0,0,46.81,43.37Z"/></g><path id="Duplicate_Items_Folder_pessoa2_0_Layer0_0_1_STROKES" data-name="Duplicate Items Folder pessoa2 0 Layer0 0 1 STROKES" class="cls-2" d="M68.67,65.23a21.06,21.06,0,0,1-6.41,15.45,21.06,21.06,0,0,1-15.45,6.41,21.07,21.07,0,0,1-15.46-6.41A21.05,21.05,0,0,1,25,65.23a21.06,21.06,0,0,1,6.4-15.46,21.06,21.06,0,0,1,15.46-6.4A21.87,21.87,0,0,1,68.67,65.23Z"/><g id="Duplicate_Items_Folder_pessoa2_0_Layer0_1_FILL" data-name="Duplicate Items Folder pessoa2 0 Layer0 1 FILL"><path class="cls-2" d="M73.84,128.26l2.44-17.11q.63-9.39-4.59-13.68-4.38-3.57-13.22-3.73H24.89q-8.3.14-13.32,4.62a15.11,15.11,0,0,0-5.12,10.26L4.1,128.26Z"/></g><path id="Duplicate_Items_Folder_pessoa2_0_Layer0_1_1_STROKES" data-name="Duplicate Items Folder pessoa2 0 Layer0 1 1 STROKES" class="cls-2" d="M73.83,128.26H4.1l2.34-19.63a15.11,15.11,0,0,1,5.12-10.26q5-4.49,13.32-4.63H58.47q8.84.17,13.22,3.73,5.22,4.29,4.58,13.68Z"/><g id="Duplicate_Items_Folder_pessoa2_0_Layer0_2_FILL" data-name="Duplicate Items Folder pessoa2 0 Layer0 2 FILL"><path class="cls-3" d="M26.45,109.36H22.23l-2.11,18.38h4.23Z"/></g><g id="Duplicate_Items_Folder_pessoa2_0_Layer0_3_FILL" data-name="Duplicate Items Folder pessoa2 0 Layer0 3 FILL"><path class="cls-3" d="M58.82,109.36H54.57l-2.27,19.7h4.24Z"/></g></g></g></svg>