<svg xmlns="http://www.w3.org/2000/svg" viewBox="0 0 116.54 138.52"><defs><style>.cls-1,.cls-2,.cls-5{fill:#fff;}.cls-1,.cls-3,.cls-5{stroke:#63c932;stroke-miterlimit:3;}.cls-1,.cls-3{stroke-width:4px;}.cls-3{fill:none;}.cls-4{fill:#63c932;}.cls-5{stroke-width:7.27px;}</style></defs><title>132_3</title><g id="Layer_2" data-name="Layer 2"><g id="Layer_1-2" data-name="Layer 1"><circle class="cls-1" cx="84.56" cy="32.22" r="5.86"/><line class="cls-2" x1="84.33" y1="26.75" x2="84.33"/><line class="cls-3" x1="84.33" y1="26.75" x2="84.33" y2="4.31"/><polygon class="cls-4" points="87.32 5.18 84.33 0 81.33 5.18 87.32 5.18"/><line class="cls-2" x1="89.8" y1="32.22" x2="116.54" y2="32.22"/><line class="cls-3" x1="89.8" y1="32.22" x2="112.24" y2="32.22"/><polygon class="cls-4" points="111.36 35.21 116.54 32.22 111.36 29.22 111.36 35.21"/><line class="cls-2" x1="87.84" y1="28.7" x2="106.75" y2="9.79"/><line class="cls-3" x1="87.84" y1="28.7" x2="103.71" y2="12.84"/><polygon class="cls-4" points="105.2 15.57 106.75 9.79 100.97 11.34 105.2 15.57"/><line class="cls-2" x1="87.48" y1="36.08" x2="106.39" y2="55"/><line class="cls-3" x1="87.48" y1="36.08" x2="103.35" y2="51.95"/><polygon class="cls-4" points="100.61 53.45 106.39 55 104.85 49.22 100.61 53.45"/><line class="cls-2" x1="84.33" y1="37.69" x2="84.33" y2="64.43"/><line class="cls-3" x1="84.33" y1="37.69" x2="84.33" y2="60.13"/><polygon class="cls-4" points="81.33 59.25 84.33 64.43 87.32 59.25 81.33 59.25"/><line class="cls-2" x1="79.33" y1="32.57" x2="52.58" y2="32.57"/><line class="cls-3" x1="79.33" y1="32.57" x2="56.89" y2="32.57"/><polygon class="cls-4" points="57.77 29.58 52.58 32.57 57.77 35.56 57.77 29.58"/><line class="cls-2" x1="81.29" y1="36.08" x2="62.38" y2="55"/><line class="cls-3" x1="81.29" y1="36.08" x2="65.42" y2="51.95"/><polygon class="cls-4" points="63.92 49.22 62.38 55 68.16 53.45 63.92 49.22"/><line class="cls-2" x1="80.43" y1="28.7" x2="61.52" y2="9.79"/><line class="cls-3" x1="80.43" y1="28.7" x2="64.56" y2="12.84"/><polygon class="cls-4" points="67.3 11.34 61.52 9.79 63.06 15.57 67.3 11.34"/><g id="Duplicate_Items_Folder_pessoa2_0_Layer0_0_FILL" data-name="Duplicate Items Folder pessoa2 0 Layer0 0 FILL"><path class="cls-5" d="M46.81,50A21.06,21.06,0,0,0,31.36,56.4a21.84,21.84,0,0,0,0,30.91,21.06,21.06,0,0,0,15.45,6.41,21.07,21.07,0,0,0,15.46-6.41,21.86,21.86,0,0,0,0-30.91A21.07,21.07,0,0,0,46.81,50Z"/></g><path id="Duplicate_Items_Folder_pessoa2_0_Layer0_0_1_STROKES" data-name="Duplicate Items Folder pessoa2 0 Layer0 0 1 STROKES" class="cls-5" d="M68.67,71.85A21.06,21.06,0,0,1,62.26,87.3a21.06,21.06,0,0,1-15.45,6.41A21.07,21.07,0,0,1,31.35,87.3a21.86,21.86,0,0,1,0-30.91A21.06,21.06,0,0,1,46.81,50,21.87,21.87,0,0,1,68.67,71.85Z"/><g id="Duplicate_Items_Folder_pessoa2_0_Layer0_1_FILL" data-name="Duplicate Items Folder pessoa2 0 Layer0 1 FILL"><path class="cls-5" d="M73.84,134.88l2.44-17.11q.63-9.39-4.59-13.68-4.38-3.57-13.22-3.73H24.89q-8.3.14-13.32,4.62a15.11,15.11,0,0,0-5.12,10.27L4.1,134.88Z"/></g><path id="Duplicate_Items_Folder_pessoa2_0_Layer0_1_1_STROKES" data-name="Duplicate Items Folder pessoa2 0 Layer0 1 1 STROKES" class="cls-5" d="M73.83,134.88H4.1l2.34-19.63A15.11,15.11,0,0,1,11.56,105q5-4.48,13.32-4.63H58.47q8.84.17,13.22,3.74,5.22,4.28,4.58,13.67Z"/><g id="Duplicate_Items_Folder_pessoa2_0_Layer0_2_FILL" data-name="Duplicate Items Folder pessoa2 0 Layer0 2 FILL"><path class="cls-4" d="M26.45,116H22.23l-2.11,18.38h4.23Z"/></g><g id="Duplicate_Items_Folder_pessoa2_0_Layer0_3_FILL" data-name="Duplicate Items Folder pessoa2 0 Layer0 3 FILL"><path class="cls-4" d="M58.82,116H54.57L52.3,135.69h4.24Z"/></g></g></g></svg>