<svg xmlns="http://www.w3.org/2000/svg" viewBox="0 0 121.75 142.69"><defs><style>.cls-1,.cls-3{fill:#fff;stroke:#63c932;stroke-miterlimit:3;}.cls-1{stroke-width:7.27px;}.cls-2{fill:#63c932;}.cls-3{stroke-width:4px;}</style></defs><title>132_5</title><g id="Layer_2" data-name="Layer 2"><g id="Layer_1-2" data-name="Layer 1"><g id="Duplicate_Items_Folder_pessoa2_0_Layer0_0_FILL" data-name="Duplicate Items Folder pessoa2 0 Layer0 0 FILL"><path class="cls-1" d="M46.81,54.16a21.06,21.06,0,0,0-15.45,6.41,21.84,21.84,0,0,0,0,30.91,21.06,21.06,0,0,0,15.45,6.41,21.07,21.07,0,0,0,15.46-6.41,21.86,21.86,0,0,0,0-30.91A21.07,21.07,0,0,0,46.81,54.16Z"/></g><path id="Duplicate_Items_Folder_pessoa2_0_Layer0_0_1_STROKES" data-name="Duplicate Items Folder pessoa2 0 Layer0 0 1 STROKES" class="cls-1" d="M68.67,76a21.06,21.06,0,0,1-6.41,15.45,21.06,21.06,0,0,1-15.45,6.41,21.07,21.07,0,0,1-15.46-6.41,21.86,21.86,0,0,1,0-30.91,21.06,21.06,0,0,1,15.46-6.4A21.87,21.87,0,0,1,68.67,76Z"/><g id="Duplicate_Items_Folder_pessoa2_0_Layer0_1_FILL" data-name="Duplicate Items Folder pessoa2 0 Layer0 1 FILL"><path class="cls-1" d="M73.84,139.05l2.44-17.11q.63-9.39-4.59-13.68-4.38-3.57-13.22-3.73H24.89q-8.3.14-13.32,4.62a15.11,15.11,0,0,0-5.12,10.27L4.1,139.05Z"/></g><path id="Duplicate_Items_Folder_pessoa2_0_Layer0_1_1_STROKES" data-name="Duplicate Items Folder pessoa2 0 Layer0 1 1 STROKES" class="cls-1" d="M73.83,139.05H4.1l2.34-19.63a15.11,15.11,0,0,1,5.12-10.26q5-4.48,13.32-4.63H58.47q8.84.16,13.22,3.74,5.22,4.28,4.58,13.67Z"/><g id="Duplicate_Items_Folder_pessoa2_0_Layer0_2_FILL" data-name="Duplicate Items Folder pessoa2 0 Layer0 2 FILL"><path class="cls-2" d="M26.45,120.15H22.23l-2.11,18.38h4.23Z"/></g><g id="Duplicate_Items_Folder_pessoa2_0_Layer0_3_FILL" data-name="Duplicate Items Folder pessoa2 0 Layer0 3 FILL"><path class="cls-2" d="M58.82,120.15H54.57L52.3,139.86h4.24Z"/></g><g id="Lupa"><g id="flash0_ai_Illustrator_Symbols_Lupa_0_Layer0_0_MEMBER_0_FILL" data-name="flash0 ai Illustrator Symbols Lupa 0 Layer0 0 MEMBER 0 FILL"><path class="cls-3" d="M114.74,7A17.07,17.07,0,1,0,90.6,31.15a17,17,0,0,0,24.14,0,17,17,0,0,0,0-24.15Z"/></g><path id="flash0_ai_Illustrator_Symbols_Lupa_0_Layer0_0_MEMBER_0_1_STROKES" data-name="flash0 ai Illustrator Symbols Lupa 0 Layer0 0 MEMBER 0 1 STROKES" class="cls-3" d="M119.74,19.08a17,17,0,0,1-1.34,6.66,17.16,17.16,0,0,1-9.09,9.08A17.06,17.06,0,0,1,85.59,19.08,17.09,17.09,0,0,1,96,3.35,17.06,17.06,0,0,1,114.74,7a17.18,17.18,0,0,1,3.66,5.42A17,17,0,0,1,119.74,19.08Z"/><g id="flash0_ai_Illustrator_Symbols_Lupa_0_Layer0_0_MEMBER_1_FILL" data-name="flash0 ai Illustrator Symbols Lupa 0 Layer0 0 MEMBER 1 FILL"><path class="cls-3" d="M88.07,27.93a4.2,4.2,0,0,0-1.2.83L64.7,50.93a4.09,4.09,0,0,0,0,5.79,4.11,4.11,0,0,0,2.89,1.2,4.06,4.06,0,0,0,2.9-1.2L92.66,34.55a4.28,4.28,0,0,0,.78-1.11A17,17,0,0,1,88.07,27.93Z"/></g><path id="flash0_ai_Illustrator_Symbols_Lupa_0_Layer0_0_MEMBER_1_1_STROKES" data-name="flash0 ai Illustrator Symbols Lupa 0 Layer0 0 MEMBER 1 1 STROKES" class="cls-3" d="M88.06,27.94a4.38,4.38,0,0,0-1.2.82L64.69,50.94a4.09,4.09,0,0,0,0,5.79,4.11,4.11,0,0,0,2.9,1.2,4.06,4.06,0,0,0,2.89-1.2L92.66,34.56a4,4,0,0,0,.77-1.11A17.33,17.33,0,0,1,88.06,27.94Z"/><path id="flash0_ai_Illustrator_Symbols_Lupa_0_Layer0_0_MEMBER_2_1_STROKES" data-name="flash0 ai Illustrator Symbols Lupa 0 Layer0 0 MEMBER 2 1 STROKES" class="cls-3" d="M93.84,19.08a8.83,8.83,0,0,1,8.82-8.81"/><path id="flash0_ai_Illustrator_Symbols_Lupa_0_Layer0_0_MEMBER_3_1_STROKES" data-name="flash0 ai Illustrator Symbols Lupa 0 Layer0 0 MEMBER 3 1 STROKES" class="cls-3" d="M82,32.5l7.16,7.17"/></g></g></g></svg>