<svg xmlns="http://www.w3.org/2000/svg" viewBox="0 0 122.3 144.09"><defs><style>.cls-1,.cls-3{fill:#fff;stroke:#63c932;stroke-miterlimit:3;}.cls-1{stroke-width:7.27px;}.cls-2{fill:#63c932;}.cls-3{stroke-width:4px;}</style></defs><title>132_4</title><g id="Layer_2" data-name="Layer 2"><g id="Layer_1-2" data-name="Layer 1"><g id="Duplicate_Items_Folder_pessoa2_0_Layer0_0_FILL" data-name="Duplicate Items Folder pessoa2 0 Layer0 0 FILL"><path class="cls-1" d="M46.81,55.56A21.06,21.06,0,0,0,31.36,62a21.84,21.84,0,0,0,0,30.91,21.05,21.05,0,0,0,15.45,6.4A21.85,21.85,0,0,0,68.67,77.42,21.05,21.05,0,0,0,62.27,62,21.07,21.07,0,0,0,46.81,55.56Z"/></g><path id="Duplicate_Items_Folder_pessoa2_0_Layer0_0_1_STROKES" data-name="Duplicate Items Folder pessoa2 0 Layer0 0 1 STROKES" class="cls-1" d="M68.67,77.42a21.06,21.06,0,0,1-6.41,15.45,21.06,21.06,0,0,1-15.45,6.41,21.07,21.07,0,0,1-15.46-6.41,21.86,21.86,0,0,1,0-30.91,21.06,21.06,0,0,1,15.46-6.4A21.87,21.87,0,0,1,68.67,77.42Z"/><g id="Duplicate_Items_Folder_pessoa2_0_Layer0_1_FILL" data-name="Duplicate Items Folder pessoa2 0 Layer0 1 FILL"><path class="cls-1" d="M73.84,140.45l2.44-17.11q.63-9.39-4.59-13.68-4.38-3.57-13.22-3.73H24.89q-8.3.13-13.32,4.62a15.11,15.11,0,0,0-5.12,10.26L4.1,140.45Z"/></g><path id="Duplicate_Items_Folder_pessoa2_0_Layer0_1_1_STROKES" data-name="Duplicate Items Folder pessoa2 0 Layer0 1 1 STROKES" class="cls-1" d="M73.83,140.45H4.1l2.34-19.63a15.11,15.11,0,0,1,5.12-10.26q5-4.49,13.32-4.63H58.47q8.84.16,13.22,3.73,5.22,4.29,4.58,13.68Z"/><g id="Duplicate_Items_Folder_pessoa2_0_Layer0_2_FILL" data-name="Duplicate Items Folder pessoa2 0 Layer0 2 FILL"><path class="cls-2" d="M26.45,121.55H22.23l-2.11,18.38h4.23Z"/></g><g id="Duplicate_Items_Folder_pessoa2_0_Layer0_3_FILL" data-name="Duplicate Items Folder pessoa2 0 Layer0 3 FILL"><path class="cls-2" d="M58.82,121.55H54.57l-2.27,19.7h4.24Z"/></g><path id="Layer0_1_MEMBER_1_1_STROKES" data-name="Layer0 1 MEMBER 1 1 STROKES" class="cls-3" d="M115.84,18.75q-4.65-.34-5.78-5.42a17.38,17.38,0,0,1,1.31-10.46A53.15,53.15,0,0,0,104,5a8.05,8.05,0,0,0-4.34,3.66c-.31.62-1.23,1.11-2.77,1.47a8.16,8.16,0,0,1-3.35.24C91.94,10,90.75,9.81,90,9.69a22.54,22.54,0,0,0-3.73-.34A33.44,33.44,0,0,0,75.84,11a28.11,28.11,0,0,0-8.5,4.41,21.28,21.28,0,0,0-5.74,6.5,16,16,0,0,0-2.1,7.88,15.49,15.49,0,0,0,1.42,6.48,19,19,0,0,0,3.93,5.6l-.17,14H75.44l1.26-7.25a34.06,34.06,0,0,0,9.55,1.32,37.25,37.25,0,0,0,4.27-.25l.11,6.18h9.91L102,46.66c.52-.28,1.44-.76,2.77-1.43A30.11,30.11,0,0,0,108,43.37a11.13,11.13,0,0,0,4.76-6.15,1.77,1.77,0,0,1,.9-1.12,2,2,0,0,1,1.47-.19c1.22.3,2.27-.3,3.15-1.83a15.79,15.79,0,0,0,1.65-5.63c.16-1.25.28-3.23.34-5.95l0-3.68A43.39,43.39,0,0,1,115.84,18.75Z"/><g id="Layer0_1_MEMBER_5_FILL" data-name="Layer0 1 MEMBER 5 FILL"><path class="cls-2" d="M90.39,22.75c-.41-.11-.83-.2-1.24-.29s-.87-.13-1.29-.16l.46-1.86H86.09l-.42,1.79a9.53,9.53,0,0,0-2.74.32,3.17,3.17,0,0,0-1.68,1.14A5.17,5.17,0,0,0,80.46,26a3.94,3.94,0,0,0,.28,2.5,3.59,3.59,0,0,0,2,1.52l2.59,1a2.72,2.72,0,0,1,.72.31.78.78,0,0,1,.36.44,1.77,1.77,0,0,1,0,.75,1.28,1.28,0,0,1-.57,1,3.57,3.57,0,0,1-1.64.23h-1l-1.43,0-2.08,0-.51,2.22c.56.11,1.08.2,1.57.27s1,.13,1.37.16l-.5,2.2h2.22l.5-2.14A8.82,8.82,0,0,0,87.08,36,3.09,3.09,0,0,0,88.7,34.8a5.74,5.74,0,0,0,.77-2.32A4,4,0,0,0,89.19,30a3.53,3.53,0,0,0-2-1.56l-2.43-.89a3.86,3.86,0,0,1-.8-.35.89.89,0,0,1-.41-.45,1.53,1.53,0,0,1,0-.76,1.72,1.72,0,0,1,.3-.84,1.12,1.12,0,0,1,.69-.33,6.29,6.29,0,0,1,1.17-.07h2.26l2,.06Z"/></g></g></g></svg>