<svg xmlns="http://www.w3.org/2000/svg" viewBox="0 0 73.66 73.64"><defs><style>.cls-1,.cls-2{fill:none;stroke:#6cbd45;stroke-miterlimit:3;}.cls-1{stroke-width:8px;}.cls-2{stroke-width:4px;}.cls-3{fill:#6cbd45;}</style></defs><title>142_2</title><g id="Layer_2" data-name="Layer 2"><g id="Layer_1-2" data-name="Layer 1"><path id="icone_relogio_0_Layer0_0_1_STROKES" data-name="icone relogio 0 Layer0 0 1 STROKES" class="cls-1" d="M69.66,36.83A31.61,31.61,0,0,1,60,60a31.67,31.67,0,0,1-23.21,9.62A31.68,31.68,0,0,1,13.6,60,31.63,31.63,0,0,1,4,36.83,31.7,31.7,0,0,1,13.6,13.6,31.7,31.7,0,0,1,36.83,4,31.69,31.69,0,0,1,60,13.6,31.68,31.68,0,0,1,69.66,36.83Z"/><path id="icone_relogio_0_Layer0_1_1_STROKES" data-name="icone relogio 0 Layer0 1 1 STROKES" class="cls-2" d="M56.94,36.46h6.28M36.47,9.73V16M17.56,17.56,22,22M9.74,36.46H16m1.54,18.89L22,50.93m14.48,6v6.28M50.94,50.94l4.44,4.43M50.94,22l4.44-4.44"/><g id="circ_0_Layer0_0_FILL" data-name="circ 0 Layer0 0 FILL"><path class="cls-3" d="M41,36.85A4.07,4.07,0,0,0,34,34a4.07,4.07,0,1,0,5.76,5.76A3.9,3.9,0,0,0,41,36.85Z"/></g><path id="icone_relogio_0_Layer0_4_1_STROKES" data-name="icone relogio 0 Layer0 4 1 STROKES" class="cls-2" d="M36.67,37V19.33"/><path id="icone_relogio_0_Layer0_5_1_STROKES" data-name="icone relogio 0 Layer0 5 1 STROKES" class="cls-2" d="M36.67,36.37,49,48.91"/></g></g></svg>