<svg xmlns="http://www.w3.org/2000/svg" viewBox="0 0 101.58 84.92"><defs><style>.cls-1{fill:none;stroke-miterlimit:10;stroke-width:8px;}.cls-1,.cls-3{stroke:#63c932;}.cls-2{fill:#63c932;}.cls-3{fill:#fff;stroke-miterlimit:3;stroke-width:7.27px;}</style></defs><title>143_2</title><g id="Layer_2" data-name="Layer 2"><g id="Layer_1-2" data-name="Layer 1"><path id="calendario_0_Layer0_0_1_STROKES" data-name="calendario 0 Layer0 0 1 STROKES" class="cls-1" d="M87.15,80.92H11.51a7.44,7.44,0,0,1-5.79-2.35,6.38,6.38,0,0,1-1.6-5.7l8.38-53.3H96.89Z"/><g id="calendario_0_Layer0_1_FILL" data-name="calendario 0 Layer0 1 FILL"><path class="cls-2" d="M32.58,28.72H21.88l-1.22,7.84a1,1,0,0,0,.19.8.89.89,0,0,0,.73.32h9.6Z"/></g><g id="calendario_0_Layer0_2_FILL" data-name="calendario 0 Layer0 2 FILL"><path class="cls-2" d="M49.22,28.72H38.52L37.3,36.56a1,1,0,0,0,.19.8,1,1,0,0,0,.75.32h9.58Z"/></g><g id="calendario_0_Layer0_3_FILL" data-name="calendario 0 Layer0 3 FILL"><path class="cls-2" d="M65.86,28.72H55.16l-1.22,7.84a1,1,0,0,0,.19.8,1,1,0,0,0,.75.32h9.58Z"/></g><g id="calendario_0_Layer0_4_FILL" data-name="calendario 0 Layer0 4 FILL"><path class="cls-2" d="M82.52,28.72H71.8l-1.22,7.84a1,1,0,0,0,.19.8,1,1,0,0,0,.75.32h9.6Z"/></g><g id="calendario_0_Layer0_5_FILL" data-name="calendario 0 Layer0 5 FILL"><path class="cls-2" d="M30,45.22H19.31l-1.22,7.84a1,1,0,0,0,.2.8.88.88,0,0,0,.73.32h9.6Z"/></g><g id="calendario_0_Layer0_6_FILL" data-name="calendario 0 Layer0 6 FILL"><path class="cls-2" d="M46.65,45.22H36l-1.22,7.84a1,1,0,0,0,.2.8.93.93,0,0,0,.75.32h9.58Z"/></g><g id="calendario_0_Layer0_7_FILL" data-name="calendario 0 Layer0 7 FILL"><path class="cls-2" d="M63.29,45.22H52.59l-1.22,7.84a1,1,0,0,0,.2.8.93.93,0,0,0,.75.32H61.9Z"/></g><g id="calendario_0_Layer0_8_FILL" data-name="calendario 0 Layer0 8 FILL"><path class="cls-2" d="M80,45.22H69.23L68,53.06a1,1,0,0,0,.2.8.93.93,0,0,0,.75.32h9.6Z"/></g><g id="calendario_0_Layer0_9_FILL" data-name="calendario 0 Layer0 9 FILL"><path class="cls-2" d="M26.06,70.68l1.39-9H16.75l-1.22,7.84a1,1,0,0,0,.2.8.88.88,0,0,0,.73.32Z"/></g><g id="calendario_0_Layer0_10_FILL" data-name="calendario 0 Layer0 10 FILL"><path class="cls-2" d="M42.7,70.68l1.39-9H33.39l-1.22,7.84a1,1,0,0,0,.2.8.93.93,0,0,0,.75.32Z"/></g><g id="calendario_0_Layer0_11_FILL" data-name="calendario 0 Layer0 11 FILL"><path class="cls-2" d="M59.34,70.68l1.39-9H50l-1.22,7.84a1,1,0,0,0,.2.8.93.93,0,0,0,.75.32Z"/></g><g id="calendario_0_Layer0_12_FILL" data-name="calendario 0 Layer0 12 FILL"><path class="cls-2" d="M76,70.68l1.39-9H66.67l-1.22,7.84a1,1,0,0,0,.2.8.93.93,0,0,0,.75.32Z"/></g><g id="calendario_0_Layer0_13_FILL" data-name="calendario 0 Layer0 13 FILL"><path class="cls-2" d="M21.25,8.29H13.66L11.79,20.35h7.58Z"/></g><g id="calendario_0_Layer0_14_FILL" data-name="calendario 0 Layer0 14 FILL"><path class="cls-2" d="M36.69,8.29H29.1L27.23,20.35h7.58Z"/></g><g id="calendario_0_Layer0_15_FILL" data-name="calendario 0 Layer0 15 FILL"><path class="cls-2" d="M52.13,8.29H44.54L42.67,20.35h7.58Z"/></g><g id="calendario_0_Layer0_16_FILL" data-name="calendario 0 Layer0 16 FILL"><path class="cls-2" d="M67.59,8.29H60L58.13,20.35h7.58Z"/></g><g id="calendario_0_Layer0_17_FILL" data-name="calendario 0 Layer0 17 FILL"><path class="cls-2" d="M82.17,8.29H74.58L72.71,20.35h7.58Z"/></g><g id="calendario_0_Layer0_18_FILL" data-name="calendario 0 Layer0 18 FILL"><path class="cls-2" d="M97.61,8.29H90L88.15,20.35h7.58Z"/></g><path id="icone_relogio_0_Layer0_6_1_STROKES" data-name="icone relogio 0 Layer0 6 1 STROKES" class="cls-3" d="M66.8,40a20.43,20.43,0,0,1-15,6.2,20.42,20.42,0,0,1-15-6.2,20.53,20.53,0,0,1-6.23-15.07,20.46,20.46,0,0,1,6.23-15,20.55,20.55,0,0,1,15-6.25,20.55,20.55,0,0,1,15,6.25,20.45,20.45,0,0,1,6.22,15A20.52,20.52,0,0,1,66.8,40Z"/><g id="calendario_0_Layer0_12_FILL-2" data-name="calendario 0 Layer0 12 FILL"><path class="cls-2" d="M58.48,31.44l2-13.06H44.89L43.12,29.8A1.45,1.45,0,0,0,43.4,31a1.41,1.41,0,0,0,1.09.47Z"/></g></g></g></svg>