<svg xmlns="http://www.w3.org/2000/svg" viewBox="0 0 107.84 79.1"><defs><style>.cls-1{fill:none;stroke-miterlimit:10;stroke-width:8px;}.cls-1,.cls-3{stroke:#63c932;}.cls-2{fill:#63c932;}.cls-3{fill:#fff;stroke-miterlimit:3;stroke-width:7.27px;}</style></defs><title>143_1</title><g id="Layer_2" data-name="Layer 2"><g id="Layer_1-2" data-name="Layer 1"><path id="calendario_0_Layer0_0_1_STROKES" data-name="calendario 0 Layer0 0 1 STROKES" class="cls-1" d="M93.41,75.1H17.78A7.48,7.48,0,0,1,12,72.75a6.4,6.4,0,0,1-1.6-5.69l8.38-53.31h84.39Z"/><g id="calendario_0_Layer0_1_FILL" data-name="calendario 0 Layer0 1 FILL"><path class="cls-2" d="M38.84,22.91H28.14l-1.22,7.84a1,1,0,0,0,.2.8.91.91,0,0,0,.73.32h9.6Z"/></g><g id="calendario_0_Layer0_2_FILL" data-name="calendario 0 Layer0 2 FILL"><path class="cls-2" d="M55.48,22.91H44.78l-1.22,7.84a1,1,0,0,0,.2.8,1,1,0,0,0,.75.32h9.58Z"/></g><g id="calendario_0_Layer0_3_FILL" data-name="calendario 0 Layer0 3 FILL"><path class="cls-2" d="M72.12,22.91H61.42L60.2,30.75a1,1,0,0,0,.2.8,1,1,0,0,0,.75.32h9.58Z"/></g><g id="calendario_0_Layer0_4_FILL" data-name="calendario 0 Layer0 4 FILL"><path class="cls-2" d="M88.78,22.91H78.06l-1.22,7.84a1,1,0,0,0,.2.8,1,1,0,0,0,.75.32h9.6Z"/></g><g id="calendario_0_Layer0_5_FILL" data-name="calendario 0 Layer0 5 FILL"><path class="cls-2" d="M36.28,39.41H25.58l-1.22,7.84a1,1,0,0,0,.19.8.93.93,0,0,0,.73.32h9.6Z"/></g><g id="calendario_0_Layer0_6_FILL" data-name="calendario 0 Layer0 6 FILL"><path class="cls-2" d="M52.92,39.41H42.22L41,47.25a1,1,0,0,0,.19.8,1,1,0,0,0,.75.32h9.58Z"/></g><g id="calendario_0_Layer0_7_FILL" data-name="calendario 0 Layer0 7 FILL"><path class="cls-2" d="M69.56,39.41H58.86l-1.22,7.84a1,1,0,0,0,.19.8,1,1,0,0,0,.75.32h9.58Z"/></g><g id="calendario_0_Layer0_8_FILL" data-name="calendario 0 Layer0 8 FILL"><path class="cls-2" d="M86.22,39.41H75.5l-1.22,7.84a1,1,0,0,0,.19.8,1,1,0,0,0,.75.32h9.6Z"/></g><g id="calendario_0_Layer0_9_FILL" data-name="calendario 0 Layer0 9 FILL"><path class="cls-2" d="M32.32,64.87l1.39-9H23l-1.22,7.84a1,1,0,0,0,.2.8.91.91,0,0,0,.73.32Z"/></g><g id="calendario_0_Layer0_10_FILL" data-name="calendario 0 Layer0 10 FILL"><path class="cls-2" d="M49,64.87l1.39-9H39.65l-1.22,7.84a1,1,0,0,0,.2.8,1,1,0,0,0,.75.32Z"/></g><g id="calendario_0_Layer0_11_FILL" data-name="calendario 0 Layer0 11 FILL"><path class="cls-2" d="M65.6,64.87l1.39-9H56.29l-1.22,7.84a1,1,0,0,0,.2.8,1,1,0,0,0,.75.32Z"/></g><g id="calendario_0_Layer0_12_FILL" data-name="calendario 0 Layer0 12 FILL"><path class="cls-2" d="M82.26,64.87l1.39-9H72.93l-1.22,7.84a1,1,0,0,0,.2.8,1,1,0,0,0,.75.32Z"/></g><g id="calendario_0_Layer0_13_FILL" data-name="calendario 0 Layer0 13 FILL"><path class="cls-2" d="M27.51,2.47H19.92L18.05,14.53h7.59Z"/></g><g id="calendario_0_Layer0_14_FILL" data-name="calendario 0 Layer0 14 FILL"><path class="cls-2" d="M43,2.47H35.36L33.49,14.53h7.59Z"/></g><g id="calendario_0_Layer0_15_FILL" data-name="calendario 0 Layer0 15 FILL"><path class="cls-2" d="M58.39,2.47H50.8L48.93,14.53h7.59Z"/></g><g id="calendario_0_Layer0_16_FILL" data-name="calendario 0 Layer0 16 FILL"><path class="cls-2" d="M73.85,2.47H66.26L64.39,14.53H72Z"/></g><g id="calendario_0_Layer0_17_FILL" data-name="calendario 0 Layer0 17 FILL"><path class="cls-2" d="M88.43,2.47H80.84L79,14.53h7.59Z"/></g><g id="calendario_0_Layer0_18_FILL" data-name="calendario 0 Layer0 18 FILL"><path class="cls-2" d="M103.87,2.47H96.28L94.41,14.53H102Z"/></g><path id="icone_relogio_0_Layer0_6_1_STROKES" data-name="icone relogio 0 Layer0 6 1 STROKES" class="cls-3" d="M40,40a20.42,20.42,0,0,1-15,6.2,20.45,20.45,0,0,1-15-6.2A20.52,20.52,0,0,1,3.64,24.91a20.45,20.45,0,0,1,6.22-15A20.57,20.57,0,0,1,24.91,3.64,20.55,20.55,0,0,1,40,9.89a20.46,20.46,0,0,1,6.23,15A20.53,20.53,0,0,1,40,40Z"/><g id="calendario_0_Layer0_12_FILL-2" data-name="calendario 0 Layer0 12 FILL"><path class="cls-2" d="M31.64,31.44l2-13.06H18L16.27,29.8a1.33,1.33,0,0,0,1.38,1.64Z"/></g></g></g></svg>