<svg xmlns="http://www.w3.org/2000/svg" xmlns:xlink="http://www.w3.org/1999/xlink" viewBox="0 0 365 220.77"><defs><style>.cls-1{fill:none;}.cls-2{clip-path:url(#clip-path);}.cls-3{fill:#c2c1c1;}.cls-4{fill:#d1d0cf;}.cls-5{fill:#fff;}.cls-6{fill:#0c7ac0;}.cls-7{fill:#fcbe50;}.cls-8{fill:#009a66;}.cls-9{fill:#005296;}</style><clipPath id="clip-path" transform="translate(0 0)"><rect class="cls-1" width="365" height="220.77"/></clipPath></defs><title>153_2</title><g id="Layer_2" data-name="Layer 2"><g id="Layer_1-2" data-name="Layer 1"><g class="cls-2"><path class="cls-3" d="M215.49,159.39c72.43-30.64,105-78.88,93.08-114.91-11-33.28-65.68-51.17-132.39-35.93a204.14,204.14,0,0,0-23.13,6.94C80.62,46.12,48.08,94.36,60,130.4c11,33.28,65.68,51.17,132.63,35.82a149.27,149.27,0,0,0,22.89-6.83Z" transform="translate(0 0)"/><path class="cls-4" d="M351.46,200.08h8.06c-.73,2.78-1.37,5.36-1.92,7.72s-1.07,4.76-1.56,7.21h3.1c1.28,0,3.23,0,5.86-.12l-1.32,5.46h-17q1-3.33,1.85-6.76t1.58-6.71c.48-2.19.94-4.45,1.38-6.8Zm-18.62,10.44h3.7l-.61-5-3.09,5Zm-.25-10.44H342q1.29,7.89,3.85,20.27h-8.21c-.08-.91-.29-2.47-.66-4.68h-7.19l-2.86,4.68H318.3c1.2-1.59,2.41-3.2,3.6-4.83s2.42-3.33,3.66-5.1,2.45-3.54,3.65-5.29,2.33-3.45,3.38-5Zm-18.72,0H322q-.75,2.91-1.35,5.45c-.4,1.68-.77,3.28-1.1,4.77s-.66,3.15-1,5-.67,3.51-.95,5.09H309.4q3.09-12.39,4.47-20.27Zm-3.54.18-.76,5.67a16,16,0,0,0-4.47-.75,7.58,7.58,0,0,0-3.57.82,7.22,7.22,0,0,0-2.54,2.1,6.43,6.43,0,0,0-1.19,2.66,3.36,3.36,0,0,0,.92,3.35,5,5,0,0,0,3.38,1.14,23.14,23.14,0,0,0,5.63-.82l-2.09,5.92a39.08,39.08,0,0,1-5.74.42,14.79,14.79,0,0,1-5.61-1,7.34,7.34,0,0,1-3.78-3.23,8.36,8.36,0,0,1-.66-5.68,12.48,12.48,0,0,1,2.94-6.23,14,14,0,0,1,5.41-3.75,17.86,17.86,0,0,1,6.48-1.21,36,36,0,0,1,5.65.6Zm-32.4-.6a14.91,14.91,0,0,1,5.34.88,8.39,8.39,0,0,1,3.4,2.31,7.25,7.25,0,0,1,1.57,3.25,9.84,9.84,0,0,1,0,3.75,12.75,12.75,0,0,1-2.29,5.34,13,13,0,0,1-5,4,17.05,17.05,0,0,1-7.52,1.54,15.73,15.73,0,0,1-5.12-.76,8.88,8.88,0,0,1-3.51-2.14,7.15,7.15,0,0,1-1.8-3.17,9.15,9.15,0,0,1-.11-3.88,13,13,0,0,1,1.69-4.57,12.69,12.69,0,0,1,3.2-3.54,14.38,14.38,0,0,1,4.51-2.27,18.91,18.91,0,0,1,5.58-.78Zm-7.06,10.92a4.4,4.4,0,0,0,.21,2.48,3.36,3.36,0,0,0,1.41,1.63,4.2,4.2,0,0,0,2.15.56,5,5,0,0,0,2.47-.67,6.28,6.28,0,0,0,2.09-1.9,6.81,6.81,0,0,0,1.18-2.77,4.49,4.49,0,0,0-.18-2.44,3.38,3.38,0,0,0-1.35-1.69,3.91,3.91,0,0,0-2.15-.6,5.21,5.21,0,0,0-1.92.38,6,6,0,0,0-1.76,1.1,6.5,6.5,0,0,0-1.37,1.72,7,7,0,0,0-.78,2.2ZM244.39,214a14,14,0,0,0,2.38.86,10.13,10.13,0,0,0,2.58.38c1.57,0,2.4-.29,2.5-.88.06-.44-.24-1-.89-1.58l-2.06-2a8.25,8.25,0,0,1-1.75-2.33,4.65,4.65,0,0,1-.38-3,6.15,6.15,0,0,1,3.18-4.41,12.46,12.46,0,0,1,6.19-1.47,21.49,21.49,0,0,1,2.59.14c.74.09,1.77.27,3.1.53l-.6,5.85a10.77,10.77,0,0,0-4.46-1c-1.35,0-2.07.31-2.18.94-.07.39.21.9.85,1.5s1.32,1.26,2.07,1.92a8.7,8.7,0,0,1,1.78,2.22,3.83,3.83,0,0,1,.43,2.67A6.32,6.32,0,0,1,257.9,218a8.65,8.65,0,0,1-3.52,2.1,14.17,14.17,0,0,1-4.34.66q-.72,0-1.53-.06c-.54,0-1.1-.09-1.69-.17s-1.1-.14-1.56-.22l-1.39-.22.52-6.09Zm-25.81-3.49h3.7l-.61-5-3.09,5Zm-.25-10.44h9.37q1.28,7.89,3.84,20.27h-8.21c-.07-.91-.29-2.47-.65-4.68h-7.2l-2.86,4.68H204c1.2-1.59,2.41-3.2,3.6-4.83s2.41-3.33,3.66-5.1,2.46-3.54,3.65-5.29,2.33-3.45,3.38-5Zm-18.72,0h8.1q-.75,2.91-1.35,5.45c-.4,1.68-.76,3.28-1.09,4.77s-.67,3.15-1,5-.67,3.51-.94,5.09h-8.16q3.09-12.39,4.47-20.27Zm-3.54.18-.75,5.67a16.14,16.14,0,0,0-4.48-.75,7.58,7.58,0,0,0-3.57.82,7.18,7.18,0,0,0-2.53,2.1,6.33,6.33,0,0,0-1.2,2.66,3.34,3.34,0,0,0,.93,3.35,4.94,4.94,0,0,0,3.38,1.14,23.06,23.06,0,0,0,5.62-.82l-2.09,5.92a39,39,0,0,1-5.73.42,14.75,14.75,0,0,1-5.61-1,7.27,7.27,0,0,1-3.78-3.23,8.35,8.35,0,0,1-.67-5.68,12.48,12.48,0,0,1,2.94-6.23,14,14,0,0,1,5.41-3.75,17.86,17.86,0,0,1,6.48-1.21,36,36,0,0,1,5.65.6Zm-43.2-.18h9.2c.39,1.18.78,2.41,1.19,3.72s.81,2.63,1.19,4,.74,2.56,1.05,3.7h.06q1.23-5.16,2.41-11.38h7.1q-3,11.43-4.77,20.27h-9l-1-2.76c-.43-1.22-.81-2.34-1.13-3.33s-.62-1.9-.86-2.7-.46-1.55-.66-2.29h0c-.36,1.63-.67,3-.91,4.15s-.5,2.32-.74,3.55-.46,2.36-.64,3.38h-7.16q3.21-12,4.66-20.27ZM141.1,198l-.62-1.11-.92,1.11h-4.27l1.94-3.33h7.46l.92,3.33Zm-9.81,2.07h17.78l-1.22,5.46q-1.87-.12-5.64-.12H138l-.51,2.12h3.1c1.11,0,2.79,0,5-.12l-1.25,5.46h-8.16l-.55,2.12c.78,0,1.37,0,1.77.06q3.19-.06,8.32-.3l-1.34,5.59H126.57q2.34-8,4.72-20.27Zm-28.55,20.27q1.33-4.75,2.37-9.55t2.14-10.72H119.4a8.61,8.61,0,0,1,3.48.64,5.6,5.6,0,0,1,2.35,1.84,6.73,6.73,0,0,1,1.16,3,12.83,12.83,0,0,1-.12,4,15.92,15.92,0,0,1-1.33,4.16,12.31,12.31,0,0,1-2.44,3.46,10.69,10.69,0,0,1-3.57,2.36,11.91,11.91,0,0,1-4.61.86Zm8.71-5.4a10,10,0,0,0,1.22.06,5.05,5.05,0,0,0,3.93-1.45,7.64,7.64,0,0,0,1.77-4c.49-2.78-.61-4.16-3.3-4.16a7.21,7.21,0,0,0-1.5.12L111.45,215ZM95.27,200.08h8.1c-.51,1.94-1,3.76-1.36,5.45s-.76,3.28-1.09,4.77-.66,3.15-1,5-.66,3.51-.94,5.09H90.79q3.1-12.39,4.48-20.27Zm-26.57,0h8c.07.77.18,1.92.35,3.46s.31,2.82.42,3.86.22,2.13.33,3.3S78,213,78.07,214h.06c.59-1.08,1.14-2,1.65-2.9s1.28-2.13,2.32-3.8,1.85-3,2.48-4.06,1.22-2.06,1.81-3.11h8.15L80.83,220.35H72c-.2-1.52-.43-3.13-.69-4.84s-.5-3.14-.7-4.31-.48-2.78-.83-4.84-.72-4.14-1.09-6.28Zm-18.68,0H67.8l-1.23,5.46c-1.25-.08-3.12-.12-5.63-.12H56.75l-.52,2.12h3.1c1.12,0,2.79,0,5-.12l-1.26,5.46H54.94L54.39,215c.78,0,1.36,0,1.76.06,2.14,0,4.91-.14,8.33-.3l-1.34,5.59H45.3q2.34-8,4.72-20.27Zm-23.18,0h12q7.83,0,6.84,5.64a7.61,7.61,0,0,1-1.56,3.47,8.6,8.6,0,0,1-3.48,2.45c.11.88.25,1.8.41,2.74s.34,2,.58,3.3.4,2.16.49,2.67H33.85c-.25-5-.53-8.86-.81-11.5a6,6,0,0,0,1.33.12,4.84,4.84,0,0,0,2.42-.56,2.25,2.25,0,0,0,1.15-1.57c.12-.72-.08-1.16-.6-1.34a8,8,0,0,0-2.43-.27H33.1c-.19.84-.46,2-.79,3.47s-.63,2.83-.89,4.09-.53,2.52-.77,3.78-.5,2.52-.73,3.78H22.24c.51-1.69,1-3.34,1.37-4.95s.82-3.31,1.22-5.1.75-3.5,1.06-5.1.63-3.31.95-5.12Zm-20.64,0H18.06a5.43,5.43,0,0,1,3.1.81,4,4,0,0,1,1.65,2.2,6.67,6.67,0,0,1,.13,3.14,9,9,0,0,1-1.41,3.44,8.38,8.38,0,0,1-3,2.66,8.86,8.86,0,0,1-4.35,1,12.6,12.6,0,0,1-1.79-.12l-.31-4.89a2.81,2.81,0,0,0,.78.19,2.72,2.72,0,0,0,1.64-.48,2,2,0,0,0,.81-1.35,1.36,1.36,0,0,0-.17-1.08c-.19-.27-.66-.41-1.4-.41l-.35,0-.53.07-.75.1c-.41,1.69-.79,3.39-1.16,5.1s-.7,3.35-1,5-.61,3.22-.9,4.87H1.72c.42-1.6.84-3.29,1.28-5.08s.82-3.48,1.16-5.05.7-3.23,1-5,.68-3.47,1-5.17Z" transform="translate(0 0)"/><path class="cls-5" d="M213.05,156.33c72.43-30.63,105-78.87,93.08-114.91C295.15,8.15,240.44-9.75,173.74,5.5a201.51,201.51,0,0,0-23.13,6.94c-72.43,30.63-105,78.87-93.08,114.9,11,33.28,65.68,51.17,132.63,35.82a147.72,147.72,0,0,0,22.89-6.83Z" transform="translate(0 0)"/><path class="cls-6" d="M230.72,78.33l8.58.39V90.05l-8.58.31v-12ZM222.1,39.74l-9.72-2,1.92,8.91,10.19,1.73-2.39-8.63Zm-12.22-2.51-11.44-1.29,1,9.09,12.1,1.19-1.66-9ZM181.06,22l-10,.57-1.14,3.74A52.62,52.62,0,0,1,181,25.65l.11-3.67Zm13.31,5.23-11.16-.48V33.4l12.19.3-1-6.49Zm-13.94,8.17-12.33.44-.88,9.47,13.21-.42V35.38ZM235.3,53.63l-7.27-2,1.52,9.22,7.69,1.57-1.94-8.8Zm9.85,13.86-5.53-1.72,1.24,10.56,5.4.77-1.11-9.61Zm-17.87-3.75-11.1-.83.7,12,11.15.59-.75-11.75Zm-14.05-1.26-12.92-.55.42,12.7L213.8,75l-.57-12.56ZM212,48.71l-12.38-1,.7,11.19,12.79.85-1.11-11Zm-15.32-1.16-13.29-.2.14,11.54,13.8.23-.65-11.57Zm-32.71.36-12.11.94L150.58,60l12.63-.85.72-11.28Zm-15,1.14-10.51,1.73-1.61,10.55,10.81-1.06L149,49.05ZM133.35,64.87l-7.45,1.31-1,9.54,8-.42.51-10.43ZM122.84,79.12l-5.62.52v9.82l5.62.58V79.12Zm23.68-.9-11,.29V90.63l11,.26V78.22ZM133.19,93.5l-8.42-.86,1.08,10.91,8.51,1.41L133.19,93.5Zm16.26,28.81-10.58-2.1,2.62,8.43,9.68,2.55-1.72-8.88Zm-1.72-13.56-11-1.22,1.62,10.56,10.59,1.67-1.18-11Zm17.53,26-10.85-1.31,1.81,6.21,10.58,1.59-1.54-6.49Zm15-10.55-13-.5.63,9.49,12.39.51v-9.5Zm-17.08-14.36-12.75-1,1.27,11.27,12.39,1.05-.91-11.37Zm-.27-15.6L149.8,94l.54,12.42,12.75.6-.18-12.78Zm-.17-16.3-13.21.29V90.79l13.21.25V77.91Zm78,14.26,5.63-.6-1.28,9.69-5.27,1.68.92-10.77ZM216,108.44l11-1L225.38,118l-10.75,1.77L216,108.44Zm.73-14.93,11.2-.33-.55,11.56-11.11,1.15.46-12.38Zm-16,.27L214,93.71l-.64,12.37-12.57.79V93.78Zm0-16.19,13.21.29V90.79L200.77,91V77.59Zm-50.39-14.8,12.67-.52L163,74.65l-13.2.26.63-12.12Zm32.78,72.61,12.25-.47-1.09,6.72-11.15.52V135.4Zm16.18-12,12.24-1.1-1.53,9-11.61,1.41.9-9.34Zm-16-13.48,13.88-.2-.46,11.33-13.41.35V110ZM166.08,94.37l14.24-.21-.09,13.1-14-.27-.19-12.62ZM166.44,62l13.88-.21V74.65l-14.14.26L166.44,62Zm17.47,15.57h13.72V91H183.91V77.59Zm-3.11,68.29h11.87v5.3H180.8v-5.3Z" transform="translate(0 0)"/><path class="cls-7" d="M173.84,8.92c64.12-14.69,116.49,2.44,127,34.3,11.38,34.51-19.77,80.7-89.13,110,3.62-40,57.42-47.84,54.13-84-40.78-3.86-40.39-56.64-92-60.31Z" transform="translate(0 0)"/></g><path class="cls-8" d="M189.8,159.8c-64.11,14.69-116.49-2.44-127-34.3C51.41,91,82.57,44.8,151.92,15.47c-3.61,40.06-57.42,47.84-54.13,84,40.79,3.85,40.4,56.63,92,60.3Z" transform="translate(0 0)"/><path class="cls-5" d="M349.93,198.47v.15H358v-.15l-.14,0c-.73,2.78-1.37,5.36-1.93,7.72s-1.07,4.77-1.56,7.22l0,.18h3.28c1.28,0,3.23,0,5.87-.12v-.15l-.15,0L362,218.59H345.12v.15l.15,0q1-3.33,1.85-6.76t1.58-6.72q.72-3.28,1.38-6.8l-.15,0v0l-.15,0c-.44,2.34-.89,4.61-1.37,6.8s-1,4.42-1.58,6.7-1.2,4.54-1.85,6.76l-.06.19h17.35l1.4-5.77h-.2c-2.63.07-4.59.11-5.86.11h-3.1v.16l.15,0c.49-2.45,1-4.86,1.56-7.21s1.19-4.93,1.92-7.71l.05-.19H349.8l0,.12.15,0Zm-18.62,10.44v.15h3.87l-.68-5.58L331,209.06h.28v-.15l.13.08,2.86-4.62.54,4.38h-3.53v.16l.13.08-.13-.08Zm-.24-10.44v.15h9.35v-.15l-.15,0q1.29,7.9,3.86,20.28l.14,0v-.15h-8.21v.15h.16c-.08-.93-.3-2.49-.67-4.69l0-.13h-7.4l-2.87,4.68h-8.49v.15l.12.09q1.82-2.39,3.6-4.83t3.66-5.1c1.25-1.77,2.46-3.54,3.66-5.3s2.33-3.44,3.38-5l-.12-.08v0l-.13-.09c-1.06,1.61-2.18,3.29-3.38,5.05s-2.41,3.53-3.66,5.29-2.46,3.46-3.65,5.1-2.4,3.24-3.6,4.83l-.18.24h9l2.87-4.68h7.1v-.15l-.15,0c.37,2.21.58,3.77.66,4.67v.14h8.54l0-.18q-2.57-12.39-3.85-20.27l0-.12H331l0,.06.13.09Zm-18.73,0v.15h8.1v-.15l-.15,0c-.5,1.95-.94,3.76-1.35,5.45s-.76,3.28-1.09,4.77-.67,3.16-1,5-.67,3.51-.95,5.09l.15,0v-.15h-8.15v.15l.15,0q3.09-12.4,4.47-20.29h-.15v0h0l-.15,0q-1.37,7.86-4.47,20.26l-.05.19h8.48l0-.12c.28-1.59.6-3.28.95-5.09s.7-3.46,1-5,.69-3.09,1.09-4.77.85-3.5,1.35-5.44l.05-.19h-8.45v.15Zm-3.54.17-.15,0-.76,5.68.15,0,0-.15a16.39,16.39,0,0,0-4.52-.76,7.78,7.78,0,0,0-3.64.84,7.52,7.52,0,0,0-2.59,2.15,6.65,6.65,0,0,0-1.22,2.73,5.65,5.65,0,0,0-.09,1,3.16,3.16,0,0,0,1.07,2.51,5.1,5.1,0,0,0,3.48,1.18,22.94,22.94,0,0,0,5.66-.83l0-.15-.14-.05-2.1,5.93.15.05,0-.15a38.54,38.54,0,0,1-5.7.41,14.88,14.88,0,0,1-5.56-1,7.19,7.19,0,0,1-3.7-3.17,7,7,0,0,1-.84-3.51,11.61,11.61,0,0,1,.19-2.06h0a12.37,12.37,0,0,1,2.9-6.16,13.78,13.78,0,0,1,5.36-3.71,17.74,17.74,0,0,1,6.42-1.2v0a36.83,36.83,0,0,1,5.62.59l0-.15h0l-.15,0,.15,0H309v-.12l-.12,0a39,39,0,0,0-5.67-.6h0a17.89,17.89,0,0,0-6.53,1.23,14.17,14.17,0,0,0-5.48,3.79,12.59,12.59,0,0,0-3,6.3h0a12.41,12.41,0,0,0-.2,2.12,7.29,7.29,0,0,0,.88,3.66,7.52,7.52,0,0,0,3.86,3.3,15.07,15.07,0,0,0,5.67,1,39.22,39.22,0,0,0,5.75-.42h.09l2.22-6.29-.28.08a22.77,22.77,0,0,1-5.58.81,4.73,4.73,0,0,1-3.28-1.1,2.83,2.83,0,0,1-1-2.28,5.13,5.13,0,0,1,.08-.92,6.29,6.29,0,0,1,1.17-2.6,7.12,7.12,0,0,1,2.48-2.06,7.4,7.4,0,0,1,3.5-.8,15.47,15.47,0,0,1,4.43.75l.17.05.78-5.87h-.15Zm-32.4-.6v.16a14.72,14.72,0,0,1,5.28.87,8.06,8.06,0,0,1,3.34,2.27,7.09,7.09,0,0,1,1.55,3.17,9.18,9.18,0,0,1,.19,1.89,11.26,11.26,0,0,1-.16,1.81,12.66,12.66,0,0,1-2.27,5.28,12.86,12.86,0,0,1-4.92,4A17,17,0,0,1,272,219a15.43,15.43,0,0,1-5.07-.75,8.65,8.65,0,0,1-3.44-2.1,6.91,6.91,0,0,1-1.77-3.1,8.63,8.63,0,0,1-.26-2.1,10.26,10.26,0,0,1,.15-1.72,13.08,13.08,0,0,1,1.67-4.51,12.43,12.43,0,0,1,3.17-3.5,14,14,0,0,1,4.45-2.24,18.73,18.73,0,0,1,5.54-.78V198h-.15v.16h.15V198h.15v-.15h-.15a19.34,19.34,0,0,0-5.63.79,14.77,14.77,0,0,0-4.55,2.3,12.7,12.7,0,0,0-3.24,3.58,13.51,13.51,0,0,0-1.71,4.62,10.88,10.88,0,0,0-.16,1.77,8.17,8.17,0,0,0,.28,2.17,7.16,7.16,0,0,0,1.84,3.24,8.92,8.92,0,0,0,3.56,2.18,15.85,15.85,0,0,0,5.17.77,17.18,17.18,0,0,0,7.58-1.56,12.88,12.88,0,0,0,7.36-9.49,10.79,10.79,0,0,0,.16-1.86,9.77,9.77,0,0,0-.19-2,7.64,7.64,0,0,0-1.61-3.31,8.39,8.39,0,0,0-3.46-2.35,15.05,15.05,0,0,0-5.4-.9V198h0Zm-7,10.93-.15,0a5.67,5.67,0,0,0-.09,1,3.92,3.92,0,0,0,.31,1.59,3.53,3.53,0,0,0,1.46,1.7,4.34,4.34,0,0,0,2.23.58,5.26,5.26,0,0,0,2.55-.69,6.56,6.56,0,0,0,2.14-1.94,7,7,0,0,0,1.2-2.83h0a5.67,5.67,0,0,0,.09-1,4.39,4.39,0,0,0-.27-1.55A3.54,3.54,0,0,0,277.4,204a4,4,0,0,0-2.23-.63,5.38,5.38,0,0,0-2,.4h0a6,6,0,0,0-1.8,1.12,6.64,6.64,0,0,0-1.4,1.77,7,7,0,0,0-.79,2.24h0v0h.15l-.15,0,.15,0h0l.15,0a6.57,6.57,0,0,1,.75-2.14,6.29,6.29,0,0,1,1.34-1.69,5.83,5.83,0,0,1,1.72-1.07h0a4.93,4.93,0,0,1,1.86-.37,3.71,3.71,0,0,1,2.07.58,3.13,3.13,0,0,1,1.29,1.61,4,4,0,0,1,.26,1.44,5,5,0,0,1-.09.92l.15,0-.15,0a6.65,6.65,0,0,1-1.15,2.71,6.2,6.2,0,0,1-2,1.86,5,5,0,0,1-2.4.64A4,4,0,0,1,271,213a3.28,3.28,0,0,1-1.35-1.56,3.85,3.85,0,0,1-.28-1.47,5.21,5.21,0,0,1,.09-.93h-.15Zm-26.49,3.43-.06.13a13.64,13.64,0,0,0,2.4.87,10,10,0,0,0,2.63.39,5.61,5.61,0,0,0,1.84-.23,1.06,1.06,0,0,0,.8-.78h0v-.13a2.43,2.43,0,0,0-.94-1.59l-2.07-1.95a8.35,8.35,0,0,1-1.72-2.29,4.24,4.24,0,0,1-.44-1.92,5.34,5.34,0,0,1,.09-1l-.15,0,.15,0a6,6,0,0,1,3.09-4.31,12.29,12.29,0,0,1,6.12-1.45,21.31,21.31,0,0,1,2.58.14h0c.73.09,1.77.27,3.1.52l0-.15h-.15l-.6,5.85h.15l.06-.13a10.87,10.87,0,0,0-4.52-1,4.15,4.15,0,0,0-1.61.25,1.09,1.09,0,0,0-.72.82v.14a2.29,2.29,0,0,0,.91,1.5h0c.63.61,1.32,1.26,2.06,1.92a8.83,8.83,0,0,1,1.76,2.18,3.54,3.54,0,0,1,.48,1.82,4.93,4.93,0,0,1-.06.75,6.29,6.29,0,0,1-1.78,3.5,8.46,8.46,0,0,1-3.46,2.06,13.89,13.89,0,0,1-4.29.65c-.48,0-1,0-1.53-.05h0c-.53,0-1.1-.09-1.68-.17h0c-.58-.07-1.1-.15-1.56-.22l-1.38-.22,0,.15h.15l.52-6.16-.05-.05-.11.11-.06.13.06-.13-.1.1h0l.1-.1-.15,0-.53,6.24.14,0,1.39.22c.46.08,1,.15,1.57.22h0c.59.08,1.16.14,1.7.17h0c.54,0,1.06.06,1.55.06a14.18,14.18,0,0,0,4.38-.67,8.75,8.75,0,0,0,3.58-2.13,6.61,6.61,0,0,0,1.87-3.67,5.52,5.52,0,0,0,.07-.8,3.9,3.9,0,0,0-.52-2,9.28,9.28,0,0,0-1.82-2.26c-.74-.66-1.43-1.3-2.06-1.91h0a2.11,2.11,0,0,1-.82-1.28v-.09a.79.79,0,0,1,.54-.59,4,4,0,0,1,1.49-.22,10.79,10.79,0,0,1,4.4,1l.19.09.64-6.2-.14,0c-1.33-.25-2.37-.43-3.1-.52h0a19.77,19.77,0,0,0-2.61-.15,12.63,12.63,0,0,0-6.26,1.49,6.29,6.29,0,0,0-3.25,4.52h0a5.89,5.89,0,0,0-.09,1,4.46,4.46,0,0,0,.47,2.06,8.53,8.53,0,0,0,1.78,2.37c.73.68,1.42,1.33,2.07,2a2.17,2.17,0,0,1,.85,1.36v.09l.15,0-.15,0c0,.23-.21.4-.6.55a5.51,5.51,0,0,1-1.74.2,9.87,9.87,0,0,1-2.55-.37,13.59,13.59,0,0,1-2.35-.85l-.17.24.1-.1Zm-25.81-3.49v.15h3.88l-.69-5.58-3.46,5.58h.27v-.15l.13.08,2.87-4.62.53,4.38h-3.53v.16l.13.08-.13-.08Zm-.25-10.44v.15h9.37v-.15l-.15,0q1.28,7.9,3.85,20.28l.15,0v-.15H221.8v.15H222c-.07-.93-.29-2.49-.65-4.69l0-.13h-7.42L211,218.59h-8.5v.15l.13.09q1.8-2.39,3.6-4.83t3.65-5.1q1.86-2.66,3.66-5.3t3.38-5l-.13-.08v.15h0v-.3h-.08l0,.06q-1.58,2.42-3.38,5.05c-1.2,1.76-2.42,3.53-3.66,5.29s-2.45,3.46-3.65,5.1-2.39,3.24-3.6,4.83l-.18.24h9l2.86-4.68h7.11v-.15l-.15,0c.36,2.21.58,3.77.65,4.67v.14h8.54l0-.18q-2.58-12.39-3.85-20.27l0-.12h-9.5v.15Zm-18.71,0v.15h8.09v-.15l-.14,0c-.5,1.95-.95,3.76-1.35,5.45s-.77,3.28-1.1,4.77-.67,3.16-1,5-.66,3.51-.94,5.09l.15,0v-.15h-8.16v.15l.15,0q3.09-12.4,4.48-20.29l0-.11-.11,0-.06.14v0l-.07.13h0l.07-.13-.15,0q-1.38,7.86-4.48,20.26l-.05.19h8.49l0-.12c.28-1.59.59-3.28.94-5.09s.7-3.46,1-5,.69-3.09,1.09-4.77.85-3.5,1.35-5.44l0-.19h-8.29l-.07.28.07-.13Zm-3.55.17-.15,0-.75,5.68.15,0,0-.15a16.33,16.33,0,0,0-4.52-.76,7.78,7.78,0,0,0-3.64.84,7.49,7.49,0,0,0-2.58,2.15,6.54,6.54,0,0,0-1.23,2.73,5.65,5.65,0,0,0-.09,1,3.16,3.16,0,0,0,1.07,2.51,5.1,5.1,0,0,0,3.48,1.18A22.87,22.87,0,0,0,192,213l0-.15-.14-.05-2.09,5.93.14.05,0-.15a38.77,38.77,0,0,1-5.71.41,14.83,14.83,0,0,1-5.55-1,7.17,7.17,0,0,1-3.71-3.17,7,7,0,0,1-.84-3.52,11.59,11.59,0,0,1,.19-2h0a12.37,12.37,0,0,1,2.9-6.16,13.85,13.85,0,0,1,5.36-3.71,17.75,17.75,0,0,1,6.43-1.2v0a36.83,36.83,0,0,1,5.62.59l0-.15-.11-.1h0l0,0v.05l.15,0,.11.11h0l.2-.2-.28-.06a39,39,0,0,0-5.67-.6h0a17.9,17.9,0,0,0-6.54,1.23,14.06,14.06,0,0,0-5.47,3.79,12.68,12.68,0,0,0-3,6.3h0a12.39,12.39,0,0,0-.2,2.11,7.41,7.41,0,0,0,.88,3.67,7.52,7.52,0,0,0,3.86,3.3,15.11,15.11,0,0,0,5.67,1,39.22,39.22,0,0,0,5.75-.42H190l2.22-6.29-.28.08a22.77,22.77,0,0,1-5.58.81,4.75,4.75,0,0,1-3.28-1.1,2.83,2.83,0,0,1-1-2.28,6.25,6.25,0,0,1,.08-.92,6.16,6.16,0,0,1,1.17-2.6,7.12,7.12,0,0,1,2.48-2.06,7.43,7.43,0,0,1,3.5-.8,15.47,15.47,0,0,1,4.43.75l.17.05.78-5.86-.15,0,.11.11-.11-.11Zm-43.2-.17v.15h9.2v-.15l-.14.05c.38,1.17.78,2.41,1.19,3.72s.8,2.62,1.19,3.95.74,2.55,1,3.7l0,.11h.3l0-.12q1.23-5.16,2.41-11.38l-.15,0v.15h7.1v-.15l-.14,0q-3,11.43-4.78,20.28l.15,0v-.15h-9v.15l.14-.05-.95-2.76c-.44-1.22-.81-2.34-1.14-3.33s-.61-1.9-.85-2.69h0c-.24-.8-.46-1.56-.66-2.29l0-.11H156l0,.12c-.37,1.63-.67,3-.92,4.14s-.5,2.32-.74,3.56-.46,2.36-.64,3.38l.15,0v-.15h-7.16v.15l.14,0q3.21-12,4.67-20.29l-.15,0v.15h0v-.3h-.13l0,.12q-1.45,8.31-4.66,20.26l-.05.19H154l0-.12c.18-1,.39-2.15.64-3.38s.49-2.42.74-3.55.55-2.52.91-4.15l-.15,0v.15h0v-.15l-.14,0c.2.74.42,1.5.66,2.29h0c.24.8.52,1.7.85,2.7s.71,2.12,1.14,3.34l1,2.76,0,.1h9.23l0-.12q1.77-8.85,4.77-20.26l.05-.19h-7.42l0,.12c-.78,4.14-1.59,7.94-2.41,11.37l.15,0v-.16H164v.16l.15,0c-.31-1.15-.66-2.38-1.05-3.71s-.79-2.65-1.19-3.95-.81-2.55-1.19-3.73l0-.1h-9.31v.15Zm-11.77-2.07.13-.07L139,195l-1,1.23H134l1.77-3h7.26l.83,3h-4.31v.15l.13-.07-.13.07v.15h4.71l-1-3.64h-7.67l-2.12,3.64h4.61l.83-1,.5.93,0,.07h.09v-.15Zm-9.81,2.07v.15h17.59l-1.18,5.27.15,0v-.16c-1.26-.08-3.13-.12-5.65-.12h-4.3l-.59,2.43h3.29c1.12,0,2.79,0,5-.12v-.15l-.14,0-1.23,5.34h-8.15l-.63,2.42h.19c.78,0,1.36,0,1.75.06h0c2.14,0,4.91-.14,8.33-.3v-.15l-.14,0-1.32,5.48H125v.15l.15,0q2.34-8,4.72-20.28l-.15,0v.15h0v-.3h-.12l0,.12q-2.37,12.3-4.71,20.26l-.06.19H143l1.42-5.9h-.2q-5.13.24-8.32.3v0c-.4,0-1-.06-1.78-.06v.15l.15,0,.52-2H143l1.33-5.77h-.2c-2.22.08-3.9.12-5,.12h-2.91l.45-1.82h4.06c2.51,0,4.39,0,5.63.12h.13l1.3-5.77h-18v.15Zm-28.55,20.27.15,0c.89-3.18,1.68-6.36,2.37-9.56s1.41-6.77,2.14-10.72l-.15,0v.15h12.15a8.46,8.46,0,0,1,3.42.63h0a5.39,5.39,0,0,1,2.29,1.79,6.61,6.61,0,0,1,1.13,2.91,10.21,10.21,0,0,1,.1,1.5,14.32,14.32,0,0,1-.22,2.43,15.54,15.54,0,0,1-1.31,4.11,12.58,12.58,0,0,1-2.41,3.42,10.66,10.66,0,0,1-3.52,2.33,11.84,11.84,0,0,1-4.56.85H101.21v.15l.14,0h0l-.15,0-.14-.05h0l-.08.2h11.8a12,12,0,0,0,4.67-.87,10.86,10.86,0,0,0,3.62-2.4,12.45,12.45,0,0,0,2.47-3.5,16,16,0,0,0,1.34-4.19,14.86,14.86,0,0,0,.23-2.48,11,11,0,0,0-.11-1.55,7,7,0,0,0-1.18-3,5.76,5.76,0,0,0-2.42-1.89h0a8.74,8.74,0,0,0-3.54-.65H105.59l0,.12q-1.09,5.94-2.14,10.72t-2.37,9.54l.15,0-.14-.05.14.05Zm8.71-5.41,0,.16a10.4,10.4,0,0,0,1.25.06,5.25,5.25,0,0,0,4-1.5A7.82,7.82,0,0,0,117,208a6.69,6.69,0,0,0,.12-1.21,2.94,2.94,0,0,0-.91-2.34,3.9,3.9,0,0,0-2.66-.79,7.05,7.05,0,0,0-1.54.13l-.09,0-2.14,9.52h0v.14l.13,0,0-.16h0l.15,0,2.12-9.41-.15,0,0,.15a6.89,6.89,0,0,1,1.47-.12,3.67,3.67,0,0,1,2.46.7,2.67,2.67,0,0,1,.8,2.12,6.2,6.2,0,0,1-.11,1.16,7.54,7.54,0,0,1-1.73,3.9,4.9,4.9,0,0,1-3.81,1.4,8,8,0,0,1-1.21-.06l0,.15h0ZM93.74,198.47v.15h8.1v-.15l-.15,0c-.5,1.95-1,3.76-1.35,5.45s-.76,3.28-1.1,4.77h0c-.32,1.51-.66,3.16-1,5s-.67,3.51-1,5.09l.15,0v-.15H89.26v.15l.15,0q3.11-12.4,4.48-20.29l-.15,0,.14.07h0l-.14-.07v0l-.13-.07h0v0q-1.36,7.86-4.47,20.26l-.05.19h8.48l0-.12c.28-1.59.59-3.28,1-5.09s.7-3.46,1-5h0c.33-1.49.69-3.09,1.09-4.77s.85-3.5,1.36-5.44l.05-.19H93.65l0,.08.13.07Zm-26.57,0v.15h8v-.15h-.15c.07.77.18,1.92.35,3.46s.31,2.83.42,3.86.23,2.13.33,3.3.19,2.25.24,3.24v.15h.3l0-.08c.6-1.07,1.15-2,1.65-2.9s1.28-2.12,2.32-3.8h0c1-1.67,1.85-3,2.48-4.05s1.23-2.07,1.81-3.12l-.13-.07v.15h7.87l-13.51,20H70.48v.15l.15,0c-.19-1.53-.43-3.14-.69-4.84s-.5-3.15-.7-4.32-.48-2.78-.83-4.84-.72-4.14-1.09-6.28l-.15,0-.11.11h0l0,0h.07v-.15l.11-.11h0l-.34-.34.08.47c.37,2.14.73,4.23,1.09,6.29s.63,3.66.83,4.83.43,2.61.7,4.31.49,3.32.69,4.84l0,.13h9L93.3,198.32H84.77l0,.07c-.59,1.05-1.19,2.08-1.81,3.11s-1.45,2.38-2.48,4.05h0c-1,1.68-1.81,2.95-2.32,3.81s-1.06,1.83-1.65,2.9l.13.08v-.16h-.06v.16h.15c0-1-.13-2.09-.23-3.26s-.22-2.27-.34-3.3-.25-2.32-.42-3.86-.28-2.69-.35-3.46v-.13H67.17v.15l.11-.11-.11.11Zm-18.68,0v.15H66.08l-1.18,5.27.15,0v-.16c-1.26-.08-3.14-.12-5.65-.12H55.1l-.59,2.43h3.3c1.12,0,2.79,0,5-.12v-.15l-.15,0-1.22,5.34H53.3l-.64,2.42h.2c.78,0,1.36,0,1.75.06h0q3.19-.06,8.33-.3v-.15l-.15,0-1.31,5.48H43.77v.15l.15,0q2.34-8,4.72-20.28l-.15,0v0l-.15,0Q46,210.74,43.63,218.7l-.06.19H61.73l1.42-5.9h-.21c-3.41.16-6.19.26-8.32.3v.15l0-.15c-.41,0-1-.06-1.78-.06v.15l.15,0,.52-2h8.16L63,205.65h-.19q-3.34.12-5,.12H54.9l.44-1.82h4.07c2.51,0,4.38,0,5.63.12h.13l1.29-5.77H48.36l0,.12.15,0Zm-23.18,0v.15h12a9.64,9.64,0,0,1,5.13,1.09,3.54,3.54,0,0,1,1.67,3.2,7.2,7.2,0,0,1-.11,1.18,7.38,7.38,0,0,1-1.53,3.39h0a8.26,8.26,0,0,1-3.42,2.4l-.1.05V210c.11.89.25,1.81.41,2.75s.35,2,.58,3.31.4,2.15.49,2.67l.15,0v-.15H32.33v.15h.15q-.39-7.53-.82-11.51l-.15,0,0,.15a6.47,6.47,0,0,0,1.36.12,5,5,0,0,0,2.5-.58h0a2.37,2.37,0,0,0,1.22-1.68,2,2,0,0,0,0-.41,1.07,1.07,0,0,0-.74-1.1h0a8.15,8.15,0,0,0-2.48-.27H31.45l0,.12c-.19.84-.46,2-.79,3.46s-.63,2.83-.89,4.09-.53,2.53-.77,3.79-.49,2.52-.73,3.78l.15,0v-.15H20.71v.15l.15,0q.75-2.53,1.37-4.95t1.22-5.11c.4-1.8.75-3.5,1.07-5.1h0c.31-1.61.62-3.31.94-5.13l-.15,0v0l-.15,0q-.48,2.72-.94,5.12h0c-.32,1.6-.67,3.3-1.07,5.09s-.81,3.49-1.22,5.1-.86,3.26-1.36,4.95l-.06.19h8l0-.12c.24-1.26.48-2.53.73-3.78s.5-2.52.77-3.78.56-2.62.89-4.09.6-2.62.79-3.47l-.15,0v.15h1.81a8.06,8.06,0,0,1,2.39.26h0a.75.75,0,0,1,.52.81,2.38,2.38,0,0,1,0,.36,2,2,0,0,1-1.07,1.46h0a4.62,4.62,0,0,1-2.35.55,5.59,5.59,0,0,1-1.29-.12l-.21-.05,0,.21c.28,2.64.56,6.47.81,11.5v.14h8.57l0-.18c-.09-.51-.25-1.4-.49-2.67s-.43-2.36-.58-3.3-.29-1.85-.41-2.74l-.15,0,.06.14a8.55,8.55,0,0,0,3.54-2.49h0a7.71,7.71,0,0,0,1.7-4.76,3.83,3.83,0,0,0-1.81-3.46,10,10,0,0,0-5.29-1.13H25.18l0,.12.15,0Zm-20.64,0v.15H16.53a5.29,5.29,0,0,1,3,.78h0a3.88,3.88,0,0,1,1.59,2.12h0a5.89,5.89,0,0,1,.25,1.71,7.19,7.19,0,0,1-.13,1.36A8.65,8.65,0,0,1,19.88,208h0A8.38,8.38,0,0,1,17,210.59h0a8.76,8.76,0,0,1-4.28,1,12.13,12.13,0,0,1-1.76-.11l0,.15H11l-.32-4.89h-.15l-.05.14a2.68,2.68,0,0,0,.83.2,2.88,2.88,0,0,0,1.73-.51h0a2.16,2.16,0,0,0,.88-1.44,2.8,2.8,0,0,0,0-.4,1.32,1.32,0,0,0-.23-.8h0c-.26-.34-.77-.47-1.53-.47l-.37,0h0l-.52.07h0l-.76.09-.1,0,0,.1q-.6,2.55-1.16,5.1h0c-.36,1.7-.7,3.36-1,5h0c-.31,1.6-.61,3.22-.89,4.87l.15,0v-.15H.2v.15l.14,0c.42-1.6.84-3.3,1.28-5.09h0c.43-1.79.82-3.48,1.16-5.05h0c.35-1.58.7-3.23,1.05-5h0q.52-2.61,1-5.16l-.15,0-.15,0h0l0,.18h.18v-.15l.15,0h0l-.3-.05q-.46,2.55-1,5.16h0c-.35,1.74-.7,3.4-1,5h0q-.53,2.37-1.17,5.05h0C.89,215.41.46,217.1.05,218.7l0,.19H7.66l0-.13c.28-1.64.58-3.27.89-4.87h0c.31-1.6.65-3.25,1-4.95h0c.37-1.71.75-3.41,1.16-5.1l-.15,0,0,.15.76-.1,0-.15v.15l.53-.07,0-.15,0,.15.33,0c.73,0,1.15.15,1.28.35h0a1,1,0,0,1,.18.63,2.26,2.26,0,0,1,0,.35,1.86,1.86,0,0,1-.76,1.24h0a2.54,2.54,0,0,1-1.55.45,2.31,2.31,0,0,1-.73-.17l-.22-.08.34,5.24.13,0a12.74,12.74,0,0,0,1.8.12,9,9,0,0,0,4.43-1.06h0a8.56,8.56,0,0,0,3-2.71h0a9.07,9.07,0,0,0,1.43-3.49,7.81,7.81,0,0,0,.13-1.42,6.17,6.17,0,0,0-.26-1.8h0a4.12,4.12,0,0,0-1.71-2.28h0a5.6,5.6,0,0,0-3.19-.83H4.67v.15l.15,0-.15,0Z" transform="translate(0 0)"/><path class="cls-9" d="M349.93,198.47H358c-.72,2.78-1.37,5.36-1.92,7.72S355,211,354.51,213.4h3.1c1.28,0,3.23,0,5.86-.12l-1.32,5.46h-17q1-3.33,1.85-6.76c.58-2.28,1.11-4.53,1.59-6.71s.93-4.46,1.37-6.8Zm-18.62,10.44H335l-.61-5-3.09,5Zm-.24-10.44h9.35q1.29,7.89,3.85,20.27h-8.21c-.07-.92-.29-2.47-.66-4.68h-7.19l-2.86,4.68h-8.58c1.2-1.59,2.41-3.2,3.6-4.83s2.42-3.33,3.66-5.1,2.46-3.54,3.65-5.29,2.33-3.45,3.39-5.05Zm-18.73,0h8.1q-.75,2.91-1.35,5.45c-.4,1.68-.77,3.28-1.09,4.77s-.67,3.15-1,5-.67,3.51-1,5.09h-8.15q3.09-12.39,4.47-20.27Zm-3.54.17-.76,5.68a15.71,15.71,0,0,0-4.47-.76,7.7,7.7,0,0,0-3.57.82,7.22,7.22,0,0,0-2.53,2.11,6.33,6.33,0,0,0-1.2,2.66,3.34,3.34,0,0,0,.93,3.35,4.94,4.94,0,0,0,3.38,1.14,22.71,22.71,0,0,0,5.62-.83l-2.09,5.93a39,39,0,0,1-5.73.42,15,15,0,0,1-5.61-1,7.37,7.37,0,0,1-3.79-3.23,8.42,8.42,0,0,1-.66-5.68,12.48,12.48,0,0,1,2.94-6.23,14,14,0,0,1,5.41-3.75,17.87,17.87,0,0,1,6.48-1.22,38.55,38.55,0,0,1,5.65.6Zm-32.4-.6a15.12,15.12,0,0,1,5.34.89,8.22,8.22,0,0,1,3.4,2.31,7.34,7.34,0,0,1,1.58,3.24,9.89,9.89,0,0,1,0,3.76,12.77,12.77,0,0,1-2.3,5.34,13,13,0,0,1-5,4,17.19,17.19,0,0,1-7.52,1.54,15.49,15.49,0,0,1-5.12-.77,8.82,8.82,0,0,1-3.5-2.13,7.13,7.13,0,0,1-1.81-3.17,9.16,9.16,0,0,1-.11-3.88,13.15,13.15,0,0,1,1.69-4.57,12.59,12.59,0,0,1,3.21-3.54,14.22,14.22,0,0,1,4.5-2.27,19,19,0,0,1,5.58-.79Zm-7,10.93a4.32,4.32,0,0,0,.2,2.48,3.41,3.41,0,0,0,1.41,1.63,4.2,4.2,0,0,0,2.15.56,5.13,5.13,0,0,0,2.47-.67,6.28,6.28,0,0,0,2.09-1.9,6.87,6.87,0,0,0,1.18-2.77,4.53,4.53,0,0,0-.18-2.45,3.31,3.31,0,0,0-1.35-1.68,3.89,3.89,0,0,0-2.15-.61,5.07,5.07,0,0,0-1.92.39,5.91,5.91,0,0,0-1.76,1.1,6.7,6.7,0,0,0-1.37,1.72,6.94,6.94,0,0,0-.77,2.2Zm-26.49,3.43a13.19,13.19,0,0,0,2.38.85,9.76,9.76,0,0,0,2.59.39c1.56,0,2.39-.29,2.49-.88.06-.44-.23-1-.89-1.58s-1.34-1.28-2.06-2a8.25,8.25,0,0,1-1.75-2.33,4.59,4.59,0,0,1-.37-3,6.1,6.1,0,0,1,3.17-4.41,12.46,12.46,0,0,1,6.19-1.47,21.49,21.49,0,0,1,2.59.14c.74.09,1.77.27,3.1.52l-.6,5.85a10.93,10.93,0,0,0-4.46-1c-1.34,0-2.07.32-2.18.94-.07.4.22.91.85,1.51s1.32,1.25,2.07,1.92a8.92,8.92,0,0,1,1.79,2.21,4,4,0,0,1,.43,2.67,6.42,6.42,0,0,1-1.83,3.59,8.58,8.58,0,0,1-3.52,2.1,14.15,14.15,0,0,1-4.33.66c-.49,0-1,0-1.54-.06s-1.1-.09-1.69-.17-1.1-.14-1.56-.22l-1.38-.22.51-6.09Zm-25.81-3.49h3.71l-.61-5-3.1,5Zm-.25-10.44h9.37q1.28,7.89,3.85,20.27H221.8c-.07-.92-.29-2.47-.65-4.68H214l-2.86,4.68h-8.58q1.81-2.38,3.61-4.83c1.19-1.64,2.41-3.33,3.65-5.1s2.46-3.54,3.65-5.29,2.33-3.45,3.38-5.05Zm-18.71,0h8.09c-.5,1.94-.94,3.76-1.35,5.45s-.76,3.28-1.09,4.77-.67,3.15-1,5-.67,3.51-.94,5.09h-8.16q3.1-12.39,4.48-20.27Zm-3.55.17-.75,5.68a15.83,15.83,0,0,0-4.48-.76,7.73,7.73,0,0,0-3.57.82,7.31,7.31,0,0,0-2.53,2.11,6.33,6.33,0,0,0-1.2,2.66,3.39,3.39,0,0,0,.93,3.35,4.94,4.94,0,0,0,3.38,1.14,22.65,22.65,0,0,0,5.62-.83l-2.09,5.93a39,39,0,0,1-5.73.42,15,15,0,0,1-5.61-1,7.39,7.39,0,0,1-3.78-3.23,8.36,8.36,0,0,1-.67-5.68A12.48,12.48,0,0,1,177,203a14.08,14.08,0,0,1,5.42-3.75A17.79,17.79,0,0,1,188.9,198a38.56,38.56,0,0,1,5.64.6Zm-43.2-.17h9.2c.39,1.18.78,2.41,1.19,3.72s.81,2.62,1.2,3.95.73,2.56,1,3.71H164q1.23-5.16,2.41-11.38h7.1q-3,11.42-4.77,20.27h-9c-.21-.61-.53-1.54-1-2.76s-.8-2.34-1.13-3.33-.62-1.91-.86-2.7-.46-1.56-.66-2.29h0l-.91,4.14c-.25,1.14-.5,2.32-.74,3.56s-.46,2.36-.64,3.38h-7.16q3.21-12,4.66-20.27Zm-11.77-2.07-.62-1.11L138,196.4h-4.27l1.94-3.34h7.46l.92,3.34Zm-9.81,2.07h17.78l-1.22,5.46c-1.25-.09-3.13-.12-5.64-.12H136.5l-.52,2.12h3.1q1.68,0,5-.12l-1.25,5.46h-8.15l-.56,2.12q1.17,0,1.77.06,3.19-.06,8.32-.3l-1.34,5.59H125q2.34-8,4.72-20.27Zm-28.55,20.27c.89-3.18,1.69-6.36,2.37-9.55s1.41-6.76,2.14-10.72h12.15a8.61,8.61,0,0,1,3.48.64A5.47,5.47,0,0,1,123.7,201a6.69,6.69,0,0,1,1.16,3,12.24,12.24,0,0,1-.12,4,15.92,15.92,0,0,1-1.33,4.16,12.31,12.31,0,0,1-2.44,3.46,10.69,10.69,0,0,1-3.57,2.36,11.91,11.91,0,0,1-4.61.86Zm8.71-5.41a8.15,8.15,0,0,0,1.23.07,5.07,5.07,0,0,0,3.92-1.45,7.68,7.68,0,0,0,1.77-4q.73-4.16-3.3-4.15a6.63,6.63,0,0,0-1.5.12l-2.12,9.4ZM93.74,198.47h8.1q-.75,2.91-1.35,5.45c-.4,1.68-.77,3.28-1.1,4.77s-.66,3.15-1,5-.67,3.51-1,5.09H89.26q3.1-12.39,4.48-20.27Zm-26.57,0h8c.07.76.19,1.92.35,3.46s.31,2.82.42,3.85.23,2.14.34,3.31.19,2.25.23,3.25h.06c.59-1.08,1.15-2.05,1.65-2.9s1.29-2.13,2.32-3.81,1.85-3,2.48-4,1.22-2.06,1.81-3.11H93L79.3,218.74H70.48c-.19-1.52-.43-3.14-.69-4.84s-.5-3.14-.7-4.31l-.83-4.84q-.54-3.08-1.09-6.28Zm-18.68,0H66.27l-1.22,5.46c-1.25-.09-3.13-.12-5.64-.12H55.22l-.51,2.12h3.1c1.11,0,2.79,0,5-.12l-1.25,5.46H53.41l-.55,2.12c.78,0,1.37,0,1.76.06,2.14,0,4.91-.14,8.33-.3l-1.34,5.59H43.77q2.34-8,4.72-20.27Zm-23.18,0h12q7.83,0,6.84,5.64a7.53,7.53,0,0,1-1.56,3.46A8.29,8.29,0,0,1,39.09,210c.11.89.25,1.81.41,2.75s.35,2,.58,3.3.4,2.16.49,2.67H32.33q-.39-7.53-.82-11.5a6.1,6.1,0,0,0,1.33.12,4.69,4.69,0,0,0,2.42-.57,2.18,2.18,0,0,0,1.15-1.56c.12-.72-.07-1.17-.59-1.34a8.13,8.13,0,0,0-2.44-.27H31.57c-.19.84-.46,2-.79,3.46s-.63,2.84-.89,4.1-.53,2.52-.77,3.78-.49,2.52-.73,3.78H20.71c.51-1.69,1-3.34,1.37-5s.82-3.31,1.22-5.1.75-3.5,1.07-5.1.62-3.31.94-5.12Zm-20.64,0H16.53a5.48,5.48,0,0,1,3.11.8,4,4,0,0,1,1.64,2.21,6.42,6.42,0,0,1,.13,3.14A8.57,8.57,0,0,1,20,208.05a8.36,8.36,0,0,1-3,2.67,8.9,8.9,0,0,1-4.36,1,12.36,12.36,0,0,1-1.78-.12l-.32-4.89a2.81,2.81,0,0,0,.78.19,2.72,2.72,0,0,0,1.64-.48,2,2,0,0,0,.82-1.35,1.4,1.4,0,0,0-.18-1.08c-.19-.27-.66-.41-1.4-.41l-.35,0-.52.07-.76.1q-.6,2.53-1.16,5.1c-.36,1.7-.7,3.35-1,5s-.61,3.22-.89,4.87H.2c.41-1.6.83-3.29,1.27-5.09s.82-3.47,1.16-5.05.7-3.22,1.05-5,.68-3.46,1-5.16Z" transform="translate(0 0)"/></g></g></svg>