<svg xmlns="http://www.w3.org/2000/svg" viewBox="0 0 99.04 103.02"><defs><style>.cls-1,.cls-4,.cls-5{fill:none;}.cls-1,.cls-2,.cls-4,.cls-5,.cls-6{stroke:#63c932;}.cls-1,.cls-2,.cls-5{stroke-miterlimit:3;}.cls-1{stroke-width:8px;}.cls-2,.cls-6{fill:#fff;}.cls-2{stroke-width:6.02px;}.cls-3{fill:#63c932;}.cls-4,.cls-6{stroke-miterlimit:10;}.cls-4,.cls-5,.cls-6{stroke-width:4px;}</style></defs><title>153_1</title><g id="Layer_2" data-name="Layer 2"><g id="Layer_1-2" data-name="Layer 1"><path id="icone_boleto_0_Layer0_0_1_STROKES" data-name="icone boleto 0 Layer0 0 1 STROKES" class="cls-1" d="M13.59,20.3H77.87L66.73,99H14.45A10.11,10.11,0,0,1,4.13,87.16Z"/><path id="icone_relogio_0_Layer0_0_1_STROKES" data-name="icone relogio 0 Layer0 0 1 STROKES" class="cls-2" d="M96,23.31a19.54,19.54,0,0,1-6,14.33,20.29,20.29,0,0,1-28.71,0,19.56,19.56,0,0,1-5.93-14.33A19.6,19.6,0,0,1,61.37,9,20.32,20.32,0,0,1,90.08,9,19.58,19.58,0,0,1,96,23.31Z"/><g id="Layer0_1_MEMBER_5_FILL" data-name="Layer0 1 MEMBER 5 FILL"><path class="cls-3" d="M83.3,14.85c-.49-.13-1-.25-1.49-.35s-1-.15-1.55-.19l.56-2.24H78.14l-.51,2.15a12.19,12.19,0,0,0-3.31.38,3.91,3.91,0,0,0-2,1.38,6.13,6.13,0,0,0-.94,2.79,4.68,4.68,0,0,0,.33,3,4.41,4.41,0,0,0,2.38,1.84l3.12,1.17a4,4,0,0,1,.87.37.93.93,0,0,1,.43.53,2,2,0,0,1,0,.91,1.54,1.54,0,0,1-.68,1.24,4.29,4.29,0,0,1-2,.29H74.67c-.46,0-1,0-1.72,0l-2.5,0-.61,2.67q1,.21,1.89.33c.6.09,1.15.15,1.65.19l-.61,2.65h2.68l.6-2.57a10.47,10.47,0,0,0,3.27-.48,3.71,3.71,0,0,0,2-1.46,6.92,6.92,0,0,0,.93-2.8,4.86,4.86,0,0,0-.33-3,4.27,4.27,0,0,0-2.47-1.87l-2.93-1.08a4,4,0,0,1-1-.42,1,1,0,0,1-.5-.54,1.9,1.9,0,0,1,0-.91,2,2,0,0,1,.36-1,1.27,1.27,0,0,1,.82-.39,7.07,7.07,0,0,1,1.42-.09H80.3l2.42.07Z"/></g><line class="cls-4" x1="30.22" y1="61.2" x2="30.22" y2="99.23"/><line class="cls-4" x1="41.48" y1="66.2" x2="41.48" y2="99.23"/><path class="cls-5" d="M51.12,98.19v-27c-.3-3.84-4.62-3.42-4.55-.5"/><path class="cls-4" d="M30.22,48.36H41.48a0,0,0,0,1,0,0V66.2a0,0,0,0,1,0,0h-6a5.29,5.29,0,0,1-5.29-5.29V48.36A0,0,0,0,1,30.22,48.36Z"/><path class="cls-5" d="M22.26,68.43c0-14.94,7.34-20.07,7.34-20.07H42s6.9,3.64,6.9,20.58"/><circle class="cls-6" cx="35.55" cy="37.12" r="5.97"/></g></g></svg>