<svg xmlns="http://www.w3.org/2000/svg" viewBox="0 0 106.23 105.24"><defs><style>.cls-1,.cls-2{fill:none;stroke:#63c932;stroke-miterlimit:10;}.cls-1{stroke-width:8px;}.cls-2{stroke-width:4px;}.cls-3{fill:#63c932;}</style></defs><title>154_3</title><g id="Layer_2" data-name="Layer 2"><g id="Layer_1-2" data-name="Layer 1"><path id="Duplicate_Items_Folder_multipleWays_0_Layer0_0_1_STROKES" data-name="Duplicate Items Folder multipleWays 0 Layer0 0 1 STROKES" class="cls-1" d="M72,53.86a11.58,11.58,0,0,1-19.79,8.2A11.6,11.6,0,0,1,64.94,43.18,11.58,11.58,0,0,1,72,53.86Z"/><path id="Duplicate_Items_Folder_multipleWays_0_Layer0_1_1_STROKES" data-name="Duplicate Items Folder multipleWays 0 Layer0 1 1 STROKES" class="cls-2" d="M72.47,14.57a12.17,12.17,0,0,1-3.68,8.91,12.6,12.6,0,0,1-17.78,0,12.14,12.14,0,0,1-3.69-8.91A12.07,12.07,0,0,1,51,5.69a12.55,12.55,0,0,1,17.78,0A12.1,12.1,0,0,1,72.47,14.57Z"/><path id="Duplicate_Items_Folder_multipleWays_0_Layer0_2_1_STROKES" data-name="Duplicate Items Folder multipleWays 0 Layer0 2 1 STROKES" class="cls-2" d="M59.78,41.05l.12-12.61"/><path id="Duplicate_Items_Folder_multipleWays_0_Layer0_3_1_STROKES" data-name="Duplicate Items Folder multipleWays 0 Layer0 3 1 STROKES" class="cls-2" d="M46.69,97.36a12,12,0,0,0-4.16-16.48,11.55,11.55,0,0,0-9.1-1.33,12,12,0,1,0,5.88,23.3A11.56,11.56,0,0,0,46.69,97.36Z"/><path id="Duplicate_Items_Folder_multipleWays_0_Layer0_4_1_STROKES" data-name="Duplicate Items Folder multipleWays 0 Layer0 4 1 STROKES" class="cls-2" d="M53.35,65,43.56,81.48"/><path id="Duplicate_Items_Folder_multipleWays_0_Layer0_5_1_STROKES" data-name="Duplicate Items Folder multipleWays 0 Layer0 5 1 STROKES" class="cls-2" d="M79.45,91.22A12.59,12.59,0,1,1,97.26,73.41,12.59,12.59,0,1,1,79.45,91.22Z"/><path id="Duplicate_Items_Folder_multipleWays_0_Layer0_6_1_STROKES" data-name="Duplicate Items Folder multipleWays 0 Layer0 6 1 STROKES" class="cls-2" d="M69.21,62.66l9.65,9.94"/><path id="Duplicate_Items_Folder_multipleWays_0_Layer0_7_1_STROKES" data-name="Duplicate Items Folder multipleWays 0 Layer0 7 1 STROKES" class="cls-2" d="M100.37,37a13.15,13.15,0,0,1-18.61,0,12.68,12.68,0,0,1-3.86-9.3,12.7,12.7,0,0,1,3.86-9.31,13.15,13.15,0,0,1,18.61,0,12.7,12.7,0,0,1,3.86,9.31A12.68,12.68,0,0,1,100.37,37Z"/><path id="Duplicate_Items_Folder_multipleWays_0_Layer0_8_1_STROKES" data-name="Duplicate Items Folder multipleWays 0 Layer0 8 1 STROKES" class="cls-2" d="M70.87,44.35,81.2,35"/><path id="Duplicate_Items_Folder_multipleWays_0_Layer0_9_1_STROKES" data-name="Duplicate Items Folder multipleWays 0 Layer0 9 1 STROKES" class="cls-2" d="M15.19,66.87A12.72,12.72,0,0,0,24.52,63a13.19,13.19,0,0,0,0-18.65,12.75,12.75,0,0,0-9.33-3.86,12.71,12.71,0,0,0-9.32,3.86A13.17,13.17,0,0,0,5.87,63,12.68,12.68,0,0,0,15.19,66.87Z"/><path id="Duplicate_Items_Folder_multipleWays_0_Layer0_10_1_STROKES" data-name="Duplicate Items Folder multipleWays 0 Layer0 10 1 STROKES" class="cls-2" d="M47.36,54.2H26.66"/><path class="cls-3" d="M38.29,90.32a2.92,2.92,0,0,1,2.2,3.38c-.16,2.48-1.23,3.25-4,3.3l-.29,1.8H34.32L34.61,97a18.59,18.59,0,0,1-2.49-.37l.28-1.86c2.1,0,3.05.07,3.77.07,1.33,0,1.71-.19,1.77-1.07s-.25-1-1-1.26l-2.23-.82a2.93,2.93,0,0,1-2.14-3.36c.16-2.55,1.32-3.15,4.11-3.18l.25-1.5h1.86l-.27,1.56a11.86,11.86,0,0,1,2.14.39l-.26,1.73c-1,0-2.36,0-3.59,0s-1.66.07-1.73,1c0,.8.27,1,1.14,1.3Z"/><path class="cls-3" d="M17.11,52.19a2.92,2.92,0,0,1,2.2,3.38c-.16,2.48-1.24,3.25-4,3.3L15,60.66H13.14l.29-1.84a19,19,0,0,1-2.5-.37l.29-1.86c2.1,0,3,.06,3.77.06,1.33,0,1.71-.18,1.77-1.06s-.26-1-1-1.27l-2.23-.81a2.94,2.94,0,0,1-2.15-3.37C11.52,47.6,12.68,47,15.47,47l.25-1.5h1.86L17.31,47a11.84,11.84,0,0,1,2.14.38l-.26,1.74c-1,0-2.37,0-3.59,0s-1.67.06-1.73,1c0,.8.27,1,1.14,1.3Z"/><path class="cls-3" d="M61.82,13.7A2.92,2.92,0,0,1,64,17.08c-.16,2.48-1.23,3.24-4,3.29l-.28,1.8H57.85l.28-1.85A18.4,18.4,0,0,1,55.64,20l.29-1.87c2.09.05,3,.07,3.77.07,1.33,0,1.71-.18,1.76-1.06s-.25-1-1-1.27L58.21,15a2.93,2.93,0,0,1-2.15-3.36c.16-2.54,1.33-3.14,4.11-3.18L60.42,7h1.87L62,8.54a12.16,12.16,0,0,1,2.14.38l-.27,1.73c-1,0-2.36-.05-3.58-.05s-1.67.07-1.73,1.05c0,.8.27,1,1.14,1.3Z"/><path class="cls-3" d="M92.82,26.7A2.92,2.92,0,0,1,95,30.08c-.16,2.48-1.23,3.24-4,3.29l-.28,1.8H88.85l.28-1.85A18.4,18.4,0,0,1,86.64,33l.29-1.87c2.09.05,3,.07,3.77.07,1.33,0,1.71-.18,1.76-1.06s-.25-1-1-1.27L89.21,28a2.93,2.93,0,0,1-2.15-3.36c.16-2.54,1.33-3.14,4.11-3.18L91.42,20h1.87L93,21.54a12.16,12.16,0,0,1,2.14.38l-.27,1.73c-1,0-2.36,0-3.58,0s-1.67.07-1.73,1c0,.8.27,1,1.14,1.3Z"/><path class="cls-3" d="M90,80.6A2.92,2.92,0,0,1,92.18,84c-.16,2.48-1.23,3.25-4,3.3l-.28,1.79H86l.29-1.84a18.59,18.59,0,0,1-2.49-.37L84.1,85c2.09,0,3,.06,3.77.06,1.32,0,1.7-.18,1.76-1.06s-.25-1-1-1.27l-2.22-.81a2.94,2.94,0,0,1-2.15-3.37c.16-2.54,1.32-3.14,4.11-3.17l.25-1.5h1.86l-.27,1.56a12.78,12.78,0,0,1,2.14.38l-.26,1.74c-1,0-2.36,0-3.59,0s-1.66.06-1.73,1c0,.8.27,1,1.14,1.3Z"/></g></g></svg>