<svg xmlns="http://www.w3.org/2000/svg" viewBox="0 0 95.09 107.86"><defs><style>.cls-1,.cls-2{fill:#fff;stroke:#63c932;stroke-miterlimit:10;}.cls-1{stroke-width:8px;}.cls-2{stroke-width:4px;}.cls-3{fill:#63c932;}</style></defs><title>154_1</title><g id="Layer_2" data-name="Layer 2"><g id="Layer_1-2" data-name="Layer 1"><path class="cls-1" d="M12,75.62H8.69L4.62,103.86H20.54l2.25-15.62C23.79,81.27,19,75.62,12,75.62Z"/><path class="cls-1" d="M42.37,58.43H39.06l-6.54,45.43H48.44l4.73-32.81C54.17,64.08,49.34,58.43,42.37,58.43Z"/><path class="cls-1" d="M72.75,41.24H69.44l-9,62.62H76.34l7.2-50C84.55,46.89,79.71,41.24,72.75,41.24Z"/><line class="cls-2" x1="5.3" y1="61.18" x2="73.91" y2="19.39"/><g id="graficos_0_Layer0_2_FILL" data-name="graficos 0 Layer0 2 FILL"><path class="cls-3" d="M8.33,61.38a2.93,2.93,0,0,0-.65-2.44,2.87,2.87,0,0,0-2.29-1,3.79,3.79,0,0,0-2.58,1,3.89,3.89,0,0,0-1.36,2.44,2.93,2.93,0,0,0,.66,2.43,2.85,2.85,0,0,0,2.29,1,3.84,3.84,0,0,0,2.58-1A3.93,3.93,0,0,0,8.33,61.38Z"/></g><g id="graficos_0_Layer0_2_FILL-2" data-name="graficos 0 Layer0 2 FILL"><path class="cls-3" d="M76.66,19.39A2.92,2.92,0,0,0,76,17a2.88,2.88,0,0,0-2.29-1,3.82,3.82,0,0,0-2.58,1,3.89,3.89,0,0,0-1.36,2.43,2.94,2.94,0,0,0,.66,2.44,2.85,2.85,0,0,0,2.29,1,3.83,3.83,0,0,0,2.58-1A3.92,3.92,0,0,0,76.66,19.39Z"/></g><path id="Duplicate_Items_Folder_multipleWays_0_Layer0_3_1_STROKES" data-name="Duplicate Items Folder multipleWays 0 Layer0 3 1 STROKES" class="cls-2" d="M90.89,25.27a14.81,14.81,0,0,0,1.7-11.63,14.74,14.74,0,0,0-7-9.43,15.36,15.36,0,0,0-21,5.31,14.73,14.73,0,0,0-1.7,11.63,14.75,14.75,0,0,0,7,9.43,15.37,15.37,0,0,0,21.06-5.31Z"/><path class="cls-3" d="M80.15,16.28A3.72,3.72,0,0,1,83,20.59c-.2,3.17-1.58,4.15-5.14,4.21l-.36,2.3H75.08l.37-2.36a22.59,22.59,0,0,1-3.19-.47l.37-2.38c2.67.06,3.9.09,4.82.09,1.69,0,2.18-.24,2.25-1.37s-.32-1.29-1.31-1.61l-2.85-1a3.75,3.75,0,0,1-2.74-4.3c.21-3.25,1.69-4,5.25-4.06l.32-1.92h2.38l-.34,2a15.78,15.78,0,0,1,2.73.49l-.33,2.21c-1.25,0-3-.06-4.59-.06s-2.13.09-2.21,1.34c-.06,1,.35,1.3,1.46,1.66Z"/></g></g></svg>