<svg xmlns="http://www.w3.org/2000/svg" viewBox="0 0 102.66 109.62"><defs><style>.cls-1,.cls-2{fill:none;stroke-linecap:square;stroke-miterlimit:3;}.cls-1,.cls-2,.cls-4{stroke:#63c932;}.cls-1,.cls-4{stroke-width:4px;}.cls-2{stroke-width:8px;}.cls-3{fill:#63c932;}.cls-4{fill:#fff;stroke-miterlimit:10;}</style></defs><title>154_2</title><g id="Layer_2" data-name="Layer 2"><g id="Layer_1-2" data-name="Layer 1"><path id="graficos_0_Layer0_0_1_STROKES" data-name="graficos 0 Layer0 0 1 STROKES" class="cls-1" d="M22.64,63.69l20.22-22L68.48,56.47l27-32"/><path id="graficos_0_Layer0_1_1_STROKES" data-name="graficos 0 Layer0 1 1 STROKES" class="cls-2" d="M97.82,87H21.76V4"/><g id="graficos_0_Layer0_2_FILL" data-name="graficos 0 Layer0 2 FILL"><path class="cls-3" d="M102.66,21.89a5,5,0,1,0-8.54,3.54,5,5,0,0,0,8.54-3.54Z"/></g><g id="graficos_0_Layer0_3_FILL" data-name="graficos 0 Layer0 3 FILL"><path class="cls-3" d="M73.06,56.29a5,5,0,1,0-1.46,3.54A4.82,4.82,0,0,0,73.06,56.29Z"/></g><g id="graficos_0_Layer0_4_FILL" data-name="graficos 0 Layer0 4 FILL"><path class="cls-3" d="M49,41.09a5,5,0,1,0-1.46,3.54A4.82,4.82,0,0,0,49,41.09Z"/></g><path id="Duplicate_Items_Folder_multipleWays_0_Layer0_3_1_STROKES" data-name="Duplicate Items Folder multipleWays 0 Layer0 3 1 STROKES" class="cls-4" d="M40.32,97.53A20.6,20.6,0,0,0,33.2,69.3,19.8,19.8,0,0,0,17.6,67,19.78,19.78,0,0,0,5,76.42a20.61,20.61,0,0,0,7.12,28.24,19.8,19.8,0,0,0,15.6,2.28A19.79,19.79,0,0,0,40.32,97.53Z"/><path class="cls-3" d="M25.93,85.48c3.06,1.11,3.95,2.91,3.77,5.79-.28,4.25-2.12,5.56-6.9,5.65L22.32,100H19.13l.49-3.17a29.82,29.82,0,0,1-4.27-.63L15.84,93c3.59.08,5.23.11,6.46.11,2.27,0,2.93-.31,3-1.82s-.43-1.74-1.75-2.17l-3.82-1.4c-2.9-1.08-3.87-2.85-3.69-5.76.29-4.36,2.28-5.39,7.06-5.45L23.54,74h3.19l-.46,2.68a19.88,19.88,0,0,1,3.67.65l-.45,3c-1.67-.06-4-.09-6.15-.09s-2.85.12-3,1.8c-.09,1.37.46,1.74,1.95,2.23Z"/></g></g></svg>