<svg xmlns="http://www.w3.org/2000/svg" viewBox="0 0 136.49 137.41"><defs><style>.cls-1,.cls-3{fill:#fff;}.cls-1,.cls-2,.cls-3{stroke:#63c932;stroke-miterlimit:10;}.cls-1{stroke-width:8px;}.cls-2{fill:none;}.cls-2,.cls-3{stroke-width:4px;}.cls-4{fill:#63c932;}</style></defs><title>155_5</title><g id="Layer_2" data-name="Layer 2"><g id="Layer_1-2" data-name="Layer 1"><path id="icone_relogio_0_Layer0_0_1_STROKES" data-name="icone relogio 0 Layer0 0 1 STROKES" class="cls-1" d="M86.34,92.27a39.6,39.6,0,0,1-12.07,29.07,39.66,39.66,0,0,1-29.1,12.07A39.69,39.69,0,0,1,16,121.34,39.61,39.61,0,0,1,4,92.27,39.74,39.74,0,0,1,16,63.14a39.74,39.74,0,0,1,29.13-12,39.71,39.71,0,0,1,29.1,12A39.73,39.73,0,0,1,86.34,92.27Z"/><path id="icone_relogio_0_Layer0_0_1_STROKES-2" data-name="icone relogio 0 Layer0 0 1 STROKES" class="cls-2" d="M86.34,92.26q0,9.17-12.07,15.64t-29.1,6.49q-17.06,0-29.13-6.49T4,92.26q0-9.18,12-15.67t29.13-6.48q17,0,29.1,6.48T86.34,92.26Z"/><path id="icone_relogio_0_Layer0_0_1_STROKES-3" data-name="icone relogio 0 Layer0 0 1 STROKES" class="cls-2" d="M64.82,92.27q0,17-5.76,29.07T45.17,133.41q-8.14,0-13.91-12.07T25.51,92.27q0-17.05,5.75-29.13t13.91-12q8.13,0,13.89,12T64.82,92.27Z"/><line class="cls-3" x1="45.01" y1="48.38" x2="45.01" y2="135.96"/><line class="cls-3" x1="4.09" y1="94.41" x2="84.64" y2="94.41"/><path id="Duplicate_Items_Folder_multipleWays_0_Layer0_5_1_STROKES" data-name="Duplicate Items Folder multipleWays 0 Layer0 5 1 STROKES" class="cls-1" d="M84,52.5a27.38,27.38,0,0,1-8.32-20.09A27.35,27.35,0,0,1,84,12.33a28.38,28.38,0,0,1,40.17,0,27.36,27.36,0,0,1,8.33,20.08,27.39,27.39,0,0,1-8.33,20.09A28.4,28.4,0,0,1,84,52.5Z"/><path class="cls-3" d="M115.8,23a13.74,13.74,0,1,0,0,18.59"/><line class="cls-2" x1="106.85" y1="29.99" x2="86.53" y2="29.99"/><line class="cls-2" x1="106.85" y1="35.01" x2="86.53" y2="35.01"/><g id="icone_relogio_0_Layer0_7_FILL" data-name="icone relogio 0 Layer0 7 FILL"><path class="cls-4" d="M67.49,52.86a10.63,10.63,0,0,0,4,8.7,89.57,89.57,0,0,1,10.74,11c.48.62-.07,2.29,4.26,2-4.29-8-2.61-15.15,10.19-11.07-10.7-5.76-15.78-12.89-22-20.63C77.23,51,73.28,56.24,67.49,52.86Z"/></g></g></g></svg>