<svg xmlns="http://www.w3.org/2000/svg" viewBox="0 0 95.09 121.67"><defs><style>.cls-1,.cls-2,.cls-5{fill:#fff;}.cls-1,.cls-2,.cls-4{stroke:#63c932;}.cls-1,.cls-2{stroke-miterlimit:10;}.cls-1{stroke-width:8px;}.cls-2,.cls-4{stroke-width:4px;}.cls-3{fill:#63c932;}.cls-4{fill:none;stroke-linecap:square;stroke-miterlimit:3;}</style></defs><title>155_4</title><g id="Layer_2" data-name="Layer 2"><g id="Layer_1-2" data-name="Layer 1"><path class="cls-1" d="M12,89.44H8.69L4.62,117.67H20.54l2.25-15.62C23.79,95.09,19,89.44,12,89.44Z"/><path class="cls-1" d="M42.37,72.25H39.06l-6.54,45.42H48.44l4.73-32.81C54.17,77.89,49.34,72.25,42.37,72.25Z"/><path class="cls-1" d="M72.75,55.06H69.44l-9,62.61H76.34l7.2-50C84.55,60.7,79.71,55.06,72.75,55.06Z"/><line class="cls-2" x1="5.3" y1="74.99" x2="73.91" y2="33.21"/><g id="graficos_0_Layer0_2_FILL" data-name="graficos 0 Layer0 2 FILL"><path class="cls-3" d="M8.33,75.19a2.92,2.92,0,0,0-.65-2.43,2.88,2.88,0,0,0-2.29-1,3.8,3.8,0,0,0-2.58,1,3.89,3.89,0,0,0-1.36,2.43,2.94,2.94,0,0,0,.66,2.44,2.85,2.85,0,0,0,2.29,1,3.83,3.83,0,0,0,2.58-1A3.92,3.92,0,0,0,8.33,75.19Z"/></g><g id="graficos_0_Layer0_2_FILL-2" data-name="graficos 0 Layer0 2 FILL"><path class="cls-3" d="M76.66,33.21A2.93,2.93,0,0,0,76,30.77a2.87,2.87,0,0,0-2.29-1,3.81,3.81,0,0,0-2.58,1,3.89,3.89,0,0,0-1.36,2.44,2.93,2.93,0,0,0,.66,2.43,2.85,2.85,0,0,0,2.29,1,3.83,3.83,0,0,0,2.58-1A3.93,3.93,0,0,0,76.66,33.21Z"/></g><path id="Duplicate_Items_Folder_multipleWays_0_Layer0_3_1_STROKES" data-name="Duplicate Items Folder multipleWays 0 Layer0 3 1 STROKES" class="cls-2" d="M90.89,39.08a14.81,14.81,0,0,0,1.7-11.63A15.35,15.35,0,0,0,73.94,16.32a14.74,14.74,0,0,0-9.42,7A14.73,14.73,0,0,0,62.82,35,15.34,15.34,0,0,0,81.46,46.09,14.79,14.79,0,0,0,90.89,39.08Z"/><path class="cls-3" d="M80.15,30.09A3.73,3.73,0,0,1,83,34.41c-.2,3.17-1.58,4.14-5.14,4.21l-.36,2.3H75.08l.37-2.37a24,24,0,0,1-3.19-.46l.37-2.39c2.67.07,3.9.09,4.82.09,1.69,0,2.18-.23,2.25-1.36s-.32-1.3-1.31-1.62l-2.85-1a3.75,3.75,0,0,1-2.74-4.3c.21-3.25,1.69-4,5.25-4.06l.32-1.91h2.38l-.34,2a14.09,14.09,0,0,1,2.73.49l-.33,2.21c-1.25,0-3-.07-4.59-.07s-2.13.09-2.21,1.34c-.06,1,.35,1.3,1.46,1.66Z"/><path id="Money_bom2_0_Layer0_0_1_STROKES" data-name="Money bom2 0 Layer0 0 1 STROKES" class="cls-4" d="M78.65,12.07c0-.13,0-.27,0-.41a9.28,9.28,0,0,1,2.83-6.83A9.28,9.28,0,0,1,88.3,2a10.74,10.74,0,0,1,1.4.09"/><g id="Money_bom2_0_Layer0_1_FILL" data-name="Money bom2 0 Layer0 1 FILL"><path class="cls-5" d="M84.56,17V11.56h-12V17Z"/></g><path id="Money_bom2_0_Layer0_1_1_STROKES" data-name="Money bom2 0 Layer0 1 1 STROKES" class="cls-4" d="M72.52,11.56h12V17h-12Z"/><g id="Money_bom2_0_Layer0_3_FILL" data-name="Money bom2 0 Layer0 3 FILL"><path class="cls-3" d="M93.65,2.42A2.12,2.12,0,0,0,93,.85a2.2,2.2,0,0,0-3.14,0,2.15,2.15,0,0,0-.65,1.57A2.17,2.17,0,0,0,89.85,4,2.22,2.22,0,0,0,93,4,2.14,2.14,0,0,0,93.65,2.42Z"/></g></g></g></svg>