<svg xmlns="http://www.w3.org/2000/svg" viewBox="0 0 109.95 115.99"><defs><style>.cls-1,.cls-2{fill:#fff;stroke:#63c932;}.cls-1{stroke-miterlimit:3;stroke-width:8px;}.cls-2{stroke-miterlimit:10;stroke-width:4px;}.cls-3{fill:#63c932;}</style></defs><title>155_2</title><g id="Layer_2" data-name="Layer 2"><g id="Layer_1-2" data-name="Layer 1"><path id="icone_boleto_0_Layer0_0_1_STROKES" data-name="icone boleto 0 Layer0 0 1 STROKES" class="cls-1" d="M17.16,4h88.18L90.06,112H18.34A13.86,13.86,0,0,1,4.18,95.72Z"/><path class="cls-2" d="M27.52,75.43H25.08l-3,20.88H33.84l1.67-11.55A7.9,7.9,0,0,0,27.52,75.43Z"/><path class="cls-2" d="M50,62.72H47.54L42.7,96.31H54.47L58,72.05A7.88,7.88,0,0,0,50,62.72Z"/><path class="cls-2" d="M72.44,50H70l-6.68,46.3H75.09l5.33-37A7.89,7.89,0,0,0,72.44,50Z"/><line class="cls-2" x1="22.57" y1="64.75" x2="73.3" y2="33.86"/><g id="graficos_0_Layer0_2_FILL" data-name="graficos 0 Layer0 2 FILL"><path class="cls-3" d="M24.82,64.9a2.15,2.15,0,0,0-2.18-2.54,3,3,0,0,0-2.91,2.54,2.19,2.19,0,0,0,.48,1.8,2.15,2.15,0,0,0,1.7.74,2.83,2.83,0,0,0,1.9-.74A2.94,2.94,0,0,0,24.82,64.9Z"/></g><g id="graficos_0_Layer0_2_FILL-2" data-name="graficos 0 Layer0 2 FILL"><path class="cls-3" d="M75.33,33.86a2.14,2.14,0,0,0-.48-1.8,2.1,2.1,0,0,0-1.69-.74,2.8,2.8,0,0,0-1.91.74,2.87,2.87,0,0,0-1,1.8,2.19,2.19,0,0,0,.48,1.8,2.15,2.15,0,0,0,1.7.74,2.83,2.83,0,0,0,1.9-.74A2.88,2.88,0,0,0,75.33,33.86Z"/></g><path id="Duplicate_Items_Folder_multipleWays_0_Layer0_3_1_STROKES" data-name="Duplicate Items Folder multipleWays 0 Layer0 3 1 STROKES" class="cls-2" d="M85.85,38.2a10.92,10.92,0,0,0,1.26-8.6,11.35,11.35,0,0,0-20.76-3,11,11,0,0,0-1.25,8.6,11.35,11.35,0,0,0,20.75,3Z"/><path class="cls-3" d="M77.92,31.55A2.77,2.77,0,0,1,80,34.75c-.15,2.34-1.16,3.06-3.8,3.11l-.27,1.7H74.16l.28-1.75a16.11,16.11,0,0,1-2.36-.34l.27-1.76c2,0,2.88.06,3.57.06,1.25,0,1.61-.17,1.66-1s-.24-1-1-1.19l-2.1-.77a2.77,2.77,0,0,1-2-3.18c.15-2.41,1.25-3,3.88-3l.24-1.42h1.76l-.26,1.48a10.8,10.8,0,0,1,2,.36l-.25,1.64c-.92,0-2.24-.05-3.39-.05s-1.58.06-1.64,1c0,.76.26,1,1.08,1.23Z"/></g></g></svg>