<svg xmlns="http://www.w3.org/2000/svg" viewBox="0 0 125.21 125.71"><defs><style>.cls-1{fill:#fff;stroke-miterlimit:10;stroke-width:4px;}.cls-1,.cls-2,.cls-3{stroke:#63c932;}.cls-2,.cls-3{fill:none;stroke-miterlimit:3;}.cls-2{stroke-width:8px;}.cls-3{stroke-width:5.55px;}.cls-4{fill:#63c932;}</style></defs><title>155_3</title><g id="Layer_2" data-name="Layer 2"><g id="Layer_1-2" data-name="Layer 1"><polygon class="cls-1" points="48 109.82 54.45 102.16 54.05 99.13 63.73 94.7 66.95 88.45 67.16 80.78 68.97 80.38 74.01 73.12 72.4 69.09 62.12 66.07 58.08 67.48 58.89 64.25 55.26 63.04 52.64 65.46 49.01 64.86 52.24 59.62 49.62 55.99 43.77 59.62 38.33 60.22 37.32 54.37 32.08 57.2 32.88 59.62 29.43 61.25 28.04 60.02 23.77 62.05 25.22 64.45 23.81 69.29 18.57 70.1 18.77 73.93 20.99 77.16 27.24 78.16 30.33 76.28 30.66 79.37 37.32 82.26 38.39 85.69 41.53 88.66 41.62 93.96 48.2 99.13 47.2 101.55 42.16 105.99 48 109.82 48 109.82"/><path id="icone_relogio_0_Layer0_0_1_STROKES" data-name="icone relogio 0 Layer0 0 1 STROKES" class="cls-2" d="M91.15,78.16a41.89,41.89,0,0,1-12.78,30.78,42,42,0,0,1-30.8,12.77,42,42,0,0,1-30.82-12.77A41.94,41.94,0,0,1,4,78.16,42,42,0,0,1,16.75,47.34,42,42,0,0,1,47.57,34.59a42,42,0,0,1,30.8,12.75A42,42,0,0,1,91.15,78.16Z"/><path id="icone_relogio_0_Layer0_6_1_STROKES" data-name="icone relogio 0 Layer0 6 1 STROKES" class="cls-3" d="M122.44,24.76A21.1,21.1,0,0,1,116,40.28a21.91,21.91,0,0,1-31.07,0,21.14,21.14,0,0,1-6.43-15.52A21.26,21.26,0,0,1,84.9,9.2,22,22,0,0,1,116,9.2,21.22,21.22,0,0,1,122.44,24.76Z"/><g id="icone_relogio_0_Layer0_7_FILL" data-name="icone relogio 0 Layer0 7 FILL"><path class="cls-4" d="M70.84,37.69c-.22,4.3.56,7.21,2.33,8.71A88.94,88.94,0,0,1,83.92,57.45c.48.63,2,1.61,6.38,1.29-4.29-8-4.73-14.48,8.07-10.4-10.7-5.76-15.79-12.89-22.05-20.63C78.87,35.85,76.63,41.07,70.84,37.69Z"/></g><path class="cls-4" d="M104.45,24c3.07,1.11,4,2.91,3.77,5.79-.27,4.25-2.11,5.56-6.89,5.65l-.49,3.08H97.65l.49-3.17a31.35,31.35,0,0,1-4.27-.62l.5-3.2c3.58.09,5.22.12,6.46.12,2.27,0,2.92-.32,3-1.83s-.44-1.74-1.76-2.17l-3.82-1.39c-2.89-1.09-3.87-2.86-3.68-5.77.28-4.36,2.27-5.39,7-5.44l.43-2.57h3.19l-.46,2.68a20.66,20.66,0,0,1,3.66.66l-.45,3c-1.66-.05-4.05-.08-6.15-.08s-2.85.11-3,1.79c-.09,1.37.46,1.74,2,2.23Z"/></g></g></svg>