<svg xmlns="http://www.w3.org/2000/svg" viewBox="0 0 81.45 111.49"><defs><style>.cls-1{fill:#fff;stroke-width:4px;}.cls-1,.cls-2{stroke:#63c932;stroke-miterlimit:10;}.cls-2{fill:none;stroke-width:8px;}.cls-3{fill:#63c932;}</style></defs><title>155_1</title><g id="Layer_2" data-name="Layer 2"><g id="Layer_1-2" data-name="Layer 1"><path class="cls-1" d="M19.57,27.93H17.69L15.38,44h9l1.28-8.87A6.06,6.06,0,0,0,19.57,27.93Z"/><path class="cls-1" d="M36.82,18.17H34.94L31.22,44h9l2.68-18.63A6.05,6.05,0,0,0,36.82,18.17Z"/><path class="cls-1" d="M54.06,8.41H52.18L47.06,44h9l4.09-28.39A6.05,6.05,0,0,0,54.06,8.41Z"/><path class="cls-1" d="M72.45,2H70.57L64.44,44.55h9l5.1-35.39A6.06,6.06,0,0,0,72.45,2Z"/><path id="calendario_0_Layer0_0_1_STROKES" data-name="calendario 0 Layer0 0 1 STROKES" class="cls-2" d="M69.13,107.49H9.89a5.84,5.84,0,0,1-4.54-1.85,5,5,0,0,1-1.26-4.46l6.57-41.75h66.1Z"/><g id="calendario_0_Layer0_1_FILL" data-name="calendario 0 Layer0 1 FILL"><path class="cls-3" d="M26.38,66.6H18l-.95,6.14a.77.77,0,0,0,.15.63.73.73,0,0,0,.57.25h7.52Z"/></g><g id="calendario_0_Layer0_2_FILL" data-name="calendario 0 Layer0 2 FILL"><path class="cls-3" d="M39.42,66.6H31l-1,6.14a.82.82,0,0,0,.16.63.76.76,0,0,0,.58.25h7.51Z"/></g><g id="calendario_0_Layer0_3_FILL" data-name="calendario 0 Layer0 3 FILL"><path class="cls-3" d="M52.45,66.6H44.07l-1,6.14a.77.77,0,0,0,.15.63.78.78,0,0,0,.59.25h7.5Z"/></g><g id="calendario_0_Layer0_4_FILL" data-name="calendario 0 Layer0 4 FILL"><path class="cls-3" d="M65.5,66.6H57.11l-1,6.14a.77.77,0,0,0,.15.63.8.8,0,0,0,.59.25h7.52Z"/></g><g id="calendario_0_Layer0_5_FILL" data-name="calendario 0 Layer0 5 FILL"><path class="cls-3" d="M24.38,79.52H16l-1,6.15a.75.75,0,0,0,.15.62.72.72,0,0,0,.58.25h7.51Z"/></g><g id="calendario_0_Layer0_6_FILL" data-name="calendario 0 Layer0 6 FILL"><path class="cls-3" d="M37.41,79.52H29l-1,6.15a.79.79,0,0,0,.16.62.73.73,0,0,0,.58.25h7.51Z"/></g><g id="calendario_0_Layer0_7_FILL" data-name="calendario 0 Layer0 7 FILL"><path class="cls-3" d="M50.44,79.52H42.06l-1,6.15a.71.71,0,0,0,.74.87h7.5Z"/></g><g id="calendario_0_Layer0_8_FILL" data-name="calendario 0 Layer0 8 FILL"><path class="cls-3" d="M63.49,79.52H55.1l-1,6.15a.76.76,0,0,0,.16.62.73.73,0,0,0,.58.25H62.4Z"/></g><g id="calendario_0_Layer0_9_FILL" data-name="calendario 0 Layer0 9 FILL"><path class="cls-3" d="M21.28,99.47l1.09-7H14l-1,6.14a.81.81,0,0,0,.15.63.76.76,0,0,0,.58.25Z"/></g><g id="calendario_0_Layer0_10_FILL" data-name="calendario 0 Layer0 10 FILL"><path class="cls-3" d="M34.31,99.47l1.09-7H27l-.95,6.14a.77.77,0,0,0,.15.63.78.78,0,0,0,.59.25Z"/></g><g id="calendario_0_Layer0_11_FILL" data-name="calendario 0 Layer0 11 FILL"><path class="cls-3" d="M47.34,99.47l1.1-7H40.05l-.95,6.14a.77.77,0,0,0,.15.63.78.78,0,0,0,.59.25Z"/></g><g id="calendario_0_Layer0_12_FILL" data-name="calendario 0 Layer0 12 FILL"><path class="cls-3" d="M60.39,99.47l1.09-7H53.09l-1,6.14a.82.82,0,0,0,.16.63.76.76,0,0,0,.58.25Z"/></g><g id="calendario_0_Layer0_13_FILL" data-name="calendario 0 Layer0 13 FILL"><path class="cls-3" d="M17.51,50.59H11.57L10.1,60H16Z"/></g><g id="calendario_0_Layer0_14_FILL" data-name="calendario 0 Layer0 14 FILL"><path class="cls-3" d="M29.6,50.59H23.66L22.19,60h5.95Z"/></g><g id="calendario_0_Layer0_15_FILL" data-name="calendario 0 Layer0 15 FILL"><path class="cls-3" d="M41.7,50.59h-6L34.29,60h5.94Z"/></g><g id="calendario_0_Layer0_16_FILL" data-name="calendario 0 Layer0 16 FILL"><path class="cls-3" d="M53.81,50.59h-6L46.4,60h5.94Z"/></g><g id="calendario_0_Layer0_17_FILL" data-name="calendario 0 Layer0 17 FILL"><path class="cls-3" d="M65.23,50.59h-6L57.82,60h5.94Z"/></g><g id="calendario_0_Layer0_18_FILL" data-name="calendario 0 Layer0 18 FILL"><path class="cls-3" d="M77.32,50.59H71.38L69.91,60h6Z"/></g></g></g></svg>