<svg xmlns="http://www.w3.org/2000/svg" viewBox="0 0 139.8 139.78"><defs><style>.cls-1{fill:#63c932;}.cls-2{fill:#fff;}.cls-3{fill:none;stroke:#63c932;stroke-miterlimit:3;stroke-width:4px;}</style></defs><title>15_1</title><g id="Layer_2" data-name="Layer 2"><g id="Layer_1-2" data-name="Layer 1"><g id="moedaOrbita_0_Layer0_0_STROKES_1_FILL" data-name="moedaOrbita 0 Layer0 0 STROKES 1 FILL"><path class="cls-1" d="M18.26,110.75q-.71-.89-1.38-1.8a2,2,0,0,0-3.6.86,2,2,0,0,0,.36,1.5c.49.66,1,1.31,1.5,1.94a2,2,0,0,0,3.54-1,1.85,1.85,0,0,0-.42-1.46M8.78,95.83a1.87,1.87,0,0,0-1.52,0A1.91,1.91,0,0,0,6.2,97a2,2,0,0,0,0,1.54c.34.75.68,1.5,1,2.24a2,2,0,0,0,2.66.94A2,2,0,0,0,10.86,99c-.34-.69-.66-1.39-1-2.1a1.88,1.88,0,0,0-1.1-1.06M68.5,137.57a1.88,1.88,0,0,0-.54-1.42,1.92,1.92,0,0,0-1.4-.64c-.76,0-1.52-.07-2.28-.14a2,2,0,0,0-2.16,1.82,2,2,0,0,0,.46,1.46,1.93,1.93,0,0,0,1.36.7c.83.07,1.65.13,2.48.16a2,2,0,0,0,1.44-.54,1.94,1.94,0,0,0,.64-1.4m13.42-2.64a2,2,0,0,0-1.5-.34c-.76.13-1.53.25-2.3.36a1.92,1.92,0,0,0-1.32.76,2,2,0,0,0-.38,1.48,1.91,1.91,0,0,0,.76,1.32,2,2,0,0,0,1.48.4c.81-.11,1.62-.24,2.42-.38a1.9,1.9,0,0,0,1.3-.8,1.87,1.87,0,0,0,.34-1.5,1.91,1.91,0,0,0-.8-1.3m-33.68.62a2,2,0,0,0,1.18,1c.78.25,1.57.48,2.36.7a2,2,0,0,0,2.28-2.92,2,2,0,0,0-1.22-.94q-1.11-.3-2.22-.66a2,2,0,0,0-1.52.14,2,2,0,0,0-.86,2.7m-13.16-7.7a1.93,1.93,0,0,0-.2,1.5,2,2,0,0,0,.94,1.22c.73.41,1.46.8,2.18,1.18a2,2,0,0,0,2.84-2.36,1.91,1.91,0,0,0-1-1.18c-.68-.36-1.37-.73-2.06-1.12a1.93,1.93,0,0,0-1.52-.2,2,2,0,0,0-1.2,1M26.3,119a2,2,0,0,0-2.58,3.06l1.86,1.54a1.94,1.94,0,0,0,1.46.42,1.92,1.92,0,0,0,1.36-.74,1.84,1.84,0,0,0,.42-1.46,1.86,1.86,0,0,0-.74-1.34L26.3,119m11-19.16a1.94,1.94,0,0,0-1.42.56,2,2,0,0,0-.6,1.42,1.94,1.94,0,0,0,.56,1.42c.6.6,1.21,1.18,1.84,1.74a2,2,0,0,0,1.46.52A2.06,2.06,0,0,0,41,103.41a1.92,1.92,0,0,0-.68-1.38c-.56-.5-1.11-1-1.64-1.56a1.86,1.86,0,0,0-1.4-.6m39.86,17q1.25-.21,2.46-.48A2,2,0,0,0,81.14,114a1.87,1.87,0,0,0-.86-1.24,1.94,1.94,0,0,0-1.52-.28c-.75.17-1.5.32-2.26.44a2,2,0,0,0-.82,3.6,1.87,1.87,0,0,0,1.48.34M66.46,114a1.94,1.94,0,0,0-1.34-.76c-.76-.08-1.53-.19-2.3-.32a1.88,1.88,0,0,0-1.48.36,1.94,1.94,0,0,0-.82,1.28,2,2,0,0,0,.36,1.5,1.9,1.9,0,0,0,1.28.8c.84.14,1.67.26,2.5.36a1.89,1.89,0,0,0,1.48-.42,1.92,1.92,0,0,0,.74-1.34,1.85,1.85,0,0,0-.42-1.46m-13.64-3.42a2,2,0,0,0-1-1.12c-.69-.32-1.37-.65-2-1a2,2,0,0,0-1.54-.12,2,2,0,0,0-.3,3.68c.72.37,1.45.72,2.2,1.06a1.92,1.92,0,0,0,1.52.08,1.89,1.89,0,0,0,1.12-1,1.92,1.92,0,0,0,.08-1.54M72.3,90.45a2,2,0,0,0,.46,2.78,1.91,1.91,0,0,0,1.48.34A23.23,23.23,0,0,0,76.8,93a2,2,0,0,0-1.08-3.86,18,18,0,0,1-2.14.48,1.93,1.93,0,0,0-1.28.82M58,90.29a2,2,0,0,0,1,1.16,24.48,24.48,0,0,0,2.42,1,1.91,1.91,0,0,0,1.52-.08,2,2,0,0,0,1-1.14,2,2,0,0,0-1.22-2.54,18.33,18.33,0,0,1-1.94-.84,2,2,0,0,0-2.8,2.4M48,79.07a1.92,1.92,0,0,0,.12,1.52,24.05,24.05,0,0,0,1.3,2.26,2,2,0,0,0,1.28.86,2,2,0,0,0,2.06-3.06c-.39-.61-.75-1.24-1.08-1.88a2,2,0,0,0-3.68.3M27.08,89.49a2,2,0,0,0,.1,1.54c.38.76.76,1.5,1.16,2.22a2,2,0,0,0,1.2,1,2,2,0,0,0,2.3-2.9c-.36-.66-.72-1.34-1.06-2a2,2,0,0,0-1.16-1,1.92,1.92,0,0,0-1.52.1,2,2,0,0,0-1,1.14M25.72,74.83a2,2,0,0,0-1.5-.34,2,2,0,0,0-1.64,2.3q.23,1.23.48,2.46a2,2,0,0,0,.88,1.26,2,2,0,0,0,3-2.12c-.16-.75-.31-1.5-.44-2.26a1.91,1.91,0,0,0-.8-1.3M23.44,60.55a2,2,0,0,0-.82,1.3q-.2,1.23-.36,2.46a1.93,1.93,0,0,0,.42,1.46,2,2,0,0,0,1.34.76,1.92,1.92,0,0,0,1.46-.42,1.88,1.88,0,0,0,.76-1.32c.09-.76.2-1.52.32-2.28A1.83,1.83,0,0,0,26.22,61a2,2,0,0,0-2.78-.48m26,4a1.92,1.92,0,0,0-1.28-.82,2,2,0,0,0-1.5.34,2,2,0,0,0-.82,1.3c-.14.84-.24,1.69-.3,2.56a1.91,1.91,0,0,0,.5,1.44,2,2,0,0,0,2.8.2,1.94,1.94,0,0,0,.7-1.38c0-.73.13-1.44.24-2.14a1.89,1.89,0,0,0-.34-1.5M26.4,49.77a2,2,0,0,0,1,2.64,1.88,1.88,0,0,0,1.52.08,1.94,1.94,0,0,0,1.12-1q.5-1.05,1-2a2,2,0,0,0,.12-1.54,1.91,1.91,0,0,0-1-1.16,2,2,0,0,0-1.54-.12,1.94,1.94,0,0,0-1.16,1c-.37.72-.73,1.45-1.08,2.2m8.06-12.42a2,2,0,0,0-.5,1.46,1.89,1.89,0,0,0,.66,1.36,2,2,0,0,0,1.46.52A1.89,1.89,0,0,0,37.44,40c.51-.56,1-1.11,1.58-1.64a2,2,0,0,0,.6-1.4A1.9,1.9,0,0,0,39,35.55a1.86,1.86,0,0,0-1.4-.6,1.94,1.94,0,0,0-1.42.56c-.6.6-1.19,1.21-1.76,1.84M25.2,16.61a2,2,0,0,0-1.46.5c-.61.55-1.21,1.1-1.8,1.66a1.93,1.93,0,0,0-.62,1.4,2,2,0,0,0,.54,1.44,2,2,0,0,0,1.4.62,2,2,0,0,0,1.44-.56c.56-.53,1.12-1.06,1.7-1.58a1.88,1.88,0,0,0,.68-1.36,1.94,1.94,0,0,0-.52-1.46,1.87,1.87,0,0,0-1.36-.66M50,26.77a1.92,1.92,0,0,0-1.52.1c-.76.37-1.51.76-2.24,1.16a2,2,0,0,0,.4,3.68,1.93,1.93,0,0,0,1.52-.18c.68-.37,1.37-.72,2.08-1.06a2,2,0,0,0,1-1.16,1.84,1.84,0,0,0-.1-1.52,1.86,1.86,0,0,0-1.14-1m27.34,23.1a1.91,1.91,0,0,0,1,1.12,21.3,21.3,0,0,1,1.94,1,1.93,1.93,0,0,0,1.5.22,2,2,0,0,0,1.24-.92,2,2,0,0,0-.7-2.74,24.17,24.17,0,0,0-2.3-1.22,2,2,0,0,0-1.54-.06,1.94,1.94,0,0,0-1.12,1,1.91,1.91,0,0,0-.06,1.52m-11.84-.2a22.36,22.36,0,0,1,2.22-.34,1.92,1.92,0,0,0,1.36-.72,2,2,0,0,0-1.74-3.26,24.27,24.27,0,0,0-2.64.4,1.87,1.87,0,0,0-1.26.86,1.9,1.9,0,0,0-.3,1.5A2,2,0,0,0,64,49.37a2,2,0,0,0,1.5.3M54.72,51.25a1.93,1.93,0,0,0-1.42.52l-.62.6,0,0c-.43.42-.84.84-1.24,1.28A2,2,0,0,0,53.06,57a1.9,1.9,0,0,0,1.38-.66c.34-.37.68-.73,1-1.08l0,0,.52-.48a1.92,1.92,0,0,0,.64-1.4,1.88,1.88,0,0,0-.54-1.42,1.92,1.92,0,0,0-1.4-.64m9.4-28.64a2,2,0,0,0-1.5-.34q-1.21.21-2.46.48a2,2,0,0,0-1.52,2.38,2,2,0,0,0,.88,1.26,1.94,1.94,0,0,0,1.5.26c.76-.16,1.51-.31,2.26-.44a1.9,1.9,0,0,0,1.3-.8,1.87,1.87,0,0,0,.34-1.5,1.91,1.91,0,0,0-.8-1.3m11-.66a1.93,1.93,0,0,0-1.46.42,2,2,0,0,0-.76,1.34,2,2,0,0,0,.42,1.48,2,2,0,0,0,1.34.74c.77.09,1.54.2,2.3.32a2,2,0,0,0,1.5-.34A2,2,0,0,0,79,23.13a1.92,1.92,0,0,0-1.3-.82c-.83-.14-1.66-.26-2.5-.36M1.94,82.69a1.94,1.94,0,0,0-.28,1.5c.07.3.14.61.2.92h0c.13.57.26,1.14.4,1.7a1.93,1.93,0,0,0,.9,1.24,1.89,1.89,0,0,0,1.5.24,1.91,1.91,0,0,0,1.24-.9,1.93,1.93,0,0,0,.24-1.52c-.13-.53-.25-1.06-.36-1.6h0c-.06-.31-.13-.62-.2-.92a1.91,1.91,0,0,0-.86-1.26,1.94,1.94,0,0,0-1.52-.28,1.92,1.92,0,0,0-1.24.88M5.16,54.23a1.93,1.93,0,0,0-1.26-.88,1.91,1.91,0,0,0-1.5.28,1.93,1.93,0,0,0-.88,1.24c-.17.81-.34,1.62-.5,2.42a2,2,0,0,0,.32,1.5,2,2,0,0,0,1.28.84,1.94,1.94,0,0,0,1.5-.32A1.91,1.91,0,0,0,5,58c.15-.76.3-1.53.46-2.3a1.85,1.85,0,0,0-.26-1.5M4,69.55a1.93,1.93,0,0,0-.62-1.4A1.91,1.91,0,0,0,2,67.59a2,2,0,0,0-1.4.6A1.94,1.94,0,0,0,0,69.61c0,.81,0,1.63.08,2.46a1.93,1.93,0,0,0,.66,1.38A2,2,0,0,0,2.18,74a1.93,1.93,0,0,0,1.38-.66,1.92,1.92,0,0,0,.52-1.44C4,71.09,4,70.32,4,69.55M7.44,39.81a2,2,0,0,0-1.14,1q-.52,1.14-1,2.28a2,2,0,0,0,0,1.54,2,2,0,0,0,1.08,1.08,2,2,0,0,0,1.54,0A1.91,1.91,0,0,0,9,44.65c.3-.7.61-1.41.94-2.12A1.87,1.87,0,0,0,10,41a2,2,0,0,0-1-1.14,1.91,1.91,0,0,0-1.52-.06m7.74-12.58a1.94,1.94,0,0,0-1.3.8c-.48.66-1,1.33-1.42,2a2,2,0,0,0-.3,1.5A1.89,1.89,0,0,0,13,32.81a2,2,0,0,0,1.5.32,1.92,1.92,0,0,0,1.26-.84c.45-.65.9-1.28,1.36-1.9a2,2,0,0,0-.44-2.8,2,2,0,0,0-1.5-.36m65-26.18A1.88,1.88,0,0,0,78.88.29C78.05.18,77.22.08,76.38,0a2,2,0,0,0-2.16,1.82,2,2,0,0,0,.46,1.46A1.93,1.93,0,0,0,76,4c.78.07,1.55.15,2.32.26a1.88,1.88,0,0,0,1.46-.4,1.87,1.87,0,0,0,.78-1.32,1.94,1.94,0,0,0-.4-1.48M65.52.51A1.93,1.93,0,0,0,64.06.07l-2.44.3A2,2,0,0,0,59.9,2.61a1.91,1.91,0,0,0,.76,1.32,1.94,1.94,0,0,0,1.48.4c.78-.11,1.55-.2,2.32-.28a1.86,1.86,0,0,0,1.34-.72,1.87,1.87,0,0,0,.44-1.46A1.92,1.92,0,0,0,65.52.51m-17.1,7c.74-.25,1.49-.48,2.24-.7a1.92,1.92,0,0,0,1.18-1A1.94,1.94,0,0,0,52,4.31a2,2,0,0,0-1-1.2A1.92,1.92,0,0,0,49.54,3c-.8.23-1.59.48-2.38.74A2,2,0,0,0,45.9,6.21a2,2,0,0,0,1,1.16,1.93,1.93,0,0,0,1.52.12M32.8,11a1.93,1.93,0,0,0,.22,1.5,2,2,0,0,0,2.72.72c.67-.39,1.35-.78,2-1.16a2,2,0,0,0,1-1.18,1.93,1.93,0,0,0-.18-1.52,1.86,1.86,0,0,0-1.18-1,1.92,1.92,0,0,0-1.52.16c-.72.4-1.44.81-2.14,1.22A2,2,0,0,0,32.8,11M105,129.51a1.93,1.93,0,0,0,1.52-.24c.7-.42,1.39-.86,2.08-1.32a2,2,0,0,0,.56-2.76,1.87,1.87,0,0,0-1.26-.86,1.94,1.94,0,0,0-1.5.28c-.65.43-1.3.84-2,1.24a2,2,0,0,0-.68,2.76,2,2,0,0,0,1.24.9M95.5,131a1.91,1.91,0,0,0-1.52-.06c-.7.28-1.42.54-2.14.78a2,2,0,0,0-1.16,1,2,2,0,0,0-.1,1.52,1.91,1.91,0,0,0,1,1.14,1.88,1.88,0,0,0,1.52.1c.77-.26,1.53-.53,2.28-.82a2,2,0,0,0,1.12-1.06,2,2,0,0,0-1-2.62m-7-21.1a2,2,0,0,0,.1,1.52,2,2,0,0,0,2.66.94c.78-.38,1.54-.77,2.28-1.18a2,2,0,0,0,1-1.18,1.93,1.93,0,0,0-.18-1.52,1.86,1.86,0,0,0-1.18-1,1.92,1.92,0,0,0-1.52.16q-1,.56-2.1,1.08a2,2,0,0,0-1,1.14M103.7,98.55a2,2,0,0,0-1.38.64c-.51.57-1,1.12-1.58,1.66a1.94,1.94,0,0,0-.58,1.42,1.89,1.89,0,0,0,.58,1.4,1.94,1.94,0,0,0,1.42.6,1.86,1.86,0,0,0,1.4-.6c.59-.58,1.16-1.17,1.72-1.78a2,2,0,0,0,.52-1.44,1.93,1.93,0,0,0-.66-1.38,1.88,1.88,0,0,0-1.44-.52m13,22.24a2,2,0,0,0,1.44-.56q.9-.86,1.74-1.74a2,2,0,0,0,.56-1.44,1.93,1.93,0,0,0-.62-1.4,1.91,1.91,0,0,0-1.44-.54,2,2,0,0,0-1.4.62c-.52.55-1,1.08-1.6,1.6a1.93,1.93,0,0,0-.62,1.4,2,2,0,0,0,.54,1.44,2,2,0,0,0,1.4.62m7.52-14.1a1.9,1.9,0,0,0-.3,1.5,2,2,0,0,0,.84,1.28,2,2,0,0,0,1.5.3,2,2,0,0,0,1.28-.84c.45-.68.89-1.36,1.32-2.06a2,2,0,0,0-.62-2.76,2,2,0,0,0-2.76.64c-.41.66-.83,1.3-1.26,1.94m9-7.74a1.87,1.87,0,0,0,.08-1.52,1.91,1.91,0,0,0-1-1.14,1.88,1.88,0,0,0-1.52-.1,2,2,0,0,0-1.14,1c-.34.7-.69,1.4-1.06,2.08a2,2,0,0,0,.84,2.7,2,2,0,0,0,2.7-.84c.39-.72.76-1.46,1.12-2.2m4.88-14a1.85,1.85,0,0,0-.26-1.5,1.93,1.93,0,0,0-1.26-.88,1.91,1.91,0,0,0-1.5.28,1.93,1.93,0,0,0-.88,1.24c-.16.76-.35,1.5-.56,2.24a2,2,0,0,0,.2,1.52,1.94,1.94,0,0,0,1.2.94,2,2,0,0,0,2.46-1.4c.23-.8.43-1.62.6-2.44m-1.78-16.12a1.94,1.94,0,0,0-.58,1.42c0,.77,0,1.55,0,2.32a2,2,0,0,0,1.92,2.08,2,2,0,0,0,1.44-.54,1.94,1.94,0,0,0,.64-1.4c0-.82,0-1.64,0-2.46a1.92,1.92,0,0,0-.6-1.42,1.88,1.88,0,0,0-1.4-.58,2,2,0,0,0-1.42.58m1.84-13.24A2,2,0,0,0,135.86,54a1.87,1.87,0,0,0-1.26.86,1.9,1.9,0,0,0-.3,1.5q.24,1.14.42,2.28a2,2,0,0,0,.82,1.3,1.87,1.87,0,0,0,1.48.34,1.9,1.9,0,0,0,1.3-.8,1.87,1.87,0,0,0,.34-1.5c-.13-.81-.28-1.61-.44-2.42M109.78,87.65h0a.14.14,0,0,1,0,.06c-.32.71-.65,1.4-1,2.08a2,2,0,0,0-.12,1.54,2,2,0,0,0,1,1.16,1.92,1.92,0,0,0,1.52.12,2,2,0,0,0,1.16-1c.36-.71.71-1.44,1-2.18l0-.06a1.42,1.42,0,0,0,.08-.18,1.92,1.92,0,0,0,.12-1.52,2,2,0,0,0-1-1.16,1.87,1.87,0,0,0-1.52-.1,2,2,0,0,0-1.16,1,.34.34,0,0,1-.06.12.34.34,0,0,1-.06.12m3.8-13.42c-.08.77-.19,1.54-.32,2.3a2,2,0,0,0,.36,1.5,1.9,1.9,0,0,0,1.28.8,2,2,0,0,0,1.5-.34,1.89,1.89,0,0,0,.8-1.3c.15-.83.27-1.66.36-2.5a1.85,1.85,0,0,0-.42-1.46,2,2,0,0,0-2.8-.34,2,2,0,0,0-.76,1.34M89,81.39a2,2,0,0,0-2.8.38,19.26,19.26,0,0,1-1.38,1.66,1.9,1.9,0,0,0-.54,1.42,1.94,1.94,0,0,0,.64,1.4,2,2,0,0,0,1.42.54,2,2,0,0,0,1.4-.64,24.68,24.68,0,0,0,1.64-2,2,2,0,0,0-.38-2.8m1.8-13.22a1.94,1.94,0,0,0-.58,1.42,20,20,0,0,1-.12,2.2,2,2,0,0,0,.44,1.46,1.94,1.94,0,0,0,1.36.72,2,2,0,0,0,2.18-1.78,24.87,24.87,0,0,0,.14-2.6,1.92,1.92,0,0,0-.6-1.42,1.88,1.88,0,0,0-1.4-.58,2,2,0,0,0-1.42.58m1.64-6.34a1.83,1.83,0,0,0,0-1.52,20.79,20.79,0,0,0-1.14-2.38,1.86,1.86,0,0,0-1.18-1,1.92,1.92,0,0,0-1.52.16,2,2,0,0,0-.8,2.72,16.28,16.28,0,0,1,.94,2,2,2,0,0,0,1.08,1.08,2,2,0,0,0,1.54,0,1.91,1.91,0,0,0,1.08-1.08m21.64,2.3a1.87,1.87,0,0,0,1.48.34,1.9,1.9,0,0,0,1.3-.8,1.87,1.87,0,0,0,.34-1.5q-.19-1.23-.48-2.46a1.87,1.87,0,0,0-.86-1.24,1.94,1.94,0,0,0-1.52-.28,2,2,0,0,0-1.52,2.38c.17.76.32,1.51.44,2.26a2,2,0,0,0,.82,1.3m-6.3-17.88a2,2,0,0,0,.16,1.52c.38.67.74,1.35,1.08,2.06a2,2,0,0,0,1.14,1,1.92,1.92,0,0,0,1.54-.1,1.85,1.85,0,0,0,1-1.14,1.87,1.87,0,0,0-.08-1.52c-.38-.77-.77-1.51-1.18-2.24a1.87,1.87,0,0,0-1.2-.94,2,2,0,0,0-2.46,1.36m-9-10.54a1.89,1.89,0,0,0,.66,1.36c.58.51,1.14,1,1.68,1.58a1.94,1.94,0,0,0,1.42.6,2.05,2.05,0,0,0,2-2,1.92,1.92,0,0,0-.6-1.42c-.59-.6-1.21-1.18-1.84-1.74a1.91,1.91,0,0,0-1.44-.5,1.93,1.93,0,0,0-1.38.66,2,2,0,0,0-.5,1.46m-9.06-9.6L89.48,26l-.12,0a1.92,1.92,0,0,0-1.52.1,2,2,0,0,0-1,1.16,2,2,0,0,0,.1,1.52,2,2,0,0,0,1.16,1c.65.29,1.29.59,1.9.9a2,2,0,0,0,2.68-.9,1.84,1.84,0,0,0,.12-1.52,2,2,0,0,0-1-1.16c-.68-.34-1.37-.67-2.08-1M131,45.21a2,2,0,0,0,1.06,1.1,2,2,0,0,0,2.64-1,1.83,1.83,0,0,0,0-1.52c-.3-.79-.62-1.56-1-2.32a2,2,0,0,0-2.62-1,1.91,1.91,0,0,0-1.06,1.1,2,2,0,0,0,0,1.54c.31.7.61,1.42.88,2.16m-8.12-15.8a2,2,0,0,0,.36,1.48c.47.63.93,1.27,1.36,1.92a2,2,0,0,0,1.28.84,2,2,0,0,0,1.5-.32,1.89,1.89,0,0,0,.84-1.26,1.91,1.91,0,0,0-.32-1.5q-.69-1-1.44-2a2,2,0,0,0-2.78-.44,2,2,0,0,0-.8,1.32m-4-8.76a1.91,1.91,0,0,0-.64-1.38q-.9-.86-1.86-1.68a1.89,1.89,0,0,0-1.44-.48,2,2,0,0,0-1.38.68,2,2,0,0,0-.48,1.46,2,2,0,0,0,.68,1.36c.6.52,1.19,1.05,1.76,1.58a2,2,0,0,0,1.42.54,2,2,0,0,0,1.94-2.08m-11.42-9a1.93,1.93,0,0,0-.9-1.24c-.7-.44-1.41-.87-2.14-1.3a2,2,0,0,0-2,3.46c.7.41,1.39.82,2.06,1.24a2,2,0,0,0,2.76-.66,1.89,1.89,0,0,0,.24-1.5M89.7,6.81q1.13.36,2.22.78a2,2,0,0,0,2.58-1.2,1.88,1.88,0,0,0-.08-1.52,1.88,1.88,0,0,0-1.12-1C92.53,3.54,91.75,3.27,91,3a1.92,1.92,0,0,0-1.52.1,2,2,0,0,0-1,1.16,2,2,0,0,0,.1,1.52A2,2,0,0,0,89.7,6.81Z"/></g><g id="moedas2_0_Layer0_0_FILL" data-name="moedas2 0 Layer0 0 FILL"><path class="cls-2" d="M70.15,51.61A12.34,12.34,0,0,0,57.79,39.25,12.34,12.34,0,0,0,45.43,51.61,12.38,12.38,0,0,0,57.79,64,12.38,12.38,0,0,0,70.15,51.61Z"/></g><path id="moedas2_0_Layer0_0_1_STROKES" data-name="moedas2 0 Layer0 0 1 STROKES" class="cls-3" d="M70.15,51.6A12.38,12.38,0,0,1,57.79,64,12.34,12.34,0,0,1,45.43,51.6,12.34,12.34,0,0,1,57.79,39.24,12.38,12.38,0,0,1,70.15,51.6Z"/><g id="moedas2_0_Layer0_1_FILL" data-name="moedas2 0 Layer0 1 FILL"><path class="cls-1" d="M55.55,46.65a2.82,2.82,0,0,0-.95,1.87,3.18,3.18,0,0,0,.2,2,2.69,2.69,0,0,0,1.39,1.12l1.29.5,1.28.51c.54.22.81.52.84.89a2.93,2.93,0,0,1-.31,1.65,1.22,1.22,0,0,1-.65.54,3.11,3.11,0,0,1-.86.17c-.56,0-1.22,0-2,0l-2-.09c0,.24-.1.59-.19,1.07a17.75,17.75,0,0,0,2.6.23C56.09,58.2,56,58.8,56,59h1.28c.11-.8.2-1.41.25-1.81a6.82,6.82,0,0,0,1.23-.11,2.93,2.93,0,0,0,1.14-.45,3,3,0,0,0,1-2.14,4.06,4.06,0,0,0,0-1,2,2,0,0,0-.31-1,2.35,2.35,0,0,0-.76-.7,5.72,5.72,0,0,0-1-.45l-2.1-.82a2.06,2.06,0,0,1-.52-.28.93.93,0,0,1-.36-.46,1.51,1.51,0,0,1-.06-.68,3.77,3.77,0,0,1,.12-.68,1.6,1.6,0,0,1,.28-.62,1.08,1.08,0,0,1,.55-.38,3.81,3.81,0,0,1,1-.13h1l1.29,0c.52,0,.95,0,1.29.06.07-.44.13-.78.18-1a13.8,13.8,0,0,0-2.52-.27c.06-.4.14-1,.26-1.79H58l-.27,1.77a5.82,5.82,0,0,0-1.16.12A2.57,2.57,0,0,0,55.55,46.65Z"/></g><path class="cls-2" d="M118.67,43.91a12.36,12.36,0,1,0-21.1,8.73,12.36,12.36,0,0,0,21.1-8.73Z"/><path class="cls-3" d="M118.67,43.9a12.36,12.36,0,1,1-21.11-8.74,12.37,12.37,0,0,1,21.11,8.74Z"/><path class="cls-1" d="M104.07,39a2.82,2.82,0,0,0-.95,1.87,3.18,3.18,0,0,0,.2,2A2.69,2.69,0,0,0,104.71,44l1.29.5,1.28.51c.54.22.81.52.84.89a2.93,2.93,0,0,1-.31,1.65,1.22,1.22,0,0,1-.65.54,3.11,3.11,0,0,1-.86.17c-.56,0-1.22,0-2,0l-2-.09c0,.24-.1.59-.19,1.07a17.75,17.75,0,0,0,2.6.23c-.14,1-.23,1.64-.26,1.81h1.28c.11-.8.2-1.41.25-1.81a6.82,6.82,0,0,0,1.23-.11,2.93,2.93,0,0,0,1.14-.45,3,3,0,0,0,1-2.14,4.06,4.06,0,0,0,0-1,2,2,0,0,0-.31-1,2.35,2.35,0,0,0-.76-.7,5.72,5.72,0,0,0-1-.45l-2.1-.82a2.06,2.06,0,0,1-.52-.28.93.93,0,0,1-.36-.46,1.51,1.51,0,0,1-.06-.68,3.77,3.77,0,0,1,.12-.68,1.6,1.6,0,0,1,.28-.62,1.08,1.08,0,0,1,.55-.38,3.81,3.81,0,0,1,1-.13h1l1.29.05c.52,0,.95,0,1.29.06.07-.44.13-.78.18-1a13.8,13.8,0,0,0-2.52-.27c.06-.4.14-1,.26-1.79h-1.27l-.27,1.77a5.82,5.82,0,0,0-1.16.12A2.57,2.57,0,0,0,104.07,39Z"/><path class="cls-2" d="M48.71,100.11A12.34,12.34,0,0,0,36.35,87.75a12.36,12.36,0,0,0,0,24.72,12.38,12.38,0,0,0,12.36-12.36Z"/><path class="cls-3" d="M48.71,100.1a12.38,12.38,0,0,1-12.36,12.36,12.36,12.36,0,1,1,0-24.72A12.38,12.38,0,0,1,48.71,100.1Z"/><path class="cls-1" d="M34.11,95.15a2.82,2.82,0,0,0-1,1.87,3.18,3.18,0,0,0,.2,2,2.69,2.69,0,0,0,1.39,1.12l1.29.5,1.28.51c.54.22.81.52.84.89a2.93,2.93,0,0,1-.31,1.65,1.22,1.22,0,0,1-.65.54,3.11,3.11,0,0,1-.86.17c-.56,0-1.22,0-2,0l-2-.09c0,.24-.1.59-.19,1.07a17.75,17.75,0,0,0,2.6.23c-.14,1-.23,1.64-.26,1.81h1.28c.11-.8.2-1.41.25-1.81a6.82,6.82,0,0,0,1.23-.11,2.93,2.93,0,0,0,1.14-.45,3,3,0,0,0,1-2.14,4.06,4.06,0,0,0,0-1,2,2,0,0,0-.31-1,2.35,2.35,0,0,0-.76-.7,5.72,5.72,0,0,0-.95-.45L35.39,99a2.06,2.06,0,0,1-.52-.28.93.93,0,0,1-.36-.46,1.51,1.51,0,0,1-.06-.68,3.77,3.77,0,0,1,.12-.68,1.6,1.6,0,0,1,.28-.62,1.08,1.08,0,0,1,.55-.38,3.81,3.81,0,0,1,1-.13h1l1.29,0c.52,0,1,0,1.29.06.07-.44.13-.78.18-1a13.8,13.8,0,0,0-2.52-.27c.06-.4.14-1,.26-1.79H36.6l-.27,1.77a5.82,5.82,0,0,0-1.16.12A2.57,2.57,0,0,0,34.11,95.15Z"/><path class="cls-2" d="M118.67,125.43a12.38,12.38,0,1,0-3.62,8.73A11.94,11.94,0,0,0,118.67,125.43Z"/><path class="cls-3" d="M118.67,125.42a12.38,12.38,0,1,1-3.63-8.74A11.88,11.88,0,0,1,118.67,125.42Z"/><path class="cls-1" d="M104.07,120.47a2.82,2.82,0,0,0-.95,1.87,3.18,3.18,0,0,0,.2,2,2.69,2.69,0,0,0,1.39,1.12l1.29.5,1.28.51c.54.22.81.52.84.89a2.93,2.93,0,0,1-.31,1.65,1.22,1.22,0,0,1-.65.54,3.11,3.11,0,0,1-.86.17c-.56,0-1.22,0-2,0l-2-.09c0,.24-.1.59-.19,1.07a17.75,17.75,0,0,0,2.6.23c-.14,1-.23,1.64-.26,1.81h1.28c.11-.8.2-1.41.25-1.81a6.82,6.82,0,0,0,1.23-.11,2.93,2.93,0,0,0,1.14-.45,3,3,0,0,0,1-2.14,4.06,4.06,0,0,0,0-1,2,2,0,0,0-.31-1,2.35,2.35,0,0,0-.76-.7,5.72,5.72,0,0,0-1-.45l-2.1-.82a2.06,2.06,0,0,1-.52-.28.93.93,0,0,1-.36-.46,1.51,1.51,0,0,1-.06-.68,3.77,3.77,0,0,1,.12-.68,1.6,1.6,0,0,1,.28-.62,1.08,1.08,0,0,1,.55-.38,3.81,3.81,0,0,1,1-.13h1l1.29.05c.52,0,.95,0,1.29.06.07-.44.13-.78.18-1a13.8,13.8,0,0,0-2.52-.27c.06-.4.14-1,.26-1.79h-1.27l-.27,1.77a5.82,5.82,0,0,0-1.16.12A2.57,2.57,0,0,0,104.07,120.47Z"/><path class="cls-2" d="M36.71,18.13a11.94,11.94,0,0,0-3.62-8.75,11.9,11.9,0,0,0-8.74-3.61,11.91,11.91,0,0,0-8.74,3.61A11.94,11.94,0,0,0,12,18.13a11.9,11.9,0,0,0,3.62,8.73,11.89,11.89,0,0,0,8.74,3.63,11.88,11.88,0,0,0,8.74-3.63A11.9,11.9,0,0,0,36.71,18.13Z"/><path class="cls-3" d="M36.71,18.12a11.88,11.88,0,0,1-3.63,8.74,11.9,11.9,0,0,1-8.73,3.62,11.94,11.94,0,0,1-8.75-3.62A11.9,11.9,0,0,1,12,18.12,11.91,11.91,0,0,1,15.6,9.38a11.94,11.94,0,0,1,8.75-3.62,11.9,11.9,0,0,1,8.73,3.62A11.89,11.89,0,0,1,36.71,18.12Z"/><path class="cls-1" d="M22.11,13.17A2.82,2.82,0,0,0,21.16,15a3.18,3.18,0,0,0,.2,2,2.69,2.69,0,0,0,1.39,1.12l1.29.5,1.28.51c.54.22.81.52.84.89a2.93,2.93,0,0,1-.31,1.65,1.22,1.22,0,0,1-.65.54,3.11,3.11,0,0,1-.86.17c-.56,0-1.22,0-2,0l-2-.09c0,.24-.1.59-.19,1.07a17.75,17.75,0,0,0,2.6.23c-.14,1-.23,1.64-.26,1.81h1.28c.11-.8.2-1.41.25-1.81a6.82,6.82,0,0,0,1.23-.11,2.93,2.93,0,0,0,1.14-.45,3,3,0,0,0,1-2.14,4.06,4.06,0,0,0,0-1,2,2,0,0,0-.31-1,2.35,2.35,0,0,0-.76-.7,5.72,5.72,0,0,0-1-.45L23.39,17a2.06,2.06,0,0,1-.52-.28.93.93,0,0,1-.36-.46,1.51,1.51,0,0,1-.06-.68,3.77,3.77,0,0,1,.12-.68,1.6,1.6,0,0,1,.28-.62,1.08,1.08,0,0,1,.55-.38,3.81,3.81,0,0,1,1-.13h1l1.29,0c.52,0,.95,0,1.29.06.07-.44.13-.78.18-1a13.8,13.8,0,0,0-2.52-.27c.06-.4.14-1,.26-1.79H24.6l-.27,1.77a5.82,5.82,0,0,0-1.16.12A2.57,2.57,0,0,0,22.11,13.17Z"/></g></g></svg>