<svg xmlns="http://www.w3.org/2000/svg" viewBox="0 0 110.07 99.81"><defs><style>.cls-1,.cls-2,.cls-3{fill:none;}.cls-1,.cls-2,.cls-3,.cls-5{stroke:#63c932;stroke-miterlimit:10;}.cls-1{stroke-width:4px;}.cls-2,.cls-5{stroke-width:5px;}.cls-3{stroke-width:8px;}.cls-4{fill:#63c932;}.cls-5{fill:#fff;}</style></defs><title>171_1</title><g id="Layer_2" data-name="Layer 2"><g id="Layer_1-2" data-name="Layer 1"><polygon class="cls-1" points="19.16 95.83 78.93 95.83 87.54 36.05 27.77 36.05 19.16 95.83"/><polygon class="cls-2" points="19.45 96.94 4.83 96.94 13.45 37.12 28.07 37.12 19.45 96.94"/><polygon class="cls-3" points="60.19 4.92 60.19 4.92 13.48 35.33 98.58 35.33 60.19 4.92"/><polygon class="cls-2" points="93.36 96.94 78.75 96.94 87.37 37.12 101.98 37.12 93.36 96.94"/><polygon class="cls-1" points="37.1 95.83 61.06 95.83 64.52 71.86 40.55 71.86 37.1 95.83"/><polygon class="cls-4" points="94.48 99.81 2.55 99.81 3.37 94.07 95.31 94.07 94.48 99.81"/><path class="cls-5" d="M77,43.89A17.3,17.3,0,0,0,71.41,31,18.54,18.54,0,0,0,58,25.62,18.57,18.57,0,0,0,44.65,31a17.29,17.29,0,0,0-5.53,12.92A17.29,17.29,0,0,0,44.65,56.8,18.61,18.61,0,0,0,58,62.15,18.58,18.58,0,0,0,71.41,56.8,17.3,17.3,0,0,0,77,43.89Z"/><path class="cls-5" d="M76.94,43.88A17.28,17.28,0,0,1,71.4,56.79,18.55,18.55,0,0,1,58,62.15a18.58,18.58,0,0,1-13.38-5.36,17.27,17.27,0,0,1-5.53-12.91A17.32,17.32,0,0,1,44.64,31,18.6,18.6,0,0,1,58,25.62,18.57,18.57,0,0,1,71.4,31,17.33,17.33,0,0,1,76.94,43.88Z"/><path class="cls-4" d="M60.3,42.64c2.58.92,3.41,2.42,3.41,4.81,0,3.53-1.45,4.62-5.38,4.69l-.24,2.56H55.47l.23-2.63a27.43,27.43,0,0,1-3.55-.52l.24-2.66c3,.07,4.31.1,5.33.1,1.87,0,2.39-.26,2.39-1.52s-.45-1.44-1.57-1.8l-3.22-1.16A4.49,4.49,0,0,1,52,39.73c0-3.63,1.59-4.48,5.52-4.53l.22-2.13h2.63l-.24,2.23a16.66,16.66,0,0,1,3,.54L63,38.31c-1.37-.05-3.34-.07-5.07-.07s-2.34.09-2.34,1.49c0,1.13.47,1.44,1.73,1.84Z"/></g></g></svg>