<svg xmlns="http://www.w3.org/2000/svg" viewBox="0 0 82.48 106.02"><defs><style>.cls-1{fill:none;stroke-width:8px;}.cls-1,.cls-3{stroke:#63c932;stroke-miterlimit:3;}.cls-2{fill:#63c932;}.cls-3{fill:#fff;stroke-width:6.02px;}</style></defs><title>172_1</title><g id="Layer_2" data-name="Layer 2"><g id="Layer_1-2" data-name="Layer 1"><path id="icone_boleto_0_Layer0_0_1_STROKES" data-name="icone boleto 0 Layer0 0 1 STROKES" class="cls-1" d="M13.59,23.3H77.87L66.73,102H14.45A10.11,10.11,0,0,1,4.13,90.16Z"/><g id="linhas2_0_Layer0_0_FILL" data-name="linhas2 0 Layer0 0 FILL"><path class="cls-2" d="M61,69.47l.56-4H18.86l-.56,4Z"/></g><g id="linhas2_0_Layer0_1_FILL" data-name="linhas2 0 Layer0 1 FILL"><path class="cls-2" d="M59.56,79l.56-4H17.43l-.56,4Z"/></g><g id="linhas2_0_Layer0_2_FILL" data-name="linhas2 0 Layer0 2 FILL"><path class="cls-2" d="M58,88.46l.56-3.95H15.88l-.56,3.95Z"/></g><path id="icone_relogio_0_Layer0_0_1_STROKES" data-name="icone relogio 0 Layer0 0 1 STROKES" class="cls-3" d="M65.23,23.31a19.5,19.5,0,0,1-6,14.33,19.54,19.54,0,0,1-14.34,6,19.54,19.54,0,0,1-14.36-6,19.53,19.53,0,0,1-5.94-14.33A19.57,19.57,0,0,1,30.58,9,19.57,19.57,0,0,1,44.94,3,19.57,19.57,0,0,1,59.28,9,19.54,19.54,0,0,1,65.23,23.31Z"/><g id="Layer0_1_MEMBER_5_FILL" data-name="Layer0 1 MEMBER 5 FILL"><path class="cls-2" d="M52.51,14.85c-.5-.13-1-.25-1.49-.35s-1-.15-1.55-.19L50,12.07H47.34l-.51,2.15a12.06,12.06,0,0,0-3.3.38,3.87,3.87,0,0,0-2,1.38,6.13,6.13,0,0,0-.95,2.79,4.81,4.81,0,0,0,.33,3,4.44,4.44,0,0,0,2.39,1.84l3.11,1.17a3.65,3.65,0,0,1,.87.37.93.93,0,0,1,.43.53,2,2,0,0,1,0,.91,1.52,1.52,0,0,1-.68,1.24,4.27,4.27,0,0,1-2,.29H43.88c-.47,0-1,0-1.72,0s-1.51,0-2.51,0L39,30.7c.67.14,1.31.25,1.9.33s1.15.15,1.65.19L42,33.87h2.68l.59-2.57a10.37,10.37,0,0,0,3.27-.48,3.64,3.64,0,0,0,1.95-1.46,6.63,6.63,0,0,0,.93-2.8,4.86,4.86,0,0,0-.33-3,4.2,4.2,0,0,0-2.47-1.87l-2.93-1.08a4.41,4.41,0,0,1-1-.42,1,1,0,0,1-.49-.54,2,2,0,0,1,0-.91,2,2,0,0,1,.36-1,1.3,1.3,0,0,1,.83-.39,7,7,0,0,1,1.42-.09H49.5l2.42.07Z"/></g></g></g></svg>