<svg xmlns="http://www.w3.org/2000/svg" viewBox="0 0 80.35 88.99"><defs><style>.cls-1,.cls-2,.cls-4{fill:none;}.cls-1,.cls-2,.cls-4,.cls-5{stroke:#63c932;}.cls-1,.cls-4{stroke-linecap:square;stroke-miterlimit:3;stroke-width:8px;}.cls-2,.cls-5{stroke-miterlimit:10;stroke-width:4px;}.cls-3,.cls-5{fill:#fff;}.cls-4,.cls-5{fill-rule:evenodd;}.cls-6{fill:#63c932;}</style></defs><title>175_1</title><g id="Layer_2" data-name="Layer 2"><g id="Layer_1-2" data-name="Layer 1"><path class="cls-1" d="M53.93,85H21.75A12.47,12.47,0,0,1,9.36,74L4.69,44.76l68.58-.26Z"/><line class="cls-2" x1="38.27" y1="42.1" x2="40.77" y2="27.11"/><line class="cls-3" x1="38.27" y1="42.1" x2="40.77" y2="27.11"/><path class="cls-4" d="M40.68,28.42a4.1,4.1,0,0,0,0,.86l1.43,0c23.4.93,32.9-15.69,33.55-22.57C69.79,9.63,43.54,9.21,40.68,28.42Z"/><path class="cls-5" d="M39.07,30.5c0,.22,0,.44,0,.66l-1.11,0c-14.13,0-25.58-7.5-25.58-16.75,0-.22,0-.44,0-.66.68.42,3.23,2.54,3.6,2.54C30.11,16.31,39.07,21.25,39.07,30.5Z"/><path class="cls-6" d="M37.21,62.19c3.2,1.17,4.13,3,3.94,6.06-.29,4.45-2.21,5.83-7.21,5.92l-.51,3.22H30.09l.51-3.31a33.15,33.15,0,0,1-4.47-.66l.52-3.35c3.75.09,5.47.12,6.76.12,2.38,0,3.06-.32,3.16-1.91s-.45-1.82-1.84-2.27l-4-1.46c-3-1.13-4.05-3-3.85-6,.3-4.57,2.38-5.64,7.38-5.7l.45-2.69h3.34l-.49,2.81a21.6,21.6,0,0,1,3.84.68l-.47,3.11c-1.74-.06-4.24-.09-6.43-.09s-3,.12-3.1,1.88c-.1,1.43.48,1.82,2,2.33Z"/></g></g></svg>