<svg xmlns="http://www.w3.org/2000/svg" xmlns:xlink="http://www.w3.org/1999/xlink" viewBox="0 0 202.45 90.9"><defs><style>.cls-1,.cls-4,.cls-5{fill:none;}.cls-1,.cls-2,.cls-4,.cls-5{stroke:#63c932;}.cls-1,.cls-2,.cls-4{stroke-miterlimit:10;}.cls-1,.cls-5{stroke-width:8px;}.cls-2{fill:#fff;}.cls-2,.cls-4{stroke-width:4px;}.cls-3,.cls-6{fill:#63c932;}.cls-5{stroke-miterlimit:3;}.cls-6{font-size:60px;font-family:Exo2.0-Bold, Exo 2.0;font-weight:700;}</style><symbol id="New_Symbol_10" data-name="New Symbol 10" viewBox="0 0 190.23 55.9"><line class="cls-1" x1="56.46" y1="51.9" x2="131.89" y2="51.9"/><line class="cls-2" x1="68.23" y1="2" y2="2"/><line class="cls-2" x1="190.23" y1="26.33" x2="122" y2="26.33"/><line class="cls-1" x1="94.18" y1="51.73" x2="94.18" y2="30.02"/><circle class="cls-3" cx="94.18" cy="30.82" r="8.27"/><circle class="cls-3" cx="153.68" cy="38.32" r="8.27"/><circle class="cls-3" cx="34.18" cy="11.82" r="8.27"/><line class="cls-4" x1="35.2" y1="14.77" x2="153.16" y2="41.45"/></symbol></defs><title>177_2</title><g id="Layer_2" data-name="Layer 2"><g id="Layer_1-2" data-name="Layer 1"><path id="icone_nota_0_Layer0_0_1_STROKES" data-name="icone nota 0 Layer0 0 1 STROKES" class="cls-5" d="M121.39,4h76.45l-4.77,33.7H126.63A8.48,8.48,0,0,1,118,27.8Z"/><g id="icone_nota_0_Layer0_1_FILL" data-name="icone nota 0 Layer0 1 FILL"><path class="cls-3" d="M158.62,9.93l-.56,2.12a11.64,11.64,0,0,0-3.45.45A3.89,3.89,0,0,0,152.52,14a6.57,6.57,0,0,0-1,2.85,4.67,4.67,0,0,0,.38,3,4.83,4.83,0,0,0,2.47,2l3.09,1.33a2.25,2.25,0,0,1,1,.54,1,1,0,0,1,.17.87.94.94,0,0,1-.51.81,4.53,4.53,0,0,1-1.61.2l-2.14,0-3.61-.08L150,28.65c.66.16,1.29.28,1.89.37s1.15.19,1.67.24L153,31.8h3.3l.59-2.44a10.25,10.25,0,0,0,3.4-.57,4,4,0,0,0,2-1.57,6.93,6.93,0,0,0,.92-2.81,4.68,4.68,0,0,0-.37-3,4.69,4.69,0,0,0-2.52-2l-2.84-1.17a3.23,3.23,0,0,1-1.17-.62.92.92,0,0,1-.22-.87,1,1,0,0,1,.52-.87,4.18,4.18,0,0,1,1.53-.18l2,0c.68,0,1.32,0,1.91,0l1.62,0,.72-3a11.73,11.73,0,0,0-1.44-.38c-.51-.1-1-.19-1.51-.25l.58-2.24Z"/></g><g id="icone_nota_0_Layer0_2_FILL" data-name="icone nota 0 Layer0 2 FILL"><path class="cls-3" d="M146.44,15l.55-3.91H128.51L128,15Z"/></g><g id="icone_nota_0_Layer0_3_FILL" data-name="icone nota 0 Layer0 3 FILL"><path class="cls-3" d="M187.32,31.5l.56-3.91H169.39l-.55,3.91Z"/></g><use width="190.23" height="55.9" transform="matrix(-1, 0, 0, 1, 190.23, 35)" xlink:href="#New_Symbol_10"/><text class="cls-6" transform="translate(9.94 59.17)">%</text></g></g></svg>