<svg xmlns="http://www.w3.org/2000/svg" xmlns:xlink="http://www.w3.org/1999/xlink" viewBox="0 0 202.23 106.6"><defs><style>.cls-1,.cls-4,.cls-5{fill:none;}.cls-1,.cls-2,.cls-4,.cls-5{stroke:#63c932;}.cls-1,.cls-2,.cls-4{stroke-miterlimit:10;}.cls-1,.cls-5{stroke-width:8px;}.cls-2{fill:#fff;}.cls-2,.cls-4{stroke-width:4px;}.cls-3,.cls-6{fill:#63c932;}.cls-5{stroke-miterlimit:3;}.cls-6{font-size:60px;font-family:Exo2.0-Bold, Exo 2.0;font-weight:700;}</style><symbol id="New_Symbol_10" data-name="New Symbol 10" viewBox="0 0 190.23 55.9"><line class="cls-1" x1="56.46" y1="51.9" x2="131.89" y2="51.9"/><line class="cls-2" x1="68.23" y1="2" y2="2"/><line class="cls-2" x1="190.23" y1="26.33" x2="122" y2="26.33"/><line class="cls-1" x1="94.18" y1="51.73" x2="94.18" y2="30.02"/><circle class="cls-3" cx="94.18" cy="30.82" r="8.27"/><circle class="cls-3" cx="153.68" cy="38.32" r="8.27"/><circle class="cls-3" cx="34.18" cy="11.82" r="8.27"/><line class="cls-4" x1="35.2" y1="14.77" x2="153.16" y2="41.45"/></symbol></defs><title>177_1</title><g id="Layer_2" data-name="Layer 2"><g id="Layer_1-2" data-name="Layer 1"><use id="New_Symbol_10-3" data-name="New Symbol 10" width="190.23" height="55.9" transform="translate(0 50.7)" xlink:href="#New_Symbol_10"/><path id="icone_nota_0_Layer0_0_1_STROKES" data-name="icone nota 0 Layer0 0 1 STROKES" class="cls-5" d="M121.17,42.7h76.45l-4.77,33.7H126.41a8.46,8.46,0,0,1-8.61-9.89Z"/><g id="icone_nota_0_Layer0_1_FILL" data-name="icone nota 0 Layer0 1 FILL"><path class="cls-3" d="M158.39,48.63l-.56,2.12a11.62,11.62,0,0,0-3.44.45,3.89,3.89,0,0,0-2.09,1.47,6.45,6.45,0,0,0-1,2.85,4.61,4.61,0,0,0,.38,3,4.75,4.75,0,0,0,2.46,2l3.1,1.33a2.2,2.2,0,0,1,1,.54,1.23,1.23,0,0,1-.33,1.68,4.53,4.53,0,0,1-1.61.2c-.47,0-1.18,0-2.14,0l-3.61-.08-.72,3.25c.66.16,1.29.28,1.89.38s1.15.18,1.67.23l-.62,2.54H156l.58-2.44a10.26,10.26,0,0,0,3.41-.57,3.94,3.94,0,0,0,2-1.57,7.09,7.09,0,0,0,.92-2.81,4.12,4.12,0,0,0-2.89-5l-2.84-1.17a3.14,3.14,0,0,1-1.18-.62.92.92,0,0,1-.21-.87,1,1,0,0,1,.52-.87,4.15,4.15,0,0,1,1.53-.18l2,0c.68,0,1.32,0,1.91,0l1.62,0,.72-3a11.42,11.42,0,0,0-1.45-.38c-.5-.1-1-.19-1.5-.25l.58-2.24Z"/></g><g id="icone_nota_0_Layer0_2_FILL" data-name="icone nota 0 Layer0 2 FILL"><path class="cls-3" d="M146.21,53.67l.56-3.91H128.29l-.56,3.91Z"/></g><g id="icone_nota_0_Layer0_3_FILL" data-name="icone nota 0 Layer0 3 FILL"><path class="cls-3" d="M187.1,70.21l.55-3.92H169.17l-.55,3.92Z"/></g><text class="cls-6" transform="translate(6.23 50.7)">%</text></g></g></svg>