<?xml version="1.0" encoding="utf-8"?>
<!-- Generator: Adobe Illustrator 23.0.3, SVG Export Plug-In . SVG Version: 6.00 Build 0)  -->
<svg version="1.1" id="Layer_1" xmlns="http://www.w3.org/2000/svg" xmlns:xlink="http://www.w3.org/1999/xlink" x="0px" y="0px"
	 viewBox="0 0 258.8 139.1" style="enable-background:new 0 0 258.8 139.1;" xml:space="preserve">
<style type="text/css">
	.st0{enable-background:new    ;}
	.st1{fill:#006633;}
</style>
<title>186_1</title>
<g>
	<g id="Layer_1-2">
		<g class="st0">
			<path class="st1" d="M21.5,81.6c-1,0-2.2,0-5.1-0.2v0.2c2.3,1.6,3.6,4.4,3.6,7.3c0,7.1-4.9,10.2-9.3,10.2c-5.2,0-9.3-3.8-9.3-9.9
				c0-6.5,4.1-10.3,10-10.3h10.2L21.5,81.6z M16.6,89c0-3.3-1.7-7.4-5.7-7.4c-4,0-5.8,3.8-5.8,7.5c0,4.2,2.4,7.4,5.8,7.4
				C14.1,96.6,16.6,93.4,16.6,89z"/>
		</g>
		<g class="st0">
			<path class="st1" d="M22.6,79.6l2.5-2.3c3.3-3,5-4.9,5-7c0-1.5-1-2.8-3-2.8c-1.4,0-2.6,0.7-3.4,1.2l-0.8-1.8
				c1.1-0.9,2.9-1.7,4.9-1.7c3.8,0,5.3,2.4,5.3,4.5c0,3-2.3,5.2-5.3,7.9l-1.2,1.1v0.1h6.8V81H22.6V79.6z"/>
			<path class="st1" d="M44.7,85.3v-2.4h20.6v2.4H44.7z M44.7,93.1v-2.4h20.6v2.4H44.7z"/>
		</g>
		<g class="st0">
			<path class="st1" d="M135.6,128.1l4.3-20.7h3.2l-0.8,3.6c1.4-1.4,2.7-2.5,3.9-3.1c1.2-0.7,2.4-1,3.7-1c1.7,0,3,0.5,4,1.4
				c1,0.9,1.4,2.1,1.4,3.7c0,0.8-0.2,2-0.5,3.6l-2.6,12.6h-3.5l2.8-13.1c0.3-1.3,0.4-2.2,0.4-2.8c0-0.7-0.2-1.2-0.7-1.7
				c-0.5-0.4-1.2-0.6-2.1-0.6c-1.8,0-3.4,0.7-4.8,2c-1.4,1.3-2.5,3.5-3.1,6.7l-2,9.6H135.6z"/>
		</g>
		<g class="st0">
			<path class="st1" d="M169.6,119.5v-3.5h10.8v3.5H169.6z"/>
			<path class="st1" d="M207.6,128.1h-3.5v-22.4c-0.8,0.8-2,1.6-3.3,2.4c-1.4,0.8-2.6,1.4-3.7,1.8v-3.4c2-0.9,3.7-2,5.2-3.4
				s2.5-2.6,3.1-3.8h2.3V128.1z"/>
		</g>
		<g>
			<rect x="86.6" y="84.8" class="st1" width="169.9" height="4"/>
		</g>
		<g class="st0">
			<path class="st1" d="M84.9,79.4l2.2-10.4h1.8l-2.2,10.4H84.9z M87.5,67.1l0.4-2h1.8l-0.4,2H87.5z"/>
		</g>
		<g class="st0">
			<path class="st1" d="M105.2,71h-9.4v-1.6h9.4V71z M105.2,75.4h-9.4v-1.6h9.4V75.4z"/>
			<path class="st1" d="M119.3,79.4h-1.8V68.2c-0.4,0.4-1,0.8-1.7,1.2s-1.3,0.7-1.8,0.9v-1.7c1-0.5,1.8-1,2.6-1.7s1.3-1.3,1.6-1.9
				h1.1V79.4z"/>
		</g>
		<g class="st0">
			<path class="st1" d="M95.9,55.9h15.4v2.9H91.4v-2.1l9.4-11.3l-8.8-11.2v-2.4H110v2.9H96.4v0.2l8.2,10.4l-8.7,10.5V55.9z"/>
		</g>
		<g class="st0">
			<path class="st1" d="M98.3,26.8l2.2-10.4h1.6l-0.4,1.8c0.7-0.7,1.3-1.2,2-1.6c0.6-0.3,1.2-0.5,1.9-0.5c0.8,0,1.5,0.2,2,0.7
				c0.5,0.5,0.7,1.1,0.7,1.8c0,0.4-0.1,1-0.3,1.8l-1.3,6.3h-1.8l1.4-6.6c0.1-0.6,0.2-1.1,0.2-1.4c0-0.3-0.1-0.6-0.4-0.8
				c-0.2-0.2-0.6-0.3-1-0.3c-0.9,0-1.7,0.3-2.4,1c-0.7,0.7-1.2,1.8-1.6,3.3l-1,4.8H98.3z"/>
		</g>
		<g class="st0">
			<path class="st1" d="M129,67.2c-1.9-2.4-3.6-5.3-4.9-8.6s-2-6.7-2-10.2c0-3.1,0.5-6.1,1.5-8.9c1.2-3.3,3-6.6,5.4-9.8h2.5
				c-1.6,2.7-2.6,4.6-3.1,5.8c-0.8,1.8-1.4,3.7-1.9,5.6c-0.6,2.4-0.8,4.9-0.8,7.3c0,6.3,1.9,12.5,5.8,18.8H129z"/>
		</g>
		<g class="st0">
			<path class="st1" d="M145.3,58.8l11.1-14.9l-9.8-13.7h4.5l5.2,7.3c1.1,1.5,1.8,2.7,2.3,3.5c0.6-1,1.4-2.1,2.3-3.3l5.8-7.6h4.1
				l-10.1,13.5l10.8,15.1h-4.7l-7.2-10.2c-0.4-0.6-0.8-1.2-1.3-1.9c-0.6,1-1.1,1.8-1.4,2.1l-7.2,10H145.3z"/>
		</g>
		<g class="st0">
			<path class="st1" d="M179.5,50.2v-3.5h10.8v3.5H179.5z"/>
		</g>
		<g class="st0">
			<path class="st1" d="M205.2,58.8l11.1-14.9l-9.8-13.7h4.5l5.2,7.3c1.1,1.5,1.8,2.7,2.3,3.5c0.6-1,1.4-2.1,2.3-3.3l5.8-7.6h4.1
				l-10.1,13.5l10.8,15.1h-4.7l-7.2-10.2c-0.4-0.6-0.8-1.2-1.3-1.9c-0.6,1-1.1,1.8-1.4,2.1l-7.2,10H205.2z"/>
		</g>
		<g class="st0">
			<path class="st1" d="M232,67.2h-2.5c3.9-6.2,5.8-12.5,5.8-18.8c0-2.4-0.3-4.9-0.8-7.3c-0.4-2-1.1-3.8-1.9-5.6
				c-0.5-1.2-1.6-3.1-3.1-5.9h2.5c2.4,3.3,4.3,6.5,5.4,9.8c1,2.8,1.5,5.8,1.5,8.9c0,3.5-0.7,6.9-2,10.2
				C235.6,61.9,233.9,64.7,232,67.2z"/>
			<path class="st1" d="M240.9,44.5c0.1-0.7,0.4-1.5,0.9-2.2c0.8-1.1,2.2-2.4,4-3.7c1.9-1.4,3-2.2,3.3-2.6c0.5-0.5,0.7-1.1,0.7-1.6
				c0-0.6-0.2-1.1-0.7-1.5c-0.5-0.4-1.1-0.6-2-0.6c-0.9,0-1.5,0.2-1.9,0.5c-0.4,0.3-0.8,0.9-1,1.8l-2.9-0.3c0.4-1.4,1-2.5,2-3.2
				c0.9-0.7,2.3-1,4-1c2,0,3.4,0.4,4.3,1.2c0.9,0.8,1.4,1.7,1.4,2.8c0,1.1-0.4,2.1-1.2,3.1c-0.6,0.7-1.9,1.8-4,3.3
				c-1.1,0.8-1.8,1.4-2.3,1.9h7.5v2.4H240.9z"/>
		</g>
		<g class="st0">
			<path class="st1" d="M165.5,68.5l2.2-10.4h1.8l-2.2,10.4H165.5z M168.1,56.2l0.4-2h1.8l-0.4,2H168.1z"/>
		</g>
		<g class="st0">
			<path class="st1" d="M212,25.2v-3.5h10.8v3.5H212z"/>
		</g>
	</g>
</g>
</svg>
