<?xml version="1.0" encoding="utf-8"?>
<!-- Generator: Adobe Illustrator 23.0.3, SVG Export Plug-In . SVG Version: 6.00 Build 0)  -->
<svg version="1.1" id="Layer_1" xmlns="http://www.w3.org/2000/svg" xmlns:xlink="http://www.w3.org/1999/xlink" x="0px" y="0px"
	 viewBox="0 0 285 108.7" style="enable-background:new 0 0 285 108.7;" xml:space="preserve">
<style type="text/css">
	.st0{enable-background:new    ;}
	.st1{fill:#006633;}
</style>
<title>189_1</title>
<g>
	<g id="Layer_1-2">
		<g class="st0">
			<path class="st1" d="M24,60.2l7.7-11l-7.1-10.1h4.5l3.2,5c0.6,0.9,1.1,1.7,1.5,2.4c0.6-0.9,1.1-1.7,1.6-2.3l3.6-5h4.3L36,49
				l7.9,11.2h-4.4l-4.3-6.6l-1.2-1.8l-5.5,8.3H24z"/>
		</g>
		<g class="st0">
			<path class="st1" d="M48.9,60.2v-4.1h4.1v4.1c0,1.5-0.3,2.7-0.8,3.6c-0.5,0.9-1.4,1.6-2.5,2.1l-1-1.5c0.8-0.3,1.3-0.8,1.7-1.5
				s0.6-1.6,0.6-2.8H48.9z"/>
		</g>
		<g class="st0">
			<path class="st1" d="M55.8,68.3L55.4,65c0.8,0.2,1.5,0.3,2,0.3c0.8,0,1.4-0.1,1.9-0.4c0.5-0.3,0.9-0.6,1.2-1.1
				c0.2-0.4,0.6-1.2,1.1-2.7c0.1-0.2,0.2-0.5,0.3-0.9l-8-21.2h3.9l4.4,12.2c0.6,1.6,1.1,3.2,1.5,4.9c0.4-1.6,0.9-3.2,1.5-4.8
				l4.5-12.3h3.6l-8,21.5c-0.9,2.3-1.5,3.9-2,4.8c-0.6,1.2-1.4,2-2.2,2.6c-0.8,0.5-1.8,0.8-2.9,0.8C57.4,68.8,56.6,68.6,55.8,68.3z"
				/>
		</g>
		<g class="st0">
			<path class="st1" d="M106.7,43.1H87.5v-3.3h19.2V43.1z M106.7,51.9H87.5v-3.3h19.2V51.9z"/>
		</g>
		<g class="st0">
			<path class="st1" d="M3.2,59.4c-0.4-1.2-0.4-4.1-0.4-7.2v-9.1c0-5.1,1.3-7.4,2.9-9c1.5-1.6,3.8-2.9,6.8-2.9c5.5,0,9,4.1,9,10
				c0,7-4.4,10.6-9,10.6c-2.6,0-4.8-1.1-5.9-2.9H6.3v3.2c0,2.3,0,5.7,0.3,7.3H3.2z M6.3,43.6c0,0.5,0,1,0.2,1.4c0.7,2.2,2.8,4,5.3,4
				c3.8,0,6-3.3,6-7.7c0-3.9-2-7.1-5.7-7.1c-2.8,0-5.8,2.3-5.8,7.8V43.6z"/>
		</g>
		<g class="st0">
			<path class="st1" d="M168.5,67.2c-1,0-2.3,0-5.2-0.2v0.2c2.3,1.6,3.7,4.5,3.7,7.5c0,7.2-5,10.4-9.4,10.4c-5.3,0-9.4-3.9-9.4-10.1
				c0-6.6,4.2-10.5,10.1-10.5h10.4L168.5,67.2z M163.5,74.6c0-3.3-1.7-7.5-5.8-7.5c-4.1,0-5.9,3.9-5.9,7.7c0,4.3,2.5,7.6,5.9,7.6
				C160.9,82.4,163.5,79.1,163.5,74.6z"/>
		</g>
		<g class="st0">
			<path class="st1" d="M215.4,67.2c-1,0-2.3,0-5.2-0.2v0.2c2.3,1.6,3.7,4.5,3.7,7.5c0,7.2-5,10.4-9.4,10.4c-5.3,0-9.4-3.9-9.4-10.1
				c0-6.6,4.2-10.5,10.1-10.5h10.4L215.4,67.2z M210.3,74.6c0-3.3-1.7-7.5-5.8-7.5c-4.1,0-5.9,3.9-5.9,7.7c0,4.3,2.5,7.6,5.9,7.6
				C207.7,82.4,210.3,79.1,210.3,74.6z"/>
		</g>
		<g class="st0">
			<path class="st1" d="M167.8,97.5l11.3-15.2l-9.9-14h4.6l5.3,7.5c1.1,1.6,1.9,2.7,2.3,3.6c0.6-1.1,1.4-2.2,2.3-3.3l5.9-7.7h4.2
				l-10.2,13.7l11,15.4h-4.8l-7.3-10.4c-0.4-0.6-0.8-1.2-1.3-1.9c-0.7,1.1-1.1,1.8-1.4,2.2l-7.3,10.2H167.8z"/>
		</g>
		<g class="st0">
		</g>
		<g class="st0">
			<path class="st1" d="M231.2,97.5V85.2L220,68.4h4.7l5.7,8.8c1.1,1.6,2,3.3,3,4.9c0.9-1.5,1.9-3.2,3.2-5.2l5.6-8.6h4.5l-11.6,16.8
				v12.3H231.2z"/>
		</g>
		<g>
			<rect x="112" y="45.9" class="st1" width="173" height="4.1"/>
		</g>
		<g class="st0">
			<path class="st1" d="M132.2,26.7l3.5,0.5c-0.4,2.4-1.4,4.3-3,5.7c-1.6,1.4-3.5,2.1-5.8,2.1c-2.9,0-5.2-0.9-7-2.8
				c-1.8-1.9-2.6-4.6-2.6-8.1c0-2.3,0.4-4.3,1.1-6s1.9-3,3.5-3.8c1.5-0.9,3.2-1.3,5-1.3c2.3,0,4.2,0.6,5.6,1.7
				c1.5,1.2,2.4,2.8,2.8,4.9l-3.5,0.5c-0.3-1.4-0.9-2.5-1.8-3.2c-0.8-0.7-1.9-1.1-3.1-1.1c-1.8,0-3.3,0.6-4.4,1.9
				c-1.1,1.3-1.7,3.3-1.7,6.1c0,2.8,0.5,4.9,1.6,6.2c1.1,1.3,2.5,1.9,4.3,1.9c1.4,0,2.6-0.4,3.5-1.3C131.4,29.8,132,28.5,132.2,26.7
				z"/>
		</g>
		<g class="st0">
			<path class="st1" d="M136.7,23.9c0-3.9,1.1-6.8,3.3-8.7c1.8-1.6,4-2.3,6.6-2.3c2.9,0,5.3,1,7.1,2.9c1.8,1.9,2.8,4.5,2.8,7.9
				c0,2.7-0.4,4.9-1.2,6.4c-0.8,1.6-2,2.8-3.6,3.6s-3.3,1.3-5.1,1.3c-3,0-5.3-0.9-7.2-2.8C137.6,30.1,136.7,27.4,136.7,23.9z
				 M140.4,23.9c0,2.7,0.6,4.7,1.8,6.1c1.2,1.3,2.7,2,4.5,2c1.8,0,3.3-0.7,4.4-2c1.2-1.4,1.8-3.4,1.8-6.2c0-2.6-0.6-4.6-1.8-5.9
				c-1.2-1.3-2.7-2-4.4-2c-1.8,0-3.3,0.7-4.5,2C140.9,19.1,140.4,21.1,140.4,23.9z"/>
		</g>
		<g class="st0">
			<path class="st1" d="M166.8,34.4l-8-21.1h3.8l4.5,12.6c0.5,1.4,0.9,2.8,1.4,4.3c0.3-1.1,0.8-2.5,1.3-4l4.7-12.9h3.7l-8,21.1
				H166.8z"/>
			<path class="st1" d="M188.1,43c-2-2.5-3.6-5.4-5-8.7c-1.4-3.3-2-6.8-2-10.4c0-3.2,0.5-6.2,1.5-9.1c1.2-3.4,3-6.7,5.5-10h2.6
				c-1.6,2.8-2.7,4.7-3.2,5.9c-0.8,1.8-1.4,3.7-1.9,5.7c-0.6,2.5-0.9,5-0.9,7.5c0,6.4,2,12.7,5.9,19.1H188.1z"/>
		</g>
		<g class="st0">
		</g>
		<g class="st0">
			<path class="st1" d="M203.5,34.4l11.3-15.2l-9.9-14h4.6l5.3,7.5c1.1,1.6,1.9,2.7,2.3,3.6c0.6-1.1,1.4-2.2,2.3-3.3l5.9-7.7h4.2
				L219.2,19l11,15.4h-4.8L218.2,24c-0.4-0.6-0.8-1.2-1.3-1.9c-0.7,1.1-1.1,1.8-1.4,2.2l-7.3,10.2H203.5z"/>
			<path class="st1" d="M234.1,34.4v-4.1h4.1v4.1c0,1.5-0.3,2.7-0.8,3.6c-0.5,0.9-1.4,1.6-2.5,2.1l-1-1.5c0.8-0.3,1.3-0.8,1.7-1.5
				c0.4-0.6,0.6-1.6,0.6-2.8H234.1z"/>
		</g>
		<g class="st0">
		</g>
		<g class="st0">
			<path class="st1" d="M256.9,34.4V22.1L245.6,5.3h4.7l5.7,8.8c1.1,1.6,2,3.3,3,4.9c0.9-1.5,1.9-3.2,3.2-5.2l5.6-8.6h4.5
				l-11.6,16.8v12.3H256.9z"/>
			<path class="st1" d="M277.7,43h-2.6c4-6.4,5.9-12.7,5.9-19.1c0-2.5-0.3-5-0.9-7.4c-0.5-2-1.1-3.9-1.9-5.7c-0.5-1.2-1.6-3.2-3.2-6
				h2.6c2.5,3.3,4.3,6.7,5.5,10c1,2.9,1.5,5.9,1.5,9.1c0,3.6-0.7,7-2.1,10.4C281.3,37.6,279.7,40.5,277.7,43z"/>
		</g>
	</g>
</g>
</svg>
