<?xml version="1.0" encoding="utf-8"?>
<!-- Generator: Adobe Illustrator 23.0.3, SVG Export Plug-In . SVG Version: 6.00 Build 0)  -->
<svg version="1.1" id="Layer_1" xmlns="http://www.w3.org/2000/svg" xmlns:xlink="http://www.w3.org/1999/xlink" x="0px" y="0px"
	 viewBox="0 0 494.3 412.1" style="enable-background:new 0 0 494.3 412.1;" xml:space="preserve">
<style type="text/css">
	.st0{enable-background:new    ;}
	.st1{fill:#006633;}
</style>
<title>191_1</title>
<g>
	<g id="Layer_1-2">
		<g class="st0">
			<path class="st1" d="M1.4,390v-4h12.2v4H1.4z"/>
			<path class="st1" d="M16.9,391.1l4-0.5c0.5,2.2,1.2,3.9,2.3,4.9s2.4,1.5,4,1.5c1.9,0,3.4-0.6,4.7-1.9c1.3-1.3,1.9-2.9,1.9-4.8
				c0-1.8-0.6-3.3-1.8-4.5s-2.7-1.8-4.5-1.8c-0.7,0-1.7,0.1-2.8,0.4l0.4-3.5c0.3,0,0.5,0,0.6,0c1.7,0,3.2-0.4,4.6-1.3
				c1.3-0.9,2-2.2,2-4.1c0-1.5-0.5-2.7-1.5-3.6c-1-1-2.3-1.4-3.8-1.4c-1.5,0-2.8,0.5-3.9,1.5c-1,1-1.7,2.4-2,4.4l-4-0.7
				c0.5-2.7,1.6-4.7,3.3-6.2c1.7-1.5,3.9-2.2,6.4-2.2c1.8,0,3.4,0.4,4.9,1.1c1.5,0.8,2.6,1.8,3.4,3.1s1.2,2.7,1.2,4.2
				c0,1.4-0.4,2.7-1.1,3.8s-1.9,2.1-3.3,2.7c1.9,0.4,3.4,1.4,4.4,2.7s1.6,3.1,1.6,5.2c0,2.8-1,5.2-3.1,7.2c-2.1,2-4.7,2.9-7.8,2.9
				c-2.8,0-5.2-0.8-7.1-2.5S17.2,393.8,16.9,391.1z"/>
		</g>
		<g class="st0">
			<path class="st1" d="M69.6,380.4c-1.1,0-2.5,0-5.7-0.2v0.2c2.6,1.8,4.1,5,4.1,8.2c0,8-5.5,11.5-10.5,11.5
				c-5.9,0-10.5-4.3-10.5-11.2c0-7.3,4.6-11.6,11.2-11.6h11.5L69.6,380.4z M64,388.6c0-3.7-1.9-8.3-6.4-8.3c-4.6,0-6.6,4.3-6.6,8.5
				c0,4.8,2.7,8.4,6.5,8.4C61.2,397.2,64,393.6,64,388.6z"/>
		</g>
		<g class="st0">
			<path class="st1" d="M75.5,390v-4h12.2v4H75.5z"/>
			<path class="st1" d="M111.8,395.9v3.8H90.4c0-1,0.1-1.9,0.5-2.8c0.5-1.5,1.4-2.9,2.6-4.3c1.2-1.4,2.9-3,5.2-4.9
				c3.5-2.9,5.9-5.2,7.1-6.8c1.2-1.7,1.8-3.3,1.8-4.8c0-1.6-0.6-2.9-1.7-4c-1.1-1.1-2.6-1.6-4.4-1.6c-1.9,0-3.4,0.6-4.6,1.7
				s-1.7,2.7-1.7,4.8l-4.1-0.4c0.3-3,1.3-5.4,3.1-6.9c1.8-1.6,4.3-2.4,7.3-2.4c3.1,0,5.5,0.9,7.4,2.6c1.8,1.7,2.7,3.8,2.7,6.4
				c0,1.3-0.3,2.6-0.8,3.8c-0.5,1.2-1.4,2.6-2.6,3.9c-1.2,1.4-3.3,3.3-6.1,5.7c-2.4,2-3.9,3.3-4.6,4.1c-0.7,0.7-1.2,1.4-1.7,2.1
				H111.8z"/>
		</g>
		<g class="st0">
			<path class="st1" d="M143.9,380.4c-1.1,0-2.5,0-5.7-0.2v0.2c2.6,1.8,4.1,5,4.1,8.2c0,8-5.5,11.5-10.5,11.5
				c-5.9,0-10.5-4.3-10.5-11.2c0-7.3,4.6-11.6,11.2-11.6h11.5L143.9,380.4z M138.3,388.6c0-3.7-1.9-8.3-6.4-8.3
				c-4.6,0-6.6,4.3-6.6,8.5c0,4.8,2.7,8.4,6.5,8.4C135.5,397.2,138.3,393.6,138.3,388.6z"/>
		</g>
		<g class="st0">
			<path class="st1" d="M179.7,386v2.9h-11.1V386H179.7z"/>
			<path class="st1" d="M205.4,380.4c-1.1,0-2.5,0-5.7-0.2v0.2c2.6,1.8,4.1,5,4.1,8.2c0,8-5.5,11.5-10.5,11.5
				c-5.9,0-10.5-4.3-10.5-11.2c0-7.3,4.6-11.6,11.2-11.6h11.5L205.4,380.4z M199.8,388.6c0-3.7-1.9-8.3-6.4-8.3
				c-4.6,0-6.6,4.3-6.6,8.5c0,4.8,2.7,8.4,6.5,8.4C197,397.2,199.8,393.6,199.8,388.6z"/>
		</g>
		<g class="st0">
			<path class="st1" d="M334.5,380.4c-1.1,0-2.5,0-5.7-0.2v0.2c2.6,1.8,4.1,5,4.1,8.2c0,8-5.5,11.5-10.5,11.5
				c-5.9,0-10.5-4.3-10.5-11.2c0-7.3,4.6-11.6,11.2-11.6h11.5L334.5,380.4z M328.9,388.6c0-3.7-1.9-8.3-6.4-8.3
				c-4.6,0-6.6,4.3-6.6,8.5c0,4.8,2.8,8.4,6.5,8.4C326.1,397.2,328.9,393.6,328.9,388.6z"/>
		</g>
		<g class="st0">
			<path class="st1" d="M383.9,395.9v3.8h-21.3c0-1,0.1-1.9,0.5-2.8c0.5-1.5,1.4-2.9,2.6-4.3c1.2-1.4,2.9-3,5.2-4.9
				c3.5-2.9,5.9-5.2,7.1-6.8c1.2-1.7,1.8-3.3,1.8-4.8c0-1.6-0.6-2.9-1.7-4c-1.1-1.1-2.6-1.6-4.4-1.6c-1.9,0-3.4,0.6-4.6,1.7
				s-1.7,2.7-1.7,4.8l-4.1-0.4c0.3-3,1.3-5.4,3.1-6.9c1.8-1.6,4.3-2.4,7.3-2.4c3.1,0,5.5,0.9,7.4,2.6c1.8,1.7,2.7,3.8,2.7,6.4
				c0,1.3-0.3,2.6-0.8,3.8c-0.5,1.2-1.4,2.6-2.6,3.9c-1.2,1.4-3.3,3.3-6.1,5.7c-2.4,2-3.9,3.3-4.6,4.1c-0.7,0.7-1.2,1.4-1.7,2.1
				H383.9z"/>
		</g>
		<g class="st0">
			<path class="st1" d="M410.8,380.4c-1.1,0-2.5,0-5.7-0.2v0.2c2.6,1.8,4.1,5,4.1,8.2c0,8-5.5,11.5-10.5,11.5
				c-5.9,0-10.5-4.3-10.5-11.2c0-7.3,4.6-11.6,11.2-11.6h11.5L410.8,380.4z M405.2,388.6c0-3.7-1.9-8.3-6.4-8.3
				c-4.6,0-6.6,4.3-6.6,8.5c0,4.8,2.8,8.4,6.5,8.4C402.4,397.2,405.2,393.6,405.2,388.6z"/>
		</g>
		<g class="st0">
			<path class="st1" d="M436.1,391.1l4-0.5c0.5,2.2,1.2,3.9,2.3,4.9s2.4,1.5,4,1.5c1.9,0,3.4-0.6,4.7-1.9c1.3-1.3,1.9-2.9,1.9-4.8
				c0-1.8-0.6-3.3-1.8-4.5c-1.2-1.2-2.7-1.8-4.5-1.8c-0.7,0-1.7,0.1-2.8,0.4l0.4-3.5c0.3,0,0.5,0,0.6,0c1.7,0,3.2-0.4,4.6-1.3
				c1.3-0.9,2-2.2,2-4.1c0-1.5-0.5-2.7-1.5-3.6c-1-1-2.3-1.4-3.8-1.4c-1.5,0-2.8,0.5-3.9,1.5c-1,1-1.7,2.4-2,4.4l-4-0.7
				c0.5-2.7,1.6-4.7,3.3-6.2c1.7-1.5,3.9-2.2,6.4-2.2c1.8,0,3.4,0.4,4.9,1.1c1.5,0.8,2.6,1.8,3.4,3.1s1.2,2.7,1.2,4.2
				c0,1.4-0.4,2.7-1.1,3.8s-1.9,2.1-3.3,2.7c1.9,0.4,3.4,1.4,4.4,2.7s1.6,3.1,1.6,5.2c0,2.8-1,5.2-3.1,7.2c-2.1,2-4.7,2.9-7.8,2.9
				c-2.8,0-5.2-0.8-7.1-2.5S436.4,393.8,436.1,391.1z"/>
		</g>
		<g class="st0">
			<path class="st1" d="M483.6,380.4c-1.1,0-2.5,0-5.7-0.2v0.2c2.6,1.8,4.1,5,4.1,8.2c0,8-5.5,11.5-10.5,11.5
				c-5.9,0-10.5-4.3-10.5-11.2c0-7.3,4.6-11.6,11.2-11.6h11.5L483.6,380.4z M478,388.6c0-3.7-1.9-8.3-6.4-8.3
				c-4.6,0-6.6,4.3-6.6,8.5c0,4.8,2.7,8.4,6.5,8.4C475.2,397.2,478,393.6,478,388.6z"/>
		</g>
		<g class="st0">
			<path class="st1" d="M246.6,399.7l12.5-16.8l-11-15.5h5.1l5.9,8.3c1.2,1.7,2.1,3,2.6,4c0.7-1.2,1.6-2.4,2.6-3.7l6.5-8.6h4.6
				L264,382.6l12.2,17.1h-5.3l-8.1-11.5c-0.5-0.7-0.9-1.4-1.4-2.2c-0.7,1.2-1.2,2-1.5,2.4l-8.1,11.2H246.6z"/>
		</g>
		<g class="st0">
			<path class="st1" d="M209.4,19l2.4-0.2c0.2,1.1,0.6,1.9,1.1,2.4c0.6,0.5,1.3,0.8,2.2,0.8c0.8,0,1.4-0.2,2-0.5
				c0.6-0.3,1-0.8,1.4-1.4c0.4-0.6,0.7-1.4,0.9-2.3s0.4-2,0.4-3c0-0.1,0-0.3,0-0.5c-0.5,0.8-1.2,1.4-2,1.9c-0.9,0.5-1.8,0.7-2.8,0.7
				c-1.7,0-3.1-0.6-4.2-1.8s-1.7-2.8-1.7-4.8c0-2,0.6-3.7,1.8-4.9c1.2-1.2,2.7-1.9,4.5-1.9c1.3,0,2.5,0.4,3.6,1.1s1.9,1.7,2.5,3
				s0.8,3.2,0.8,5.6c0,2.6-0.3,4.6-0.8,6.1c-0.6,1.5-1.4,2.7-2.5,3.5c-1.1,0.8-2.4,1.2-3.9,1.2c-1.6,0-2.8-0.4-3.8-1.3
				C210.2,21.8,209.6,20.6,209.4,19z M219.5,10.2c0-1.4-0.4-2.5-1.1-3.4s-1.7-1.2-2.7-1.2c-1.1,0-2,0.4-2.9,1.3
				c-0.8,0.9-1.2,2.1-1.2,3.5c0,1.3,0.4,2.3,1.2,3.1c0.8,0.8,1.7,1.2,2.9,1.2c1.1,0,2.1-0.4,2.8-1.2
				C219.1,12.7,219.5,11.6,219.5,10.2z"/>
			<path class="st1" d="M225,19l2.4-0.2c0.2,1.1,0.6,1.9,1.1,2.4c0.6,0.5,1.3,0.8,2.2,0.8c0.8,0,1.4-0.2,2-0.5
				c0.6-0.3,1-0.8,1.4-1.4c0.4-0.6,0.7-1.4,0.9-2.3s0.4-2,0.4-3c0-0.1,0-0.3,0-0.5c-0.5,0.8-1.2,1.4-2,1.9c-0.9,0.5-1.8,0.7-2.8,0.7
				c-1.7,0-3.1-0.6-4.2-1.8s-1.7-2.8-1.7-4.8c0-2,0.6-3.7,1.8-4.9c1.2-1.2,2.7-1.9,4.5-1.9c1.3,0,2.5,0.4,3.6,1.1s1.9,1.7,2.5,3
				s0.8,3.2,0.8,5.6c0,2.6-0.3,4.6-0.8,6.1c-0.6,1.5-1.4,2.7-2.5,3.5c-1.1,0.8-2.4,1.2-3.9,1.2c-1.6,0-2.8-0.4-3.8-1.3
				C225.8,21.8,225.2,20.6,225,19z M235.1,10.2c0-1.4-0.4-2.5-1.1-3.4s-1.7-1.2-2.7-1.2c-1.1,0-2,0.4-2.9,1.3
				c-0.8,0.9-1.2,2.1-1.2,3.5c0,1.3,0.4,2.3,1.2,3.1c0.8,0.8,1.7,1.2,2.9,1.2c1.1,0,2.1-0.4,2.8-1.2
				C234.7,12.7,235.1,11.6,235.1,10.2z"/>
		</g>
		<g class="st0">
			<path class="st1" d="M242.4,23.7v-2.8h2.8v2.8c0,1-0.2,1.9-0.5,2.5c-0.4,0.6-0.9,1.1-1.7,1.5l-0.7-1.1c0.5-0.2,0.9-0.6,1.1-1
				s0.4-1.1,0.4-1.9H242.4z"/>
		</g>
		<g class="st0">
			<path class="st1" d="M246.6,6.2V3.9h13v1.9c-1.3,1.4-2.5,3.2-3.8,5.4c-1.3,2.3-2.2,4.6-2.9,6.9c-0.5,1.7-0.8,3.5-0.9,5.5h-2.5
				c0-1.6,0.3-3.5,0.9-5.7s1.4-4.4,2.5-6.5s2.3-3.8,3.5-5.2H246.6z"/>
		</g>
		<g class="st0">
			<path class="st1" d="M268.1,23.7v-4.8h-8.7v-2.3l9.1-13h2v13h2.7v2.3h-2.7v4.8H268.1z M268.1,16.6v-9l-6.3,9H268.1z"/>
			<path class="st1" d="M276.3,8.4c0-1.4,0.4-2.6,1.1-3.7s1.8-1.5,3.1-1.5c1.3,0,2.3,0.4,3.1,1.3s1.2,2.2,1.2,4c0,1.7-0.4,3-1.3,3.9
				s-1.9,1.4-3.1,1.4c-1.2,0-2.2-0.5-3-1.4S276.3,10.3,276.3,8.4z M280.5,5c-0.6,0-1.1,0.3-1.5,0.8s-0.6,1.5-0.6,2.9
				c0,1.3,0.2,2.2,0.6,2.7s0.9,0.8,1.5,0.8c0.6,0,1.1-0.3,1.5-0.8s0.6-1.5,0.6-2.9c0-1.3-0.2-2.2-0.6-2.7S281.1,5,280.5,5z
				 M280.6,24.4l11-21.1h2l-10.9,21.1H280.6z M289.2,19c0-1.4,0.4-2.7,1.1-3.7s1.8-1.5,3.1-1.5c1.3,0,2.3,0.4,3.1,1.3s1.2,2.2,1.2,4
				c0,1.7-0.4,3-1.3,3.9s-1.9,1.4-3.1,1.4c-1.2,0-2.2-0.5-3-1.4S289.2,20.8,289.2,19z M293.5,15.5c-0.6,0-1.1,0.3-1.5,0.8
				s-0.6,1.5-0.6,2.9c0,1.3,0.2,2.2,0.6,2.7s0.9,0.8,1.5,0.8c0.6,0,1.1-0.3,1.6-0.8s0.6-1.5,0.6-2.9c0-1.3-0.2-2.2-0.6-2.7
				S294.1,15.5,293.5,15.5z"/>
		</g>
		<g class="st0">
			<path class="st1" d="M207.8,85l2.4-0.2c0.2,1.1,0.6,1.9,1.1,2.4c0.6,0.5,1.3,0.8,2.2,0.8c0.8,0,1.4-0.2,2-0.5
				c0.6-0.3,1-0.8,1.4-1.4c0.4-0.6,0.7-1.4,0.9-2.3s0.4-2,0.4-3c0-0.1,0-0.3,0-0.5c-0.5,0.8-1.2,1.4-2,1.9c-0.9,0.5-1.8,0.7-2.8,0.7
				c-1.7,0-3.1-0.6-4.2-1.8s-1.7-2.8-1.7-4.8c0-2,0.6-3.7,1.8-4.9c1.2-1.2,2.7-1.9,4.5-1.9c1.3,0,2.5,0.4,3.6,1.1s1.9,1.7,2.5,3
				s0.8,3.2,0.8,5.6c0,2.6-0.3,4.6-0.8,6.1c-0.6,1.5-1.4,2.7-2.5,3.5c-1.1,0.8-2.4,1.2-3.9,1.2c-1.6,0-2.8-0.4-3.8-1.3
				C208.6,87.8,208,86.6,207.8,85z M217.9,76.2c0-1.4-0.4-2.5-1.1-3.4s-1.7-1.2-2.7-1.2c-1.1,0-2,0.4-2.9,1.3
				c-0.8,0.9-1.2,2.1-1.2,3.5c0,1.3,0.4,2.3,1.2,3.1c0.8,0.8,1.7,1.2,2.9,1.2c1.1,0,2.1-0.4,2.8-1.2
				C217.5,78.7,217.9,77.6,217.9,76.2z"/>
			<path class="st1" d="M223,84.4l2.6-0.2c0.2,1.3,0.6,2.2,1.3,2.8s1.5,1,2.5,1c1.2,0,2.2-0.4,3-1.3s1.2-2.1,1.2-3.6
				c0-1.4-0.4-2.5-1.2-3.3c-0.8-0.8-1.8-1.2-3.1-1.2c-0.8,0-1.5,0.2-2.1,0.5c-0.6,0.4-1.1,0.8-1.5,1.4l-2.3-0.3l1.9-10.3h10v2.4h-8
				l-1.1,5.4c1.2-0.8,2.5-1.3,3.8-1.3c1.8,0,3.2,0.6,4.4,1.8s1.8,2.8,1.8,4.7c0,1.8-0.5,3.4-1.6,4.7c-1.3,1.6-3,2.4-5.3,2.4
				c-1.8,0-3.3-0.5-4.5-1.5C223.8,87.5,223.2,86.1,223,84.4z"/>
		</g>
		<g class="st0">
			<path class="st1" d="M239.8,89.7v-2.8h2.8v2.8c0,1-0.2,1.9-0.5,2.5c-0.4,0.6-0.9,1.1-1.7,1.5l-0.7-1.1c0.5-0.2,0.9-0.6,1.1-1
				s0.4-1.1,0.4-1.9H239.8z"/>
		</g>
		<g class="st0">
			<path class="st1" d="M252.5,89.7v-4.8h-8.7v-2.3l9.1-13h2v13h2.7v2.3H255v4.8H252.5z M252.5,82.6v-9l-6.3,9H252.5z"/>
			<path class="st1" d="M268.1,89.7v-4.8h-8.7v-2.3l9.1-13h2v13h2.7v2.3h-2.7v4.8H268.1z M268.1,82.6v-9l-6.3,9H268.1z"/>
			<path class="st1" d="M276.2,74.4c0-1.4,0.4-2.6,1.1-3.7c0.7-1,1.8-1.5,3.1-1.5c1.3,0,2.3,0.4,3.1,1.3c0.8,0.9,1.2,2.2,1.2,4
				c0,1.7-0.4,3-1.3,3.9s-1.9,1.4-3.1,1.4c-1.2,0-2.2-0.5-3-1.4S276.2,76.3,276.2,74.4z M280.5,71c-0.6,0-1.1,0.3-1.5,0.8
				c-0.4,0.5-0.6,1.5-0.6,2.9c0,1.3,0.2,2.2,0.6,2.7s0.9,0.8,1.5,0.8c0.6,0,1.1-0.3,1.5-0.8c0.4-0.5,0.6-1.5,0.6-2.9
				c0-1.3-0.2-2.2-0.6-2.7S281.1,71,280.5,71z M280.5,90.4l11-21.1h2l-10.9,21.1H280.5z M289.2,85c0-1.4,0.4-2.7,1.1-3.7
				c0.7-1,1.8-1.5,3.1-1.5c1.3,0,2.3,0.4,3.1,1.3c0.8,0.9,1.2,2.2,1.2,4c0,1.7-0.4,3-1.3,3.9s-1.9,1.4-3.1,1.4c-1.2,0-2.2-0.5-3-1.4
				S289.2,86.8,289.2,85z M293.5,81.5c-0.6,0-1.1,0.3-1.5,0.8c-0.4,0.5-0.6,1.5-0.6,2.9c0,1.3,0.2,2.2,0.6,2.7s0.9,0.8,1.5,0.8
				c0.6,0,1.1-0.3,1.6-0.8c0.4-0.5,0.6-1.5,0.6-2.9c0-1.3-0.2-2.2-0.6-2.7S294.1,81.5,293.5,81.5z"/>
		</g>
		<g class="st0">
			<path class="st1" d="M220.4,135.9L218,136c-0.2-1-0.5-1.7-0.9-2.1c-0.7-0.7-1.5-1.1-2.5-1.1c-0.8,0-1.5,0.2-2.1,0.7
				c-0.8,0.6-1.4,1.4-1.8,2.5s-0.7,2.6-0.7,4.6c0.6-0.9,1.3-1.6,2.2-2s1.8-0.7,2.7-0.7c1.6,0,3,0.6,4.2,1.8s1.7,2.8,1.7,4.7
				c0,1.3-0.3,2.4-0.8,3.5s-1.3,1.9-2.2,2.5s-2,0.9-3.2,0.9c-2.1,0-3.7-0.8-5-2.3s-1.9-4-1.9-7.5c0-3.9,0.7-6.7,2.1-8.4
				c1.2-1.5,2.9-2.3,5-2.3c1.6,0,2.9,0.4,3.9,1.3S220.2,134.3,220.4,135.9z M210.4,144.5c0,0.8,0.2,1.7,0.5,2.4s0.9,1.4,1.5,1.8
				s1.3,0.6,2,0.6c1,0,1.9-0.4,2.7-1.3s1.1-2,1.1-3.4c0-1.4-0.4-2.5-1.1-3.3s-1.7-1.2-2.8-1.2c-1.1,0-2.1,0.4-2.8,1.2
				S210.4,143.2,210.4,144.5z"/>
			<path class="st1" d="M227,140.1c-1-0.4-1.8-0.9-2.3-1.6S224,137,224,136c0-1.5,0.5-2.7,1.6-3.7s2.4-1.5,4.2-1.5
				c1.8,0,3.2,0.5,4.2,1.5s1.6,2.3,1.6,3.7c0,0.9-0.2,1.7-0.7,2.4s-1.2,1.2-2.2,1.6c1.2,0.4,2.2,1,2.8,1.9s1,2,1,3.2
				c0,1.7-0.6,3.2-1.8,4.3s-2.8,1.8-4.8,1.8s-3.6-0.6-4.8-1.8s-1.8-2.6-1.8-4.4c0-1.3,0.3-2.4,1-3.3S225.8,140.4,227,140.1z
				 M225.7,145.2c0,0.7,0.2,1.4,0.5,2s0.8,1.2,1.5,1.5s1.4,0.5,2.1,0.5c1.2,0,2.1-0.4,2.9-1.1s1.1-1.7,1.1-2.9
				c0-1.2-0.4-2.2-1.2-2.9s-1.8-1.2-3-1.2c-1.2,0-2.1,0.4-2.9,1.1S225.7,144.1,225.7,145.2z M226.5,136c0,0.9,0.3,1.7,0.9,2.3
				s1.4,0.9,2.4,0.9c0.9,0,1.7-0.3,2.3-0.9s0.9-1.3,0.9-2.2c0-0.9-0.3-1.7-0.9-2.3s-1.4-0.9-2.3-0.9c-0.9,0-1.7,0.3-2.3,0.9
				S226.5,135.1,226.5,136z"/>
			<path class="st1" d="M240.1,151v-2.8h2.8v2.8c0,1-0.2,1.9-0.5,2.5s-0.9,1.1-1.7,1.5l-0.7-1.1c0.5-0.2,0.9-0.6,1.1-1
				s0.4-1.1,0.4-1.9H240.1z"/>
			<path class="st1" d="M259.5,148.6v2.4h-13.2c0-0.6,0.1-1.2,0.3-1.7c0.3-0.9,0.9-1.8,1.6-2.7s1.8-1.9,3.2-3
				c2.2-1.8,3.7-3.2,4.4-4.2s1.1-2,1.1-3c0-1-0.3-1.8-1-2.5s-1.6-1-2.7-1c-1.2,0-2.1,0.4-2.8,1.1s-1.1,1.7-1.1,3l-2.5-0.3
				c0.2-1.9,0.8-3.3,2-4.3s2.6-1.5,4.6-1.5c1.9,0,3.4,0.5,4.6,1.6s1.7,2.4,1.7,4c0,0.8-0.2,1.6-0.5,2.4s-0.9,1.6-1.6,2.4
				s-2,2-3.8,3.5c-1.5,1.2-2.4,2.1-2.8,2.5s-0.8,0.9-1,1.3H259.5z"/>
			<path class="st1" d="M274.9,135.9l-2.4,0.2c-0.2-1-0.5-1.7-0.9-2.1c-0.7-0.7-1.5-1.1-2.5-1.1c-0.8,0-1.5,0.2-2.1,0.7
				c-0.8,0.6-1.4,1.4-1.8,2.5s-0.7,2.6-0.7,4.6c0.6-0.9,1.3-1.6,2.2-2s1.8-0.7,2.7-0.7c1.6,0,3,0.6,4.2,1.8s1.7,2.8,1.7,4.7
				c0,1.3-0.3,2.4-0.8,3.5s-1.3,1.9-2.2,2.5s-2,0.9-3.2,0.9c-2.1,0-3.7-0.8-5-2.3s-1.9-4-1.9-7.5c0-3.9,0.7-6.7,2.1-8.4
				c1.2-1.5,2.9-2.3,5-2.3c1.6,0,2.9,0.4,3.9,1.3S274.7,134.3,274.9,135.9z M264.9,144.5c0,0.8,0.2,1.7,0.5,2.4s0.9,1.4,1.5,1.8
				s1.3,0.6,2,0.6c1,0,1.9-0.4,2.7-1.3s1.1-2,1.1-3.4c0-1.4-0.4-2.5-1.1-3.3s-1.7-1.2-2.8-1.2c-1.1,0-2.1,0.4-2.8,1.2
				S264.9,143.2,264.9,144.5z"/>
			<path class="st1" d="M278.2,135.8c0-1.4,0.4-2.6,1.1-3.7s1.8-1.5,3.1-1.5c1.3,0,2.3,0.4,3.1,1.3s1.2,2.2,1.2,4
				c0,1.7-0.4,3-1.3,3.9s-1.9,1.4-3.1,1.4c-1.2,0-2.2-0.5-3-1.4S278.2,137.6,278.2,135.8z M282.5,132.3c-0.6,0-1.1,0.3-1.5,0.8
				s-0.6,1.5-0.6,2.9c0,1.3,0.2,2.2,0.6,2.7s0.9,0.8,1.5,0.8c0.6,0,1.1-0.3,1.5-0.8s0.6-1.5,0.6-2.9c0-1.3-0.2-2.2-0.6-2.7
				S283.1,132.3,282.5,132.3z M282.5,151.7l11-21.1h2l-10.9,21.1H282.5z M291.2,146.3c0-1.4,0.4-2.7,1.1-3.7s1.8-1.5,3.1-1.5
				c1.3,0,2.3,0.4,3.1,1.3s1.2,2.2,1.2,4c0,1.7-0.4,3-1.3,3.9s-1.9,1.4-3.1,1.4c-1.2,0-2.2-0.5-3-1.4S291.2,148.1,291.2,146.3z
				 M295.5,142.8c-0.6,0-1.1,0.3-1.5,0.8s-0.6,1.5-0.6,2.9c0,1.3,0.2,2.2,0.6,2.7s0.9,0.8,1.5,0.8c0.6,0,1.1-0.3,1.6-0.8
				s0.6-1.5,0.6-2.9c0-1.3-0.2-2.2-0.6-2.7S296.1,142.8,295.5,142.8z"/>
		</g>
		<g>
			<rect x="23" y="351.6" class="st1" width="462" height="8"/>
		</g>
		<g>
			<rect x="35" y="28.6" class="st1" width="4" height="327"/>
		</g>
		<g>
			<rect x="112" y="95.6" class="st1" width="4" height="260"/>
		</g>
		<g>
			<rect x="187" y="151.6" class="st1" width="4" height="204"/>
		</g>
		<g>
			<rect x="254" y="181.6" class="st1" width="4" height="174"/>
		</g>
		<g>
			<rect x="319" y="151.6" class="st1" width="4" height="204"/>
		</g>
		<g>
			<rect x="384" y="95.6" class="st1" width="4" height="260"/>
		</g>
		<g>
			<rect x="462" y="28.6" class="st1" width="4" height="327"/>
		</g>
		<g>
			<path class="st1" d="M470.1,347.5c-14.8,0-40.5-3.9-64.8-26.7c-11.6-10.9-24.2-27.4-37.4-44.8c-32-42.1-68.3-89.8-112-91.1
				c-64.2-2-94.4,39-123.6,78.6c-5.8,7.9-11.8,16-17.9,23.5c-19.1,23.7-64.9,58.8-91.1,58.8c-0.3,0-0.5,0-0.8,0l0.2-8
				c0.2,0,0.4,0,0.6,0c21.4,0,64.3-30.5,84.8-55.9c6-7.4,11.6-15.1,17.6-23.3c14.9-20.2,30.2-41.1,50.4-56.7
				c23-17.9,49.2-26.1,79.8-25.1c21.3,0.7,42.7,11.2,65.3,32.3c19.3,18,37.1,41.4,52.8,62c13,17.2,25.4,33.4,36.5,43.8
				c33.2,31.1,69.7,23.7,70.1,23.7l1.7,7.8C482,346.6,477.3,347.5,470.1,347.5z"/>
		</g>
		<g>
			<rect x="53.5" y="31.2" class="st1" width="394" height="4"/>
		</g>
		<g>
			<polygon class="st1" points="55.8,41.2 42,33.2 55.8,25.3 			"/>
		</g>
		<g>
			<polygon class="st1" points="445.2,41.2 459,33.2 445.2,25.3 			"/>
		</g>
		<g>
			<rect x="132.5" y="101.9" class="st1" width="237" height="4"/>
		</g>
		<g>
			<polygon class="st1" points="134.8,111.9 121,103.9 134.8,95.9 			"/>
		</g>
		<g>
			<polygon class="st1" points="367.2,111.9 381,103.9 367.2,95.9 			"/>
		</g>
		<g>
			<rect x="206.5" y="157.2" class="st1" width="98" height="4"/>
		</g>
		<g>
			<polygon class="st1" points="208.8,167.2 195,159.2 208.8,151.3 			"/>
		</g>
		<g>
			<polygon class="st1" points="302.2,167.2 316,159.2 302.2,151.3 			"/>
		</g>
	</g>
</g>
</svg>
