<?xml version="1.0" encoding="utf-8"?>
<!-- Generator: Adobe Illustrator 23.0.3, SVG Export Plug-In . SVG Version: 6.00 Build 0)  -->
<svg version="1.1" id="Layer_1" xmlns="http://www.w3.org/2000/svg" xmlns:xlink="http://www.w3.org/1999/xlink" x="0px" y="0px"
	 viewBox="0 0 245 250" style="enable-background:new 0 0 245 250;" xml:space="preserve">
<style type="text/css">
	.st0{enable-background:new    ;}
	.st1{fill:#006633;}
</style>
<title>196_2</title>
<g>
	<g id="Layer_1-2">
		<g class="st0">
			<path class="st1" d="M9.5,240.8v1.6h-9c0-0.4,0.1-0.8,0.2-1.2c0.2-0.6,0.6-1.2,1.1-1.8s1.2-1.3,2.2-2.1c1.5-1.2,2.5-2.2,3-2.9
				c0.5-0.7,0.8-1.4,0.8-2c0-0.7-0.2-1.2-0.7-1.7c-0.5-0.5-1.1-0.7-1.8-0.7c-0.8,0-1.4,0.2-1.9,0.7c-0.5,0.5-0.7,1.1-0.7,2l-1.7-0.2
				c0.1-1.3,0.6-2.2,1.3-2.9c0.8-0.7,1.8-1,3.1-1c1.3,0,2.3,0.4,3.1,1.1s1.1,1.6,1.1,2.7c0,0.5-0.1,1.1-0.3,1.6
				c-0.2,0.5-0.6,1.1-1.1,1.7s-1.4,1.4-2.6,2.4c-1,0.8-1.6,1.4-1.9,1.7c-0.3,0.3-0.5,0.6-0.7,0.9H9.5z"/>
			<path class="st1" d="M11.3,235.7c0-1.6,0.2-2.9,0.5-3.9c0.3-1,0.8-1.7,1.5-2.3c0.7-0.5,1.5-0.8,2.5-0.8c0.7,0,1.4,0.1,1.9,0.4
				c0.5,0.3,1,0.7,1.4,1.3s0.6,1.2,0.8,2c0.2,0.8,0.3,1.9,0.3,3.2c0,1.6-0.2,2.9-0.5,3.9c-0.3,1-0.8,1.7-1.5,2.3
				c-0.7,0.5-1.5,0.8-2.5,0.8c-1.3,0-2.3-0.5-3.1-1.4C11.8,240.1,11.3,238.3,11.3,235.7z M13,235.7c0,2.2,0.3,3.7,0.8,4.4
				c0.5,0.7,1.2,1.1,1.9,1.1s1.4-0.4,1.9-1.1c0.5-0.7,0.8-2.2,0.8-4.4c0-2.2-0.3-3.7-0.8-4.4c-0.5-0.7-1.2-1.1-1.9-1.1
				c-0.8,0-1.4,0.3-1.8,1C13.3,232,13,233.5,13,235.7z"/>
			<path class="st1" d="M22.2,232.1c0-1,0.2-1.8,0.7-2.5s1.2-1,2.1-1c0.9,0,1.6,0.3,2.1,0.9s0.8,1.5,0.8,2.7c0,1.1-0.3,2-0.8,2.6
				c-0.6,0.6-1.3,0.9-2.1,0.9c-0.8,0-1.5-0.3-2-0.9C22.4,234.3,22.2,233.4,22.2,232.1z M25.1,229.8c-0.4,0-0.8,0.2-1,0.5
				s-0.4,1-0.4,2c0,0.9,0.1,1.5,0.4,1.8s0.6,0.5,1,0.5c0.4,0,0.8-0.2,1-0.5s0.4-1,0.4-2c0-0.9-0.1-1.5-0.4-1.8
				C25.8,230,25.5,229.8,25.1,229.8z M25.1,242.9l7.4-14.3h1.4l-7.4,14.3H25.1z M30.9,239.2c0-1,0.2-1.8,0.7-2.5
				c0.5-0.7,1.2-1,2.1-1c0.9,0,1.6,0.3,2.1,0.9s0.8,1.5,0.8,2.7c0,1.1-0.3,2-0.8,2.7c-0.6,0.6-1.3,0.9-2.1,0.9c-0.8,0-1.5-0.3-2-0.9
				C31.2,241.4,30.9,240.5,30.9,239.2z M33.8,236.9c-0.4,0-0.8,0.2-1,0.5s-0.4,1-0.4,2c0,0.9,0.1,1.5,0.4,1.8s0.6,0.5,1,0.5
				c0.4,0,0.8-0.2,1-0.5s0.4-1,0.4-2c0-0.9-0.1-1.5-0.4-1.8C34.6,237.1,34.3,236.9,33.8,236.9z"/>
		</g>
		<g class="st0">
			<path class="st1" d="M7.1,154H5.4v-10.6c-0.4,0.4-0.9,0.8-1.6,1.1c-0.7,0.4-1.2,0.7-1.8,0.9v-1.6c0.9-0.4,1.7-1,2.4-1.6
				c0.7-0.6,1.2-1.2,1.5-1.8h1.1V154z"/>
			<path class="st1" d="M11.3,147.3c0-1.6,0.2-2.9,0.5-3.9c0.3-1,0.8-1.7,1.5-2.3c0.7-0.5,1.5-0.8,2.5-0.8c0.7,0,1.4,0.1,1.9,0.4
				c0.5,0.3,1,0.7,1.4,1.3s0.6,1.2,0.8,2c0.2,0.8,0.3,1.9,0.3,3.2c0,1.6-0.2,2.9-0.5,3.9c-0.3,1-0.8,1.7-1.5,2.3
				c-0.7,0.5-1.5,0.8-2.5,0.8c-1.3,0-2.3-0.5-3.1-1.4C11.8,151.7,11.3,149.9,11.3,147.3z M13,147.3c0,2.2,0.3,3.7,0.8,4.4
				c0.5,0.7,1.2,1.1,1.9,1.1s1.4-0.4,1.9-1.1c0.5-0.7,0.8-2.2,0.8-4.4c0-2.2-0.3-3.7-0.8-4.4c-0.5-0.7-1.2-1.1-1.9-1.1
				c-0.8,0-1.4,0.3-1.8,1C13.3,143.6,13,145.1,13,147.3z"/>
			<path class="st1" d="M22.2,143.7c0-1,0.2-1.8,0.7-2.5s1.2-1,2.1-1c0.9,0,1.6,0.3,2.1,0.9s0.8,1.5,0.8,2.7c0,1.1-0.3,2-0.8,2.6
				c-0.6,0.6-1.3,0.9-2.1,0.9c-0.8,0-1.5-0.3-2-0.9C22.4,145.9,22.2,144.9,22.2,143.7z M25.1,141.4c-0.4,0-0.8,0.2-1,0.5
				s-0.4,1-0.4,2c0,0.9,0.1,1.5,0.4,1.8s0.6,0.5,1,0.5c0.4,0,0.8-0.2,1-0.5s0.4-1,0.4-2c0-0.9-0.1-1.5-0.4-1.8
				C25.8,141.5,25.5,141.4,25.1,141.4z M25.1,154.5l7.4-14.3h1.4l-7.4,14.3H25.1z M30.9,150.8c0-1,0.2-1.8,0.7-2.5
				c0.5-0.7,1.2-1,2.1-1c0.9,0,1.6,0.3,2.1,0.9s0.8,1.5,0.8,2.7c0,1.1-0.3,2-0.8,2.7c-0.6,0.6-1.3,0.9-2.1,0.9c-0.8,0-1.5-0.3-2-0.9
				C31.2,153,30.9,152.1,30.9,150.8z M33.8,148.5c-0.4,0-0.8,0.2-1,0.5s-0.4,1-0.4,2c0,0.9,0.1,1.5,0.4,1.8s0.6,0.5,1,0.5
				c0.4,0,0.8-0.2,1-0.5s0.4-1,0.4-2c0-0.9-0.1-1.5-0.4-1.8C34.6,148.7,34.3,148.5,33.8,148.5z"/>
		</g>
		<g class="st0">
			<path class="st1" d="M71.6,161.3v-1.7h5.1v1.7H71.6z"/>
		</g>
		<g class="st0">
			<path class="st1" d="M86,165.3h-1.7v-10.6c-0.4,0.4-0.9,0.8-1.6,1.1c-0.7,0.4-1.2,0.7-1.8,0.9v-1.6c0.9-0.4,1.7-1,2.4-1.6
				c0.7-0.6,1.2-1.2,1.5-1.8H86V165.3z"/>
			<path class="st1" d="M90.2,158.7c0-1.6,0.2-2.9,0.5-3.9c0.3-1,0.8-1.7,1.5-2.3c0.7-0.5,1.5-0.8,2.5-0.8c0.7,0,1.4,0.1,1.9,0.4
				c0.5,0.3,1,0.7,1.4,1.3s0.6,1.2,0.8,2c0.2,0.8,0.3,1.9,0.3,3.2c0,1.6-0.2,2.9-0.5,3.9c-0.3,1-0.8,1.7-1.5,2.3
				c-0.7,0.5-1.5,0.8-2.5,0.8c-1.3,0-2.3-0.5-3.1-1.4C90.7,163,90.2,161.2,90.2,158.7z M91.9,158.7c0,2.2,0.3,3.7,0.8,4.4
				c0.5,0.7,1.2,1.1,1.9,1.1s1.4-0.4,1.9-1.1c0.5-0.7,0.8-2.2,0.8-4.4c0-2.2-0.3-3.7-0.8-4.4c-0.5-0.7-1.2-1.1-1.9-1.1
				c-0.8,0-1.4,0.3-1.8,1C92.2,154.9,91.9,156.4,91.9,158.7z"/>
			<path class="st1" d="M101.1,155c0-1,0.2-1.8,0.7-2.5s1.2-1,2.1-1c0.9,0,1.6,0.3,2.1,0.9s0.8,1.5,0.8,2.7c0,1.1-0.3,2-0.8,2.6
				c-0.6,0.6-1.3,0.9-2.1,0.9c-0.8,0-1.5-0.3-2-0.9C101.3,157.2,101.1,156.3,101.1,155z M104,152.7c-0.4,0-0.8,0.2-1,0.5
				s-0.4,1-0.4,2c0,0.9,0.1,1.5,0.4,1.8s0.6,0.5,1,0.5c0.4,0,0.8-0.2,1-0.5s0.4-1,0.4-2c0-0.9-0.1-1.5-0.4-1.8
				C104.7,152.9,104.4,152.7,104,152.7z M104,165.8l7.4-14.3h1.4l-7.4,14.3H104z M109.8,162.2c0-1,0.2-1.8,0.7-2.5
				c0.5-0.7,1.2-1,2.1-1c0.9,0,1.6,0.3,2.1,0.9s0.8,1.5,0.8,2.7c0,1.1-0.3,2-0.8,2.7c-0.6,0.6-1.3,0.9-2.1,0.9c-0.8,0-1.5-0.3-2-0.9
				C110.1,164.3,109.8,163.4,109.8,162.2z M112.7,159.8c-0.4,0-0.8,0.2-1,0.5s-0.4,1-0.4,2c0,0.9,0.1,1.5,0.4,1.8s0.6,0.5,1,0.5
				c0.4,0,0.8-0.2,1-0.5s0.4-1,0.4-2c0-0.9-0.1-1.5-0.4-1.8C113.5,160,113.2,159.8,112.7,159.8z"/>
		</g>
		<g class="st0">
			<path class="st1" d="M173.6,210.9v-1.7h5.1v1.7H173.6z"/>
		</g>
		<g class="st0">
			<path class="st1" d="M188,215h-1.7v-10.6c-0.4,0.4-0.9,0.8-1.6,1.1c-0.7,0.4-1.2,0.7-1.8,0.9v-1.6c0.9-0.4,1.7-1,2.4-1.6
				c0.7-0.6,1.2-1.2,1.5-1.8h1.1V215z"/>
			<path class="st1" d="M192.2,211.5l1.7-0.1c0.1,0.9,0.4,1.5,0.9,1.9s1,0.6,1.7,0.6c0.8,0,1.5-0.3,2-0.9s0.8-1.4,0.8-2.4
				c0-0.9-0.3-1.7-0.8-2.2s-1.2-0.8-2.1-0.8c-0.5,0-1,0.1-1.5,0.4s-0.8,0.6-1,0.9l-1.6-0.2l1.3-7h6.7v1.6h-5.4l-0.7,3.6
				c0.8-0.6,1.7-0.9,2.6-0.9c1.2,0,2.2,0.4,3,1.2c0.8,0.8,1.2,1.9,1.2,3.2c0,1.2-0.4,2.3-1.1,3.2c-0.9,1.1-2.1,1.6-3.6,1.6
				c-1.2,0-2.2-0.3-3-1C192.8,213.5,192.3,212.6,192.2,211.5z"/>
			<path class="st1" d="M203.1,204.7c0-1,0.2-1.8,0.7-2.5c0.5-0.7,1.2-1,2.1-1c0.9,0,1.6,0.3,2.1,0.9c0.6,0.6,0.8,1.5,0.8,2.7
				c0,1.1-0.3,2-0.8,2.6c-0.6,0.6-1.3,0.9-2.1,0.9c-0.8,0-1.5-0.3-2-0.9C203.3,206.9,203.1,205.9,203.1,204.7z M206,202.4
				c-0.4,0-0.8,0.2-1,0.5s-0.4,1-0.4,2c0,0.9,0.1,1.5,0.4,1.8s0.6,0.5,1,0.5c0.4,0,0.8-0.2,1-0.5s0.4-1,0.4-2c0-0.9-0.1-1.5-0.4-1.8
				S206.4,202.4,206,202.4z M206,215.5l7.4-14.3h1.3l-7.4,14.3H206z M211.8,211.8c0-1,0.2-1.8,0.7-2.5s1.2-1,2.1-1
				c0.9,0,1.6,0.3,2.1,0.9c0.6,0.6,0.8,1.5,0.8,2.7c0,1.1-0.3,2-0.8,2.7c-0.6,0.6-1.3,0.9-2.1,0.9c-0.8,0-1.5-0.3-2-0.9
				S211.8,213.1,211.8,211.8z M214.7,209.5c-0.4,0-0.8,0.2-1,0.5s-0.4,1-0.4,2c0,0.9,0.1,1.5,0.4,1.8s0.6,0.5,1,0.5
				c0.4,0,0.8-0.2,1-0.5s0.4-1,0.4-2c0-0.9-0.1-1.5-0.4-1.8S215.2,209.5,214.7,209.5z"/>
		</g>
		<g class="st0">
			<path class="st1" d="M101.1,11.3l1.8,0.5c-0.4,1.5-1.1,2.6-2,3.4c-1,0.8-2.2,1.2-3.6,1.2c-1.5,0-2.6-0.3-3.6-0.9
				s-1.6-1.5-2.1-2.6c-0.5-1.1-0.7-2.3-0.7-3.6c0-1.4,0.3-2.6,0.8-3.7c0.5-1.1,1.3-1.8,2.3-2.4c1-0.5,2.1-0.8,3.3-0.8
				c1.4,0,2.5,0.3,3.4,1s1.6,1.7,1.9,2.9l-1.8,0.4c-0.3-1-0.8-1.7-1.4-2.2C99,4,98.2,3.8,97.3,3.8c-1,0-1.9,0.3-2.6,0.7
				c-0.7,0.5-1.2,1.2-1.5,2s-0.4,1.7-0.4,2.6c0,1.2,0.2,2.2,0.5,3s0.9,1.5,1.6,1.9c0.7,0.4,1.5,0.6,2.3,0.6c1,0,1.9-0.3,2.6-0.9
				C100.4,13.3,100.9,12.4,101.1,11.3z"/>
			<path class="st1" d="M111.3,14.8c-0.6,0.5-1.2,0.9-1.8,1.1s-1.2,0.3-1.8,0.3c-1.1,0-1.9-0.3-2.5-0.8c-0.6-0.5-0.9-1.2-0.9-2
				c0-0.5,0.1-0.9,0.3-1.3s0.5-0.7,0.9-1s0.8-0.4,1.2-0.5c0.3-0.1,0.8-0.2,1.5-0.3c1.3-0.2,2.3-0.4,3-0.6c0-0.2,0-0.4,0-0.4
				c0-0.7-0.2-1.2-0.5-1.4c-0.4-0.4-1.1-0.6-1.9-0.6c-0.8,0-1.4,0.1-1.7,0.4s-0.6,0.8-0.8,1.5L104.6,9c0.1-0.7,0.4-1.3,0.7-1.7
				c0.3-0.4,0.8-0.8,1.5-1c0.6-0.2,1.4-0.3,2.2-0.3c0.8,0,1.5,0.1,2,0.3c0.5,0.2,0.9,0.4,1.2,0.7s0.4,0.7,0.5,1.1
				c0.1,0.3,0.1,0.8,0.1,1.5v2.2c0,1.5,0,2.5,0.1,2.9s0.2,0.8,0.4,1.2h-1.7C111.5,15.7,111.4,15.3,111.3,14.8z M111.2,11.1
				c-0.6,0.2-1.5,0.5-2.7,0.6c-0.7,0.1-1.2,0.2-1.5,0.3c-0.3,0.1-0.5,0.3-0.7,0.5c-0.2,0.2-0.2,0.5-0.2,0.8c0,0.4,0.2,0.8,0.5,1.1
				s0.8,0.4,1.5,0.4c0.6,0,1.2-0.1,1.7-0.4s0.9-0.7,1.1-1.2c0.2-0.4,0.3-0.9,0.3-1.7V11.1z"/>
			<path class="st1" d="M115.5,4.4V2.5h1.7v1.9H115.5z M115.5,16V6.2h1.7V16H115.5z"/>
			<path class="st1" d="M126.1,16v-1.4c-0.8,1.1-1.8,1.7-3.1,1.7c-0.6,0-1.1-0.1-1.6-0.3c-0.5-0.2-0.9-0.5-1.1-0.8
				c-0.2-0.3-0.4-0.7-0.5-1.2c-0.1-0.3-0.1-0.8-0.1-1.6V6.2h1.7v5.4c0,0.9,0,1.5,0.1,1.8c0.1,0.4,0.3,0.8,0.7,1
				c0.3,0.3,0.8,0.4,1.3,0.4c0.5,0,1-0.1,1.4-0.4c0.4-0.3,0.7-0.6,0.9-1c0.2-0.4,0.3-1.1,0.3-1.9V6.2h1.7V16H126.1z"/>
			<path class="st1" d="M141.3,16h-1.7V5.4c-0.4,0.4-0.9,0.8-1.6,1.1c-0.7,0.4-1.2,0.7-1.8,0.9V5.8c0.9-0.4,1.7-1,2.4-1.6
				c0.7-0.6,1.2-1.2,1.5-1.8h1.1V16z"/>
			<path class="st1" d="M145.5,9.3c0-1.6,0.2-2.9,0.5-3.9s0.8-1.7,1.5-2.3s1.5-0.8,2.5-0.8c0.7,0,1.4,0.1,1.9,0.4s1,0.7,1.4,1.3
				s0.6,1.2,0.8,2s0.3,1.9,0.3,3.2c0,1.6-0.2,2.9-0.5,3.9c-0.3,1-0.8,1.7-1.5,2.3s-1.5,0.8-2.5,0.8c-1.3,0-2.3-0.5-3.1-1.4
				C146,13.7,145.5,11.9,145.5,9.3z M147.2,9.3c0,2.2,0.3,3.7,0.8,4.4c0.5,0.7,1.2,1.1,1.9,1.1s1.4-0.4,1.9-1.1
				c0.5-0.7,0.8-2.2,0.8-4.4c0-2.2-0.3-3.7-0.8-4.4c-0.5-0.7-1.2-1.1-1.9-1.1c-0.8,0-1.4,0.3-1.8,1C147.5,5.6,147.2,7.1,147.2,9.3z"
				/>
			<path class="st1" d="M156.4,5.7c0-1,0.2-1.8,0.7-2.5c0.5-0.7,1.2-1,2.1-1c0.9,0,1.6,0.3,2.1,0.9s0.8,1.5,0.8,2.7
				c0,1.1-0.3,2-0.8,2.6c-0.6,0.6-1.3,0.9-2.1,0.9c-0.8,0-1.5-0.3-2-0.9C156.7,7.9,156.4,6.9,156.4,5.7z M159.3,3.4
				c-0.4,0-0.8,0.2-1,0.5c-0.3,0.4-0.4,1-0.4,2c0,0.9,0.1,1.5,0.4,1.8s0.6,0.5,1,0.5c0.4,0,0.8-0.2,1-0.5s0.4-1,0.4-2
				c0-0.9-0.1-1.5-0.4-1.8S159.7,3.4,159.3,3.4z M159.3,16.5l7.4-14.3h1.3l-7.4,14.3H159.3z M165.1,12.8c0-1,0.2-1.8,0.7-2.5
				s1.2-1,2.1-1c0.9,0,1.6,0.3,2.1,0.9s0.8,1.5,0.8,2.7c0,1.1-0.3,2-0.8,2.7c-0.6,0.6-1.3,0.9-2.1,0.9c-0.8,0-1.5-0.3-2-0.9
				S165.1,14.1,165.1,12.8z M168.1,10.5c-0.4,0-0.8,0.2-1,0.5s-0.4,1-0.4,2c0,0.9,0.1,1.5,0.4,1.8s0.6,0.5,1,0.5
				c0.4,0,0.8-0.2,1-0.5s0.4-1,0.4-2c0-0.9-0.1-1.5-0.4-1.8C168.8,10.7,168.5,10.5,168.1,10.5z"/>
			<path class="st1" d="M179.1,16v-1.9h1.9V16H179.1z"/>
			<path class="st1" d="M184.4,16v-1.9h1.9V16H184.4z"/>
			<path class="st1" d="M189.6,16v-1.9h1.9V16H189.6z"/>
		</g>
		<g class="st0">
			<path class="st1" d="M0.8,106.2l1.7-0.1c0.1,0.9,0.4,1.5,0.9,1.9s1,0.6,1.7,0.6c0.8,0,1.5-0.3,2-0.9c0.6-0.6,0.8-1.4,0.8-2.4
				c0-0.9-0.3-1.7-0.8-2.2c-0.5-0.5-1.2-0.8-2.1-0.8c-0.5,0-1,0.1-1.5,0.4s-0.8,0.6-1,0.9l-1.6-0.2l1.3-7h6.7V98H3.7L3,101.7
				c0.8-0.6,1.7-0.9,2.6-0.9c1.2,0,2.2,0.4,3,1.2c0.8,0.8,1.2,1.9,1.2,3.2c0,1.2-0.4,2.3-1.1,3.2c-0.9,1.1-2.1,1.6-3.6,1.6
				c-1.2,0-2.2-0.3-3-1C1.3,108.3,0.9,107.4,0.8,106.2z"/>
			<path class="st1" d="M11.6,99.5c0-1,0.2-1.8,0.7-2.5s1.2-1,2.1-1c0.9,0,1.6,0.3,2.1,0.9s0.8,1.5,0.8,2.7c0,1.1-0.3,2-0.8,2.6
				c-0.6,0.6-1.3,0.9-2.1,0.9c-0.8,0-1.5-0.3-2-0.9C11.9,101.7,11.6,100.7,11.6,99.5z M14.5,97.2c-0.4,0-0.8,0.2-1,0.5s-0.4,1-0.4,2
				c0,0.9,0.1,1.5,0.4,1.8s0.6,0.5,1,0.5c0.4,0,0.8-0.2,1-0.5s0.4-1,0.4-2c0-0.9-0.1-1.5-0.4-1.8C15.3,97.3,14.9,97.2,14.5,97.2z
				 M14.5,110.3L22,96h1.4l-7.4,14.3H14.5z M20.4,106.6c0-1,0.2-1.8,0.7-2.5c0.5-0.7,1.2-1,2.1-1c0.9,0,1.6,0.3,2.1,0.9
				s0.8,1.5,0.8,2.7c0,1.1-0.3,2-0.8,2.7c-0.6,0.6-1.3,0.9-2.1,0.9c-0.8,0-1.5-0.3-2-0.9C20.7,108.8,20.4,107.8,20.4,106.6z
				 M23.3,104.3c-0.4,0-0.8,0.2-1,0.5s-0.4,1-0.4,2c0,0.9,0.1,1.5,0.4,1.8s0.6,0.5,1,0.5c0.4,0,0.8-0.2,1-0.5s0.4-1,0.4-2
				c0-0.9-0.1-1.5-0.4-1.8C24.1,104.5,23.7,104.3,23.3,104.3z"/>
		</g>
		<g class="st0">
			<path class="st1" d="M0.8,58.9C0.8,57.3,1,56,1.3,55c0.3-1,0.8-1.7,1.5-2.3C3.4,52.2,4.2,52,5.2,52c0.7,0,1.4,0.1,1.9,0.4
				c0.5,0.3,1,0.7,1.4,1.3s0.6,1.2,0.8,2c0.2,0.8,0.3,1.9,0.3,3.2c0,1.6-0.2,2.9-0.5,3.9c-0.3,1-0.8,1.7-1.5,2.3
				c-0.7,0.5-1.5,0.8-2.5,0.8c-1.3,0-2.3-0.5-3.1-1.4C1.2,63.3,0.8,61.5,0.8,58.9z M2.5,58.9c0,2.2,0.3,3.7,0.8,4.4
				c0.5,0.7,1.2,1.1,1.9,1.1s1.4-0.4,1.9-1.1c0.5-0.7,0.8-2.2,0.8-4.4c0-2.2-0.3-3.7-0.8-4.4c-0.5-0.7-1.2-1.1-1.9-1.1
				c-0.8,0-1.4,0.3-1.8,1C2.8,55.2,2.5,56.7,2.5,58.9z"/>
			<path class="st1" d="M11.6,55.3c0-1,0.2-1.8,0.7-2.5s1.2-1,2.1-1c0.9,0,1.6,0.3,2.1,0.9s0.8,1.5,0.8,2.7c0,1.1-0.3,2-0.8,2.6
				C16,58.7,15.3,59,14.5,59c-0.8,0-1.5-0.3-2-0.9C11.9,57.4,11.6,56.5,11.6,55.3z M14.5,52.9c-0.4,0-0.8,0.2-1,0.5s-0.4,1-0.4,2
				c0,0.9,0.1,1.5,0.4,1.8s0.6,0.5,1,0.5c0.4,0,0.8-0.2,1-0.5s0.4-1,0.4-2c0-0.9-0.1-1.5-0.4-1.8C15.3,53.1,14.9,52.9,14.5,52.9z
				 M14.5,66.1L22,51.8h1.4l-7.4,14.3H14.5z M20.4,62.4c0-1,0.2-1.8,0.7-2.5c0.5-0.7,1.2-1,2.1-1c0.9,0,1.6,0.3,2.1,0.9
				s0.8,1.5,0.8,2.7c0,1.1-0.3,2-0.8,2.7c-0.6,0.6-1.3,0.9-2.1,0.9c-0.8,0-1.5-0.3-2-0.9C20.7,64.6,20.4,63.6,20.4,62.4z M23.3,60.1
				c-0.4,0-0.8,0.2-1,0.5s-0.4,1-0.4,2c0,0.9,0.1,1.5,0.4,1.8s0.6,0.5,1,0.5c0.4,0,0.8-0.2,1-0.5s0.4-1,0.4-2c0-0.9-0.1-1.5-0.4-1.8
				C24.1,60.2,23.7,60.1,23.3,60.1z"/>
		</g>
		<g>
			<rect x="45" y="52" class="st1" width="4" height="198"/>
		</g>
		<g>
			<rect x="47" y="51" class="st1" width="198" height="4"/>
		</g>
		<g class="st0">
			<path class="st1" d="M71,44V29h2v15H71z"/>
			<path class="st1" d="M76.4,44V29H82c1.1,0,2.1,0.2,2.8,0.5c0.7,0.3,1.2,0.8,1.6,1.4c0.4,0.6,0.6,1.3,0.6,2c0,0.6-0.2,1.2-0.5,1.8
				s-0.9,1-1.6,1.4c0.9,0.3,1.6,0.7,2.1,1.4c0.5,0.6,0.7,1.4,0.7,2.3c0,0.7-0.1,1.4-0.4,2c-0.3,0.6-0.7,1.1-1.1,1.4s-1,0.6-1.6,0.7
				c-0.7,0.2-1.5,0.3-2.4,0.3H76.4z M78.4,35.3h3.3c0.9,0,1.5-0.1,1.9-0.2c0.5-0.1,0.9-0.4,1.1-0.7c0.3-0.3,0.4-0.8,0.4-1.3
				c0-0.5-0.1-0.9-0.4-1.3c-0.2-0.4-0.6-0.6-1-0.8c-0.4-0.1-1.2-0.2-2.3-0.2h-3V35.3z M78.4,42.3h3.7c0.6,0,1.1,0,1.4-0.1
				c0.5-0.1,0.8-0.2,1.1-0.4s0.6-0.5,0.8-0.8c0.2-0.4,0.3-0.8,0.3-1.3c0-0.6-0.1-1-0.4-1.5c-0.3-0.4-0.7-0.7-1.2-0.9
				c-0.5-0.2-1.2-0.3-2.2-0.3h-3.5V42.3z"/>
		</g>
		<g class="st0">
			<path class="st1" d="M88.5,36.7c0-2.5,0.7-4.4,2-5.9c1.3-1.4,3.1-2.1,5.2-2.1c1.4,0,2.6,0.3,3.8,1c1.1,0.7,2,1.6,2.5,2.8
				c0.6,1.2,0.9,2.5,0.9,4c0,1.5-0.3,2.9-0.9,4.1s-1.5,2.1-2.6,2.7c-1.1,0.6-2.3,0.9-3.7,0.9c-1.4,0-2.7-0.3-3.8-1
				c-1.1-0.7-2-1.6-2.5-2.8S88.5,38,88.5,36.7z M90.6,36.7c0,1.8,0.5,3.2,1.5,4.3c1,1,2.2,1.6,3.7,1.6c1.5,0,2.7-0.5,3.7-1.6
				c1-1.1,1.5-2.5,1.5-4.5c0-1.2-0.2-2.3-0.6-3.2c-0.4-0.9-1-1.6-1.8-2.1c-0.8-0.5-1.7-0.8-2.7-0.8c-1.4,0-2.6,0.5-3.6,1.5
				C91.1,32.9,90.6,34.5,90.6,36.7z"/>
		</g>
		<g class="st0">
			<path class="st1" d="M107.3,44l-5.8-15h2.2l3.9,10.9c0.3,0.9,0.6,1.7,0.8,2.5c0.2-0.8,0.5-1.6,0.8-2.5l4.1-10.9h2l-5.9,15H107.3z
				"/>
		</g>
		<g class="st0">
			<path class="st1" d="M152.5,44V29h5.6c1.1,0,2.1,0.2,2.8,0.5c0.7,0.3,1.2,0.8,1.6,1.4c0.4,0.6,0.6,1.3,0.6,2
				c0,0.6-0.2,1.2-0.5,1.8c-0.3,0.6-0.9,1-1.6,1.4c0.9,0.3,1.6,0.7,2.1,1.4c0.5,0.6,0.7,1.4,0.7,2.3c0,0.7-0.1,1.4-0.4,2
				c-0.3,0.6-0.7,1.1-1.1,1.4s-1,0.6-1.6,0.7c-0.7,0.2-1.5,0.3-2.4,0.3H152.5z M154.5,35.3h3.3c0.9,0,1.5-0.1,1.9-0.2
				c0.5-0.1,0.9-0.4,1.1-0.7c0.3-0.3,0.4-0.8,0.4-1.3c0-0.5-0.1-0.9-0.4-1.3c-0.2-0.4-0.6-0.6-1-0.8c-0.4-0.1-1.2-0.2-2.3-0.2h-3
				V35.3z M154.5,42.3h3.7c0.6,0,1.1,0,1.4-0.1c0.5-0.1,0.8-0.2,1.1-0.4c0.3-0.2,0.6-0.5,0.8-0.8c0.2-0.4,0.3-0.8,0.3-1.3
				c0-0.6-0.1-1-0.4-1.5c-0.3-0.4-0.7-0.7-1.2-0.9c-0.5-0.2-1.2-0.3-2.2-0.3h-3.5V42.3z"/>
			<path class="st1" d="M173.8,40.5l1.9,0.2c-0.3,1.1-0.9,2-1.7,2.6c-0.8,0.6-1.9,0.9-3.1,0.9c-1.6,0-2.9-0.5-3.8-1.5
				c-0.9-1-1.4-2.4-1.4-4.1c0-1.8,0.5-3.3,1.4-4.3s2.2-1.5,3.7-1.5c1.5,0,2.6,0.5,3.6,1.5c0.9,1,1.4,2.4,1.4,4.2c0,0.1,0,0.3,0,0.5
				h-8.1c0.1,1.2,0.4,2.1,1,2.7c0.6,0.6,1.4,1,2.3,1c0.7,0,1.3-0.2,1.7-0.5S173.6,41.3,173.8,40.5z M167.8,37.5h6.1
				c-0.1-0.9-0.3-1.6-0.7-2.1c-0.6-0.7-1.4-1.1-2.3-1.1c-0.8,0-1.6,0.3-2.1,0.9C168.2,35.8,167.8,36.6,167.8,37.5z"/>
			<path class="st1" d="M182.1,42.4l0.3,1.6c-0.5,0.1-1,0.2-1.4,0.2c-0.7,0-1.2-0.1-1.6-0.3c-0.4-0.2-0.6-0.5-0.8-0.8
				c-0.2-0.3-0.2-1.1-0.2-2.2v-6.3h-1.4v-1.4h1.4v-2.7l1.8-1.1v3.8h1.9v1.4h-1.9v6.4c0,0.5,0,0.9,0.1,1c0.1,0.2,0.2,0.3,0.3,0.4
				c0.1,0.1,0.4,0.1,0.6,0.1C181.5,42.5,181.8,42.4,182.1,42.4z"/>
			<path class="st1" d="M191,42.7c-0.7,0.6-1.3,1-2,1.2c-0.6,0.2-1.3,0.4-2,0.4c-1.2,0-2.1-0.3-2.8-0.9c-0.6-0.6-1-1.3-1-2.2
				c0-0.5,0.1-1,0.4-1.5c0.2-0.4,0.6-0.8,1-1.1s0.8-0.5,1.3-0.6c0.4-0.1,0.9-0.2,1.6-0.3c1.5-0.2,2.6-0.4,3.3-0.6c0-0.3,0-0.4,0-0.5
				c0-0.8-0.2-1.3-0.5-1.6c-0.5-0.4-1.2-0.6-2.1-0.6c-0.9,0-1.5,0.2-1.9,0.5c-0.4,0.3-0.7,0.8-0.9,1.6l-1.8-0.2
				c0.2-0.8,0.4-1.4,0.8-1.9c0.4-0.5,0.9-0.8,1.6-1.1c0.7-0.3,1.5-0.4,2.5-0.4c0.9,0,1.7,0.1,2.3,0.3c0.6,0.2,1,0.5,1.3,0.8
				c0.3,0.3,0.5,0.8,0.6,1.3c0.1,0.3,0.1,0.9,0.1,1.7v2.5c0,1.7,0,2.8,0.1,3.3c0.1,0.5,0.2,0.9,0.5,1.3h-1.9
				C191.2,43.6,191.1,43.2,191,42.7z M190.9,38.6c-0.7,0.3-1.7,0.5-3,0.7c-0.8,0.1-1.3,0.2-1.6,0.4s-0.6,0.3-0.7,0.6
				c-0.2,0.3-0.3,0.6-0.3,0.9c0,0.5,0.2,0.9,0.6,1.2s0.9,0.5,1.6,0.5c0.7,0,1.3-0.2,1.9-0.5c0.6-0.3,1-0.7,1.2-1.3
				c0.2-0.4,0.3-1,0.3-1.8V38.6z"/>
			<path class="st1" d="M211.1,35.2h-9.9v-1.7h9.9V35.2z M211.1,39.8h-9.9V38h9.9V39.8z"/>
			<path class="st1" d="M226,44h-1.8V32.3c-0.4,0.4-1,0.8-1.7,1.3c-0.7,0.4-1.4,0.7-1.9,1v-1.8c1-0.5,1.9-1.1,2.7-1.8s1.3-1.4,1.6-2
				h1.2V44z"/>
			<path class="st1" d="M231.7,44v-2.1h2.1V44c0,0.8-0.1,1.4-0.4,1.9c-0.3,0.5-0.7,0.8-1.3,1.1l-0.5-0.8c0.4-0.2,0.7-0.4,0.9-0.8
				c0.2-0.3,0.3-0.8,0.3-1.4H231.7z"/>
			<path class="st1" d="M236.5,40.1l1.9-0.2c0.1,0.9,0.5,1.7,1,2.1c0.5,0.5,1.2,0.7,1.9,0.7c0.9,0,1.6-0.3,2.3-1s0.9-1.6,0.9-2.7
				c0-1.1-0.3-1.9-0.9-2.5s-1.4-0.9-2.3-0.9c-0.6,0-1.1,0.1-1.6,0.4c-0.5,0.3-0.9,0.6-1.1,1.1l-1.7-0.2l1.5-7.7h7.5V31h-6l-0.8,4
				c0.9-0.6,1.8-0.9,2.8-0.9c1.3,0,2.4,0.5,3.3,1.4c0.9,0.9,1.4,2.1,1.4,3.5c0,1.4-0.4,2.5-1.2,3.5c-1,1.2-2.3,1.8-3.9,1.8
				c-1.4,0-2.5-0.4-3.3-1.1C237.1,42.4,236.6,41.4,236.5,40.1z"/>
		</g>
		<g>
			<rect x="67" y="54" class="st1" width="48" height="89"/>
		</g>
		<g>
			<rect x="171" y="55" class="st1" width="48" height="137"/>
		</g>
		<g class="st0">
			<path class="st1" d="M7.1,198.2H5.4v-10.6c-0.4,0.4-0.9,0.8-1.6,1.1c-0.7,0.4-1.2,0.7-1.8,0.9V188c0.9-0.4,1.7-1,2.4-1.6
				c0.7-0.6,1.2-1.2,1.5-1.8h1.1V198.2z"/>
			<path class="st1" d="M11.3,194.7l1.7-0.1c0.1,0.9,0.4,1.5,0.9,1.9s1,0.6,1.7,0.6c0.8,0,1.5-0.3,2-0.9c0.6-0.6,0.8-1.4,0.8-2.4
				c0-0.9-0.3-1.7-0.8-2.2c-0.5-0.5-1.2-0.8-2.1-0.8c-0.5,0-1,0.1-1.5,0.4s-0.8,0.6-1,0.9l-1.6-0.2l1.3-7h6.7v1.6h-5.4l-0.7,3.6
				c0.8-0.6,1.7-0.9,2.6-0.9c1.2,0,2.2,0.4,3,1.2c0.8,0.8,1.2,1.9,1.2,3.2c0,1.2-0.4,2.3-1.1,3.2c-0.9,1.1-2.1,1.6-3.6,1.6
				c-1.2,0-2.2-0.3-3-1C11.9,196.7,11.4,195.8,11.3,194.7z"/>
			<path class="st1" d="M22.2,187.9c0-1,0.2-1.8,0.7-2.5s1.2-1,2.1-1c0.9,0,1.6,0.3,2.1,0.9s0.8,1.5,0.8,2.7c0,1.1-0.3,2-0.8,2.6
				c-0.6,0.6-1.3,0.9-2.1,0.9c-0.8,0-1.5-0.3-2-0.9C22.4,190.1,22.2,189.1,22.2,187.9z M25.1,185.6c-0.4,0-0.8,0.2-1,0.5
				s-0.4,1-0.4,2c0,0.9,0.1,1.5,0.4,1.8s0.6,0.5,1,0.5c0.4,0,0.8-0.2,1-0.5s0.4-1,0.4-2c0-0.9-0.1-1.5-0.4-1.8
				C25.8,185.7,25.5,185.6,25.1,185.6z M25.1,198.7l7.4-14.3h1.4l-7.4,14.3H25.1z M30.9,195c0-1,0.2-1.8,0.7-2.5
				c0.5-0.7,1.2-1,2.1-1c0.9,0,1.6,0.3,2.1,0.9s0.8,1.5,0.8,2.7c0,1.1-0.3,2-0.8,2.7c-0.6,0.6-1.3,0.9-2.1,0.9c-0.8,0-1.5-0.3-2-0.9
				C31.2,197.2,30.9,196.3,30.9,195z M33.8,192.7c-0.4,0-0.8,0.2-1,0.5s-0.4,1-0.4,2c0,0.9,0.1,1.5,0.4,1.8s0.6,0.5,1,0.5
				c0.4,0,0.8-0.2,1-0.5s0.4-1,0.4-2c0-0.9-0.1-1.5-0.4-1.8C34.6,192.9,34.3,192.7,33.8,192.7z"/>
		</g>
	</g>
</g>
</svg>
