<?xml version="1.0" encoding="utf-8"?>
<!-- Generator: Adobe Illustrator 23.0.3, SVG Export Plug-In . SVG Version: 6.00 Build 0)  -->
<svg version="1.1" id="Layer_1" xmlns="http://www.w3.org/2000/svg" xmlns:xlink="http://www.w3.org/1999/xlink" x="0px" y="0px"
	 viewBox="0 0 245 276.8" style="enable-background:new 0 0 245 276.8;" xml:space="preserve">
<style type="text/css">
	.st0{enable-background:new    ;}
	.st1{fill:#006633;}
</style>
<title>196_1</title>
<g>
	<g id="Layer_1-2">
		<g class="st0">
			<path class="st1" d="M9.5,61.8v1.6h-9c0-0.4,0.1-0.8,0.2-1.2c0.2-0.6,0.6-1.2,1.1-1.8s1.2-1.3,2.2-2.1c1.5-1.2,2.5-2.2,3-2.9
				c0.5-0.7,0.8-1.4,0.8-2c0-0.7-0.2-1.2-0.7-1.7c-0.5-0.5-1.1-0.7-1.8-0.7c-0.8,0-1.4,0.2-1.9,0.7c-0.5,0.5-0.7,1.1-0.7,2l-1.7-0.2
				c0.1-1.3,0.6-2.2,1.3-2.9c0.8-0.7,1.8-1,3.1-1c1.3,0,2.3,0.4,3.1,1.1s1.1,1.6,1.1,2.7c0,0.5-0.1,1.1-0.3,1.6
				c-0.2,0.5-0.6,1.1-1.1,1.7s-1.4,1.4-2.6,2.4c-1,0.8-1.6,1.4-1.9,1.7c-0.3,0.3-0.5,0.6-0.7,0.9H9.5z"/>
			<path class="st1" d="M11.3,56.7c0-1.6,0.2-2.9,0.5-3.9c0.3-1,0.8-1.7,1.5-2.3c0.7-0.5,1.5-0.8,2.5-0.8c0.7,0,1.4,0.1,1.9,0.4
				c0.5,0.3,1,0.7,1.4,1.3s0.6,1.2,0.8,2c0.2,0.8,0.3,1.9,0.3,3.2c0,1.6-0.2,2.9-0.5,3.9c-0.3,1-0.8,1.7-1.5,2.3
				c-0.7,0.5-1.5,0.8-2.5,0.8c-1.3,0-2.3-0.5-3.1-1.4C11.8,61.1,11.3,59.3,11.3,56.7z M13,56.7c0,2.2,0.3,3.7,0.8,4.4
				c0.5,0.7,1.2,1.1,1.9,1.1s1.4-0.4,1.9-1.1c0.5-0.7,0.8-2.2,0.8-4.4c0-2.2-0.3-3.7-0.8-4.4c-0.5-0.7-1.2-1.1-1.9-1.1
				c-0.8,0-1.4,0.3-1.8,1C13.3,53,13,54.5,13,56.7z"/>
			<path class="st1" d="M22.2,53.1c0-1,0.2-1.8,0.7-2.5s1.2-1,2.1-1c0.9,0,1.6,0.3,2.1,0.9S28,52,28,53.2c0,1.1-0.3,2-0.8,2.6
				c-0.6,0.6-1.3,0.9-2.1,0.9c-0.8,0-1.5-0.3-2-0.9C22.4,55.3,22.2,54.4,22.2,53.1z M25.1,50.8c-0.4,0-0.8,0.2-1,0.5s-0.4,1-0.4,2
				c0,0.9,0.1,1.5,0.4,1.8s0.6,0.5,1,0.5c0.4,0,0.8-0.2,1-0.5s0.4-1,0.4-2c0-0.9-0.1-1.5-0.4-1.8C25.8,51,25.5,50.8,25.1,50.8z
				 M25.1,63.9l7.4-14.3h1.4l-7.4,14.3H25.1z M30.9,60.2c0-1,0.2-1.8,0.7-2.5c0.5-0.7,1.2-1,2.1-1c0.9,0,1.6,0.3,2.1,0.9
				s0.8,1.5,0.8,2.7c0,1.1-0.3,2-0.8,2.7c-0.6,0.6-1.3,0.9-2.1,0.9c-0.8,0-1.5-0.3-2-0.9C31.2,62.4,30.9,61.5,30.9,60.2z M33.8,57.9
				c-0.4,0-0.8,0.2-1,0.5s-0.4,1-0.4,2c0,0.9,0.1,1.5,0.4,1.8s0.6,0.5,1,0.5c0.4,0,0.8-0.2,1-0.5s0.4-1,0.4-2c0-0.9-0.1-1.5-0.4-1.8
				C34.6,58.1,34.3,57.9,33.8,57.9z"/>
		</g>
		<g class="st0">
			<path class="st1" d="M7.1,106.7H5.4V96.1c-0.4,0.4-0.9,0.8-1.6,1.1c-0.7,0.4-1.2,0.7-1.8,0.9v-1.6c0.9-0.4,1.7-1,2.4-1.6
				c0.7-0.6,1.2-1.2,1.5-1.8h1.1V106.7z"/>
			<path class="st1" d="M11.3,103.2l1.7-0.1c0.1,0.9,0.4,1.5,0.9,1.9s1,0.6,1.7,0.6c0.8,0,1.5-0.3,2-0.9c0.6-0.6,0.8-1.4,0.8-2.4
				c0-0.9-0.3-1.7-0.8-2.2c-0.5-0.5-1.2-0.8-2.1-0.8c-0.5,0-1,0.1-1.5,0.4s-0.8,0.6-1,0.9l-1.6-0.2l1.3-7h6.7v1.6h-5.4l-0.7,3.6
				c0.8-0.6,1.7-0.9,2.6-0.9c1.2,0,2.2,0.4,3,1.2c0.8,0.8,1.2,1.9,1.2,3.2c0,1.2-0.4,2.3-1.1,3.2c-0.9,1.1-2.1,1.6-3.6,1.6
				c-1.2,0-2.2-0.3-3-1C11.9,105.2,11.4,104.3,11.3,103.2z"/>
			<path class="st1" d="M22.2,96.4c0-1,0.2-1.8,0.7-2.5s1.2-1,2.1-1c0.9,0,1.6,0.3,2.1,0.9s0.8,1.5,0.8,2.7c0,1.1-0.3,2-0.8,2.6
				c-0.6,0.6-1.3,0.9-2.1,0.9c-0.8,0-1.5-0.3-2-0.9C22.4,98.6,22.2,97.6,22.2,96.4z M25.1,94.1c-0.4,0-0.8,0.2-1,0.5s-0.4,1-0.4,2
				c0,0.9,0.1,1.5,0.4,1.8s0.6,0.5,1,0.5c0.4,0,0.8-0.2,1-0.5s0.4-1,0.4-2c0-0.9-0.1-1.5-0.4-1.8C25.8,94.2,25.5,94.1,25.1,94.1z
				 M25.1,107.2l7.4-14.3h1.4l-7.4,14.3H25.1z M30.9,103.5c0-1,0.2-1.8,0.7-2.5c0.5-0.7,1.2-1,2.1-1c0.9,0,1.6,0.3,2.1,0.9
				s0.8,1.5,0.8,2.7c0,1.1-0.3,2-0.8,2.7c-0.6,0.6-1.3,0.9-2.1,0.9c-0.8,0-1.5-0.3-2-0.9C31.2,105.7,30.9,104.8,30.9,103.5z
				 M33.8,101.2c-0.4,0-0.8,0.2-1,0.5s-0.4,1-0.4,2c0,0.9,0.1,1.5,0.4,1.8s0.6,0.5,1,0.5c0.4,0,0.8-0.2,1-0.5s0.4-1,0.4-2
				c0-0.9-0.1-1.5-0.4-1.8C34.6,101.4,34.3,101.2,33.8,101.2z"/>
		</g>
		<g class="st0">
			<path class="st1" d="M7.1,150H5.4v-10.6c-0.4,0.4-0.9,0.8-1.6,1.1c-0.7,0.4-1.2,0.7-1.8,0.9v-1.6c0.9-0.4,1.7-1,2.4-1.6
				c0.7-0.6,1.2-1.2,1.5-1.8h1.1V150z"/>
			<path class="st1" d="M11.3,143.3c0-1.6,0.2-2.9,0.5-3.9c0.3-1,0.8-1.7,1.5-2.3c0.7-0.5,1.5-0.8,2.5-0.8c0.7,0,1.4,0.1,1.9,0.4
				c0.5,0.3,1,0.7,1.4,1.3s0.6,1.2,0.8,2c0.2,0.8,0.3,1.9,0.3,3.2c0,1.6-0.2,2.9-0.5,3.9c-0.3,1-0.8,1.7-1.5,2.3
				c-0.7,0.5-1.5,0.8-2.5,0.8c-1.3,0-2.3-0.5-3.1-1.4C11.8,147.7,11.3,145.9,11.3,143.3z M13,143.3c0,2.2,0.3,3.7,0.8,4.4
				c0.5,0.7,1.2,1.1,1.9,1.1s1.4-0.4,1.9-1.1c0.5-0.7,0.8-2.2,0.8-4.4c0-2.2-0.3-3.7-0.8-4.4c-0.5-0.7-1.2-1.1-1.9-1.1
				c-0.8,0-1.4,0.3-1.8,1C13.3,139.6,13,141.1,13,143.3z"/>
			<path class="st1" d="M22.2,139.7c0-1,0.2-1.8,0.7-2.5s1.2-1,2.1-1c0.9,0,1.6,0.3,2.1,0.9s0.8,1.5,0.8,2.7c0,1.1-0.3,2-0.8,2.6
				c-0.6,0.6-1.3,0.9-2.1,0.9c-0.8,0-1.5-0.3-2-0.9C22.4,141.9,22.2,140.9,22.2,139.7z M25.1,137.4c-0.4,0-0.8,0.2-1,0.5
				s-0.4,1-0.4,2c0,0.9,0.1,1.5,0.4,1.8s0.6,0.5,1,0.5c0.4,0,0.8-0.2,1-0.5s0.4-1,0.4-2c0-0.9-0.1-1.5-0.4-1.8
				C25.8,137.5,25.5,137.4,25.1,137.4z M25.1,150.5l7.4-14.3h1.4l-7.4,14.3H25.1z M30.9,146.8c0-1,0.2-1.8,0.7-2.5
				c0.5-0.7,1.2-1,2.1-1c0.9,0,1.6,0.3,2.1,0.9s0.8,1.5,0.8,2.7c0,1.1-0.3,2-0.8,2.7c-0.6,0.6-1.3,0.9-2.1,0.9c-0.8,0-1.5-0.3-2-0.9
				C31.2,149,30.9,148.1,30.9,146.8z M33.8,144.5c-0.4,0-0.8,0.2-1,0.5s-0.4,1-0.4,2c0,0.9,0.1,1.5,0.4,1.8s0.6,0.5,1,0.5
				c0.4,0,0.8-0.2,1-0.5s0.4-1,0.4-2c0-0.9-0.1-1.5-0.4-1.8C34.6,144.7,34.3,144.5,33.8,144.5z"/>
		</g>
		<g class="st0">
			<path class="st1" d="M83.1,136h-1.7v-10.6c-0.4,0.4-0.9,0.8-1.6,1.1c-0.7,0.4-1.2,0.7-1.8,0.9v-1.6c0.9-0.4,1.7-1,2.4-1.6
				c0.7-0.6,1.2-1.2,1.5-1.8h1.1V136z"/>
			<path class="st1" d="M87.3,129.3c0-1.6,0.2-2.9,0.5-3.9c0.3-1,0.8-1.7,1.5-2.3c0.7-0.5,1.5-0.8,2.5-0.8c0.7,0,1.4,0.1,1.9,0.4
				c0.5,0.3,1,0.7,1.4,1.3s0.6,1.2,0.8,2c0.2,0.8,0.3,1.9,0.3,3.2c0,1.6-0.2,2.9-0.5,3.9c-0.3,1-0.8,1.7-1.5,2.3
				c-0.7,0.5-1.5,0.8-2.5,0.8c-1.3,0-2.3-0.5-3.1-1.4C87.8,133.7,87.3,131.9,87.3,129.3z M89,129.3c0,2.2,0.3,3.7,0.8,4.4
				c0.5,0.7,1.2,1.1,1.9,1.1s1.4-0.4,1.9-1.1c0.5-0.7,0.8-2.2,0.8-4.4c0-2.2-0.3-3.7-0.8-4.4c-0.5-0.7-1.2-1.1-1.9-1.1
				c-0.8,0-1.4,0.3-1.8,1C89.3,125.6,89,127.1,89,129.3z"/>
			<path class="st1" d="M98.2,125.7c0-1,0.2-1.8,0.7-2.5s1.2-1,2.1-1c0.9,0,1.6,0.3,2.1,0.9s0.8,1.5,0.8,2.7c0,1.1-0.3,2-0.8,2.6
				c-0.6,0.6-1.3,0.9-2.1,0.9c-0.8,0-1.5-0.3-2-0.9C98.4,127.9,98.2,126.9,98.2,125.7z M101.1,123.4c-0.4,0-0.8,0.2-1,0.5
				s-0.4,1-0.4,2c0,0.9,0.1,1.5,0.4,1.8s0.6,0.5,1,0.5c0.4,0,0.8-0.2,1-0.5s0.4-1,0.4-2c0-0.9-0.1-1.5-0.4-1.8
				C101.8,123.5,101.5,123.4,101.1,123.4z M101.1,136.5l7.4-14.3h1.4l-7.4,14.3H101.1z M106.9,132.8c0-1,0.2-1.8,0.7-2.5
				c0.5-0.7,1.2-1,2.1-1c0.9,0,1.6,0.3,2.1,0.9s0.8,1.5,0.8,2.7c0,1.1-0.3,2-0.8,2.7c-0.6,0.6-1.3,0.9-2.1,0.9c-0.8,0-1.5-0.3-2-0.9
				C107.2,135,106.9,134.1,106.9,132.8z M109.8,130.5c-0.4,0-0.8,0.2-1,0.5s-0.4,1-0.4,2c0,0.9,0.1,1.5,0.4,1.8s0.6,0.5,1,0.5
				c0.4,0,0.8-0.2,1-0.5s0.4-1,0.4-2c0-0.9-0.1-1.5-0.4-1.8C110.6,130.7,110.3,130.5,109.8,130.5z"/>
		</g>
		<g class="st0">
			<path class="st1" d="M186.1,86h-1.7V75.4c-0.4,0.4-0.9,0.8-1.6,1.1c-0.7,0.4-1.2,0.7-1.8,0.9v-1.6c0.9-0.4,1.7-1,2.4-1.6
				c0.7-0.6,1.2-1.2,1.5-1.8h1.1V86z"/>
			<path class="st1" d="M190.3,82.5l1.7-0.1c0.1,0.9,0.4,1.5,0.9,1.9c0.5,0.4,1,0.6,1.7,0.6c0.8,0,1.5-0.3,2-0.9
				c0.6-0.6,0.8-1.4,0.8-2.4c0-0.9-0.3-1.7-0.8-2.2s-1.2-0.8-2.1-0.8c-0.5,0-1,0.1-1.5,0.4s-0.8,0.6-1,0.9l-1.6-0.2l1.3-7h6.7v1.6
				h-5.4l-0.7,3.6c0.8-0.6,1.7-0.9,2.6-0.9c1.2,0,2.2,0.4,3,1.2c0.8,0.8,1.2,1.9,1.2,3.2c0,1.2-0.4,2.3-1.1,3.2
				c-0.9,1.1-2.1,1.6-3.6,1.6c-1.2,0-2.2-0.3-3-1C190.9,84.5,190.4,83.6,190.3,82.5z"/>
			<path class="st1" d="M201.2,75.7c0-1,0.2-1.8,0.7-2.5c0.5-0.7,1.2-1,2.1-1c0.9,0,1.6,0.3,2.1,0.9s0.8,1.5,0.8,2.7
				c0,1.1-0.3,2-0.8,2.6c-0.6,0.6-1.3,0.9-2.1,0.9c-0.8,0-1.5-0.3-2-0.9C201.4,77.9,201.2,76.9,201.2,75.7z M204.1,73.4
				c-0.4,0-0.8,0.2-1,0.5c-0.3,0.4-0.4,1-0.4,2c0,0.9,0.1,1.5,0.4,1.8s0.6,0.5,1,0.5c0.4,0,0.8-0.2,1-0.5s0.4-1,0.4-2
				c0-0.9-0.1-1.5-0.4-1.8S204.5,73.4,204.1,73.4z M204.1,86.5l7.4-14.3h1.3l-7.4,14.3H204.1z M209.9,82.8c0-1,0.2-1.8,0.7-2.5
				s1.2-1,2.1-1c0.9,0,1.6,0.3,2.1,0.9s0.8,1.5,0.8,2.7c0,1.1-0.3,2-0.8,2.7c-0.6,0.6-1.3,0.9-2.1,0.9c-0.8,0-1.5-0.3-2-0.9
				S209.9,84.1,209.9,82.8z M212.8,80.5c-0.4,0-0.8,0.2-1,0.5s-0.4,1-0.4,2c0,0.9,0.1,1.5,0.4,1.8s0.6,0.5,1,0.5
				c0.4,0,0.8-0.2,1-0.5s0.4-1,0.4-2c0-0.9-0.1-1.5-0.4-1.8C213.6,80.7,213.3,80.5,212.8,80.5z"/>
		</g>
		<g class="st0">
			<path class="st1" d="M90.9,11.7l1.7-0.1c0.1,0.7,0.3,1.2,0.6,1.7c0.3,0.4,0.7,0.8,1.4,1.1c0.6,0.3,1.3,0.4,2.1,0.4
				c0.7,0,1.3-0.1,1.8-0.3c0.5-0.2,0.9-0.5,1.2-0.8c0.3-0.4,0.4-0.7,0.4-1.2c0-0.4-0.1-0.8-0.4-1.1s-0.7-0.6-1.2-0.8
				c-0.4-0.1-1.2-0.4-2.4-0.7c-1.2-0.3-2.1-0.6-2.6-0.8c-0.6-0.3-1.1-0.8-1.4-1.3c-0.3-0.5-0.5-1.1-0.5-1.7c0-0.7,0.2-1.3,0.6-1.9
				c0.4-0.6,1-1,1.7-1.4c0.7-0.3,1.6-0.5,2.5-0.5c1,0,1.9,0.2,2.7,0.5c0.8,0.3,1.4,0.8,1.8,1.4c0.4,0.6,0.6,1.3,0.7,2.1l-1.7,0.1
				c-0.1-0.9-0.4-1.5-0.9-1.9s-1.3-0.7-2.4-0.7c-1.1,0-1.9,0.2-2.4,0.6c-0.5,0.4-0.7,0.9-0.7,1.4c0,0.5,0.2,0.9,0.5,1.2
				c0.3,0.3,1.2,0.6,2.7,1s2.5,0.6,3,0.9c0.8,0.4,1.4,0.8,1.7,1.4s0.6,1.2,0.6,1.9c0,0.7-0.2,1.4-0.6,2c-0.4,0.6-1,1.1-1.8,1.5
				c-0.8,0.4-1.6,0.5-2.6,0.5c-1.2,0-2.3-0.2-3.1-0.5c-0.8-0.4-1.5-0.9-2-1.6C91.1,13.4,90.9,12.6,90.9,11.7z"/>
			<path class="st1" d="M110.3,16v-1.4c-0.8,1.1-1.8,1.7-3.1,1.7c-0.6,0-1.1-0.1-1.6-0.3c-0.5-0.2-0.9-0.5-1.1-0.8
				c-0.2-0.3-0.4-0.7-0.5-1.2c-0.1-0.3-0.1-0.8-0.1-1.6V6.2h1.7v5.4c0,0.9,0,1.5,0.1,1.8c0.1,0.4,0.3,0.8,0.7,1
				c0.3,0.3,0.8,0.4,1.3,0.4s1-0.1,1.4-0.4c0.4-0.3,0.7-0.6,0.9-1c0.2-0.4,0.3-1.1,0.3-1.9V6.2h1.7V16H110.3z"/>
			<path class="st1" d="M116,16h-1.5V2.5h1.7v4.8c0.7-0.9,1.6-1.3,2.7-1.3c0.6,0,1.2,0.1,1.7,0.4c0.5,0.2,1,0.6,1.3,1
				c0.3,0.4,0.6,1,0.8,1.6c0.2,0.6,0.3,1.3,0.3,2c0,1.7-0.4,3-1.2,3.9c-0.8,0.9-1.8,1.4-3,1.4c-1.2,0-2.1-0.5-2.7-1.5V16z M115.9,11
				c0,1.2,0.2,2,0.5,2.6c0.5,0.9,1.2,1.3,2.1,1.3c0.7,0,1.4-0.3,1.9-0.9s0.8-1.6,0.8-2.8c0-1.3-0.3-2.2-0.8-2.8s-1.1-0.9-1.8-0.9
				c-0.7,0-1.4,0.3-1.9,0.9S115.9,9.8,115.9,11z"/>
			<path class="st1" d="M125,4.4V2.5h1.7v1.9H125z M125,16V6.2h1.7V16H125z"/>
			<path class="st1" d="M135.6,16v-1.4c-0.8,1.1-1.8,1.7-3.1,1.7c-0.6,0-1.1-0.1-1.6-0.3c-0.5-0.2-0.9-0.5-1.1-0.8
				c-0.2-0.3-0.4-0.7-0.5-1.2c-0.1-0.3-0.1-0.8-0.1-1.6V6.2h1.7v5.4c0,0.9,0,1.5,0.1,1.8c0.1,0.4,0.3,0.8,0.7,1
				c0.3,0.3,0.8,0.4,1.3,0.4c0.5,0,1-0.1,1.4-0.4c0.4-0.3,0.7-0.6,0.9-1c0.2-0.4,0.3-1.1,0.3-1.9V6.2h1.7V16H135.6z"/>
			<path class="st1" d="M150.8,16h-1.7V5.4c-0.4,0.4-0.9,0.8-1.6,1.1c-0.7,0.4-1.2,0.7-1.8,0.9V5.8c0.9-0.4,1.7-1,2.4-1.6
				c0.7-0.6,1.2-1.2,1.5-1.8h1.1V16z"/>
			<path class="st1" d="M155,9.3c0-1.6,0.2-2.9,0.5-3.9s0.8-1.7,1.5-2.3s1.5-0.8,2.5-0.8c0.7,0,1.4,0.1,1.9,0.4s1,0.7,1.4,1.3
				s0.6,1.2,0.8,2s0.3,1.9,0.3,3.2c0,1.6-0.2,2.9-0.5,3.9c-0.3,1-0.8,1.7-1.5,2.3s-1.5,0.8-2.5,0.8c-1.3,0-2.3-0.5-3.1-1.4
				C155.5,13.7,155,11.9,155,9.3z M156.7,9.3c0,2.2,0.3,3.7,0.8,4.4c0.5,0.7,1.2,1.1,1.9,1.1s1.4-0.4,1.9-1.1
				c0.5-0.7,0.8-2.2,0.8-4.4c0-2.2-0.3-3.7-0.8-4.4c-0.5-0.7-1.2-1.1-1.9-1.1c-0.8,0-1.4,0.3-1.8,1C157,5.6,156.7,7.1,156.7,9.3z"/>
			<path class="st1" d="M165.9,5.7c0-1,0.2-1.8,0.7-2.5s1.2-1,2.1-1c0.9,0,1.6,0.3,2.1,0.9c0.6,0.6,0.8,1.5,0.8,2.7
				c0,1.1-0.3,2-0.8,2.6c-0.6,0.6-1.3,0.9-2.1,0.9c-0.8,0-1.5-0.3-2-0.9C166.1,7.9,165.9,6.9,165.9,5.7z M168.8,3.4
				c-0.4,0-0.8,0.2-1,0.5s-0.4,1-0.4,2c0,0.9,0.1,1.5,0.4,1.8s0.6,0.5,1,0.5c0.4,0,0.8-0.2,1-0.5c0.3-0.4,0.4-1,0.4-2
				c0-0.9-0.1-1.5-0.4-1.8C169.5,3.5,169.2,3.4,168.8,3.4z M168.8,16.5l7.4-14.3h1.4l-7.4,14.3H168.8z M174.6,12.8
				c0-1,0.2-1.8,0.7-2.5c0.5-0.7,1.2-1,2.1-1c0.9,0,1.6,0.3,2.1,0.9c0.6,0.6,0.8,1.5,0.8,2.7c0,1.1-0.3,2-0.8,2.7
				c-0.6,0.6-1.3,0.9-2.1,0.9c-0.8,0-1.5-0.3-2-0.9C174.9,15,174.6,14.1,174.6,12.8z M177.5,10.5c-0.4,0-0.8,0.2-1,0.5
				c-0.3,0.4-0.4,1-0.4,2c0,0.9,0.1,1.5,0.4,1.8s0.6,0.5,1,0.5c0.4,0,0.8-0.2,1-0.5c0.3-0.4,0.4-1,0.4-2c0-0.9-0.1-1.5-0.4-1.8
				S178,10.5,177.5,10.5z"/>
			<path class="st1" d="M188.6,16v-1.9h1.9V16H188.6z"/>
			<path class="st1" d="M193.9,16v-1.9h1.9V16H193.9z"/>
			<path class="st1" d="M199.1,16v-1.9h1.9V16H199.1z"/>
		</g>
		<g class="st0">
			<path class="st1" d="M0.8,189.7l1.7-0.1c0.1,0.9,0.4,1.5,0.9,1.9s1,0.6,1.7,0.6c0.8,0,1.5-0.3,2-0.9c0.6-0.6,0.8-1.4,0.8-2.4
				c0-0.9-0.3-1.7-0.8-2.2c-0.5-0.5-1.2-0.8-2.1-0.8c-0.5,0-1,0.1-1.5,0.4s-0.8,0.6-1,0.9l-1.6-0.2l1.3-7h6.7v1.6H3.7L3,185.2
				c0.8-0.6,1.7-0.9,2.6-0.9c1.2,0,2.2,0.4,3,1.2c0.8,0.8,1.2,1.9,1.2,3.2c0,1.2-0.4,2.3-1.1,3.2c-0.9,1.1-2.1,1.6-3.6,1.6
				c-1.2,0-2.2-0.3-3-1C1.3,191.8,0.9,190.9,0.8,189.7z"/>
			<path class="st1" d="M11.6,183c0-1,0.2-1.8,0.7-2.5s1.2-1,2.1-1c0.9,0,1.6,0.3,2.1,0.9s0.8,1.5,0.8,2.7c0,1.1-0.3,2-0.8,2.6
				c-0.6,0.6-1.3,0.9-2.1,0.9c-0.8,0-1.5-0.3-2-0.9C11.9,185.2,11.6,184.2,11.6,183z M14.5,180.7c-0.4,0-0.8,0.2-1,0.5s-0.4,1-0.4,2
				c0,0.9,0.1,1.5,0.4,1.8s0.6,0.5,1,0.5c0.4,0,0.8-0.2,1-0.5s0.4-1,0.4-2c0-0.9-0.1-1.5-0.4-1.8C15.3,180.8,14.9,180.7,14.5,180.7z
				 M14.5,193.8l7.4-14.3h1.4l-7.4,14.3H14.5z M20.4,190.1c0-1,0.2-1.8,0.7-2.5c0.5-0.7,1.2-1,2.1-1c0.9,0,1.6,0.3,2.1,0.9
				s0.8,1.5,0.8,2.7c0,1.1-0.3,2-0.8,2.7c-0.6,0.6-1.3,0.9-2.1,0.9c-0.8,0-1.5-0.3-2-0.9C20.7,192.3,20.4,191.3,20.4,190.1z
				 M23.3,187.8c-0.4,0-0.8,0.2-1,0.5s-0.4,1-0.4,2c0,0.9,0.1,1.5,0.4,1.8s0.6,0.5,1,0.5c0.4,0,0.8-0.2,1-0.5s0.4-1,0.4-2
				c0-0.9-0.1-1.5-0.4-1.8C24.1,188,23.7,187.8,23.3,187.8z"/>
		</g>
		<g class="st0">
			<path class="st1" d="M0.8,229.9c0-1.6,0.2-2.9,0.5-3.9c0.3-1,0.8-1.7,1.5-2.3c0.7-0.5,1.5-0.8,2.5-0.8c0.7,0,1.4,0.1,1.9,0.4
				c0.5,0.3,1,0.7,1.4,1.3s0.6,1.2,0.8,2c0.2,0.8,0.3,1.9,0.3,3.2c0,1.6-0.2,2.9-0.5,3.9c-0.3,1-0.8,1.7-1.5,2.3
				c-0.7,0.5-1.5,0.8-2.5,0.8c-1.3,0-2.3-0.5-3.1-1.4C1.2,234.3,0.8,232.5,0.8,229.9z M2.5,229.9c0,2.2,0.3,3.7,0.8,4.4
				c0.5,0.7,1.2,1.1,1.9,1.1s1.4-0.4,1.9-1.1c0.5-0.7,0.8-2.2,0.8-4.4c0-2.2-0.3-3.7-0.8-4.4c-0.5-0.7-1.2-1.1-1.9-1.1
				c-0.8,0-1.4,0.3-1.8,1C2.8,226.2,2.5,227.7,2.5,229.9z"/>
			<path class="st1" d="M11.6,226.3c0-1,0.2-1.8,0.7-2.5s1.2-1,2.1-1c0.9,0,1.6,0.3,2.1,0.9s0.8,1.5,0.8,2.7c0,1.1-0.3,2-0.8,2.6
				c-0.6,0.6-1.3,0.9-2.1,0.9c-0.8,0-1.5-0.3-2-0.9C11.9,228.4,11.6,227.5,11.6,226.3z M14.5,223.9c-0.4,0-0.8,0.2-1,0.5
				s-0.4,1-0.4,2c0,0.9,0.1,1.5,0.4,1.8s0.6,0.5,1,0.5c0.4,0,0.8-0.2,1-0.5s0.4-1,0.4-2c0-0.9-0.1-1.5-0.4-1.8
				C15.3,224.1,14.9,223.9,14.5,223.9z M14.5,237.1l7.4-14.3h1.4l-7.4,14.3H14.5z M20.4,233.4c0-1,0.2-1.8,0.7-2.5
				c0.5-0.7,1.2-1,2.1-1c0.9,0,1.6,0.3,2.1,0.9s0.8,1.5,0.8,2.7c0,1.1-0.3,2-0.8,2.7c-0.6,0.6-1.3,0.9-2.1,0.9c-0.8,0-1.5-0.3-2-0.9
				C20.7,235.6,20.4,234.6,20.4,233.4z M23.3,231.1c-0.4,0-0.8,0.2-1,0.5s-0.4,1-0.4,2c0,0.9,0.1,1.5,0.4,1.8s0.6,0.5,1,0.5
				c0.4,0,0.8-0.2,1-0.5s0.4-1,0.4-2c0-0.9-0.1-1.5-0.4-1.8C24.1,231.2,23.7,231.1,23.3,231.1z"/>
		</g>
		<g>
			<rect x="45" y="45" class="st1" width="4" height="198"/>
		</g>
		<g>
			<rect x="47" y="240" class="st1" width="198" height="4"/>
		</g>
		<g class="st0">
			<path class="st1" d="M71,271v-15h2v15H71z"/>
			<path class="st1" d="M76.4,271v-15H82c1.1,0,2.1,0.2,2.8,0.5c0.7,0.3,1.2,0.8,1.6,1.4c0.4,0.6,0.6,1.3,0.6,2
				c0,0.6-0.2,1.2-0.5,1.8s-0.9,1-1.6,1.4c0.9,0.3,1.6,0.7,2.1,1.4c0.5,0.6,0.7,1.4,0.7,2.3c0,0.7-0.1,1.4-0.4,2
				c-0.3,0.6-0.7,1.1-1.1,1.4s-1,0.6-1.6,0.7c-0.7,0.2-1.5,0.3-2.4,0.3H76.4z M78.4,262.3h3.3c0.9,0,1.5-0.1,1.9-0.2
				c0.5-0.1,0.9-0.4,1.1-0.7c0.3-0.3,0.4-0.8,0.4-1.3c0-0.5-0.1-0.9-0.4-1.3c-0.2-0.4-0.6-0.6-1-0.8c-0.4-0.1-1.2-0.2-2.3-0.2h-3
				V262.3z M78.4,269.3h3.7c0.6,0,1.1,0,1.4-0.1c0.5-0.1,0.8-0.2,1.1-0.4s0.6-0.5,0.8-0.8c0.2-0.4,0.3-0.8,0.3-1.3
				c0-0.6-0.1-1-0.4-1.5c-0.3-0.4-0.7-0.7-1.2-0.9c-0.5-0.2-1.2-0.3-2.2-0.3h-3.5V269.3z"/>
		</g>
		<g class="st0">
			<path class="st1" d="M88.5,263.7c0-2.5,0.7-4.4,2-5.9c1.3-1.4,3.1-2.1,5.2-2.1c1.4,0,2.6,0.3,3.8,1c1.1,0.7,2,1.6,2.5,2.8
				c0.6,1.2,0.9,2.5,0.9,4c0,1.5-0.3,2.9-0.9,4.1s-1.5,2.1-2.6,2.7c-1.1,0.6-2.3,0.9-3.7,0.9c-1.4,0-2.7-0.3-3.8-1
				c-1.1-0.7-2-1.6-2.5-2.8S88.5,265,88.5,263.7z M90.6,263.7c0,1.8,0.5,3.2,1.5,4.3c1,1,2.2,1.6,3.7,1.6c1.5,0,2.7-0.5,3.7-1.6
				c1-1.1,1.5-2.5,1.5-4.5c0-1.2-0.2-2.3-0.6-3.2c-0.4-0.9-1-1.6-1.8-2.1c-0.8-0.5-1.7-0.8-2.7-0.8c-1.4,0-2.6,0.5-3.6,1.5
				C91.1,259.9,90.6,261.5,90.6,263.7z"/>
		</g>
		<g class="st0">
			<path class="st1" d="M107.3,271l-5.8-15h2.2l3.9,10.9c0.3,0.9,0.6,1.7,0.8,2.5c0.2-0.8,0.5-1.6,0.8-2.5l4.1-10.9h2l-5.9,15H107.3
				z"/>
		</g>
		<g class="st0">
			<path class="st1" d="M152.5,270v-15h5.6c1.1,0,2.1,0.2,2.8,0.5c0.7,0.3,1.2,0.8,1.6,1.4c0.4,0.6,0.6,1.3,0.6,2
				c0,0.6-0.2,1.2-0.5,1.8c-0.3,0.6-0.9,1-1.6,1.4c0.9,0.3,1.6,0.7,2.1,1.4c0.5,0.6,0.7,1.4,0.7,2.3c0,0.7-0.1,1.4-0.4,2
				c-0.3,0.6-0.7,1.1-1.1,1.4s-1,0.6-1.6,0.7c-0.7,0.2-1.5,0.3-2.4,0.3H152.5z M154.5,261.3h3.3c0.9,0,1.5-0.1,1.9-0.2
				c0.5-0.1,0.9-0.4,1.1-0.7c0.3-0.3,0.4-0.8,0.4-1.3c0-0.5-0.1-0.9-0.4-1.3c-0.2-0.4-0.6-0.6-1-0.8c-0.4-0.1-1.2-0.2-2.3-0.2h-3
				V261.3z M154.5,268.3h3.7c0.6,0,1.1,0,1.4-0.1c0.5-0.1,0.8-0.2,1.1-0.4c0.3-0.2,0.6-0.5,0.8-0.8c0.2-0.4,0.3-0.8,0.3-1.3
				c0-0.6-0.1-1-0.4-1.5c-0.3-0.4-0.7-0.7-1.2-0.9c-0.5-0.2-1.2-0.3-2.2-0.3h-3.5V268.3z"/>
			<path class="st1" d="M173.8,266.5l1.9,0.2c-0.3,1.1-0.9,2-1.7,2.6c-0.8,0.6-1.9,0.9-3.1,0.9c-1.6,0-2.9-0.5-3.8-1.5
				c-0.9-1-1.4-2.4-1.4-4.1c0-1.8,0.5-3.3,1.4-4.3s2.2-1.5,3.7-1.5c1.5,0,2.6,0.5,3.6,1.5c0.9,1,1.4,2.4,1.4,4.2c0,0.1,0,0.3,0,0.5
				h-8.1c0.1,1.2,0.4,2.1,1,2.7c0.6,0.6,1.4,1,2.3,1c0.7,0,1.3-0.2,1.7-0.5S173.6,267.3,173.8,266.5z M167.8,263.5h6.1
				c-0.1-0.9-0.3-1.6-0.7-2.1c-0.6-0.7-1.4-1.1-2.3-1.1c-0.8,0-1.6,0.3-2.1,0.9C168.2,261.8,167.8,262.6,167.8,263.5z"/>
			<path class="st1" d="M182.1,268.4l0.3,1.6c-0.5,0.1-1,0.2-1.4,0.2c-0.7,0-1.2-0.1-1.6-0.3c-0.4-0.2-0.6-0.5-0.8-0.8
				c-0.2-0.3-0.2-1.1-0.2-2.2v-6.3h-1.4v-1.4h1.4v-2.7l1.8-1.1v3.8h1.9v1.4h-1.9v6.4c0,0.5,0,0.9,0.1,1c0.1,0.2,0.2,0.3,0.3,0.4
				c0.1,0.1,0.4,0.1,0.6,0.1C181.5,268.5,181.8,268.4,182.1,268.4z"/>
			<path class="st1" d="M191,268.7c-0.7,0.6-1.3,1-2,1.2c-0.6,0.2-1.3,0.4-2,0.4c-1.2,0-2.1-0.3-2.8-0.9c-0.6-0.6-1-1.3-1-2.2
				c0-0.5,0.1-1,0.4-1.5c0.2-0.4,0.6-0.8,1-1.1s0.8-0.5,1.3-0.6c0.4-0.1,0.9-0.2,1.6-0.3c1.5-0.2,2.6-0.4,3.3-0.6c0-0.3,0-0.4,0-0.5
				c0-0.8-0.2-1.3-0.5-1.6c-0.5-0.4-1.2-0.6-2.1-0.6c-0.9,0-1.5,0.2-1.9,0.5c-0.4,0.3-0.7,0.8-0.9,1.6l-1.8-0.2
				c0.2-0.8,0.4-1.4,0.8-1.9c0.4-0.5,0.9-0.8,1.6-1.1c0.7-0.3,1.5-0.4,2.5-0.4c0.9,0,1.7,0.1,2.3,0.3c0.6,0.2,1,0.5,1.3,0.8
				c0.3,0.3,0.5,0.8,0.6,1.3c0.1,0.3,0.1,0.9,0.1,1.7v2.5c0,1.7,0,2.8,0.1,3.3c0.1,0.5,0.2,0.9,0.5,1.3h-1.9
				C191.2,269.6,191.1,269.2,191,268.7z M190.9,264.6c-0.7,0.3-1.7,0.5-3,0.7c-0.8,0.1-1.3,0.2-1.6,0.4s-0.6,0.3-0.7,0.6
				c-0.2,0.3-0.3,0.6-0.3,0.9c0,0.5,0.2,0.9,0.6,1.2s0.9,0.5,1.6,0.5c0.7,0,1.3-0.2,1.9-0.5c0.6-0.3,1-0.7,1.2-1.3
				c0.2-0.4,0.3-1,0.3-1.8V264.6z"/>
			<path class="st1" d="M211.1,261.2h-9.9v-1.7h9.9V261.2z M211.1,265.8h-9.9V264h9.9V265.8z"/>
			<path class="st1" d="M226,270h-1.8v-11.8c-0.4,0.4-1,0.8-1.7,1.3c-0.7,0.4-1.4,0.7-1.9,1v-1.8c1-0.5,1.9-1.1,2.7-1.8
				s1.3-1.4,1.6-2h1.2V270z"/>
			<path class="st1" d="M231.7,270v-2.1h2.1v2.1c0,0.8-0.1,1.4-0.4,1.9c-0.3,0.5-0.7,0.8-1.3,1.1l-0.5-0.8c0.4-0.2,0.7-0.4,0.9-0.8
				c0.2-0.3,0.3-0.8,0.3-1.4H231.7z"/>
			<path class="st1" d="M236.5,266.1l1.9-0.2c0.1,0.9,0.5,1.7,1,2.1c0.5,0.5,1.2,0.7,1.9,0.7c0.9,0,1.6-0.3,2.3-1s0.9-1.6,0.9-2.7
				c0-1.1-0.3-1.9-0.9-2.5s-1.4-0.9-2.3-0.9c-0.6,0-1.1,0.1-1.6,0.4c-0.5,0.3-0.9,0.6-1.1,1.1l-1.7-0.2l1.5-7.7h7.5v1.8h-6l-0.8,4
				c0.9-0.6,1.8-0.9,2.8-0.9c1.3,0,2.4,0.5,3.3,1.4c0.9,0.9,1.4,2.1,1.4,3.5c0,1.4-0.4,2.5-1.2,3.5c-1,1.2-2.3,1.8-3.9,1.8
				c-1.4,0-2.5-0.4-3.3-1.1C237.1,268.4,236.6,267.4,236.5,266.1z"/>
		</g>
		<g>
			<rect x="67" y="151" class="st1" width="48" height="89"/>
		</g>
		<g>
			<rect x="171" y="103" class="st1" width="48" height="137"/>
		</g>
	</g>
</g>
</svg>
