<?xml version="1.0" encoding="utf-8"?>
<!-- Generator: Adobe Illustrator 23.0.3, SVG Export Plug-In . SVG Version: 6.00 Build 0)  -->
<svg version="1.1" id="Layer_1" xmlns="http://www.w3.org/2000/svg" xmlns:xlink="http://www.w3.org/1999/xlink" x="0px" y="0px"
	 viewBox="0 0 127.5 67" style="enable-background:new 0 0 127.5 67;" xml:space="preserve">
<style type="text/css">
	.st0{enable-background:new    ;}
	.st1{fill:#006633;}
</style>
<title>197_1</title>
<g>
	<g id="Layer_1-2">
		<g class="st0">
			<path class="st1" d="M2.2,39.1V21.9h2.3v17.2H2.2z"/>
			<path class="st1" d="M7.7,33.6l2.1-0.2c0.1,0.9,0.3,1.6,0.7,2.1s0.9,1,1.7,1.3s1.7,0.5,2.6,0.5c0.9,0,1.6-0.1,2.3-0.4
				s1.2-0.6,1.5-1.1s0.5-0.9,0.5-1.5c0-0.5-0.2-1-0.5-1.4s-0.8-0.7-1.5-1c-0.5-0.2-1.5-0.5-3.1-0.8s-2.7-0.7-3.3-1.1
				c-0.8-0.4-1.4-1-1.8-1.6s-0.6-1.3-0.6-2.1c0-0.9,0.2-1.7,0.7-2.4s1.2-1.3,2.2-1.7s2-0.6,3.2-0.6c1.3,0,2.4,0.2,3.4,0.6
				s1.7,1,2.2,1.8s0.8,1.7,0.8,2.7l-2.2,0.2c-0.1-1.1-0.5-1.9-1.2-2.5s-1.7-0.8-3-0.8c-1.4,0-2.4,0.3-3,0.8s-0.9,1.1-0.9,1.8
				c0,0.6,0.2,1.1,0.7,1.5c0.4,0.4,1.6,0.8,3.4,1.2s3.1,0.8,3.8,1.1c1,0.5,1.7,1,2.2,1.8s0.7,1.5,0.7,2.4c0,0.9-0.3,1.8-0.8,2.6
				s-1.3,1.4-2.3,1.9s-2.1,0.7-3.3,0.7c-1.6,0-2.9-0.2-3.9-0.7s-1.9-1.1-2.5-2S7.8,34.7,7.7,33.6z"/>
			<path class="st1" d="M42,29H30.7v-2H42V29z M42,34.2H30.7v-2H42V34.2z"/>
		</g>
		<g class="st0">
			<path class="st1" d="M92.9,44.8c-0.6,0-1.3,0-3-0.1v0.1c1.4,0.9,2.2,2.6,2.2,4.4c0,4.3-2.9,6.1-5.6,6.1c-3.1,0-5.6-2.3-5.6-6
				c0-3.9,2.5-6.2,6-6.2H93L92.9,44.8z M90,49.2c0-2-1-4.4-3.4-4.4c-2.4,0-3.5,2.3-3.5,4.5c0,2.5,1.5,4.5,3.5,4.5
				C88.4,53.8,90,51.8,90,49.2z"/>
		</g>
		<g class="st0">
			<path class="st1" d="M61.5,20.3V3.1h7.6c1.5,0,2.7,0.2,3.5,0.5s1.4,0.9,1.9,1.6s0.7,1.6,0.7,2.6c0,1.2-0.4,2.2-1.2,3.1
				s-2,1.4-3.7,1.6c0.6,0.3,1.1,0.6,1.4,0.9c0.7,0.6,1.3,1.4,1.9,2.3l3,4.7h-2.9l-2.3-3.6c-0.7-1-1.2-1.8-1.6-2.4s-0.8-0.9-1.2-1.1
				s-0.7-0.4-1-0.5c-0.3-0.1-0.7-0.1-1.3-0.1h-2.6v7.6H61.5z M63.8,10.7h4.9c1,0,1.9-0.1,2.4-0.3s1-0.6,1.3-1s0.5-1,0.5-1.5
				c0-0.8-0.3-1.5-0.9-2S70.5,5,69.2,5h-5.4V10.7z"/>
			<path class="st1" d="M91,15.1V13h6.5v2.1H91z"/>
		</g>
		<g class="st0">
			<path class="st1" d="M102.1,20.3l2.6-12.4h1.9l-0.5,2.5c0.6-1,1.3-1.7,1.9-2.1s1.2-0.7,1.9-0.7c0.4,0,0.9,0.2,1.6,0.5l-0.9,2
				c-0.4-0.3-0.8-0.4-1.2-0.4c-0.7,0-1.5,0.4-2.3,1.2s-1.4,2.3-1.8,4.5l-1.1,5H102.1z"/>
		</g>
		<g>
			<rect x="50.9" y="32.9" class="st1" width="76.5" height="3.7"/>
		</g>
		<g class="st0">
			<path class="st1" d="M111.5,28.3l0.2-1.1c0.5,0.1,0.8,0.2,1.1,0.2c0.3,0,0.4-0.1,0.6-0.2c0.1-0.1,0.2-0.4,0.3-0.9L115,19h-1.4
				l0.2-1h1.4l0.2-0.9c0.1-0.6,0.2-0.9,0.3-1.2c0.1-0.3,0.4-0.5,0.6-0.7s0.6-0.2,1.1-0.2c0.4,0,0.9,0.1,1.5,0.3l-0.2,1.1
				c-0.5-0.1-0.8-0.2-1.1-0.2c-0.3,0-0.5,0.1-0.6,0.2s-0.2,0.4-0.3,0.9l-0.1,0.7h1.4l-0.2,1h-1.4l-1.3,7.7c-0.1,0.7-0.3,1.2-0.6,1.4
				c-0.3,0.3-0.7,0.4-1.2,0.4C112.7,28.5,112.1,28.5,111.5,28.3z"/>
		</g>
		<g class="st0">
			<path class="st1" d="M74.4,25.5l5.8-10.3h1.6l1.7,10.3h-1.3l-0.5-3h-4.2l-1.7,3H74.4z M78.1,21.5h3.4l-0.4-2.6
				c-0.2-1-0.3-1.9-0.3-2.6c-0.2,0.6-0.6,1.3-1,2.1L78.1,21.5z"/>
		</g>
		<g class="st0">
			<path class="st1" d="M88.6,63.1l5.8-10.3h1.6l1.7,10.3h-1.3l-0.5-3h-4.2l-1.7,3H88.6z M92.4,59.1h3.4l-0.4-2.6
				c-0.2-1-0.3-1.9-0.3-2.6c-0.2,0.6-0.6,1.3-1,2.1L92.4,59.1z"/>
		</g>
	</g>
</g>
</svg>
