<?xml version="1.0" encoding="utf-8"?>
<!-- Generator: Adobe Illustrator 23.0.3, SVG Export Plug-In . SVG Version: 6.00 Build 0)  -->
<svg version="1.1" id="Layer_1" xmlns="http://www.w3.org/2000/svg" xmlns:xlink="http://www.w3.org/1999/xlink" x="0px" y="0px"
	 viewBox="0 0 184.2 64.7" style="enable-background:new 0 0 184.2 64.7;" xml:space="preserve">
<style type="text/css">
	.st0{enable-background:new    ;}
	.st1{fill:#006633;}
</style>
<title>198_1</title>
<g>
	<g id="Layer_1-2">
		<g class="st0">
			<path class="st1" d="M5.4,38.6l3.2-15.2H3l0.4-2h13.5l-0.4,2h-5.6L7.7,38.6H5.4z"/>
		</g>
		<g class="st0">
			<path class="st1" d="M12.5,38.6l2.6-12.4H17l-0.5,2.5c0.6-1,1.3-1.7,1.9-2.1s1.2-0.7,1.9-0.7c0.4,0,0.9,0.2,1.6,0.5l-0.9,2
				c-0.4-0.3-0.8-0.4-1.2-0.4c-0.7,0-1.5,0.4-2.3,1.2s-1.4,2.3-1.8,4.5l-1.1,5H12.5z"/>
		</g>
		<g class="st0">
			<path class="st1" d="M30.8,34.4l2.1,0.2c-0.3,1-1,2-2,2.9s-2.3,1.4-3.8,1.4c-0.9,0-1.8-0.2-2.5-0.6s-1.4-1-1.8-1.9
				s-0.6-1.7-0.6-2.8c0-1.4,0.3-2.7,0.9-4s1.4-2.2,2.4-2.8s2.1-0.9,3.2-0.9c1.5,0,2.7,0.5,3.6,1.4s1.3,2.2,1.3,3.8
				c0,0.6-0.1,1.2-0.2,1.9h-9.2c0,0.2,0,0.5,0,0.7c0,1.2,0.3,2.1,0.8,2.7s1.2,0.9,2,0.9c0.7,0,1.4-0.2,2.1-0.7S30.4,35.3,30.8,34.4z
				 M24.6,31.3h7c0-0.2,0-0.4,0-0.5c0-1.1-0.3-1.9-0.8-2.4s-1.2-0.8-2.1-0.8c-0.9,0-1.7,0.3-2.5,0.9S25,30,24.6,31.3z"/>
			<path class="st1" d="M34.2,43.4l0.1-2c0.4,0.1,0.9,0.2,1.3,0.2c0.4,0,0.8-0.1,1-0.3c0.3-0.3,0.7-0.7,1.1-1.5l0.7-1.2l-2.1-12.5
				h2.1l0.9,6.3c0.2,1.2,0.3,2.5,0.5,3.7l5.6-10h2.2l-7.9,14.1c-0.8,1.4-1.4,2.3-2,2.7s-1.3,0.7-2.1,0.7
				C35.1,43.6,34.6,43.6,34.2,43.4z"/>
			<path class="st1" d="M47,38.6l2.6-12.4h1.9L51,28.3c0.8-0.9,1.6-1.5,2.3-1.9s1.5-0.6,2.2-0.6c1,0,1.8,0.3,2.4,0.8
				s0.9,1.3,0.9,2.2c0,0.5-0.1,1.2-0.3,2.2L57,38.6h-2.1l1.7-7.9c0.2-0.8,0.2-1.3,0.2-1.7c0-0.4-0.1-0.8-0.4-1s-0.7-0.4-1.2-0.4
				c-1.1,0-2.1,0.4-2.9,1.2s-1.5,2.1-1.9,4l-1.2,5.8H47z"/>
			<path class="st1" d="M60.7,33.9c0-2.4,0.7-4.4,2.1-6c1.2-1.3,2.7-2,4.6-2c1.5,0,2.7,0.5,3.6,1.4s1.4,2.2,1.4,3.8
				c0,1.4-0.3,2.8-0.9,4s-1.4,2.2-2.5,2.8s-2.2,1-3.4,1c-1,0-1.8-0.2-2.6-0.6s-1.4-1-1.8-1.8S60.7,34.9,60.7,33.9z M62.8,33.7
				c0,1.2,0.3,2.1,0.8,2.7s1.3,0.9,2.1,0.9c0.5,0,0.9-0.1,1.3-0.3s0.9-0.5,1.2-0.8s0.7-0.8,1-1.3s0.5-1,0.7-1.6
				c0.2-0.8,0.4-1.5,0.4-2.2c0-1.1-0.3-2-0.8-2.6s-1.3-0.9-2.1-0.9c-0.7,0-1.3,0.2-1.8,0.5s-1,0.8-1.5,1.4s-0.8,1.3-1,2.1
				S62.8,33,62.8,33.7z"/>
			<path class="st1" d="M73.7,38.6l2.6-12.4h1.9l-0.5,2.5c0.6-1,1.3-1.7,1.9-2.1s1.2-0.7,1.9-0.7c0.4,0,0.9,0.2,1.6,0.5l-0.9,2
				c-0.4-0.3-0.8-0.4-1.2-0.4c-0.7,0-1.5,0.4-2.3,1.2s-1.4,2.3-1.8,4.5l-1.1,5H73.7z"/>
		</g>
		<g class="st0">
			<path class="st1" d="M102.4,28.5H91v-2h11.3V28.5z M102.4,33.7H91v-2h11.3V33.7z"/>
		</g>
		<g class="st0">
			<path class="st1" d="M117.1,20.3l2.6-12.4h1.9l-0.5,2.5c0.6-1,1.3-1.7,1.9-2.1s1.2-0.7,1.9-0.7c0.4,0,0.9,0.2,1.6,0.5l-0.9,2
				c-0.4-0.3-0.8-0.4-1.2-0.4c-0.7,0-1.5,0.4-2.3,1.2s-1.4,2.3-1.8,4.5l-1.1,5H117.1z"/>
		</g>
		<g class="st0">
			<path class="st1" d="M139.8,15.1V13h6.5v2.1H139.8z"/>
		</g>
		<g class="st0">
			<path class="st1" d="M153.3,20.3l2.6-12.4h1.9l-0.5,2.5c0.6-1,1.3-1.7,1.9-2.1s1.2-0.7,1.9-0.7c0.4,0,0.9,0.2,1.6,0.5l-0.9,2
				c-0.4-0.3-0.8-0.4-1.2-0.4c-0.7,0-1.5,0.4-2.3,1.2s-1.4,2.3-1.8,4.5l-1.1,5H153.3z"/>
		</g>
		<g>
			<rect x="107.6" y="32.9" class="st1" width="76.5" height="3.7"/>
		</g>
		<g class="st0">
			<path class="st1" d="M168.2,28.3l0.2-1.1c0.5,0.1,0.8,0.2,1.1,0.2c0.3,0,0.4-0.1,0.6-0.2c0.1-0.1,0.2-0.4,0.3-0.9l1.2-7.3h-1.4
				l0.2-1h1.4l0.2-0.9c0.1-0.6,0.2-0.9,0.3-1.2c0.1-0.3,0.4-0.5,0.6-0.7s0.6-0.2,1.1-0.2c0.4,0,0.9,0.1,1.5,0.3l-0.2,1.1
				c-0.5-0.1-0.8-0.2-1.1-0.2c-0.3,0-0.5,0.1-0.6,0.2c-0.1,0.1-0.2,0.4-0.3,0.9l-0.1,0.7h1.4l-0.2,1H173l-1.3,7.7
				c-0.1,0.7-0.3,1.2-0.6,1.4c-0.3,0.3-0.7,0.4-1.2,0.4C169.3,28.5,168.8,28.5,168.2,28.3z"/>
		</g>
		<g class="st0">
			<path class="st1" d="M124,28.4l2.2-10.3h1.2l-0.2,1c0.4-0.5,0.8-0.8,1.2-0.9s0.7-0.3,1.1-0.3c0.7,0,1.3,0.3,1.8,0.8
				c0.5,0.5,0.7,1.3,0.7,2.2c0,0.8-0.1,1.5-0.4,2.1s-0.6,1.2-0.9,1.5c-0.4,0.4-0.8,0.7-1.1,0.9c-0.4,0.2-0.8,0.3-1.2,0.3
				c-0.9,0-1.6-0.5-2.1-1.4l-0.8,4.1H124z M126.5,22.4c0,0.6,0,0.9,0.1,1.2c0.1,0.3,0.3,0.6,0.6,0.7s0.6,0.3,0.9,0.3
				c0.7,0,1.3-0.4,1.8-1.2c0.5-0.8,0.7-1.7,0.7-2.5c0-0.6-0.2-1.1-0.5-1.5c-0.3-0.3-0.7-0.5-1.1-0.5c-0.3,0-0.6,0.1-0.9,0.3
				c-0.3,0.2-0.5,0.4-0.8,0.8s-0.4,0.8-0.6,1.2C126.6,21.6,126.5,22.1,126.5,22.4z"/>
		</g>
		<g class="st0">
			<path class="st1" d="M150.1,62.9l2.2-10.3h1.2l-0.2,1c0.4-0.5,0.8-0.8,1.2-0.9s0.7-0.3,1.1-0.3c0.7,0,1.3,0.3,1.8,0.8
				c0.5,0.5,0.7,1.3,0.7,2.2c0,0.8-0.1,1.5-0.4,2.1c-0.3,0.6-0.6,1.2-0.9,1.5s-0.8,0.7-1.1,0.9c-0.4,0.2-0.8,0.3-1.2,0.3
				c-0.9,0-1.6-0.5-2.1-1.4l-0.8,4.1H150.1z M152.7,57c0,0.6,0,0.9,0.1,1.2c0.1,0.3,0.3,0.6,0.6,0.7s0.6,0.3,0.9,0.3
				c0.7,0,1.3-0.4,1.8-1.2s0.7-1.7,0.7-2.5c0-0.6-0.2-1.1-0.5-1.5c-0.3-0.3-0.7-0.5-1.1-0.5c-0.3,0-0.6,0.1-0.9,0.3
				c-0.3,0.2-0.5,0.4-0.8,0.8s-0.4,0.8-0.6,1.2C152.7,56.2,152.7,56.6,152.7,57z"/>
		</g>
		<g class="st0">
			<path class="st1" d="M139.5,57.5v1.6c0,1.4,0,3.4,0.3,4.3h-2c-0.3-0.8-0.4-2.4-0.4-4.1V48.3c0-3.3,0.9-4.8,1.8-5.6
				c0.8-0.8,1.9-1.3,3.4-1.3c2.4,0,4.2,1.7,4.2,4.2c0,1.8-1,3.2-2.1,3.7v0.1c1.8,0.4,3.6,1.9,3.6,4.6c0,3.2-2.4,5-5,5
				C141.7,59,140.5,58.4,139.5,57.5L139.5,57.5z M139.5,55.4c0.6,0.9,1.7,1.9,3.4,1.9c1.9,0,3.3-1.4,3.3-3.3c0-2.3-1.6-3.5-3.7-3.6
				c-0.2,0-0.4,0-0.6,0V49c0.1,0,0.3,0,0.4,0c1.8-0.1,2.7-1.5,2.7-3.1c0-1.7-1-2.8-2.4-2.8c-1.9,0-3,1.7-3,5V55.4z"/>
		</g>
	</g>
</g>
</svg>
