<svg xmlns="http://www.w3.org/2000/svg" viewBox="0 0 118.39 81.14"><defs><style>.cls-1{fill:none;stroke-miterlimit:3;stroke-width:8px;}.cls-1,.cls-3{stroke:#63c932;}.cls-2{fill:#63c932;}.cls-3{fill:#fff;stroke-miterlimit:10;stroke-width:4px;}</style></defs><title>199_2</title><g id="Layer_2" data-name="Layer 2"><g id="Layer_1-2" data-name="Layer 1"><path id="icone_notas_0_Layer0_0_1_STROKES" data-name="icone notas 0 Layer0 0 1 STROKES" class="cls-1" d="M40,44.6h73.82l-4.61,32.54H45a8.1,8.1,0,0,1-6.43-2.81,8,8,0,0,1-1.88-6.74Z"/><g id="icone_notas_0_Layer0_1_FILL" data-name="icone notas 0 Layer0 1 FILL"><path class="cls-2" d="M75.91,50.32l-.54,2a11.33,11.33,0,0,0-3.33.44,3.76,3.76,0,0,0-2,1.42,6.42,6.42,0,0,0-1,2.75,4.52,4.52,0,0,0,.37,2.89,4.62,4.62,0,0,0,2.38,1.89l3,1.28a2.3,2.3,0,0,1,.93.52.9.9,0,0,1,.17.84.92.92,0,0,1-.5.79,4.47,4.47,0,0,1-1.55.19l-2.06,0-3.49-.08-.7,3.14q1,.22,1.83.36c.57.1,1.11.18,1.61.23l-.6,2.45h3.19l.56-2.35a9.86,9.86,0,0,0,3.29-.56A3.81,3.81,0,0,0,79.4,67a6.8,6.8,0,0,0,.89-2.71,4.52,4.52,0,0,0-.36-2.91,4.61,4.61,0,0,0-2.43-1.93l-2.74-1.13a3.17,3.17,0,0,1-1.14-.59.94.94,0,0,1-.21-.85,1,1,0,0,1,.51-.84,3.9,3.9,0,0,1,1.47-.17l1.89,0c.66,0,1.28,0,1.85,0s1.12,0,1.57,0l.69-2.87A9.49,9.49,0,0,0,80,52.73c-.49-.1-1-.18-1.46-.24l.56-2.17Z"/></g><g id="icone_notas_0_Layer0_2_FILL" data-name="icone notas 0 Layer0 2 FILL"><path class="cls-2" d="M64.15,55.2l.54-3.78H46.84l-.53,3.78Z"/></g><g id="icone_notas_0_Layer0_3_FILL" data-name="icone notas 0 Layer0 3 FILL"><path class="cls-2" d="M103.63,71.16l.53-3.78H86.32l-.54,3.78Z"/></g><path id="Duplicate_Items_Folder_multipleWays_0_Layer0_3_1_STROKES" data-name="Duplicate Items Folder multipleWays 0 Layer0 3 1 STROKES" class="cls-3" d="M35.55,29.31a17.33,17.33,0,0,0,2-13.65A17.37,17.37,0,0,0,29.31,4.59a17.33,17.33,0,0,0-13.65-2A17.32,17.32,0,0,0,4.59,10.83a17.33,17.33,0,0,0-2,13.65,17.27,17.27,0,0,0,8.23,11.07,17.33,17.33,0,0,0,13.65,2A17.32,17.32,0,0,0,35.55,29.31Z"/><path class="cls-2" d="M22.51,19a3.71,3.71,0,0,1,2.78,4.29c-.2,3.15-1.56,4.12-5.1,4.18l-.36,2.28H17.47l.36-2.34a23.78,23.78,0,0,1-3.16-.47L15,24.54c2.65.06,3.86.08,4.78.08,1.68,0,2.16-.23,2.24-1.35s-.32-1.29-1.3-1.6l-2.83-1a3.72,3.72,0,0,1-2.73-4.26c.21-3.24,1.69-4,5.22-4l.32-1.9H23.1l-.34,2a14.51,14.51,0,0,1,2.71.48l-.33,2.2c-1.23,0-3-.06-4.55-.06s-2.11.08-2.2,1.33c-.06,1,.35,1.28,1.45,1.64Z"/><path class="cls-2" d="M56.92,68.49H23.66c-7.48,0-12.69-6.08-11.61-13.56l2.42-16.79h8L20.05,54.93a4.71,4.71,0,0,0,4.76,5.56H58.07Z"/><polygon class="cls-2" points="67.74 64.49 55.63 72.17 57.84 56.81 67.74 64.49 67.74 64.49"/></g></g></svg>