<svg xmlns="http://www.w3.org/2000/svg" viewBox="0 0 124.58 82.38"><defs><style>.cls-1,.cls-3{fill:none;stroke:#63c932;stroke-miterlimit:10;}.cls-1{stroke-width:8px;}.cls-2{fill:#63c932;}.cls-3{stroke-width:4px;}</style></defs><title>199_1</title><g id="Layer_2" data-name="Layer 2"><g id="Layer_1-2" data-name="Layer 1"><path id="calendario_0_Layer0_0_1_STROKES" data-name="calendario 0 Layer0 0 1 STROKES" class="cls-1" d="M75.6,51.19H10.47a6.44,6.44,0,0,1-5-2,5.47,5.47,0,0,1-1.38-4.9L10.42,4H83.09Z"/><g id="calendario_0_Layer0_12_FILL" data-name="calendario 0 Layer0 12 FILL"><path class="cls-2" d="M22,44.3l1.39-9H12.7l-1.22,7.84a1,1,0,0,0,.2.8,1,1,0,0,0,.75.32Z"/></g><line class="cls-1" x1="8.28" y1="15.01" x2="81.34" y2="15.01"/><line class="cls-2" x1="14.44" y1="24.82" x2="53.07" y2="24.82"/><polygon class="cls-2" points="52.78 26.82 14.15 26.82 14.73 22.82 53.36 22.82 52.78 26.82"/><line class="cls-2" x1="60.02" y1="24.82" x2="71.75" y2="24.82"/><polygon class="cls-2" points="71.47 26.82 59.73 26.82 60.31 22.82 72.04 22.82 71.47 26.82"/><path class="cls-3" d="M60,70.12l-1.18.31V72.7a3.37,3.37,0,0,0,1,2.46,3.33,3.33,0,0,0,2.5,1L68,76.12a8.21,8.21,0,0,0,1.09,3.22,3.33,3.33,0,0,0,2.49,1l7.69,0,19.46-.07,23.83-.12-.13-26.38-23,.12"/><path id="mao1_0_Layer0_0_1_STROKES" data-name="mao1 0 Layer0 0 1 STROKES" class="cls-3" d="M96,53.88l11.55-.06.14,26.37-27.5.14m-13.1-11L57,69.34a3.81,3.81,0,0,1-3.81-3.76l0-3.79,13.73-.07V61.6l-14.34.07a3.62,3.62,0,0,1-2.69-1.11,3.56,3.56,0,0,1-1.11-2.65l0-3.79,36.88-.19M66.93,61.72h.22"/><path class="cls-3" d="M76.29,53.94,78.2,41.52c11.37.19,13.52,5,19,12.25"/><path class="cls-2" d="M117.32,62.18a2.57,2.57,0,0,0,.19-2,2.47,2.47,0,0,0-1.23-1.51,2.58,2.58,0,0,0-1.93-.21,2.47,2.47,0,0,0-1.51,1.23,2.6,2.6,0,0,0-.21,1.93,2.37,2.37,0,0,0,1.21,1.51,2.46,2.46,0,0,0,2,.21A2.37,2.37,0,0,0,117.32,62.18Z"/></g></g></svg>