<svg xmlns="http://www.w3.org/2000/svg" viewBox="0 0 206.91 178.47"><defs><style>.cls-1,.cls-12,.cls-13,.cls-14{fill:none;stroke:#6bbe45;}.cls-1{stroke-linecap:square;stroke-miterlimit:3;}.cls-1,.cls-13{stroke-width:4px;}.cls-2,.cls-3,.cls-5,.cls-8{fill:#6bbe45;}.cls-3{font-size:11.13px;}.cls-3,.cls-5,.cls-8{font-family:Exo2.0-Regular, "Exo 2.0";}.cls-4{letter-spacing:-0.02em;}.cls-5{font-size:11.59px;}.cls-6{letter-spacing:-0.03em;}.cls-7{letter-spacing:0em;}.cls-8{font-size:11.59px;}.cls-9{letter-spacing:-0.01em;}.cls-10{letter-spacing:0em;}.cls-11{letter-spacing:-0.02em;}.cls-12,.cls-13,.cls-14{stroke-miterlimit:10;}.cls-14{stroke-width:2px;}</style></defs><title>203_1</title><g id="Layer_2" data-name="Layer 2"><g id="Layer_1-2" data-name="Layer 1"><g id="graficosA_0_Layer1_1_1_STROKES" data-name="graficosA 0 Layer1 1 1 STROKES"><polyline class="cls-1" points="199.74 140.87 22.7 140.87 22.7 7.18"/><polygon class="cls-2" points="198.28 135.89 206.91 140.87 198.28 145.86 198.28 135.89"/><polygon class="cls-2" points="27.68 8.63 22.7 0 17.71 8.63 27.68 8.63"/></g><text class="cls-3" transform="translate(151.11 104.5)">Bond<tspan class="cls-4" x="26.06" y="0" xml:space="preserve"> A</tspan></text><text class="cls-3" transform="translate(151.11 120.08)">Bond B</text><text class="cls-3" transform="translate(151.11 135.21)">Duration</text><text class="cls-5" transform="translate(75.44 156.58)">*<tspan class="cls-6" x="5.22" y="0">Y</tspan></text><text class="cls-5" transform="translate(5.22 92.48)"><tspan class="cls-7">*</tspan><tspan x="5.18" y="0">p</tspan></text><text class="cls-5" transform="translate(0 108.95)">*<tspan class="cls-7" x="5.22" y="0">*</tspan><tspan x="10.4" y="0">p</tspan></text><text class="cls-5" transform="translate(0 124.53)">*<tspan class="cls-7" x="5.22" y="0">*</tspan><tspan x="10.4" y="0">p</tspan></text><text class="cls-5" transform="translate(121.73 156.58)">**<tspan class="cls-6" x="10.43" y="0">Y</tspan></text><text class="cls-5" transform="translate(175.15 156.58)">Yield</text><text class="cls-5" transform="translate(121.73 175.28)">**<tspan class="cls-6" x="10.43" y="0">Y</tspan></text><text class="cls-8" transform="translate(15.55 73.36) rotate(-90)">Bond Pri<tspan class="cls-9" x="44.1" y="0">c</tspan><tspan class="cls-10" x="49.68" y="0">e (</tspan><tspan class="cls-11" x="62.65" y="0">$</tspan><tspan x="68.96" y="0">)</tspan></text><polyline class="cls-12" points="22.84 88.75 83.83 88.75 83.83 140.83"/><polyline class="cls-12" points="22.84 103.22 132.57 103.22 132.57 141.28"/><polyline class="cls-12" points="23.73 115.23 133.46 115.23 133.46 141.28"/><line class="cls-13" x1="26.72" y1="45.52" x2="143.12" y2="132.87"/><path class="cls-14" d="M34.64,31.1c4.45,18.25,65.44,81.46,113.07,87.25"/><path class="cls-14" d="M56.45,24.87c-1.33,50.3,37.39,85,92.59,77"/></g></g></svg>