<svg xmlns="http://www.w3.org/2000/svg" viewBox="0 0 101.75 77"><defs><style>.cls-1,.cls-3{fill:#fff;stroke:#63c932;stroke-miterlimit:10;}.cls-1{stroke-width:4px;}.cls-2{fill:#63c932;}.cls-3{stroke-width:8px;}</style></defs><title>204_1</title><g id="Layer_2" data-name="Layer 2"><g id="Layer_1-2" data-name="Layer 1"><polygon class="cls-1" points="9.1 75 71.09 75 73.47 58.53 11.47 58.53 9.1 75"/><polygon class="cls-2" points="63.78 70.66 59.78 70.66 61 62.18 65 62.18 63.78 70.66"/><polygon class="cls-2" points="53.03 70.66 49.03 70.66 50.25 62.18 54.25 62.18 53.03 70.66"/><polygon class="cls-2" points="31.53 70.66 27.53 70.66 28.75 62.18 32.75 62.18 31.53 70.66"/><polygon class="cls-2" points="20.78 70.66 16.78 70.66 18 62.18 22 62.18 20.78 70.66"/><polygon class="cls-2" points="42.28 70.66 38.28 70.66 39.5 62.18 43.5 62.18 42.28 70.66"/><polygon class="cls-1" points="12.82 41.37 74.82 41.37 77.2 24.89 15.2 24.89 12.82 41.37"/><polygon class="cls-2" points="67.51 37.03 63.51 37.03 64.73 28.54 68.73 28.54 67.51 37.03"/><polygon class="cls-2" points="56.76 37.03 52.76 37.03 53.98 28.54 57.98 28.54 56.76 37.03"/><polygon class="cls-2" points="35.26 37.03 31.26 37.03 32.48 28.54 36.48 28.54 35.26 37.03"/><polygon class="cls-2" points="24.51 37.03 20.51 37.03 21.73 28.54 25.73 28.54 24.51 37.03"/><polygon class="cls-2" points="46.01 37.03 42.01 37.03 43.23 28.54 47.23 28.54 46.01 37.03"/><polygon class="cls-1" points="11.43 24.12 73.43 24.12 75.8 7.65 13.8 7.65 11.43 24.12"/><polygon class="cls-2" points="66.11 19.78 62.11 19.78 63.33 11.29 67.33 11.29 66.11 19.78"/><polygon class="cls-2" points="55.36 19.78 51.36 19.78 52.58 11.29 56.58 11.29 55.36 19.78"/><polygon class="cls-2" points="33.86 19.78 29.86 19.78 31.08 11.29 35.08 11.29 33.86 19.78"/><polygon class="cls-2" points="23.11 19.78 19.11 19.78 20.33 11.29 24.33 11.29 23.11 19.78"/><polygon class="cls-2" points="44.61 19.78 40.61 19.78 41.83 11.29 45.83 11.29 44.61 19.78"/><polygon class="cls-1" points="2.31 58.41 64.31 58.41 66.68 41.94 4.68 41.94 2.31 58.41"/><polygon class="cls-2" points="56.99 54.07 52.99 54.07 54.22 45.59 58.22 45.59 56.99 54.07"/><polygon class="cls-2" points="46.24 54.07 42.24 54.07 43.47 45.59 47.47 45.59 46.24 54.07"/><polygon class="cls-2" points="24.74 54.07 20.74 54.07 21.97 45.59 25.97 45.59 24.74 54.07"/><polygon class="cls-2" points="13.99 54.07 9.99 54.07 11.22 45.59 15.22 45.59 13.99 54.07"/><polygon class="cls-2" points="35.49 54.07 31.49 54.07 32.72 45.59 36.72 45.59 35.49 54.07"/><path id="Duplicate_Items_Folder_multipleWays_0_Layer0_5_1_STROKES" data-name="Duplicate Items Folder multipleWays 0 Layer0 5 1 STROKES" class="cls-3" d="M49.25,52.5a27.38,27.38,0,0,1-8.32-20.09,27.35,27.35,0,0,1,8.32-20.08A27.4,27.4,0,0,1,69.34,4a27.28,27.28,0,0,1,20.08,8.33,27.33,27.33,0,0,1,8.33,20.08A27.35,27.35,0,0,1,89.42,52.5a27.28,27.28,0,0,1-20.08,8.32A27.39,27.39,0,0,1,49.25,52.5Z"/><path class="cls-2" d="M72.89,30.78c3.16,1.15,4.08,3,3.89,6-.29,4.39-2.18,5.74-7.12,5.83l-.5,3.18h-3.3l.51-3.27A32.24,32.24,0,0,1,62,41.85l.51-3.3c3.71.09,5.4.12,6.67.12,2.35,0,3-.32,3.12-1.88s-.44-1.8-1.81-2.24l-4-1.44c-3-1.12-4-2.95-3.8-5.95.29-4.51,2.35-5.57,7.28-5.63l.44-2.65h3.3l-.48,2.77a20.36,20.36,0,0,1,3.79.68l-.47,3.06c-1.72-.06-4.18-.09-6.34-.09s-3,.12-3.06,1.86c-.09,1.41.47,1.79,2,2.29Z"/></g></g></svg>