<svg xmlns="http://www.w3.org/2000/svg" viewBox="0 0 107.7 107.67"><defs><style>.cls-1{fill:#fff;stroke-miterlimit:10;stroke-width:4px;}.cls-1,.cls-2{stroke:#63c932;}.cls-2{fill:none;stroke-miterlimit:3;stroke-width:8px;}</style></defs><title>207_1</title><g id="Layer_2" data-name="Layer 2"><g id="Layer_1-2" data-name="Layer 1"><polygon class="cls-1" points="54.34 90.06 61.72 81.3 61.26 77.84 72.33 72.76 76.02 65.61 76.25 56.85 78.33 56.39 84.1 48.08 82.25 43.47 70.49 40.01 65.87 41.63 66.8 37.93 62.65 36.55 59.65 39.32 55.49 38.63 59.19 32.63 56.19 28.48 49.5 32.63 43.27 33.32 42.12 26.63 36.12 29.86 37.04 32.63 33.1 34.5 31.51 33.09 26.61 35.42 28.28 38.16 26.66 43.7 20.67 44.62 20.9 49.01 23.43 52.7 30.58 53.85 34.12 51.7 34.51 55.23 42.12 58.54 43.35 62.46 46.93 65.85 47.04 71.92 54.57 77.84 53.42 80.61 47.65 85.68 54.34 90.06 54.34 90.06"/><path id="icone_relogio_0_Layer0_0_1_STROKES" data-name="icone relogio 0 Layer0 0 1 STROKES" class="cls-2" d="M103.7,53.85A48,48,0,0,1,89.09,89.06a48,48,0,0,1-35.24,14.61A48.08,48.08,0,0,1,18.58,89.06,48,48,0,0,1,4,53.85,48.13,48.13,0,0,1,18.58,18.58,48.13,48.13,0,0,1,53.85,4,48.1,48.1,0,0,1,89.09,18.58,48.08,48.08,0,0,1,103.7,53.85Z"/></g></g></svg>