<svg xmlns="http://www.w3.org/2000/svg" viewBox="0 0 365.94 315.63"><defs><style>.cls-1,.cls-12,.cls-13,.cls-14{fill:none;stroke:#026735;}.cls-1{stroke-linecap:square;stroke-miterlimit:3;}.cls-1,.cls-13{stroke-width:4px;}.cls-2,.cls-3,.cls-5,.cls-9{fill:#026735;}.cls-3{font-size:19.68px;}.cls-3,.cls-5,.cls-9{font-family:Exo2.0-Regular, Exo 2.0;}.cls-4{letter-spacing:-0.02em;}.cls-5{font-size:20.51px;}.cls-6{letter-spacing:-0.03em;}.cls-7{letter-spacing:0em;}.cls-8{letter-spacing:-0.03em;}.cls-9{font-size:20.51px;}.cls-10{letter-spacing:-0.01em;}.cls-11{letter-spacing:-0.02em;}.cls-12,.cls-13,.cls-14{stroke-miterlimit:10;}.cls-14{stroke-width:2px;}</style></defs><title>209_1</title><g id="Layer_2" data-name="Layer 2"><g id="Layer_1-2" data-name="Layer 1"><g id="graficosA_0_Layer1_1_1_STROKES" data-name="graficosA 0 Layer1 1 1 STROKES"><polyline class="cls-1" points="358.76 249.14 40.14 249.14 40.14 7.18"/><polygon class="cls-2" points="357.3 244.16 365.94 249.14 357.3 254.13 357.3 244.16"/><polygon class="cls-2" points="45.13 8.63 40.14 0 35.16 8.63 45.13 8.63"/></g><text class="cls-3" transform="translate(267.25 184.81)">Bond<tspan class="cls-4" x="46.09" y="0" xml:space="preserve"> A</tspan></text><text class="cls-3" transform="translate(267.25 212.37)">Bond B</text><text class="cls-3" transform="translate(267.25 239.14)">Duration</text><text class="cls-5" transform="translate(133.42 276.93)">*<tspan class="cls-6" x="9.23" y="0">Y</tspan></text><text class="cls-5" transform="translate(9.23 163.56)"><tspan class="cls-7">*</tspan><tspan x="9.17" y="0">p</tspan></text><text class="cls-5" transform="translate(0 192.69)">*<tspan class="cls-7" x="9.23" y="0">*</tspan><tspan x="18.39" y="0">p</tspan></text><text class="cls-5" transform="translate(0 220.24)">*<tspan class="cls-7" x="9.23" y="0">*</tspan><tspan x="18.39" y="0">p</tspan></text><text class="cls-5" transform="translate(215.3 276.93)">**<tspan class="cls-8" x="18.46" y="0">Y</tspan></text><text class="cls-5" transform="translate(309.77 276.93)">Yield</text><text class="cls-5" transform="translate(215.3 309.99)">**<tspan class="cls-8" x="18.46" y="0">Y</tspan></text><text class="cls-9" transform="translate(27.51 129.74) rotate(-90)">Bond Pri<tspan class="cls-10" x="78" y="0">c</tspan><tspan x="87.86" y="0">e (</tspan><tspan class="cls-11" x="110.81" y="0">$</tspan><tspan x="121.96" y="0">)</tspan></text><polyline class="cls-12" points="40.4 156.96 148.26 156.96 148.26 249.07"/><polyline class="cls-12" points="40.4 182.54 234.46 182.54 234.46 249.85"/><polyline class="cls-12" points="41.98 203.8 236.04 203.8 236.04 249.85"/><line class="cls-13" x1="47.25" y1="80.51" x2="253.12" y2="234.99"/><path class="cls-14" d="M61.26,55c7.88,32.28,115.73,144.08,200,154.31"/><path class="cls-14" d="M99.84,44c-2.36,89,66.13,150.37,163.75,136.2"/></g></g></svg>