<?xml version="1.0" encoding="utf-8"?>
<!-- Generator: Adobe Illustrator 23.0.3, SVG Export Plug-In . SVG Version: 6.00 Build 0)  -->
<svg version="1.1" id="Layer_1" xmlns="http://www.w3.org/2000/svg" xmlns:xlink="http://www.w3.org/1999/xlink" x="0px" y="0px"
	 viewBox="0 0 432.6 35.3" style="enable-background:new 0 0 432.6 35.3;" xml:space="preserve">
<style type="text/css">
	.st0{enable-background:new    ;}
	.st1{fill:#006633;}
</style>
<title>211_1</title>
<g>
	<g id="Layer_1-2">
		<g class="st0">
			<path class="st1" d="M5.4,20.3L8.6,5.1H3l0.4-2h13.5l-0.4,2h-5.6L7.7,20.3H5.4z"/>
		</g>
		<g class="st0">
			<path class="st1" d="M12.5,20.3l2.6-12.4H17l-0.5,2.5c0.6-1,1.3-1.7,1.9-2.1s1.2-0.7,1.9-0.7c0.4,0,0.9,0.2,1.6,0.5l-0.9,2
				c-0.4-0.3-0.8-0.4-1.2-0.4c-0.7,0-1.5,0.4-2.3,1.2s-1.4,2.3-1.8,4.5l-1.1,5H12.5z"/>
		</g>
		<g class="st0">
			<path class="st1" d="M30,18.8c-0.7,0.6-1.4,1.1-2.1,1.4s-1.4,0.4-2.2,0.4c-1.1,0-2.1-0.3-2.8-1s-1.1-1.5-1.1-2.6
				c0-0.7,0.2-1.3,0.5-1.8s0.7-1,1.3-1.3s1.2-0.6,1.9-0.7c0.5-0.1,1.4-0.2,2.7-0.2s2.3-0.2,2.9-0.4c0.2-0.6,0.2-1.1,0.2-1.4
				c0-0.5-0.2-0.9-0.5-1.2c-0.5-0.4-1.2-0.6-2.2-0.6c-0.9,0-1.6,0.2-2.2,0.6s-1,1-1.2,1.7l-2.1-0.2c0.4-1.2,1.1-2.2,2.1-2.8
				s2.1-1,3.6-1c1.5,0,2.8,0.4,3.7,1.1c0.7,0.5,1,1.3,1,2.1c0,0.7-0.1,1.4-0.3,2.3l-0.7,3.1c-0.2,1-0.3,1.8-0.3,2.4
				c0,0.4,0.1,1,0.3,1.7h-2.1C30.1,19.9,30,19.4,30,18.8z M30.8,14c-0.3,0.1-0.6,0.2-1,0.3s-0.9,0.1-1.7,0.2
				c-1.2,0.1-2.1,0.2-2.6,0.4s-0.9,0.4-1.1,0.8S24,16.5,24,16.9c0,0.6,0.2,1.1,0.6,1.5s1,0.6,1.8,0.6c0.7,0,1.4-0.2,2-0.6
				s1.2-0.9,1.5-1.6S30.6,15.3,30.8,14z"/>
			<path class="st1" d="M43.5,15.8l2.1,0.2c-0.5,1.6-1.3,2.7-2.3,3.5s-2.1,1.1-3.3,1.1c-1.4,0-2.4-0.4-3.3-1.3s-1.3-2.1-1.3-3.7
				c0-1.4,0.3-2.7,0.8-4s1.3-2.3,2.3-3s2.2-1,3.4-1c1.3,0,2.4,0.4,3.2,1.1s1.2,1.8,1.2,3l-2.1,0.1c0-0.8-0.2-1.4-0.7-1.9
				s-1-0.7-1.8-0.7c-0.9,0-1.6,0.3-2.2,0.8s-1.1,1.4-1.5,2.5s-0.5,2.2-0.5,3.2c0,1.1,0.2,1.9,0.7,2.4s1,0.8,1.7,0.8s1.3-0.3,2-0.8
				S43.2,16.9,43.5,15.8z"/>
			<path class="st1" d="M47,20.3l3.6-17.2h2.1l-2.2,10.7l6.2-5.9h2.8l-5.3,4.6l3.2,7.8H55L52.5,14L50,16.2l-0.9,4.2H47z"/>
			<path class="st1" d="M58.9,20.3l2.6-12.4h2.1L61,20.3H58.9z M62,5.6l0.5-2.4h2.1l-0.5,2.4H62z"/>
			<path class="st1" d="M64.3,20.3l2.6-12.4h1.9l-0.5,2.2c0.8-0.9,1.6-1.5,2.3-1.9s1.5-0.6,2.2-0.6c1,0,1.8,0.3,2.4,0.8
				s0.9,1.3,0.9,2.2c0,0.5-0.1,1.2-0.3,2.2l-1.6,7.5h-2.1l1.7-7.9c0.2-0.8,0.2-1.3,0.2-1.7c0-0.4-0.1-0.8-0.4-1s-0.7-0.4-1.2-0.4
				c-1.1,0-2.1,0.4-2.9,1.2s-1.5,2.1-1.9,4l-1.2,5.8H64.3z"/>
			<path class="st1" d="M77.5,21.5l2.1,0.2c0,0.5,0,0.8,0.2,1.1s0.3,0.4,0.6,0.6c0.4,0.2,0.9,0.3,1.5,0.3c1.3,0,2.2-0.3,2.8-1
				c0.4-0.4,0.7-1.4,1-2.9l0.2-1c-1.1,1.1-2.3,1.7-3.5,1.7c-1.3,0-2.3-0.5-3.2-1.4S78,16.7,78,15c0-1.4,0.3-2.7,1-3.9
				s1.5-2.1,2.4-2.7s1.9-0.9,2.8-0.9c1.6,0,2.9,0.8,3.8,2.3l0.4-2h1.9l-2.5,12c-0.3,1.3-0.6,2.3-1.1,3.1s-1.1,1.3-1.9,1.7
				s-1.7,0.6-2.7,0.6c-1,0-1.9-0.1-2.6-0.4s-1.3-0.6-1.6-1.1s-0.5-1.1-0.5-1.7C77.5,21.9,77.5,21.7,77.5,21.5z M80.2,14.8
				c0,0.9,0.1,1.5,0.2,1.9c0.2,0.6,0.6,1.1,1,1.4s0.9,0.5,1.4,0.5c0.7,0,1.4-0.2,2.1-0.7s1.2-1.2,1.7-2.3s0.6-2,0.6-2.9
				c0-1-0.3-1.8-0.8-2.4s-1.3-0.9-2.1-0.9c-0.5,0-1,0.1-1.5,0.4s-0.9,0.7-1.4,1.3s-0.7,1.2-0.9,2S80.2,14.4,80.2,14.8z"/>
			<path class="st1" d="M88.7,25.1v-1.5h14v1.5H88.7z"/>
			<path class="st1" d="M104.6,20.3l3.6-17.2h12.4l-0.4,2h-10.1l-1.1,5.3h9.8l-0.4,2h-9.8l-1.2,6h10.8l-0.4,1.9H104.6z"/>
			<path class="st1" d="M120.3,20.3l2.6-12.4h1.9l-0.5,2.5c0.6-1,1.3-1.7,1.9-2.1s1.2-0.7,1.9-0.7c0.4,0,0.9,0.2,1.6,0.5l-0.9,2
				c-0.4-0.3-0.8-0.4-1.2-0.4c-0.7,0-1.5,0.4-2.3,1.2s-1.4,2.3-1.8,4.5l-1.1,5H120.3z"/>
		</g>
		<g class="st0">
			<path class="st1" d="M129.1,20.3l2.6-12.4h1.9l-0.5,2.5c0.6-1,1.3-1.7,1.9-2.1s1.2-0.7,1.9-0.7c0.4,0,0.9,0.2,1.6,0.5l-0.9,2
				c-0.4-0.3-0.8-0.4-1.2-0.4c-0.7,0-1.5,0.4-2.3,1.2s-1.4,2.3-1.8,4.5l-1.1,5H129.1z"/>
		</g>
		<g class="st0">
			<path class="st1" d="M138.6,15.6c0-2.4,0.7-4.4,2.1-6c1.2-1.3,2.7-2,4.6-2c1.5,0,2.7,0.5,3.6,1.4s1.4,2.2,1.4,3.8
				c0,1.4-0.3,2.8-0.9,4s-1.4,2.2-2.5,2.8s-2.2,1-3.4,1c-1,0-1.8-0.2-2.6-0.6s-1.4-1-1.8-1.8S138.6,16.6,138.6,15.6z M140.7,15.4
				c0,1.2,0.3,2.1,0.8,2.7s1.3,0.9,2.1,0.9c0.5,0,0.9-0.1,1.3-0.3s0.9-0.5,1.2-0.8s0.7-0.8,1-1.3s0.5-1,0.7-1.6
				c0.2-0.8,0.4-1.5,0.4-2.2c0-1.1-0.3-2-0.8-2.6s-1.3-0.9-2.1-0.9c-0.7,0-1.3,0.2-1.8,0.5s-1,0.8-1.5,1.4s-0.8,1.3-1,2.1
				S140.7,14.8,140.7,15.4z"/>
		</g>
		<g class="st0">
			<path class="st1" d="M151.7,20.3l2.6-12.4h1.9l-0.5,2.5c0.6-1,1.3-1.7,1.9-2.1s1.2-0.7,1.9-0.7c0.4,0,0.9,0.2,1.6,0.5l-0.9,2
				c-0.4-0.3-0.8-0.4-1.2-0.4c-0.7,0-1.5,0.4-2.3,1.2s-1.4,2.3-1.8,4.5l-1.1,5H151.7z"/>
		</g>
		<g class="st0">
			<path class="st1" d="M180,10.2h-11.3v-2H180V10.2z M180,15.5h-11.3v-2H180V15.5z"/>
		</g>
		<g class="st0">
			<path class="st1" d="M198.4,10c-0.6,0-1.3,0-3-0.1V10c1.4,0.9,2.2,2.6,2.2,4.4c0,4.3-2.9,6.1-5.6,6.1c-3.1,0-5.6-2.3-5.6-6
				c0-3.9,2.5-6.2,6-6.2h6.1L198.4,10z M195.4,14.4c0-2-1-4.4-3.4-4.4c-2.4,0-3.5,2.3-3.5,4.5c0,2.5,1.5,4.5,3.5,4.5
				C193.9,19,195.4,17,195.4,14.4z"/>
		</g>
		<g class="st0">
			<path class="st1" d="M210.2,3.6c-1.8,2.4-3,5.5-3,9.8c0,4.3,1.3,7.3,3,9.7h-1.7c-1.5-2-3.1-5.1-3.1-9.7c0-4.7,1.6-7.8,3.1-9.8
				H210.2z"/>
		</g>
		<g class="st0">
			<path class="st1" d="M218.7,20.3l1.4-7.5c0.3-1.5,0.5-3,0.6-4.1h1.8c-0.1,0.8-0.2,1.6-0.3,2.5h0.1c0.7-1.6,2-2.8,3.6-2.8
				c0.2,0,0.4,0,0.6,0l-0.4,2c-0.1,0-0.3,0-0.5,0c-1.7,0-3.3,2.1-3.8,4.8l-1,5.1H218.7z"/>
		</g>
		<g class="st0">
			<path class="st1" d="M236.2,19.6c-0.9,0.5-2.3,0.9-3.8,0.9c-3.1,0-4.4-2.1-4.4-4.7c0-3.5,2.6-7.5,6.3-7.5c2.2,0,3.4,1.3,3.4,3
				c0,3-3.4,3.9-7.7,3.8c-0.1,0.5,0,1.6,0.2,2.2c0.5,1,1.4,1.6,2.6,1.6c1.4,0,2.4-0.4,3.1-0.8L236.2,19.6z M234,10
				c-1.9,0-3.3,1.8-3.8,3.7c3.1,0,5.6-0.4,5.6-2.2C235.8,10.5,235.1,10,234,10z"/>
			<path class="st1" d="M243.9,5.5l-0.6,3.1h2.8l-0.3,1.6H243l-1.1,5.6c-0.1,0.6-0.2,1.2-0.2,1.9c0,0.7,0.3,1.1,1.1,1.1
				c0.3,0,0.7,0,0.9-0.1l-0.1,1.6c-0.4,0.1-1,0.2-1.5,0.2c-1.8,0-2.4-1.1-2.4-2.3c0-0.7,0.1-1.3,0.2-2.2l1.2-5.9h-1.7l0.3-1.6h1.7
				l0.5-2.6L243.9,5.5z"/>
		</g>
		<g class="st0">
			<path class="st1" d="M296.1,13v1.6h-5.9V13H296.1z"/>
		</g>
		<g class="st0">
			<path class="st1" d="M308.4,20.3l1.4-7.5c0.3-1.5,0.5-3,0.6-4.1h1.8c-0.1,0.8-0.2,1.6-0.3,2.5h0.1c0.7-1.6,2-2.8,3.6-2.8
				c0.2,0,0.4,0,0.6,0l-0.4,2c-0.1,0-0.3,0-0.5,0c-1.7,0-3.3,2.1-3.8,4.8l-1,5.1H308.4z"/>
		</g>
		<g class="st0">
			<path class="st1" d="M325.8,19.6c-0.9,0.5-2.3,0.9-3.8,0.9c-3.1,0-4.4-2.1-4.4-4.7c0-3.5,2.6-7.5,6.3-7.5c2.2,0,3.4,1.3,3.4,3
				c0,3-3.4,3.9-7.7,3.8c-0.1,0.5,0,1.6,0.2,2.2c0.5,1,1.4,1.6,2.6,1.6c1.4,0,2.4-0.4,3.1-0.8L325.8,19.6z M323.6,10
				c-1.9,0-3.3,1.8-3.8,3.7c3.1,0,5.6-0.4,5.6-2.2C325.4,10.5,324.7,10,323.6,10z"/>
			<path class="st1" d="M333.6,5.5L333,8.7h2.8l-0.3,1.6h-2.8l-1.1,5.6c-0.1,0.6-0.2,1.2-0.2,1.9c0,0.7,0.3,1.1,1.1,1.1
				c0.3,0,0.7,0,0.9-0.1l-0.1,1.6c-0.4,0.1-1,0.2-1.5,0.2c-1.8,0-2.4-1.1-2.4-2.3c0-0.7,0.1-1.3,0.2-2.2l1.2-5.9H329l0.3-1.6h1.7
				l0.5-2.6L333.6,5.5z"/>
		</g>
		<g class="st0">
			<path class="st1" d="M415.1,23.2c1.7-2.4,3-5.5,3-9.8c0-4.3-1.3-7.4-3-9.7h1.6c1.5,2,3.1,5,3.1,9.8c0,4.7-1.6,7.8-3.1,9.8H415.1z
				"/>
		</g>
		<g class="st0">
			<path class="st1" d="M251.2,31.3l1.4-6.7h-1.2l0.2-1h1.2l0.2-1.1c0.1-0.5,0.2-0.9,0.4-1.2c0.1-0.2,0.3-0.4,0.6-0.6
				c0.3-0.2,0.7-0.2,1.1-0.2c0.3,0,0.8,0.1,1.4,0.2l-0.2,1.1c-0.4-0.1-0.8-0.2-1.1-0.2c-0.3,0-0.4,0.1-0.6,0.2
				c-0.1,0.1-0.2,0.4-0.3,0.9l-0.2,0.8h1.5l-0.2,1h-1.5l-1.4,6.7H251.2z"/>
			<path class="st1" d="M260.4,29.9c-0.9,1-1.9,1.6-2.8,1.6c-0.6,0-1.1-0.2-1.4-0.5c-0.4-0.3-0.5-0.8-0.5-1.2c0-0.3,0.1-0.9,0.2-1.7
				l0.9-4.4h1.3l-1,4.9c-0.1,0.4-0.1,0.7-0.1,1c0,0.3,0.1,0.5,0.3,0.7c0.2,0.2,0.4,0.2,0.8,0.2c0.4,0,0.7-0.1,1.1-0.3
				c0.3-0.2,0.7-0.4,0.9-0.7c0.3-0.3,0.5-0.7,0.6-1.1c0.1-0.3,0.2-0.7,0.4-1.4l0.7-3.3h1.3l-1.6,7.7h-1.2L260.4,29.9z"/>
			<path class="st1" d="M263.4,31.3l1.6-7.7h1.2l-0.3,1.3c0.5-0.5,1-0.9,1.4-1.1c0.4-0.2,0.9-0.4,1.4-0.4c0.6,0,1.1,0.2,1.5,0.5
				c0.4,0.3,0.5,0.8,0.5,1.4c0,0.3-0.1,0.7-0.2,1.3l-1,4.6h-1.3l1-4.9c0.1-0.5,0.2-0.8,0.2-1c0-0.3-0.1-0.5-0.3-0.6
				c-0.2-0.2-0.4-0.2-0.8-0.2c-0.7,0-1.3,0.2-1.8,0.7c-0.5,0.5-0.9,1.3-1.2,2.5l-0.7,3.6H263.4z"/>
			<path class="st1" d="M276.8,30.2c-0.7,0.9-1.5,1.3-2.3,1.3c-0.7,0-1.3-0.3-1.8-0.8c-0.5-0.5-0.7-1.3-0.7-2.3
				c0-0.9,0.2-1.8,0.6-2.6c0.4-0.8,0.9-1.4,1.4-1.7c0.6-0.4,1.2-0.6,1.7-0.6c1,0,1.7,0.5,2.2,1.4l0.9-4.1h1.3l-2.2,10.6h-1.2
				L276.8,30.2z M273.2,28.1c0,0.5,0.1,1,0.2,1.3c0.1,0.3,0.3,0.6,0.5,0.8c0.3,0.2,0.6,0.3,0.9,0.3c0.6,0,1.1-0.3,1.6-0.9
				c0.6-0.8,1-1.8,1-3c0-0.6-0.2-1.1-0.5-1.4c-0.3-0.3-0.7-0.5-1.2-0.5c-0.3,0-0.6,0.1-0.9,0.2s-0.5,0.4-0.8,0.7s-0.5,0.8-0.6,1.3
				C273.3,27.3,273.2,27.7,273.2,28.1z"/>
			<path class="st1" d="M280.1,28.4c0-1.5,0.4-2.7,1.3-3.7c0.7-0.8,1.7-1.2,2.9-1.2c0.9,0,1.7,0.3,2.2,0.9s0.8,1.4,0.8,2.3
				c0,0.9-0.2,1.7-0.5,2.5s-0.9,1.3-1.5,1.7c-0.7,0.4-1.3,0.6-2.1,0.6c-0.6,0-1.1-0.1-1.6-0.4c-0.5-0.3-0.9-0.6-1.1-1.1
				C280.2,29.6,280.1,29,280.1,28.4z M281.4,28.3c0,0.7,0.2,1.3,0.5,1.6c0.3,0.4,0.8,0.6,1.3,0.6c0.3,0,0.6-0.1,0.8-0.2
				c0.3-0.1,0.5-0.3,0.8-0.5c0.2-0.2,0.4-0.5,0.6-0.8c0.2-0.3,0.3-0.6,0.4-1c0.1-0.5,0.2-0.9,0.2-1.4c0-0.7-0.2-1.2-0.5-1.6
				c-0.3-0.4-0.8-0.6-1.3-0.6c-0.4,0-0.8,0.1-1.1,0.3c-0.3,0.2-0.6,0.5-0.9,0.9s-0.5,0.8-0.6,1.3C281.4,27.5,281.4,27.9,281.4,28.3z
				"/>
		</g>
		<g class="st0">
			<path class="st1" d="M337.2,31.3l2.2-10.6h1.3l-0.8,3.8c0.4-0.4,0.8-0.6,1.1-0.8s0.7-0.2,1.1-0.2c0.7,0,1.3,0.3,1.8,0.8
				s0.7,1.3,0.7,2.3c0,0.7-0.1,1.3-0.3,1.9c-0.2,0.6-0.4,1-0.7,1.4c-0.3,0.4-0.6,0.7-0.9,0.9c-0.3,0.2-0.6,0.4-0.9,0.5
				c-0.3,0.1-0.6,0.2-0.9,0.2c-0.5,0-1-0.1-1.3-0.4c-0.4-0.3-0.7-0.7-0.9-1.2l-0.3,1.5H337.2z M339.2,28.2l0,0.2
				c0,0.7,0.2,1.2,0.5,1.5s0.7,0.5,1.2,0.5c0.5,0,0.9-0.2,1.3-0.5s0.7-0.8,0.9-1.5c0.2-0.7,0.4-1.3,0.4-1.9c0-0.6-0.2-1.1-0.5-1.5
				s-0.7-0.5-1.2-0.5c-0.5,0-0.9,0.2-1.3,0.5c-0.4,0.4-0.7,0.9-1,1.7C339.3,27.3,339.2,27.8,339.2,28.2z"/>
			<path class="st1" d="M351.1,28.7l1.3,0.1c-0.2,0.6-0.6,1.2-1.3,1.8c-0.7,0.6-1.4,0.9-2.4,0.9c-0.6,0-1.1-0.1-1.6-0.4
				s-0.8-0.6-1.1-1.1c-0.2-0.5-0.4-1.1-0.4-1.7c0-0.8,0.2-1.7,0.6-2.4c0.4-0.8,0.9-1.4,1.5-1.8c0.6-0.4,1.3-0.6,2-0.6
				c0.9,0,1.6,0.3,2.2,0.9s0.8,1.3,0.8,2.3c0,0.4,0,0.8-0.1,1.2h-5.7c0,0.1,0,0.3,0,0.4c0,0.7,0.2,1.3,0.5,1.6
				c0.3,0.4,0.7,0.6,1.2,0.6c0.4,0,0.9-0.1,1.3-0.4S350.9,29.3,351.1,28.7z M347.3,26.8h4.3c0-0.1,0-0.2,0-0.3
				c0-0.7-0.2-1.2-0.5-1.5c-0.3-0.3-0.8-0.5-1.3-0.5c-0.6,0-1.1,0.2-1.5,0.6C347.9,25.5,347.5,26,347.3,26.8z"/>
			<path class="st1" d="M353.7,31.3l1.6-7.7h1.2l-0.3,1.3c0.5-0.5,1-0.9,1.4-1.1c0.4-0.2,0.9-0.4,1.4-0.4c0.6,0,1.1,0.2,1.5,0.5
				c0.4,0.3,0.5,0.8,0.5,1.4c0,0.3-0.1,0.7-0.2,1.3l-1,4.6h-1.3l1-4.9c0.1-0.5,0.2-0.8,0.2-1c0-0.3-0.1-0.5-0.3-0.6
				c-0.2-0.2-0.4-0.2-0.8-0.2c-0.7,0-1.3,0.2-1.8,0.7c-0.5,0.5-0.9,1.3-1.2,2.5l-0.7,3.6H353.7z"/>
			<path class="st1" d="M367.2,28.5l1.3,0.1c-0.3,1-0.8,1.7-1.4,2.1c-0.6,0.5-1.3,0.7-2.1,0.7c-0.8,0-1.5-0.3-2-0.8
				c-0.5-0.5-0.8-1.3-0.8-2.3c0-0.8,0.2-1.7,0.5-2.5c0.3-0.8,0.8-1.4,1.4-1.8s1.3-0.6,2.1-0.6c0.8,0,1.5,0.2,2,0.7
				c0.5,0.5,0.7,1.1,0.7,1.8l-1.3,0.1c0-0.5-0.1-0.9-0.4-1.1s-0.6-0.4-1.1-0.4c-0.5,0-1,0.2-1.4,0.5c-0.4,0.3-0.7,0.8-0.9,1.5
				s-0.3,1.3-0.3,2c0,0.7,0.1,1.1,0.4,1.5c0.3,0.3,0.6,0.5,1.1,0.5s0.8-0.2,1.2-0.5C366.7,29.7,367,29.2,367.2,28.5z"/>
			<path class="st1" d="M369.3,31.3l2.2-10.6h1.3l-0.8,4.1c0.5-0.5,0.9-0.8,1.4-1c0.4-0.2,0.8-0.3,1.3-0.3c0.6,0,1.1,0.2,1.5,0.5
				s0.5,0.8,0.5,1.3c0,0.3-0.1,0.8-0.2,1.5l-0.9,4.5h-1.3l1-4.6c0.1-0.7,0.2-1.1,0.2-1.3c0-0.3-0.1-0.5-0.3-0.6
				c-0.2-0.2-0.4-0.2-0.8-0.2c-0.5,0-0.9,0.1-1.4,0.4s-0.8,0.6-1,1c-0.2,0.4-0.5,1.1-0.7,2.1l-0.7,3.3H369.3z"/>
			<path class="st1" d="M377.6,31.3l1.6-7.7h1.3l-0.3,1.3c0.5-0.5,0.9-0.9,1.3-1.1s0.8-0.3,1.2-0.3c0.5,0,0.9,0.1,1.2,0.4
				s0.5,0.6,0.6,1.1c0.4-0.5,0.8-0.8,1.2-1.1s0.9-0.4,1.4-0.4c0.6,0,1.1,0.2,1.4,0.5s0.5,0.7,0.5,1.3c0,0.2-0.1,0.6-0.2,1.2l-1,4.9
				h-1.3l1.1-5.1c0.1-0.4,0.1-0.7,0.1-0.9c0-0.3-0.1-0.4-0.2-0.6c-0.2-0.1-0.4-0.2-0.7-0.2c-0.4,0-0.8,0.1-1.2,0.4
				c-0.4,0.2-0.7,0.5-0.9,0.9c-0.2,0.4-0.4,1-0.6,1.8l-0.8,3.7h-1.3l1.1-5.2c0.1-0.4,0.1-0.6,0.1-0.8c0-0.3-0.1-0.5-0.2-0.6
				s-0.4-0.2-0.6-0.2c-0.4,0-0.8,0.1-1.2,0.4c-0.4,0.2-0.7,0.6-1,1s-0.5,1-0.6,1.8l-0.8,3.6H377.6z"/>
			<path class="st1" d="M395.1,30.4c-0.5,0.4-0.9,0.7-1.3,0.9c-0.4,0.2-0.9,0.3-1.3,0.3c-0.7,0-1.3-0.2-1.7-0.6
				c-0.4-0.4-0.7-1-0.7-1.6c0-0.4,0.1-0.8,0.3-1.1s0.5-0.6,0.8-0.8c0.3-0.2,0.7-0.3,1.2-0.4c0.3-0.1,0.9-0.1,1.7-0.1
				c0.8,0,1.4-0.1,1.8-0.3c0.1-0.4,0.2-0.7,0.2-0.9c0-0.3-0.1-0.5-0.3-0.7c-0.3-0.2-0.7-0.4-1.3-0.4c-0.5,0-1,0.1-1.3,0.4
				c-0.3,0.2-0.6,0.6-0.8,1l-1.3-0.1c0.3-0.8,0.7-1.3,1.3-1.7c0.6-0.4,1.3-0.6,2.2-0.6c0.9,0,1.7,0.2,2.3,0.7
				c0.4,0.3,0.6,0.8,0.6,1.3c0,0.4-0.1,0.9-0.2,1.4l-0.4,1.9c-0.1,0.6-0.2,1.1-0.2,1.5c0,0.2,0.1,0.6,0.2,1h-1.3
				C395.1,31.1,395.1,30.8,395.1,30.4z M395.6,27.4c-0.2,0.1-0.4,0.1-0.6,0.2c-0.2,0-0.6,0.1-1.1,0.1c-0.8,0.1-1.3,0.2-1.6,0.3
				c-0.3,0.1-0.5,0.3-0.7,0.5c-0.2,0.2-0.2,0.5-0.2,0.8c0,0.4,0.1,0.7,0.4,0.9s0.6,0.4,1.1,0.4c0.4,0,0.8-0.1,1.3-0.3
				c0.4-0.2,0.7-0.5,0.9-1C395.2,28.8,395.4,28.2,395.6,27.4z"/>
			<path class="st1" d="M398.1,31.3l1.6-7.7h1.2l-0.3,1.6c0.4-0.6,0.8-1,1.2-1.3c0.4-0.3,0.8-0.4,1.2-0.4c0.3,0,0.6,0.1,1,0.3
				l-0.5,1.2c-0.2-0.2-0.5-0.2-0.7-0.2c-0.5,0-0.9,0.3-1.4,0.8s-0.9,1.4-1.1,2.8l-0.7,3.1H398.1z"/>
			<path class="st1" d="M403.1,31.3l2.2-10.6h1.3l-1.4,6.6l3.8-3.6h1.7l-3.3,2.9l2,4.8H408l-1.5-3.9l-1.6,1.4l-0.5,2.6H403.1z"/>
		</g>
	</g>
</g>
</svg>
