<?xml version="1.0" encoding="utf-8"?>
<!-- Generator: Adobe Illustrator 23.0.3, SVG Export Plug-In . SVG Version: 6.00 Build 0)  -->
<svg version="1.1" id="Layer_1" xmlns="http://www.w3.org/2000/svg" xmlns:xlink="http://www.w3.org/1999/xlink" x="0px" y="0px"
	 viewBox="0 0 631.6 218.8" style="enable-background:new 0 0 631.6 218.8;" xml:space="preserve">
<style type="text/css">
	.st0{fill:#006633;}
	.st1{enable-background:new    ;}
</style>
<g>
	<g id="Layer_1-2">
		<g id="graficosA_0_Layer1_0_1_STROKES">
			
				<rect x="86.5" y="99.5" transform="matrix(0.9331 -0.3595 0.3595 0.9331 -25.7649 64.3585)" class="st0" width="147.3" height="4"/>
		</g>
		<g id="graficosA_0_Layer1_1_1_STROKES">
			<g>
				<polygon class="st0" points="232.8,181.3 88.2,181.3 88.2,71.5 92.2,71.5 92.2,177.3 232.8,177.3 				"/>
			</g>
			<g>
				<polygon class="st0" points="229.3,174.3 238,179.3 229.3,184.3 				"/>
			</g>
			<g>
				<polygon class="st0" points="95.2,74.9 90.2,66.3 85.2,74.9 				"/>
			</g>
		</g>
		<g id="graficosA_0_Layer1_0_1_STROKES-2">
			
				<rect x="86.5" y="138.5" transform="matrix(0.9331 -0.3595 0.3595 0.9331 -39.7859 66.966)" class="st0" width="147.3" height="4"/>
		</g>
		<g>
			<rect x="219.4" y="87.8" class="st0" width="4" height="17.6"/>
		</g>
		<g>
			<polygon class="st0" points="216.4,91.3 221.4,82.7 226.4,91.3 			"/>
		</g>
		<g>
			<polygon class="st0" points="216.4,102 221.4,110.6 226.4,102 			"/>
		</g>
		<g>
			<path class="st0" d="M617,152.2H298.5c-8,0-14.5-6.5-14.5-14.5V46.6h333c8,0,14.5,6.5,14.5,14.5v76.6
				C631.5,145.7,625,152.2,617,152.2z M288,50.6v87.1c0,5.8,4.7,10.5,10.5,10.5H617c5.8,0,10.5-4.7,10.5-10.5V61.1
				c0-5.8-4.7-10.5-10.5-10.5H288z"/>
		</g>
		<g>
			<path class="st0" d="M569.9,38.5H273c-8,0-14.5-6.5-14.5-14.5V0h311.4c8,0,14.5,6.5,14.5,14.5V24C584.4,32,577.9,38.5,569.9,38.5
				z M262.5,4v20c0,5.8,4.7,10.5,10.5,10.5h296.9c5.8,0,10.5-4.7,10.5-10.5v-9.5c0-5.8-4.7-10.5-10.5-10.5H262.5z"/>
		</g>
		<g>
			
				<rect x="208.4" y="67.7" transform="matrix(0.7155 -0.6986 0.6986 0.7155 12.0361 168.9543)" class="st0" width="10" height="4"/>
		</g>
		<g>
			<path class="st0" d="M222.9,63.2l-2.8-2.9l10.2-10l2.8,2.9L222.9,63.2z M237.7,48.7l-2.8-2.9l10.2-10l2.8,2.9L237.7,48.7z"/>
		</g>
		<g>
			
				<rect x="249.6" y="27.2" transform="matrix(0.7071 -0.7071 0.7071 0.7071 53.9024 188.6318)" class="st0" width="10.1" height="4"/>
		</g>
		<g>
			<polygon class="st0" points="217.3,75.2 204.5,78.4 208,65.8 			"/>
		</g>
		<g>
			
				<rect x="239.8" y="91.3" transform="matrix(0.9886 -0.1509 0.1509 0.9886 -11.2678 37.9962)" class="st0" width="10" height="4"/>
		</g>
		<g>
			
				<rect x="255.7" y="88.6" transform="matrix(0.9896 -0.1442 0.1442 0.9896 -10.3106 38.8337)" class="st0" width="14.2" height="4"/>
		</g>
		<g>
			
				<rect x="275.9" y="85.9" transform="matrix(0.9886 -0.1507 0.1507 0.9886 -10.0487 43.3419)" class="st0" width="10" height="4"/>
		</g>
		<g>
			<polygon class="st0" points="244.7,99.9 232.4,95.1 242.8,86.9 			"/>
		</g>
		<g>
			<path class="st0" d="M610.4,198.2H287c-8,0-14.5-6.5-14.5-14.5v-24h337.9c8,0,14.5,6.5,14.5,14.5v9.5
				C624.9,191.7,618.4,198.2,610.4,198.2z M276.5,163.7v20c0,5.8,4.7,10.5,10.5,10.5h323.4c5.8,0,10.5-4.7,10.5-10.5v-9.5
				c0-5.8-4.7-10.5-10.5-10.5H276.5z"/>
		</g>
		<g>
			
				<rect x="209.8" y="133.6" transform="matrix(0.3012 -0.9536 0.9536 0.3012 15.8148 298.7796)" class="st0" width="4" height="10"/>
		</g>
		<g>
			<path class="st0" d="M255.1,154.7l-13.6-4.4l1.2-3.8l13.6,4.4L255.1,154.7z M235.5,148.4l-13.6-4.4l1.2-3.8l13.6,4.4L235.5,148.4
				z"/>
		</g>
		<g>
			
				<rect x="264.4" y="151.3" transform="matrix(0.3012 -0.9536 0.9536 0.3012 37.1601 363.3064)" class="st0" width="4" height="10"/>
		</g>
		<g>
			<polygon class="st0" points="208.7,144.5 199.9,134.8 212.8,132 			"/>
		</g>
		<g class="st1">
			<path class="st0" d="M285.6,23.9h-1.9l-1.2-4.3c-0.4-1-0.9-1.4-1.8-1.4c-1.3,0-2.3,0-3,0v5.8h-1.7V10.1c1.5-0.2,2.5-0.2,4.8-0.2
				c3.2,0,4.5,0.9,4.5,4c0,2.2-0.7,3.3-2.5,3.6v0.1c0.7,0.2,1.4,0.8,1.7,2L285.6,23.9z M283.3,14c0-2-0.7-2.6-2.7-2.6
				c-1.2,0-2.2,0-3,0v5.2h3C282.6,16.6,283.3,16,283.3,14z"/>
		</g>
		<g class="st1">
			<path class="st0" d="M295.7,22.5l0.2,1.1c-0.9,0.4-2.7,0.5-3.8,0.5c-3.4,0-4.7-1.4-4.7-5.1c0-3.8,1.3-5.1,4.5-5.1
				c2.9,0,4.2,1.1,4.2,3.2c0,1.7-0.7,2.8-2.3,2.8h-4.5c0.2,2.3,1.1,2.8,3.1,2.8C293.4,22.7,294.7,22.6,295.7,22.5z M289.3,18.5h4.1
				c0.9,0,1.1-0.7,1.1-1.4c0-1.2-0.7-1.7-2.4-1.7C290,15.4,289.3,16.1,289.3,18.5z"/>
			<path class="st0" d="M313.2,16.6v7.3h-1.7v-6.8c0-1.2-0.4-1.7-1.5-1.7c-1,0-1.7,0.4-3.2,1.5v7h-1.6v-6.8c0-1.3-0.5-1.7-1.5-1.7
				c-1,0-1.7,0.4-3.2,1.5v7h-1.7v-9.7h1.4l0.1,1.5c1.4-1.2,2.6-1.8,4-1.8c1.3,0,2.2,0.6,2.5,1.7c1.3-1.2,2.6-1.7,3.9-1.7
				C312.2,13.9,313.2,14.8,313.2,16.6z"/>
			<path class="st0" d="M324.5,14.2v9.7h-1.4l-0.1-1.4c-1.5,1.1-2.8,1.7-4.2,1.7c-1.8,0-2.7-0.9-2.7-2.7v-7.3h1.7V21
				c0,1.2,0.4,1.7,1.5,1.7c1,0,2-0.5,3.4-1.4v-7.1H324.5z"/>
			<path class="st0" d="M336.2,16.6v7.3h-1.7v-6.8c0-1.3-0.4-1.7-1.4-1.7c-1.2,0-2.2,0.6-3.8,1.5v7h-1.7v-9.7h1.4l0.1,1.5
				c1.5-1.1,2.9-1.8,4.4-1.8C335.3,13.9,336.2,14.8,336.2,16.6z"/>
			<path class="st0" d="M347,22.5l0.2,1.1c-0.9,0.4-2.7,0.5-3.8,0.5c-3.4,0-4.7-1.4-4.7-5.1c0-3.8,1.3-5.1,4.5-5.1
				c2.9,0,4.2,1.1,4.2,3.2c0,1.7-0.7,2.8-2.3,2.8h-4.5c0.2,2.3,1.1,2.8,3.1,2.8C344.7,22.7,346,22.6,347,22.5z M340.5,18.5h4.1
				c0.9,0,1.1-0.7,1.1-1.4c0-1.2-0.7-1.7-2.4-1.7C341.3,15.4,340.6,16.1,340.5,18.5z"/>
			<path class="st0" d="M356.1,13.9l-0.2,1.6h-0.6c-1.1,0-2.1,0.5-3.6,1.2v7.1H350v-9.7h1.3l0.2,1.5c1.4-1.1,2.8-1.8,4.2-1.8H356.1z
				"/>
			<path class="st0" d="M365.9,17v6.9h-1.3l-0.2-1.6c-0.8,0.8-2.2,1.8-4,1.8c-1.7,0-2.9-1-2.9-2.7v-1.1c0-1.5,1-2.4,2.7-2.4h4.1V17
				c0-1.2-0.4-1.7-2-1.7c-1,0-2.7,0.1-4.2,0.3l-0.2-1.3c1.3-0.2,3.2-0.4,4.7-0.4C364.8,13.9,365.9,14.7,365.9,17z M364.2,21.2v-2
				l-3.8,0c-0.9,0-1.3,0.5-1.3,1.3v0.6c0,1,0.5,1.5,1.5,1.5C361.7,22.6,363.1,22.2,364.2,21.2z"/>
			<path class="st0" d="M376.3,14.4l-0.2,1.1c-0.9-0.1-2-0.1-2.6-0.1c-2.3,0-3.1,0.8-3.1,3.7c0,2.9,0.8,3.7,3.1,3.7
				c0.6,0,1.9,0,2.9-0.2l0.2,1.1c-1,0.3-2.2,0.5-3.3,0.5c-3.4,0-4.6-1.4-4.6-5.1s1.3-5.1,4.6-5.1C374,13.9,375.3,14,376.3,14.4z
				 M374.3,26.3c0,1.7-1.4,2.7-3.3,2.4l0.3-0.9c1.1,0,1.8-0.6,1.9-1.4c0-0.5-0.2-0.6-1.2-0.6l0.2-0.8
				C373.7,24.9,374.4,25.1,374.3,26.3z"/>
			<path class="st0" d="M386.7,17v6.9h-1.3l-0.2-1.6c-0.8,0.8-2.2,1.8-4,1.8c-1.7,0-2.9-1-2.9-2.7v-1.1c0-1.5,1-2.4,2.7-2.4h4.1V17
				c0-1.2-0.4-1.7-2-1.7c-1,0-2.7,0.1-4.2,0.3l-0.2-1.3c1.3-0.2,3.2-0.4,4.7-0.4C385.5,13.9,386.7,14.7,386.7,17z M379.5,12.2
				c-0.2-1.6,0.6-2.4,1.6-2.3c1.2,0.1,1.9,1,3,1.1c0.8,0.1,1-0.2,1-1h0.8c0.2,1.5-0.5,2.3-1.6,2.2c-1.4-0.1-2-1-3-1.1
				c-0.7-0.1-0.9,0.3-0.9,1.1H379.5z M385,21.2v-2l-3.8,0c-0.9,0-1.3,0.5-1.3,1.3v0.6c0,1,0.5,1.5,1.5,1.5
				C382.4,22.6,383.8,22.2,385,21.2z"/>
			<path class="st0" d="M398.4,19c0,3.7-1.2,5.1-4.6,5.1c-3.3,0-4.6-1.4-4.6-5.1c0-3.7,1.2-5.1,4.6-5.1
				C397.2,13.9,398.4,15.3,398.4,19z M391.1,19c0,2.8,0.7,3.7,2.8,3.7c2.1,0,2.8-0.8,2.8-3.7c0-2.8-0.7-3.7-2.8-3.7
				C391.7,15.4,391.1,16.2,391.1,19z"/>
			<path class="st0" d="M413.9,9.9v14h-1.3l-0.2-1.4c-1.1,0.9-2.4,1.6-3.9,1.6c-2.5,0-3.4-1.7-3.4-5.1c0-3.8,1.2-5.1,3.7-5.1
				c1.2,0,2.4,0.3,3.5,0.9c-0.1-0.6-0.1-1.2-0.1-1.9v-3H413.9z M409.1,22.7c1.1,0,1.8-0.4,3.1-1.3v-5.4c-1.1-0.3-2-0.5-3-0.5
				c-1.7,0-2.3,0.7-2.3,3.6S407.5,22.7,409.1,22.7z"/>
			<path class="st0" d="M425.7,19c0,3.7-1.2,5.1-4.6,5.1c-3.3,0-4.6-1.4-4.6-5.1c0-3.7,1.2-5.1,4.6-5.1
				C424.5,13.9,425.7,15.3,425.7,19z M418.3,19c0,2.8,0.7,3.7,2.8,3.7c2.1,0,2.8-0.8,2.8-3.7c0-2.8-0.7-3.7-2.8-3.7
				C419,15.4,418.3,16.2,418.3,19z"/>
			<path class="st0" d="M440.8,17v6.9h-1.3l-0.2-1.6c-0.8,0.8-2.2,1.8-4,1.8c-1.7,0-2.9-1-2.9-2.7v-1.1c0-1.5,1-2.4,2.7-2.4h4.1V17
				c0-1.2-0.4-1.7-2-1.7c-1,0-2.7,0.1-4.2,0.3l-0.2-1.3c1.3-0.2,3.2-0.4,4.7-0.4C439.6,13.9,440.8,14.7,440.8,17z M439.1,21.2v-2
				l-3.8,0c-0.9,0-1.3,0.5-1.3,1.3v0.6c0,1,0.5,1.5,1.5,1.5C436.5,22.6,437.9,22.2,439.1,21.2z"/>
			<path class="st0" d="M446.3,15.5v5.7c0,0.9,0.4,1.3,1.3,1.3h1.5l0.2,1.3c-0.6,0.2-1.7,0.3-2.2,0.3c-1.6,0-2.5-0.9-2.5-2.6v-5.9
				h-1.8v-1.2l1.8-0.1v-2.9h1.7v2.9h3.1v1.3H446.3z"/>
			<path class="st0" d="M453.3,10.5v1.1c0,0.4-0.2,0.5-0.5,0.5H452c-0.3,0-0.5-0.2-0.5-0.5v-1.1c0-0.3,0.2-0.5,0.5-0.5h0.8
				C453.1,10,453.3,10.2,453.3,10.5z M453.2,23.9h-1.7v-9.7h1.7V23.9z"/>
		</g>
		<g class="st1">
			<path class="st0" d="M461.5,23.5c-0.1,0.3-0.3,0.4-0.6,0.4h-1.5c-0.3,0-0.5-0.2-0.6-0.4l-3.6-9.3h1.8l2.4,6.8
				c0.2,0.6,0.4,1.2,0.6,1.7h0.3l0.6-1.7l2.4-6.8h1.8L461.5,23.5z"/>
		</g>
		<g class="st1">
			<path class="st0" d="M475.6,19c0,3.7-1.2,5.1-4.6,5.1c-3.3,0-4.6-1.4-4.6-5.1c0-3.7,1.2-5.1,4.6-5.1
				C474.3,13.9,475.6,15.3,475.6,19z M468.2,19c0,2.8,0.7,3.7,2.8,3.7c2.1,0,2.8-0.8,2.8-3.7c0-2.8-0.7-3.7-2.8-3.7
				C468.9,15.4,468.2,16.2,468.2,19z"/>
		</g>
		<g class="st1">
			<path class="st0" d="M490,14.4l-0.2,1.1c-0.9-0.1-2-0.1-2.6-0.1c-2.3,0-3.1,0.8-3.1,3.7c0,2.9,0.8,3.7,3.1,3.7
				c0.6,0,1.9,0,2.9-0.2l0.2,1.1c-1,0.3-2.2,0.5-3.3,0.5c-3.4,0-4.6-1.4-4.6-5.1s1.3-5.1,4.6-5.1C487.7,13.9,489,14,490,14.4z"/>
		</g>
		<g class="st1">
			<path class="st0" d="M501,19c0,3.7-1.2,5.1-4.6,5.1c-3.3,0-4.6-1.4-4.6-5.1c0-3.7,1.2-5.1,4.6-5.1C499.7,13.9,501,15.3,501,19z
				 M493.6,19c0,2.8,0.7,3.7,2.8,3.7c2.1,0,2.8-0.8,2.8-3.7c0-2.8-0.7-3.7-2.8-3.7C494.3,15.4,493.6,16.2,493.6,19z"/>
			<path class="st0" d="M518.1,16.6v7.3h-1.7v-6.8c0-1.2-0.4-1.7-1.5-1.7c-1,0-1.7,0.4-3.2,1.5v7H510v-6.8c0-1.3-0.5-1.7-1.5-1.7
				c-1,0-1.7,0.4-3.2,1.5v7h-1.7v-9.7h1.4l0.1,1.5c1.4-1.2,2.6-1.8,4-1.8c1.3,0,2.2,0.6,2.5,1.7c1.3-1.2,2.6-1.7,3.9-1.7
				C517.2,13.9,518.1,14.8,518.1,16.6z"/>
			<path class="st0" d="M531.7,13.9l-0.2,1.6h-0.6c-1.1,0-2.1,0.5-3.6,1.2v7.1h-1.7v-9.7h1.3l0.2,1.5c1.4-1.1,2.8-1.8,4.2-1.8H531.7
				z"/>
			<path class="st0" d="M535.5,10.5v1.1c0,0.4-0.2,0.5-0.5,0.5h-0.8c-0.3,0-0.5-0.2-0.5-0.5v-1.1c0-0.3,0.2-0.5,0.5-0.5h0.8
				C535.3,10,535.5,10.2,535.5,10.5z M535.4,23.9h-1.7v-9.7h1.7V23.9z"/>
			<path class="st0" d="M545.9,14.2l-0.1,1.2c-1.2,0-2.5-0.1-3.7-0.1c-1.8,0-2.4,0-2.4,1.2c0,1,0.5,1.2,1.4,1.4l2.8,0.6
				c1.5,0.4,2.3,1,2.3,2.7c0,2.4-1.3,2.8-4.2,2.8c-0.7,0-2.2,0-3.8-0.3l0.1-1.2c1,0.1,2.1,0.1,3.4,0.1c2.2,0,2.9-0.2,2.9-1.4
				c0-1-0.6-1.1-1.5-1.4l-2.8-0.6c-1.6-0.4-2.2-1.1-2.2-2.7c0-2.3,1.1-2.7,3.8-2.7C543.1,13.9,544.7,14,545.9,14.2z"/>
		</g>
		<g class="st1">
			<path class="st0" d="M556.1,14.4l-0.2,1.1c-0.9-0.1-2-0.1-2.6-0.1c-2.3,0-3.1,0.8-3.1,3.7c0,2.9,0.8,3.7,3.1,3.7
				c0.6,0,1.9,0,2.9-0.2l0.2,1.1c-1,0.3-2.2,0.5-3.3,0.5c-3.4,0-4.6-1.4-4.6-5.1s1.3-5.1,4.6-5.1C553.8,13.9,555.1,14,556.1,14.4z"
				/>
		</g>
		<g class="st1">
			<path class="st0" d="M567.1,19c0,3.7-1.2,5.1-4.6,5.1c-3.3,0-4.6-1.4-4.6-5.1c0-3.7,1.2-5.1,4.6-5.1
				C565.8,13.9,567.1,15.3,567.1,19z M559.7,19c0,2.8,0.7,3.7,2.8,3.7c2.1,0,2.8-0.8,2.8-3.7c0-2.8-0.7-3.7-2.8-3.7
				C560.4,15.4,559.7,16.2,559.7,19z"/>
		</g>
		<g class="st1">
			<path class="st0" d="M299.8,184.4h-1.9l-1.2-4.3c-0.4-1-0.9-1.4-1.8-1.4c-1.3,0-2.3,0-3,0v5.8H290v-13.8c1.5-0.2,2.5-0.2,4.8-0.2
				c3.2,0,4.5,0.9,4.5,4c0,2.2-0.7,3.3-2.5,3.6v0.1c0.7,0.2,1.4,0.8,1.7,2L299.8,184.4z M297.5,174.5c0-2-0.7-2.6-2.7-2.6
				c-1.2,0-2.2,0-3,0v5.2h3C296.8,177.1,297.5,176.5,297.5,174.5z"/>
		</g>
		<g class="st1">
			<path class="st0" d="M309.9,183l0.2,1.1c-0.9,0.4-2.7,0.5-3.8,0.5c-3.4,0-4.7-1.4-4.7-5.1c0-3.8,1.3-5.1,4.5-5.1
				c2.9,0,4.2,1.1,4.2,3.2c0,1.7-0.7,2.8-2.3,2.8h-4.5c0.2,2.3,1.1,2.8,3.1,2.8C307.6,183.2,308.9,183.1,309.9,183z M303.5,179h4.1
				c0.9,0,1.1-0.7,1.1-1.4c0-1.2-0.7-1.7-2.4-1.7C304.2,175.9,303.5,176.6,303.5,179z"/>
			<path class="st0" d="M327.4,177.1v7.3h-1.7v-6.8c0-1.2-0.4-1.7-1.5-1.7c-1,0-1.7,0.4-3.2,1.5v7h-1.6v-6.8c0-1.3-0.5-1.7-1.5-1.7
				c-1,0-1.7,0.4-3.2,1.5v7h-1.7v-9.7h1.4l0.1,1.5c1.4-1.2,2.6-1.8,4-1.8c1.3,0,2.2,0.6,2.5,1.7c1.3-1.2,2.6-1.7,3.9-1.7
				C326.4,174.4,327.4,175.3,327.4,177.1z"/>
			<path class="st0" d="M338.7,174.7v9.7h-1.4l-0.1-1.4c-1.5,1.1-2.8,1.7-4.2,1.7c-1.8,0-2.7-0.9-2.7-2.7v-7.3h1.7v6.8
				c0,1.2,0.4,1.7,1.5,1.7c1,0,2-0.5,3.4-1.4v-7.1H338.7z"/>
			<path class="st0" d="M350.4,177.1v7.3h-1.7v-6.8c0-1.3-0.4-1.7-1.4-1.7c-1.2,0-2.2,0.6-3.8,1.5v7h-1.7v-9.7h1.4l0.1,1.5
				c1.5-1.1,2.9-1.8,4.4-1.8C349.5,174.4,350.4,175.3,350.4,177.1z"/>
			<path class="st0" d="M361.2,183l0.2,1.1c-0.9,0.4-2.7,0.5-3.8,0.5c-3.4,0-4.7-1.4-4.7-5.1c0-3.8,1.3-5.1,4.5-5.1
				c2.9,0,4.2,1.1,4.2,3.2c0,1.7-0.7,2.8-2.3,2.8h-4.5c0.2,2.3,1.1,2.8,3.1,2.8C358.9,183.2,360.2,183.1,361.2,183z M354.7,179h4.1
				c0.9,0,1.1-0.7,1.1-1.4c0-1.2-0.7-1.7-2.4-1.7C355.5,175.9,354.8,176.6,354.7,179z"/>
			<path class="st0" d="M370.3,174.4l-0.2,1.6h-0.6c-1.1,0-2.1,0.5-3.6,1.2v7.1h-1.7v-9.7h1.3l0.2,1.5c1.4-1.1,2.8-1.8,4.2-1.8
				H370.3z"/>
			<path class="st0" d="M380.1,177.5v6.9h-1.3l-0.2-1.6c-0.8,0.8-2.2,1.8-4,1.8c-1.7,0-2.9-1-2.9-2.7v-1.1c0-1.5,1-2.4,2.7-2.4h4.1
				v-0.9c0-1.2-0.4-1.7-2-1.7c-1,0-2.7,0.1-4.2,0.3l-0.2-1.3c1.3-0.2,3.2-0.4,4.7-0.4C379,174.4,380.1,175.2,380.1,177.5z
				 M378.4,181.7v-2l-3.8,0c-0.9,0-1.3,0.5-1.3,1.3v0.6c0,1,0.5,1.5,1.5,1.5C375.9,183.1,377.3,182.7,378.4,181.7z"/>
			<path class="st0" d="M390.5,174.9l-0.2,1.1c-0.9-0.1-2-0.1-2.6-0.1c-2.3,0-3.1,0.8-3.1,3.7c0,2.9,0.8,3.7,3.1,3.7
				c0.6,0,1.9,0,2.9-0.2l0.2,1.1c-1,0.3-2.2,0.5-3.3,0.5c-3.4,0-4.6-1.4-4.6-5.1s1.3-5.1,4.6-5.1
				C388.2,174.4,389.5,174.5,390.5,174.9z M388.5,186.8c0,1.7-1.4,2.7-3.3,2.4l0.3-0.9c1.1,0,1.8-0.6,1.9-1.4c0-0.5-0.2-0.6-1.2-0.6
				l0.2-0.8C387.9,185.4,388.6,185.6,388.5,186.8z"/>
			<path class="st0" d="M400.9,177.5v6.9h-1.3l-0.2-1.6c-0.8,0.8-2.2,1.8-4,1.8c-1.7,0-2.9-1-2.9-2.7v-1.1c0-1.5,1-2.4,2.7-2.4h4.1
				v-0.9c0-1.2-0.4-1.7-2-1.7c-1,0-2.7,0.1-4.2,0.3l-0.2-1.3c1.3-0.2,3.2-0.4,4.7-0.4C399.7,174.4,400.9,175.2,400.9,177.5z
				 M393.7,172.7c-0.2-1.6,0.6-2.4,1.6-2.3c1.2,0.1,1.9,1,3,1.1c0.8,0.1,1-0.2,1-1h0.8c0.2,1.5-0.5,2.3-1.6,2.2c-1.4-0.1-2-1-3-1.1
				c-0.7-0.1-0.9,0.3-0.9,1.1H393.7z M399.2,181.7v-2l-3.8,0c-0.9,0-1.3,0.5-1.3,1.3v0.6c0,1,0.5,1.5,1.5,1.5
				C396.6,183.1,398,182.7,399.2,181.7z"/>
			<path class="st0" d="M412.6,179.5c0,3.7-1.2,5.1-4.6,5.1c-3.3,0-4.6-1.4-4.6-5.1c0-3.7,1.2-5.1,4.6-5.1
				C411.4,174.4,412.6,175.8,412.6,179.5z M405.3,179.5c0,2.8,0.7,3.7,2.8,3.7c2.1,0,2.8-0.8,2.8-3.7c0-2.8-0.7-3.7-2.8-3.7
				C405.9,175.9,405.3,176.7,405.3,179.5z"/>
			<path class="st0" d="M428.1,170.4v14h-1.3l-0.2-1.4c-1.1,0.9-2.4,1.6-3.9,1.6c-2.5,0-3.4-1.7-3.4-5.1c0-3.8,1.2-5.1,3.7-5.1
				c1.2,0,2.4,0.3,3.5,0.9c-0.1-0.6-0.1-1.2-0.1-1.9v-3H428.1z M423.3,183.2c1.1,0,1.8-0.4,3.1-1.3v-5.4c-1.1-0.3-2-0.5-3-0.5
				c-1.7,0-2.3,0.7-2.3,3.6S421.7,183.2,423.3,183.2z"/>
			<path class="st0" d="M439.9,179.5c0,3.7-1.2,5.1-4.6,5.1c-3.3,0-4.6-1.4-4.6-5.1c0-3.7,1.2-5.1,4.6-5.1
				C438.7,174.4,439.9,175.8,439.9,179.5z M432.5,179.5c0,2.8,0.7,3.7,2.8,3.7c2.1,0,2.8-0.8,2.8-3.7c0-2.8-0.7-3.7-2.8-3.7
				C433.2,175.9,432.5,176.7,432.5,179.5z"/>
			<path class="st0" d="M455,177.5v6.9h-1.3l-0.2-1.6c-0.8,0.8-2.2,1.8-4,1.8c-1.7,0-2.9-1-2.9-2.7v-1.1c0-1.5,1-2.4,2.7-2.4h4.1
				v-0.9c0-1.2-0.4-1.7-2-1.7c-1,0-2.7,0.1-4.2,0.3l-0.2-1.3c1.3-0.2,3.2-0.4,4.7-0.4C453.8,174.4,455,175.2,455,177.5z
				 M453.3,181.7v-2l-3.8,0c-0.9,0-1.3,0.5-1.3,1.3v0.6c0,1,0.5,1.5,1.5,1.5C450.7,183.1,452.1,182.7,453.3,181.7z"/>
			<path class="st0" d="M460.5,176v5.7c0,0.9,0.4,1.3,1.3,1.3h1.5l0.2,1.3c-0.6,0.2-1.7,0.3-2.2,0.3c-1.6,0-2.5-0.9-2.5-2.6V176H457
				v-1.2l1.8-0.1v-2.9h1.7v2.9h3.1v1.3H460.5z"/>
			<path class="st0" d="M467.5,171v1.1c0,0.4-0.2,0.5-0.5,0.5h-0.8c-0.3,0-0.5-0.2-0.5-0.5V171c0-0.3,0.2-0.5,0.5-0.5h0.8
				C467.3,170.5,467.5,170.7,467.5,171z M467.4,184.4h-1.7v-9.7h1.7V184.4z"/>
		</g>
		<g class="st1">
			<path class="st0" d="M475.7,184c-0.1,0.3-0.3,0.4-0.6,0.4h-1.5c-0.3,0-0.5-0.2-0.6-0.4l-3.6-9.3h1.8l2.4,6.8
				c0.2,0.6,0.4,1.2,0.6,1.7h0.3l0.6-1.7l2.4-6.8h1.8L475.7,184z"/>
		</g>
		<g class="st1">
			<path class="st0" d="M489.8,179.5c0,3.7-1.2,5.1-4.6,5.1c-3.3,0-4.6-1.4-4.6-5.1c0-3.7,1.2-5.1,4.6-5.1
				C488.5,174.4,489.8,175.8,489.8,179.5z M482.4,179.5c0,2.8,0.7,3.7,2.8,3.7c2.1,0,2.8-0.8,2.8-3.7c0-2.8-0.7-3.7-2.8-3.7
				C483.1,175.9,482.4,176.7,482.4,179.5z"/>
			<path class="st0" d="M498.6,181.7c0,0.9,0.5,1.3,1.3,1.3h0.9l0.2,1.3c-0.4,0.2-1.3,0.3-1.8,0.3c-1.4,0-2.4-0.9-2.4-2.5v-11.7h1.7
				L498.6,181.7z"/>
			<path class="st0" d="M504.7,171v1.1c0,0.4-0.2,0.5-0.5,0.5h-0.8c-0.3,0-0.5-0.2-0.5-0.5V171c0-0.3,0.2-0.5,0.5-0.5h0.8
				C504.5,170.5,504.7,170.7,504.7,171z M504.6,184.4h-1.7v-9.7h1.7V184.4z"/>
			<path class="st0" d="M512.9,184c-0.1,0.3-0.3,0.4-0.6,0.4h-1.5c-0.3,0-0.5-0.2-0.6-0.4l-3.6-9.3h1.8l2.4,6.8
				c0.2,0.6,0.4,1.2,0.6,1.7h0.3l0.6-1.7l2.4-6.8h1.8L512.9,184z"/>
		</g>
		<g class="st1">
			<path class="st0" d="M524.5,174.4l-0.2,1.6h-0.6c-1.1,0-2.1,0.5-3.6,1.2v7.1h-1.7v-9.7h1.3l0.2,1.5c1.4-1.1,2.8-1.8,4.2-1.8
				H524.5z"/>
		</g>
		<g class="st1">
			<path class="st0" d="M533.9,183l0.2,1.1c-0.9,0.4-2.7,0.5-3.8,0.5c-3.4,0-4.7-1.4-4.7-5.1c0-3.8,1.3-5.1,4.5-5.1
				c2.9,0,4.2,1.1,4.2,3.2c0,1.7-0.7,2.8-2.3,2.8h-4.5c0.2,2.3,1.1,2.8,3.1,2.8C531.6,183.2,532.9,183.1,533.9,183z M527.5,179h4.1
				c0.9,0,1.1-0.7,1.1-1.4c0-1.2-0.7-1.7-2.4-1.7C528.2,175.9,527.5,176.6,527.5,179z"/>
			<path class="st0" d="M549.7,170.4v14h-1.3l-0.2-1.4c-1.1,0.9-2.4,1.6-3.9,1.6c-2.5,0-3.4-1.7-3.4-5.1c0-3.8,1.2-5.1,3.7-5.1
				c1.2,0,2.4,0.3,3.5,0.9c-0.1-0.6-0.1-1.2-0.1-1.9v-3H549.7z M544.9,183.2c1.1,0,1.8-0.4,3.1-1.3v-5.4c-1.1-0.3-2-0.5-3-0.5
				c-1.7,0-2.3,0.7-2.3,3.6S543.3,183.2,544.9,183.2z"/>
			<path class="st0" d="M560.6,183l0.2,1.1c-0.9,0.4-2.7,0.5-3.8,0.5c-3.4,0-4.7-1.4-4.7-5.1c0-3.8,1.3-5.1,4.5-5.1
				c2.9,0,4.2,1.1,4.2,3.2c0,1.7-0.7,2.8-2.3,2.8h-4.5c0.2,2.3,1.1,2.8,3.1,2.8C558.3,183.2,559.6,183.1,560.6,183z M554.1,179h4.1
				c0.9,0,1.1-0.7,1.1-1.4c0-1.2-0.7-1.7-2.4-1.7C554.9,175.9,554.2,176.6,554.1,179z"/>
			<path class="st0" d="M574.1,174.4l-0.2,1.6h-0.6c-1.1,0-2.1,0.5-3.6,1.2v7.1H568v-9.7h1.3l0.2,1.5c1.4-1.1,2.8-1.8,4.2-1.8H574.1
				z"/>
			<path class="st0" d="M577.9,171v1.1c0,0.4-0.2,0.5-0.5,0.5h-0.8c-0.3,0-0.5-0.2-0.5-0.5V171c0-0.3,0.2-0.5,0.5-0.5h0.8
				C577.7,170.5,577.9,170.7,577.9,171z M577.8,184.4h-1.7v-9.7h1.7V184.4z"/>
			<path class="st0" d="M588.3,174.7l-0.1,1.2c-1.2,0-2.5-0.1-3.7-0.1c-1.8,0-2.4,0-2.4,1.2c0,1,0.5,1.2,1.4,1.4l2.8,0.6
				c1.5,0.4,2.3,1,2.3,2.7c0,2.4-1.3,2.8-4.2,2.8c-0.7,0-2.2,0-3.8-0.3l0.1-1.2c1,0.1,2.1,0.1,3.4,0.1c2.2,0,2.9-0.2,2.9-1.4
				c0-1-0.6-1.1-1.5-1.4l-2.8-0.6c-1.6-0.4-2.2-1.1-2.2-2.7c0-2.3,1.1-2.7,3.8-2.7C585.5,174.4,587.1,174.5,588.3,174.7z"/>
		</g>
		<g class="st1">
			<path class="st0" d="M598.5,174.9l-0.2,1.1c-0.9-0.1-2-0.1-2.6-0.1c-2.3,0-3.1,0.8-3.1,3.7c0,2.9,0.8,3.7,3.1,3.7
				c0.6,0,1.9,0,2.9-0.2l0.2,1.1c-1,0.3-2.2,0.5-3.3,0.5c-3.4,0-4.6-1.4-4.6-5.1s1.3-5.1,4.6-5.1
				C596.2,174.4,597.5,174.5,598.5,174.9z"/>
		</g>
		<g class="st1">
			<path class="st0" d="M609.5,179.5c0,3.7-1.2,5.1-4.6,5.1c-3.3,0-4.6-1.4-4.6-5.1c0-3.7,1.2-5.1,4.6-5.1
				C608.2,174.4,609.5,175.8,609.5,179.5z M602.1,179.5c0,2.8,0.7,3.7,2.8,3.7c2.1,0,2.8-0.8,2.8-3.7c0-2.8-0.7-3.7-2.8-3.7
				C602.8,175.9,602.1,176.7,602.1,179.5z"/>
		</g>
		<g class="st1">
			<path class="st0" d="M172.9,203.6c0,3.4-1.1,4.3-4.2,4.3c-1.2,0-2.3-0.1-3.2-0.2v5.5h-1.8v-13.8c1.5-0.2,2.5-0.2,4.7-0.2
				C171.8,199.3,172.9,200.3,172.9,203.6z M171.1,203.6c0-2.2-0.7-2.8-2.7-2.8c-1.2,0-2.2,0-3,0v5.6h3
				C170.5,206.4,171.1,205.9,171.1,203.6z"/>
			<path class="st0" d="M181.5,203.3l-0.2,1.6h-0.6c-1.1,0-2.1,0.5-3.6,1.2v7.1h-1.7v-9.7h1.3l0.2,1.5c1.4-1.1,2.8-1.8,4.2-1.8
				H181.5z"/>
			<path class="st0" d="M191.3,206.4v6.9H190l-0.2-1.6c-0.8,0.8-2.2,1.8-4,1.8c-1.7,0-2.9-1-2.9-2.7v-1.1c0-1.5,1-2.4,2.7-2.4h4.1
				v-0.9c0-1.2-0.4-1.7-2-1.7c-1,0-2.7,0.1-4.2,0.3l-0.2-1.3c1.3-0.2,3.2-0.4,4.7-0.4C190.1,203.3,191.3,204.1,191.3,206.4z
				 M189.6,210.6v-2l-3.8,0c-0.9,0-1.3,0.5-1.3,1.3v0.6c0,1,0.5,1.5,1.5,1.5C187.1,212,188.5,211.6,189.6,210.6z"/>
		</g>
		<g class="st1">
			<path class="st0" d="M202,211.9v1.4h-8.2v-1.4l6.3-7h-6.2v-1.4h8.1v1.4l-6.3,7H202z"/>
		</g>
		<g class="st1">
			<path class="st0" d="M213.3,208.4c0,3.7-1.2,5.1-4.6,5.1c-3.3,0-4.6-1.4-4.6-5.1c0-3.7,1.2-5.1,4.6-5.1
				C212,203.3,213.3,204.7,213.3,208.4z M205.9,208.4c0,2.8,0.7,3.7,2.8,3.7s2.8-0.8,2.8-3.7c0-2.8-0.7-3.7-2.8-3.7
				S205.9,205.6,205.9,208.4z"/>
		</g>
		<g class="st1">
			<path class="st0" d="M26.8,87.7h-4.5v12.2h-1.8V87.7h-4.4v-1.6h10.7V87.7z"/>
		</g>
		<g class="st1">
			<path class="st0" d="M34.9,93v6.9h-1.3l-0.2-1.6c-0.8,0.8-2.2,1.8-4,1.8c-1.7,0-2.9-1-2.9-2.7v-1.1c0-1.5,1-2.4,2.7-2.4h4.1V93
				c0-1.2-0.4-1.7-2-1.7c-1,0-2.7,0.1-4.2,0.3l-0.2-1.3c1.3-0.2,3.2-0.4,4.7-0.4C33.7,89.9,34.9,90.7,34.9,93z M33.2,97.2v-2l-3.8,0
				c-0.9,0-1.3,0.5-1.3,1.3v0.6c0,1,0.5,1.5,1.5,1.5C30.6,98.6,32,98.2,33.2,97.2z"/>
			<path class="st0" d="M41.9,95.5h-0.4l-2.8,4.4h-1.9l3.3-5l-3-4.7h1.8l2.5,4h0.5l2.5-4h1.8l-3,4.7l3.3,5h-1.8L41.9,95.5z"/>
			<path class="st0" d="M56.4,93v6.9h-1.3l-0.2-1.6c-0.8,0.8-2.2,1.8-4,1.8c-1.7,0-2.9-1-2.9-2.7v-1.1c0-1.5,1-2.4,2.7-2.4h4.1V93
				c0-1.2-0.4-1.7-2-1.7c-1,0-2.7,0.1-4.2,0.3l-0.2-1.3c1.3-0.2,3.2-0.4,4.7-0.4C55.3,89.9,56.4,90.7,56.4,93z M54.7,97.2v-2l-3.8,0
				c-0.9,0-1.3,0.5-1.3,1.3v0.6c0,1,0.5,1.5,1.5,1.5C52.2,98.6,53.6,98.2,54.7,97.2z"/>
		</g>
		<g class="st1">
			<path class="st0" d="M9.9,109.9v14H8.6l-0.2-1.4c-1.1,0.9-2.4,1.6-3.9,1.6c-2.5,0-3.4-1.7-3.4-5.1c0-3.8,1.2-5.1,3.7-5.1
				c1.2,0,2.4,0.3,3.5,0.9c-0.1-0.6-0.1-1.2-0.1-1.9v-3H9.9z M5.1,122.7c1.1,0,1.8-0.4,3.1-1.3v-5.4c-1.1-0.3-2-0.5-3-0.5
				c-1.7,0-2.3,0.7-2.3,3.6S3.5,122.7,5.1,122.7z"/>
			<path class="st0" d="M20.8,122.5l0.2,1.1c-0.9,0.4-2.7,0.5-3.8,0.5c-3.4,0-4.7-1.4-4.7-5.1c0-3.8,1.3-5.1,4.5-5.1
				c2.9,0,4.2,1.1,4.2,3.2c0,1.7-0.7,2.8-2.3,2.8h-4.5c0.2,2.3,1.1,2.8,3.1,2.8C18.5,122.7,19.8,122.6,20.8,122.5z M14.3,118.5h4.1
				c0.9,0,1.1-0.7,1.1-1.4c0-1.2-0.7-1.7-2.4-1.7C15.1,115.4,14.4,116.1,14.3,118.5z"/>
		</g>
		<g class="st1">
		</g>
		<g class="st1">
			<path class="st0" d="M31.3,121c0,2-0.9,3.1-2.7,3.1c-0.5,0-1.4-0.1-1.8-0.3l0.2-1.2h1c1.1,0,1.6-0.5,1.6-1.5v-11h1.8V121z"/>
			<path class="st0" d="M42.8,114.2v9.7h-1.4l-0.1-1.4c-1.5,1.1-2.8,1.7-4.2,1.7c-1.8,0-2.7-0.9-2.7-2.7v-7.3h1.7v6.8
				c0,1.2,0.4,1.7,1.5,1.7c1,0,2-0.5,3.4-1.4v-7.1H42.8z"/>
		</g>
		<g class="st1">
			<path class="st0" d="M52.1,113.9l-0.2,1.6h-0.6c-1.1,0-2.1,0.5-3.6,1.2v7.1H46v-9.7h1.3l0.2,1.5c1.4-1.1,2.8-1.8,4.2-1.8H52.1z"
				/>
		</g>
		<g class="st1">
			<path class="st0" d="M62.5,119c0,3.7-1.2,5.1-4.6,5.1c-3.3,0-4.6-1.4-4.6-5.1c0-3.7,1.2-5.1,4.6-5.1
				C61.2,113.9,62.5,115.3,62.5,119z M55.1,119c0,2.8,0.7,3.7,2.8,3.7s2.8-0.8,2.8-3.7c0-2.8-0.7-3.7-2.8-3.7S55.1,116.2,55.1,119z"
				/>
			<path class="st0" d="M72.5,114.2l-0.1,1.2c-1.2,0-2.5-0.1-3.7-0.1c-1.8,0-2.4,0-2.4,1.2c0,1,0.5,1.2,1.4,1.4l2.8,0.6
				c1.5,0.4,2.3,1,2.3,2.7c0,2.4-1.3,2.8-4.2,2.8c-0.7,0-2.2,0-3.8-0.3l0.1-1.2c1,0.1,2.1,0.1,3.4,0.1c2.2,0,2.9-0.2,2.9-1.4
				c0-1-0.6-1.1-1.5-1.4l-2.8-0.6c-1.6-0.4-2.2-1.1-2.2-2.7c0-2.3,1.1-2.7,3.8-2.7C69.6,113.9,71.3,114,72.5,114.2z"/>
		</g>
		<g class="st1">
			<path class="st0" d="M308.3,63.7c0,3.4-1.1,4.3-4.2,4.3c-1.2,0-2.3-0.1-3.2-0.2v5.5h-1.8V59.6c1.5-0.2,2.5-0.2,4.7-0.2
				C307.2,59.4,308.3,60.4,308.3,63.7z M306.5,63.7c0-2.2-0.7-2.8-2.7-2.8c-1.2,0-2.2,0-3,0v5.6h3C305.9,66.5,306.5,66,306.5,63.7z"
				/>
		</g>
		<g class="st1">
			<path class="st0" d="M316.9,63.4l-0.2,1.6h-0.6c-1.1,0-2.1,0.5-3.6,1.2v7.1h-1.7v-9.7h1.3l0.2,1.5c1.4-1.1,2.8-1.8,4.2-1.8H316.9
				z"/>
		</g>
		<g class="st1">
			<path class="st0" d="M326.3,72l0.2,1.1c-0.9,0.4-2.7,0.5-3.8,0.5c-3.4,0-4.7-1.4-4.7-5.1c0-3.8,1.3-5.1,4.5-5.1
				c2.9,0,4.2,1.1,4.2,3.2c0,1.7-0.7,2.8-2.3,2.8h-4.5c0.2,2.3,1.1,2.8,3.1,2.8C324,72.2,325.3,72.1,326.3,72z M319.9,62.4l-0.6-0.7
				l2.6-2.5h1.2l2.7,2.5l-0.6,0.7l-2.6-1.9h-0.2L319.9,62.4z M319.9,68h4.1c0.9,0,1.1-0.7,1.1-1.4c0-1.2-0.7-1.7-2.4-1.7
				C320.6,64.9,319.9,65.6,319.9,68z"/>
			<path class="st0" d="M343.8,66.1v7.3h-1.7v-6.8c0-1.2-0.4-1.7-1.5-1.7c-1,0-1.7,0.4-3.2,1.5v7h-1.6v-6.8c0-1.3-0.5-1.7-1.5-1.7
				c-1,0-1.7,0.4-3.2,1.5v7h-1.7v-9.7h1.4l0.1,1.5c1.4-1.2,2.6-1.8,4-1.8c1.3,0,2.2,0.6,2.5,1.7c1.3-1.2,2.6-1.7,3.9-1.7
				C342.8,63.4,343.8,64.3,343.8,66.1z"/>
			<path class="st0" d="M348.7,60v1.1c0,0.4-0.2,0.5-0.5,0.5h-0.8c-0.3,0-0.5-0.2-0.5-0.5V60c0-0.3,0.2-0.5,0.5-0.5h0.8
				C348.5,59.5,348.7,59.7,348.7,60z M348.6,73.4h-1.7v-9.7h1.7V73.4z"/>
			<path class="st0" d="M360.5,68.5c0,3.7-1.2,5.1-4.6,5.1c-3.3,0-4.6-1.4-4.6-5.1c0-3.7,1.2-5.1,4.6-5.1
				C359.3,63.4,360.5,64.8,360.5,68.5z M353.1,68.5c0,2.8,0.7,3.7,2.8,3.7s2.8-0.8,2.8-3.7c0-2.8-0.7-3.7-2.8-3.7
				S353.1,65.7,353.1,68.5z"/>
		</g>
		<g class="st1">
			<path class="st0" d="M373.7,63.4l-0.2,1.6h-0.6c-1.1,0-2.1,0.5-3.6,1.2v7.1h-1.7v-9.7h1.3l0.2,1.5c1.4-1.1,2.8-1.8,4.2-1.8H373.7
				z"/>
		</g>
		<g class="st1">
			<path class="st0" d="M383.1,72l0.2,1.1c-0.9,0.4-2.7,0.5-3.8,0.5c-3.4,0-4.7-1.4-4.7-5.1c0-3.8,1.3-5.1,4.5-5.1
				c2.9,0,4.2,1.1,4.2,3.2c0,1.7-0.7,2.8-2.3,2.8h-4.5c0.2,2.3,1.1,2.8,3.1,2.8C380.8,72.2,382.1,72.1,383.1,72z M376.7,68h4.1
				c0.9,0,1.1-0.7,1.1-1.4c0-1.2-0.7-1.7-2.4-1.7C377.4,64.9,376.7,65.6,376.7,68z"/>
			<path class="st0" d="M394.4,64.1v13.3h-1.7l0-3.3c0-0.8,0-1.4,0.2-2c-1.2,1-2.5,1.6-3.9,1.6c-2.3,0-3.3-1.6-3.3-5.1
				c0-3.4,1-5.1,4.4-5.1C391.3,63.4,393.1,63.7,394.4,64.1z M389.5,72.2c1.2,0,2-0.5,3.2-1.3v-5.7c-0.9-0.2-1.9-0.3-2.7-0.3
				c-1.9,0-2.6,0.8-2.6,3.8C387.4,71.1,387.8,72.2,389.5,72.2z"/>
			<path class="st0" d="M405.8,63.7v9.7h-1.4l-0.1-1.4c-1.5,1.1-2.8,1.7-4.2,1.7c-1.8,0-2.7-0.9-2.7-2.7v-7.3h1.7v6.8
				c0,1.2,0.4,1.7,1.5,1.7c1,0,2-0.5,3.4-1.4v-7.1H405.8z"/>
			<path class="st0" d="M416.7,72l0.2,1.1c-0.9,0.4-2.7,0.5-3.8,0.5c-3.4,0-4.7-1.4-4.7-5.1c0-3.8,1.3-5.1,4.5-5.1
				c2.9,0,4.2,1.1,4.2,3.2c0,1.7-0.7,2.8-2.3,2.8h-4.5c0.2,2.3,1.1,2.8,3.1,2.8C414.3,72.2,415.7,72.1,416.7,72z M410.2,68h4.1
				c0.9,0,1.1-0.7,1.1-1.4c0-1.2-0.7-1.7-2.4-1.7C411,64.9,410.3,65.6,410.2,68z"/>
			<path class="st0" d="M425.7,63.4l-0.2,1.6H425c-1.1,0-2.1,0.5-3.6,1.2v7.1h-1.7v-9.7h1.3l0.2,1.5c1.4-1.1,2.8-1.8,4.2-1.8H425.7z
				"/>
			<path class="st0" d="M429.5,60v1.1c0,0.4-0.2,0.5-0.5,0.5h-0.8c-0.3,0-0.5-0.2-0.5-0.5V60c0-0.3,0.2-0.5,0.5-0.5h0.8
				C429.3,59.5,429.5,59.7,429.5,60z M429.4,73.4h-1.7v-9.7h1.7V73.4z"/>
			<path class="st0" d="M440.9,59.4v14h-1.3l-0.2-1.4c-1.1,0.9-2.4,1.6-3.9,1.6c-2.5,0-3.4-1.7-3.4-5.1c0-3.8,1.2-5.1,3.7-5.1
				c1.2,0,2.4,0.3,3.5,0.9c-0.1-0.6-0.1-1.2-0.1-1.9v-3H440.9z M436.2,72.2c1.1,0,1.8-0.4,3.1-1.3v-5.4c-1.1-0.3-2-0.5-3-0.5
				c-1.7,0-2.3,0.7-2.3,3.6S434.6,72.2,436.2,72.2z"/>
			<path class="st0" d="M452.8,68.5c0,3.7-1.2,5.1-4.6,5.1c-3.3,0-4.6-1.4-4.6-5.1c0-3.7,1.2-5.1,4.6-5.1
				C451.6,63.4,452.8,64.8,452.8,68.5z M445.4,68.5c0,2.8,0.7,3.7,2.8,3.7c2.1,0,2.8-0.8,2.8-3.7c0-2.8-0.7-3.7-2.8-3.7
				C446.1,64.9,445.4,65.7,445.4,68.5z"/>
			<path class="st0" d="M468.8,68.6c0,3.8-1.2,5.1-3.7,5.1c-1.2,0-2.5-0.3-3.6-1c0.1,0.7,0.1,1.3,0.1,2v2.8h-1.7V63.7h1.4l0.1,1.6
				c1.1-1.1,2.6-1.8,4-1.8C467.9,63.4,468.8,65.2,468.8,68.6z M467.1,68.6c0-2.8-0.6-3.7-2.2-3.7c-1.1,0-2,0.5-3.3,1.5v5.2
				c1.2,0.3,2.1,0.6,3.1,0.6C466.4,72.2,467.1,71.4,467.1,68.6z"/>
			<path class="st0" d="M479.3,72l0.2,1.1c-0.9,0.4-2.7,0.5-3.8,0.5c-3.4,0-4.7-1.4-4.7-5.1c0-3.8,1.3-5.1,4.5-5.1
				c2.9,0,4.2,1.1,4.2,3.2c0,1.7-0.7,2.8-2.3,2.8h-4.5c0.2,2.3,1.1,2.8,3.1,2.8C476.9,72.2,478.3,72.1,479.3,72z M472.8,68h4.1
				c0.9,0,1.1-0.7,1.1-1.4c0-1.2-0.7-1.7-2.4-1.7C473.6,64.9,472.9,65.6,472.8,68z"/>
			<path class="st0" d="M483.9,70.7c0,0.9,0.5,1.3,1.3,1.3h0.9l0.2,1.3c-0.4,0.2-1.3,0.3-1.8,0.3c-1.4,0-2.4-0.9-2.4-2.5V59.4h1.7
				L483.9,70.7z"/>
			<path class="st0" d="M496.9,68.5c0,3.7-1.2,5.1-4.6,5.1c-3.3,0-4.6-1.4-4.6-5.1c0-3.7,1.2-5.1,4.6-5.1
				C495.7,63.4,496.9,64.8,496.9,68.5z M489.5,68.5c0,2.8,0.7,3.7,2.8,3.7c2.1,0,2.8-0.8,2.8-3.7c0-2.8-0.7-3.7-2.8-3.7
				C490.2,64.9,489.5,65.7,489.5,68.5z"/>
			<path class="st0" d="M505.8,60v1.1c0,0.4-0.2,0.5-0.5,0.5h-0.8c-0.3,0-0.5-0.2-0.5-0.5V60c0-0.3,0.2-0.5,0.5-0.5h0.8
				C505.7,59.5,505.8,59.7,505.8,60z M505.8,73.4h-1.7v-9.7h1.7V73.4z"/>
			<path class="st0" d="M517.5,66.1v7.3h-1.7v-6.8c0-1.3-0.4-1.7-1.4-1.7c-1.2,0-2.2,0.6-3.8,1.5v7H509v-9.7h1.4l0.1,1.5
				c1.5-1.1,2.9-1.8,4.4-1.8C516.6,63.4,517.5,64.3,517.5,66.1z"/>
		</g>
		<g class="st1">
			<path class="st0" d="M525.7,73c-0.1,0.3-0.3,0.4-0.6,0.4h-1.5c-0.3,0-0.5-0.2-0.6-0.4l-3.6-9.3h1.8l2.4,6.8
				c0.2,0.6,0.4,1.2,0.6,1.7h0.3l0.6-1.7l2.4-6.8h1.8L525.7,73z"/>
		</g>
		<g class="st1">
			<path class="st0" d="M538.8,72l0.2,1.1c-0.9,0.4-2.7,0.5-3.8,0.5c-3.4,0-4.7-1.4-4.7-5.1c0-3.8,1.3-5.1,4.5-5.1
				c2.9,0,4.2,1.1,4.2,3.2c0,1.7-0.7,2.8-2.3,2.8h-4.5c0.2,2.3,1.1,2.8,3.1,2.8C536.5,72.2,537.8,72.1,538.8,72z M532.4,68h4.1
				c0.9,0,1.1-0.7,1.1-1.4c0-1.2-0.7-1.7-2.4-1.7C533.1,64.9,532.4,65.6,532.4,68z"/>
			<path class="st0" d="M549.1,63.7L549,65c-1.2,0-2.5-0.1-3.7-0.1c-1.8,0-2.4,0-2.4,1.2c0,1,0.5,1.2,1.4,1.4l2.8,0.6
				c1.5,0.4,2.3,1,2.3,2.7c0,2.4-1.3,2.8-4.2,2.8c-0.7,0-2.2,0-3.8-0.3l0.1-1.2c1,0.1,2.1,0.1,3.4,0.1c2.2,0,2.9-0.2,2.9-1.4
				c0-1-0.6-1.1-1.5-1.4l-2.8-0.6c-1.6-0.4-2.2-1.1-2.2-2.7c0-2.3,1.1-2.7,3.8-2.7C546.3,63.4,547.9,63.5,549.1,63.7z"/>
			<path class="st0" d="M554.4,65v5.7c0,0.9,0.4,1.3,1.3,1.3h1.5l0.2,1.3c-0.6,0.2-1.7,0.3-2.2,0.3c-1.6,0-2.5-0.9-2.5-2.6V65h-1.8
				v-1.2l1.8-0.1v-2.9h1.7v2.9h3.1V65H554.4z"/>
			<path class="st0" d="M561.4,60v1.1c0,0.4-0.2,0.5-0.5,0.5h-0.8c-0.3,0-0.5-0.2-0.5-0.5V60c0-0.3,0.2-0.5,0.5-0.5h0.8
				C561.3,59.5,561.4,59.7,561.4,60z M561.3,73.4h-1.7v-9.7h1.7V73.4z"/>
			<path class="st0" d="M572.9,59.4v14h-1.3l-0.2-1.4c-1.1,0.9-2.4,1.6-3.9,1.6c-2.5,0-3.4-1.7-3.4-5.1c0-3.8,1.2-5.1,3.7-5.1
				c1.2,0,2.4,0.3,3.5,0.9c-0.1-0.6-0.1-1.2-0.1-1.9v-3H572.9z M568.1,72.2c1.1,0,1.8-0.4,3.1-1.3v-5.4c-1.1-0.3-2-0.5-3-0.5
				c-1.7,0-2.3,0.7-2.3,3.6S566.5,72.2,568.1,72.2z"/>
			<path class="st0" d="M584.7,68.5c0,3.7-1.2,5.1-4.6,5.1c-3.3,0-4.6-1.4-4.6-5.1c0-3.7,1.2-5.1,4.6-5.1
				C583.5,63.4,584.7,64.8,584.7,68.5z M577.3,68.5c0,2.8,0.7,3.7,2.8,3.7c2.1,0,2.8-0.8,2.8-3.7c0-2.8-0.7-3.7-2.8-3.7
				C578,64.9,577.3,65.7,577.3,68.5z"/>
		</g>
		<g class="st1">
			<path class="st0" d="M593.5,63.4l-0.2,1.6h-0.6c-1.1,0-2.1,0.5-3.6,1.2v7.1h-1.7v-9.7h1.3l0.2,1.5c1.4-1.1,2.8-1.8,4.2-1.8H593.5
				z"/>
		</g>
		<g class="st1">
		</g>
		<g class="st1">
			<path class="st0" d="M306.9,98.5v6.9h-1.3l-0.2-1.6c-0.8,0.8-2.2,1.8-4,1.8c-1.7,0-2.9-1-2.9-2.7v-1.1c0-1.5,1-2.4,2.7-2.4h4.1
				v-0.9c0-1.2-0.4-1.7-2-1.7c-1,0-2.7,0.1-4.2,0.3l-0.2-1.3c1.3-0.2,3.2-0.4,4.7-0.4C305.7,95.4,306.9,96.2,306.9,98.5z
				 M305.2,102.7v-2l-3.8,0c-0.9,0-1.3,0.5-1.3,1.3v0.6c0,1,0.5,1.5,1.5,1.5C302.6,104.1,304,103.7,305.2,102.7z"/>
			<path class="st0" d="M317.2,95.9L317,97c-0.9-0.1-2-0.1-2.6-0.1c-2.3,0-3.1,0.8-3.1,3.7c0,2.9,0.8,3.7,3.1,3.7
				c0.6,0,1.9,0,2.9-0.2l0.2,1.1c-1,0.3-2.2,0.5-3.3,0.5c-3.4,0-4.6-1.4-4.6-5.1s1.3-5.1,4.6-5.1C315,95.4,316.3,95.5,317.2,95.9z"
				/>
			<path class="st0" d="M321.6,92v1.1c0,0.4-0.2,0.5-0.5,0.5h-0.8c-0.3,0-0.5-0.2-0.5-0.5V92c0-0.3,0.2-0.5,0.5-0.5h0.8
				C321.4,91.5,321.6,91.7,321.6,92z M321.5,105.4h-1.7v-9.7h1.7V105.4z"/>
			<path class="st0" d="M339.1,98.1v7.3h-1.7v-6.8c0-1.2-0.4-1.7-1.5-1.7c-1,0-1.7,0.4-3.2,1.5v7h-1.6v-6.8c0-1.3-0.5-1.7-1.5-1.7
				c-1,0-1.7,0.4-3.2,1.5v7h-1.7v-9.7h1.4l0.1,1.5c1.4-1.2,2.6-1.8,4-1.8c1.3,0,2.2,0.6,2.5,1.7c1.3-1.2,2.6-1.7,3.9-1.7
				C338.2,95.4,339.1,96.3,339.1,98.1z"/>
			<path class="st0" d="M350.1,98.5v6.9h-1.3l-0.2-1.6c-0.8,0.8-2.2,1.8-4,1.8c-1.7,0-2.9-1-2.9-2.7v-1.1c0-1.5,1-2.4,2.7-2.4h4.1
				v-0.9c0-1.2-0.4-1.7-2-1.7c-1,0-2.7,0.1-4.2,0.3l-0.2-1.3c1.3-0.2,3.2-0.4,4.7-0.4C349,95.4,350.1,96.2,350.1,98.5z M348.4,102.7
				v-2l-3.8,0c-0.9,0-1.3,0.5-1.3,1.3v0.6c0,1,0.5,1.5,1.5,1.5C345.9,104.1,347.3,103.7,348.4,102.7z"/>
			<path class="st0" d="M366,91.4v14h-1.3l-0.2-1.4c-1.1,0.9-2.4,1.6-3.9,1.6c-2.5,0-3.4-1.7-3.4-5.1c0-3.8,1.2-5.1,3.7-5.1
				c1.2,0,2.4,0.3,3.5,0.9c-0.1-0.6-0.1-1.2-0.1-1.9v-3H366z M361.2,104.2c1.1,0,1.8-0.4,3.1-1.3v-5.4c-1.1-0.3-2-0.5-3-0.5
				c-1.7,0-2.3,0.7-2.3,3.6S359.6,104.2,361.2,104.2z"/>
			<path class="st0" d="M377,98.5v6.9h-1.3l-0.2-1.6c-0.8,0.8-2.2,1.8-4,1.8c-1.7,0-2.9-1-2.9-2.7v-1.1c0-1.5,1-2.4,2.7-2.4h4.1
				v-0.9c0-1.2-0.4-1.7-2-1.7c-1,0-2.7,0.1-4.2,0.3l-0.2-1.3c1.3-0.2,3.2-0.4,4.7-0.4C375.9,95.4,377,96.2,377,98.5z M375.3,102.7
				v-2l-3.8,0c-0.9,0-1.3,0.5-1.3,1.3v0.6c0,1,0.5,1.5,1.5,1.5C372.8,104.1,374.2,103.7,375.3,102.7z"/>
		</g>
		<g class="st1">
		</g>
		<g class="st1">
			<path class="st0" d="M386.6,97v5.7c0,0.9,0.4,1.3,1.3,1.3h1.5l0.2,1.3c-0.6,0.2-1.7,0.3-2.2,0.3c-1.6,0-2.5-0.9-2.5-2.6V97h-1.8
				v-1.2l1.8-0.1v-2.9h1.7v2.9h3.1V97H386.6z"/>
			<path class="st0" d="M399.7,98.5v6.9h-1.3l-0.2-1.6c-0.8,0.8-2.2,1.8-4,1.8c-1.7,0-2.9-1-2.9-2.7v-1.1c0-1.5,1-2.4,2.7-2.4h4.1
				v-0.9c0-1.2-0.4-1.7-2-1.7c-1,0-2.7,0.1-4.2,0.3l-0.2-1.3c1.3-0.2,3.2-0.4,4.7-0.4C398.5,95.4,399.7,96.2,399.7,98.5z M398,102.7
				v-2l-3.8,0c-0.9,0-1.3,0.5-1.3,1.3v0.6c0,1,0.5,1.5,1.5,1.5C395.5,104.1,396.9,103.7,398,102.7z"/>
			<path class="st0" d="M406.7,101h-0.4l-2.8,4.4h-1.9l3.3-5l-3-4.7h1.8l2.5,4h0.5l2.5-4h1.8l-3,4.7l3.3,5h-1.8L406.7,101z"/>
			<path class="st0" d="M421.3,98.5v6.9h-1.3l-0.2-1.6c-0.8,0.8-2.2,1.8-4,1.8c-1.7,0-2.9-1-2.9-2.7v-1.1c0-1.5,1-2.4,2.7-2.4h4.1
				v-0.9c0-1.2-0.4-1.7-2-1.7c-1,0-2.7,0.1-4.2,0.3l-0.2-1.3c1.3-0.2,3.2-0.4,4.7-0.4C420.1,95.4,421.3,96.2,421.3,98.5z
				 M419.5,102.7v-2l-3.8,0c-0.9,0-1.3,0.5-1.3,1.3v0.6c0,1,0.5,1.5,1.5,1.5C417,104.1,418.4,103.7,419.5,102.7z"/>
			<path class="st0" d="M437.1,91.4v14h-1.3l-0.2-1.4c-1.1,0.9-2.4,1.6-3.9,1.6c-2.5,0-3.4-1.7-3.4-5.1c0-3.8,1.2-5.1,3.7-5.1
				c1.2,0,2.4,0.3,3.5,0.9c-0.1-0.6-0.1-1.2-0.1-1.9v-3H437.1z M432.3,104.2c1.1,0,1.8-0.4,3.1-1.3v-5.4c-1.1-0.3-2-0.5-3-0.5
				c-1.7,0-2.3,0.7-2.3,3.6S430.7,104.2,432.3,104.2z"/>
			<path class="st0" d="M448.9,100.5c0,3.7-1.2,5.1-4.6,5.1c-3.3,0-4.6-1.4-4.6-5.1c0-3.7,1.2-5.1,4.6-5.1
				C447.7,95.4,448.9,96.8,448.9,100.5z M441.5,100.5c0,2.8,0.7,3.7,2.8,3.7c2.1,0,2.8-0.8,2.8-3.7c0-2.8-0.7-3.7-2.8-3.7
				C442.2,96.9,441.5,97.7,441.5,100.5z"/>
			<path class="st0" d="M464,98.5v6.9h-1.3l-0.2-1.6c-0.8,0.8-2.2,1.8-4,1.8c-1.7,0-2.9-1-2.9-2.7v-1.1c0-1.5,1-2.4,2.7-2.4h4.1
				v-0.9c0-1.2-0.4-1.7-2-1.7c-1,0-2.7,0.1-4.2,0.3l-0.2-1.3c1.3-0.2,3.2-0.4,4.7-0.4C462.8,95.4,464,96.2,464,98.5z M462.3,102.7
				v-2l-3.8,0c-0.9,0-1.3,0.5-1.3,1.3v0.6c0,1,0.5,1.5,1.5,1.5C459.7,104.1,461.1,103.7,462.3,102.7z"/>
			<path class="st0" d="M469.5,97v5.7c0,0.9,0.4,1.3,1.3,1.3h1.5l0.2,1.3c-0.6,0.2-1.7,0.3-2.2,0.3c-1.6,0-2.5-0.9-2.5-2.6V97H466
				v-1.2l1.8-0.1v-2.9h1.7v2.9h3.1V97H469.5z"/>
			<path class="st0" d="M476.5,92v1.1c0,0.4-0.2,0.5-0.5,0.5h-0.8c-0.3,0-0.5-0.2-0.5-0.5V92c0-0.3,0.2-0.5,0.5-0.5h0.8
				C476.3,91.5,476.5,91.7,476.5,92z M476.4,105.4h-1.7v-9.7h1.7V105.4z"/>
		</g>
		<g class="st1">
			<path class="st0" d="M484.8,105c-0.1,0.3-0.3,0.4-0.6,0.4h-1.5c-0.3,0-0.5-0.2-0.6-0.4l-3.6-9.3h1.8l2.4,6.8
				c0.2,0.6,0.4,1.2,0.6,1.7h0.3l0.6-1.7l2.4-6.8h1.8L484.8,105z"/>
		</g>
		<g class="st1">
			<path class="st0" d="M498.8,100.5c0,3.7-1.2,5.1-4.6,5.1c-3.3,0-4.6-1.4-4.6-5.1c0-3.7,1.2-5.1,4.6-5.1
				C497.5,95.4,498.8,96.8,498.8,100.5z M491.4,100.5c0,2.8,0.7,3.7,2.8,3.7c2.1,0,2.8-0.8,2.8-3.7c0-2.8-0.7-3.7-2.8-3.7
				C492.1,96.9,491.4,97.7,491.4,100.5z"/>
			<path class="st0" d="M507.6,102.7c0,0.9,0.5,1.3,1.3,1.3h0.9l0.2,1.3c-0.4,0.2-1.3,0.3-1.8,0.3c-1.4,0-2.4-0.9-2.4-2.5V91.4h1.7
				L507.6,102.7z"/>
			<path class="st0" d="M513.7,92v1.1c0,0.4-0.2,0.5-0.5,0.5h-0.8c-0.3,0-0.5-0.2-0.5-0.5V92c0-0.3,0.2-0.5,0.5-0.5h0.8
				C513.5,91.5,513.7,91.7,513.7,92z M513.6,105.4h-1.7v-9.7h1.7V105.4z"/>
			<path class="st0" d="M521.9,105c-0.1,0.3-0.3,0.4-0.6,0.4h-1.5c-0.3,0-0.5-0.2-0.6-0.4l-3.6-9.3h1.8l2.4,6.8
				c0.2,0.6,0.4,1.2,0.6,1.7h0.3l0.6-1.7l2.4-6.8h1.8L521.9,105z"/>
		</g>
		<g class="st1">
			<path class="st0" d="M533.6,95.4l-0.2,1.6h-0.6c-1.1,0-2.1,0.5-3.6,1.2v7.1h-1.7v-9.7h1.3l0.2,1.5c1.4-1.1,2.8-1.8,4.2-1.8H533.6
				z"/>
		</g>
		<g class="st1">
			<path class="st0" d="M542.9,104l0.2,1.1c-0.9,0.4-2.7,0.5-3.8,0.5c-3.4,0-4.7-1.4-4.7-5.1c0-3.8,1.3-5.1,4.5-5.1
				c2.9,0,4.2,1.1,4.2,3.2c0,1.7-0.7,2.8-2.3,2.8h-4.5c0.2,2.3,1.1,2.8,3.1,2.8C540.6,104.2,541.9,104.1,542.9,104z M536.5,100h4.1
				c0.9,0,1.1-0.7,1.1-1.4c0-1.2-0.7-1.7-2.4-1.7C537.2,96.9,536.5,97.6,536.5,100z"/>
			<path class="st0" d="M558.7,91.4v14h-1.3l-0.2-1.4c-1.1,0.9-2.4,1.6-3.9,1.6c-2.5,0-3.4-1.7-3.4-5.1c0-3.8,1.2-5.1,3.7-5.1
				c1.2,0,2.4,0.3,3.5,0.9c-0.1-0.6-0.1-1.2-0.1-1.9v-3H558.7z M553.9,104.2c1.1,0,1.8-0.4,3.1-1.3v-5.4c-1.1-0.3-2-0.5-3-0.5
				c-1.7,0-2.3,0.7-2.3,3.6S552.3,104.2,553.9,104.2z"/>
			<path class="st0" d="M569.6,104l0.2,1.1c-0.9,0.4-2.7,0.5-3.8,0.5c-3.4,0-4.7-1.4-4.7-5.1c0-3.8,1.3-5.1,4.5-5.1
				c2.9,0,4.2,1.1,4.2,3.2c0,1.7-0.7,2.8-2.3,2.8h-4.5c0.2,2.3,1.1,2.8,3.1,2.8C567.3,104.2,568.6,104.1,569.6,104z M563.1,100h4.1
				c0.9,0,1.1-0.7,1.1-1.4c0-1.2-0.7-1.7-2.4-1.7C563.9,96.9,563.2,97.6,563.1,100z"/>
			<path class="st0" d="M583.1,95.4l-0.2,1.6h-0.6c-1.1,0-2.1,0.5-3.6,1.2v7.1H577v-9.7h1.3l0.2,1.5c1.4-1.1,2.8-1.8,4.2-1.8H583.1z
				"/>
			<path class="st0" d="M586.9,92v1.1c0,0.4-0.2,0.5-0.5,0.5h-0.8c-0.3,0-0.5-0.2-0.5-0.5V92c0-0.3,0.2-0.5,0.5-0.5h0.8
				C586.7,91.5,586.9,91.7,586.9,92z M586.8,105.4h-1.7v-9.7h1.7V105.4z"/>
			<path class="st0" d="M597.3,95.7l-0.1,1.2c-1.2,0-2.5-0.1-3.7-0.1c-1.8,0-2.4,0-2.4,1.2c0,1,0.5,1.2,1.4,1.4l2.8,0.6
				c1.5,0.4,2.3,1,2.3,2.7c0,2.4-1.3,2.8-4.2,2.8c-0.7,0-2.2,0-3.8-0.3l0.1-1.2c1,0.1,2.1,0.1,3.4,0.1c2.2,0,2.9-0.2,2.9-1.4
				c0-1-0.6-1.1-1.5-1.4l-2.8-0.6c-1.6-0.4-2.2-1.1-2.2-2.7c0-2.3,1.1-2.7,3.8-2.7C594.5,95.4,596.1,95.5,597.3,95.7z"/>
		</g>
		<g class="st1">
			<path class="st0" d="M607.5,95.9l-0.2,1.1c-0.9-0.1-2-0.1-2.6-0.1c-2.3,0-3.1,0.8-3.1,3.7c0,2.9,0.8,3.7,3.1,3.7
				c0.6,0,1.9,0,2.9-0.2l0.2,1.1c-1,0.3-2.2,0.5-3.3,0.5c-3.4,0-4.6-1.4-4.6-5.1s1.3-5.1,4.6-5.1C605.2,95.4,606.5,95.5,607.5,95.9z
				"/>
		</g>
		<g class="st1">
			<path class="st0" d="M618.5,100.5c0,3.7-1.2,5.1-4.6,5.1c-3.3,0-4.6-1.4-4.6-5.1c0-3.7,1.2-5.1,4.6-5.1
				C617.2,95.4,618.5,96.8,618.5,100.5z M611.1,100.5c0,2.8,0.7,3.7,2.8,3.7c2.1,0,2.8-0.8,2.8-3.7c0-2.8-0.7-3.7-2.8-3.7
				C611.8,96.9,611.1,97.7,611.1,100.5z"/>
		</g>
		<g class="st1">
			<path class="st0" d="M307.9,132.6c0,3.8-1.2,5.1-3.7,5.1c-1.2,0-2.5-0.3-3.6-1c0.1,0.7,0.1,1.3,0.1,2v2.8H299v-13.8h1.4l0.1,1.6
				c1.1-1.1,2.6-1.8,4-1.8C306.9,127.4,307.9,129.2,307.9,132.6z M306.1,132.6c0-2.8-0.6-3.7-2.2-3.7c-1.1,0-2,0.5-3.3,1.5v5.2
				c1.2,0.3,2.1,0.6,3.1,0.6C305.5,136.2,306.1,135.4,306.1,132.6z"/>
			<path class="st0" d="M318.5,130.5v6.9h-1.3l-0.2-1.6c-0.8,0.8-2.2,1.8-4,1.8c-1.7,0-2.9-1-2.9-2.7v-1.1c0-1.5,1-2.4,2.7-2.4h4.1
				v-0.9c0-1.2-0.4-1.7-2-1.7c-1,0-2.7,0.1-4.2,0.3l-0.2-1.3c1.3-0.2,3.2-0.4,4.7-0.4C317.3,127.4,318.5,128.2,318.5,130.5z
				 M316.8,134.7v-2l-3.8,0c-0.9,0-1.3,0.5-1.3,1.3v0.6c0,1,0.5,1.5,1.5,1.5C314.2,136.1,315.6,135.7,316.8,134.7z"/>
			<path class="st0" d="M327.6,127.4l-0.2,1.6h-0.6c-1.1,0-2.1,0.5-3.6,1.2v7.1h-1.7v-9.7h1.3l0.2,1.5c1.4-1.1,2.8-1.8,4.2-1.8
				H327.6z"/>
			<path class="st0" d="M337.5,130.5v6.9h-1.3l-0.2-1.6c-0.8,0.8-2.2,1.8-4,1.8c-1.7,0-2.9-1-2.9-2.7v-1.1c0-1.5,1-2.4,2.7-2.4h4.1
				v-0.9c0-1.2-0.4-1.7-2-1.7c-1,0-2.7,0.1-4.2,0.3l-0.2-1.3c1.3-0.2,3.2-0.4,4.7-0.4C336.3,127.4,337.5,128.2,337.5,130.5z
				 M335.8,134.7v-2l-3.8,0c-0.9,0-1.3,0.5-1.3,1.3v0.6c0,1,0.5,1.5,1.5,1.5C333.2,136.1,334.6,135.7,335.8,134.7z"/>
			<path class="st0" d="M352.9,130.5v6.9h-1.3l-0.2-1.6c-0.8,0.8-2.2,1.8-4,1.8c-1.7,0-2.9-1-2.9-2.7v-1.1c0-1.5,1-2.4,2.7-2.4h4.1
				v-0.9c0-1.2-0.4-1.7-2-1.7c-1,0-2.7,0.1-4.2,0.3l-0.2-1.3c1.3-0.2,3.2-0.4,4.7-0.4C351.8,127.4,352.9,128.2,352.9,130.5z
				 M351.2,134.7v-2l-3.8,0c-0.9,0-1.3,0.5-1.3,1.3v0.6c0,1,0.5,1.5,1.5,1.5C348.7,136.1,350.1,135.7,351.2,134.7z"/>
		</g>
		<g class="st1">
			<path class="st0" d="M363.3,127.9L363,129c-0.9-0.1-2-0.1-2.6-0.1c-2.3,0-3.1,0.8-3.1,3.7c0,2.9,0.8,3.7,3.1,3.7
				c0.6,0,1.9,0,2.9-0.2l0.2,1.1c-1,0.3-2.2,0.5-3.3,0.5c-3.4,0-4.6-1.4-4.6-5.1s1.3-5.1,4.6-5.1C361,127.4,362.3,127.5,363.3,127.9
				z"/>
		</g>
		<g class="st1">
			<path class="st0" d="M373.3,136l0.2,1.1c-0.9,0.4-2.7,0.5-3.8,0.5c-3.4,0-4.7-1.4-4.7-5.1c0-3.8,1.3-5.1,4.5-5.1
				c2.9,0,4.2,1.1,4.2,3.2c0,1.7-0.7,2.8-2.3,2.8h-4.5c0.2,2.3,1.1,2.8,3.1,2.8C371,136.2,372.3,136.1,373.3,136z M366.9,132h4.1
				c0.9,0,1.1-0.7,1.1-1.4c0-1.2-0.7-1.7-2.4-1.7C367.6,128.9,366.9,129.6,366.9,132z"/>
			<path class="st0" d="M378.1,124v1.1c0,0.4-0.2,0.5-0.5,0.5h-0.8c-0.3,0-0.5-0.2-0.5-0.5V124c0-0.3,0.2-0.5,0.5-0.5h0.8
				C378,123.5,378.1,123.7,378.1,124z M378.1,137.4h-1.7v-9.7h1.7V137.4z"/>
			<path class="st0" d="M383.7,129v5.7c0,0.9,0.4,1.3,1.3,1.3h1.5l0.2,1.3c-0.6,0.2-1.7,0.3-2.2,0.3c-1.6,0-2.5-0.9-2.5-2.6V129
				h-1.8v-1.2l1.8-0.1v-2.9h1.7v2.9h3.1v1.3H383.7z"/>
			<path class="st0" d="M396.8,130.5v6.9h-1.3l-0.2-1.6c-0.8,0.8-2.2,1.8-4,1.8c-1.7,0-2.9-1-2.9-2.7v-1.1c0-1.5,1-2.4,2.7-2.4h4.1
				v-0.9c0-1.2-0.4-1.7-2-1.7c-1,0-2.7,0.1-4.2,0.3l-0.2-1.3c1.3-0.2,3.2-0.4,4.7-0.4C395.6,127.4,396.8,128.2,396.8,130.5z
				 M395.1,134.7v-2l-3.8,0c-0.9,0-1.3,0.5-1.3,1.3v0.6c0,1,0.5,1.5,1.5,1.5C392.6,136.1,394,135.7,395.1,134.7z"/>
		</g>
		<g class="st1">
			<path class="st0" d="M406,127.4l-0.2,1.6h-0.6c-1.1,0-2.1,0.5-3.6,1.2v7.1h-1.7v-9.7h1.3l0.2,1.5c1.4-1.1,2.8-1.8,4.2-1.8H406z"
				/>
		</g>
		<g class="st1">
			<path class="st0" d="M420.5,130.1v7.3h-1.7v-6.8c0-1.3-0.4-1.7-1.4-1.7c-1.2,0-2.2,0.6-3.8,1.5v7h-1.7v-9.7h1.4l0.1,1.5
				c1.5-1.1,2.9-1.8,4.4-1.8C419.6,127.4,420.5,128.3,420.5,130.1z"/>
		</g>
		<g class="st1">
			<path class="st0" d="M432.3,132.5c0,3.7-1.2,5.1-4.6,5.1c-3.3,0-4.6-1.4-4.6-5.1c0-3.7,1.2-5.1,4.6-5.1
				C431,127.4,432.3,128.8,432.3,132.5z M424.9,132.5c0,2.8,0.7,3.7,2.8,3.7c2.1,0,2.8-0.8,2.8-3.7c0-2.8-0.7-3.7-2.8-3.7
				C425.6,128.9,424.9,129.7,424.9,132.5z"/>
			<path class="st0" d="M439.7,137c-0.1,0.3-0.3,0.4-0.6,0.4h-1.5c-0.3,0-0.5-0.2-0.6-0.4l-3.6-9.3h1.8l2.4,6.8
				c0.2,0.6,0.4,1.2,0.6,1.7h0.3l0.6-1.7l2.4-6.8h1.8L439.7,137z"/>
		</g>
		<g class="st1">
			<path class="st0" d="M454,132.5c0,3.7-1.2,5.1-4.6,5.1c-3.3,0-4.6-1.4-4.6-5.1c0-3.7,1.2-5.1,4.6-5.1
				C452.7,127.4,454,128.8,454,132.5z M446.6,132.5c0,2.8,0.7,3.7,2.8,3.7c2.1,0,2.8-0.8,2.8-3.7c0-2.8-0.7-3.7-2.8-3.7
				C447.3,128.9,446.6,129.7,446.6,132.5z"/>
			<path class="st0" d="M470,132.6c0,3.8-1.2,5.1-3.7,5.1c-1.2,0-2.5-0.3-3.6-1c0.1,0.7,0.1,1.3,0.1,2v2.8h-1.7v-13.8h1.4l0.1,1.6
				c1.1-1.1,2.6-1.8,4-1.8C469,127.4,470,129.2,470,132.6z M468.3,132.6c0-2.8-0.6-3.7-2.2-3.7c-1.1,0-2,0.5-3.3,1.5v5.2
				c1.2,0.3,2.1,0.6,3.1,0.6C467.6,136.2,468.3,135.4,468.3,132.6z"/>
			<path class="st0" d="M480.6,130.5v6.9h-1.3l-0.2-1.6c-0.8,0.8-2.2,1.8-4,1.8c-1.7,0-2.9-1-2.9-2.7v-1.1c0-1.5,1-2.4,2.7-2.4h4.1
				v-0.9c0-1.2-0.4-1.7-2-1.7c-1,0-2.7,0.1-4.2,0.3l-0.2-1.3c1.3-0.2,3.2-0.4,4.7-0.4C479.4,127.4,480.6,128.2,480.6,130.5z
				 M478.9,134.7v-2l-3.8,0c-0.9,0-1.3,0.5-1.3,1.3v0.6c0,1,0.5,1.5,1.5,1.5C476.4,136.1,477.8,135.7,478.9,134.7z"/>
			<path class="st0" d="M486.1,129v5.7c0,0.9,0.4,1.3,1.3,1.3h1.5l0.2,1.3c-0.6,0.2-1.7,0.3-2.2,0.3c-1.6,0-2.5-0.9-2.5-2.6V129
				h-1.8v-1.2l1.8-0.1v-2.9h1.7v2.9h3.1v1.3H486.1z"/>
			<path class="st0" d="M499.2,130.5v6.9h-1.3l-0.2-1.6c-0.8,0.8-2.2,1.8-4,1.8c-1.7,0-2.9-1-2.9-2.7v-1.1c0-1.5,1-2.4,2.7-2.4h4.1
				v-0.9c0-1.2-0.4-1.7-2-1.7c-1,0-2.7,0.1-4.2,0.3l-0.2-1.3c1.3-0.2,3.2-0.4,4.7-0.4C498,127.4,499.2,128.2,499.2,130.5z
				 M497.5,134.7v-2l-3.8,0c-0.9,0-1.3,0.5-1.3,1.3v0.6c0,1,0.5,1.5,1.5,1.5C495,136.1,496.4,135.7,497.5,134.7z"/>
			<path class="st0" d="M516.7,130.1v7.3H515v-6.8c0-1.2-0.4-1.7-1.5-1.7c-1,0-1.7,0.4-3.2,1.5v7h-1.6v-6.8c0-1.3-0.5-1.7-1.5-1.7
				c-1,0-1.7,0.4-3.2,1.5v7h-1.7v-9.7h1.4l0.1,1.5c1.4-1.2,2.6-1.8,4-1.8c1.3,0,2.2,0.6,2.5,1.7c1.3-1.2,2.6-1.7,3.9-1.7
				C515.8,127.4,516.7,128.3,516.7,130.1z"/>
			<path class="st0" d="M527.7,130.5v6.9h-1.3l-0.2-1.6c-0.8,0.8-2.2,1.8-4,1.8c-1.7,0-2.9-1-2.9-2.7v-1.1c0-1.5,1-2.4,2.7-2.4h4.1
				v-0.9c0-1.2-0.4-1.7-2-1.7c-1,0-2.7,0.1-4.2,0.3l-0.2-1.3c1.3-0.2,3.2-0.4,4.7-0.4C526.5,127.4,527.7,128.2,527.7,130.5z
				 M526,134.7v-2l-3.8,0c-0.9,0-1.3,0.5-1.3,1.3v0.6c0,1,0.5,1.5,1.5,1.5C523.5,136.1,524.9,135.7,526,134.7z"/>
		</g>
		<g class="st1">
			<path class="st0" d="M536.9,127.4l-0.2,1.6h-0.6c-1.1,0-2.1,0.5-3.6,1.2v7.1h-1.7v-9.7h1.3l0.2,1.5c1.4-1.1,2.8-1.8,4.2-1.8
				H536.9z"/>
		</g>
		<g class="st1">
			<path class="st0" d="M551.1,123.4v14h-1.3l-0.2-1.4c-1.1,0.9-2.4,1.6-3.9,1.6c-2.5,0-3.4-1.7-3.4-5.1c0-3.8,1.2-5.1,3.7-5.1
				c1.2,0,2.4,0.3,3.5,0.9c-0.1-0.6-0.1-1.2-0.1-1.9v-3H551.1z M546.4,136.2c1.1,0,1.8-0.4,3.1-1.3v-5.4c-1.1-0.3-2-0.5-3-0.5
				c-1.7,0-2.3,0.7-2.3,3.6S544.8,136.2,546.4,136.2z"/>
			<path class="st0" d="M562.1,136l0.2,1.1c-0.9,0.4-2.7,0.5-3.8,0.5c-3.4,0-4.7-1.4-4.7-5.1c0-3.8,1.3-5.1,4.5-5.1
				c2.9,0,4.2,1.1,4.2,3.2c0,1.7-0.7,2.8-2.3,2.8h-4.5c0.2,2.3,1.1,2.8,3.1,2.8C559.7,136.2,561.1,136.1,562.1,136z M555.6,132h4.1
				c0.9,0,1.1-0.7,1.1-1.4c0-1.2-0.7-1.7-2.4-1.7C556.3,128.9,555.6,129.6,555.6,132z"/>
			<path class="st0" d="M575.6,127.4l-0.2,1.6h-0.6c-1.1,0-2.1,0.5-3.6,1.2v7.1h-1.7v-9.7h1.3l0.2,1.5c1.4-1.1,2.8-1.8,4.2-1.8
				H575.6z"/>
			<path class="st0" d="M579.3,124v1.1c0,0.4-0.2,0.5-0.5,0.5H578c-0.3,0-0.5-0.2-0.5-0.5V124c0-0.3,0.2-0.5,0.5-0.5h0.8
				C579.2,123.5,579.3,123.7,579.3,124z M579.3,137.4h-1.7v-9.7h1.7V137.4z"/>
			<path class="st0" d="M589.8,127.7l-0.1,1.2c-1.2,0-2.5-0.1-3.7-0.1c-1.8,0-2.4,0-2.4,1.2c0,1,0.5,1.2,1.4,1.4l2.8,0.6
				c1.5,0.4,2.3,1,2.3,2.7c0,2.4-1.3,2.8-4.2,2.8c-0.7,0-2.2,0-3.8-0.3l0.1-1.2c1,0.1,2.1,0.1,3.4,0.1c2.2,0,2.9-0.2,2.9-1.4
				c0-1-0.6-1.1-1.5-1.4l-2.8-0.6c-1.6-0.4-2.2-1.1-2.2-2.7c0-2.3,1.1-2.7,3.8-2.7C587,127.4,588.6,127.5,589.8,127.7z"/>
		</g>
		<g class="st1">
			<path class="st0" d="M600,127.9l-0.2,1.1c-0.9-0.1-2-0.1-2.6-0.1c-2.3,0-3.1,0.8-3.1,3.7c0,2.9,0.8,3.7,3.1,3.7
				c0.6,0,1.9,0,2.9-0.2l0.2,1.1c-1,0.3-2.2,0.5-3.3,0.5c-3.4,0-4.6-1.4-4.6-5.1s1.3-5.1,4.6-5.1C597.7,127.4,599,127.5,600,127.9z"
				/>
		</g>
		<g class="st1">
			<path class="st0" d="M611,132.5c0,3.7-1.2,5.1-4.6,5.1c-3.3,0-4.6-1.4-4.6-5.1c0-3.7,1.2-5.1,4.6-5.1
				C609.7,127.4,611,128.8,611,132.5z M603.6,132.5c0,2.8,0.7,3.7,2.8,3.7c2.1,0,2.8-0.8,2.8-3.7c0-2.8-0.7-3.7-2.8-3.7
				C604.3,128.9,603.6,129.7,603.6,132.5z"/>
		</g>
	</g>
</g>
</svg>
