<svg xmlns="http://www.w3.org/2000/svg" viewBox="0 0 85.48 86.7"><defs><style>.cls-1,.cls-2{fill:none;stroke:#63c932;stroke-miterlimit:3;}.cls-1{stroke-width:8px;}.cls-2{stroke-width:4px;}.cls-3{fill:#63c932;}</style></defs><title>21_1</title><g id="Layer_2" data-name="Layer 2"><g id="Layer_1-2" data-name="Layer 1"><path id="icone_relogio_0_Layer0_0_1_STROKES" data-name="icone relogio 0 Layer0 0 1 STROKES" class="cls-1" d="M68.4,50.52A31,31,0,0,1,59,73.26,31,31,0,0,1,36.2,82.7a31.06,31.06,0,0,1-22.78-9.44A31,31,0,0,1,4,50.52a31.08,31.08,0,0,1,9.42-22.78A31.08,31.08,0,0,1,36.2,18.32,31,31,0,0,1,59,27.74,31.06,31.06,0,0,1,68.4,50.52Z"/><path id="icone_relogio_0_Layer0_1_1_STROKES" data-name="icone relogio 0 Layer0 1 1 STROKES" class="cls-2" d="M55.92,50.16h6.16M35.85,23.94v6.15m0,20.06h0m0,0h0v0m0,0h0M17.3,31.62,21.65,36m-12,14.19h6.16M17.3,68.69l4.34-4.34m14.21,5.88v6.16M50,64.36l4.35,4.34M50,36l4.36-4.36"/><g id="icone_relogio_0_Layer0_2_FILL" data-name="icone relogio 0 Layer0 2 FILL"><path class="cls-3" d="M69.78,11.7H64.85v4h4.93v4.86h4V15.7h4.93v-4H73.78V6.82h-4Z"/></g><g id="circ_0_Layer0_0_FILL" data-name="circ 0 Layer0 0 FILL"><path class="cls-3" d="M40.24,50.54a4,4,0,1,0-1.17,2.83A3.87,3.87,0,0,0,40.24,50.54Z"/></g><path id="icone_relogio_0_Layer0_4_1_STROKES" data-name="icone relogio 0 Layer0 4 1 STROKES" class="cls-2" d="M36,50.64V67.92"/><path id="icone_relogio_0_Layer0_5_1_STROKES" data-name="icone relogio 0 Layer0 5 1 STROKES" class="cls-2" d="M36,50.06,48.26,37.84"/><path id="icone_relogio_0_Layer0_6_1_STROKES" data-name="icone relogio 0 Layer0 6 1 STROKES" class="cls-2" d="M83.48,13.7A11.23,11.23,0,0,1,80,22,11.66,11.66,0,0,1,63.5,22a11.25,11.25,0,0,1-3.42-8.26A11.31,11.31,0,0,1,63.5,5.42,11.71,11.71,0,0,1,80,5.42,11.29,11.29,0,0,1,83.48,13.7Z"/><g id="icone_relogio_0_Layer0_7_FILL" data-name="icone relogio 0 Layer0 7 FILL"><path class="cls-3" d="M56,20.58q-.18,3.44,1.24,4.64A47.37,47.37,0,0,1,63,31.1q.38.49,3.84.24-4.9-7,5.32-3.78A43.89,43.89,0,0,1,58.6,16.78Q60.64,23.28,56,20.58Z"/></g></g></g></svg>