<svg xmlns="http://www.w3.org/2000/svg" viewBox="0 0 83.29 79.32"><defs><style>.cls-1,.cls-2{fill:none;stroke:#fff;stroke-miterlimit:10;}.cls-1{stroke-width:8px;}.cls-2{stroke-width:4px;}</style></defs><title>23_2c</title><g id="Layer_2" data-name="Layer 2"><g id="Layer_1-2" data-name="Layer 1"><path id="Trofeu_0_Layer0_0_1_STROKES" data-name="Trofeu 0 Layer0 0 1 STROKES" class="cls-1" d="M41.89,48.1h-.11a26,26,0,0,1-24-15.76,25.35,25.35,0,0,1-2.05-10.06V4h52.2V22.28a25.56,25.56,0,0,1-7.62,18.26A25.95,25.95,0,0,1,41.89,48.1Z"/><path id="Trofeu_0_Layer0_2_1_STROKES" data-name="Trofeu 0 Layer0 2 1 STROKES" class="cls-1" d="M29.31,46.32q2.91,0,5,3.12A13.32,13.32,0,0,1,36.35,57a13.31,13.31,0,0,1-2.07,7.53q-2.06,3.13-5,3.13"/><path id="Trofeu_0_Layer0_3_1_STROKES" data-name="Trofeu 0 Layer0 3 1 STROKES" class="cls-1" d="M54.27,46.32q-2.91,0-5,3.12a13.39,13.39,0,0,0-2,7.54,13.38,13.38,0,0,0,2,7.53q2.07,3.13,5,3.13"/><path id="Trofeu_0_Layer0_4_1_STROKES" data-name="Trofeu 0 Layer0 4 1 STROKES" class="cls-2" d="M37.64,38.45l-.6-.24a19.19,19.19,0,0,1-6.17-4.1A19.41,19.41,0,0,1,26.72,28a19,19,0,0,1-1.51-7.47v-2.9"/><path id="Trofeu_0_Layer0_5_1_STROKES" data-name="Trofeu 0 Layer0 5 1 STROKES" class="cls-1" d="M68.46,8H79.29V21.31a14.25,14.25,0,0,1-2,7.31,19.73,19.73,0,0,1-5.59,6,27.78,27.78,0,0,1-8.27,4l-.61.18"/><path id="Trofeu_0_Layer0_6_1_STROKES" data-name="Trofeu 0 Layer0 6 1 STROKES" class="cls-1" d="M14.83,8H4V21.31a14.17,14.17,0,0,0,2.05,7.31,19.57,19.57,0,0,0,5.58,6,27.9,27.9,0,0,0,8.27,4l.61.18"/><line class="cls-1" x1="66.04" y1="68.32" x2="16.28" y2="68.32"/><line class="cls-1" x1="76.04" y1="75.32" x2="6.28" y2="75.32"/></g></g></svg>