<svg xmlns="http://www.w3.org/2000/svg" viewBox="0 0 87.8 87.8"><defs><style>.cls-1,.cls-2,.cls-3{fill:none;}.cls-2,.cls-3{stroke:#fff;stroke-miterlimit:10;}.cls-2{stroke-width:7.16px;}.cls-3{stroke-width:3.58px;}</style></defs><title>23_3c</title><g id="Layer_2" data-name="Layer 2"><g id="Layer_1-2" data-name="Layer 1"><g id="gear_0_Layer0_0_FILL" data-name="gear 0 Layer0 0 FILL"><path class="cls-1" d="M63.37,15.55l-3.62,3.63a29.08,29.08,0,0,0-9.59-3.92V3.58h-6a6.28,6.28,0,0,0-4.6,1.9,6.28,6.28,0,0,0-1.91,4.6V15.3a29.34,29.34,0,0,0-9.54,3.94L19.81,11l-4.25,4.26a6.48,6.48,0,0,0,0,9.19L19.19,28a28.93,28.93,0,0,0-4.07,9.59H3.58v6a6.49,6.49,0,0,0,6.5,6.5H15a29.29,29.29,0,0,0,4,9.83l-8,8,4.26,4.27a6.24,6.24,0,0,0,4.59,1.9,6.26,6.26,0,0,0,4.6-1.9l3.3-3.3a29.6,29.6,0,0,0,9.92,4.19V84.22h6a6.5,6.5,0,0,0,6.5-6.51V73.16a29,29,0,0,0,10-4.16L68,76.84l4.27-4.27a6.52,6.52,0,0,0,0-9.2L69,60.1a29,29,0,0,0,4-9.94H84.22v-6a6.52,6.52,0,0,0-6.51-6.51H72.83A29,29,0,0,0,68.7,28l8.14-8.14-4.27-4.26a6.52,6.52,0,0,0-9.2,0Z"/></g><path id="gear_0_Layer0_0_1_STROKES" data-name="gear 0 Layer0 0 1 STROKES" class="cls-2" d="M84.22,50.16v-6a6.52,6.52,0,0,0-6.51-6.51H72.83A29,29,0,0,0,68.7,28l8.14-8.14-4.27-4.26a6.52,6.52,0,0,0-9.2,0l-3.62,3.63a29.08,29.08,0,0,0-9.59-3.92V3.58h-6a6.28,6.28,0,0,0-4.6,1.9,6.28,6.28,0,0,0-1.91,4.6V15.3a29.34,29.34,0,0,0-9.54,3.94L19.81,11l-4.25,4.26a6.48,6.48,0,0,0,0,9.19L19.19,28a28.93,28.93,0,0,0-4.07,9.59H3.58v6a6.49,6.49,0,0,0,6.5,6.5H15a29.29,29.29,0,0,0,4,9.83l-8,8,4.26,4.27a6.24,6.24,0,0,0,4.59,1.9,6.26,6.26,0,0,0,4.6-1.9l3.3-3.3a29.6,29.6,0,0,0,9.92,4.19V84.22h6a6.5,6.5,0,0,0,6.5-6.51V73.16a29,29,0,0,0,10-4.16L68,76.84l4.27-4.27a6.52,6.52,0,0,0,0-9.2L69,60.1a29,29,0,0,0,4-9.94Z"/><path id="gear_0_Layer0_1_1_STROKES" data-name="gear 0 Layer0 1 1 STROKES" class="cls-3" d="M61.91,44.17A17.69,17.69,0,0,1,37.32,60.46a17.66,17.66,0,0,1-9.41-9.41,17.75,17.75,0,0,1,0-13.77A17.71,17.71,0,0,1,44.22,26.47a17.78,17.78,0,0,1,12.51,5.18,17.66,17.66,0,0,1,3.78,5.63A17.47,17.47,0,0,1,61.91,44.17Z"/></g></g></svg>