<svg xmlns="http://www.w3.org/2000/svg" viewBox="0 0 116.87 118.08"><defs><style>.cls-1,.cls-2{fill:none;stroke:#fff;stroke-miterlimit:10;}.cls-1{stroke-width:8px;}.cls-2{stroke-width:4px;}</style></defs><title>23_4c</title><g id="Layer_2" data-name="Layer 2"><g id="Layer_1-2" data-name="Layer 1"><path id="Duplicate_Items_Folder_multipleWays_0_Layer0_0_1_STROKES" data-name="Duplicate Items Folder multipleWays 0 Layer0 0 1 STROKES" class="cls-1" d="M84.47,59.07a15.87,15.87,0,0,1-4.64,11.22,16,16,0,0,1-5,3.4A15.87,15.87,0,0,1,62.42,44.45a15.9,15.9,0,0,1,12.36,0,15.83,15.83,0,0,1,5,3.4,15.87,15.87,0,0,1,4.64,11.22Z"/><path id="Duplicate_Items_Folder_multipleWays_0_Layer0_1_1_STROKES" data-name="Duplicate Items Folder multipleWays 0 Layer0 1 1 STROKES" class="cls-2" d="M79.94,13.17a10.81,10.81,0,0,1-3.28,7.92,11.2,11.2,0,0,1-15.8,0,10.8,10.8,0,0,1-3.27-7.92,10.75,10.75,0,0,1,3.27-7.89,11.15,11.15,0,0,1,15.8,0A10.76,10.76,0,0,1,79.94,13.17Z"/><path id="Duplicate_Items_Folder_multipleWays_0_Layer0_2_1_STROKES" data-name="Duplicate Items Folder multipleWays 0 Layer0 2 1 STROKES" class="cls-2" d="M67.72,41.53l.16-17.26"/><path id="Duplicate_Items_Folder_multipleWays_0_Layer0_3_1_STROKES" data-name="Duplicate Items Folder multipleWays 0 Layer0 3 1 STROKES" class="cls-2" d="M50.56,110.6A11.18,11.18,0,0,0,46.7,95.28a11.19,11.19,0,0,0-15.32,3.87,11.18,11.18,0,0,0,3.86,15.32,11.17,11.17,0,0,0,15.32-3.87Z"/><path id="Duplicate_Items_Folder_multipleWays_0_Layer0_4_1_STROKES" data-name="Duplicate Items Folder multipleWays 0 Layer0 4 1 STROKES" class="cls-2" d="M58.91,74.34,45.52,96.86"/><path id="Duplicate_Items_Folder_multipleWays_0_Layer0_5_1_STROKES" data-name="Duplicate Items Folder multipleWays 0 Layer0 5 1 STROKES" class="cls-2" d="M92.87,99.84a11.14,11.14,0,1,1,7.89,3.28A10.74,10.74,0,0,1,92.87,99.84Z"/><path id="Duplicate_Items_Folder_multipleWays_0_Layer0_6_1_STROKES" data-name="Duplicate Items Folder multipleWays 0 Layer0 6 1 STROKES" class="cls-2" d="M80.62,71.11,93.84,84.72"/><path id="Duplicate_Items_Folder_multipleWays_0_Layer0_7_1_STROKES" data-name="Duplicate Items Folder multipleWays 0 Layer0 7 1 STROKES" class="cls-2" d="M111.59,34.74a11.17,11.17,0,0,1-15.79,0,10.74,10.74,0,0,1-3.28-7.9,11.18,11.18,0,0,1,11.17-11.17,10.73,10.73,0,0,1,7.9,3.27,10.74,10.74,0,0,1,3.28,7.9A10.74,10.74,0,0,1,111.59,34.74Z"/><path id="Duplicate_Items_Folder_multipleWays_0_Layer0_8_1_STROKES" data-name="Duplicate Items Folder multipleWays 0 Layer0 8 1 STROKES" class="cls-2" d="M82.9,46.05,97,33.21"/><path id="Duplicate_Items_Folder_multipleWays_0_Layer0_9_1_STROKES" data-name="Duplicate Items Folder multipleWays 0 Layer0 9 1 STROKES" class="cls-2" d="M13.17,70.91a10.76,10.76,0,0,0,7.9-3.27,11.15,11.15,0,0,0,0-15.8,10.73,10.73,0,0,0-7.9-3.28,10.72,10.72,0,0,0-7.89,3.28,11.15,11.15,0,0,0,0,15.8A10.75,10.75,0,0,0,13.17,70.91Z"/><path id="Duplicate_Items_Folder_multipleWays_0_Layer0_10_1_STROKES" data-name="Duplicate Items Folder multipleWays 0 Layer0 10 1 STROKES" class="cls-2" d="M50.72,59.52H22.38"/></g></g></svg>