<svg xmlns="http://www.w3.org/2000/svg" viewBox="0 0 60.22 81.48"><defs><style>.cls-1,.cls-3,.cls-4{fill:none;}.cls-1,.cls-4{stroke:#fff;stroke-miterlimit:3;}.cls-1{stroke-width:8px;}.cls-2{fill:#fff;}.cls-4{stroke-width:4px;}</style></defs><title>23_6c</title><g id="Layer_2" data-name="Layer 2"><g id="Layer_1-2" data-name="Layer 1"><path class="cls-1" d="M33.92,63.87H47.15L55.62,4H11.35L4.09,55.27a7.34,7.34,0,0,0,7.48,8.6H27.44"/><g id="linhas_0_Layer0_0_FILL" data-name="linhas 0 Layer0 0 FILL"><path class="cls-2" d="M18.35,15.06l-.56,4h28l.56-4Z"/></g><g id="linhas_0_Layer0_1_FILL" data-name="linhas 0 Layer0 1 FILL"><path class="cls-2" d="M17.22,23.07l-.56,4H44.6l.56-4Z"/></g><g id="linhas_0_Layer0_2_FILL" data-name="linhas 0 Layer0 2 FILL"><path class="cls-2" d="M16.09,31.09l-.56,4H43.47l.56-4Z"/></g><g id="dtlh_0_Layer0_0_FILL" data-name="dtlh 0 Layer0 0 FILL"><path class="cls-3" d="M39,58.13l.45-2.93,2-2.36-1.35-2.37.37-2.91-2.62-.93-1.44-2.32-2.91.84-2.71-.84-2.08,2.32-2.92.93-.45,2.91-2,2.37L24.7,55.2l-.37,2.93,2.65.93.92,1.5L25.66,76.42l3.68-3.23,2.8,3.23,2.17-15.36-.28.32-2.68-.86-2.94.86,2.94-.86,2.68.86.28-.32.07-.5-.07.5,1.81-2Z"/></g><path id="dtlh_0_Layer0_0_1_STROKES" data-name="dtlh 0 Layer0 0 1 STROKES" class="cls-4" d="M34.31,61.06,32.14,76.42l-2.8-3.23-3.68,3.23L27.9,60.56,27,59.06l-2.65-.93.37-2.93-1.34-2.36,2-2.37.45-2.91,2.92-.93,2.08-2.32,2.71.84,2.91-.84,1.44,2.32,2.62.93-.37,2.91,1.35,2.37-2,2.36L39,58.13l-2.89.93-1.81,2,.07-.5m-.07.5-.28.32-2.68-.86-2.94.86"/></g></g></svg>