<?xml version="1.0" encoding="utf-8"?>
<!-- Generator: Adobe Illustrator 23.0.3, SVG Export Plug-In . SVG Version: 6.00 Build 0)  -->
<svg version="1.1" id="Layer_1" xmlns="http://www.w3.org/2000/svg" xmlns:xlink="http://www.w3.org/1999/xlink" x="0px" y="0px"
	 viewBox="0 0 60.2 81.5" style="enable-background:new 0 0 60.2 81.5;" xml:space="preserve">
<style type="text/css">
	.st0{fill:#FFFFFF;}
</style>
<g>
	<g id="Layer_1-2">
		<g id="icone_certificado_0_Layer0_0_1_STROKES">
			<path class="st0" d="M7.9,0L0.1,54.6C0,55.4,0,56.2,0,56.9c0.2,6.1,5.3,11,11.3,11h39.3L60.2,0H7.9z M43.7,59.9H11.4
				C9.6,59.9,8,58.5,8,56.6C8,56.4,8,56.2,8,56l6.8-48H51L43.7,59.9z"/>
		</g>
		<g id="linhas_0_Layer0_0_FILL">
			<g>
				<path class="st0" d="M18.4,15.1l-0.6,4h28l0.6-4L18.4,15.1z"/>
			</g>
		</g>
		<g id="linhas_0_Layer0_1_FILL">
			<g>
				<path class="st0" d="M17.2,23.1l-0.6,4h27.9l0.6-4H17.2z"/>
			</g>
		</g>
		<g id="linhas_0_Layer0_2_FILL">
			<g>
				<path class="st0" d="M16.1,31.1l-0.6,4h27.9l0.6-4H16.1z"/>
			</g>
		</g>
		<g id="dtlh_0_Layer0_0_FILL">
			<g>
				<path class="st0" d="M40.1,50.5l0.4-2.9l-2.6-0.9l-1.4-2.3l-2.9,0.8l-2.7-0.8l-2.1,2.3l-2.9,0.9l-0.4,2.9l-2,2.4l1.4,2.4
					l-0.4,2.9l2.6,0.9l0.5,0.8l0.4,0.7l-1,7.3l-1.2,8.5l3.7-3.2l2.8,3.2l1.2-8.5l1-6.8l1.1-1.2l0.7-0.8l2.9-0.9l0.5-2.9l2-2.4
					L40.1,50.5z M37.6,54.3l-0.4,2.3L35,57.3l-1.6,1.8l-2-0.6L29.3,59l-1-1.6l-1.8-0.6l0.3-2l-1-1.7l1.5-1.7l0.3-2.2l2.3-0.7
					l1.6-1.8l2.1,0.6l2-0.6l1,1.6l1.8,0.6l-0.3,2l1,1.7L37.6,54.3z"/>
			</g>
		</g>
		<g id="dtlh_0_Layer0_0_1_STROKES">
			<path class="st0" d="M42.2,50.1l0.5-3.9L39.2,45l-1.9-3l-3.8,1.1l-3.4-1l-2.6,2.9L24,46l-0.5,3.6l-2.5,3l1.7,3l-0.5,3.9l1.1,0.4
				l2.4,0.8l0.2,0.3l-1,6.9l-1.9,13.6l6.2-5.5l4.4,5l1.9-13.2l0.8-5.9l1-1.1l2.9-0.9l0.7-0.2l0.6-3.6l2.5-3L42.2,50.1z M31.3,67.9
				l-0.6,3.9l-1.2-1.4l-1.1,1l0.5-3.5l0.7-4.8l1.8-0.5l0.7,0.2L31.3,67.9z M33.4,59.1l-2-0.6L29.3,59l-1-1.6l-1.8-0.6l0.3-2l-1-1.7
				l1.5-1.7l0.3-2.2l2.3-0.7l1.6-1.8l2.1,0.6l2-0.6l1,1.6l1.8,0.6l-0.3,2l1,1.7l-1.5,1.7l-0.4,2.3L35,57.3L33.4,59.1z"/>
		</g>
	</g>
</g>
</svg>
