<?xml version="1.0" encoding="utf-8"?>
<!-- Generator: Adobe Illustrator 23.0.3, SVG Export Plug-In . SVG Version: 6.00 Build 0)  -->
<svg version="1.1" id="Layer_1" xmlns="http://www.w3.org/2000/svg" xmlns:xlink="http://www.w3.org/1999/xlink" x="0px" y="0px"
	 viewBox="0 0 88.9 97.2" style="enable-background:new 0 0 88.9 97.2;" xml:space="preserve">
<style type="text/css">
	.st0{fill:#FFFFFF;}
	.st1{fill:none;stroke:#63C932;stroke-width:8;stroke-miterlimit:10;}
	.st2{fill:#63C932;}
</style>
<g>
	<g id="Layer_1-2">
		<g id="prancheta_0_Layer0_0_FILL">
			<path class="st0" d="M4.2,82.6c-0.4,2.5,0,5.2,1.2,7.4c1.2,2.1,2.8,3.2,4.8,3.2h62.6l11.6-81.5H14.2L4.2,82.6z"/>
		</g>
		<path id="prancheta_0_Layer0_0_1_STROKES" class="st1" d="M72.8,93.2H10.1c-2,0-3.6-1.1-4.8-3.2c-1.2-2.3-1.6-4.9-1.2-7.4
			l10.1-70.9h70.1L72.8,93.2z"/>
		<g id="prancheta_0_Layer0_1_FILL">
			<path class="st0" d="M62,15.4L63.6,4H37.2l-1.6,11.4H62z"/>
		</g>
		<path id="prancheta_0_Layer0_1_1_STROKES" class="st1" d="M61.9,15.4H35.5L37.2,4h26.4L61.9,15.4z"/>
		<g id="prancheta_0_Layer0_2_FILL">
			<path class="st2" d="M29.8,73.2l-0.3,2.3h38l0.3-2.3H29.8 M32.7,51.2l-0.3,2.3h38l0.3-2.3H32.7 M31.3,61.9L31,64.2h38l0.3-2.3
				H31.3 M34.3,40.6L34,42.9h38l0.3-2.3H34.3 M35.9,28.5l-0.3,2.3h38l0.3-2.3H35.9z"/>
		</g>
		<path id="prancheta_0_Layer0_3_1_STROKES" class="st2" d="M23.5,26.6h6l-0.8,5.9h-5c-0.2,0-0.5-0.1-0.6-0.3
			c-0.2-0.2-0.3-0.4-0.2-0.7L23.5,26.6z"/>
		<path id="prancheta_0_Layer0_4_1_STROKES" class="st2" d="M22,37.5h6l-0.8,5.9h-5c-0.5,0-0.9-0.4-0.9-0.9c0,0,0,0,0-0.1L22,37.5z"
			/>
		<path id="prancheta_0_Layer0_5_1_STROKES" class="st2" d="M20.5,48.6h6l-0.8,5.9h-5c-0.2,0-0.5-0.1-0.6-0.3
			c-0.2-0.2-0.3-0.4-0.2-0.7L20.5,48.6z"/>
		<path id="prancheta_0_Layer0_6_1_STROKES" class="st2" d="M18.8,59.3h6l-0.8,5.9h-5c-0.2,0-0.5-0.1-0.6-0.3
			c-0.2-0.2-0.2-0.4-0.2-0.7L18.8,59.3z"/>
		<path id="prancheta_0_Layer0_7_1_STROKES" class="st2" d="M17.3,70.4h6l-0.8,5.9h-5c-0.2,0-0.5-0.1-0.6-0.3
			c-0.2-0.2-0.3-0.4-0.2-0.7L17.3,70.4z"/>
	</g>
</g>
</svg>
