<?xml version="1.0" encoding="utf-8"?>
<!-- Generator: Adobe Illustrator 23.0.3, SVG Export Plug-In . SVG Version: 6.00 Build 0)  -->
<svg version="1.1" id="Layer_1" xmlns="http://www.w3.org/2000/svg" xmlns:xlink="http://www.w3.org/1999/xlink" x="0px" y="0px"
	 viewBox="0 0 101.1 83.8" style="enable-background:new 0 0 101.1 83.8;" xml:space="preserve">
<style type="text/css">
	.st0{fill:#146E37;}
	.st1{fill:#FFFFFF;}
</style>
<text transform="matrix(1 0 0 1 683 384)" style="font-family:'MyriadPro-Regular'; font-size:12px;">&lt;br&gt;</text>
<g>
	<g id="Layer_1-2">
		<g id="pasta_Cadeado_0_Layer0_0_MEMBER_0_1_STROKES">
			<path class="st0" d="M18.8,15.3l-0.2,1.5l-0.3,2.5l-0.3,2.5l-0.2,1.4l0,0.1H92l-7,52.5H11.4c0.1,0.5,0.3,1,0.5,1.5
				c0.4,0.9,0.9,1.8,1.5,2.5c0.8,1,1.8,1.8,2.8,2.5c1.6,1,3.4,1.5,5.4,1.5h70.2l9.2-68.5H18.8z"/>
		</g>
		<g id="pasta_Cadeado_0_Layer0_0_MEMBER_1_FILL">
			<g>
				<path class="st1" d="M51.5,44.6c-0.1,1-0.5,1.9-1,2.8c-0.6,0.8-1.3,1.6-2.1,2.1l0.7,10.9H37.2l3.2-10.7
					c-0.8-0.6-1.4-1.3-1.7-2.2c-0.4-0.9-0.5-1.9-0.4-2.9c0.2-1.7,1.1-3.3,2.5-4.4c1.3-1.2,3.1-1.8,4.9-1.8c1.7-0.1,3.3,0.6,4.5,1.8
					C51.2,41.4,51.7,43,51.5,44.6z"/>
				<path class="st1" d="M11.2,19.3L4.1,72.4c-0.3,1.9,0.3,3.8,1.6,5.2c1.2,1.5,3.1,2.3,5,2.3h66.7l0.5-4l7-52.5l0.5-4H11.2z
					 M10.5,75.8c-0.7,0-1.4-0.3-1.8-0.8l-0.1-0.1c-0.5-0.5-0.7-1.2-0.6-2l6.6-49.6h66.2l-7,52.5H10.5z"/>
				<path class="st1" d="M9,16.8L1.6,72c-0.4,2.6,0.4,5.3,2.1,7.2c1.7,2,4.1,3.1,6.7,3.1h69.1l0.9-6.5l7-52.5l0.9-6.5H9z M82.3,23.3
					l-7,52.5l-0.2,1.5H10.6c-1.2,0-2.3-0.5-3.1-1.4c-0.8-0.9-1.1-2-0.9-3.2l6.8-50.9h69.2L82.3,23.3z"/>
			</g>
		</g>
		<g id="pasta_Cadeado_0_Layer0_0_MEMBER_1_1_STROKES">
			<path class="st0" d="M7.7,15.3L0.1,71.7c-0.5,3.1,0.4,6.1,2.5,8.5c2,2.3,4.8,3.6,7.8,3.6h70.4l1.1-8l7-52.5l1.1-8H7.7z
				 M14.7,23.3h66.2l-7,52.5H10.5c-0.7,0-1.4-0.3-1.8-0.8l-0.1-0.1c-0.5-0.5-0.7-1.2-0.6-2L14.7,23.3z"/>
		</g>
		<g id="pasta_Cadeado_0_Layer0_0_MEMBER_2_1_STROKES">
			<path class="st0" d="M42.5,2.9C41,1,38.6-0.1,36.2,0H25.6c-2.3,0-4.4,0.9-6.1,2.3c-1.8,1.4-3,3.4-3.5,5.6l-1.1,7.4l-0.2,1.5
				l-0.4,2.5l-0.4,2.5l-0.2,1.4H42l0.2-1.4l0.3-2.5l0.4-2.5l0.2-1.5l0.8-5.7C44.5,7.3,44,4.9,42.5,2.9z M23.8,9.6
				c0.1-0.4,0.4-0.8,0.7-1l0.2-0.2c0.3-0.3,0.7-0.4,1-0.4h10.4l-1,7.2H22.9L23.8,9.6z"/>
		</g>
		<g id="pasta_Cadeado_0_Layer0_1_FILL">
			<g>
				<path class="st0" d="M51.5,44.6c-0.1,1-0.5,1.9-1,2.8c-0.6,0.8-1.3,1.6-2.1,2.1l0.7,10.9H37.2l3.2-10.7
					c-0.8-0.6-1.4-1.3-1.7-2.2c-0.4-0.9-0.5-1.9-0.4-2.9c0.2-1.7,1.1-3.3,2.5-4.4c1.3-1.2,3.1-1.8,4.9-1.8c1.7-0.1,3.3,0.6,4.5,1.8
					C51.2,41.4,51.7,43,51.5,44.6z"/>
			</g>
		</g>
	</g>
</g>
</svg>
