<?xml version="1.0" encoding="utf-8"?>
<!-- Generator: Adobe Illustrator 23.0.3, SVG Export Plug-In . SVG Version: 6.00 Build 0)  -->
<svg version="1.1" id="Layer_1" xmlns="http://www.w3.org/2000/svg" xmlns:xlink="http://www.w3.org/1999/xlink" x="0px" y="0px"
	 viewBox="0 0 101.1 83.8" style="enable-background:new 0 0 101.1 83.8;" xml:space="preserve">
<style type="text/css">
	.st0{fill:none;stroke:#63C932;stroke-width:8;stroke-miterlimit:10;}
	.st1{fill:#FFFFFF;stroke:#FFFFFF;stroke-width:5;stroke-miterlimit:10;}
	.st2{fill:#63C932;}
</style>
<g>
	<g id="Layer_1-2">
		<path id="pasta_Cadeado_0_Layer0_0_MEMBER_0_1_STROKES" class="st0" d="M88.4,79.8H21.7c-3.6,0-6.6-2.9-6.6-6.6
			c0-0.3,0-0.6,0.1-0.9l7.1-53.1h74.2L88.4,79.8z"/>
		<g id="pasta_Cadeado_0_Layer0_0_MEMBER_1_FILL">
			<path class="st1" d="M77.3,79.8l8.1-60.5H11.2L4.1,72.4c-0.3,1.9,0.3,3.8,1.6,5.2c1.2,1.5,3.1,2.3,5,2.3H77.3z"/>
		</g>
		<path id="pasta_Cadeado_0_Layer0_0_MEMBER_1_1_STROKES" class="st0" d="M77.3,79.8H10.6c-1.9,0-3.7-0.8-4.9-2.3
			c-1.3-1.4-1.9-3.3-1.6-5.2l7.1-53.1h74.2L77.3,79.8z"/>
		<path id="pasta_Cadeado_0_Layer0_0_MEMBER_2_1_STROKES" class="st0" d="M38.5,19.2H18.3l1.5-10.3c0.3-1.4,1.1-2.6,2.2-3.4
			C23,4.5,24.3,4,25.7,4h10.6c1.2-0.1,2.4,0.5,3.1,1.4c0.7,1,1,2.2,0.7,3.4L38.5,19.2z"/>
		<g id="pasta_Cadeado_0_Layer0_1_FILL">
			<path class="st2" d="M50,40.2c-1.2-1.2-2.8-1.9-4.5-1.8c-1.8,0-3.5,0.6-4.9,1.8c-1.4,1.1-2.2,2.7-2.5,4.4c-0.1,1,0,2,0.4,2.9
				c0.4,0.9,1,1.6,1.7,2.2l-3.2,10.7h11.9l-0.7-10.9c0.8-0.6,1.5-1.3,2.1-2.1c0.5-0.8,0.9-1.8,1-2.8C51.7,43,51.1,41.3,50,40.2z"/>
		</g>
	</g>
</g>
</svg>
