<?xml version="1.0" encoding="utf-8"?>
<!-- Generator: Adobe Illustrator 23.0.3, SVG Export Plug-In . SVG Version: 6.00 Build 0)  -->
<svg version="1.1" id="Layer_1" xmlns="http://www.w3.org/2000/svg" xmlns:xlink="http://www.w3.org/1999/xlink" x="0px" y="0px"
	 viewBox="0 0 88.9 97.2" style="enable-background:new 0 0 88.9 97.2;" xml:space="preserve">
<style type="text/css">
	.st0{fill:#146E37;}
</style>
<title>25_2b</title>
<g>
	<g id="Layer_1-2">
		<g id="prancheta_0_Layer0_0_FILL">
			<g>
				<path class="st0" d="M17.3,70.4h6l-0.8,5.9h-5c-0.2,0-0.5-0.1-0.6-0.3c-0.2-0.2-0.3-0.5-0.2-0.7L17.3,70.4z"/>
				<path class="st0" d="M18.8,59.3h6l-0.8,5.9h-5c-0.3,0-0.5-0.1-0.6-0.3c-0.2-0.2-0.2-0.5-0.2-0.7L18.8,59.3z"/>
				<path class="st0" d="M20.5,48.6h6l-0.8,5.9h-5c-0.3,0-0.5-0.1-0.6-0.3c-0.2-0.2-0.3-0.4-0.2-0.7L20.5,48.6z"/>
				<path class="st0" d="M22,37.5h6l-0.8,5.9h-5c-0.5,0-0.9-0.5-0.8-0.9v-0.1L22,37.5z"/>
				<path class="st0" d="M29.5,26.6l-0.8,5.9h-5c-0.3,0-0.5-0.1-0.6-0.3c-0.2-0.2-0.3-0.5-0.2-0.7l0.7-4.9H29.5z"/>
				<polygon class="st0" points="67.8,73.2 67.5,75.5 29.5,75.5 29.8,73.2 				"/>
				<polygon class="st0" points="31.3,61.9 69.3,61.9 69,64.2 31,64.2 				"/>
				<polygon class="st0" points="32.7,51.2 70.7,51.2 70.4,53.5 32.4,53.5 				"/>
				<polygon class="st0" points="34.3,40.6 72.3,40.6 72,42.9 34,42.9 				"/>
				<polygon class="st0" points="73.9,28.5 73.6,30.8 35.6,30.8 35.9,28.5 				"/>
				<path class="st0" d="M14.2,11.7L4.2,82.6c-0.5,2.5,0,5.2,1.2,7.4c1.2,2.1,2.8,3.2,4.8,3.2h62.6l11.6-81.5H14.2z M69.3,89.2H10.1
					c-0.2,0-0.7,0-1.3-1.1c-0.8-1.5-1.1-3.2-0.8-4.8l9.6-67.6h13.8l-0.5,3.8h34.5l0.5-3.8h13.8L69.3,89.2z"/>
			</g>
		</g>
		<g id="prancheta_0_Layer0_0_1_STROKES">
			<path class="st0" d="M10.8,7.7L0.2,82c-0.6,3.4,0,6.9,1.7,10c1.9,3.4,4.8,5.3,8.3,5.3h66.1L88.9,7.7H10.8z M10.1,89.2
				c-0.2,0-0.7,0-1.3-1.1c-0.8-1.5-1.1-3.2-0.8-4.8l9.6-67.6h62L69.3,89.2H10.1z"/>
		</g>
		<g id="prancheta_0_Layer0_1_FILL">
			<g>
				<path class="st0" d="M62,15.4L63.6,4H37.2l-1.6,11.4H62z"/>
			</g>
		</g>
		<g id="prancheta_0_Layer0_1_1_STROKES">
			<path class="st0" d="M33.7,0l-1.1,7.7l-1.1,8l-0.5,3.8h34.5l0.5-3.8l1.1-8L68.2,0H33.7z M58.5,11.4H40.2L40.6,8H59L58.5,11.4z"/>
		</g>
		<g id="prancheta_0_Layer0_2_FILL">
			<g>
				<path class="st0" d="M35.9,28.5l-0.3,2.3h38l0.3-2.3H35.9z M34.3,40.6L34,42.9h38l0.3-2.3H34.3z M31.3,61.9L31,64.2h38l0.3-2.3
					H31.3z M32.7,51.2l-0.3,2.3h38l0.3-2.3H32.7z M29.8,73.2l-0.3,2.3h38l0.3-2.3H29.8z"/>
			</g>
		</g>
		<g id="prancheta_0_Layer0_3_1_STROKES">
			<path class="st0" d="M29.5,26.6l-0.8,5.9h-5c-0.3,0-0.5-0.1-0.6-0.3c-0.2-0.2-0.3-0.5-0.2-0.7l0.7-4.9H29.5z"/>
		</g>
		<g id="prancheta_0_Layer0_4_1_STROKES">
			<path class="st0" d="M28,37.5l-0.8,5.9h-5c-0.5,0-0.9-0.5-0.8-0.9v-0.1l0.7-4.9H28z"/>
		</g>
		<g id="prancheta_0_Layer0_5_1_STROKES">
			<path class="st0" d="M26.5,48.6l-0.8,5.9h-5c-0.3,0-0.5-0.1-0.6-0.3c-0.2-0.2-0.3-0.4-0.2-0.7l0.7-4.9H26.5z"/>
		</g>
		<g id="prancheta_0_Layer0_6_1_STROKES">
			<path class="st0" d="M24.8,59.3l-0.8,5.9h-5c-0.3,0-0.5-0.1-0.6-0.3c-0.2-0.2-0.2-0.5-0.2-0.7l0.7-4.9H24.8z"/>
		</g>
		<g id="prancheta_0_Layer0_7_1_STROKES">
			<path class="st0" d="M23.3,70.4l-0.8,5.9h-5c-0.2,0-0.5-0.1-0.6-0.3c-0.2-0.2-0.3-0.5-0.2-0.7l0.7-4.9H23.3z"/>
		</g>
	</g>
</g>
</svg>
