<svg xmlns="http://www.w3.org/2000/svg" viewBox="0 0 127.71 96.33"><defs><style>.cls-1{fill:#fff;}.cls-2,.cls-3,.cls-5{fill:none;stroke:#63c932;stroke-miterlimit:10;}.cls-2{stroke-width:8px;}.cls-3,.cls-5{stroke-width:4px;}.cls-4{fill:#63c932;}.cls-5{stroke-linecap:round;}</style></defs><title>28_1</title><g id="Layer_2" data-name="Layer 2"><g id="Layer_1-2" data-name="Layer 1"><g id="Duplicate_Items_Folder_monitor3_0_Layer0_0_FILL" data-name="Duplicate Items Folder monitor3 0 Layer0 0 FILL"><path class="cls-1" d="M79.76,91,73.31,63.79H50.55L39.92,86A3.55,3.55,0,0,0,43.12,91Z"/></g><path id="Duplicate_Items_Folder_monitor3_0_Layer0_0_1_STROKES" data-name="Duplicate Items Folder monitor3 0 Layer0 0 1 STROKES" class="cls-2" d="M79.76,91H43.12A3.55,3.55,0,0,1,39.92,86L50.55,63.79H73.31Z"/><g id="Duplicate_Items_Folder_monitor3_0_Layer0_1_FILL" data-name="Duplicate Items Folder monitor3 0 Layer0 1 FILL"><path class="cls-1" d="M12.85,5.78a7,7,0,0,0-2.39,4.44L4.07,57.09a7,7,0,0,0,1.71,5.72,6.91,6.91,0,0,0,5.42,2.45h98.9A7.19,7.19,0,0,0,117.24,59l6.39-46.87a6.91,6.91,0,0,0-1.71-5.7A6.88,6.88,0,0,0,116.5,4H17.59A7,7,0,0,0,12.85,5.78Z"/></g><path id="Duplicate_Items_Folder_monitor3_0_Layer0_1_1_STROKES" data-name="Duplicate Items Folder monitor3 0 Layer0 1 1 STROKES" class="cls-2" d="M110.11,65.26H11.21A6.89,6.89,0,0,1,5.79,62.8a6.9,6.9,0,0,1-1.72-5.71l6.4-46.87A7.17,7.17,0,0,1,17.6,4h98.9a6.86,6.86,0,0,1,5.42,2.47,6.88,6.88,0,0,1,1.72,5.7L117.24,59a7.19,7.19,0,0,1-7.13,6.22Z"/><path id="Duplicate_Items_Folder_monitor3_0_Layer0_2_1_STROKES" data-name="Duplicate Items Folder monitor3 0 Layer0 2 1 STROKES" class="cls-3" d="M5.87,49.21H119.15"/><path id="Duplicate_Items_Folder_monitor3_0_Layer0_3_1_STROKES" data-name="Duplicate Items Folder monitor3 0 Layer0 3 1 STROKES" class="cls-3" d="M41.69,84.05H79.13"/><g id="Duplicate_Items_Folder_monitor3_0_Layer0_4_FILL" data-name="Duplicate Items Folder monitor3 0 Layer0 4 FILL"><path class="cls-4" d="M63.78,56.63a3.1,3.1,0,0,0-1-2.3,3.24,3.24,0,0,0-5.53,2.3,3.24,3.24,0,0,0,5.53,2.28A3.07,3.07,0,0,0,63.78,56.63Z"/></g><g id="Duplicate_Items_Folder_monitor3_0_Layer0_5_FILL" data-name="Duplicate Items Folder monitor3 0 Layer0 5 FILL"><path class="cls-1" d="M22.74,36.05a4,4,0,0,0-2.93,1.29,5.36,5.36,0,0,0-1.5,3.21L12.78,85.46A6.38,6.38,0,0,0,14,90.25a4.67,4.67,0,0,0,3.9,2.08H43.42a4,4,0,0,0,2.94-1.28,5.49,5.49,0,0,0,1.51-3.22L53.49,42a5.55,5.55,0,0,0-1.05-4.17,4.08,4.08,0,0,0-3.39-1.81Z"/></g><path id="Duplicate_Items_Folder_monitor3_0_Layer0_5_1_STROKES" data-name="Duplicate Items Folder monitor3 0 Layer0 5 1 STROKES" class="cls-2" d="M43.42,92.33H17.88A4.7,4.7,0,0,1,14,90.25a6.38,6.38,0,0,1-1.2-4.79l5.53-44.91a5.36,5.36,0,0,1,1.5-3.21,4,4,0,0,1,2.93-1.29H49.05a4,4,0,0,1,3.39,1.81A5.55,5.55,0,0,1,53.49,42l-5.62,45.8a5.43,5.43,0,0,1-1.51,3.22A4,4,0,0,1,43.42,92.33Z"/><g id="Duplicate_Items_Folder_monitor3_0_Layer0_6_FILL" data-name="Duplicate Items Folder monitor3 0 Layer0 6 FILL"><path class="cls-4" d="M32.82,78a3.78,3.78,0,0,0-5.35,0,3.79,3.79,0,0,0,0,5.34,3.79,3.79,0,0,0,6.46-2.67A3.61,3.61,0,0,0,32.82,78Z"/></g><path id="Duplicate_Items_Folder_monitor3_0_Layer0_7_1_STROKES" data-name="Duplicate Items Folder monitor3 0 Layer0 7 1 STROKES" class="cls-5" d="M29.76,43.65H39.5"/></g></g></svg>