<?xml version="1.0" encoding="utf-8"?>
<!-- Generator: Adobe Illustrator 23.0.3, SVG Export Plug-In . SVG Version: 6.00 Build 0)  -->
<svg version="1.1" id="Layer_1" xmlns="http://www.w3.org/2000/svg" xmlns:xlink="http://www.w3.org/1999/xlink" x="0px" y="0px"
	 viewBox="0 0 100.4 107.6" style="enable-background:new 0 0 100.4 107.6;" xml:space="preserve">
<style type="text/css">
	.st0{fill:#FFFFFF;}
</style>
<title>31_1</title>
<g>
	<g id="Layer_1-2">
		<g id="info_0_Layer0_0_FILL">
			<g>
				<rect x="45.3" y="35.9" class="st0" width="11.2" height="37.4"/>
				<path class="st0" d="M56.6,22.6v4.1c0,2.2-1.1,3.3-3.3,3.3h-5c-2.2,0-3.3-1.1-3.3-3.3v-4.1c0-2.2,1.1-3.3,3.3-3.3h5
					C55.5,19.4,56.6,20.5,56.6,22.6z"/>
				<path class="st0" d="M92.9,8.9c-2.6-3.2-6.6-5-10.8-4.9h-56c-3.4,0-6.7,1.2-9.3,3.5c-2.6,2.2-4.3,5.3-4.8,8.7L4.2,72.6
					c-0.7,4.1,0.5,8.3,3.3,11.3c2.7,3.2,6.6,5,10.7,4.9h50.7l16.2,11.7l11.1-80.3C96.9,16.2,95.7,12,92.9,8.9z M92.3,19.6L82.1,93.4
					l-11.9-8.6h-52c-2.9,0-5.7-1.2-7.6-3.5l-0.1-0.1c-2-2.2-2.8-5.1-2.3-8L16,16.7c0.3-2.4,1.5-4.6,3.4-6.2l0.1-0.1
					C21.3,8.9,23.7,8,26.1,8h56.1c3,0,5.7,1.2,7.6,3.5l0.1,0.1C91.9,13.8,92.8,16.7,92.3,19.6z"/>
			</g>
		</g>
		<g id="info_0_Layer0_0_1_STROKES">
			<path class="st0" d="M95.9,6.3C92.5,2.2,87.5-0.1,82.1,0h-56c-4.4,0-8.7,1.5-12,4.5c-3.4,2.8-5.5,6.8-6.1,11.2L0.2,72
				c-0.9,5.3,0.7,10.6,4.3,14.6c3.5,4.1,8.5,6.4,13.8,6.3h49.4l20.6,14.8l12-86.8C101,15.6,99.5,10.3,95.9,6.3z M70.2,84.8h-52
				c-2.9,0-5.7-1.2-7.6-3.5l-0.1-0.1c-2-2.2-2.8-5.1-2.3-8L16,16.7c0.3-2.4,1.5-4.6,3.4-6.2l0.1-0.1C21.3,8.9,23.7,8,26.1,8h56.1
				c3,0,5.7,1.2,7.6,3.5l0.1,0.1c2,2.2,2.8,5.1,2.3,8L82.1,93.4L70.2,84.8z"/>
		</g>
		<g id="info_0_Layer0_1_MEMBER_0_FILL">
			<g>
				<path class="st0" d="M45.3,35.9v37.4h11.2V35.9H45.3z M53.3,19.4h-5c-2.2,0-3.3,1.1-3.3,3.3v4.1c0,2.2,1.1,3.3,3.3,3.3h5
					c2.2,0,3.3-1.1,3.3-3.3v-4.1C56.6,20.5,55.5,19.4,53.3,19.4z"/>
			</g>
		</g>
	</g>
</g>
</svg>
