<svg xmlns="http://www.w3.org/2000/svg" viewBox="0 0 80.75 92.9"><defs><style>.cls-1{fill:#fff;}.cls-2{fill:none;stroke:#63c932;stroke-miterlimit:3;stroke-width:8px;}.cls-3{fill:#63c932;}</style></defs><title>31_2</title><g id="Layer_2" data-name="Layer 2"><g id="Layer_1-2" data-name="Layer 1"><g id="Duplicate_Items_Folder_pessoa_0_Layer0_0_FILL" data-name="Duplicate Items Folder pessoa 0 Layer0 0 FILL"><path class="cls-1" d="M47.22,4a21.05,21.05,0,0,0-15.45,6.4,21.07,21.07,0,0,0-6.41,15.46,21.06,21.06,0,0,0,6.41,15.45,21.06,21.06,0,0,0,15.45,6.41,21.07,21.07,0,0,0,15.46-6.41,21.05,21.05,0,0,0,6.4-15.45,21.06,21.06,0,0,0-6.4-15.46A21.06,21.06,0,0,0,47.22,4Z"/></g><path id="Duplicate_Items_Folder_pessoa_0_Layer0_0_1_STROKES" data-name="Duplicate Items Folder pessoa 0 Layer0 0 1 STROKES" class="cls-2" d="M69.08,25.86a21.08,21.08,0,0,1-6.41,15.46,21.05,21.05,0,0,1-15.45,6.4,21.06,21.06,0,0,1-15.46-6.4,21.07,21.07,0,0,1-6.4-15.46,21.07,21.07,0,0,1,6.4-15.46A21.06,21.06,0,0,1,47.22,4a21.05,21.05,0,0,1,15.45,6.4A21.08,21.08,0,0,1,69.08,25.86Z"/><g id="Duplicate_Items_Folder_pessoa_0_Layer0_1_FILL" data-name="Duplicate Items Folder pessoa 0 Layer0 1 FILL"><path class="cls-1" d="M74.25,88.89l2.44-17.11q.63-9.39-4.59-13.68-4.38-3.57-13.22-3.73H25.3Q17,54.51,12,59A15.18,15.18,0,0,0,6.85,69.26L4.51,88.89Z"/></g><path id="Duplicate_Items_Folder_pessoa_0_Layer0_1_1_STROKES" data-name="Duplicate Items Folder pessoa 0 Layer0 1 1 STROKES" class="cls-2" d="M74.24,88.9H4.51L6.85,69.26A15.11,15.11,0,0,1,12,59q5-4.48,13.32-4.62H58.88q8.82.15,13.22,3.73,5.22,4.29,4.58,13.67Z"/><g id="Duplicate_Items_Folder_pessoa_0_Layer0_2_FILL" data-name="Duplicate Items Folder pessoa 0 Layer0 2 FILL"><path class="cls-3" d="M26.86,70H22.64L20.52,88.37h4.24Z"/></g><g id="Duplicate_Items_Folder_pessoa_0_Layer0_3_FILL" data-name="Duplicate Items Folder pessoa 0 Layer0 3 FILL"><path class="cls-3" d="M59.23,70H55L52.71,89.7h4.23Z"/></g></g></g></svg>