<svg xmlns="http://www.w3.org/2000/svg" viewBox="0 0 84.91 90.98"><defs><style>.cls-1,.cls-2{fill:none;stroke:#63c932;stroke-linecap:square;stroke-miterlimit:3;}.cls-1{stroke-width:4px;}.cls-2{stroke-width:8px;}.cls-3{fill:#63c932;}</style></defs><title>31_3</title><g id="Layer_2" data-name="Layer 2"><g id="Layer_1-2" data-name="Layer 1"><path id="graficos_0_Layer0_0_1_STROKES" data-name="graficos 0 Layer0 0 1 STROKES" class="cls-1" d="M4.89,63.69l20.22-22L50.73,56.47l27-32"/><path id="graficos_0_Layer0_1_1_STROKES" data-name="graficos 0 Layer0 1 1 STROKES" class="cls-2" d="M80.06,87H4V4"/><g id="graficos_0_Layer0_2_FILL" data-name="graficos 0 Layer0 2 FILL"><path class="cls-3" d="M84.91,21.89a5,5,0,1,0-8.54,3.54,5,5,0,0,0,8.54-3.54Z"/></g><g id="graficos_0_Layer0_3_FILL" data-name="graficos 0 Layer0 3 FILL"><path class="cls-3" d="M55.31,56.29a5,5,0,1,0-1.46,3.54A4.82,4.82,0,0,0,55.31,56.29Z"/></g><g id="graficos_0_Layer0_4_FILL" data-name="graficos 0 Layer0 4 FILL"><path class="cls-3" d="M31.29,41.09a5,5,0,0,0-5-5,5,5,0,1,0,0,10,5,5,0,0,0,5-5Z"/></g></g></g></svg>