<svg xmlns="http://www.w3.org/2000/svg" viewBox="0 0 92.19 87.04"><defs><style>.cls-1{fill:none;stroke:#63c932;stroke-miterlimit:10;stroke-width:8px;}.cls-2{fill:#fff;}</style></defs><title>31_4</title><g id="Layer_2" data-name="Layer 2"><g id="Layer_1-2" data-name="Layer 1"><path id="megaphone_0_Layer0_0_MEMBER_0_1_STROKES" data-name="megaphone 0 Layer0 0 MEMBER 0 1 STROKES" class="cls-1" d="M21,83H16.6a6.36,6.36,0,0,1-6.44-8.81l7.41-23.06H31.19Z"/><g id="megaphone_0_Layer0_0_MEMBER_1_MEMBER_0_FILL" data-name="megaphone 0 Layer0 0 MEMBER 1 MEMBER 0 FILL"><path class="cls-2" d="M88.2,35.16A15.67,15.67,0,0,0,72.53,19.5V50.83a15.06,15.06,0,0,0,11.08-4.6A15.09,15.09,0,0,0,88.2,35.16Z"/></g><path id="megaphone_0_Layer0_0_MEMBER_1_MEMBER_1_1_STROKES" data-name="megaphone 0 Layer0 0 MEMBER 1 MEMBER 1 1 STROKES" class="cls-1" d="M72.52,19.49A15.67,15.67,0,0,1,88.19,35.15,15.67,15.67,0,0,1,72.52,50.81"/><g id="megaphone_0_Layer0_0_MEMBER_2_MEMBER_0_FILL" data-name="megaphone 0 Layer0 0 MEMBER 2 MEMBER 0 FILL"><path class="cls-2" d="M19.37,20.59H12.49a9.83,9.83,0,0,0-6,1.82A5.31,5.31,0,0,0,4,26.8V45.44a5.33,5.33,0,0,0,2.49,4.4,9.83,9.83,0,0,0,6,1.83h6.88Z"/></g><path id="megaphone_0_Layer0_0_MEMBER_2_MEMBER_1_1_STROKES" data-name="megaphone 0 Layer0 0 MEMBER 2 MEMBER 1 1 STROKES" class="cls-1" d="M19.37,51.66H12.49a9.83,9.83,0,0,1-6-1.83A5.33,5.33,0,0,1,4,45.43V26.79A5.31,5.31,0,0,1,6.49,22.4a9.83,9.83,0,0,1,6-1.83h6.88"/><path id="megaphone_0_Layer0_0_MEMBER_3_1_STROKES" data-name="megaphone 0 Layer0 0 MEMBER 3 1 STROKES" class="cls-1" d="M64.25,5h2.43a6.9,6.9,0,0,1,5.09,2.13,6.93,6.93,0,0,1,2.11,5.1V59.38a7.24,7.24,0,0,1-7.2,7.24H64.25"/><g id="megaphone_0_Layer0_0_MEMBER_4_FILL" data-name="megaphone 0 Layer0 0 MEMBER 4 FILL"><path class="cls-2" d="M63.07,66.19V5.44L16,20V51.59Z"/></g><path id="megaphone_0_Layer0_0_MEMBER_4_1_STROKES" data-name="megaphone 0 Layer0 0 MEMBER 4 1 STROKES" class="cls-1" d="M63.07,66.18,16,51.58V20L63.07,5.43Z"/></g></g></svg>