<svg xmlns="http://www.w3.org/2000/svg" viewBox="0 0 97.88 107.15"><defs><style>.cls-1{fill:#fff;}.cls-2{fill:none;stroke:#63c932;stroke-miterlimit:10;stroke-width:8px;}.cls-3{fill:#63c932;}</style></defs><title>31_5</title><g id="Layer_2" data-name="Layer 2"><g id="Layer_1-2" data-name="Layer 1"><g id="prancheta_0_Layer0_0_FILL" data-name="prancheta 0 Layer0 0 FILL"><path class="cls-1" d="M4.17,91.35a12.72,12.72,0,0,0,1.34,8.24q2,3.57,5.32,3.57H80.44L93.29,12.54H15.38Z"/></g><path id="prancheta_0_Layer0_0_1_STROKES" data-name="prancheta 0 Layer0 0 1 STROKES" class="cls-2" d="M80.43,103.15H10.82q-3.32,0-5.32-3.56a12.73,12.73,0,0,1-1.33-8.24l11.2-78.82H93.28Z"/><g id="prancheta_0_Layer0_1_FILL" data-name="prancheta 0 Layer0 1 FILL"><path class="cls-1" d="M68.41,16.72,70.23,4H40.88L39.06,16.72Z"/></g><path id="prancheta_0_Layer0_1_1_STROKES" data-name="prancheta 0 Layer0 1 1 STROKES" class="cls-2" d="M68.41,16.71H39.06L40.88,4H70.23Z"/><g id="prancheta_0_Layer0_2_FILL" data-name="prancheta 0 Layer0 2 FILL"><path class="cls-3" d="M32.67,80.9l-.33,2.55H74.58l.35-2.55H32.67m3.2-24.46L35.53,59H77.76l.33-2.55H35.87M34.35,68.32,34,70.87H76.26l.33-2.55H34.35m3.33-23.61-.35,2.54H79.57l.33-2.54H37.68M39.5,31.23l-.35,2.54H81.39l.33-2.54Z"/></g><path id="prancheta_0_Layer0_3_1_STROKES" data-name="prancheta 0 Layer0 3 1 STROKES" class="cls-3" d="M25.69,29.16h6.64l-.93,6.58H25.86a1,1,0,0,1-.71-.34,1,1,0,0,1-.24-.78Z"/><path id="prancheta_0_Layer0_4_1_STROKES" data-name="prancheta 0 Layer0 4 1 STROKES" class="cls-3" d="M24,41.22h6.64L29.7,47.8H24.16a1,1,0,0,1-.71-.34,1,1,0,0,1-.24-.78Z"/><path id="prancheta_0_Layer0_5_1_STROKES" data-name="prancheta 0 Layer0 5 1 STROKES" class="cls-3" d="M22.29,53.6h6.64L28,60.17l-5.54,0a1,1,0,0,1-.71-.34,1,1,0,0,1-.24-.78Z"/><path id="prancheta_0_Layer0_6_1_STROKES" data-name="prancheta 0 Layer0 6 1 STROKES" class="cls-3" d="M20.43,65.51h6.64l-.93,6.57H20.6a1,1,0,0,1-.71-.34,1,1,0,0,1-.24-.78Z"/><path id="prancheta_0_Layer0_7_1_STROKES" data-name="prancheta 0 Layer0 7 1 STROKES" class="cls-3" d="M18.79,77.82h6.64L24.5,84.4H19a1,1,0,0,1-.71-.34,1,1,0,0,1-.24-.78Z"/></g></g></svg>