<svg xmlns="http://www.w3.org/2000/svg" xmlns:xlink="http://www.w3.org/1999/xlink" viewBox="0 0 125.83 146.31"><defs><style>.cls-1,.cls-7{fill:none;}.cls-2,.cls-5{fill:#63c932;}.cls-3{clip-path:url(#clip-path);}.cls-4,.cls-5{isolation:isolate;}.cls-5{font-size:30.36px;font-family:Arial-BoldMT, Arial;font-weight:700;}.cls-6{fill:#fff;}.cls-7{stroke:#63c932;stroke-miterlimit:3;stroke-width:8px;}</style><clipPath id="clip-path"><polygon class="cls-1" points="84.29 13.13 104.21 13.13 98.82 51.18 78.9 51.18 84.29 13.13"/></clipPath></defs><title>31_6</title><g id="Layer_2" data-name="Layer 2"><g id="Layer_1-2" data-name="Layer 1"><path class="cls-2" d="M76.68,15.17,66.22,5.66,61.29,21.09Z"/><path class="cls-2" d="M103,56.33l10.46,9.51,4.93-15.43Z"/><g id="icone_cifrao_0_Layer0_2_FILL" data-name="icone cifrao 0 Layer0 2 FILL"><path class="cls-2" d="M64.73,27.68H56.51A36.62,36.62,0,0,0,55.79,35,33.76,33.76,0,0,0,66,59.78,33.83,33.83,0,0,0,90.81,70a33.72,33.72,0,0,0,21-6.92l-4.84-6.36a27.13,27.13,0,0,1-35.24-2.64A26,26,0,0,1,63.79,35a27.86,27.86,0,0,1,.94-7.34m60.4,14.6a37.25,37.25,0,0,0,.7-7.26,33.73,33.73,0,0,0-10.26-24.76A33.73,33.73,0,0,0,90.81,0,33.83,33.83,0,0,0,66,10.26c-.6.62-1.17,1.24-1.72,1.86l6,5.28c.44-.5.9-1,1.38-1.48a27,27,0,0,1,38.22,0A26,26,0,0,1,117.83,35a27.67,27.67,0,0,1-.9,7.26Z"/></g><g class="cls-3"><g class="cls-4"><text class="cls-5" transform="matrix(1, 0, -0.14, 0.99, 80.88, 44.63)">$</text></g></g><g id="icone_relogio_0_Layer0_7_FILL" data-name="icone relogio 0 Layer0 7 FILL"><path class="cls-2" d="M59.61,59.19q-.18,3.44,1.24,4.64a47.37,47.37,0,0,1,5.72,5.88q.38.5,3.84.24-4.91-7,5.32-3.78A43.77,43.77,0,0,1,62.19,55.39Q64.23,61.89,59.61,59.19Z"/></g><g id="Duplicate_Items_Folder_pessoa2_0_Layer0_0_FILL" data-name="Duplicate Items Folder pessoa2 0 Layer0 0 FILL"><path class="cls-6" d="M47.22,57.42A21.87,21.87,0,0,0,25.36,79.28a21.06,21.06,0,0,0,6.41,15.45,21.06,21.06,0,0,0,15.45,6.41,21.07,21.07,0,0,0,15.46-6.41,21.86,21.86,0,0,0,0-30.91A21.06,21.06,0,0,0,47.22,57.42Z"/></g><path id="Duplicate_Items_Folder_pessoa2_0_Layer0_0_1_STROKES" data-name="Duplicate Items Folder pessoa2 0 Layer0 0 1 STROKES" class="cls-7" d="M69.08,79.27a21.87,21.87,0,0,1-21.86,21.86,21.06,21.06,0,0,1-15.46-6.4,21.86,21.86,0,0,1,0-30.91,21.07,21.07,0,0,1,15.46-6.41,21.06,21.06,0,0,1,15.45,6.41A21.06,21.06,0,0,1,69.08,79.27Z"/><g id="Duplicate_Items_Folder_pessoa2_0_Layer0_1_FILL" data-name="Duplicate Items Folder pessoa2 0 Layer0 1 FILL"><path class="cls-6" d="M74.25,142.3l2.44-17.11q.63-9.39-4.59-13.68-4.38-3.57-13.22-3.73H25.3Q17,107.92,12,112.41a15.16,15.16,0,0,0-5.13,10.26L4.51,142.3Z"/></g><path id="Duplicate_Items_Folder_pessoa2_0_Layer0_1_1_STROKES" data-name="Duplicate Items Folder pessoa2 0 Layer0 1 1 STROKES" class="cls-7" d="M74.24,142.31H4.51l2.34-19.63A15.11,15.11,0,0,1,12,112.41q5-4.48,13.32-4.62H58.88q8.82.15,13.22,3.73,5.22,4.29,4.58,13.68Z"/><g id="Duplicate_Items_Folder_pessoa2_0_Layer0_2_FILL" data-name="Duplicate Items Folder pessoa2 0 Layer0 2 FILL"><path class="cls-2" d="M26.86,123.41H22.64l-2.12,18.37h4.24Z"/></g><g id="Duplicate_Items_Folder_pessoa2_0_Layer0_3_FILL" data-name="Duplicate Items Folder pessoa2 0 Layer0 3 FILL"><path class="cls-2" d="M59.23,123.41H55l-2.27,19.7h4.23Z"/></g><g id="Duplicate_Items_Folder_pessoa2_0_Layer0_4_FILL" data-name="Duplicate Items Folder pessoa2 0 Layer0 4 FILL"><path class="cls-2" d="M48,111.52a3.89,3.89,0,1,0-1.14,2.77A3.78,3.78,0,0,0,48,111.52Z"/></g><g id="Duplicate_Items_Folder_pessoa2_0_Layer0_5_FILL" data-name="Duplicate Items Folder pessoa2 0 Layer0 5 FILL"><path class="cls-2" d="M46.6,114.41H41.77L36,139.74H45.2Z"/></g></g></g></svg>