<svg xmlns="http://www.w3.org/2000/svg" viewBox="0 0 77.29 76.89"><defs><style>.cls-1{fill:#fff;}.cls-2,.cls-3,.cls-4{fill:none;stroke:#63c932;stroke-miterlimit:10;}.cls-2{stroke-width:8px;}.cls-3{stroke-linecap:round;}.cls-3,.cls-4{stroke-width:4px;}</style></defs><title>31_7</title><g id="Layer_2" data-name="Layer 2"><g id="Layer_1-2" data-name="Layer 1"><g id="Lupa"><g id="flash0_ai_Illustrator_Symbols_Lupa_0_Layer0_0_MEMBER_0_FILL" data-name="flash0 ai Illustrator Symbols Lupa 0 Layer0 0 MEMBER 0 FILL"><path class="cls-1" d="M67.14,10.16A21,21,0,1,0,37.39,39.91,21,21,0,1,0,67.14,10.16Z"/></g><path id="flash0_ai_Illustrator_Symbols_Lupa_0_Layer0_0_MEMBER_0_1_STROKES" data-name="flash0 ai Illustrator Symbols Lupa 0 Layer0 0 MEMBER 0 1 STROKES" class="cls-2" d="M73.29,25a20.91,20.91,0,0,1-6.16,14.87,21,21,0,0,1-29.75,0A21,21,0,0,1,44.07,5.65,21,21,0,0,1,73.29,25Z"/><g id="flash0_ai_Illustrator_Symbols_Lupa_0_Layer0_0_MEMBER_1_FILL" data-name="flash0 ai Illustrator Symbols Lupa 0 Layer0 0 MEMBER 1 FILL"><path class="cls-1" d="M34.28,35.93a5.21,5.21,0,0,0-1.48,1L5.48,64.27a5.07,5.07,0,0,0,0,7.14,5,5,0,0,0,1.68,1.11,5.12,5.12,0,0,0,1.89.36A5.22,5.22,0,0,0,11,72.52a5,5,0,0,0,1.66-1.11L39.94,44.09a5.12,5.12,0,0,0,1-1.36A21,21,0,0,1,34.28,35.93Z"/></g><path id="flash0_ai_Illustrator_Symbols_Lupa_0_Layer0_0_MEMBER_1_1_STROKES" data-name="flash0 ai Illustrator Symbols Lupa 0 Layer0 0 MEMBER 1 1 STROKES" class="cls-2" d="M34.27,35.94a5.39,5.39,0,0,0-1.48,1L5.47,64.28a5.06,5.06,0,0,0,0,7.13,5,5,0,0,0,1.68,1.11A4.93,4.93,0,0,0,9,72.89a5,5,0,0,0,3.57-1.48L39.93,44.1a5.12,5.12,0,0,0,1-1.36A21.14,21.14,0,0,1,34.27,35.94Z"/><path id="flash0_ai_Illustrator_Symbols_Lupa_0_Layer0_0_MEMBER_2_1_STROKES" data-name="flash0 ai Illustrator Symbols Lupa 0 Layer0 0 MEMBER 2 1 STROKES" class="cls-3" d="M41.39,25A10.86,10.86,0,0,1,52.25,14.18"/><path id="flash0_ai_Illustrator_Symbols_Lupa_0_Layer0_0_MEMBER_3_1_STROKES" data-name="flash0 ai Illustrator Symbols Lupa 0 Layer0 0 MEMBER 3 1 STROKES" class="cls-4" d="M26.81,41.57l8.83,8.82"/></g></g></g></svg>