<svg xmlns="http://www.w3.org/2000/svg" viewBox="0 0 74.43 110.41"><defs><style>.cls-1{fill:#fff;}.cls-2,.cls-3{fill:none;stroke:#63c932;stroke-miterlimit:3;}.cls-2{stroke-linecap:square;stroke-width:4px;}.cls-3{stroke-width:8px;}.cls-4{font-size:33px;fill:#63c932;font-family:Exo2.0-Bold, "Exo 2.0";font-weight:700;}</style></defs><title>34_1</title><g id="Layer_2" data-name="Layer 2"><g id="Layer_1-2" data-name="Layer 1"><g id="Investidor1a_0_Layer0_1_FILL" data-name="Investidor1a 0 Layer0 1 FILL"><path class="cls-1" d="M44.3,97l7.06-6.89L41.6,88.72l-4.37-8.85-4.36,8.85L23.1,90.13,30.17,97l-1.66,9.73,8.72-4.6,8.74,4.6Z"/></g><path id="Investidor1a_0_Layer0_1_1_STROKES" data-name="Investidor1a 0 Layer0 1 1 STROKES" class="cls-2" d="M37.23,102.15l-8.73,4.6L30.17,97,23.1,90.14l9.77-1.41,4.36-8.85,4.36,8.85,9.76,1.41L44.29,97,46,106.75Z"/><path class="cls-1" d="M70.45,36.07a30.39,30.39,0,0,0-9.73-22.69A32.61,32.61,0,0,0,37.23,4a32.67,32.67,0,0,0-23.5,9.38A30.45,30.45,0,0,0,4,36.07a30.37,30.37,0,0,0,9.71,22.67,32.6,32.6,0,0,0,23.5,9.4,32.55,32.55,0,0,0,23.49-9.4A30.32,30.32,0,0,0,70.45,36.07Z"/><path class="cls-3" d="M70.43,36.07A30.33,30.33,0,0,1,60.7,58.74a32.57,32.57,0,0,1-23.48,9.39,32.64,32.64,0,0,1-23.51-9.39A30.39,30.39,0,0,1,4,36.07a30.43,30.43,0,0,1,9.71-22.69A32.67,32.67,0,0,1,37.22,4,32.6,32.6,0,0,1,60.7,13.38,30.38,30.38,0,0,1,70.43,36.07Z"/><text class="cls-4" transform="translate(28.85 47.43)">$</text></g></g></svg>