<svg xmlns="http://www.w3.org/2000/svg" viewBox="0 0 84.68 104.48"><defs><style>.cls-1{fill:#fff;}.cls-2,.cls-3{fill:none;stroke:#63c932;stroke-miterlimit:3;}.cls-2{stroke-linecap:square;stroke-width:4px;}.cls-3{stroke-width:8px;}.cls-4{font-size:33px;fill:#63c932;font-family:Exo2.0-Bold, "Exo 2.0";font-weight:700;}</style></defs><title>34_2</title><g id="Layer_2" data-name="Layer 2"><g id="Layer_1-2" data-name="Layer 1"><g id="Investidor1_0_Layer0_1_FILL" data-name="Investidor1 0 Layer0 1 FILL"><path class="cls-1" d="M25.51,91.09l7.06-6.89-9.76-1.41-4.37-8.85-4.36,8.85L4.31,84.2l7.07,6.89-1.67,9.73,8.73-4.6,8.73,4.6Z"/></g><path id="Investidor1_0_Layer0_1_1_STROKES" data-name="Investidor1 0 Layer0 1 1 STROKES" class="cls-2" d="M18.43,96.23l-8.73,4.6,1.67-9.73L4.3,84.21l9.77-1.41L18.43,74,22.8,82.8l9.76,1.41L25.5,91.1l1.67,9.73Z"/><g id="Investidor1_0_Layer0_2_FILL" data-name="Investidor1 0 Layer0 2 FILL"><path class="cls-1" d="M73.33,91.09l7.06-6.89-9.76-1.41-4.37-8.85L61.9,82.79,52.13,84.2l7.07,6.89-1.67,9.73,8.73-4.6,8.73,4.6Z"/></g><path id="Investidor1_0_Layer0_2_1_STROKES" data-name="Investidor1 0 Layer0 2 1 STROKES" class="cls-2" d="M66.26,96.23l-8.73,4.6L59.2,91.1l-7.07-6.89L61.9,82.8,66.26,74l4.37,8.85,9.76,1.41L73.33,91.1,75,100.83Z"/><path class="cls-1" d="M75.53,36.07a30.4,30.4,0,0,0-9.74-22.69A32.57,32.57,0,0,0,42.31,4a32.65,32.65,0,0,0-23.5,9.38A30.41,30.41,0,0,0,9.1,36.07a30.34,30.34,0,0,0,9.71,22.67,32.59,32.59,0,0,0,23.5,9.4,32.51,32.51,0,0,0,23.48-9.4A30.33,30.33,0,0,0,75.53,36.07Z"/><path class="cls-3" d="M75.51,36.07a30.33,30.33,0,0,1-9.73,22.67,32.58,32.58,0,0,1-23.49,9.39,32.63,32.63,0,0,1-23.5-9.39A30.39,30.39,0,0,1,9.08,36.07a30.43,30.43,0,0,1,9.71-22.69A32.67,32.67,0,0,1,42.29,4a32.61,32.61,0,0,1,23.49,9.38A30.38,30.38,0,0,1,75.51,36.07Z"/><text class="cls-4" transform="translate(33.28 46.62)">$</text></g></g></svg>