<svg xmlns="http://www.w3.org/2000/svg" viewBox="0 0 108.95 110.78"><defs><style>.cls-1{fill:#fff;}.cls-2,.cls-4{fill:none;stroke:#63c932;stroke-miterlimit:3;}.cls-2{stroke-width:8px;}.cls-3{font-size:33px;fill:#63c932;font-family:Exo2.0-Bold, "Exo 2.0";font-weight:700;}.cls-4{stroke-linecap:square;stroke-width:3.93px;}</style></defs><title>34_3</title><g id="Layer_2" data-name="Layer 2"><g id="Layer_1-2" data-name="Layer 1"><path class="cls-1" d="M87.52,36.07a30.39,30.39,0,0,0-9.73-22.69A32.59,32.59,0,0,0,54.31,4a32.65,32.65,0,0,0-23.5,9.38,30.42,30.42,0,0,0-9.72,22.69,30.35,30.35,0,0,0,9.72,22.67,32.59,32.59,0,0,0,23.5,9.4,32.52,32.52,0,0,0,23.48-9.4A30.32,30.32,0,0,0,87.52,36.07Z"/><path class="cls-2" d="M87.51,36.07a30.34,30.34,0,0,1-9.74,22.67,32.56,32.56,0,0,1-23.48,9.39,32.62,32.62,0,0,1-23.5-9.39,30.36,30.36,0,0,1-9.72-22.67,30.41,30.41,0,0,1,9.72-22.69A32.65,32.65,0,0,1,54.29,4a32.59,32.59,0,0,1,23.48,9.38A30.39,30.39,0,0,1,87.51,36.07Z"/><text class="cls-3" transform="translate(45.7 48.22)">$</text><g id="Investidor2_0_Layer0_1_MEMBER_0_FILL" data-name="Investidor2 0 Layer0 1 MEMBER 0 FILL"><path class="cls-1" d="M25.54,84.2l7.06-6.65-9.76-1.37-4.37-8.54-4.36,8.54L4.34,77.55l7.07,6.65L9.74,93.58l8.73-4.43,8.74,4.43Z"/></g><path id="Investidor2_0_Layer0_1_MEMBER_0_1_STROKES" data-name="Investidor2 0 Layer0 1 MEMBER 0 1 STROKES" class="cls-4" d="M18.46,89.15,9.74,93.59,11.4,84.2,4.33,77.55l9.77-1.36,4.36-8.54,4.37,8.54,9.76,1.36L25.53,84.2l1.67,9.39Z"/><g id="Investidor2_0_Layer0_1_MEMBER_1_FILL" data-name="Investidor2 0 Layer0 1 MEMBER 1 FILL"><path class="cls-1" d="M97.56,84.2l7.06-6.65-9.76-1.37-4.37-8.54-4.36,8.54-9.77,1.37,7.07,6.65-1.67,9.38,8.73-4.43,8.74,4.43Z"/></g><path id="Investidor2_0_Layer0_1_MEMBER_1_1_STROKES" data-name="Investidor2 0 Layer0 1 MEMBER 1 1 STROKES" class="cls-4" d="M90.49,89.15l-8.73,4.44,1.67-9.39-7.07-6.65,9.77-1.36,4.36-8.54,4.37,8.54,9.76,1.36L97.56,84.2l1.67,9.39Z"/><g id="Investidor2_0_Layer0_1_MEMBER_2_FILL" data-name="Investidor2 0 Layer0 1 MEMBER 2 FILL"><path class="cls-1" d="M62,97.85,69,91.2l-9.76-1.36-4.37-8.55-4.36,8.55L40.76,91.2l7.07,6.65-1.67,9.39,8.73-4.44,8.74,4.44Z"/></g><path id="Investidor2_0_Layer0_1_MEMBER_2_1_STROKES" data-name="Investidor2 0 Layer0 1 MEMBER 2 1 STROKES" class="cls-4" d="M54.89,102.8l-8.73,4.44,1.67-9.39L40.76,91.2l9.77-1.36,4.36-8.55,4.36,8.55L69,91.2,62,97.85l1.66,9.39Z"/></g></g></svg>