<svg xmlns="http://www.w3.org/2000/svg" xmlns:xlink="http://www.w3.org/1999/xlink" viewBox="0 0 85.25 85.25"><defs><style>.cls-1,.cls-3{fill:none;}.cls-2{fill:#fff;}.cls-3{stroke:#63c932;stroke-miterlimit:3;stroke-width:8px;}.cls-4{clip-path:url(#clip-path);}.cls-5,.cls-6{isolation:isolate;}.cls-6{font-size:55.18px;fill:#63c932;font-family:Exo2.0-Bold, "Exo 2.0";font-weight:700;}</style><clipPath id="clip-path"><rect class="cls-1" x="24.59" y="4.23" width="33.75" height="71.34"/></clipPath></defs><title>38_1</title><g id="Layer_2" data-name="Layer 2"><g id="Layer_1-2" data-name="Layer 1"><g id="Question_0_Layer0_0_FILL" data-name="Question 0 Layer0 0 FILL"><path class="cls-2" d="M81.27,42.63A37.21,37.21,0,0,0,70,15.3,37.2,37.2,0,0,0,42.64,4,37.26,37.26,0,0,0,15.32,15.3,37.26,37.26,0,0,0,4,42.63a37.2,37.2,0,0,0,11.3,27.3A37.2,37.2,0,0,0,42.64,81.25,37.15,37.15,0,0,0,70,69.93,37.14,37.14,0,0,0,81.27,42.63Z"/></g><path id="Question_0_Layer0_0_1_STROKES" data-name="Question 0 Layer0 0 1 STROKES" class="cls-3" d="M81.25,42.62A37.18,37.18,0,0,1,69.93,69.93,37.18,37.18,0,0,1,42.62,81.25,37.24,37.24,0,0,1,15.3,69.93,37.2,37.2,0,0,1,4,42.62,37.26,37.26,0,0,1,15.3,15.3,37.26,37.26,0,0,1,42.62,4,37.2,37.2,0,0,1,69.93,15.3,37.24,37.24,0,0,1,81.25,42.62Z"/><g class="cls-4"><g class="cls-5"><text class="cls-6" transform="translate(28.06 62.55)">?</text></g></g></g></g></svg>