<svg xmlns="http://www.w3.org/2000/svg" viewBox="0 0 85.48 91.63"><defs><style>.cls-1,.cls-2{fill:none;stroke:#63c932;stroke-miterlimit:3;}.cls-1{stroke-width:8px;}.cls-2{stroke-width:4px;}.cls-3,.cls-4{fill:#63c932;}.cls-4{font-size:33px;font-family:Exo2.0-Bold, "Exo 2.0";font-weight:700;}</style></defs><title>39_2</title><g id="Layer_2" data-name="Layer 2"><g id="Layer_1-2" data-name="Layer 1"><path id="icone_relogio_0_Layer0_0_1_STROKES" data-name="icone relogio 0 Layer0 0 1 STROKES" class="cls-1" d="M68.4,55.45A31,31,0,0,1,59,78.19,31,31,0,0,1,36.2,87.63a31,31,0,0,1-22.78-9.44A31,31,0,0,1,4,55.45a31.09,31.09,0,0,1,9.42-22.78A31.08,31.08,0,0,1,36.2,23.25,31,31,0,0,1,59,32.67,31.07,31.07,0,0,1,68.4,55.45Z"/><path id="icone_relogio_0_Layer0_6_1_STROKES" data-name="icone relogio 0 Layer0 6 1 STROKES" class="cls-2" d="M83.48,18.63A11.23,11.23,0,0,1,80,26.89a11.66,11.66,0,0,1-16.54,0,11.25,11.25,0,0,1-3.42-8.26,11.34,11.34,0,0,1,3.42-8.28,11.71,11.71,0,0,1,16.54,0A11.32,11.32,0,0,1,83.48,18.63Z"/><g id="icone_relogio_0_Layer0_7_FILL" data-name="icone relogio 0 Layer0 7 FILL"><path class="cls-3" d="M56,25.51c-.12,2.3.29,3.84,1.24,4.64A48.8,48.8,0,0,1,63,36q.38.51,3.84.24-4.9-7,5.32-3.78A43.74,43.74,0,0,1,58.6,21.71Q60.64,28.22,56,25.51Z"/></g><text class="cls-4" transform="translate(27.34 66.5)">$</text><text class="cls-4" transform="translate(65.07 27.88)">-</text></g></g></svg>