<svg xmlns="http://www.w3.org/2000/svg" viewBox="0 0 95.41 76.18"><defs><style>.cls-1,.cls-3{fill:none;stroke:#63c932;stroke-miterlimit:3;}.cls-1{stroke-width:8px;}.cls-2{font-size:33px;font-family:Exo2.0-Bold, "Exo 2.0";font-weight:700;}.cls-2,.cls-4{fill:#63c932;}.cls-3{stroke-linecap:square;stroke-width:4px;}</style></defs><title>39_3</title><g id="Layer_2" data-name="Layer 2"><g id="Layer_1-2" data-name="Layer 1"><path id="icone_relogio_0_Layer0_0_1_STROKES" data-name="icone relogio 0 Layer0 0 1 STROKES" class="cls-1" d="M68.4,40A31,31,0,0,1,59,62.74,31,31,0,0,1,36.2,72.18a31.06,31.06,0,0,1-22.78-9.44A31,31,0,0,1,4,40a31.06,31.06,0,0,1,9.42-22.78A31.08,31.08,0,0,1,36.2,7.8,31,31,0,0,1,59,17.22,31,31,0,0,1,68.4,40Z"/><text class="cls-2" transform="translate(27.34 51.04)">$</text><path id="Money_Bomb_0_Layer0_0_MEMBER_0_1_STROKES" data-name="Money Bomb 0 Layer0 0 MEMBER 0 1 STROKES" class="cls-3" d="M57.85,14.14,66,5.3,78,17.32,91.91,2.84"/><g id="Money_Bomb_0_Layer0_0_MEMBER_1_FILL" data-name="Money Bomb 0 Layer0 0 MEMBER 1 FILL"><path class="cls-4" d="M95.41,3.26a3.18,3.18,0,0,0-1-2.31A3.15,3.15,0,0,0,92.15,0a3.18,3.18,0,0,0-2.31,1,3.18,3.18,0,0,0-1,2.31,3.15,3.15,0,0,0,1,2.31,3.14,3.14,0,0,0,2.31.95,3.11,3.11,0,0,0,2.31-.95A3.15,3.15,0,0,0,95.41,3.26Z"/></g><g id="Money_Bomb_0_Layer0_0_MEMBER_2_FILL" data-name="Money Bomb 0 Layer0 0 MEMBER 2 FILL"><path class="cls-4" d="M78.13,14.33a3.24,3.24,0,1,0,2.31.95A3.18,3.18,0,0,0,78.13,14.33Z"/></g><g id="Money_Bomb_0_Layer0_0_MEMBER_3_FILL" data-name="Money Bomb 0 Layer0 0 MEMBER 3 FILL"><path class="cls-4" d="M70,4.92a3.18,3.18,0,0,0-1-2.31,3.15,3.15,0,0,0-2.31-.95,3.24,3.24,0,0,0-3.26,3.26,3.15,3.15,0,0,0,.95,2.31,3.14,3.14,0,0,0,2.31.95,3.11,3.11,0,0,0,2.31-.95A3.15,3.15,0,0,0,70,4.92Z"/></g></g></g></svg>