<svg xmlns="http://www.w3.org/2000/svg" viewBox="0 0 72.4 92.68"><defs><style>.cls-1,.cls-3{fill:none;stroke:#63c932;stroke-miterlimit:3;}.cls-1{stroke-width:8px;}.cls-2{font-size:33px;font-family:Exo2.0-Bold, "Exo 2.0";font-weight:700;}.cls-2,.cls-5{fill:#63c932;}.cls-3{stroke-linecap:square;stroke-width:4px;}.cls-4{fill:#fff;}</style></defs><title>39_4</title><g id="Layer_2" data-name="Layer 2"><g id="Layer_1-2" data-name="Layer 1"><path id="icone_relogio_0_Layer0_0_1_STROKES" data-name="icone relogio 0 Layer0 0 1 STROKES" class="cls-1" d="M68.4,56.5A31,31,0,0,1,59,79.24,31,31,0,0,1,36.2,88.68a31.06,31.06,0,0,1-22.78-9.44A31,31,0,0,1,4,56.5a31.06,31.06,0,0,1,9.42-22.78A31.08,31.08,0,0,1,36.2,24.3,31,31,0,0,1,59,33.72,31,31,0,0,1,68.4,56.5Z"/><text class="cls-2" transform="translate(27.34 67.54)">$</text><path id="Money_bom2_0_Layer0_0_1_STROKES" data-name="Money bom2 0 Layer0 0 1 STROKES" class="cls-3" d="M36.35,18.16c0-.21,0-.42,0-.64A14.22,14.22,0,0,1,40.66,7.08,14.22,14.22,0,0,1,51.1,2.76a16.6,16.6,0,0,1,2.14.14"/><g id="Money_bom2_0_Layer0_1_FILL" data-name="Money bom2 0 Layer0 1 FILL"><path class="cls-4" d="M45.38,25.7V17.38H27V25.7Z"/></g><path id="Money_bom2_0_Layer0_1_1_STROKES" data-name="Money bom2 0 Layer0 1 1 STROKES" class="cls-3" d="M27,17.38h18.4V25.7H27Z"/><g id="Money_bom2_0_Layer0_3_FILL" data-name="Money bom2 0 Layer0 3 FILL"><path class="cls-5" d="M59.28,3.4a3.27,3.27,0,0,0-1-2.4,3.38,3.38,0,0,0-4.8,0,3.27,3.27,0,0,0-1,2.4,3.27,3.27,0,0,0,1,2.4,3.38,3.38,0,0,0,4.8,0A3.27,3.27,0,0,0,59.28,3.4Z"/></g></g></g></svg>