<svg xmlns="http://www.w3.org/2000/svg" xmlns:xlink="http://www.w3.org/1999/xlink" viewBox="0 0 70.2 70.26"><defs><style>.cls-1{fill:none;}.cls-2,.cls-5{fill:#63c932;}.cls-3{clip-path:url(#clip-path);}.cls-4,.cls-5{isolation:isolate;}.cls-5{font-size:16.67px;font-family:Arial-BoldMT, Arial;font-weight:700;}</style><clipPath id="clip-path"><polygon class="cls-1" points="14.84 24.36 59.24 24.36 56.28 45.25 11.89 45.25 14.84 24.36"/></clipPath></defs><title>3_1</title><g id="Layer_2" data-name="Layer 2"><g id="Layer_1-2" data-name="Layer 1"><g id="icone_progresso_0_Layer0_0_FILL" data-name="icone progresso 0 Layer0 0 FILL"><path class="cls-2" d="M70.2,36.76H63.28A27,27,0,0,1,55.08,55l4.56,5.24.3-.3,0,0A33.66,33.66,0,0,0,70.2,36.76M62.76,13.4l-5.24,4.54a26.75,26.75,0,0,1,5.76,15.52H70.2A33.4,33.4,0,0,0,62.76,13.4M33.08,63.28l-1,6.86q1.49.12,3,.12A33.61,33.61,0,0,0,57,62.62l-4.54-5.24a27,27,0,0,1-17.34,6q-1,0-2-.06M9.74,59.42l.54.54a33.59,33.59,0,0,0,18.58,9.78l1-6.86a27,27,0,0,1-14.64-7.82l-.18-.2L9.74,59.42m3.2-6.86a26.7,26.7,0,0,1-6-15.8H0A33.4,33.4,0,0,0,7.7,57.12l5.24-4.56M38.7.16C37.53.05,36.34,0,35.12,0a33.67,33.67,0,0,0-21.5,7.3l4.56,5.22a27.09,27.09,0,0,1,16.94-5.6c.89,0,1.75,0,2.6.1l1-6.86M10.94,9.62l-.66.66A33.78,33.78,0,0,0,0,33.46H6.94a27.06,27.06,0,0,1,8.22-18.28l0,0,.3-.3L10.94,9.62m49.78,1.46c-.24-.27-.5-.54-.76-.8A33.85,33.85,0,0,0,42,.6L41,7.48a27.24,27.24,0,0,1,14.08,7.7c.15.15.29.29.42.44Z"/></g><g class="cls-3"><g class="cls-4"><text class="cls-5" transform="matrix(1, 0, -0.14, 0.99, 12.98, 41.57)">100%</text></g></g></g></g></svg>