<svg xmlns="http://www.w3.org/2000/svg" viewBox="0 0 107.16 105.49"><defs><style>.cls-1,.cls-2,.cls-4,.cls-5,.cls-6{fill:none;stroke:#63c932;stroke-miterlimit:3;}.cls-1,.cls-4{stroke-width:8px;}.cls-2,.cls-4{stroke-linecap:round;}.cls-2,.cls-5{stroke-width:4px;}.cls-3{fill:#fff;}.cls-6{stroke-width:5px;}.cls-7{font-size:27.42px;fill:#63c932;font-family:Exo2.0-Bold, "Exo 2.0";font-weight:700;}.cls-8{letter-spacing:-0.01em;}</style></defs><title>3_2</title><g id="Layer_2" data-name="Layer 2"><g id="Layer_1-2" data-name="Layer 1"><path id="icone_carimbo_0_Layer0_0_1_STROKES" data-name="icone carimbo 0 Layer0 0 1 STROKES" class="cls-1" d="M69.23,37.47H92.4l-4,27.61H30.85q-8.55,0-7.32-8.48l2.73-19.13H53.73"/><path id="icone_carimbo_0_Layer0_1_1_STROKES" data-name="icone carimbo 0 Layer0 1 1 STROKES" class="cls-2" d="M66.23,50.31a8.27,8.27,0,0,1-2.7,4,8.57,8.57,0,0,1-5.77,2.25,6.35,6.35,0,0,1-5.09-2.25,6.55,6.55,0,0,1-1.5-5.37,7.21,7.21,0,0,1,.21-.92m15.22.46c0,.15,0,.31-.07.46s-.08.52-.13.76"/><path id="icone_carimbo_0_Layer0_2_1_STROKES" data-name="icone carimbo 0 Layer0 2 1 STROKES" class="cls-2" d="M51.29,49.61l3.33-22.24m15.23,0L66.52,49.61"/><path id="icone_carimbo_0_Layer0_3_1_STROKES" data-name="icone carimbo 0 Layer0 3 1 STROKES" class="cls-2" d="M73.62,19.81a5.83,5.83,0,0,1,0,1.72A8,8,0,0,1,69.75,27,13.67,13.67,0,0,1,62,29.28,10.74,10.74,0,0,1,54.92,27a5.72,5.72,0,0,1-2.23-5.49A6.86,6.86,0,0,1,53.63,19"/><g id="icone_carimbo_0_Layer0_4_FILL" data-name="icone carimbo 0 Layer0 4 FILL"><path class="cls-3" d="M72.85,6.32A10.46,10.46,0,0,0,65.78,4,13.39,13.39,0,0,0,58,6.32a8,8,0,0,0-3.79,5.49,5.69,5.69,0,0,0,2.23,5.5,10.69,10.69,0,0,0,7.07,2.25,13.72,13.72,0,0,0,7.76-2.25,8,8,0,0,0,3.86-5.5A5.65,5.65,0,0,0,72.85,6.32Z"/></g><path id="icone_carimbo_0_Layer0_4_1_STROKES" data-name="icone carimbo 0 Layer0 4 1 STROKES" class="cls-4" d="M75.09,11.81a8,8,0,0,1-3.86,5.5,13.69,13.69,0,0,1-7.76,2.25,10.69,10.69,0,0,1-7.07-2.25,5.69,5.69,0,0,1-2.23-5.5A8,8,0,0,1,58,6.32,13.39,13.39,0,0,1,65.72,4,10.5,10.5,0,0,1,72.8,6.32,5.67,5.67,0,0,1,75.09,11.81Z"/><path id="icone_carimbo_0_Layer0_5_1_STROKES" data-name="icone carimbo 0 Layer0 5 1 STROKES" class="cls-2" d="M52.52,22.3l1-6.63m20.92.2-1,6.62"/><path id="icone_carimbo_0_Layer0_6_1_STROKES" data-name="icone carimbo 0 Layer0 6 1 STROKES" class="cls-5" d="M91.38,44.35,87.43,72H29.82q-8.54,0-7.31-8.47l2.73-19.14"/><path id="icone_carimbo_0_Layer0_7_1_STROKES" data-name="icone carimbo 0 Layer0 7 1 STROKES" class="cls-6" d="M89.42,52.88h14.86L97.18,103H2.88L10,52.88h13.5"/><text class="cls-7" transform="translate(36.35 97.48)">O<tspan class="cls-8" x="18.76" y="0">K</tspan></text></g></g></svg>