<svg xmlns="http://www.w3.org/2000/svg" viewBox="0 0 117.34 63.86"><defs><style>.cls-1,.cls-2{fill:none;stroke:#63c932;stroke-miterlimit:3;}.cls-1{stroke-width:8px;}.cls-2{stroke-width:4px;}</style></defs><title>41_1</title><g id="Layer_2" data-name="Layer 2"><g id="Layer_1-2" data-name="Layer 1"><path id="icone_carro_0_Layer0_0_1_STROKES" data-name="icone carro 0 Layer0 0 1 STROKES" class="cls-1" d="M15.25,51.14h-.8A10.14,10.14,0,0,1,4.13,39.26L6.31,23.8h24L33.11,4H86.73l-2.8,19.8h28.8l-3.86,27.34h-6.76m-20.92,0H36.09"/><path id="icone_carro_0_Layer0_0_2_STROKES" data-name="icone carro 0 Layer0 0 2 STROKES" class="cls-2" d="M102.11,51.14l-.06.4a12.38,12.38,0,0,1-11.9,10.32,8.79,8.79,0,0,1-9-10.32v-.4m-45.1,0-.06.4a11.55,11.55,0,0,1-4.1,7.3,11.58,11.58,0,0,1-7.8,3,8.79,8.79,0,0,1-9-10.32l.08-.4a11.62,11.62,0,0,1,4-6.9,11.64,11.64,0,0,1,7.78-3,8.83,8.83,0,0,1,7,3A8.71,8.71,0,0,1,36.09,51.14Zm45.1,0a12,12,0,0,1,4.1-6.9,11.64,11.64,0,0,1,7.78-3,8.83,8.83,0,0,1,7,3,8.71,8.71,0,0,1,2.08,6.9"/><path id="icone_carro_0_Layer0_1_1_STROKES" data-name="icone carro 0 Layer0 1 1 STROKES" class="cls-2" d="M98.33,26h-68"/><path id="icone_carro_0_Layer0_2_1_STROKES" data-name="icone carro 0 Layer0 2 1 STROKES" class="cls-2" d="M57.4,25.93,60.49,4.12"/></g></g></svg>