<svg xmlns="http://www.w3.org/2000/svg" viewBox="0 0 101.58 76.63"><defs><style>.cls-1{fill:none;stroke:#63c932;stroke-miterlimit:10;stroke-width:8px;}.cls-2{fill:#63c932;}</style></defs><title>41_5</title><g id="Layer_2" data-name="Layer 2"><g id="Layer_1-2" data-name="Layer 1"><path id="calendario_0_Layer0_0_1_STROKES" data-name="calendario 0 Layer0 0 1 STROKES" class="cls-1" d="M87.15,72.63H11.51a7.44,7.44,0,0,1-5.79-2.35,6.38,6.38,0,0,1-1.6-5.7l8.38-53.3H96.89Z"/><g id="calendario_0_Layer0_1_FILL" data-name="calendario 0 Layer0 1 FILL"><path class="cls-2" d="M32.58,20.44H21.88l-1.22,7.84a1,1,0,0,0,.19.8.93.93,0,0,0,.73.32h9.6Z"/></g><g id="calendario_0_Layer0_2_FILL" data-name="calendario 0 Layer0 2 FILL"><path class="cls-2" d="M49.22,20.44H38.52L37.3,28.28a1,1,0,0,0,.19.8,1,1,0,0,0,.75.32h9.58Z"/></g><g id="calendario_0_Layer0_3_FILL" data-name="calendario 0 Layer0 3 FILL"><path class="cls-2" d="M65.86,20.44H55.16l-1.22,7.84a1,1,0,0,0,.19.8,1,1,0,0,0,.75.32h9.58Z"/></g><g id="calendario_0_Layer0_4_FILL" data-name="calendario 0 Layer0 4 FILL"><path class="cls-2" d="M82.52,20.44H71.8l-1.22,7.84a1,1,0,0,0,.19.8,1,1,0,0,0,.75.32h9.6Z"/></g><g id="calendario_0_Layer0_5_FILL" data-name="calendario 0 Layer0 5 FILL"><path class="cls-2" d="M30,36.94H19.31l-1.22,7.84a1,1,0,0,0,.2.8.91.91,0,0,0,.73.32h9.6Z"/></g><g id="calendario_0_Layer0_6_FILL" data-name="calendario 0 Layer0 6 FILL"><path class="cls-2" d="M46.65,36.94H36l-1.22,7.84a1,1,0,0,0,.2.8,1,1,0,0,0,.75.32h9.58Z"/></g><g id="calendario_0_Layer0_7_FILL" data-name="calendario 0 Layer0 7 FILL"><path class="cls-2" d="M63.29,36.94H52.59l-1.22,7.84a1,1,0,0,0,.2.8,1,1,0,0,0,.75.32H61.9Z"/></g><g id="calendario_0_Layer0_8_FILL" data-name="calendario 0 Layer0 8 FILL"><path class="cls-2" d="M80,36.94H69.23L68,44.78a1,1,0,0,0,.2.8,1,1,0,0,0,.75.32h9.6Z"/></g><g id="calendario_0_Layer0_9_FILL" data-name="calendario 0 Layer0 9 FILL"><path class="cls-2" d="M26.06,62.4l1.39-9H16.75l-1.22,7.84a1,1,0,0,0,.2.8.91.91,0,0,0,.73.32Z"/></g><g id="calendario_0_Layer0_10_FILL" data-name="calendario 0 Layer0 10 FILL"><path class="cls-2" d="M42.7,62.4l1.39-9H33.39l-1.22,7.84a1,1,0,0,0,.2.8,1,1,0,0,0,.75.32Z"/></g><g id="calendario_0_Layer0_11_FILL" data-name="calendario 0 Layer0 11 FILL"><path class="cls-2" d="M59.34,62.4l1.39-9H50l-1.22,7.84a1,1,0,0,0,.2.8,1,1,0,0,0,.75.32Z"/></g><g id="calendario_0_Layer0_12_FILL" data-name="calendario 0 Layer0 12 FILL"><path class="cls-2" d="M76,62.4l1.39-9H66.67l-1.22,7.84a1,1,0,0,0,.2.8,1,1,0,0,0,.75.32Z"/></g><g id="calendario_0_Layer0_13_FILL" data-name="calendario 0 Layer0 13 FILL"><path class="cls-2" d="M21.25,0H13.66L11.79,12.06h7.58Z"/></g><g id="calendario_0_Layer0_14_FILL" data-name="calendario 0 Layer0 14 FILL"><path class="cls-2" d="M36.69,0H29.1L27.23,12.06h7.58Z"/></g><g id="calendario_0_Layer0_15_FILL" data-name="calendario 0 Layer0 15 FILL"><path class="cls-2" d="M52.13,0H44.54L42.67,12.06h7.58Z"/></g><g id="calendario_0_Layer0_16_FILL" data-name="calendario 0 Layer0 16 FILL"><path class="cls-2" d="M67.59,0H60L58.13,12.06h7.58Z"/></g><g id="calendario_0_Layer0_17_FILL" data-name="calendario 0 Layer0 17 FILL"><path class="cls-2" d="M82.17,0H74.58L72.71,12.06h7.58Z"/></g><g id="calendario_0_Layer0_18_FILL" data-name="calendario 0 Layer0 18 FILL"><path class="cls-2" d="M97.61,0H90L88.15,12.06h7.58Z"/></g></g></g></svg>