<svg xmlns="http://www.w3.org/2000/svg" viewBox="0 0 98.66 89.63"><defs><style>.cls-1{fill:#fff;}.cls-2,.cls-4{fill:none;stroke:#63c932;stroke-miterlimit:3;}.cls-2{stroke-width:4px;}.cls-3{fill:#63c932;}.cls-4{stroke-width:8px;}</style></defs><title>43_1</title><g id="Layer_2" data-name="Layer 2"><g id="Layer_1-2" data-name="Layer 1"><g id="Duplicate_Items_Folder_pessoa_0_Layer0_0_FILL" data-name="Duplicate Items Folder pessoa 0 Layer0 0 FILL"><path class="cls-1" d="M51.85,29.2A11.18,11.18,0,0,0,40.67,40.39,11.18,11.18,0,0,0,51.85,51.58,11.2,11.2,0,0,0,63,40.39,11.2,11.2,0,0,0,51.85,29.2Z"/></g><path id="Duplicate_Items_Folder_pessoa_0_Layer0_0_1_STROKES" data-name="Duplicate Items Folder pessoa 0 Layer0 0 1 STROKES" class="cls-2" d="M63,40.38A11.2,11.2,0,0,1,51.85,51.57,11.2,11.2,0,0,1,40.66,40.38,11.18,11.18,0,0,1,51.85,29.2,11.18,11.18,0,0,1,63,40.38Z"/><g id="Duplicate_Items_Folder_pessoa_0_Layer0_1_FILL" data-name="Duplicate Items Folder pessoa 0 Layer0 1 FILL"><path class="cls-1" d="M65.69,72.64l1.25-8.75q.32-4.81-2.35-7C63.09,55.67,60.84,55,57.82,55H40.63a10.1,10.1,0,0,0-6.82,2.36,7.77,7.77,0,0,0-2.62,5.26l-1.2,10Z"/></g><path class="cls-3" d="M68.25,74.29,27.53,70.85l.91-8.58a10.34,10.34,0,0,1,3.53-7,12.82,12.82,0,0,1,8.61-3.07H57.82c3.73.06,6.5.89,8.51,2.53C68.85,56.81,70,60,69.7,64.08l0,.2Zm-37,0H61.43L64.17,63.6c.2-3.3-1-4.25-1.34-4.57-1-.79-2.73-1.24-5.06-1.28H40.63a7.38,7.38,0,0,0-5,1.66A4.94,4.94,0,0,0,34,62.85Z"/><g id="Duplicate_Items_Folder_pessoa_0_Layer0_2_FILL" data-name="Duplicate Items Folder pessoa 0 Layer0 2 FILL"><path class="cls-3" d="M41.43,63H39.27l-1.08,9.41h2.17Z"/></g><g id="Duplicate_Items_Folder_pessoa_0_Layer0_3_FILL" data-name="Duplicate Items Folder pessoa 0 Layer0 3 FILL"><path class="cls-3" d="M58,63H55.82L54.66,73.06h2.17Z"/></g><path id="icone_relogio_0_Layer0_0_1_STROKES" data-name="icone relogio 0 Layer0 0 1 STROKES" class="cls-4" d="M82,43.14a31.49,31.49,0,0,1-9.61,23.15A31.57,31.57,0,0,1,49.22,75.9,31.56,31.56,0,0,1,26,66.29a31.51,31.51,0,0,1-9.59-23.15A31.58,31.58,0,0,1,26,20a31.58,31.58,0,0,1,23.18-9.59A31.59,31.59,0,0,1,72.39,20,31.56,31.56,0,0,1,82,43.14Z"/><g id="seta_0_Layer0_0_FILL" data-name="seta 0 Layer0 0 FILL"><path class="cls-3" d="M10.21,89.63,23.74,77.88H0Z"/></g><g id="seta_0_Layer0_1_FILL" data-name="seta 0 Layer0 1 FILL"><path class="cls-3" d="M8,77.9h7.7l4.6-32.66h-7.7Z"/></g><g id="seta_0_Layer0_0_FILL-2" data-name="seta 0 Layer0 0 FILL"><path class="cls-3" d="M88.45,0,74.91,11.74H98.66Z"/></g><g id="seta_0_Layer0_1_FILL-2" data-name="seta 0 Layer0 1 FILL"><path class="cls-3" d="M90.64,11.73h-7.7l-4.6,32.66H86Z"/></g></g></g></svg>