<svg xmlns="http://www.w3.org/2000/svg" viewBox="0 0 89.91 90.98"><defs><style>.cls-1,.cls-2{fill:none;stroke:#63c932;stroke-linecap:square;stroke-miterlimit:3;}.cls-1{stroke-width:4px;}.cls-2{stroke-width:8px;}.cls-3{fill:#63c932;}.cls-4{fill:#fff;}</style></defs><title>43_2</title><g id="Layer_2" data-name="Layer 2"><g id="Layer_1-2" data-name="Layer 1"><line class="cls-1" x1="4.39" y1="47.46" x2="85.13" y2="47.46"/><path id="graficosB_0_Layer1_0_1_STROKES" data-name="graficosB 0 Layer1 0 1 STROKES" class="cls-1" d="M4,81.64,25.15,56.29l28.28,3.36L84.91,14.06"/><path id="graficosB_0_Layer1_1_1_STROKES" data-name="graficosB 0 Layer1 1 1 STROKES" class="cls-2" d="M84.91,87H4V4"/><g id="graficosB_0_Layer1_2_FILL" data-name="graficosB 0 Layer1 2 FILL"><path class="cls-3" d="M89.91,14.19a5,5,0,1,0-10,0,5,5,0,1,0,10,0Z"/></g><g id="graficosB_0_Layer1_3_FILL" data-name="graficosB 0 Layer1 3 FILL"><path class="cls-3" d="M58.43,59.65A5,5,0,1,0,57,63.19,4.82,4.82,0,0,0,58.43,59.65Z"/></g><g id="graficosB_0_Layer1_4_FILL" data-name="graficosB 0 Layer1 4 FILL"><path class="cls-3" d="M30.15,56.29a5,5,0,0,0-5-5,5,5,0,0,0-5,5,5,5,0,0,0,8.54,3.54A4.86,4.86,0,0,0,30.15,56.29Z"/></g><line class="cls-1" x1="4.81" y1="28.28" x2="85.13" y2="28.28"/><polygon class="cls-4" points="74.07 26.24 58.05 49.41 62.88 49.46 78.93 26.24 74.07 26.24"/></g></g></svg>