<svg xmlns="http://www.w3.org/2000/svg" viewBox="0 0 100.33 100.32"><defs><style>.cls-1{fill:#63c932;}.cls-2,.cls-3{fill:none;stroke:#63c932;stroke-miterlimit:3;}.cls-2{stroke-width:8px;}.cls-3{stroke-width:4px;}</style></defs><title>43_3</title><g id="Layer_2" data-name="Layer 2"><g id="Layer_1-2" data-name="Layer 1"><path class="cls-1" d="M97.52,80.78,82,66.62l-7.34,23Z"/><path class="cls-1" d="M49.8,92.32A42.22,42.22,0,1,1,80.19,79.73H90.66A50.15,50.15,0,1,0,49.8,100.32Z"/><path id="icone_relogio_0_Layer0_0_1_STROKES" data-name="icone relogio 0 Layer0 0 1 STROKES" class="cls-2" d="M77.44,49.25a26.27,26.27,0,0,1-8,19.3,26.33,26.33,0,0,1-19.32,8,26.35,26.35,0,0,1-19.33-8,26.29,26.29,0,0,1-8-19.3,26.36,26.36,0,0,1,8-19.33,26.38,26.38,0,0,1,19.33-8,26.36,26.36,0,0,1,19.32,8A26.34,26.34,0,0,1,77.44,49.25Z"/><path id="icone_relogio_0_Layer0_1_1_STROKES" data-name="icone relogio 0 Layer0 1 1 STROKES" class="cls-3" d="M66.85,49h5.23M49.81,26.7v5.21m0,17h0m0,0h0v0m0,0h0M34.08,33.21l3.69,3.69M27.57,49h5.22m1.29,15.72L37.76,61m12.05,5v5.23M61.86,61l3.69,3.69m-3.7-27.79,3.7-3.69"/><g id="circ_0_Layer0_0_FILL" data-name="circ 0 Layer0 0 FILL"><path class="cls-1" d="M53.54,49.27a3.38,3.38,0,1,0-1,2.4A3.27,3.27,0,0,0,53.54,49.27Z"/></g><path id="icone_relogio_0_Layer0_4_1_STROKES" data-name="icone relogio 0 Layer0 4 1 STROKES" class="cls-3" d="M50,49.35V64"/><path id="icone_relogio_0_Layer0_5_1_STROKES" data-name="icone relogio 0 Layer0 5 1 STROKES" class="cls-3" d="M50,48.86,60.35,38.49"/><g id="icone_relogio_0_Layer0_7_FILL" data-name="icone relogio 0 Layer0 7 FILL"><path class="cls-1" d="M66.93,23.84c-.1,1.95.25,3.26,1.06,3.94a40.78,40.78,0,0,1,4.85,5c.22.28,1.61-.19,3.57-.33-2.77-4,3.3-10,7.65-7.33-2.93-4.85-6-6-8.82-9.5C76.39,19.29,73.24,24.91,66.93,23.84Z"/></g></g></g></svg>