<svg xmlns="http://www.w3.org/2000/svg" viewBox="0 0 114.1 91.14"><defs><style>.cls-1,.cls-2,.cls-5{fill:none;stroke:#63c932;stroke-miterlimit:3;}.cls-1,.cls-2{stroke-linecap:square;}.cls-1,.cls-5{stroke-width:8px;}.cls-2{stroke-width:4px;}.cls-3{fill:#63c932;}.cls-4{fill:#fff;}</style></defs><title>43_4</title><g id="Layer_2" data-name="Layer 2"><g id="Layer_1-2" data-name="Layer 1"><path id="graficosB_0_Layer1_1_1_STROKES" data-name="graficosB 0 Layer1 1 1 STROKES" class="cls-1" d="M80.06,87H4V4"/><path id="graficosB_0_Layer1_0_1_STROKES" data-name="graficosB 0 Layer1 0 1 STROKES" class="cls-2" d="M4,11.89,35.1,54.65,58.43,41.12,77.71,69"/><g id="graficosB_0_Layer1_2_FILL" data-name="graficosB 0 Layer1 2 FILL"><path class="cls-3" d="M84.91,71.64a5,5,0,1,1-1.46-3.54A4.82,4.82,0,0,1,84.91,71.64Z"/></g><g id="graficosB_0_Layer1_3_FILL" data-name="graficosB 0 Layer1 3 FILL"><path class="cls-3" d="M63.43,42.88A5,5,0,1,1,62,39.34,4.82,4.82,0,0,1,63.43,42.88Z"/></g><g id="graficosB_0_Layer1_4_FILL" data-name="graficosB 0 Layer1 4 FILL"><path class="cls-3" d="M40.9,54.65a5,5,0,1,1-10,0,5,5,0,0,1,8.54-3.54A4.82,4.82,0,0,1,40.9,54.65Z"/></g><g id="Duplicate_Items_Folder_pessoa_0_Layer0_0_FILL" data-name="Duplicate Items Folder pessoa 0 Layer0 0 FILL"><path class="cls-4" d="M91.06,32.39A14.1,14.1,0,0,0,77,46.49a14.09,14.09,0,0,0,24.06,10,14.06,14.06,0,0,0,0-19.93A13.54,13.54,0,0,0,91.06,32.39Z"/></g><path id="Duplicate_Items_Folder_pessoa_0_Layer0_0_1_STROKES" data-name="Duplicate Items Folder pessoa 0 Layer0 0 1 STROKES" class="cls-5" d="M105.15,46.48a14.1,14.1,0,0,1-24.07,10,14.1,14.1,0,0,1,0-19.94,14.1,14.1,0,0,1,24.07,10Z"/><g id="Duplicate_Items_Folder_pessoa_0_Layer0_1_FILL" data-name="Duplicate Items Folder pessoa 0 Layer0 1 FILL"><path class="cls-4" d="M108.49,87.13l1.57-11q.41-6.06-3-8.82c-1.88-1.54-4.73-2.34-8.52-2.41H76.91a12.76,12.76,0,0,0-8.59,3A9.78,9.78,0,0,0,65,74.47L63.51,87.13Z"/></g><path id="Duplicate_Items_Folder_pessoa_0_Layer0_1_1_STROKES" data-name="Duplicate Items Folder pessoa 0 Layer0 1 1 STROKES" class="cls-5" d="M108.48,87.14h-45L65,74.48a9.72,9.72,0,0,1,3.3-6.62,12.75,12.75,0,0,1,8.59-3H98.57q5.7.1,8.53,2.41,3.36,2.76,3,8.82Z"/><g id="Duplicate_Items_Folder_pessoa_0_Layer0_2_FILL" data-name="Duplicate Items Folder pessoa 0 Layer0 2 FILL"><path class="cls-3" d="M77.93,75H75.2L73.84,86.8h2.73Z"/></g><g id="Duplicate_Items_Folder_pessoa_0_Layer0_3_FILL" data-name="Duplicate Items Folder pessoa 0 Layer0 3 FILL"><path class="cls-3" d="M98.8,75H96.06l-1.47,12.7h2.74Z"/></g></g></g></svg>