<svg xmlns="http://www.w3.org/2000/svg" viewBox="0 0 101.75 106.47"><defs><style>.cls-1,.cls-3,.cls-5{fill:none;stroke:#63c932;stroke-miterlimit:3;}.cls-1,.cls-3{stroke-linecap:square;}.cls-1,.cls-5{stroke-width:8px;}.cls-2{fill:#63c932;}.cls-3{stroke-width:4px;}.cls-4{fill:#fff;}</style></defs><title>43_5</title><g id="Layer_2" data-name="Layer 2"><g id="Layer_1-2" data-name="Layer 1"><path id="graficosB_0_Layer1_1_1_STROKES" data-name="graficosB 0 Layer1 1 1 STROKES" class="cls-1" d="M97.75,92.83H21.69v-83"/><rect class="cls-2" x="30.32" y="68.5" width="8" height="23.49"/><rect class="cls-2" x="48.8" y="46.5" width="8" height="45.49"/><rect class="cls-2" x="67.27" y="59.5" width="8" height="32.49"/><rect class="cls-2" x="85.75" y="23.32" width="8" height="68.67"/><path id="graficosB_0_Layer1_0_1_STROKES" data-name="graficosB 0 Layer1 0 1 STROKES" class="cls-3" d="M21.69,54.75l30.11-27,19.31,5,17-24.68"/><g id="graficosB_0_Layer1_2_FILL" data-name="graficosB 0 Layer1 2 FILL"><path class="cls-2" d="M94.75,5a4.78,4.78,0,0,0-1.46-3.54,5,5,0,0,0-7.08,0A4.82,4.82,0,0,0,84.75,5a4.82,4.82,0,0,0,1.46,3.54,5,5,0,0,0,7.08,0A4.78,4.78,0,0,0,94.75,5Z"/></g><g id="graficosB_0_Layer1_3_FILL" data-name="graficosB 0 Layer1 3 FILL"><path class="cls-2" d="M76.11,32.76a5,5,0,0,0-5-5,5,5,0,1,0,3.54,8.54A4.78,4.78,0,0,0,76.11,32.76Z"/></g><g id="graficosB_0_Layer1_4_FILL" data-name="graficosB 0 Layer1 4 FILL"><path class="cls-2" d="M56.8,29.4a5,5,0,1,0-1.46,3.54A4.82,4.82,0,0,0,56.8,29.4Z"/></g><g id="graficosB_0_Layer1_4_FILL-2" data-name="graficosB 0 Layer1 4 FILL"><path class="cls-2" d="M39.32,42.76a5,5,0,0,0-8.54-3.54,5,5,0,0,0,3.54,8.54,5,5,0,0,0,5-5Z"/></g><path class="cls-4" d="M42.24,84A17.49,17.49,0,0,0,36.63,71a18.76,18.76,0,0,0-13.51-5.39A18.8,18.8,0,0,0,9.6,71a18,18,0,0,0,0,26.1,18.73,18.73,0,0,0,13.52,5.41,18.69,18.69,0,0,0,13.51-5.41A17.43,17.43,0,0,0,42.24,84Z"/><path class="cls-5" d="M42.22,84a17.44,17.44,0,0,1-5.6,13,18.74,18.74,0,0,1-13.51,5.41A18.77,18.77,0,0,1,9.59,97.06a18,18,0,0,1,0-26.1,18.77,18.77,0,0,1,13.52-5.4A18.73,18.73,0,0,1,36.62,71,17.48,17.48,0,0,1,42.22,84Z"/><g id="icone_check_0_Layer0_3_FILL" data-name="icone check 0 Layer0 3 FILL"><path class="cls-2" d="M44.9,65.56h-3L21.34,90.63,14.76,78H12.17l8.74,16.78Z"/></g></g></g></svg>