<svg xmlns="http://www.w3.org/2000/svg" viewBox="0 0 86.44 90.98"><defs><style>.cls-1,.cls-2{fill:none;stroke:#63c932;stroke-linecap:square;stroke-miterlimit:3;}.cls-1{stroke-width:4px;}.cls-2{stroke-width:8px;}.cls-3{fill:#63c932;}</style></defs><title>47_1</title><g id="Layer_2" data-name="Layer 2"><g id="Layer_1-2" data-name="Layer 1"><path id="graficosB_0_Layer1_0_1_STROKES" data-name="graficosB 0 Layer1 0 1 STROKES" class="cls-1" d="M4.89,63.69l20.22-22L50.73,56.47l27-32"/><path id="graficosB_0_Layer1_1_1_STROKES" data-name="graficosB 0 Layer1 1 1 STROKES" class="cls-2" d="M80.06,87H4V4"/><g id="graficosB_0_Layer1_2_FILL" data-name="graficosB 0 Layer1 2 FILL"><path class="cls-3" d="M84.91,21.89a5,5,0,1,0-8.54,3.54,5,5,0,0,0,8.54-3.54Z"/></g><g id="graficosB_0_Layer1_3_FILL" data-name="graficosB 0 Layer1 3 FILL"><path class="cls-3" d="M55.31,56.29a5,5,0,1,0-1.46,3.54A4.82,4.82,0,0,0,55.31,56.29Z"/></g><g id="graficosB_0_Layer1_4_FILL" data-name="graficosB 0 Layer1 4 FILL"><path class="cls-3" d="M31.29,41.09a5,5,0,0,0-5-5,5,5,0,1,0,0,10,5,5,0,0,0,5-5Z"/></g><path id="graficosB_0_Layer0_0_1_STROKES" data-name="graficosB 0 Layer0 0 1 STROKES" class="cls-1" d="M3.33,48.45l22-36L53.77,40.85,83.67,61"/></g></g></svg>