<svg xmlns="http://www.w3.org/2000/svg" viewBox="0 0 73.14 70.04"><defs><style>.cls-1{fill:#63c932;}</style></defs><title>4_1</title><g id="Layer_2" data-name="Layer 2"><g id="Layer_1-2" data-name="Layer 1"><g id="ponta_0_Layer0_0_FILL" data-name="ponta 0 Layer0 0 FILL"><path class="cls-1" d="M20.89,15.17,10.43,5.66,5.5,21.09Z"/></g><path class="cls-1" d="M47.17,56.33l10.46,9.51,4.93-15.43Z"/><g id="icone_check_0_Layer0_2_FILL" data-name="icone check 0 Layer0 2 FILL"><path class="cls-1" d="M8.94,27.68H.72A36.62,36.62,0,0,0,0,35,33.72,33.72,0,0,0,10.24,59.78,33.83,33.83,0,0,0,35,70a33.75,33.75,0,0,0,21-6.92l-4.84-6.36A25.85,25.85,0,0,1,35,62,26.08,26.08,0,0,1,15.9,54.12,26,26,0,0,1,8,35a27.86,27.86,0,0,1,.94-7.34m60.4,14.6A37.25,37.25,0,0,0,70,35,33.73,33.73,0,0,0,59.78,10.26,33.75,33.75,0,0,0,35,0,33.83,33.83,0,0,0,10.24,10.26c-.6.62-1.17,1.24-1.72,1.86l6,5.28c.44-.5.9-1,1.38-1.48A26.08,26.08,0,0,1,35,8a26,26,0,0,1,19.1,7.92A26,26,0,0,1,62,35a28.54,28.54,0,0,1-.9,7.26Z"/></g><g id="icone_check_0_Layer0_3_FILL" data-name="icone check 0 Layer0 3 FILL"><path class="cls-1" d="M73.14,6.06H68L32.2,49.62,20.76,27.68h-4.5l15.2,29.16Z"/></g></g></g></svg>