<?xml version="1.0" encoding="utf-8"?>
<!-- Generator: Adobe Illustrator 23.0.3, SVG Export Plug-In . SVG Version: 6.00 Build 0)  -->
<svg version="1.1" id="Layer_1" xmlns="http://www.w3.org/2000/svg" xmlns:xlink="http://www.w3.org/1999/xlink" x="0px" y="0px"
	 viewBox="0 0 57.3 78.3" style="enable-background:new 0 0 57.3 78.3;" xml:space="preserve">
<style type="text/css">
	.st0{fill:#63C932;}
</style>
<g>
	<g id="Layer_1-2">
		<g id="icone_medalha_0_Layer0_0_1_STROKES">
			<path class="st0" d="M28.3,78.3c-7.5,0-14.7-3-19.9-8.4C2.9,64.6-0.1,57.3,0,49.7c-0.1-7.6,2.9-15,8.4-20.3
				C13.7,24,21,21,28.6,21c7.6-0.1,15,3,20.2,8.4c5.4,5.3,8.5,12.7,8.4,20.3c0.1,7.6-3,15-8.4,20.3c-5.3,5.4-12.7,8.5-20.2,8.4
				C28.5,78.3,28.4,78.3,28.3,78.3z M28.3,29c-5.3,0-10.5,2.2-14.2,6c0,0-0.1,0.1-0.1,0.1c-3.9,3.8-6.1,9.1-6,14.5c0,0,0,0.1,0,0.1
				c-0.1,5.4,2.1,10.7,6,14.5c0,0,0.1,0.1,0.1,0.1c3.8,3.9,9.1,6.1,14.5,6c0,0,0.1,0,0.1,0c5.4,0.1,10.7-2.1,14.5-6
				c0,0,0.1-0.1,0.1-0.1c3.9-3.8,6.1-9.1,6-14.5c0,0,0-0.1,0-0.1c0.1-5.4-2.1-10.7-6-14.5c0,0-0.1-0.1-0.1-0.1
				c-3.8-3.9-9.1-6.1-14.5-6c0,0-0.1,0-0.1,0C28.5,29,28.4,29,28.3,29z"/>
		</g>
		<g id="icone_medalha_0_Layer0_1_1_STROKES">
			<path class="st0" d="M34.1,23.7c-1.1,0-2-0.9-2-2v-2.3c0-1.3-1-2.3-2.3-2.3c-1.3,0-2.3,1-2.3,2.3v2.3c0,1.1-0.9,2-2,2s-2-0.9-2-2
				v-2.3c0-3.5,2.8-6.3,6.3-6.3c3.5,0,6.3,2.8,6.3,6.3v2.3C36.1,22.8,35.2,23.7,34.1,23.7z"/>
		</g>
		<g id="icone_medalha_0_Layer0_2_FILL">
			<g>
				<path class="st0" d="M23.2,51.1L19,60.7l9.1-5.7l7.5,5.7l-1.5-9.6l8.8-6.1l-10-0.3l-2-9.4l-4.7,9.4L16.1,45L23.2,51.1z"/>
			</g>
		</g>
		<g id="icone_medalha_0_Layer0_3_FILL">
			<g>
				<path class="st0" d="M40.4,0L30.1,12.6L23.6,0h-4.5l10.3,19.8L45.6,0H40.4z"/>
			</g>
		</g>
	</g>
</g>
</svg>
