<svg xmlns="http://www.w3.org/2000/svg" viewBox="0 0 57.28 78.33"><defs><style>.cls-1,.cls-2{fill:none;stroke:#63c932;stroke-linecap:round;stroke-linejoin:round;}.cls-1{stroke-width:8px;}.cls-2{stroke-width:4px;}.cls-3{fill:#63c932;}</style></defs><title>4_2</title><g id="Layer_2" data-name="Layer 2"><g id="Layer_1-2" data-name="Layer 1"><path id="icone_medalha_0_Layer0_0_1_STROKES" data-name="icone medalha 0 Layer0 0 1 STROKES" class="cls-1" d="M53.28,49.69a23.71,23.71,0,0,1-7.22,17.42,23.73,23.73,0,0,1-17.42,7.22,23.75,23.75,0,0,1-17.43-7.22A23.71,23.71,0,0,1,4,49.69a23.74,23.74,0,0,1,7.21-17.43,23.78,23.78,0,0,1,17.43-7.21,23.76,23.76,0,0,1,17.42,7.21A23.75,23.75,0,0,1,53.28,49.69Z"/><path id="icone_medalha_0_Layer0_1_1_STROKES" data-name="icone medalha 0 Layer0 1 1 STROKES" class="cls-2" d="M25.5,21.66V19.37a4.3,4.3,0,0,1,4.3-4.3h0a4.3,4.3,0,0,1,4.29,4.3v2.29"/><g id="icone_medalha_0_Layer0_2_FILL" data-name="icone medalha 0 Layer0 2 FILL"><path class="cls-3" d="M23.2,51.07,19,60.65,28.09,55l7.51,5.67-1.51-9.58L42.94,45l-10-.26-2-9.41-4.69,9.41L16.06,45Z"/></g><g id="icone_medalha_0_Layer0_3_FILL" data-name="icone medalha 0 Layer0 3 FILL"><path class="cls-3" d="M40.43,0,30.13,12.56,23.59,0h-4.5l10.3,19.78L45.61,0Z"/></g></g></g></svg>