<svg xmlns="http://www.w3.org/2000/svg" viewBox="0 0 71.3 71.6"><defs><style>.cls-1,.cls-2,.cls-3{fill:none;stroke:#63c932;stroke-miterlimit:3;}.cls-1{stroke-width:8px;}.cls-2,.cls-3{stroke-width:4px;}.cls-3{stroke-linecap:round;}.cls-4{fill:#63c932;}</style></defs><title>4_4</title><g id="Layer_2" data-name="Layer 2"><g id="Layer_1-2" data-name="Layer 1"><path id="icone_preloader_0_Layer0_0_1_STROKES" data-name="icone preloader 0 Layer0 0 1 STROKES" class="cls-1" d="M67.33,40c0,.18,0,.36-.07.54-.09.67-.21,1.33-.34,2a30.52,30.52,0,0,1-8.66,15.78A30.6,30.6,0,0,1,35.78,67.6,30.65,30.65,0,0,1,13.3,58.28,30.67,30.67,0,0,1,4,35.8a30.67,30.67,0,0,1,9.3-22.48A30.5,30.5,0,0,1,33.64,4.06l1,0,1,0h.26"/><path id="icone_preloader_0_Layer0_0_2_STROKES" data-name="icone preloader 0 Layer0 0 2 STROKES" class="cls-2" d="M35.86,4a30.61,30.61,0,0,1,22.4,9.32A30.65,30.65,0,0,1,67.58,35.8v.12A31.84,31.84,0,0,1,67.33,40"/><path id="amp_0_Layer0_0_1_STROKES" data-name="amp 0 Layer0 0 1 STROKES" class="cls-3" d="M43,31.59a11.9,11.9,0,0,1-2.88,2.82c-1.45,1.24-1.5,2.64-.17,4.2a8.32,8.32,0,0,1,1.9,2.58,15.47,15.47,0,0,1,1.22,8.89h-17a19.32,19.32,0,0,1,3.74-8.89,12.32,12.32,0,0,1,2.77-2.67c1.69-1.54,2-2.91.9-4.13a7.76,7.76,0,0,1-2.06-2.8,16,16,0,0,1-1.13-8.89H46.67A19.71,19.71,0,0,1,43,31.59Z"/><path id="amp_0_Layer0_1_1_STROKES" data-name="amp 0 Layer0 1 1 STROKES" class="cls-2" d="M45.9,50.61H23.05"/><path id="amp_0_Layer0_2_1_STROKES" data-name="amp 0 Layer0 2 1 STROKES" class="cls-2" d="M50,21.67H27.14"/><g id="amp_0_Layer0_3_FILL" data-name="amp 0 Layer0 3 FILL"><path class="cls-4" d="M36.31,42.56a7.51,7.51,0,0,1,1.26-4.41c.78-1.1,1.48-1.39,2.08-.87l3.48-6.18H32l2,6q.95-.75,1.65.93a6.54,6.54,0,0,1,0,4.37,5.84,5.84,0,0,1-2.82,3.51,16,16,0,0,1-4.71,1.66l-2.09,1.17H43.59l-2.36-1.43a7.28,7.28,0,0,1-3.38-1.22A4.13,4.13,0,0,1,36.31,42.56Z"/></g></g></g></svg>