<svg xmlns="http://www.w3.org/2000/svg" viewBox="0 0 83.26 71.05"><defs><style>.cls-1,.cls-2{fill:none;stroke:#63c932;stroke-miterlimit:3;}.cls-1{stroke-width:8px;}.cls-2{stroke-width:4px;}.cls-3{fill:#63c932;}</style></defs><title>4_5</title><g id="Layer_2" data-name="Layer 2"><g id="Layer_1-2" data-name="Layer 1"><path id="icone_chapeu_formatura_2_0_Layer0_0_1_STROKES" data-name="icone chapeu formatura 2 0 Layer0 0 1 STROKES" class="cls-1" d="M10.13,4H72.56L67,43.07H4.61Z"/><path id="icone_chapeu_formatura_2_0_Layer0_1_1_STROKES" data-name="icone chapeu formatura 2 0 Layer0 1 1 STROKES" class="cls-1" d="M61.1,51.91c0,.35-.06.71-.11,1.06q-.84,5.45-7.21,9.46-7.32,4.62-17.69,4.62T18.37,62.43Q12,58.43,11.18,53c0-.35-.09-.71-.11-1.06"/><path id="icone_chapeu_formatura_2_0_Layer0_2_1_STROKES" data-name="icone chapeu formatura 2 0 Layer0 2 1 STROKES" class="cls-1" d="M62.37,42.47,60.76,53.86"/><path id="icone_chapeu_formatura_2_0_Layer0_3_1_STROKES" data-name="icone chapeu formatura 2 0 Layer0 3 1 STROKES" class="cls-1" d="M12.38,43.26l-1.32,9.66"/><path id="icone_chapeu_formatura_2_0_Layer0_4_1_STROKES" data-name="icone chapeu formatura 2 0 Layer0 4 1 STROKES" class="cls-2" d="M74.69,20V33"/><g id="icone_chapeu_formatura_2_0_Layer0_5_FILL" data-name="icone chapeu formatura 2 0 Layer0 5 FILL"><path class="cls-3" d="M38.79,20l-.52,3.68H75.46L76,20Z"/></g><g id="icone_chapeu_formatura_2_0_Layer0_6_FILL" data-name="icone chapeu formatura 2 0 Layer0 6 FILL"><path class="cls-3" d="M80.15,43a18.71,18.71,0,0,1-.83-2l1.59,1.21,2.35-2.62a20.93,20.93,0,0,1-6.83-7.56l-3.51-.21q-1,12.66,2.73,15.48l1.92-1.84a8.09,8.09,0,0,1-1.79-4.23,5.2,5.2,0,0,0,2.62,3.43Z"/></g></g></g></svg>