<svg xmlns="http://www.w3.org/2000/svg" xmlns:xlink="http://www.w3.org/1999/xlink" viewBox="0 0 70.04 70.04"><defs><style>.cls-1{fill:none;}.cls-2,.cls-5{fill:#63c932;}.cls-3{clip-path:url(#clip-path);}.cls-4,.cls-5{isolation:isolate;}.cls-5{font-size:30.36px;font-family:Arial-BoldMT, Arial;font-weight:700;}</style><clipPath id="clip-path"><polygon class="cls-1" points="28.5 13.13 48.41 13.13 43.03 51.18 23.11 51.18 28.5 13.13"/></clipPath></defs><title>4_6</title><g id="Layer_2" data-name="Layer 2"><g id="Layer_1-2" data-name="Layer 1"><path class="cls-2" d="M20.89,15.17,10.43,5.66,5.5,21.09Z"/><path class="cls-2" d="M47.17,56.33l10.46,9.51,4.93-15.43Z"/><g id="icone_cifrao_0_Layer0_2_FILL" data-name="icone cifrao 0 Layer0 2 FILL"><path class="cls-2" d="M8.94,27.68H.72A36.62,36.62,0,0,0,0,35,33.72,33.72,0,0,0,10.24,59.78,33.83,33.83,0,0,0,35,70a33.75,33.75,0,0,0,21-6.92l-4.84-6.36A25.85,25.85,0,0,1,35,62,26.08,26.08,0,0,1,15.9,54.12,26,26,0,0,1,8,35a27.86,27.86,0,0,1,.94-7.34m60.4,14.6A37.25,37.25,0,0,0,70,35,33.73,33.73,0,0,0,59.78,10.26,33.75,33.75,0,0,0,35,0,33.83,33.83,0,0,0,10.24,10.26c-.6.62-1.17,1.24-1.72,1.86l6,5.28c.44-.5.9-1,1.38-1.48A26.08,26.08,0,0,1,35,8a26,26,0,0,1,19.1,7.92A26,26,0,0,1,62,35a28.54,28.54,0,0,1-.9,7.26Z"/></g><g class="cls-3"><g class="cls-4"><text class="cls-5" transform="matrix(1, 0, -0.14, 0.99, 25.09, 44.63)">$</text></g></g></g></g></svg>