<svg xmlns="http://www.w3.org/2000/svg" viewBox="0 0 83.86 92.74"><defs><style>.cls-1,.cls-2{fill:none;stroke:#63c932;stroke-miterlimit:3;stroke-width:8px;}.cls-1{stroke-linecap:round;}.cls-3{fill:#63c932;}</style></defs><title>55_1</title><g id="Layer_2" data-name="Layer 2"><g id="Layer_1-2" data-name="Layer 1"><path id="icone_calc_0_Layer0_0_1_STROKES" data-name="icone calc 0 Layer0 0 1 STROKES" class="cls-1" d="M14.44,4H79.26l-12,84.74H14.45A10.14,10.14,0,0,1,4.13,76.86Z"/><path id="icone_calc_0_Layer0_1_1_STROKES" data-name="icone calc 0 Layer0 1 1 STROKES" class="cls-2" d="M22.56,23H65.71"/><g id="icone_calc_0_Layer0_2_FILL" data-name="icone calc 0 Layer0 2 FILL"><path class="cls-3" d="M46.91,72.51l.56-4H43.63l-.56,4h3.84m-15.68,0,.56-4H28l-.56,4h3.84m8.4-4H35.79l-.56,4h3.84l.56-4m1.12-7.92H36.91l-.56,4h3.84l.56-4m-7.84,0H29.07l-.56,4h3.84l.56-4m1.68-11.88.56-4H31.31l-.56,4h3.84m-.56,4H30.19l-.56,4h3.84l.56-4m7.84,0H38l-.56,4h3.84l.56-4M43,44.79H39.15l-.56,4h3.84l.56-4M56.45,60.63H52.59L50.9,72.53h3.86l1.69-11.9m-7.86,0H44.75l-.56,4H48l.56-4m1.68-11.88.56-4H47l-.56,4h3.84m-.56,4H45.87l-.56,4h3.84l.56-4m7.86,0H53.71l-.56,4H57l.56-4m1.12-7.92H54.83l-.56,4h3.86l.56-4M20.11,68.55l-.56,4h3.84l.56-4H20.11m5-7.92H21.23l-.56,4h3.84l.56-4m1.12-7.92H22.35l-.56,4h3.84l.56-4m-3.28-4h3.84l.56-4H23.47l-.56,4m1.68-11.87-.56,4h3.84l.56-4H24.59m26.8,4,.56-4H48.11l-.56,4h3.84m7.86,0,.56-4H56l-.56,4h3.86m-23.54,0,.56-4H32.43l-.56,4h3.84m7.84,0,.56-4H40.27l-.56,4Z"/></g></g></g></svg>