<svg xmlns="http://www.w3.org/2000/svg" viewBox="0 0 124.48 71.88"><defs><style>.cls-1{fill:none;stroke:#63c932;stroke-miterlimit:3;stroke-width:8px;}.cls-2{fill:#63c932;}</style></defs><title>55_2</title><g id="Layer_2" data-name="Layer 2"><g id="Layer_1-2" data-name="Layer 1"><path id="icone_notas_0_Layer0_0_1_STROKES" data-name="icone notas 0 Layer0 0 1 STROKES" class="cls-1" d="M8.17,4H99.83L94.11,44.4H14.45A10.14,10.14,0,0,1,4.13,32.54Z"/><g id="icone_notas_0_Layer0_1_FILL" data-name="icone notas 0 Layer0 1 FILL"><path class="cls-2" d="M52.8,11.11l-.67,2.54a14.24,14.24,0,0,0-4.14.54A4.72,4.72,0,0,0,45.49,16a7.76,7.76,0,0,0-1.18,3.42A5.57,5.57,0,0,0,44.76,23a5.79,5.79,0,0,0,3,2.35l3.71,1.59a2.61,2.61,0,0,1,1.15.64,1.13,1.13,0,0,1,.22,1.05,1.14,1.14,0,0,1-.62,1,5.31,5.31,0,0,1-1.93.24c-.56,0-1.42,0-2.56-.05l-4.33-.09-.87,3.89c.79.19,1.55.34,2.27.45s1.38.22,2,.29l-.74,3h4l.7-2.92a12.32,12.32,0,0,0,4.08-.69,4.82,4.82,0,0,0,2.38-1.88,8.56,8.56,0,0,0,1.1-3.37,5.64,5.64,0,0,0-.45-3.61,5.69,5.69,0,0,0-3-2.4l-3.41-1.4a3.75,3.75,0,0,1-1.4-.74,1.11,1.11,0,0,1-.26-1,1.19,1.19,0,0,1,.62-1.05A4.81,4.81,0,0,1,52.16,18l2.34,0c.82,0,1.59,0,2.3.05l1.94,0,.87-3.56a13.07,13.07,0,0,0-1.74-.45c-.61-.13-1.21-.23-1.8-.31l.69-2.68Z"/></g><g id="icone_notas_0_Layer0_2_FILL" data-name="icone notas 0 Layer0 2 FILL"><path class="cls-2" d="M38.2,17.16l.66-4.7H16.7L16,17.16Z"/></g><g id="icone_notas_0_Layer0_3_FILL" data-name="icone notas 0 Layer0 3 FILL"><path class="cls-2" d="M87.22,37l.66-4.7H65.72L65.06,37Z"/></g><path id="icone_notas_0_Layer0_4_1_STROKES" data-name="icone notas 0 Layer0 4 1 STROKES" class="cls-1" d="M97.63,15.16h12.64l-5.72,40.4H24.89A10.14,10.14,0,0,1,14.57,43.7l.07-.48"/><path id="icone_notas_0_Layer0_5_1_STROKES" data-name="icone notas 0 Layer0 5 1 STROKES" class="cls-1" d="M107.23,27.48h12.64l-5.72,40.4H34.49A10.14,10.14,0,0,1,24.17,56l.07-.48"/></g></g></svg>