<svg xmlns="http://www.w3.org/2000/svg" viewBox="0 0 66.08 71.54"><defs><style>.cls-1{fill:none;stroke:#63c932;stroke-miterlimit:3;stroke-width:8px;}.cls-2{fill:#63c932;}</style></defs><title>55_3</title><g id="Layer_2" data-name="Layer 2"><g id="Layer_1-2" data-name="Layer 1"><path id="icone_porc_0_Layer0_0_1_STROKES" data-name="icone porc 0 Layer0 0 1 STROKES" class="cls-1" d="M56.76,57.41a11.32,11.32,0,0,1-4,7.15,11.31,11.31,0,0,1-7.66,3,8.64,8.64,0,0,1-8.8-10.15A12.08,12.08,0,0,1,48,47.25a8.64,8.64,0,0,1,8.81,10.16Z"/><path id="icone_porc_0_Layer0_1_1_STROKES" data-name="icone porc 0 Layer0 1 1 STROKES" class="cls-1" d="M31.73,15.29a11.28,11.28,0,0,1-4,7.16,11.34,11.34,0,0,1-7.65,3,8.62,8.62,0,0,1-8.81-10.15,11.43,11.43,0,0,1,4-7.18,11.44,11.44,0,0,1,7.68-2.95,8.63,8.63,0,0,1,8.8,10.15Z"/><g id="icone_porc_0_Layer0_2_FILL" data-name="icone porc 0 Layer0 2 FILL"><path class="cls-2" d="M0,71.21H10.31L66.08,0H55.75Z"/></g></g></g></svg>