<svg xmlns="http://www.w3.org/2000/svg" viewBox="0 0 75.08 72.13"><defs><style>.cls-1{fill:#fff;}.cls-2{fill:none;stroke:#63c932;stroke-miterlimit:3;stroke-width:8px;}.cls-3{fill:#63c932;}</style></defs><title>58_1</title><g id="Layer_2" data-name="Layer 2"><g id="Layer_1-2" data-name="Layer 1"><path class="cls-1" d="M70.45,36.07a30.39,30.39,0,0,0-9.73-22.69A32.61,32.61,0,0,0,37.23,4a32.67,32.67,0,0,0-23.5,9.38A30.45,30.45,0,0,0,4,36.07a30.37,30.37,0,0,0,9.71,22.67,32.6,32.6,0,0,0,23.5,9.4,32.55,32.55,0,0,0,23.49-9.4A30.32,30.32,0,0,0,70.45,36.07Z"/><path class="cls-2" d="M70.43,36.07A30.33,30.33,0,0,1,60.7,58.74a32.57,32.57,0,0,1-23.48,9.39,32.64,32.64,0,0,1-23.51-9.39A30.39,30.39,0,0,1,4,36.07a30.43,30.43,0,0,1,9.71-22.69A32.67,32.67,0,0,1,37.22,4,32.6,32.6,0,0,1,60.7,13.38,30.38,30.38,0,0,1,70.43,36.07Z"/><g id="icone_check_0_Layer0_3_FILL" data-name="icone check 0 Layer0 3 FILL"><path class="cls-3" d="M75.08,4H69.9L34.14,47.56,22.7,25.62H18.2L33.4,54.78Z"/></g></g></g></svg>