<svg xmlns="http://www.w3.org/2000/svg" viewBox="0 0 79.76 86.26"><defs><style>.cls-1,.cls-4{fill:none;stroke:#63c932;stroke-miterlimit:3;}.cls-1{stroke-width:8px;}.cls-2{fill:#63c932;}.cls-3{fill:#fff;}.cls-4{stroke-width:4px;}</style></defs><title>5_1</title><g id="Layer_2" data-name="Layer 2"><g id="Layer_1-2" data-name="Layer 1"><path id="icone_documento_0_Layer0_0_1_STROKES" data-name="icone documento 0 Layer0 0 1 STROKES" class="cls-1" d="M30.89,4H75.16L66.69,63.87H31.11a7.34,7.34,0,0,1-7.48-8.6Z"/><path id="icone_documento_0_Layer0_1_1_STROKES" data-name="icone documento 0 Layer0 1 1 STROKES" class="cls-1" d="M49.07,62.76l-1.9,12.16H11.57a7.38,7.38,0,0,1-7.48-8.6l7.26-51.26H29.79"/><g id="linhas_0_Layer0_0_FILL" data-name="linhas 0 Layer0 0 FILL"><path class="cls-2" d="M37.89,15.06l-.56,4h28l.56-4Z"/></g><g id="linhas_0_Layer0_1_FILL" data-name="linhas 0 Layer0 1 FILL"><path class="cls-2" d="M36.76,23.07l-.56,4H64.14l.56-4Z"/></g><g id="linhas_0_Layer0_2_FILL" data-name="linhas 0 Layer0 2 FILL"><path class="cls-2" d="M35.63,31.09l-.56,4H63l.56-4Z"/></g><g id="dtlh_0_Layer0_0_FILL" data-name="dtlh 0 Layer0 0 FILL"><path class="cls-3" d="M66.94,59.52l3.63-1.16.58-3.65,2.51-3L72,48.8l.46-3.65L69.14,44,67.35,41.1l-3.65,1-3.37-1L57.72,44,54.1,45.15l-.58,3.65-2.52,3,1.69,3-.46,3.65,3.29,1.16,1.16,1.86-2.8,19.84,4.6-4,3.5,4L64.69,62l-.35.39-3.36-1-3.66,1,3.66-1,3.36,1,.35-.39.09-.62-.09.62Z"/></g><path id="dtlh_0_Layer0_0_1_STROKES" data-name="dtlh 0 Layer0 0 1 STROKES" class="cls-4" d="M64.69,62,62,81.22l-3.5-4-4.6,4,2.81-19.83-1.17-1.87-3.29-1.16.46-3.65-1.69-3,2.52-3,.58-3.65L57.72,44l2.61-2.89,3.37,1,3.65-1L69.14,44l3.3,1.16L72,48.8l1.68,3-2.51,3-.58,3.65-3.63,1.16L64.69,62l.09-.62m-.09.62-.35.39-3.36-1-3.66,1"/></g></g></svg>