<?xml version="1.0" encoding="utf-8"?>
<!-- Generator: Adobe Illustrator 23.0.3, SVG Export Plug-In . SVG Version: 6.00 Build 0)  -->
<svg version="1.1" id="Layer_1" xmlns="http://www.w3.org/2000/svg" xmlns:xlink="http://www.w3.org/1999/xlink" x="0px" y="0px"
	 viewBox="0 0 72.9 97.7" style="enable-background:new 0 0 72.9 97.7;" xml:space="preserve">
<style type="text/css">
	.st0{fill:#FFFFFF;}
</style>
<g>
	<g id="Layer_1-2">
		<g id="icone_dinheiro_0_Layer0_0_FILL">
			<g>
				<path class="st0" d="M39.5,11.3L41,0H31l-1.6,11.3H0.6l-0.6,4h15l-8,57c-0.2,0.9-0.2,1.9-0.2,2.8c0.3,7.6,6.5,13.7,14.1,13.7
					c0.1,0,0.3,0,0.4,0h6.8l-0.9,6.7c-0.2,1.1,0.6,2.1,1.7,2.3c0.1,0,0.2,0,0.3,0c1,0,1.8-0.7,2-1.7l1-7.2H34L33.7,91
					c-0.3,2.2,1.2,4.2,3.4,4.5c0.2,0,0.4,0,0.6,0c2,0,3.7-1.4,4-3.4l0.5-3.2h3.9l10.4-73.5h16l0.6-4H39.5V11.3z M32.7,16.6L34.5,4h2
					l-1.9,13.4h-1.3c-0.3,0-0.5-0.2-0.6-0.5C32.7,16.8,32.7,16.8,32.7,16.6z M41.4,63.6c-0.8,0.5-1.5,1.3-1.6,2.3
					c-0.1,0.7,0.1,1.4,0.5,1.9c0.1,0.2,0.3,0.3,0.4,0.4l-0.4,2.7c-1.2-1-2.8-1.5-4.3-1.5c-4.4,0.1-8.1,3.3-8.9,7.7c0,0,0,0,0,0.1
					c-0.3-0.1-0.5-0.2-0.8-0.2c-0.3-0.1-0.6-0.1-0.9-0.1c-2.4,0-4.5,1.6-5.2,3.9c-3-0.4-5.3-2.8-5.4-5.9c0-0.4,0-0.8,0.1-1.3
					l7.7-54.3h6.9c0.8,1.2,2.2,2,3.7,2H38l0.3-2h9.3L41.4,63.6z"/>
			</g>
		</g>
		<g id="cedula_0_Layer0_1_FILL">
			<g>
				<path class="st0" d="M33.1,35.1l-0.7,2.5c-1.4,0-2.8,0.2-4.1,0.5c-1,0.3-1.9,0.9-2.5,1.8c-0.7,1-1.1,2.2-1.2,3.4
					c-0.3,1.2-0.1,2.5,0.5,3.6c0.7,1.1,1.8,1.9,3,2.4l3.7,1.6c0.4,0.1,0.8,0.3,1.2,0.6c0.2,0.3,0.3,0.7,0.2,1c0,0.4-0.2,0.8-0.6,1
					c-0.6,0.2-1.3,0.3-1.9,0.2c-0.6,0-1.4,0-2.6,0s-2.6-0.1-4.3-0.1l-0.9,3.9c0.8,0.2,1.5,0.3,2.3,0.5s1.4,0.2,2,0.3l-0.7,3h4
					l0.7-2.9c1.4,0,2.8-0.2,4.1-0.7c1-0.4,1.8-1,2.4-1.9c0.6-1,1-2.2,1.1-3.4c0.3-1.2,0.1-2.5-0.5-3.6c-0.7-1.1-1.8-2-3-2.4L31.9,45
					c-0.5-0.1-1-0.4-1.4-0.7c-0.2-0.3-0.3-0.6-0.3-1s0.3-0.8,0.6-1c0.6-0.2,1.1-0.3,1.7-0.3h2.3c0.8,0,1.6,0,2.3,0s1.4,0,1.9,0
					l0.9-3.6c-0.6-0.2-1.2-0.3-1.7-0.5c-0.6-0.1-1.2-0.2-1.8-0.3l0.7-2.7L33.1,35.1z"/>
			</g>
		</g>
		<g id="cedula_0_Layer0_3_FILL">
			<g>
				<path class="st0" d="M26.3,71.3c-0.3-0.4-0.8-0.6-1.3-0.6s-1,0.2-1.5,0.6c-0.4,0.3-0.7,0.8-0.8,1.4c-0.1,0.5,0,1,0.4,1.4
					c0.3,0.4,0.8,0.6,1.3,0.6c1.1-0.1,2-0.8,2.2-1.9C26.7,72.2,26.6,71.6,26.3,71.3z"/>
			</g>
		</g>
	</g>
</g>
</svg>
