<svg xmlns="http://www.w3.org/2000/svg" viewBox="0 0 72.9 97.73"><defs><style>.cls-1{fill:#63c932;}.cls-2,.cls-3,.cls-4,.cls-5{fill:none;stroke:#63c932;}.cls-2,.cls-3{stroke-miterlimit:3;}.cls-2,.cls-4{stroke-width:8px;}.cls-3,.cls-5{stroke-width:4px;}.cls-4,.cls-5{stroke-linecap:round;stroke-linejoin:bevel;}</style></defs><title>5_2</title><g id="Layer_2" data-name="Layer 2"><g id="Layer_1-2" data-name="Layer 1"><g id="icone_dinheiro_0_Layer0_0_FILL" data-name="icone dinheiro 0 Layer0 0 FILL"><path class="cls-1" d="M31.62,15.25l.56-4H.56l-.56,4H31.62m40.72,0,.56-4H37.74l-.56,4Z"/></g><path id="cedula_0_Layer0_0_1_STROKES" data-name="cedula 0 Layer0 0 1 STROKES" class="cls-2" d="M38.26,15.32h14L42.41,84.78H21.25A10.14,10.14,0,0,1,10.93,72.9l8.15-57.58H29.86"/><g id="cedula_0_Layer0_1_FILL" data-name="cedula 0 Layer0 1 FILL"><path class="cls-1" d="M33.13,35.11l-.67,2.54a14.2,14.2,0,0,0-4.14.55A4.67,4.67,0,0,0,25.82,40a7.71,7.71,0,0,0-1.18,3.42A5.54,5.54,0,0,0,25.09,47a5.8,5.8,0,0,0,3,2.36l3.71,1.59a2.61,2.61,0,0,1,1.15.64,1.11,1.11,0,0,1,.22,1,1.16,1.16,0,0,1-.62,1,5.36,5.36,0,0,1-1.93.23c-.56,0-1.42,0-2.56,0s-2.59-.07-4.33-.1l-.87,3.9c.79.19,1.55.34,2.27.45s1.38.22,2,.28l-.74,3h4l.7-2.92a12.07,12.07,0,0,0,4.08-.69,4.8,4.8,0,0,0,2.38-1.87,8.61,8.61,0,0,0,1.1-3.38,5.65,5.65,0,0,0-.45-3.61,5.78,5.78,0,0,0-3-2.4l-3.4-1.4a3.74,3.74,0,0,1-1.41-.73,1.13,1.13,0,0,1-.26-1,1.16,1.16,0,0,1,.63-1A4.88,4.88,0,0,1,32.49,42l2.34,0c.82,0,1.59,0,2.3,0s1.38,0,1.94,0l.87-3.56a13.11,13.11,0,0,0-1.74-.46c-.61-.12-1.21-.23-1.8-.3l.69-2.69Z"/></g><g id="cedula_0_Layer0_2_FILL" data-name="cedula 0 Layer0 2 FILL"><path class="cls-1" d="M41.15,71.68A6.52,6.52,0,0,0,36,69.42a9.23,9.23,0,0,0-8.87,7.7,6.57,6.57,0,0,0,6.69,7.7,8.66,8.66,0,0,0,5.82-2.26,8.62,8.62,0,0,0,3-5.44A6.54,6.54,0,0,0,41.15,71.68Z"/></g><g id="cedula_0_Layer0_3_FILL" data-name="cedula 0 Layer0 3 FILL"><path class="cls-1" d="M26.27,71.26A1.62,1.62,0,0,0,25,70.71a2.19,2.19,0,0,0-1.45.55,2.23,2.23,0,0,0-.76,1.37A1.62,1.62,0,0,0,23.14,74a1.64,1.64,0,0,0,1.3.58,2.37,2.37,0,0,0,2.21-1.92A1.63,1.63,0,0,0,26.27,71.26Z"/></g><g id="cedula_0_Layer0_4_FILL" data-name="cedula 0 Layer0 4 FILL"><path class="cls-1" d="M45.17,65.9a2.29,2.29,0,0,0-.54-1.9,2.22,2.22,0,0,0-1.79-.77,3.13,3.13,0,0,0-3.07,2.67,2.23,2.23,0,0,0,.51,1.88,2.27,2.27,0,0,0,1.81.79,3.25,3.25,0,0,0,3.08-2.67Z"/></g><g id="cedula_0_Layer0_5_FILL" data-name="cedula 0 Layer0 5 FILL"><path class="cls-1" d="M25.43,76.88A5.6,5.6,0,0,0,20,81.59a6.44,6.44,0,0,0-.06.86h9.38a4.14,4.14,0,0,0,.2-.86,4,4,0,0,0-4.09-4.71Z"/></g><path id="icone_dinheiro_0_Layer0_2_1_STROKES" data-name="icone dinheiro 0 Layer0 2 1 STROKES" class="cls-3" d="M32.75,2h6L36.31,19.36h-3a2.54,2.54,0,0,1-2.58-3Z"/><path id="icone_dinheiro_0_Layer0_3_1_STROKES" data-name="icone dinheiro 0 Layer0 3 1 STROKES" class="cls-4" d="M38.76,82.8l-1.22,8.61"/><path id="icone_dinheiro_0_Layer0_4_1_STROKES" data-name="icone dinheiro 0 Layer0 4 1 STROKES" class="cls-5" d="M30.66,84.83l-1.54,10.9"/></g></g></svg>