<?xml version="1.0" encoding="utf-8"?>
<!-- Generator: Adobe Illustrator 23.0.3, SVG Export Plug-In . SVG Version: 6.00 Build 0)  -->
<svg version="1.1" id="Layer_1" xmlns="http://www.w3.org/2000/svg" xmlns:xlink="http://www.w3.org/1999/xlink" x="0px" y="0px"
	 viewBox="0 0 79.7 91.7" style="enable-background:new 0 0 79.7 91.7;" xml:space="preserve">
<style type="text/css">
	.st0{fill:#FFFFFF;}
</style>
<g>
	<g id="Layer_1-2">
		<g id="pessoa_0_Layer0_0_1_STROKES">
			<path class="st0" d="M21.7,31.5c-0.2-0.9-0.4-1.8-0.5-2.7c-0.1-0.9-0.2-1.9-0.2-2.9v12.3c0,1.3-0.5,2.5-1.5,3.5
				c-0.9,0.9-2.1,1.5-3.4,1.4h-5V13.9c1.9-1.6,3.6-2.5,5.1-2.5l0,0c0.6,0,1.3,0.2,2,0.5c0.6,0.3,1.1,0.6,1.7,1
				c0.4-0.5,0.8-1.1,1.3-1.5c1.5-1.6,3.5-2.6,5.7-2.9c-0.6-0.6-1.2-1.2-1.8-1.7c-0.7-0.5-1.3-1-2-1.4c-2.2-1.3-4.4-2-6.8-2
				c-4.1-0.1-8.3,2-12.2,6L3,10.6v40.5h13.1c0.1,0,0.1,0,0.2,0c1.8,0,3.6-0.4,5.2-1.2c1.4-0.6,2.6-1.5,3.6-2.6
				c1.2-1.2,2.2-2.6,2.8-4.2C24.9,39.9,22.7,35.9,21.7,31.5z M28.5,30.9v4c0.2,0,0.3,0,0.5,0v-4C28.8,30.9,28.7,30.9,28.5,30.9z"/>
		</g>
		<g id="pessoa_0_Layer0_1_FILL">
			<g>
				<path class="st0" d="M28.7,8.4h-0.2c-0.3,0-0.6,0-0.9,0c0.3-0.3,0.6-0.6,0.9-0.9c0.4-0.4,0.7-0.7,1.1-1.1c-0.3,0-0.6,0-0.9,0
					c-1.2,0-2.4,0.1-3.5,0.5c-2,0.6-3.8,1.6-5.3,3.2c-0.6,0.6-1.1,1.2-1.6,1.9c-1.4,2-2.1,4.4-2.1,6.9c0,3.3,1.3,6.5,3.7,8.8
					c0.4,0.4,0.7,0.7,1.1,1c0.1,0.1,0.1,0.1,0.2,0.2C21.1,28,21,27,21,26c-1.8-1.9-2.8-4.5-2.8-7.2c0-2.1,0.6-4.1,1.8-5.8
					c0.4-0.5,0.8-1.1,1.3-1.5c1.5-1.6,3.5-2.6,5.7-2.9c0.1,0.1,0.2,0.2,0.3,0.3C27.5,9,27.7,9.2,28,9.5l0.7,0.8
					c0.8-0.6,1.7-1.1,2.7-1.5C30.5,8.5,29.6,8.4,28.7,8.4z"/>
			</g>
		</g>
		<g id="pessoa_0_Layer0_1_1_STROKES">
			<path class="st0" d="M28.7,4.4c-1.9,0-3.8,0.3-5.5,1c-1.8,0.7-3.4,1.8-4.7,3.1c-0.9,0.9-1.6,1.8-2.3,2.8c-1.3,2.2-2,4.8-2,7.4
				c-0.1,3.9,1.5,7.6,4.2,10.3c0.8,0.8,1.6,1.5,2.6,2.1c0.2,0.1,0.4,0.3,0.7,0.4c-0.2-0.9-0.4-1.8-0.5-2.7c-0.1-0.9-0.2-1.9-0.2-2.9
				c-1.8-1.9-2.8-4.5-2.8-7.2c0-2.1,0.6-4.1,1.8-5.8c0.4-0.5,0.8-1.1,1.3-1.5c1.5-1.6,3.5-2.6,5.7-2.9c0.2,0,0.4,0,0.6-0.1
				c0.3-0.3,0.6-0.6,0.9-0.9c0.4-0.4,0.7-0.7,1.1-1.1c0.7-0.6,1.4-1.2,2.1-1.7C30.7,4.5,29.7,4.4,28.7,4.4z"/>
		</g>
		<g id="pessoa_0_Layer0_2_1_STROKES">
			<path class="st0" d="M38,49.7c2.7,1,5.7,1.5,8.6,1.4h0.3c2.8,0,5.6-0.5,8.3-1.4H38z M28.7,8.4h-0.2c-0.3,0-0.6,0-0.9,0
				c-0.1,0.1-0.2,0.2-0.3,0.3C27.5,9,27.7,9.2,28,9.5l0.7,0.8c0.8-0.6,1.7-1.1,2.7-1.5C30.5,8.5,29.6,8.4,28.7,8.4z M29.8,30.9
				c-0.5-1.6-0.8-3.3-0.8-5v5c-0.2,0-0.3,0-0.5,0v4c0.2,0,0.3,0,0.5,0c0.9,0,1.7,0,2.6-0.1C30.8,33.5,30.2,32.2,29.8,30.9z"/>
			<path class="st0" d="M64.6,7.5C60,2.7,53.5,0,46.9,0h-0.3C41.2-0.1,36,1.6,31.7,4.7c-0.7,0.5-1.4,1.1-2.1,1.7
				c-0.4,0.3-0.8,0.7-1.1,1.1c-0.3,0.3-0.6,0.6-0.9,0.9c0.3,0,0.6,0,0.9,0h0.2c0.9,0,1.8,0.1,2.7,0.3c-1,0.4-1.9,0.9-2.7,1.5L28,9.5
				c-0.2-0.3-0.5-0.5-0.7-0.7c-4,4.5-6.3,10.4-6.3,16.5V26c0,1,0.1,1.9,0.2,2.9c0.1,0.9,0.3,1.8,0.5,2.7c1,4.4,3.2,8.4,6.4,11.6
				c0.2,0.2,0.3,0.3,0.5,0.5c2.6,2.7,5.9,4.8,9.4,6.1h17.2c3.5-1.3,6.8-3.3,9.5-6.1c4.8-4.7,7.6-11.3,7.5-18
				C72.2,18.8,69.5,12.2,64.6,7.5z M64.1,25.6c0.1,4.6-1.8,9.1-5.1,12.3L58.9,38c-3.2,3.3-7.6,5.2-12.3,5.1h-0.1
				c-4.6,0.1-9.1-1.8-12.3-5.1l-0.1-0.1c-1-0.9-1.8-2-2.5-3.1c-0.9,0.1-1.7,0.1-2.6,0.1c-0.2,0-0.3,0-0.5,0v-4c0.2,0,0.3,0,0.5,0
				v-5.6c0-4.5,1.8-8.9,5.1-12.1l0.1-0.1C37.4,9.8,42,7.9,46.5,8h0.1c4.6-0.1,9.1,1.8,12.3,5.1l0.1,0.1c0.6,0.6,1.2,1.3,1.7,2
				c0.9,1.2,1.6,2.4,2.1,3.7C63.7,21,64.1,23.2,64.1,25.6L64.1,25.6z"/>
		</g>
		<g id="pessoa_0_Layer0_3_1_STROKES">
			<path class="st0" d="M73.6,54.2c-3.6-3-8.7-4.5-15.5-4.6H24.9c-1.1,0-2.3,0.1-3.3,0.2C19.8,50,18,50.4,16.4,51
				c-2.7,0.9-5.1,2.3-7.1,4.1c-3.7,3.3-6,7.8-6.4,12.7L0,91.7h76.7l2.9-20.3v-0.3C80.1,63.6,78.1,57.9,73.6,54.2z M71.6,70.4
				l-1.9,13.3H9l1.8-14.9v-0.2c0.2-2.9,1.5-5.5,3.7-7.4c1.8-1.6,3.9-2.6,6.5-3.1c1.2-0.3,2.6-0.4,4-0.4h33c1.4,0,2.7,0.1,3.9,0.3
				c2.9,0.4,5.1,1.2,6.6,2.5C70.9,62.4,71.9,65.6,71.6,70.4z"/>
		</g>
		<g id="pessoa_0_Layer0_4_FILL">
			<g>
				<path class="st0" d="M20,90.2l4.1,0.5L26.5,69h-4.2L20,90.2z"/>
			</g>
		</g>
		<g id="pessoa_0_Layer0_5_FILL">
			<g>
				<path class="st0" d="M51.7,91l4.1,0.5L58.4,69h-4.2L51.7,91z"/>
			</g>
		</g>
		<g id="pessoa_0_Layer0_6_1_STROKES">
			<polygon class="st0" points="46.2,87.5 42.2,87.4 42.7,73.7 19,56.7 21.4,53.4 46.8,71.7 			"/>
		</g>
		<g id="pessoa_0_Layer0_7_1_STROKES">
			
				<rect x="38.2" y="52.6" transform="matrix(0.8959 -0.4442 0.4442 0.8959 -23.907 24.4365)" class="st0" width="4" height="21.3"/>
		</g>
		<g id="pessoa_0_Layer0_8_1_STROKES">
			
				<rect x="41.7" y="60.4" transform="matrix(0.7948 -0.6069 0.6069 0.7948 -27.0378 44.8082)" class="st0" width="22.1" height="4"/>
		</g>
		<g id="pessoa_0_Layer0_9_1_STROKES">
			<rect x="38.4" y="58.3" transform="matrix(0.6255 -0.7802 0.7802 0.6255 -30.3803 57.2153)" class="st0" width="12" height="4"/>
		</g>
		<g id="pessoa_0_Layer0_10_1_STROKES">
			<path class="st0" d="M62.8,18.9c-8.3,9.7-18.8,15-31.2,15.9c-0.9,0.1-1.7,0.1-2.6,0.1c-0.2,0-0.3,0-0.5,0v-4c0.2,0,0.3,0,0.5,0
				c0.3,0,0.5,0,0.8,0c12.6-0.4,22.7-5.6,31-15.7C61.6,16.3,62.3,17.5,62.8,18.9z"/>
		</g>
	</g>
</g>
</svg>
