<svg xmlns="http://www.w3.org/2000/svg" viewBox="0 0 79.67 91.65"><defs><style>.cls-1,.cls-3,.cls-5{fill:none;stroke:#63c932;}.cls-1,.cls-5{stroke-miterlimit:3;}.cls-1{stroke-width:8px;}.cls-2{fill:#fff;}.cls-3{stroke-linecap:round;stroke-linejoin:round;}.cls-3,.cls-5{stroke-width:4px;}.cls-4{fill:#63c932;}</style></defs><title>5_3</title><g id="Layer_2" data-name="Layer 2"><g id="Layer_1-2" data-name="Layer 1"><path id="pessoa_0_Layer0_0_1_STROKES" data-name="pessoa 0 Layer0 0 1 STROKES" class="cls-1" d="M25,12.17q-8.67-9.55-17.91,0V47.08h9a8.65,8.65,0,0,0,6.32-2.62A8.65,8.65,0,0,0,25,38.14Z"/><g id="pessoa_0_Layer0_1_FILL" data-name="pessoa 0 Layer0 1 FILL"><path class="cls-2" d="M34.31,9.87V7.7a12.13,12.13,0,0,0-5.66-1.31A11.91,11.91,0,0,0,19.86,10a12,12,0,0,0-3.66,8.8,12,12,0,0,0,3.66,8.82,12.25,12.25,0,0,0,3.67,2.58V28.29h2.7a12.15,12.15,0,0,1-1.62-6.24,12,12,0,0,1,3.65-8.8A12,12,0,0,1,34.31,9.87Z"/></g><path id="pessoa_0_Layer0_1_1_STROKES" data-name="pessoa 0 Layer0 1 1 STROKES" class="cls-3" d="M34.31,7.7a12.13,12.13,0,0,0-5.66-1.31A11.91,11.91,0,0,0,19.86,10a12,12,0,0,0-3.66,8.8,12,12,0,0,0,3.66,8.82,12.25,12.25,0,0,0,3.67,2.58m2.71-1.95a12.06,12.06,0,0,1-1.63-6.24,12,12,0,0,1,3.65-8.8,11.94,11.94,0,0,1,6.05-3.37"/><path id="pessoa_0_Layer0_2_1_STROKES" data-name="pessoa 0 Layer0 2 1 STROKES" class="cls-1" d="M68.11,25.55A20.73,20.73,0,0,1,61.8,40.76a20.71,20.71,0,0,1-15.22,6.32,20.77,20.77,0,0,1-15.23-6.32A20.73,20.73,0,0,1,25,25.55a20.74,20.74,0,0,1,6.31-15.23A20.77,20.77,0,0,1,46.58,4,20.71,20.71,0,0,1,61.8,10.32,20.74,20.74,0,0,1,68.11,25.55Z"/><path id="pessoa_0_Layer0_3_1_STROKES" data-name="pessoa 0 Layer0 3 1 STROKES" class="cls-1" d="M73.2,87.65H4.51l2.3-19.34A14.89,14.89,0,0,1,11.86,58.2q5-4.41,13.12-4.55H58.06q8.7.15,13,3.67,5.13,4.23,4.51,13.47Z"/><g id="pessoa_0_Layer0_4_FILL" data-name="pessoa 0 Layer0 4 FILL"><path class="cls-4" d="M20,90.17l4.11.49L26.52,69H22.36Z"/></g><g id="pessoa_0_Layer0_5_FILL" data-name="pessoa 0 Layer0 5 FILL"><path class="cls-4" d="M51.71,91l4.1.49L58.4,69H54.21Z"/></g><path id="pessoa_0_Layer0_6_1_STROKES" data-name="pessoa 0 Layer0 6 1 STROKES" class="cls-5" d="M44.24,87.43l.49-14.74L20.21,55.07"/><path id="pessoa_0_Layer0_7_1_STROKES" data-name="pessoa 0 Layer0 7 1 STROKES" class="cls-5" d="M35.44,53.71,44.9,72.79"/><path id="pessoa_0_Layer0_8_1_STROKES" data-name="pessoa 0 Layer0 8 1 STROKES" class="cls-5" d="M43.93,69.13,61.52,55.7"/><path id="pessoa_0_Layer0_9_1_STROKES" data-name="pessoa 0 Layer0 9 1 STROKES" class="cls-5" d="M48.23,55.52,40.7,64.91"/><path id="pessoa_0_Layer0_10_1_STROKES" data-name="pessoa 0 Layer0 10 1 STROKES" class="cls-5" d="M65.38,12.25Q51.46,32.71,28.52,32.88"/></g></g></svg>