<svg xmlns="http://www.w3.org/2000/svg" viewBox="0 0 79.45 84.11"><defs><style>.cls-1,.cls-2{fill:none;stroke:#63c932;stroke-miterlimit:3;}.cls-1{stroke-width:8px;}.cls-2{stroke-linecap:square;stroke-width:4px;}.cls-3{fill:#63c932;}</style></defs><title>73_1</title><g id="Layer_2" data-name="Layer 2"><g id="Layer_1-2" data-name="Layer 1"><path id="icone_imposto_0_Layer0_0_1_STROKES" data-name="icone imposto 0 Layer0 0 1 STROKES" class="cls-1" d="M34.43,79.5,4.33,60.79l5.3-37.46L45,4.61,75.13,23.33l-5.3,37.46Z"/><path id="icone_imposto_0_Layer0_1_1_STROKES" data-name="icone imposto 0 Layer0 1 1 STROKES" class="cls-2" d="M9,21.59,10.06,14H28.88"/><g id="icone_imposto_0_Layer0_2_FILL" data-name="icone imposto 0 Layer0 2 FILL"><path class="cls-3" d="M54.53,48.39,54.16,51l-17,9L22.76,51l.37-2.63h-8l-1,7.19L35.9,69.13,61.52,55.58l1-7.19Z"/></g><g id="icone_imposto_0_Layer0_3_FILL" data-name="icone imposto 0 Layer0 3 FILL"><path class="cls-3" d="M40.16,40.14,49.56,35H32.21Z"/></g><path id="icone_imposto_0_Layer0_4_1_STROKES" data-name="icone imposto 0 Layer0 4 1 STROKES" class="cls-2" d="M75.76,23.21,77.06,14H58.24"/><g id="icone_imposto_0_Layer0_5_FILL" data-name="icone imposto 0 Layer0 5 FILL"><path class="cls-3" d="M30.58,29.39h-11l-.56,4H30Z"/></g><g id="icone_imposto_0_Layer0_6_FILL" data-name="icone imposto 0 Layer0 6 FILL"><path class="cls-3" d="M64.94,27.17l.56-4H19.78l-.56,4Z"/></g><g id="icone_imposto_0_Layer0_7_FILL" data-name="icone imposto 0 Layer0 7 FILL"><path class="cls-3" d="M64.18,29.39h-11l-.56,4h11Z"/></g><g id="icone_imposto_0_Layer0_8_FILL" data-name="icone imposto 0 Layer0 8 FILL"><path class="cls-3" d="M42.32,36.59h-4L36.83,47.12H26.75l-.56,4H50.35l.56-4H40.83Z"/></g></g></g></svg>