<svg xmlns="http://www.w3.org/2000/svg" viewBox="0 0 79.21 77.65"><defs><style>.cls-1{fill:none;stroke:#63c932;stroke-miterlimit:3;stroke-width:8px;}.cls-2{fill:#63c932;}</style></defs><title>73_2</title><g id="Layer_2" data-name="Layer 2"><g id="Layer_1-2" data-name="Layer 1"><path id="icone_cifra_baixo_0_Layer0_0_1_STROKES" data-name="icone cifra baixo 0 Layer0 0 1 STROKES" class="cls-1" d="M12.3,4H74.6L64.75,73.65H14.45A10.13,10.13,0,0,1,4.13,61.78Z"/><g id="icone_cifra_baixo_0_Layer0_1_FILL" data-name="icone cifra baixo 0 Layer0 1 FILL"><path class="cls-2" d="M30.84,17.84l-.67,2.54a13.83,13.83,0,0,0-4.13.54,4.74,4.74,0,0,0-2.51,1.76,7.84,7.84,0,0,0-1.18,3.42,5.54,5.54,0,0,0,.45,3.58,5.83,5.83,0,0,0,3,2.35l3.71,1.59a2.76,2.76,0,0,1,1.16.64,1.15,1.15,0,0,1,.21,1.05,1.12,1.12,0,0,1-.62,1,5.31,5.31,0,0,1-1.93.24c-.56,0-1.41,0-2.56-.05l-4.33-.09-.86,3.89c.79.19,1.54.34,2.26.45s1.39.22,2,.29l-.74,3h4l.7-2.92a12,12,0,0,0,4.08-.68,4.83,4.83,0,0,0,2.38-1.88,8.56,8.56,0,0,0,1.1-3.37,5.64,5.64,0,0,0-.45-3.61,5.74,5.74,0,0,0-3-2.4l-3.4-1.4A3.89,3.89,0,0,1,28,27.05,1.14,1.14,0,0,1,27.74,26a1.16,1.16,0,0,1,.63-1,4.88,4.88,0,0,1,1.83-.22l2.35,0c.81,0,1.58,0,2.29,0s1.39,0,1.95,0l.86-3.56a12.69,12.69,0,0,0-1.74-.45c-.6-.13-1.2-.23-1.8-.31l.69-2.68Z"/></g><g id="seta_0_Layer0_0_FILL" data-name="seta 0 Layer0 0 FILL"><path class="cls-2" d="M45.8,63.08l14.07-12.2H35.19Z"/></g><g id="seta_0_Layer0_1_FILL" data-name="seta 0 Layer0 1 FILL"><path class="cls-2" d="M43.53,50.9h8L57.87,6.1h-8Z"/></g></g></g></svg>