<svg xmlns="http://www.w3.org/2000/svg" viewBox="0 0 94.3 94.67"><defs><style>.cls-1,.cls-2{fill:none;stroke:#63c932;stroke-miterlimit:3;}.cls-1{stroke-width:8px;}.cls-2{stroke-width:5.55px;}.cls-3,.cls-4,.cls-5{fill:#63c932;}.cls-4{font-size:33px;}.cls-4,.cls-5{font-family:Exo2.0-Bold, "Exo 2.0";font-weight:700;}.cls-5{font-size:20px;}</style></defs><title>74_2</title><g id="Layer_2" data-name="Layer 2"><g id="Layer_1-2" data-name="Layer 1"><path id="icone_relogio_0_Layer0_0_1_STROKES" data-name="icone relogio 0 Layer0 0 1 STROKES" class="cls-1" d="M68.4,58.49A31,31,0,0,1,59,81.23,31,31,0,0,1,36.2,90.67a31.06,31.06,0,0,1-22.78-9.44A31,31,0,0,1,4,58.49a31.06,31.06,0,0,1,9.42-22.78A31.08,31.08,0,0,1,36.2,26.29,31,31,0,0,1,59,35.71,31,31,0,0,1,68.4,58.49Z"/><path id="icone_relogio_0_Layer0_6_1_STROKES" data-name="icone relogio 0 Layer0 6 1 STROKES" class="cls-2" d="M91.52,19a15.57,15.57,0,0,1-4.78,11.47,16.2,16.2,0,0,1-23,0A15.66,15.66,0,0,1,59,19a15.76,15.76,0,0,1,4.75-11.5,16.27,16.27,0,0,1,23,0A15.67,15.67,0,0,1,91.52,19Z"/><g id="icone_relogio_0_Layer0_7_FILL" data-name="icone relogio 0 Layer0 7 FILL"><path class="cls-3" d="M53.4,28.57c-.17,3.19.4,5.33,1.72,6.44a66.53,66.53,0,0,1,7.94,8.17c.35.46,1.51,1.19,4.71,1-3.17-5.93-1.45-8.88,8-5.87A60.71,60.71,0,0,1,57,23.3Q59.82,32.32,53.4,28.57Z"/></g><text class="cls-4" transform="translate(27.34 69.53)">$</text><text class="cls-5" transform="translate(71.34 26.29)">1</text></g></g></svg>