<svg xmlns="http://www.w3.org/2000/svg" viewBox="0 0 82.48 86.72"><defs><style>.cls-1{fill:none;stroke:#63c932;stroke-miterlimit:3;stroke-width:8px;}.cls-2{fill:#63c932;}</style></defs><title>74_5</title><g id="Layer_2" data-name="Layer 2"><g id="Layer_1-2" data-name="Layer 1"><path id="icone_boleto_0_Layer0_0_1_STROKES" data-name="icone boleto 0 Layer0 0 1 STROKES" class="cls-1" d="M13.59,4H77.87L66.73,82.72H14.45A10.11,10.11,0,0,1,4.13,70.86Z"/><g id="linhas2_0_Layer0_0_FILL" data-name="linhas2 0 Layer0 0 FILL"><path class="cls-2" d="M64.69,22.46l.56-4H22.56l-.56,4Z"/></g><g id="linhas2_0_Layer0_1_FILL" data-name="linhas2 0 Layer0 1 FILL"><path class="cls-2" d="M63.66,29.74l.56-4H21.53l-.56,4Z"/></g><g id="linhas2_0_Layer0_2_FILL" data-name="linhas2 0 Layer0 2 FILL"><path class="cls-2" d="M62.71,36.45l.56-4H20.58l-.56,4Z"/></g><g id="icone_nota_0_Layer0_1_FILL" data-name="icone nota 0 Layer0 1 FILL"><path class="cls-2" d="M52.9,45.53l-.67,2.54a14.24,14.24,0,0,0-4.14.54,4.72,4.72,0,0,0-2.5,1.76,7.84,7.84,0,0,0-1.18,3.42,5.57,5.57,0,0,0,.45,3.59,5.79,5.79,0,0,0,3,2.35l3.71,1.59a2.61,2.61,0,0,1,1.15.64,1.47,1.47,0,0,1-.4,2,5.31,5.31,0,0,1-1.93.24c-.56,0-1.41,0-2.56,0l-4.33-.09L42.59,68c.79.19,1.55.34,2.27.45s1.38.22,2,.29l-.74,3h4l.7-2.92a12.32,12.32,0,0,0,4.08-.69,4.82,4.82,0,0,0,2.38-1.88,8.56,8.56,0,0,0,1.1-3.37,5,5,0,0,0-3.47-6l-3.4-1.4a3.87,3.87,0,0,1-1.41-.74,1.11,1.11,0,0,1-.26-1,1.18,1.18,0,0,1,.63-1.05,4.72,4.72,0,0,1,1.83-.21l2.34,0c.82,0,1.59,0,2.3,0l1.94,0L59.71,49A13.07,13.07,0,0,0,58,48.52c-.61-.13-1.21-.23-1.8-.31l.69-2.68Z"/></g></g></g></svg>