<svg xmlns="http://www.w3.org/2000/svg" viewBox="0 0 160.2 85.49"><defs><style>.cls-1,.cls-3{fill:none;stroke:#63c932;}.cls-1{stroke-linecap:round;stroke-linejoin:round;stroke-width:6.13px;}.cls-2{fill:#fff;}.cls-3{stroke-miterlimit:3;stroke-width:8px;}.cls-4{fill:#63c932;}</style></defs><title>74_8</title><g id="Layer_2" data-name="Layer 2"><g id="Layer_1-2" data-name="Layer 1"><path class="cls-1" d="M69.76,68.09l-1.64.44,0,3.17a5,5,0,0,0,4.93,4.89l10.75-.06-2.76,1.82a5,5,0,0,0,4.87,4.07l10.74-.06,27.17-.09,33.29-.17-.19-36.84-32.11.17"/><path class="cls-2" d="M107.37,47.72a12.64,12.64,0,0,0,.63-6.78,13.24,13.24,0,0,0-7.51-9.82c-4.26-1.9-8.59.36-9,5.14-.23,2.93,1.09,7.17.45,10.25a65.35,65.35,0,0,0-6.51.65c-9.39,1.29-19.18-.36-28.57-1.07-5.67-.43-7.15,6.55-4.21,10.16,7.21,8.84,20.25,9,30.77,7.07a23.36,23.36,0,0,0,15.42,1,5.48,5.48,0,0,0,3.53-2.64c3.59-.14,6.9-2.92,5.17-7.11C106.34,51.58,106.3,50.66,107.37,47.72Z"/><path id="mao1_0_Layer0_0_1_STROKES" data-name="mao1 0 Layer0 0 1 STROKES" class="cls-1" d="M121.94,45.4l14.24-.08.19,36.84-38.4.2M79.67,66.93,65.59,67a5.31,5.31,0,0,1-5.32-5.26l0-5.29,19.17-.1v-.17l-20,.11a5.16,5.16,0,0,1-3.76-1.55A5,5,0,0,1,54.08,51l0-5.29,51.52-.27M79.41,56.36h.31"/><path class="cls-1" d="M92.49,45.49,95.72,29.8c9.7-2.48,18.32,5.34,26,15.46Z"/><path id="icone_nota_0_Layer0_0_1_STROKES" data-name="icone nota 0 Layer0 0 1 STROKES" class="cls-3" d="M8.17,4H99.83L94.11,44.4H14.45A10.14,10.14,0,0,1,4.13,32.54Z"/><g id="icone_nota_0_Layer0_1_FILL" data-name="icone nota 0 Layer0 1 FILL"><path class="cls-4" d="M52.8,11.11l-.67,2.54a14.24,14.24,0,0,0-4.14.54A4.72,4.72,0,0,0,45.49,16a7.76,7.76,0,0,0-1.18,3.42A5.57,5.57,0,0,0,44.76,23a5.79,5.79,0,0,0,3,2.35l3.71,1.59a2.61,2.61,0,0,1,1.15.64,1.13,1.13,0,0,1,.22,1.05,1.14,1.14,0,0,1-.62,1,5.31,5.31,0,0,1-1.93.24c-.56,0-1.42,0-2.56-.05l-4.33-.09-.87,3.89c.79.19,1.55.34,2.27.45s1.38.22,2,.29l-.74,3h4l.7-2.92a12.32,12.32,0,0,0,4.08-.69,4.82,4.82,0,0,0,2.38-1.88,8.56,8.56,0,0,0,1.1-3.37,5.64,5.64,0,0,0-.45-3.61,5.69,5.69,0,0,0-3-2.4l-3.41-1.4a3.75,3.75,0,0,1-1.4-.74,1.11,1.11,0,0,1-.26-1,1.19,1.19,0,0,1,.62-1.05A4.81,4.81,0,0,1,52.16,18l2.34,0c.82,0,1.59,0,2.3.05l1.94,0,.87-3.56a13.07,13.07,0,0,0-1.74-.45c-.61-.13-1.21-.23-1.8-.31l.69-2.68Z"/></g><g id="icone_nota_0_Layer0_2_FILL" data-name="icone nota 0 Layer0 2 FILL"><path class="cls-4" d="M38.2,17.16l.66-4.7H16.7L16,17.16Z"/></g><g id="icone_nota_0_Layer0_3_FILL" data-name="icone nota 0 Layer0 3 FILL"><path class="cls-4" d="M87.22,37l.66-4.7H65.72L65.06,37Z"/></g><path class="cls-4" d="M147,64.76a3.54,3.54,0,0,0,.25-2.73,3.41,3.41,0,0,0-1.71-2.1,3.61,3.61,0,0,0-2.7-.3,3.42,3.42,0,0,0-2.1,1.72,3.63,3.63,0,0,0-.3,2.7,3.34,3.34,0,0,0,1.69,2.1,3.46,3.46,0,0,0,2.73.29A3.32,3.32,0,0,0,147,64.76Z"/></g></g></svg>