<svg xmlns="http://www.w3.org/2000/svg" viewBox="0 0 127.41 96.16"><defs><style>.cls-1{fill:none;}.cls-1,.cls-2{stroke:#63c932;stroke-miterlimit:3;stroke-width:8px;}.cls-2{fill:#fff;}.cls-3{fill:#63c932;}</style></defs><title>80_1</title><g id="Layer_2" data-name="Layer 2"><g id="Layer_1-2" data-name="Layer 1"><path id="icone_boleto_0_Layer0_0_1_STROKES" data-name="icone boleto 0 Layer0 0 1 STROKES" class="cls-1" d="M38.19,35.63h84.59l-8.35,56.53H45.63A13.32,13.32,0,0,1,32.05,76.55Z"/><polyline class="cls-1" points="124.94 34.28 76.44 64.55 38.19 35.63"/><path id="icone_relogio_0_Layer0_0_1_STROKES" data-name="icone relogio 0 Layer0 0 1 STROKES" class="cls-2" d="M68.4,36.2A31,31,0,0,1,59,58.94,31,31,0,0,1,36.2,68.38a31.06,31.06,0,0,1-22.78-9.44A31,31,0,0,1,4,36.2a31.08,31.08,0,0,1,9.42-22.78A31.08,31.08,0,0,1,36.2,4,31,31,0,0,1,59,13.42,31.06,31.06,0,0,1,68.4,36.2Z"/><g id="Layer0_1_MEMBER_5_FILL" data-name="Layer0 1 MEMBER 5 FILL"><path class="cls-3" d="M45.22,26.32c-.59-.16-1.18-.29-1.78-.41s-1.24-.19-1.85-.24L42.25,23h-3.2l-.6,2.57a14,14,0,0,0-4,.46,4.53,4.53,0,0,0-2.41,1.64A7.35,7.35,0,0,0,31,31a5.73,5.73,0,0,0,.39,3.59,5.25,5.25,0,0,0,2.85,2.19l3.72,1.41a4.8,4.8,0,0,1,1,.43,1.11,1.11,0,0,1,.51.64,2.33,2.33,0,0,1,.05,1.09,1.81,1.81,0,0,1-.81,1.48,5.17,5.17,0,0,1-2.37.34H34.92c-.56,0-1.24,0-2.05,0l-3-.06-.73,3.19c.81.15,1.56.29,2.27.39s1.37.18,2,.22L32.65,49h3.2L36.56,46a12.54,12.54,0,0,0,3.9-.58,4.36,4.36,0,0,0,2.33-1.74A8.14,8.14,0,0,0,43.9,40.3a5.7,5.7,0,0,0-.4-3.55,5.06,5.06,0,0,0-2.94-2.23l-3.5-1.29a6.18,6.18,0,0,1-1.15-.49,1.24,1.24,0,0,1-.58-.66,2.2,2.2,0,0,1,0-1.09,2.5,2.5,0,0,1,.43-1.2,1.6,1.6,0,0,1,1-.48,8.87,8.87,0,0,1,1.69-.1h3.24l2.89.08Z"/></g></g></g></svg>