<svg xmlns="http://www.w3.org/2000/svg" xmlns:xlink="http://www.w3.org/1999/xlink" viewBox="0 0 77.89 96.28"><defs><style>.cls-1,.cls-2{fill:#fff;stroke:#63c932;stroke-miterlimit:3;}.cls-1{stroke-width:4px;}.cls-2{stroke-width:8px;}.cls-3{fill:#63c932;}</style><symbol id="mao" data-name="mao" viewBox="0 0 38.01 65.4"><path class="cls-1" d="M17.52,63.4V51.33L29.84,38.47,36,22.82V3L32.54,4.34l-2.86,16-8,10-9.89,3.16v-14l-4.56-.2L2,38.67V63.4Z"/></symbol></defs><title>80_2</title><g id="Layer_2" data-name="Layer 2"><g id="Layer_1-2" data-name="Layer 1"><path id="icone_relogio_0_Layer0_0_1_STROKES" data-name="icone relogio 0 Layer0 0 1 STROKES" class="cls-2" d="M72,36.2a31,31,0,0,1-9.44,22.74,31,31,0,0,1-22.76,9.44A31,31,0,0,1,17,58.94,31,31,0,0,1,7.55,36.2,31.08,31.08,0,0,1,17,13.42,31.06,31.06,0,0,1,39.75,4a31.06,31.06,0,0,1,22.76,9.42A31.06,31.06,0,0,1,72,36.2Z"/><g id="Layer0_1_MEMBER_5_FILL" data-name="Layer0 1 MEMBER 5 FILL"><path class="cls-3" d="M48.77,26.32c-.59-.16-1.19-.29-1.78-.41s-1.24-.19-1.85-.24L45.8,23H42.6L42,25.57a14,14,0,0,0-3.94.46,4.49,4.49,0,0,0-2.41,1.64A7.23,7.23,0,0,0,34.51,31a5.66,5.66,0,0,0,.39,3.59,5.25,5.25,0,0,0,2.85,2.19l3.72,1.41a5,5,0,0,1,1,.43,1.11,1.11,0,0,1,.51.64,2.35,2.35,0,0,1,0,1.09,1.81,1.81,0,0,1-.81,1.48,5.15,5.15,0,0,1-2.36.34H38.47c-.56,0-1.25,0-2.06,0l-3-.06-.73,3.19c.8.15,1.56.29,2.26.39s1.38.18,2,.22L36.19,49h3.2L40.11,46a12.54,12.54,0,0,0,3.9-.58,4.39,4.39,0,0,0,2.33-1.74,8.14,8.14,0,0,0,1.11-3.34,5.84,5.84,0,0,0-.4-3.55,5.06,5.06,0,0,0-2.94-2.23l-3.5-1.29a5.89,5.89,0,0,1-1.15-.49,1.3,1.3,0,0,1-.59-.66,2.35,2.35,0,0,1,0-1.09,2.4,2.4,0,0,1,.43-1.2,1.6,1.6,0,0,1,1-.48,9,9,0,0,1,1.7-.1h3.24l2.89.08Z"/></g><use width="38.01" height="65.4" transform="matrix(1, 0, -0.14, 1, 39.83, 30.87)" xlink:href="#mao"/><use width="38.01" height="65.4" transform="matrix(-1, 0, -0.14, 1, 41.34, 30.85)" xlink:href="#mao"/></g></g></svg>