<svg xmlns="http://www.w3.org/2000/svg" viewBox="0 0 131.91 82.25"><defs><style>.cls-1{fill:#fff;}.cls-2,.cls-3,.cls-4{fill:none;stroke:#63c932;stroke-linecap:round;stroke-linejoin:round;}.cls-2{stroke-width:8px;}.cls-3{stroke-width:8.87px;}.cls-4{stroke-width:4px;}.cls-5{fill:#63c932;}</style></defs><title>80_3</title><g id="Layer_2" data-name="Layer 2"><g id="Layer_1-2" data-name="Layer 1"><g id="trator_0_Layer0_0_FILL" data-name="trator 0 Layer0 0 FILL"><path class="cls-1" d="M68.31,28.62,65,59.26l52.6-.28,1.76-16.38a12.85,12.85,0,0,0-2.86-10.08,11.2,11.2,0,0,0-9-4.18Z"/></g><path id="trator_0_Layer0_0_1_STROKES" data-name="trator 0 Layer0 0 1 STROKES" class="cls-2" d="M68.31,28.62l39.16-.28a11.2,11.2,0,0,1,9,4.18,12.85,12.85,0,0,1,2.86,10.08L117.61,59,65,59.26Z"/><g id="trator_0_Layer0_1_FILL" data-name="trator 0 Layer0 1 FILL"><path class="cls-1" d="M28.81,28.62a23.48,23.48,0,0,0-17.24,7.14A23.46,23.46,0,0,0,4.43,53a23.46,23.46,0,0,0,7.14,17.24,23.48,23.48,0,0,0,17.24,7.14,23.5,23.5,0,0,0,17.25-7.14A23.49,23.49,0,0,0,53.19,53a23.49,23.49,0,0,0-7.13-17.24A23.5,23.5,0,0,0,28.81,28.62Z"/></g><path id="trator_0_Layer0_1_1_STROKES" data-name="trator 0 Layer0 1 1 STROKES" class="cls-3" d="M53.19,53a23.49,23.49,0,0,1-7.13,17.24,23.5,23.5,0,0,1-17.25,7.14,23.48,23.48,0,0,1-17.24-7.14A23.46,23.46,0,0,1,4.43,53a23.46,23.46,0,0,1,7.14-17.24,23.48,23.48,0,0,1,17.24-7.14,23.5,23.5,0,0,1,17.25,7.14A23.49,23.49,0,0,1,53.19,53Z"/><path id="trator_0_Layer0_2_1_STROKES" data-name="trator 0 Layer0 2 1 STROKES" class="cls-4" d="M37,33.38l3.8-27.2"/><path id="trator_0_Layer0_3_1_STROKES" data-name="trator 0 Layer0 3 1 STROKES" class="cls-2" d="M37.83,4l39.58.15"/><path id="trator_0_Layer0_4_1_STROKES" data-name="trator 0 Layer0 4 1 STROKES" class="cls-4" d="M73.41,4.8l2.4,23.6"/><g id="trator_0_Layer0_5_FILL" data-name="trator 0 Layer0 5 FILL"><path class="cls-1" d="M114.21,50.84A13.71,13.71,0,0,0,100.5,64.55a13.71,13.71,0,1,0,23.4-9.69A13.17,13.17,0,0,0,114.21,50.84Z"/></g><path id="trator_0_Layer0_5_1_STROKES" data-name="trator 0 Layer0 5 1 STROKES" class="cls-2" d="M127.91,64.54a13.71,13.71,0,1,1-23.4-9.69,13.71,13.71,0,0,1,23.4,9.69Z"/><path id="trator_0_Layer0_6_1_STROKES" data-name="trator 0 Layer0 6 1 STROKES" class="cls-4" d="M65.21,58.3l-1,8.7"/><path id="trator_0_Layer0_7_1_STROKES" data-name="trator 0 Layer0 7 1 STROKES" class="cls-4" d="M64,67H52.59"/><path id="trator_0_Layer0_8_1_STROKES" data-name="trator 0 Layer0 8 1 STROKES" class="cls-4" d="M66.43,57.8H54.83"/><path id="trator_0_Layer0_9_1_STROKES" data-name="trator 0 Layer0 9 1 STROKES" class="cls-4" d="M82.59,26.18,83.65,14,89,10.48"/><g id="Layer0_1_MEMBER_5_FILL" data-name="Layer0 1 MEMBER 5 FILL"><path class="cls-5" d="M37.57,43.32c-.59-.16-1.19-.3-1.78-.42s-1.24-.18-1.85-.23L34.6,40H31.4l-.61,2.58a14.37,14.37,0,0,0-3.94.45,4.56,4.56,0,0,0-2.41,1.65A7.15,7.15,0,0,0,23.31,48a5.7,5.7,0,0,0,.39,3.58,5.22,5.22,0,0,0,2.85,2.2l3.72,1.41a4.35,4.35,0,0,1,1,.43,1.12,1.12,0,0,1,.51.63,2.35,2.35,0,0,1,.05,1.09,1.88,1.88,0,0,1-.81,1.49,5.11,5.11,0,0,1-2.37.33H27.27c-.56,0-1.25,0-2.06,0l-3,0-.73,3.18c.81.16,1.56.29,2.27.4s1.37.18,2,.22L25,66h3.2L28.91,63a12.28,12.28,0,0,0,3.9-.57,4.36,4.36,0,0,0,2.33-1.74,8.14,8.14,0,0,0,1.11-3.35,5.75,5.75,0,0,0-.4-3.54,5.07,5.07,0,0,0-2.94-2.24l-3.5-1.28a5.84,5.84,0,0,1-1.15-.5,1.28,1.28,0,0,1-.59-.65,2.36,2.36,0,0,1,0-1.09,2.48,2.48,0,0,1,.43-1.21,1.55,1.55,0,0,1,1-.47,8.81,8.81,0,0,1,1.69-.1H34l2.89.08Z"/></g></g></g></svg>