<svg xmlns="http://www.w3.org/2000/svg" viewBox="0 0 94.63 99.07"><defs><style>.cls-1,.cls-2{fill:none;}.cls-1,.cls-2,.cls-3{stroke:#63c932;stroke-miterlimit:3;}.cls-1{stroke-width:8px;}.cls-2{stroke-width:4px;}.cls-3{fill:#fff;stroke-width:6.02px;}.cls-4{fill:#63c932;}</style></defs><title>80_4</title><g id="Layer_2" data-name="Layer 2"><g id="Layer_1-2" data-name="Layer 1"><path id="icone_casa_0_Layer0_0_1_STROKES" data-name="icone casa 0 Layer0 0 1 STROKES" class="cls-1" d="M10.45,38.5h79l-8,56.57h-67A10.13,10.13,0,0,1,4.13,83.19Z"/><path id="icone_casa_0_Layer0_1_1_STROKES" data-name="icone casa 0 Layer0 1 1 STROKES" class="cls-1" d="M52.52,13,92.47,38.64H5.33Z"/><path id="icone_casa_0_Layer0_2_1_STROKES" data-name="icone casa 0 Layer0 2 1 STROKES" class="cls-2" d="M52.69,60.88H70.63l-4.5,31.8H48.19Z"/><path id="icone_casa_0_Layer0_3_1_STROKES" data-name="icone casa 0 Layer0 3 1 STROKES" class="cls-2" d="M23.85,60.89H37.57L35.64,74.47H21.92Z"/><path id="icone_casa_0_Layer0_4_1_STROKES" data-name="icone casa 0 Layer0 4 1 STROKES" class="cls-2" d="M8.73,50.71l79.09-.55"/><path id="icone_relogio_0_Layer0_0_1_STROKES" data-name="icone relogio 0 Layer0 0 1 STROKES" class="cls-3" d="M75.16,27.24a23.29,23.29,0,0,1-7.11,17.11,23.3,23.3,0,0,1-17.12,7.1,23.35,23.35,0,0,1-17.15-7.1A23.34,23.34,0,0,1,26.7,27.24,23.39,23.39,0,0,1,33.78,10.1,23.38,23.38,0,0,1,50.93,3,23.33,23.33,0,0,1,68.05,10.1,23.34,23.34,0,0,1,75.16,27.24Z"/><g id="Layer0_1_MEMBER_5_FILL" data-name="Layer0 1 MEMBER 5 FILL"><path class="cls-4" d="M60,17.15c-.59-.16-1.18-.3-1.78-.42s-1.24-.18-1.84-.24L57,13.82H53.8l-.61,2.58a14.37,14.37,0,0,0-3.94.45,4.61,4.61,0,0,0-2.42,1.64,7.35,7.35,0,0,0-1.13,3.33,5.64,5.64,0,0,0,.4,3.58A5.22,5.22,0,0,0,49,27.6L52.67,29a5,5,0,0,1,1,.44,1.2,1.2,0,0,1,.51.63,2.37,2.37,0,0,1,0,1.09,1.83,1.83,0,0,1-.81,1.49,5.06,5.06,0,0,1-2.37.33H49.66c-.56,0-1.24,0-2,0l-3-.06-.73,3.19c.8.16,1.56.29,2.26.4s1.38.17,2,.21l-.73,3.17h3.2l.72-3.07a12.28,12.28,0,0,0,3.9-.57,4.33,4.33,0,0,0,2.32-1.74,8,8,0,0,0,1.12-3.35,5.82,5.82,0,0,0-.4-3.54,5.07,5.07,0,0,0-2.94-2.24l-3.5-1.28a5.59,5.59,0,0,1-1.15-.5,1.28,1.28,0,0,1-.59-.65,2.35,2.35,0,0,1,0-1.09,2.58,2.58,0,0,1,.43-1.21,1.6,1.6,0,0,1,1-.47,8.22,8.22,0,0,1,1.7-.1h3.24l2.88.08Z"/></g></g></g></svg>