<svg xmlns="http://www.w3.org/2000/svg" viewBox="0 0 95.39 85.86"><defs><style>.cls-1,.cls-3,.cls-4{fill:none;stroke-miterlimit:10;}.cls-1,.cls-4{stroke:#63c932;}.cls-1{stroke-width:8px;}.cls-2{fill:#63c932;}.cls-3{stroke:#6bbe45;}.cls-3,.cls-4{stroke-width:4px;}</style></defs><title>80_5</title><g id="Layer_2" data-name="Layer 2"><g id="Layer_1-2" data-name="Layer 1"><path id="Layer0_1_MEMBER_1_1_STROKES" data-name="Layer0 1 MEMBER 1 1 STROKES" class="cls-1" d="M85,28.56q-6.67-.51-8.3-7.78-1.51-6.75,1.88-15A76.74,76.74,0,0,0,68,8.84q-4.64,2-6.24,5.26-.66,1.34-4,2.12a11.54,11.54,0,0,1-4.82.34q-3.48-.76-5.14-1a33.54,33.54,0,0,0-5.36-.48,47.83,47.83,0,0,0-15,2.34,40.17,40.17,0,0,0-12.22,6.34A30.32,30.32,0,0,0,7,33.08,23,23,0,0,0,4,44.4a22.45,22.45,0,0,0,2,9.32,27.58,27.58,0,0,0,5.64,8l-.24,20.1H26.9l1.82-10.42a49.06,49.06,0,0,0,13.72,1.9A51.54,51.54,0,0,0,48.58,73l.16,8.88H63L65.1,68.68c.75-.42,2.07-1.1,4-2.06a42.26,42.26,0,0,0,4.56-2.68q5.46-3.77,6.84-8.84a2.53,2.53,0,0,1,1.3-1.6,2.83,2.83,0,0,1,2.1-.28c1.76.44,3.27-.44,4.54-2.62a22.73,22.73,0,0,0,2.36-8.1q.36-2.69.5-8.54l.06-5.3A61.2,61.2,0,0,1,85,28.56Z"/><g id="Layer0_1_MEMBER_5_FILL" data-name="Layer0 1 MEMBER 5 FILL"><path class="cls-2" d="M48.39,34.31c-.6-.16-1.19-.3-1.79-.41s-1.24-.19-1.84-.24L45.42,31h-3.2l-.61,2.57a14.37,14.37,0,0,0-3.94.45,4.63,4.63,0,0,0-2.42,1.65A7.31,7.31,0,0,0,34.12,39a5.67,5.67,0,0,0,.4,3.59,5.25,5.25,0,0,0,2.85,2.19l3.72,1.41a4.53,4.53,0,0,1,1,.43,1.19,1.19,0,0,1,.51.64,2.35,2.35,0,0,1,0,1.09,1.82,1.82,0,0,1-.81,1.48,5.17,5.17,0,0,1-2.37.34H38.08c-.56,0-1.24,0-2,0l-3-.06-.73,3.18c.8.16,1.56.29,2.26.4s1.38.18,2,.22L35.81,57H39L39.73,54a12.54,12.54,0,0,0,3.9-.58A4.33,4.33,0,0,0,46,51.63a8,8,0,0,0,1.12-3.34,5.84,5.84,0,0,0-.4-3.55,5.06,5.06,0,0,0-2.94-2.23l-3.5-1.29a5.09,5.09,0,0,1-1.15-.5,1.2,1.2,0,0,1-.59-.65A2.34,2.34,0,0,1,38.44,39a2.5,2.5,0,0,1,.43-1.2,1.6,1.6,0,0,1,1-.48,9,9,0,0,1,1.7-.1H44.8l2.89.08Z"/></g><g id="Layer0_1_MEMBER_2_FILL" data-name="Layer0 1 MEMBER 2 FILL"><path class="cls-2" d="M75.14,34.08a3,3,0,0,0-.92-2.2A2.93,2.93,0,0,0,72,31a3.13,3.13,0,0,0-2.2,5.32,3,3,0,0,0,2.2.92,3.14,3.14,0,0,0,3.12-3.12Z"/></g><path id="Layer0_1_MEMBER_4_1_STROKES" data-name="Layer0 1 MEMBER 4 1 STROKES" class="cls-3" d="M31.62,24a22.78,22.78,0,0,1,10.44-2.32,18.88,18.88,0,0,1,8.5,2.06"/><g id="Layer0_1_MEMBER_2_FILL-2" data-name="Layer0 1 MEMBER 2 FILL"><path class="cls-2" d="M75.14,34.08a3,3,0,0,0-.92-2.2A2.93,2.93,0,0,0,72,31a3.13,3.13,0,0,0-2.2,5.32,3,3,0,0,0,2.2.92,3.14,3.14,0,0,0,3.12-3.12Z"/></g><path id="Layer0_1_MEMBER_3_1_STROKES" data-name="Layer0 1 MEMBER 3 1 STROKES" class="cls-4" d="M74.28,12.66a11,11,0,0,0-4.94,5.76,22.52,22.52,0,0,0-1.06,7.44"/></g></g></svg>