<svg xmlns="http://www.w3.org/2000/svg" viewBox="0 0 112.87 64.54"><defs><style>.cls-1{font-size:54.57px;font-family:Exo2.0-Bold, "Exo 2.0";font-weight:700;}.cls-1,.cls-4{fill:#63c932;}.cls-2{letter-spacing:-0.02em;}.cls-3{fill:#fff;stroke:#63c932;stroke-miterlimit:3;stroke-width:6.02px;}</style></defs><title>80_6</title><g id="Layer_2" data-name="Layer 2"><g id="Layer_1-2" data-name="Layer 1"><text class="cls-1" transform="translate(54.53 48.61)">L<tspan class="cls-2" x="29.03" y="0">F</tspan></text><path id="icone_relogio_0_Layer0_0_1_STROKES" data-name="icone relogio 0 Layer0 0 1 STROKES" class="cls-3" d="M51.47,27.24a23.32,23.32,0,0,1-7.1,17.11,23.34,23.34,0,0,1-17.13,7.1,23.33,23.33,0,0,1-17.14-7.1A23.31,23.31,0,0,1,3,27.24,23.36,23.36,0,0,1,10.1,10.1,23.36,23.36,0,0,1,27.24,3,23.37,23.37,0,0,1,44.37,10.1,23.37,23.37,0,0,1,51.47,27.24Z"/><g id="Layer0_1_MEMBER_5_FILL" data-name="Layer0 1 MEMBER 5 FILL"><path class="cls-4" d="M36.28,17.15c-.59-.16-1.19-.3-1.78-.42s-1.24-.18-1.85-.24l.66-2.67h-3.2L29.5,16.4a14.37,14.37,0,0,0-3.94.45,4.55,4.55,0,0,0-2.41,1.64A7.23,7.23,0,0,0,22,21.82a5.64,5.64,0,0,0,.39,3.58,5.22,5.22,0,0,0,2.85,2.2L29,29a5,5,0,0,1,1,.44,1.12,1.12,0,0,1,.51.63,2.37,2.37,0,0,1,0,1.09,1.83,1.83,0,0,1-.81,1.49A5,5,0,0,1,27.4,33H26c-.56,0-1.25,0-2.06,0l-3-.06-.73,3.19c.8.16,1.56.29,2.26.4s1.38.17,2,.21l-.72,3.17h3.2l.71-3.07a12.28,12.28,0,0,0,3.9-.57,4.39,4.39,0,0,0,2.33-1.74A8.19,8.19,0,0,0,35,31.12a5.75,5.75,0,0,0-.4-3.54,5.07,5.07,0,0,0-2.94-2.24l-3.5-1.28a5.84,5.84,0,0,1-1.15-.5,1.32,1.32,0,0,1-.59-.65,2.37,2.37,0,0,1,0-1.09,2.48,2.48,0,0,1,.43-1.21,1.54,1.54,0,0,1,1-.47,8.22,8.22,0,0,1,1.7-.1h3.24l2.89.08Z"/></g><g id="icone_relogio_0_Layer0_7_FILL" data-name="icone relogio 0 Layer0 7 FILL"><path class="cls-4" d="M59,38a6.11,6.11,0,0,0,2.69-5.55,67,67,0,0,1,.87-11.36c.11-.57-.11-1.92-2.41-4.16-2.35,6.3-5.69,7-9.69-2.12a61,61,0,0,1,1.22,24C55,33.44,58.06,33.17,59,38Z"/></g></g></g></svg>