<?xml version="1.0" encoding="utf-8"?>
<!-- Generator: Adobe Illustrator 23.0.3, SVG Export Plug-In . SVG Version: 6.00 Build 0)  -->
<svg version="1.1" id="Layer_1" xmlns="http://www.w3.org/2000/svg" xmlns:xlink="http://www.w3.org/1999/xlink" x="0px" y="0px"
	 viewBox="0 0 197.5 76.6" style="enable-background:new 0 0 197.5 76.6;" xml:space="preserve">
<style type="text/css">
	.st0{fill:#006633;}
</style>
<title>Asset 3</title>
<path class="st0" d="M11.2,76.6C8,76.6,5,75.3,2.8,73c-2.3-2.4-3.3-5.8-2.6-9.1L9.1,7.3h92.5l-11,69.3
	C90.6,76.6,11.2,76.6,11.2,76.6z M15.9,15.3L8.1,65.4c-0.2,0.7,0,1.5,0.5,2.1c0.7,0.8,1.7,1.2,2.7,1.1h72.5l8.4-53.3H15.9z"/>
<path class="st0" d="M32.6,20.4H21.9l-1.2,7.9c-0.1,0.3,0,0.6,0.2,0.8c0.2,0.2,0.4,0.3,0.7,0.3h9.6L32.6,20.4z"/>
<path class="st0" d="M49.2,20.4H38.5l-1.2,7.9c0,0.3,0,0.6,0.2,0.8c0.2,0.2,0.5,0.3,0.8,0.3h9.5L49.2,20.4z"/>
<path class="st0" d="M65.9,20.4H55.2L54,28.3c-0.1,0.3,0,0.6,0.1,0.8c0.2,0.2,0.5,0.3,0.8,0.3h9.6L65.9,20.4z"/>
<path class="st0" d="M82.5,20.4H71.8l-1.2,7.9c-0.1,0.3,0,0.6,0.2,0.8c0.2,0.2,0.4,0.3,0.7,0.3h9.6L82.5,20.4z"/>
<path class="st0" d="M30,36.9H19.3l-1.2,7.9c-0.1,0.5,0.2,1,0.7,1.1c0.1,0,0.1,0,0.2,0h9.6L30,36.9z"/>
<path class="st0" d="M46.7,36.9H36l-1.2,7.9c-0.1,0.3,0,0.6,0.2,0.8c0.2,0.2,0.4,0.3,0.7,0.3h9.6L46.7,36.9z"/>
<path class="st0" d="M63.3,36.9H52.6l-1.2,7.9c-0.1,0.3,0,0.6,0.2,0.8c0.2,0.2,0.4,0.3,0.7,0.3h9.6L63.3,36.9z"/>
<path class="st0" d="M80,36.9H69.2L68,44.8c0,0.3,0,0.6,0.2,0.8c0.2,0.2,0.5,0.3,0.8,0.3h9.6L80,36.9z"/>
<path class="st0" d="M26.1,62.4l1.4-9H16.8l-1.3,7.8c0,0.3,0.1,0.6,0.2,0.8c0.2,0.3,0.5,0.4,0.8,0.4H26.1z"/>
<path class="st0" d="M42.7,62.4l1.4-9H33.4l-1.2,7.8c-0.1,0.3,0,0.6,0.2,0.8c0.2,0.2,0.4,0.3,0.7,0.4H42.7z"/>
<path class="st0" d="M59.4,62.4l1.3-9H50l-1.2,7.8c-0.1,0.3,0,0.6,0.2,0.8c0.2,0.2,0.4,0.3,0.7,0.4H59.4z"/>
<path class="st0" d="M76,62.4l1.4-9H66.7l-1.2,7.8c-0.1,0.3,0,0.6,0.2,0.8c0.2,0.2,0.4,0.4,0.7,0.4H76z"/>
<path class="st0" d="M21.3,0h-7.6l-1.9,12.1h7.6L21.3,0z"/>
<path class="st0" d="M36.7,0h-7.6l-1.9,12.1h7.6L36.7,0z"/>
<path class="st0" d="M52.1,0h-7.5l-1.9,12.1h7.6L52.1,0z"/>
<path class="st0" d="M67.6,0H60l-1.9,12.1h7.6L67.6,0z"/>
<path class="st0" d="M82.2,0h-7.6l-1.9,12.1h7.6L82.2,0z"/>
<path class="st0" d="M97.6,0H90l-1.8,12.1h7.5L97.6,0z"/>
<path class="st0" d="M119.6,25.5h-3.4l-0.7,2.6h-2.2l2.8-9.3c0.1-0.3,0.5-0.5,0.8-0.5h2c0.3,0,0.7,0.2,0.8,0.5l2.8,9.3h-2.2
	L119.6,25.5z M119.1,23.8l-0.8-3c-0.1-0.3-0.1-0.6-0.2-0.9h-0.4l-0.2,0.9l-0.8,3H119.1z"/>
<path class="st0" d="M128.6,20.9l-0.2,1.9h-0.6c-0.7,0.1-1.4,0.2-2.1,0.5v4.8h-2.1v-7h1.6l0.2,1c0.8-0.7,1.8-1.2,2.8-1.2L128.6,20.9
	z"/>
<path class="st0" d="M132.7,22.5v3.3c0,0.5,0.2,0.7,0.8,0.7h0.9l0.2,1.5c-0.6,0.2-1.3,0.3-2,0.3c-1,0.1-1.9-0.7-2-1.8
	c0-0.1,0-0.2,0-0.3v-3.7h-1.2v-1.4h1.2v-2h2.1v2h1.9v1.4H132.7z"/>
<path class="st0" d="M137.9,18.6v0.8c0.1,0.3-0.1,0.5-0.4,0.6c-0.1,0-0.2,0-0.2,0h-0.9c-0.3,0.1-0.5-0.1-0.6-0.4c0-0.1,0-0.2,0-0.2
	v-0.8c-0.1-0.3,0.1-0.5,0.4-0.6c0.1,0,0.2,0,0.2,0h0.9c0.3-0.1,0.5,0.1,0.6,0.4C137.9,18.4,137.9,18.5,137.9,18.6z M137.9,28.1h-2.1
	v-7h2.1V28.1z"/>
<path class="st0" d="M146.6,22h-0.8c0.1,0.3,0.1,0.7,0.1,1c0,1.6-0.8,2.3-3.3,2.3h-1.2c-0.2,0.2-0.1,0.5,0.1,0.7
	c0.1,0.1,0.2,0.1,0.3,0.1l2.6,0.3c1.4,0.2,2,0.9,2,2.1s-1,2.3-3.7,2.3s-3.7-0.5-3.7-2.1s0.3-1.1,1.1-1.5c-0.5-0.6-0.4-1.6,0.2-2.1
	c0,0,0.1-0.1,0.1-0.1c-0.8-0.3-1.1-0.9-1.1-1.9s0.9-2.2,3.3-2.2c0.6,0,1.3,0,1.9,0.2h2.2L146.6,22z M143.3,27.8l-1.8-0.2
	c-0.3,0.3-0.5,0.5-0.5,0.8s0.3,0.8,1.7,0.8s1.7-0.1,1.7-0.7S144.1,27.9,143.3,27.8z M144,23.1c0-0.7-0.3-0.9-1.4-0.9
	s-1.3,0.2-1.3,0.9s0.3,0.9,1.3,0.9S144,23.8,144,23.1z"/>
<path class="st0" d="M154.6,24.6c0,2.7-1,3.7-3.6,3.7s-3.6-1-3.6-3.7s1-3.7,3.6-3.7S154.6,21.9,154.6,24.6z M149.6,24.6
	c0,1.7,0.3,2.1,1.4,2.1s1.4-0.4,1.4-2.1s-0.3-2.1-1.4-2.1S149.6,22.9,149.6,24.6z"/>
<path class="st0" d="M163,28.1h-2.1v-6.9c0-0.4,0-0.7,0.1-1.1l-2.3,0.6l-0.3-1.4l2.5-1h2.1V28.1z"/>
<path class="st0" d="M172.4,23.2c0,3.7-1,5.1-3.8,5.1s-3.8-1.4-3.8-5.1s1-5.1,3.8-5.1S172.4,19.4,172.4,23.2z M166.9,23.2
	c0,2.7,0.4,3.3,1.7,3.3s1.6-0.6,1.6-3.3s-0.4-3.4-1.6-3.4S166.9,20.5,166.9,23.2z"/>
<path class="st0" d="M178.8,21.8c0,1.8-0.7,2.5-2.5,2.5s-2.6-0.7-2.6-2.5s0.7-2.5,2.6-2.5S178.8,20,178.8,21.8z M175.3,21.8
	c0.1,1.1,0.3,1.4,1,1.4s0.9-0.3,0.9-1.4s-0.2-1.3-0.9-1.3S175.4,20.7,175.3,21.8z"/>
<path class="st0" d="M121.6,38.4c0,2.5-0.9,3.2-3.3,3.2h-1.8v3.7h-2.2v-10h3.7C120.7,35.2,121.6,35.9,121.6,38.4z M119.4,38.4
	c0-1.2-0.3-1.5-1.4-1.5h-1.5V40h1.5C119.1,39.9,119.4,39.6,119.4,38.4z"/>
<path class="st0" d="M129.3,40.5v4.7h-1.7l-0.2-1.1c-0.6,0.8-1.6,1.2-2.6,1.2c-1.1,0.2-2.1-0.6-2.3-1.7c0-0.1,0-0.2,0-0.3v-0.7
	c0-1.1,0.8-1.8,2.2-1.8h2.5v-0.3c-0.1-0.7-0.3-0.9-1.2-0.9h-2.9l-0.2-1.4c1.2-0.2,2.4-0.4,3.6-0.4C128.3,37.9,129.3,38.5,129.3,40.5
	z M125.4,43.7c0.6,0,1.3-0.2,1.8-0.6v-1h-1.9c-0.5,0-0.7,0.3-0.7,0.6V43C124.6,43.5,124.8,43.7,125.4,43.7z"/>
<path class="st0" d="M135.9,37.9l-0.2,2h-0.6c-0.7,0-1.4,0.2-2.1,0.5v4.8h-2.1v-7.1h1.6l0.2,1.1c0.8-0.7,1.7-1.2,2.8-1.3L135.9,37.9
	z"/>
<path class="st0" d="M143.4,40.5v4.7h-1.7l-0.2-1.1c-0.6,0.8-1.6,1.2-2.6,1.2c-1.1,0.2-2.1-0.6-2.3-1.7c0-0.1,0-0.2,0-0.3v-0.7
	c0-1.1,0.8-1.8,2.2-1.8h2.5v-0.3c0-0.7-0.3-0.9-1.2-0.9h-2.9l-0.2-1.4c1.2-0.2,2.4-0.4,3.6-0.4C142.4,37.9,143.4,38.5,143.4,40.5z
	 M139.5,43.7c0.6,0,1.3-0.2,1.8-0.6v-1h-1.9c-0.5,0-0.7,0.3-0.7,0.6V43C138.7,43.5,138.9,43.7,139.5,43.7z M139.5,37.3l-0.6-0.9
	l2.9-2.1l0.9,1.4L139.5,37.3z"/>
<path class="st0" d="M152.1,39.1h-0.9c0.1,0.3,0.2,0.7,0.2,1c0,1.6-0.9,2.2-3.3,2.2h-1.3c-0.1,0.3-0.1,0.7,0.5,0.8l2.5,0.3
	c1.5,0.2,2.1,0.8,2.1,2.1s-1,2.3-3.7,2.3s-3.7-0.6-3.7-2.1c0-0.7,0.4-1.3,1.1-1.5c-0.6-0.5-0.6-1.4-0.1-2c0.1-0.1,0.2-0.2,0.3-0.2
	c-0.7-0.4-1.1-1.1-1-1.9c0-1.6,0.8-2.3,3.3-2.3l1.8,0.2h2.3L152.1,39.1z M148.7,44.9l-1.8-0.2c-0.3,0.2-0.4,0.5-0.4,0.8
	c0,0.7,0.3,0.8,1.6,0.8s1.7-0.1,1.7-0.8S149.6,45,148.7,44.9L148.7,44.9z M149.4,40.2c0-0.7-0.3-0.9-1.3-0.9s-1.4,0.2-1.4,0.9
	s0.3,0.9,1.4,0.9S149.4,40.9,149.4,40.2L149.4,40.2z"/>
<path class="st0" d="M158.3,37.9l-0.2,2h-0.6c-0.7,0-1.4,0.2-2.1,0.5v4.8h-2.1v-7.1h1.6l0.2,1.1c0.8-0.7,1.7-1.2,2.8-1.3L158.3,37.9
	z"/>
<path class="st0" d="M165.8,40.5v4.7h-1.7l-0.2-1.1c-0.6,0.8-1.6,1.2-2.6,1.2c-1.1,0.2-2.1-0.6-2.3-1.7c0-0.1,0-0.2,0-0.3v-0.7
	c0-1.1,0.8-1.8,2.2-1.8h2.5v-0.3c-0.1-0.7-0.3-0.9-1.2-0.9h-3l-0.2-1.4c1.2-0.2,2.5-0.4,3.7-0.4C164.8,37.9,165.8,38.5,165.8,40.5z
	 M161.9,43.7c0.6,0,1.3-0.2,1.8-0.6v-1h-1.9c-0.5,0-0.7,0.3-0.7,0.6V43C161.1,43.5,161.3,43.7,161.9,43.7L161.9,43.7z"/>
<path class="st0" d="M170.2,37.4v0.7h1.9v1.4h-1.9v5.7h-2.1v-5.7h-1.3v-1.3h1.3v-1c0-1.3,0.6-2.2,2.3-2.2c0.7,0,1.5,0,2.2,0.2
	l-0.2,1.3h-1.3C170.4,36.4,170.2,36.7,170.2,37.4z"/>
<path class="st0" d="M180.1,41.7c0,2.6-1,3.6-3.6,3.6s-3.6-1-3.6-3.6s1-3.8,3.6-3.8S180.1,39,180.1,41.7z M175.1,41.7
	c0,1.6,0.3,2.1,1.4,2.1s1.4-0.5,1.4-2.1s-0.3-2.2-1.4-2.2S175.1,39.9,175.1,41.7z"/>
<path class="st0" d="M191.1,37.4c0,1.2-0.3,1.9-1.6,3.3l-2.5,2.6h4.4v2h-7v-1.4c0-0.3,0.1-0.6,0.3-0.8l2.4-2.6
	c1.2-1.2,1.8-2.1,1.8-2.8s-0.5-0.7-1.3-0.7h-3v-1.5c1.1-0.2,2.2-0.3,3.3-0.3C189.8,35.2,191.1,35.6,191.1,37.4z"/>
<path class="st0" d="M197.5,38.9c0,1.8-0.7,2.5-2.5,2.5s-2.5-0.7-2.5-2.5s0.6-2.5,2.5-2.5S197.5,37.1,197.5,38.9z M194.1,38.9
	c0,1.1,0.2,1.3,0.9,1.3s0.9-0.2,0.9-1.3s-0.2-1.4-0.9-1.4S194.1,37.8,194.1,38.9z"/>
<path class="st0" d="M116.4,59.7c0,0.5,0.2,0.8,0.8,0.8h3.4v1.6l-4.2,0.2c-1,0.2-2-0.5-2.2-1.6c0-0.2,0-0.4,0-0.5v-7.8h2.1
	L116.4,59.7z"/>
<path class="st0" d="M128,60.6l0.2,1.3c-1,0.4-2,0.5-3,0.5c-2.7,0-3.7-1.1-3.7-3.7s1-3.7,3.6-3.7s3.3,0.8,3.3,2.5s-0.6,1.9-2.1,1.9
	h-2.5c0.1,1.1,0.6,1.3,1.6,1.3L128,60.6z M123.7,58.2h2c0.6,0,0.7-0.4,0.7-0.8s-0.3-0.9-1.2-0.9S123.8,56.8,123.7,58.2z"/>
<path class="st0" d="M131.9,52.7v0.8c0.1,0.3-0.1,0.5-0.4,0.6c-0.1,0-0.2,0-0.2,0h-0.9c-0.5,0-0.7-0.2-0.7-0.6v-0.8
	c0-0.4,0.2-0.6,0.7-0.6h0.9c0.3-0.1,0.5,0.1,0.6,0.4C131.9,52.5,131.9,52.6,131.9,52.7z M131.9,62.2h-2.1v-7h2.1V62.2z"/>
<path class="st0" d="M143.5,57.2c0,4.4-1.1,5.2-4.1,5.2c-0.8,0-1.7-0.1-2.5-0.3v-1.4h2.4c1.4,0,1.9-0.5,2-2.6
	c-0.6,0.6-1.4,0.9-2.2,0.8c-2.1,0-2.7-1.4-2.7-3.1s0.8-3.6,3.4-3.6S143.5,53.3,143.5,57.2z M139.9,57.3c0.5,0,1.1-0.2,1.5-0.5
	c0-2.4-0.1-2.9-1.5-2.9s-1.4,0.6-1.4,1.8S138.8,57.3,139.9,57.3z"/>
<path class="st0" d="M146.8,60.8v0.7c0,0.5-0.2,0.7-0.7,0.7h-0.6c-0.6,0-0.8-0.2-0.8-0.7v-0.7c0-0.6,0.2-0.7,0.8-0.7h0.6
	C146.6,60.1,146.8,60.2,146.8,60.8z"/>
<path class="st0" d="M155.1,58.9c0,2.2-0.6,3.5-3.4,3.5s-3.6-1-3.6-5s1.3-5.2,4.1-5.2c0.8,0,1.6,0.1,2.3,0.3v1.4h-2.2
	c-1.5,0-1.9,0.4-2,2.6c0.6-0.5,1.3-0.8,2.1-0.7C154.5,55.8,155.1,56.6,155.1,58.9z M153.1,58.9c0-1.2-0.3-1.6-1.4-1.6
	c-0.6,0-1.1,0.2-1.6,0.5c0.1,2.4,0.2,2.9,1.6,2.9S153.1,60.2,153.1,58.9z"/>
<path class="st0" d="M160.4,62.2h-2.2v-6.9c0-0.3,0.1-0.7,0.1-1.1l-2.3,0.6l-0.2-1.4l2.4-1h2.2V62.2z"/>
<path class="st0" d="M168.5,54.5c0,1.3-0.3,2.3-1.5,2.5l0,0c1.3,0.2,1.7,1.1,1.7,2.5s-0.9,2.9-3.3,2.9c-1.1,0-2.3-0.1-3.4-0.3v-1.6
	h2.7c1.3,0,1.8-0.3,1.8-1.4s-0.3-1.4-1.5-1.3h-1.9v-1.4h1.9c1.2,0,1.3-0.6,1.3-1.3S166,54,164.8,54h-2.6v-1.5c1-0.2,2.1-0.3,3.1-0.3
	C167.5,52.2,168.5,52.8,168.5,54.5z"/>
</svg>
